<?xml version="1.0" encoding="UTF-8"?><svg xmlns="http://www.w3.org/2000/svg" xmlns:xlink="http://www.w3.org/1999/xlink" viewBox="0 0 434.65 434.65"><defs><style>.d{fill:url(#c);}</style><linearGradient id="c" x1="240.05" y1="421.48" x2="240.05" y2="106.36" gradientTransform="matrix(1, 0, 0, 1, 0, 0)" gradientUnits="userSpaceOnUse"><stop offset="0" stop-color="#d1d706"/><stop offset="1" stop-color="#88bd32"/></linearGradient></defs><g id="a"/><g id="b"><path class="d" d="M84.82,323.37c-.55,.04-1.41-.84-1.59-.05,.33,1.64,1.41,.85,1.59,.05Zm-14.99,47c-.03,.09-.06,.18-.09,.26,0,.02,.01,.04,.02,.06,.02-.12,.05-.23,.07-.32Zm.09,.56c-.08-.05-.13-.12-.16-.24-.12,.61-.24,1.38,.16,.24Zm.31-.94c-.13,.41-.23,.71-.31,.94,.02,.01,.03,.02,.05,.03,.07-.31,.16-.63,.25-.97Zm37.63,13.53c-.31-.51-.63-1.04-.92-1.66-.13-.3-.26-.62-.4-1-.14-.38-.23-.75-.37-1.24l.59,.28c-.66-1.33-1.5-2.82-2.32-4.29-.88-1.49-1.78-3.02-2.7-4.57-1.82-3.07-3.58-6.11-5.09-9.09-.77-1.49-1.47-2.97-2.1-4.45-.4-.92-.8-1.84-1.19-2.76-.63-1.49-1.15-2.88-1.59-4.02-.06,.32-.38,.28-.68,.44-.14-.67-.22-1.31-.23-1.81-.01-.14,0-.24,0-.35v-.08l.02-.22,.05-.46c.05-.61,.11-1.22,.16-1.84,.07-.62,.06-1.21,.05-1.81l-.04-1.78c-.07-1.17-.25-2.29-.4-3.4-.79-4.4-2.5-8.19-5.01-10.84,.7,2.05,.75,5.02,.89,7.92,.08,2.93,.28,5.75,1.45,8.13-.55,.8-.65,1.87-.71,2.83-.02,.24-.04,.47-.07,.69-.03,.18-.07,.32-.14,.46-.13,.27-.33,.49-.74,.62-.25,1.4-.06,2.68,.29,3.77,.36,1.1,.89,2.03,1.46,2.92,.29,.45,.59,.88,.9,1.33,.32,.47,.6,.85,.99,1.54,.74,1.27,1.55,2.76,2.35,4.51,.13,.98-.95,.44-1.67,.64-1.01-1.64-1.91-3.19-2.71-4.67l.44,2.85c-.6-.55-1.02-1.5-1.47-2.32-.44-.79-.92-1.56-1.64-1.51,.74,.92,1.3,1.81,1.87,2.88,.57,1.07,1.12,2.23,1.69,3.37,1.16,2.32,2.4,4.49,4.66,6.9-.26-1.38-1.85-3.68-2.58-5.55,.22-.72-.01-2.12,.88-1.98,2.68,3.29,4.89,6.9,6.28,9.96,1.38,3.09,1.97,5.53,2.97,8.32,.48,1.39,.6,2.85-.04,2.45-.42-1.01-.87-.92-1.41-1.89,.59,1.15,1.2,1.74,1.74,2.34,.53,.6,.99,1.16,.87,2.24l-2.14-2.3c.62,.79,.89,1.34,.97,1.81,.05,.45-.02,.88-.53,1.21-.55,.28-1.21,.08-1.68-.03-.49-.11-.85-.2-.95,.02-.69-.58-.91-.92-.76-1.02,.15-.12,.65,.05,1.4,.11-1.02-.3-1.25-.33-1.39-.19-.14,.12-.16,.33-.74,.06-.25-.56-.47-1.06-.63-1.51,.14,.6-.47,.26-1.36-.52-.45-.38-.96-.87-1.45-1.35-.62-.64-1.19-1.24-1.66-1.72,.93,1.24,2.89,3.23,1.23,2.26-.96-.74-1.13-1.24-1.59-1.73,.42,.61,.78,1.56-.24,1.12-.93-1.15-.35-1.13-1.03-2.11-.77-.45-1.35-.67-2.54-1.94-.9,.03,1.13,1.63,.97,2.34-1.43-.98-2.14-2.12-2.65-3.15-.49-.99-1.01-2.12-1.99-3.41,.47-.71,1.47-.36,1.31-.97-.4-.08-.87-.2-1.4-.33-.35-.6-1.05-1.36-1.57-2-.53-.65-.88-1.19-.86-1.56-1.1-1.01-1.76-1.34-2.5-1.48-.72-.13-1.55-.06-2.52,.04,.25,.36,.63,.68,.6,1.22-1.15,.18-.98-.84-1.09-1.51-.1,.06-.19,.13-.27,.21-.15,.08-.37,.16-.51,.26-.31,.2-.53,.45-.73,.72-.39,.53-.65,1.19-1.18,1.7-.23-.09-.37-.16-.48-.21l-.34-.15c-.21-.08-.39-.12-.56-.16-.32-.05-.58-.05-.8-.02-.24,.01-.46,.02-.62-.04-.13,.55-.23,1.04-.3,1.49-.03,.5-.16,.32-.25,.29-.09-.06-.18-.15-.27-.26h0c.2-.64,.4-1.25,.6-1.84,0-.01,0-.01,0-.03l-.6,1.69c-.03-.06-.06-.05-.11,0-.02-.03-.03-.05-.05-.08,.15-.38,.14-.37,.23-.49,.17-.61,.05-.24-.23,.48-.26-.42-.52-.87-.98-.91l1.01-1.74c-.67,.8-.82,.07-.96-.54-.15-.63-.31-1.16-1.2-.72l.44-.57c-.6-.03-1.23-.2-1.86-.53,0-1,1.87-1.66,1.35-1.46-.28-.71-.49-1.43-.56-2.11-.01-.19-.02-.38-.03-.56-.01-.27-.01-.53,0-.79,.01-.51,.09-1.01,.21-1.48-1.76-.27-2.52-3.23-2.89-5.62,.14-5.81-.12-11.75-.28-17.61-.08-2.93-.13-5.84-.04-8.68,.1-2.84,.32-5.62,.97-8.27,.13-.38,.23-.81,.28-1.33,.03-.52,.08-1.08,.15-1.69,.08-1.01,.41-2.14,.93-3.09,.32,.02,.69-.02,1.1-.11,.73-.16,1.5-.42,2.06-.5-.47-.95-1.14-.32-1.8-.98-.21-.8,1.02-2.16,1.65-3.09-.35,.34-.69,.68-1.02,1.04-.73,.08-.66-.17-.59-.34,.06-.18,.12-.3-.71-.18l2.07-1.17c-1.17,.47-.53-.44-.03-.79-.54,.18-1.07,.34-1.61,.49,.65-.73,.93-1.05,2.37-1.55l-1.47,.44c.86-.37-.57-1.28,2.18-1.25-.37-.01-1.19-.02-1.04-.21l1.57-.11c-.44-.15-.76-.44,.14-.42,.38,.12,1.08,.17,1.78,.2,.13-.13-1.16-.34-2.51-.59-1.34-.24-2.76-.49-2.72-1.19l1.01,.28c-.34-.19-.67-.39-1-.62,.45,.02,.91,.06,1.35,.12-.81-.41-1.16-.74-1.21-1.01-.07-.27,.13-.47,.39-.61,.52-.32,1.21-.37,.78-1.28,.01-.21,.49-.04,.96,.17,.49,.21,.94,.44,1.08,.23l-1-1.25c.71,.51,1.56,.79,2.34,1.49,.79,.68,1.43,1.72,1.88,3.42-.2-1.15-.08-.31-.4-1.47-.03-.79,.18-.59,.31-.1,.14,.5,.25,1.3,.29,1.74,.07-.73-.11-.56-.13-1.67,.18,.56,.19,.12,.31-.33,.1-.46,.3-.91,.48-.38-.12,.8-.23,.53-.34,1.05,.23-.73,.51-.73,.77-.69,.25,.1,.42,.34,.72,.33-.06,.55-.1,.96-.29,1.34-.19,.37-.53,.72-1.27,.98l.61-.19c-.77,.27-.81,.25-.72,.24,.06-.01,.19-.02,.12,0,.27-.03,.54-.05,.8-.09,1.23-.05,.49,.07,1.05,.15-.68,0-1.38,0-2.07-.03,.69,.05,1.78,.1,2.9,.29-.66,0-.68,.06-.54,.17,.14,.1,.43,.26,.38,.28-1-.24-1.38-.41-1.98-.55,.72,.22,2.8,.86,2.78,1.15l-.58-.21c1.47,.85,1.83,1.73,1.8,2.42-.03,.72-.34,1.29-.44,2.28,.16,.06,.41,.43,.72,.77-.61,.6-1.48,.88-2.29,1.44-.83,.56-1.65,1.38-2.8,3.02,.39,0,.85,.22,1.37,.51,.53,.25,1.12,.58,1.73,.81,1.2,.42,2.5,.41,2.49-1.26,.61,.62,.94,.46,1.22,.33,.29-.14,.55-.2,1.28,.67,.05,0,.09,0,.14,0-.59,.27-1.13,.89-1.72,.81,.89,.59,1.77,1.2,2.66,1.82l-1.49-1.48c.22-2.29,2.01-.42,2.61,.24-.49-.97-.92-1.38-1.32-1.48,.78-.26,1.04-1.01,1.06-1.81,.01-.26,.01-.53,.01-.79-.01-.28-.03-.54-.02-.79,.03-.49,.08-.96,.36-1.34,.51,.02,1.37,.77,2.33,1.32-.02,.36-.06,.71-.14,1.04-.07,.34-.14,.7-.27,1.01,.55-.03,1.05-.16,1.59-.27,.24,.89-1.21,1.4-.33,2.46,.15-1.18,.99-2.03,1.52-3.11,.48-1.07,1-2.17-.26-3.5-.33,.23-.4,.61-.51,1-.07,.41-.18,.83-.46,1.14-.79-.05-1.58,.03-2.47-.63-.77-1.7-.86-2.54-.8-3.35,.05-.78,.28-1.55-.29-2.47-.28-.45-.19-.95,.77-.94,.43,.33,1.2,.18,1.74,.5-1-.78-3.67-.45-3.47-1.2l3.5,.24c-1.87-.29-1.82-.5-1.59-.83,.25-.32,.56-.74-.59-.94,1.19-.4,2.16-.04,2.53,.54,.26-.7-1.66-.58-1.85-1.02,1,0,2,.04,3.01,.12-1.46-.16-1.46-.37-1.04-.69,.21-.16,.53-.33,.84-.51,.26-.16,.48-.32,.61-.45-.46,.08-2.36,.78-2.64,.12,.13-.36,.87-.4,1.19-.56-.67,.13-1.95,.22-2.32-.12,.75-.36,1.46-.17,2.32-.38-.31-.34-.69-.53-.31-1.01-1.06-.36-1.06,.48-2.18,.5-.1-.49,.54-.85,1.32-1.16,.75-.3,1.71-.56,2.26-1.09,1.69,.32,2.89,1.44,3.77,1.81-.56-.6-1.22-1.11-1.85-1.62,.45-.11,.59-.57,.76-.93,.17-.35,.43-.63,1.23-.29-.19-.57-.56-1.11-.99-1.64-.42-.54-1.04-.96-1.62-1.39-.57-.44-1.28-.75-1.93-1.06-.33-.14-.65-.28-.97-.42-.32-.12-.66-.21-.97-.31,.08,.4,.31,.76-.13,1.11-1.33-.24-.49-.97-.31-1.59-1.17-.03-1.98,1.18-3.07,1.87-.34-.86-.72-1.19-1.02-1.56-.32-.36-.57-.74-.93-1.86l-.5,1.4c-.24-.74-.63-.61-1.01-.41-.39,.19-.76,.44-1.16-.14,.02-.33,.52-.57,.96-.8-1.09,.19-.6-1.51-1.75-1.17,.37-.48,.76-.97,1.18-1.43-.9-.16-2.27,.11-1.63-1.21-.91,.66-1.96,.83-3.04,.93-.38-2.05,1.45-5.43-1.24-7.27,1.06-.82-.59-1.93,.95-2.32,.25-1.49-.29-2.5-.91-3.52-.63-1.01-1.35-2.02-1.39-3.45,.27-.41,1.04-.22,1.77-.34l.78,2.24,.6-1.37c.7,.58,.22,2.02,1.62,2.16-1.7-1.92-.46-5.04-2.37-6.76-.36,.8,.03,1.81-.09,2.76-.49,.42-.84,1.07-1.59,1.04-2.21-2.74-1.06-5.03-1.72-7.87-.17-.72,0-1.67,.73-1.77,.24,.47,.86,.14,1.2,.53-.59-1.01-2.67-.18-2.32-1.62l2.56,.27c-2.69-.66,.54-1.74-1.01-2.83,1.04-.33,1.61,.38,1.66,1.16,.48-.87-1.01-1.01-.94-1.73l2.16,.77c-2.06-.84,.45-1.34,1.17-1.73-.53-.08-2.21,.25-2.05-.7,.3-.39,.84-.16,1.16-.24-.54-.08-1.5-.47-1.52-1.1,.74-.08,1.08,.47,1.82,.55-.02-.47-.14-.86,.49-1.17-.56-.86-1.06,0-1.82-.56,.59-1.25,2.54,.01,4.12-.37,.99,1.01,1.25,2.26,1.8,2.79l-.49-1.86c.85,.16,1.55-1.15,2.32-.15,.9-1.77,.04-4-.51-5.8-.31,.23-.52,.53-1.05,.44-.44-.94,.62-.76,1.25-.91-.55-.71-2.03-.74-3.1-1.23,1.35-1.29,.6-1.55,2.49-2.58l-1.48-.04c1.25-.74-.97-1.04-.03-1.87,.32-.02,.67,.35,.99,.66-.42-.84,1.31-.63,.8-1.45l1.59,.75c0-.62-.44-1.57,.94-1.13-1.6-1.22-.77-3.05-1.62-4.48l1.27,.21c-1.48-.84,.32-2.55-1.48-3.33l.53-.05-1.58-1.56c.21-.61,2.12-.21,1.59-.31-.21-1.41-.19-2.51,.56-3.33-1.69-.4-1.99-1.9-2.09-3.08,1.64-5.46,.73-11.68-.83-17.09,0-.8-1.89-1.98-2.67-2.89-.47,1.12,.39,1.25,.34,2.38-.52,.84-2.32,1.02-3.47,1.66l1.48-.25c1.08,1.26-.83,.73,.55,1.78l-2.33-.26c1.16,.44,.1,1.17-.53,1.44l1.58,.46c-.96,.65-1.38,1.1-2.86,1.17l1.48,.08c-.95,.17-.14,2.88-2.56,1.73,.31,.25,1.05,.53,.83,.98l-1.48-.08c.31,.72,.51,1.51-.34,1.62-.31-.41-.95-.6-1.58-.79-.56,2.85,4.75,1.12,4.61,3.7l-.95-.13,.94,.76-1.28,.56c3.16,1.27-.68,3.58,.89,5.32,.21,.64-1.81,1.25-1.72,2.44l1.48,.07c-1.59,.79-2.87,4.21-6.37,4.79,1.06,1,.32-.07,1.48,.06,1.37,1.88-.95,1.79-1.9,2.63,.64,1.14,.63-.77,1.69-.1-1.26,1.55,1.7,1.49,.55,3.44-.85,.13-.53-.57-1.06-.83,1.37,1.55,.25,4.15,.4,6.31-1.25,2.36-1.85,5.98-3.35,8.8l.53,.08c-1.46,1.13-.2,2.51-.87,3.89l.81-.66c.9,.96,.29,1.45,.66,2.34l-1.57,.44c.47,.96,1.3,.46,2.08,1.17-1.03,.83-.13,2.68-.21,3.08-.72,.27-.98-.37-1.42-.52,.51,1.13,1.99,1.07,1.99,2.45l-.42,.02c2.13,3.3,1.64,7.48,3.13,11.09,.07-.25,.4-.2,.7-.31,.38,1.92,.64,3.98,1.29,5.91,.67,1.83,1.73,3.54,3.51,4.81-.49,.06-.98,.12-1.45,.21-.52,.14-1.01,.33-1.41,.61l-.15-1.27c-.34,.79-1.2,.96-2.05,1.15-.83,.26-1.65,.55-1.59,1.56l-.36-.42c-.32,.74-.58,1.48-.76,2.23-.75,.22-1.63-1.49-1.38-1.02-1.38,1.22-2.29,2.19-3.62,2.59,.54,.67,.61,1.43,.48,2.13-.1,.73-.41,1.43-.63,2.08-1.03,1.27-1.69,2.87-1.9,4.54-.22,1.67,0,3.41,.58,4.99,1.19,3.18,3.8,5.52,6.29,6.59,.04,.03,.09,.04,.14,.06-.77,.58-1.15,1.19-1.47,1.75-.34,.76-.64,1.52-1.25,2.73-1.28,1.62-3.19,1.71-4.81,3.16,.54-.15,1.1-.3,1.67-.44,.11,1.52-.15,1.89-.43,2.25-.27,.34-.45,.64,.02,1.85l-2.27-.61c.97,1.03-.32,2.67-1.06,3.37l1.5,.95c-1.15,1.53-1.61,2.58-3.15,2.94h1.49c-.52,.27-.62,1.88-.89,3.15-.24,1.26-.66,2.21-1.86,1.12,.31,.51,1.03,1.01,.82,2.06l-1.48,.09c.31,1.57,.56,3.28-.28,3.71-.34-.84-.98-1.14-1.63-1.44-.2,3.31,1.04,3.64,2.3,3.89,1.27,.25,2.54,.41,2.67,3.2l-.96-.04,1.05,1.4-1.16,1.54c1.67,.95,1.69,2.89,1.58,5.03-.13,2.14-.36,4.48,.68,6.06,.2,.66-.13,1.41-.44,2.45-.28,1.35-.46,3.06-.08,4.89l1.38-.8c-.53,1.66-.55,5.36-.51,9.55,.02,1.06,.04,2.13,.05,3.17,0,1.11,0,2.18,0,3.19-.02,2.07-.14,4.12-.51,5.86,1.72,1.55,.11-.69,.97-1.98,1.37,1.8,1.65,3.39,1.71,5.23,.04,1.81-.15,3.83,.1,6.05,.8,1.29,.64,.34,.46-.84-.18-1.18-.38-2.58,.24-2.48,.25,1.72,.56,2.76,.86,3.36,.15,.31,.31,.51,.46,.67l.12,.11s.01-.17,.02-.24c0-.19,.02-.38,.02-.57,.07-1.52,.14-3.31-.44-4.17-.59,1.1-.21,1.85-.43,3.18,.07-1.28,.06-2.4,.05-3.3,.02-.83,0-1.55,.28-1.39,.29,.22,.87,1.29,2.6,5.8l.67,1.76c.3,.81,.59,1.61,.89,2.42,.73,2.03,1.45,4.04,2.17,6.04,.47,1.32,.93,2.64,1.39,3.94,.55,1.59,1.11,3.17,1.66,4.74,.27,.78,.55,1.56,.82,2.33l.1,.29s.02,.06,.03,.07v-.28l.04-.57,.1-2.27c.07-1.51,.13-3.02,.2-4.53,.27-6.01,.53-11.98,.8-17.9,.15-3.34,.3-6.71,.45-10.11l.11-2.57,.02-.5h.01l.04,.04,.14,.12,.07,.05s.08,.04,.15,.07l.22,.09c.29,.12,.58,.24,.88,.36,1.19,.51,2.46,1.22,3.81,2.02,1.36,.81,2.79,1.72,4.32,2.76,1.5,.98,3.15,2.21,4.77,3.28,1.68,1.2,3.2,2.01,4.71,2.81l2.04,.87c.37,.17,.61,.21,.91,.32l.87,.27c2.24,.64,4.02,.93,5.35,1.09l-.45-.74c.8,.36,1.34,.47,1.8,.46,.5,0,.75-.18,1.04-.37,.56-.39,.94-.81,1.9-1.05-.43-.05-.85-.15-1.27-.28,.07-.65,.4-.85,.88-1.2,.23-.17,.58-.41,.92-.8,.32-.36,.52-.69,.64-1.07,.54,.15,1.08,.34,1.65,.55,.18-.75-.07-1.14-.35-1.52-.29-.39-.62-.76-.87-1.54,.65-.15,.94-1.05,1.01-2.09,.07-1.03-.19-2.31-.13-2.67,.47,.04,.81,.45,1.07,.92,.26,.46,.45,.99,.71,1.32-.1-.64-.31-1.2-.59-1.75-.27-.53-.59-1.04-.92-1.57Zm-39.12-10.68h0v0Zm14.58-15.4l-1.06,.85c.28,.43,.57,.86,.86,1.27l.43,.6c.14,.17,.24,.26,.37,.4,.17-.27,.26-.42,.24-.68-.02-.25-.1-.46-.2-.68-.21-.45-.53-.93-.64-1.75Zm3.86-.53c-.32-.39-.65-.78-.96-1.18,.23,.73,.48,1.45,.75,2.16l.21-.98Zm6.95,25.78c-.24,0-.48-.02-.72-.07l.61,.53c.2,0,.39-.02,.59-.1,.19-.09,.44-.17,.57-.59,.11-.44-.11-1.04-.32-1.54-.22-.52-.49-1.03-.77-1.52,.25,.48,.5,.98,.69,1.5,.18,.49,.33,1.12,.09,1.45-.23,.31-.5,.31-.74,.34Zm-23.79-13.95c-.09,.22-.19,.5-.39,1.05l.08-.14c.1-.32,.2-.62,.31-.91Zm0-.02c.11-.29,.23-.56,.34-.83-.17,.41-.25,.59-.34,.83Zm1.38-5.59c.34-.22,.73-.46,1.09-.67-2.13,1.21,0-.16-1.92,1.06,.2,.03,.5-.17,.84-.39Zm-2.23-.41c0,.12,0,.16,.02,.17,0,.03,.02,.05,.04,.07,.03,.04,.08,.08,.14,.1,.13,.05,.3,.07,.47,.08,.96-.5-.16-.11-.67-.43ZM335.63,211.5c-1-6.01-2.47-2.01-3.64-2.88l2.32,4.45-1.22-3.25c.65-3.78,2.07,.32,2.54,1.68Zm.23,6.83c-.55-.15-1.3-2.03-1.58-.75,.12,2.97,1.3,2.03,1.58,.75Zm-123.99,80.39c.78,.37,1.71,.67,1.53,1,.96-.24,1.19-.51-1.53-1Zm1.53,1c-.18,.04-.38,.09-.62,.13,.19,0,.34,0,.56-.02,.06-.04,.03-.08,.06-.12Zm127.42-52.49c-.19-3.86-.82-7.53-1.7-10.81-.89-3.21-1.8-6.21-2.97-8.87,.26,1.87,.38,4.09,.46,6.48,.11,2.37,.22,4.96,.25,7.54,.11,5.19-.16,10.29,.48,14.46-.79,1.36-1.07,3.2-1.46,4.82-.38,1.62-.85,3-1.79,3.3-2.29,5.13-3.85,8.74-5.67,12.32-1.85,3.53-3.99,7.05-8.21,10.7-1.39,.82-1.3-.29-2.11-.56,1.04-.98,2-2.06,2.99-3.08,.91-1.11,1.88-2.14,2.72-3.3-.63,.59-1.33,1.11-2.01,1.64-.68,.53-1.34,1.07-2.07,1.54,.31-.48,.78-1.07,1.31-1.71,.52-.64,1.15-1.27,1.66-1.95,1.03-1.35,1.84-2.6,1.45-3.29-1.58,3.3-4.89,6.75-8.47,9.63-3.58,2.91-7.32,5.4-9.71,7.75,1.41-.58,2.92-1.39,4.39-2.39,1.51-.94,2.98-2.06,4.49-3.05,1.57-.52,3.73-1.81,4.09-1.12-3.43,4.18-7.48,7.1-11.76,9.45-4.3,2.34-8.81,4.27-13.77,6.42-2.5,1.07-6.02,2.09-6.67,1.5,1.62-.76,.16-.95,1.42-1.73-1.69,.9-1.61,1.52-1.74,2.15-.14,.61-.53,1.18-3.27,1.79l.02-2.67c-.35,.8-.94,1.29-1.69,1.6-.75,.28-1.65,.38-2.61,.46-.96,.08-1.97,.13-2.96,.32-1,.15-1.98,.41-2.87,.97-.78-.39-.55-.84,.23-1.26,.78-.44,2.12-.78,3.55-1.17-1.69,.17-2.55,.52-3.32,.99-.77,.45-1.45,.94-2.79,1.15l2.15-2.59c-1.22,1.26-2.51,1.42-3.68,1.11-1.18-.3-2.23-.98-3.07-1.23-.13,.55,1.57,2.02-2,2.34-1.56-.14-.83-.76-1.22-1.04-.14,.55-1.33,1.65-3.69,1.91-.48-.69,1.48-1.23,1.56-1.99-1.75,.2-3.18,.47-4.5-.09-3.09,.76,.26,1.05-1.61,1.93-4.84-.28-.58-2.51-2.4-3.98,1.76-.61,3.76-1.05,5.55-1.43,1.78-.44,3.36-.81,4.26-1.17-2.21,.38-4.43,.82-6.68,1.09,.35-.88-4.6-1.25-1.11-2.26-6.66-.45-14.71,.38-21.23,.67,.9,.37,2.07,.6,1.85,1.13-3.39,.32-2.95-.75-3.59-1.41-2.51,.42-2.35,1.95-3.97,2.9-5.04-1.69-5.85-1.03-10-3.32l.09,1.5c-2.95-1.56-3.69,.58-6.91-.72-.14-.34,1.19-.54,2.26-.75-3.02,.1-2.53-1.62-5.48-1.47l2.51-1.29c-2.28-.28-5.69-.29-4.29-1.5-4.23,1.04-11.06-.87-16.18-.94l.59-1.19c-1.43,.5-3.76-.02-6.06-.5-2.29-.51-4.56-.95-5.87-.32l-.25-.6c-1.82,.16-3.64,.31-5.46,.44-2.25-.73-.99-2.4-1.31-1.93-5.08-.96-9.02-1.95-12.02-3.5-.64,.71-2.3,.8-4.32,.56-.51-.06-1.03-.14-1.58-.23l-1.44-.26c-.85-.16-1.71-.36-2.51-.56-.52-.21-1.05-.42-1.57-.63l-.78-.31-.39-.16-.19-.08s-.08-.01-.08-.05v-.11c.12-1.83,.16-3.6,.17-5.37-.02-1.18-.03-2.37-.05-3.55l-.13-3.77c-.25-5.03-.64-10.07-1.31-15.04-1.26-9.93-3.37-19.63-6.47-28.26-.09-.36-.22-.72-.37-1.09-.18-.37-.38-.74-.6-1.12-.44-.76-.96-1.53-1.51-2.31-.52-.79-1.18-1.53-1.79-2.26-.61-.74-1.2-1.46-1.71-2.18,.59,2.07,1.14,3.09,1.7,4.12,.5,1.07,1.05,2.13,1.68,4.19,.18,1.63-.12,2.85-.49,4-.2,.57-.39,1.13-.6,1.74-.22,.61-.42,1.25-.56,1.97l1.16-1.66c.98,2.02,.93,2.81,.89,3.46-.04,.66-.04,1.17,.93,2.78l-2.34,.23c1.35,1.01,.88,4.16,.39,5.48l1.74,.92c-.54,2.84-.75,4.67-2.14,5.64l1.45-.41c-.78,1.11,1.01,10.57-1.76,7.48,.39,.77,1.22,1.45,1.14,3.21l-1.46,.35c.53,2.49,.93,5.3,.12,6.05-.41-1.35-1.07-1.78-1.74-2.2,.08,5.3,1.28,5.83,2.55,6.21,1.26,.38,2.61,.61,2.74,5.38l-.96-.1c.09,.2,.17,.36,.26,.74l.26,.9,.51,1.73c-.41,1.32-.81,2.72-1.24,4.22,.76,.97,1.13,2.48,1.26,4.41,.07,.05,.1,.13,.22,.15l.31,.09c.21,.06,.42,.12,.63,.19,.41,.13,.84,.27,1.27,.41,.85,.29,1.72,.6,2.61,.94,1.79,.68,3.67,1.4,5.55,2.12,.81,.3,1.61,.59,2.41,.88,.68,.23,1.34,.45,2,.64,1.32,.36,2.59,.59,3.77,.58,2.31,.38,4.73,3.1,9.08,4.01l.1-1.51c1.53,1.19,5.46,2.84,9.35,4.63,3.89,1.81,7.74,3.76,9.04,5.79,3.56-.41-.29-.38,.03-1.51,6.78-.16,6.77,2.19,10.05,3.69,4.16,.02-2.98-1.12-.61-1.82,2.97,1.12,4.31,.9,5.82,.66,1.52-.23,3.19-.41,6.94,.63,.64,.94-2.06,.28-2.94,.7,5.6-.62,15.51,1.64,23.68,1.96,9.21,1.8,23.08,2.66,34.47,2.91l.16-.55c1.2,.24,2.41,.33,3.64,.28,1.23-.07,2.48-.24,3.76-.44,2.54-.34,5.17-1.06,7.98-1.2l-2.83-.31c3.41-1.48,5.52-1.44,8.8-2.56,.75,.34,1.51,.66,2.27,.99,3.54-1.52,1.28-1.72,3.67-3.23,1.73-.07,4.23-.82,6.45-1.75,2.22-.95,4.19-1.88,4.94-2.2,1.31,.22-.91,1.48-1.27,2.05,1.96-1.03,2.7-1.96,3.58-2.8,.44-.43,.92-.85,1.59-1.31,.67-.49,1.53-1.01,2.76-1.62l.27,.34c2.7-1.93,5.57-4,8.51-6.2,2.9-2.28,5.91-4.63,8.7-7.4,2.8-2.74,5.48-5.72,7.71-9.03,2.24-3.29,4.06-6.83,5.31-10.41-.5,.9-.68,.52-1.13,.75,3.22-7.19,4.8-15.66,4.37-23.38Zm-20.29,30.29c.98-.34,1.48-.84,1.96-1.47,.44-.66,.85-1.43,1.73-2.35l-1.48-.14-1.03,2-1.17,1.96Zm7.16-3.11c-.72,1.16-1.56,2.24-2.38,3.34l1.36-.93c.39-.78,.7-1.6,1.02-2.41Zm-49.86,27.16l2.15-.75c.71-.25,1.41-.57,2.11-.85-1.5,.61-3.04,1.08-4.58,1.57l-2.32,.74c-.78,.23-1.57,.42-2.35,.64l.65,.09c1.47-.4,2.91-.94,4.35-1.44Zm-61.79-4.44l-4.24,.08,.58,.28c1.11-.53,2.54-.05,3.66-.36Zm-42.4-12.53c-2.1,1.82-3.05-.8-1.52,1.73,2.52,.24,.64-1.16,1.52-1.73Zm-9.96,.79c1.38,.45,2.24,.34,3.1,.22-1.57-1.48-1.94-.37-3.1-.22Zm-73.47-80.19c-3.24-.67-5.21-.88-6.34-.87-1.14,.01-1.45,.25-1.43,.59,.04,.67,1.42,1.72,.27,2.02,3.41,.07,6.81,.25,10.23,.4l-7.28-.77c-7.68-2.66,1.5-1.8,4.55-1.38Zm14.34,3.92c-.55,.41-4.79-.06-2.25,.99,6.22,1.73,4.79,.07,2.25-.99Zm233.35-62.79c1.64,.79,3.62,1.56,3.24,1.81,2.03,.23,2.52,.08-3.24-1.81Zm3.24,1.81c-.39-.05-.81-.11-1.31-.17,.4,.09,.73,.18,1.19,.26,.13-.01,.07-.06,.12-.09Zm69.05,14.65c-6.82-.88-12.84-1.76-18.49-2.57,2.91,.78,6.72,1.63,4.74,1.84-6.32-.86-8.47-1.39-9.51-1.84-.85-.5-.49-.86-1.19-1.35-4.52-.74-6.8-.74-8.64-.57-1.83,.17-3.27,.5-5.63,.47-3.03-1.09-5.41-1.94-7.43-2.67-1.79-.63-3.27-1.1-4.69-1.62-2.84-1.02-5.47-2.04-9.83-4.25l.15,1.59c-6.19-3.13-7.81-1.23-14.59-4.25-.29-.43,2.51,.07,4.77,.38-6.37-1.45-5.37-2.98-11.6-4.32l5.3-.07c-4.85-1.43-12.07-3.22-9.15-3.77-8.94-1.06-23.46-6.59-34.23-9.27l1.11-.98c-5.92-.37-19.8-6.99-25.09-6.93l-.61-.78c-3.77-.72-7.52-1.52-11.28-2.28-4.79-1.92-2.47-3.13-3.05-2.77-5.35-1.82-10.11-3.49-14.35-5.12-1.05-.42-2.08-.83-3.07-1.23-1.2-.5-2.38-.98-3.51-1.45-1.36-.58-2.69-1.15-3.98-1.7-.65-.29-1.3-.57-1.94-.85l-.24-.11c-.07,0-.14,.07-.21,.11l-.41,.25-.82,.49c-.45,.83-1.62,2.06-3.19,3.48-.39,.35-.81,.72-1.26,1.11-.4,.34-.82,.69-1.26,1.06-.73,.6-1.55,1.24-2.42,1.89-3.45,2.66-7.95,5.54-11.93,8.09-19.86,11.2-40.43,22.92-60.56,34.64-20.13,11.75-39.91,23.3-58.28,34.02-2.82,1.47-5.94,3.66-9.25,5.96-1.66,1.15-3.35,2.34-5.05,3.52-1.12,.74-2.25,1.46-3.38,2.16-.95-.13-1.9-.26-2.86-.41-1.83,0-1.58,.33-.39,.79,.44,.18,1.02,.38,1.66,.6-.09,.05-.18,.11-.27,.17,.12-.05,.22-.09,.34-.14,1.06,.36,2.3,.75,3.49,1.11,1.3-.45,2.61-.78,3.93-1.16-1.75-.35-3.52-.61-5.28-.86,1.14-.5,2.14-.96,3.02-1.38,1.44-.74,2.6-1.39,3.76-2.05,2.32-1.31,4.56-2.7,8.83-4.89,6.62-2.89,9.78-2.57,15.79-4.47l-3.47,.18c8.07-5.58,6.29-2.45,12.4-7.35l.82,2.22c1.83-2.33,8.27-4.69,11.03-5.48l1.45-2.62c5.81-2.14,9.5-3.72,11.84-3.32l-1.24-1.02c2.48-.27,20.59-11.48,15.44-5.76,1.4-1.15,2.45-2.61,5.94-4.35l1.23,1.01c4.74-3.06,10.07-6.36,11.89-6.44-2.48,1.8-3.06,2.87-3.62,3.93,20.87-11.43,2.04-6.64,20.28-17.16l.26,.96,4.13-3.54,5.46-1.75c2.47-3.31,8.89-6.97,15.94-10.88,3.51-1.99,7.21-3.96,10.62-6.12,.85-.54,1.69-1.07,2.51-1.59,.41-.27,.81-.53,1.21-.79l.29-.19,.16-.12,.31-.25c.83-.66,1.62-1.36,2.38-2.15,.07-.11,.16,0,.25,0l.26,.09c.18,.07,.36,.14,.54,.23,.37,.17,.74,.37,1.12,.59,.4,.23,.7,.44,1.16,.72,.71,.38,1.45,.78,2.21,1.19,3.07,1.66,6.69,3.47,11.18,5.05l-.06-1.6c3.32,2.07,11.6,5.78,19.78,9.64,8.17,3.86,16.26,7.83,19.09,10.63,7.2,1.29-.62-.54-.08-1.6,13.83,3.13,14,5.64,20.75,8.8,8.48,2.04-6.13-2.63-1.34-2.21,12.28,5.25,10.81,1.69,26.17,7.61,1.31,1.27-4.23-.7-6.01-.71,5.75,1.03,13.68,3.39,22.32,5.96,4.3,1.32,8.81,2.62,13.26,3.93,2.22,.67,4.47,1.25,6.66,1.85,.37,.1,.75,.2,1.12,.3l.4,.1c.27,.06,.55,.13,.83,.18,.74,.38,1.56,.8,2.43,1.24,.28,.14,.57,.29,.87,.44,.12,.07,.23,.12,.33,.17l.14,.07,.06,.03,.03,.02s.02,.01-.04,.02c-1.7,.37-3.09,.72-4.12,.88-.51,.08-.94,.12-1.25,.1-.16-.01-.29-.04-.39-.08-.03-.01-.04-.03-.05-.04l-1.04,.42c-.75,.3-1.49,.6-2.22,.89l-.16,.67c-9.33,2.9-18.11,8.73-28.36,13.4l5.24-1.84c-6.09,4.21-10.01,5.61-15.92,9.26l-4.15,.49c-6.35,4.08-2.28,2.75-6.66,6.11-6.49,2.46-18.54,10.55-21.35,12.21-2.31,.55,1.91-2.3,2.63-3.24-7.32,5.02-6.03,5.91-15.33,11.8l-.38-.26c-5.73,4.38-11.95,8.97-18.34,13.99-1.61,1.23-3.2,2.58-4.82,3.88-1.61,1.36-3.23,2.7-4.85,4.17-.81,.74-1.62,1.47-2.43,2.21l-1.21,1.2c-.26,.26-.26,.26-.32,.33-.05,.07-.11,.13-.17,.19-.46,.52-.92,1.09-1.32,1.72l-.07,.1s-.09-.03-.13-.04l-.28-.12-.56-.24-1.14-.48-2.33-.98c-3.14-1.26-6.28-2.52-9.4-3.77-3.23-1.3-6.48-2.4-9.68-3.57-1.6-.57-3.2-1.15-4.79-1.68-1.6-.51-3.18-1.02-4.76-1.53,1.82,.76,1.24,.89,1.84,1.45-14.43-5.16-30.06-10.28-45.13-14.47-15.07-4.18-29.54-7.5-41.63-8.91,7.97,2.02,18.48,5.55,29.02,9.03,2.64,.85,5.29,1.69,7.9,2.53,2.61,.84,5.18,1.62,7.7,2.34,5.03,1.41,9.76,2.65,13.96,3.32,1.38,.75,3.02,1.41,4.72,2.02,1.7,.63,3.46,1.2,5.12,1.74,3.31,1.09,6.18,2.09,7.13,3.25,4.87,1.96,9.16,3.52,13.1,4.88,3.92,1.42,7.52,2.61,11.04,3.73,3.5,1.2,6.9,2.36,10.49,3.58l1.3,.46c.37,.14,.74,.28,1.11,.42,.73,.28,1.47,.56,2.22,.85,.73,.29,1.48,.59,2.25,.89,.38,.15,.76,.31,1.15,.47l.58,.24,.29,.12c.09,.03,.13-.14,.2-.2,.53-.76,1.06-1.55,1.72-2.25,.32-.36,.63-.73,.97-1.09,.38-.37,.77-.75,1.17-1.14,1.33-1.11,1.85-1.16,2.16-1.02,.01,0,.02,.01,.03,.02,0-.01-.02-.01-.02-.03,3.88-4.17,7.96-7.71,12.09-10.94,4.13-3.25,8.32-6.2,12.59-9.04,8.55-5.68,17.39-10.98,27.07-17,4.85-3.02,11.67-6.71,12.85-6.53-3.14,2.06-.38,1.2-2.88,3.02,6.72-4.49-.61-2.75,9.76-8.13l-.08,2.97c2.77-4.61,12.76-6.37,19.4-11.57,3.12-.45-1.5,2.58-7.1,5.62,6.61-2.97,6.5-4.59,11.67-7.19l-3.87,4.45c4.5-4.68,10-4.64,13.42-5.55,.14-.66-3.51-.72,3.46-4.02,3.1-1.19,1.82,.05,2.65-.01,.15-.66,2.21-2.78,6.81-4.99,1.15,.27-2.6,2.43-2.57,3.25,1.73-.83,3.28-1.61,4.75-2.27,1.48-.65,2.9-1.16,4.48-1.55,2.92-1.67,2.43-1.72,1.74-1.73-.73,.01-1.64,.08-.41-.9,4.5-1.7,5.87-1.62,6.59-1.08,.38,.27,.53,.65,1,.92,.49,.27,1.19,.39,3.03,.1-1.95,1.05-4.09,2.24-6.49,3.44-2.31,1.23-4.74,2.5-7.12,3.73-.59,.31-1.18,.62-1.75,.93l-.82,.44c-.21,.12-.41,.23-.62,.34-.81,.46-1.58,.89-2.3,1.29-1.43,.82-2.65,1.56-3.52,2.14,2.2-1.18,4.41-2.33,6.62-3.47,3.02-1.54,6.15-3.01,9.14-4.47-.06,.27,.77,.1,2.03-.22,1.26-.32,2.92-.81,4.32-1.19,2.77-.75,4.65-1.12-.72,1.53,3.29-1.21,6.45-2.53,10.45-3.81,3.92-1.33,7.91-2.69,11.94-4.06,7.74-2.65,15.63-5.35,23.43-8.01-6.75-.88-13.43-1.74-19.91-2.59Zm-167.12,95.64l-1-.42c-.69-.29-1.39-.6-2.1-.9-1.42-.61-2.86-1.23-4.19-1.77-.67-.27-1.31-.52-1.91-.75-.59-.21-1.13-.36-1.61-.48-.96-.24-1.68-.33-2.04-.17,1.02,.31,2.07,.66,3.16,1.02,1.14,.43,2.33,.91,3.51,1.38,1.17,.49,2.37,.98,3.6,1.49,.6,.26,1.21,.52,1.83,.78l.92,.4,.46,.2,.12,.05s.06-.05,.09-.07l.16-.18c.58-.78,1.11-1.59,1.73-2.34,.63-.73,1.27-1.46,1.91-2.2,1.39-1.4,2.64-2.68,4.03-3.89,2.71-2.48,5.62-4.76,8.4-6.97,5.61-4.39,10.96-8.3,14.8-11.7-5.66,3.3-12.17,8.24-18.36,12.89-1.49,.86-3.32,2.06-4.8,2.98-1.23,.79-2.21,1.35-2.57,1.27,.22,.17,.4,.43,.9,.39l-.97,.91-.93,.96-.85,.89c-.26,.29-.55,.56-.8,.87l-1.54,1.84c-.5,.64-.94,1.33-1.42,2.01l-.13,.19s-.04,.07-.07,.08l-.1-.04-.4-.17-.81-.34-1.64-.68-3.33-1.38,3.34,1.8,1.71,.92,.86,.46,.43,.23,.11,.06s.05-.05,.08-.07l.15-.17c.7-.79,1.33-1.66,2.16-2.4-.58,.77-1.23,1.82-2.03,2.98-.16,.47-.54,.13-.85,.03Zm-18.15-4.96l1.17,1.86,4.94,1.64,1.24,.41c.44,.15,1.01,.39,1.5,.58l3.03,1.18c-2.26-1.61-4.12-2.56-5.68-3.12-1.68-.65-3.58-1.29-6.2-2.54Zm-1.72-4.27l8.21,3.39-2.93-1.79-5.28-1.6Zm107.45-46.9l1.52,1.18-.22-1.95c2.95-1.73,5.91-3.45,8.88-5.15l-1.29,.45c-2.54,1.5-5.08,3.02-7.6,4.55l-.22-1.97c-.6-1.63-1.11,.61-1.53,2.53l.37,.28c-2.71,1.64-5.41,3.29-8.1,4.96,2.72-1.64,5.46-3.26,8.2-4.88Zm16.15-55.5l-9.03-2.07,1.23,.59c2.37,.02,5.41,1.23,7.81,1.48Zm-91.03-35.16c-4.09,.93-6.54-2.45-2.89,1.12,5.33,1.55,1.14-.95,2.89-1.12Zm-20.65-4.23c2.95,1.22,4.72,1.54,6.48,1.83-3.58-2.43-4.12-1.41-6.48-1.83ZM80.16,242.41c-.28,.2-.48,.44-.83,.38,.34,.27,.63,.35,.83-.38Zm-.83,.38c-.06-.05-.13-.11-.2-.18,.02,.05,.03,.09,.08,.16,.05,.02,.08,.01,.12,.02Zm-1.12,32.05l-.88-1.25c-1.01,.53-.13,.78-.37,1.5l1.25-.25Zm-5.11,.06l.61,.66-.12-1.09-.49,.43Zm2.96-13.66l-.78-2.64-.2,.16,.99,2.48Zm5.37-18.64c.64,.33,.32,.71,.76,1.03l-.54-1.18-.21,.15Zm4.09-10.91c.31,.71,1.27,.22,2.01,.48-2.22-.65,.11-.85-2.01-.48Zm-.52-1.5c1.06-.41-.1-.55-.52-.88-.11,.38,.21,.63,.52,.88Zm-18.26,87.92c.42-.47,.84-.96,1.23-1.44l-.97-.39c-.59,.21-.47,1.06-.26,1.84Zm4.01-3.14c-.62-.01-.98,.44-1.2,1.05-.23,.61-.34,1.37-.66,1.82,.61-.41,1.19-.87,1.7-1.34-.32,.2-.67,.39-1.04,.56-.24-.65,0-1.11,.32-1.43,.32-.32,.7-.55,.88-.66Zm1.17,.92c-.13,.54-.66,.94-.48,1.45,.64,.4,.64-.97,.48-1.45Zm6.38-25.7c.22,.34,.49,.62,.33,.93,.42-.24,.6-.51-.33-.93Zm.33,.93c-.08,.04-.17,.09-.26,.14,.07,0,.12,0,.21-.03,.03-.04,.03-.08,.05-.11Zm-4.65,14.91c-.07,0-.13,.02-.2,.02,.11-.01,.17-.02,.2-.02Zm13.93,14.41l1.1,.75c.21-.47,.35-1.01,.49-1.52-1.2-.3-.74,.5-1.59,.76Zm-2.64-2.17l.75-.63-.84-.31c.04,.31,.07,.62,.09,.94Zm6.44-11.43c-.52-.9-1.11-1.74-1.78-2.5l-.14,.17c.72,.7,1.34,1.49,1.92,2.33Zm-12.94-17.84c.59-.51,1.08-.07,1.65-.34-.62,0-1.24,.04-1.83,.08l.18,.26Zm-17.49-1.14c.77-.87-.58-1.15-.71-1.95,.6,2.26-1.27,.76,.71,1.95Zm-1.52,1.86c-1.31-.24-.56,.67-.58,1.27,.51-.34,.54-.8,.58-1.27Z"/></g></svg>