<?xml version="1.0" encoding="UTF-8"?><svg xmlns="http://www.w3.org/2000/svg" xmlns:xlink="http://www.w3.org/1999/xlink" viewBox="0 0 434.65 434.65"><defs><style>.d{fill:url(#c);}</style><linearGradient id="c" x1="214.08" y1="390.31" x2="214.08" y2="49.5" gradientTransform="matrix(1, 0, 0, 1, 0, 0)" gradientUnits="userSpaceOnUse"><stop offset="0" stop-color="#d1d706"/><stop offset="1" stop-color="#88bd32"/></linearGradient></defs><g id="a"/><g id="b"><path class="d" d="M131.55,386.28c-2.24,1.21,.11,1.32-.31,2.29,.76-2.69,3.03-1.06,.31-2.29Zm-45.58,2.82c1.5,.07,2.98,.11,4.44,.06l-.6-.28c-1.15,.55-2.64-.03-3.84,.22Zm4.35-1.45c-.78-.36-1.71-.68-1.52-1.01-.96,.17-1.21,.52,1.52,1.01Zm-15.92-53.86c-1.71,2.53-3.24,5.19-4.53,7.94l.47-.39c1.16-2.59,2.52-5.13,4.06-7.55Zm61.88,49.93c2.14,.19,1.75-.91,2.53-1.75-1.33,.51-1.93,1.12-2.53,1.75Zm43.78-68.69c.02-.6-.13-1.66-.39-2.61-.84-.15-1.64-.27-2.44-.33,.38,.5,.72,1.03,1.09,1.54l.94,1.64c.53,.58,.75,.35,.8-.25Zm-7.39-5.22c-.77-.1-1.9-.52-2.48-.69,2.15,1.25,2.81,1.24,3.21,.69,.39-.52,.37-1.52,1.06-1.63-1.51-.49-3.03-.77-4.5-.95l1.48,.42c.5,.15,.97,.35,1.47,.53,.99,1.44,.49,1.75-.25,1.64Zm-59.63-4.48l-1.2-.86c-1.28,.85-2.54,1.7-3.77,2.6,2.07,.16,2.57-1,4.97-1.74Zm66.65,15.09c-.88-1.47-2.08-2.75-3.04-3.89,.24,.87,.52,1.49,.69,2.05,.2,.55,.42,.99,.59,1.45,.18,.46,.41,.91,.54,1.49,.08,.29,.15,.61,.23,.96,.05,.36,.08,.76,.11,1.22-.18,1.38-.8,2.28-1.53,3.06-.35,.39-.73,.74-1.14,1.12-.41,.38-.76,.77-1.17,1.23,.57-.25,1.1-.51,1.64-.8,.17,.91,.07,1.53,0,1.96-.09,.44-.26,.69-.41,.92-.32,.46-.49,.82-.32,2.43l-2.16-.92c.85,1.34-1.14,3.27-2.13,3.86,.36,.52,.66,1.04,.99,1.58-1.88,1.6-3.05,2.62-4.64,2.36l1.36,.65c-.62,.1-1.83,1.93-3.07,3.21-1.21,1.3-2.37,2.02-2.44,.19-.18,.7,.04,1.69-1.09,2.65l-1.24-.84c-1.1,1.79-2.61,3.63-3.63,3.43,.58-1.03,.4-1.75,.19-2.48-1.58,1.46-2.28,2.45-2.52,3.25-.23,.8,.02,1.4,.3,1.99,.28,.59,.6,1.17,.45,1.94-.15,.76-.74,1.74-2.36,3.02l-.51-.82c-.33,.7-.68,1.39-1.04,2.07-.83,.1-1.64,.22-2.48,.29-.27,2.17-2.73,3.8-5.6,5.16-2.86,1.39-6.06,2.56-7.95,4.42-1.69,1.1-4.82,.43-8.16,1.95l.76,1.29c-1.67-.13-5.22,.51-8.78,.66-3.56,.16-7.08-.18-8.68-1.63-2.37,1.64,.33,.26,.5,1.41-2.42,1.26-3.86,1.26-4.98,.9-1.13-.33-1.97-1.08-3.31-1.38-1.5,.48-.91,.57-.13,.71,.78,.11,1.77,.25,.98,.89-2.45-.34-3.36,.14-4.47,.65-.55,.26-1.14,.51-1.96,.62-.83,.13-1.88,.08-3.32-.24-.52-.86,1.53-.5,2.14-1.03-2.04,.69-5,.64-7.94,.02-2.95-.62-5.8-1.78-7.97-2.88-1.08-.92-2.13-1.96-2.94-3.08-.81-1.12-1.38-2.32-1.69-3.58-.31-1.26-.38-2.58-.17-3.99,.2-1.4,.69-2.88,1.41-4.27l-.49-.25c1.03-1.07,1.49-2.35,2.07-3.8,.6-1.43,1.25-3.02,2.49-4.38l-1.59,1.1c.42-2.53,1.73-3.37,2.83-5.5l2.04-.07c1.25-2.29-.29-1.71,.38-3.69,1.19-.58,2.49-1.93,3.7-3.21,1.19-1.29,2.29-2.5,2.75-2.87,1.08,0-.11,1.43-.11,2.01,.99-1.25,1.25-2.1,1.62-2.97,.36-.89,.88-1.77,2.49-3.01l.31,.3c1.6-1.89,3.55-3.68,5.71-5.38,2.18-1.67,4.57-3.25,7.07-4.72,2.52-1.45,5.13-2.81,7.75-4.08,2.63-1.26,5.26-2.46,7.82-3.63-.74,.16-.66-.21-1.04-.41,5.57-2.11,11.78-3.68,17.75-4.81,5.99-1.15,11.68-1.91,16.74-2.8-3.26-.42-7.67-1.32-12.24-1.36-4.54-.1-9.15,.65-12.21,2.64-2.71-.65-6.09,1.9-7.5,.67-4.81,1.01-7.91,2.7-10.8,4.52-2.89,1.85-5.6,3.82-9.67,6-1.3,.37-1.1-.6-1.79-1.06,2.07-1.39,4.17-2.75,6.34-4-1.48,.43-2.93,.94-4.39,1.43,1.46-1.53,6.07-3.13,6.06-4.58-2.73,2.08-6.56,4.01-10.15,6.19-3.59,2.15-6.94,4.55-8.69,7,2.39-1.26,4.95-3.43,7.76-4.93,1.46-.27,3.5-1,3.74-.26-3.41,3.08-6.65,5.45-9.89,7.88-3.23,2.43-6.47,4.93-9.45,8.26-1.5,1.66-3.61,3.78-4.41,3.58,.8-1.26-.4-.84,.17-1.98-.87,1.39-.41,1.9-.16,2.46,.26,.57,.27,1.15-1.24,2.79l-1.63-2.07c.47,1.58-.48,2.57-1.61,3.71-.57,.56-1.15,1.17-1.66,1.84-.47,.69-.84,1.47-.91,2.35-1.46,.51-.96-1.69,.44-3.87-1.99,2.19-.81,3.22-1.94,5.16-.3-.96-.59-1.96-.85-2.98,.29,1.62-.34,2.51-1.16,3.2-.85,.67-1.92,1.14-2.53,1.68,.21,.18,.84,.13,1.23,.39,.4,.26,.55,.81-.03,2.23-.72,1.15-1,.34-1.4,.54,.48,.35,1.02,1.69,.66,3.62-.8,.21-.76-1.54-1.45-1.89-.35,1.56-.44,2.83-1.19,3.91,.16,1.46,.43,1.41,.74,1.26,.3-.16,.64-.42,.96,.41-.33,2.01-.92,2.17-1.7,1.95-.78-.21-1.66-.85-2.43,.04-.53-1.8-.75-3.97-.65-5.87,.05-1.92,.31-3.59,.33-4.62-.55,2.3-.84,4.69-.88,7.1-.39-.26-.93,.92-1.29,1.76-.38,.82-.77,1.26-1.12-.84-.63,3.85-.08,8.59,1.97,12.66,1.93,4.13,5.22,7.32,8.24,9.41-.6-.93-1.45-1.95-.91-2.19,.77,.53,1.28,.95,1.62,1.31,.36,.33,.54,.6,.63,.86,.19,.5,0,.89,.13,1.38,2.64,1.09,3.16-.38,5.04-.58,1.97,1.76,3.33,2.4,4.55,3.06,1.24,.64,2.35,1.28,4.3,2.68l.08-1.5c1.35,.93,2.29,.86,3.22,.7,.94-.12,1.88-.35,3.44,.28,.15,.34-1.13,.56-2.19,.77,2.95-.11,2.55,1.59,5.46,1.21-.78,.53-1.59,1-2.41,1.48,2.36,.19,5.75-.3,4.53,1.09,2.07-.81,4.81-1.11,7.65-1.51,2.83-.41,5.77-.86,8.08-1.78l-.1,1.32c.57-.48,1.42-.83,2.4-1.13,.99-.28,2.11-.53,3.22-.81,2.21-.53,4.36-1.19,5.13-2.4l.5,.4c1.43-1.01,2.81-2.09,4.17-3.15,2.13-.61,2.09,1.46,2.07,.9,4.52-2.01,7.94-3.69,11.09-4.47-.02-1.89,4.32-4.58,7.65-6.87,8.61-4.56,16.72-11.1,22.84-19.12,3.06-4,5.61-8.37,7.35-12.96,1.72-4.58,2.63-9.41,2.16-13.93,0-1.35-.63-2.94-1.5-4.4Zm-90.9,66.23c.18-.04,.38-.08,.61-.12-.19,0-.34,0-.55,0-.06,.04-.04,.08-.06,.11Zm77.87-81.62c-2.41-1.13-2.13,.34-1.31,1.1,.36-.46,2.15-.28,1.31-1.1Zm-53.03,4.23c.61-.49,1.25-.93,1.88-1.4-1.13,.47-2.25,.98-3.36,1.49l1.48-.09Zm175.36-74.81c1.16,.87,1.58-.06,3.04,.06l-.56-1.21c-.84,.37-1.67,.75-2.48,1.15Zm-22.78,9.47c-1.3,1.2-2.51,2.5-3.6,3.88l.38-.07c.97-1.33,2.05-2.61,3.22-3.81Zm26.85-6.22c-.68,.08-1.36,.18-2.04,.28l.83,.41c.4-.25,.8-.47,1.21-.7Zm-28.23,39.45l.41-.04c-.11-.02-.2-.05-.33-.06-.05,.03-.05,.07-.08,.1Zm55.95-32.38c-1.06-1.04-1.48,.23-1.31,.88,.41-.38,1.49-.19,1.31-.88Zm2.55,7.82c-.11,.91,0,1.36,.12,1.87,.12,.5,.3,1.04,.05,1.96-.84,1.27-2.73,1.02-4.14,1.34,.52,.09,1.01,.17,1.53,.22,.11,1.05-.25,1.25-.53,1.38-.3,.14-.46,.24-.35,1.28l-1.82-1.47c.69,1.13-.95,1.46-1.71,1.37,.29,.49,.54,.98,.81,1.48-1.47,.19-2.31,.37-3.5-.56l1.02,1.09c-.46-.22-1.31,.5-2.17,.88-.84,.39-1.61,.42-1.7-1.01-.1,.45,.06,1.28-.69,1.51l-.84-1.22c-.7,.86-1.67,1.66-2.31,1.05,.36-.57,.23-1.23,.09-1.9-1.95,.85-1.72,2.01-1.37,3.25,.34,1.22,.77,2.49-1.27,3.35l-.29-.92c-.22,.45-.45,.9-.69,1.34-.51-.26-1-.5-1.49-.78-.24,1.79-1.79,2.21-3.51,2.33-1.73,.14-3.58,.02-4.79,1.08-1.04,.42-2.65-1.31-4.57-.97l.23,1.47c-.87-.68-2.8-1.2-4.61-2.08-1.81-.88-3.46-2.11-3.92-3.9-1.45,1,.1,.33-.05,1.49-2.85,1.22-2.71-1.18-3.76-2.27-.81,.19-.57,.39-.24,.66,.33,.26,.76,.58,.23,1.05-1.06-.8-1.6-.48-2.27-.17-.65,.31-1.44,.6-2.61-.36,.04-.87,.89-.29,1.34-.72-1.16,.4-2.57,.01-3.77-.66-1.21-.68-2.16-1.59-2.84-2.13-.16-.55-.24-1.07-.15-1.35,.06-.33,.18-.63,.36-.86,.18-.23,.41-.39,.68-.45,.28-.14,.71-.43,1.25-.65l-.44-.32c.83,0,1.11-.35,1.46-.86,.36-.5,.76-1.14,1.57-1.42l-1.1-.08c.17-1.41,1.08-1.37,1.75-2.34,.48,.3,.94,.61,1.39,.93,.74-1.08-.27-1.39,.11-2.58,.77,.12,1.59-.32,2.33-.8,.74-.48,1.41-1,1.69-1.09,.66,.49-.07,1.12-.06,1.59,1.21-1.11,.56-2.45,2.51-3.2l.17,.39c1.97-1.88,4.74-3.06,7.7-3.89,2.97-.83,6.09-1.32,9.04-2.02-.4-.07-.3-.4-.47-.71,3.18-.33,6.59-.22,9.85-.11,3.28,.11,6.39,.18,9.56-.22-1.67-.66-3.74-2.07-6.14-2.93-2.36-.89-4.97-1.23-6.97-.06-1.28-1.28-3.52,.23-4.04-1.35-2.72-.41-4.65,.21-6.45,.98-1.81,.78-3.5,1.69-5.98,2.18-.77-.14-.57-.95-.92-1.63,1.3-.5,2.63-.99,3.98-1.41-.87-.1-1.74-.16-2.62-.23,.99-.88,3.76-.75,3.93-2.14-1.79,1.03-4.15,1.47-6.43,2.09-2.28,.61-4.46,1.42-5.66,2.85,1.52-.12,3.19-1.03,4.95-1.32,.87,.31,2.1,.42,2.17,1.18-2.19,1.54-4.21,2.37-6.27,3.15-2.05,.78-4.14,1.51-6.13,2.89-1,.68-2.43,1.38-2.98,.86,.55-.62-.28-.84,.12-1.48-1.18,1.42,1.18,2.37-.97,3.4l-1.17-2.31c.33,1.41-.33,1.72-1.17,2.02-.82,.3-1.83,.62-1.93,1.78-1.15-.32-.74-1.57,.33-2.52-1.53,.67-.63,1.91-1.52,2.7-.24-.78-.46-1.59-.65-2.41,.2,1.25-.29,1.57-.98,1.66-.7,.07-1.62-.08-2.16,0,.37,.41,2.05,.93,.93,2.16-.66,.41-.88-.2-1.24-.25,.39,.41,.82,1.45,.36,2.38-.74-.18-.59-1.17-1.17-1.65-.43,.79-.63,1.47-1.45,1.83-.04,.87,.23,.93,.53,.94,.31,.01,.65-.01,.85,.53-.6,.93-1.22,.85-1.92,.51-.71-.33-1.43-.97-2.34-.67-.18-1.2-.04-2.57,.27-3.71,.28-1.17,.66-2.14,.77-2.81-.67,1.29-1.22,2.69-1.62,4.13-.34-.29-1,.26-1.51,.66-.51,.38-.96,.56-.91-.87-.61,1.11-1.13,2.5-1.34,3.96-.23,1.46-.21,2.98,.07,4.44,.5,2.95,2.04,5.54,3.65,7.41-.12-.76-.39-1.6,.16-1.73,.81,.92,.98,1.4,.92,1.8-.07,.4-.38,.69-.48,1.08,1.57,1.03,2.58-.12,4-.2,.63,1.53,1.28,2.19,1.81,2.83,.55,.65,1,1.29,1.69,2.75l.62-1.36c.48,.98,1.08,1.01,1.69,.97,.61-.02,1.23-.11,1.91,.68-.03,.34-.85,.38-1.55,.44,1.76,.27,.97,1.82,2.78,1.9-.61,.37-1.24,.71-1.89,1.04,1.34,.51,3.44,.64,2.31,1.76,1.45-.42,3.09-.2,4.78,0,1.69,.2,3.43,.42,4.91,.11l-.35,1.25c.85-.67,2.19-.5,3.53-.43,1.33,.08,2.65,.06,3.29-.87l.21,.53c.98-.55,1.92-1.16,2.84-1.75,1.28,.1,.94,2.05,1.02,1.5,2.84-.48,5.01-.87,6.93-.48,.21-1.77,3-2.69,5.19-3.47,5.54-.81,11.13-3.09,15.76-6.66,2.31-1.78,4.39-3.88,6-6.24,1.61-2.35,2.76-4.99,3.07-7.59,.22-.74-.07-1.77-.55-2.7-.49-.94-1.22-1.75-1.72-2.41Zm-57.95,25.69c-.34-.44-.78-.85-.55-1.13-.64,.06-.9,.32,.55,1.13Zm-3.16,.8c.91,.24,1.82,.47,2.71,.63l-.27-.34c-.88,.35-1.61-.36-2.44-.28Zm60.61-30.58c-.55-.07-1.18-.35-1.51-.47,.96,.87,1.53,.83,2.08,.46,.54-.36,.96-1.07,1.56-1.13-.98-.39-1.98-.63-2.94-.77,.58,.2,1.17,.43,1.74,.73,.12,1.06-.41,1.24-.94,1.17Zm-34.55,40.08c.88-2.32,1.93-.06,.55-2.07-1.49,.45-.15,1.29-.55,2.07Zm5.38-3.76c-.85,.03-1.28,.41-1.71,.79,1.22,.89,1.15-.27,1.71-.79ZM146.96,141.34c-1.51-4.68-1.4-.33-2.47-1.52,2.93,2.48,1.41,6.02,2.47,1.52Zm4.99,15.65c-.54-2.77-1.22-4.23-1.92-5.65-.11,3.85,1.01,3.72,1.92,5.65Zm202.23-61.85c.99-3.91,2.39-8.08,4.12-12.9,.66-1.36,1.04-1.6,1.39-1.58,0,0-.02,0-.02,0,.66-2.39,1.35-4.71,2.06-6.99,.21-.66,.26-.9,.4-1.34l.38-1.17c.26-.75,.52-1.49,.77-2.23,.26-.71,.52-1.42,.78-2.12l.1-.26,.05-.13,.02-.06s-.04-.02-.06-.04l-.53-.27-1.05-.54c-1.36-.76-2.76-1.33-4.12-1.97-.34-.17-.68-.29-1.05-.43l-1.29-.51c-1-.39-1.99-.82-3.04-1.13-1.03-.34-2.07-.68-3.11-1.02-1.04-.36-2.13-.58-3.2-.88-4.3-1.18-8.88-1.92-13.7-2.44-4.85-.46-11.46-1-12.25-1.71,3.25-.14,.83-.84,3.52-1.03-1.76,.02-2.69,.22-3.25,.49-.56,.26-.76,.56-1.05,.82-.29,.27-.68,.5-1.61,.63-.94,.13-2.42,.13-4.93,.1l1.3-2.58c-2.03,1.37-5.1,1.23-8.61,1.15-.88-.03-1.78-.06-2.7-.09-.92,0-1.85,.02-2.78,.07-1.87,.11-3.74,.3-5.51,.9-1.34-.38-.84-.84,.71-1.28,1.54-.44,4.13-.76,6.93-1.01-3.19,0-4.9,.38-6.44,.82-1.54,.47-2.9,.97-5.42,1.21l4.57-2.66c-2.6,1.33-5.02,1.42-7.19,1.26-2.17-.18-4.11-.73-5.7-.89-.28,.6,2.76,1.79-3.97,2.7-2.93,.17-1.54-.6-2.27-.81-.29,.57-2.54,1.98-6.94,2.82-.94-.57,2.74-1.61,2.9-2.4-1.67,.32-3.18,.63-4.59,.86-1.4,.25-2.71,.39-3.98,.34-5.77,1.79,.59,.96-2.84,2.46-9.1,1.49-1.44-2.28-5.1-3.06,3.29-1.31,7.16-2.42,10.65-3.41,3.5-.95,6.62-1.72,8.44-2.33-4.42,.96-8.81,1.96-13.18,3.08,.63-1.06-9.25,.49-2.44-1.86-13.41,2.05-28.96,7.22-41,11.77,1.82-.28,4.13-.76,3.92-.14-6.21,2.43-5.8,1.24-7.3,1.04-4.52,2.05-3.52,3.32-6.03,5.31-5,.99-7.76,1.86-10.37,2.57-2.62,.7-5.06,1.32-9.42,1.96l1.01,1.21c-6.16,.99-6.18,3.44-12.63,4.98-.46-.17,1.75-1.44,3.52-2.48-5.27,2.53-5.46,.8-10.55,3.41l3.59-3.2c-4.22,1.7-10.18,4.71-8.55,2.52-1.68,1.15-3.76,2.29-6.06,3.46-1.15,.59-2.36,1.18-3.6,1.77-1.29,.6-2.6,1.21-3.94,1.83-3.87,1.78-7.82,3.59-11.64,5.35-.47,.22-.93,.44-1.39,.65l-.34,.16c-.05,.08,.05,.24,.07,.36l.23,.76c.31,1,.61,1.99,.91,2.97,.6,1.94,1.2,3.8,1.8,5.54-.53-.32-1.06-.65-1.6-1.02,.47,.98,.92,2.12,1.38,3.4,.23,.64,.45,1.3,.68,2,.17,.52,.35,1.06,.53,1.61,.62,1.95,1.22,4.18,1.83,6.38,1.18,4.41,2.32,8.75,3.77,10.65l-.32,.85c1.37,3.12,2.8,6.23,4.13,9.36,.91,4.48-1.33,3.42-.72,3.66,1.32,4.83,2.49,9.15,3.38,13.07,.86,3.93,1.5,7.44,1.88,10.66,1,.61,2.24,3.45,3.37,7.18,1.13,3.73,2.26,8.34,3.21,12.42,3.43,19.92,7.08,40.53,10.21,60.88,3.1,20.35,5.63,40.46,6.96,59.27,.08,2.82,.54,6.16,1.13,9.71,.56,3.54,1.07,7.29,1.39,10.86,.35-4.34,.32-6.73,.23-9.09-.14-2.36-.37-4.7-.36-8.97,.23-3.21,.66-5.41,1.26-7.51,.56-2.1,1.3-4.11,1.68-6.91-.44,.96-.86,1.92-1.33,2.87-1.58-8.62,.49-6.02-1.34-12.79l2.36,.13c-1.38-2.33-.85-8.45-.43-11-.59-.7-1.19-1.4-1.81-2.1,.36-5.52,.39-9.11,1.69-10.92l-1.42,.69c.76-2.16-2.59-20.88,.69-14.75-.52-1.54-1.5-2.87-1.79-6.34l1.4-.72c-.53-2.46-1.05-5.07-1.37-7.26-.33-2.18-.48-3.94-.18-4.72,.76,2.64,1.56,3.44,2.32,4.24-1.49-10.54-2.87-11.46-4.23-12.07-1.37-.61-2.7-.92-4.38-10.13l.98,.05-1.81-4.51c.12-1.71,.24-3.42,.31-5.12-2.26-3.02-3.35-9.49-4.51-16.53-1.19-7.04-2.26-14.69-4.38-20.01-1.24-4.27-.55-10.42-2.77-18.58l-1.31,.88c0-.64-.05-1.44-.13-2.36,.03-.04,.05-.07,.09-.11,.79-.56,1.62-.66,2.51-.62,.89,.04,1.74,.15,2.69,.06-.53-.19-1.04-.37-1.56-.53,.49-1.28,.99-1.4,1.35-1.53,.38-.12,.65-.23,.99-1.41l1.4,1.88c-.11-.68,.33-1.09,.91-1.33,.58-.23,1.32-.25,1.78-.2l-.41-1.7c1.8-.17,2.89-.38,4.05,.61l-.91-1.18c.48,.22,1.78-.56,2.89-1.05,1.14-.45,2.1-.56,1.89,.99,.23-.51,.23-1.38,1.19-1.71l.82,1.24c1.1-.97,2.4-1.97,3.15-1.38-.56,.64-.49,1.36-.43,2.05,2.73-1.18,2.54-2.39,2.23-3.65-.31-1.25-.7-2.5,1.84-3.67l.31,.91c.3-.5,.61-.98,.92-1.48l1.83,.57c.32-1.91,2.22-2.54,4.33-3.02,2.12-.48,4.46-.77,5.82-2.12,1.22-.65,3.46,.65,5.85-.24l-.57-1.38c2.4,.82,10.07-.2,12.72,2.74,1.6-1.56-.27-.26-.5-1.41,3.3-2.38,4.1-.12,6.19,.29,2.1-1.21-1.84-.18-.87-1.53,3.7,.37,2.45-2.41,6.97-2.28,.59,.73-1.01,.79-1.35,1.41,2.74-2.1,8.61-2.21,13.13-3.2,5.38,.22,13.16-.38,19.41,.37l.06-.55c2.67,1.12,5.31-.41,8.33-.01l-1.51-.68c1.88-1.07,3.01-.58,4.83-1.09l1.13,1.48c1.96-.63,.8-1.37,2.21-2.26,1.88,.88,5.67-.2,6.54-.15,.62,.69-.71,1.02-.98,1.47,2.31-.62,2.1-2.08,5.02-2.18l.06,.42c3.45-1.18,7.41-1.62,11.46-1.86,4.05-.23,8.18-.27,12.08-.69-.52-.12-.36-.43-.54-.76,4.1-.01,8.48,.25,12.66,.32,4.19,.06,8.16-.08,11.78-.95-2.18-.43-4.99-1.59-7.97-2.34-2.96-.76-6.04-1.08-8.47,.04-1.57-1.29-4.33,.08-4.9-1.54-6.53-1.17-9.34,1.5-15.6,1.44-.9-.29-.45-1.05-.7-1.78,1.67-.24,3.35-.44,5.03-.65l-3.05-.69c1.34-.66,4.57-.08,4.99-1.44-4.47,1.48-11.51,.14-15.32,2.2,1.81,.32,4.05-.11,6.18,.01,.94,.49,2.38,.88,2.28,1.63-6.06,2.11-11.06,1.14-17.24,2.09-1.54,.25-3.66,.23-3.95-.48,1.01-.31,.2-.88,1.02-1.27-2.17,.74-.08,2.67-3.26,2.57l.25-2.59c-1.09,2.78-3.94-.21-6.09,1.54-.9-.96,.56-1.67,2.31-1.87-2.02-.3-2.09,1.2-3.67,1.3l1.33-2.31c-1.52,2.22-3.06-.15-4.09-.77-.06,.55,.97,2.12-1.16,2.19-.93-.19-.52-.79-.76-1.07-.07,.55-.73,1.6-2.12,1.8-.33-.7,.82-1.18,.84-1.94-1.05,.14-1.9,.38-2.73-.14-1.8,.81,.23,1.04-.82,1.95-2.92-.21-.56-2.49-1.79-3.92,2.06-1.28,4.84-1.9,5.96-2.58-1.38,.33-2.76,.67-4.14,1.02,.17-.88-3-1.16-.87-2.23-4.29-.33-9.26,1.25-13.15,2.53,.61,.21,1.36,.29,1.32,.84-1.99,.8-1.92-.3-2.43-.85-1.44,.82-1.05,2.26-1.81,3.49-3.33-.76-3.64,.1-6.62-1.24l.42,1.43c-2.1-.84-1.98,1.42-4.16,.93-.17-.29,.54-.81,1.1-1.26-1.72,.8-1.89-.92-3.55-.02l1.09-1.89c-1.4,.33-3.37,1.23-2.92-.3-2.13,2.15-6.58,2.4-9.41,4.07l-.09-1.3c-1.22,1.87-5.84,1.33-6.73,3.5l-.36-.44-2.66,2.51c-1.44,.24-1.49-1.75-1.46-1.2-3,1.2-5.37,2.04-7.55,2.04,.02,1.8-3.03,3.27-5.47,4.39-6.24,1.7-12.47,4.44-18.06,8.11-5.17,3.36-9.81,7.57-13.11,12.21-1.29-10.12-4.5-27.41-3.26-33.08l-.13-.27c-.05-.1-.04-.03-.07-.06l-.1-.02-.17-.05c-.1-.03-.18-.06-.23-.07-.11-.02-.14,.01-.17,.08-.02,.07-.04,.17-.12,.27,.02,.48-.02,.98-.31,1l-.22-.54-.11-.26s-.03-.04-.05-.06c-.06-.07-.12-.14-.17-.21-.11-.14-.2-.29-.28-.43-.16-.29-.27-.56-.32-.79-.05-.23-.06-.42-.01-.55,.01-.03,.02-.07,.04-.09,0-.03,.03-.06,.11-.05,.13,0,.26,0,.39,.01,1.05,.09,1.94,.57,2.32,.88,0-.05,0-.09,.06-.17,.26-.15,.49-.29,.64-.39,.31-.21,.39-.3,.32-.33-.08-.02-.32,.03-.65,.12-.15,.04-.33,.09-.51,.15-.07,0-.11,0-.14-.02-.26-.09-.84-.09-.85-.7,.18,0,.33,0,.46-.02,.06,0,.12,0,.23-.04,.27-.1,.53-.2,.78-.3,1-.39,1.85-.77,2.59-1.14,1.48-.74,2.55-1.45,3.7-2.19,2.31-1.46,4.93-3.11,11.77-5.3,1.63,.25-3.23,1.89-4.38,2.98,4.38-2.6,11.04-5.38,18.36-8.14,7.34-2.7,15.32-5.42,22.37-7.88,8.28-2.19,18.47-4.97,29.07-7.38,10.6-2.42,21.61-4.45,31.35-5.49l.26-.59c8.23-.04,16.73-2.54,26.13-2.6-1.54-.15-3.08-.33-4.63-.41,3.02-.78,5.4-.96,7.75-1.17,2.34-.1,4.64-.2,7.52-.43l3.21,1.53c1.55-.15,2.48-.26,3.1-.4,.61-.14,.91-.3,1.15-.48,.48-.35,.75-.74,3.02-1.08,1.4,.32,3.17,.59,5.1,.78,1.92,.2,3.97,.47,5.94,.63,1.95,.24,3.81,.47,5.34,.66,1.51,.25,2.7,.47,3.33,.62,1.6,1.07-2.4,.51-3.31,.75,3.44,.46,5.15,.28,7,.37,.93,.04,1.94,.06,3.2,.29,1.24,.28,2.81,.63,4.81,1.38l-.02,.45c.61,.18,1.23,.35,1.85,.53,.26,.04,.43,.03,.61,.05,.35,.04,.75,.11,1.17,.2,.42,.11,.86,.26,1.33,.42l.18,.06c.06,.02,0,.08,0,.12l-.06,.28-.14,.59c-.1,.41-.23,.85-.37,1.32l-.1,.35v.04s.01-.02-.04,.11l-.21,.59c-.28,.78-.57,1.57-.86,2.36-.58,1.57-1.16,3.16-1.74,4.75-.57,1.59-1.09,3.2-1.64,4.81-3.22,9.45-6.22,19.11-8.69,28.58-.08,0-.17,0-.25,.02,.08,0,.16,.02,.24,.02-.89,3.4-1.71,6.78-2.44,10.11,.56-1.66,.75-1.15,1.24-1.71-3.43,13.16-6.81,27.39-9.21,41.09-2.34,13.71-3.81,26.85-3.61,37.68,.5-3.61,1.2-7.84,2.16-12.34,.48-2.25,.99-4.58,1.5-6.94,.5-2.37,1.03-4.77,1.59-7.17,1.11-4.8,2.07-9.64,2.97-14.18,.86-4.55,1.42-8.87,1.68-12.63,1.19-2.54,1.89-5.97,2.58-8.99,.73-3.01,1.42-5.61,2.46-6.51,1.49-5.09,2.74-9.42,3.71-13.42,.17-.71,.33-1.39,.49-2.07l.59,.94c.18,.41,.34,.82,.5,1.24,.35,.43,.61,.28,.82-.12,.17-.42,.26-1.33,.17-2.12-.72-.11-1.4-.14-2.05-.11,.74-3.13,1.45-6.05,2.08-8.97,.77-3.62,1.65-7.18,2.69-11.08Zm-1.71,13.88c.76-2.51,1.46-5.04,2.28-7.54-.48,.9-.95,1.8-1.4,2.71l-.88,4.83Zm-46.49-58.82c1.48-.14,2.97-.32,4.46-.42l4.48-.3c-6.39,.23-12.73,.91-19.03,1.7,.41,.02,.82,.06,1.22,.1,2.95-.38,5.9-.82,8.87-1.08Zm-120.75,22.79l-7.56,3.56,1.2-.24c1.67-1.35,4.52-2.14,6.35-3.32Zm172.21,31.08c-.26,.93-.57,1.97-1.02,3.19l1.67-1.15c.63-3.03,1.39-6.01,2.08-9.02-1.08,1.61-1.56,2.95-2.02,4.48l-.72,2.51Zm11.6-39.55l-.17-.09-.69-.34c-.91-.45-1.8-.87-2.66-1.27-.85-.41-1.7-.72-2.51-1-.81-.28-1.58-.52-2.3-.73,1.15,.67,2.42,1.26,3.69,1.98,.64,.36,1.29,.73,1.95,1.11,.33,.19,.67,.37,1.01,.56,.16,.1,.37,.18,.48,.29l-.22,.53c-1.22,2.88-2.49,5.87-3.72,8.78-1.44,2.4-3.3,6.14-4.05,6.32,.27,.06,.55,.2,.95-.01-.88,2.56-1.64,5.15-2.46,7.72l-1.21,3.86-1.11,3.89c.63-1.52,1.22-3.05,1.88-4.56l1.98-4.52c-.89,4.2-4.6,13.88-3.66,15.42,.74-3.45,1.75-7.38,3.06-11.45,1.35-4.06,2.77-8.35,4.41-12.5,.81-2.08,1.55-4.15,2.4-6.25,.84-2.06,1.64-4.05,2.36-5.91,.18-.46,.35-.92,.52-1.37l.13-.33,.03-.08s-.05-.03-.07-.05Zm-40.61,150.57c-.35-.06-.89,.88-1.22,2.06,.49,.44,.63,4.24,1.3,1.9,.39-2.84,.25-3.89-.09-3.95Zm-3.06,15.13c-.58,11.76,1.9,4.46,2.81,6.42-.36-3.01-.78-6.03-1.08-9.06,.05,2.17,.22,4.34,.32,6.51-1.61,7.04-1.94-1.12-2.05-3.87Zm1.26,20.03c-.35-.07-.7-.12-1.05-.17,.13,.33,.24,.68,.35,1.02l.26,1.05c.11,.15,.22,.2,.33,.22l-.09,1.87c.31,3.23,1.2-.95,2.03-4.5l-1.65-3.37-.19,3.87ZM178.73,77.76c1.6-.33,3.45-.84,3.32-.42,1.56-.98,1.81-1.4-3.32,.42Zm3.32-.42c-.3,.18-.63,.38-1.01,.61,.33-.16,.61-.28,.98-.47,.08-.08,.01-.09,.03-.14Zm50.29,28.26c-.1,.08-.2,.18-.32,.28,.11-.05,.2-.08,.32-.15,.02-.05,0-.08,0-.12Zm-27.56,.98c1.45-.8-.14-1.3,.1-2.16-.38,2.47-1.97,.54-.1,2.16Zm28.45-4.1l-2.48,1.09,.41,.13c.52-.77,1.48-.66,2.06-1.22Zm36.24,1.67c1.82-.5,3.64-.99,5.47-1.46-1.96,.41-3.92,.85-5.87,1.29l.39,.17Zm-69.48,5.17c.9-.2,1.3-.68,1.69-1.15-1.46-.61-1.17,.52-1.69,1.15Zm141.84,1.59c-1.58-.83-1.57,.54-1.08,1.18,.3-.45,1.59-.53,1.08-1.18Zm-110.64-5.91c.55,.17,1.17,.24,1.15,.6,.49-.46,.56-.77-1.15-.6Zm72.09-4.22c1.16,1.04,1.81,.2,3.44,.52l-.46-1.28c-1,.25-1.99,.49-2.98,.76Zm2.65,4.34l1.54-.53h-2.46l.92,.53Z"/></g></svg>