<?xml version="1.0" encoding="UTF-8"?><svg xmlns="http://www.w3.org/2000/svg" xmlns:xlink="http://www.w3.org/1999/xlink" viewBox="0 0 434.65 434.65"><defs><style>.d{fill:url(#c);}</style><linearGradient id="c" x1="219.99" y1="377.75" x2="219.99" y2="48.82" gradientTransform="matrix(1, 0, 0, 1, 0, 0)" gradientUnits="userSpaceOnUse"><stop offset="0" stop-color="#d1d706"/><stop offset="1" stop-color="#88bd32"/></linearGradient></defs><g id="a"/><g id="b"><path class="d" d="M325.76,325.44c5.07-7.96,9.55-16.23,13.5-24.73l-.97,1.51c-3.7,7.95-7.86,15.72-12.53,23.22Zm-81.65,51c-1.1-.07-2.33-.27-3.55-.45-.61-.1-1.22-.16-1.81-.29-.58-.14-1.14-.28-1.67-.41-1.76-.39-3.02-.96-3.23-1.3,0,.28-.12,.57,.31,.97-3.82-.58-7.52-1.8-11.04-3.4-.87-.43-1.78-.78-2.61-1.29l-2.52-1.47c-.83-.51-1.6-1.11-2.41-1.66l-1.2-.85-1.13-.94c3.46,3.29,7.43,6.1,11.79,8.19-.38-.11-.8-.22-1.22-.39-.42-.18-.87-.38-1.34-.58-.93-.43-1.99-.85-2.99-1.48l-1.56-.91c-.53-.31-1.07-.62-1.56-1-1-.74-2.05-1.43-3.01-2.19-.94-.78-1.85-1.54-2.7-2.24-.82-.75-1.58-1.44-2.24-2.05-1.4-1.17-2.33-2.09-2.9-2.2,3.69,3.86,8.32,7.94,13.94,11.11,5.57,3.24,12.19,5.22,18.8,5.91,6.64,.67,13.25-.14,19.05-1.66,5.82-1.53,10.85-3.82,14.73-6.14-3.92,1.59-8.33,3.36-13.09,4.65-4.76,1.28-9.85,2.12-14.83,2.08Zm-38.67-18.7l1.85,2.23c-.78-1.27-1.65-2.45-2.32-3.78-.75-.92-1.55-1.82-2.28-2.76l-2.12-2.9c1.04,1.63,1.99,3.32,3.17,4.86,.57,.78,1.11,1.59,1.7,2.35Zm152.62-227.94c.43,.82,.85,1.69,1.27,2.58,.42,.88,.84,1.77,1.24,2.62l1.2,2.4c-1.79-3.93-3.65-7.83-5.86-11.55l.67,1.77c.51,.64,1,1.38,1.48,2.18Zm-.55,3.64c-.12-.55-.65-2.42-2.54-6.16,.44,1.17,.95,2.42,1.28,3.36,.28,.96,.4,1.58,.17,1.47,.71,1.19,1.19,1.89,1.1,1.34Zm-1.1-1.34c-.28-.46-.54-.96-.91-1.53,.28,.48,.45,.92,.75,1.47,.11,.13,.1,.03,.16,.06Zm-150.65,231.14c-.84-.93-1.7-1.93-2.68-3.09-.99-1.15-1.9-2.57-3.02-4.24l.41,2.77c3.08,3.79,6.51,7.39,10.48,10.31-.93-1.2-1.86-2.12-2.67-3.06-.81-.94-1.63-1.8-2.52-2.69ZM241.38,49.7c-5.75-1.63-6.09-.57-9.39-.3,2.22,.14,3.94,.28,5.43,.32,1.48,.04,2.73,0,3.96-.03Zm19.79,1.29c-5.26,.81-9.23-2.37-3.43,1.14,7.3,1.47,1.87-.77,3.43-1.14ZM129.05,229.34c-.62,.49-6.14,.26-2.7,1.16,4.17,.65,5.71,.53,5.78,.19,.06-.34-1.35-.92-3.07-1.35Zm-24.45-3.32c-2.41-1.11-3.42-1.87-3.6-2.2-.18-.34,.49-.31,1.54-.09,1.07,.19,2.55,.52,4,.87,1.47,.28,2.89,.61,3.85,.78-4.07-1.06-6.44-1.8-7.85-2.07-1.39-.32-1.81-.17-1.83,.17-.05,.69,1.59,2.18,.1,2.13,4.36,1.13,8.76,1.8,13.14,2.19-1.57-.19-3.12-.48-4.69-.74-1.54-.34-3.12-.6-4.65-1.03Zm-25.02-15.97c-1.76-1.61-1.73-1.14-.87,.27,.91,1.39,2.68,3.84,4.61,5.86,1.62,.7,3.37,1.17,5,1.69-3.18-2.29-6.05-4.98-8.74-7.82Zm289.99-20.99c-.28,2.75-.43,6.27-.98,5.7-.14-2.49-.18-4.29-.16-5.62,0-1.33,.04-2.19,.16-2.81,.22-1.24,.64-1.49,.9-2.54-.23-1.85-.51-3.17-.86-4.19-.33-1.01-.67-1.72-1.02-2.33-.71-1.22-1.39-2.08-2.21-4.25-.22-3.78-.36-6.76-.75-9.27-.36-2.51-.58-4.61-1-6.6-.39-1.99-.69-3.94-1.09-6.19-.22-1.12-.45-2.32-.68-3.65-.25-1.32-.42-2.81-.8-4.42l-1.13,1.23c-.49-2.26-1.03-4.01-1.59-5.49-.54-1.49-1.28-2.65-1.93-3.86-.69-1.19-1.34-2.42-2.12-3.9-.81-1.46-1.67-3.2-2.6-5.52,.03-.65,2.09,2.58,3.79,5.2-1.11-1.93-1.83-3.39-2.35-4.61-.26-.61-.47-1.16-.66-1.68-.21-.51-.41-.98-.6-1.46-.39-.95-.77-1.9-1.37-3.06-.3-.58-.66-1.22-1.09-1.93-.48-.69-1.05-1.45-1.73-2.31,.87,.81,1.81,1.59,2.63,2.45l2.5,2.59c-.46-.76-.95-1.55-1.45-2.37-.25-.4-.51-.81-.76-1.22l-.84-1.18c-1.11-1.56-2.18-3.07-3.03-4.33-1.8-2.44-2.73-3.88-1.01-2.88-1.15-1.09-2.35-2.32-3.61-3.64-1.35-1.24-2.76-2.58-4.2-3.99-.36-.35-.73-.71-1.09-1.07l-1.19-1.02c-.79-.69-1.6-1.38-2.42-2.09-.82-.69-1.63-1.47-2.47-2.11-.83-.65-1.67-1.32-2.52-1.98-1.7-1.31-3.36-2.72-5.12-3.98-1.76-1.27-3.51-2.54-5.23-3.79-1.73-1.23-3.52-2.33-5.22-3.43-.86-.54-1.7-1.07-2.53-1.59-.84-.5-1.69-.95-2.51-1.4l1.54-.55c-1.87-.69-4.25-2.06-7-3.57-2.78-1.46-5.8-3.3-8.95-4.84-1.56-.79-3.1-1.62-4.63-2.32-1.54-.69-3.03-1.33-4.43-1.9-.7-.29-1.37-.55-2.02-.8-.66-.22-1.29-.41-1.88-.58-1.19-.34-2.24-.57-3.1-.67l-.86-.92c-2.49-.7-5.04-1.21-7.54-1.82-2.52-.55-5.07-.96-7.59-1.44-6.67-1.88-3.95-3.16-4.61-2.78-1.87-.46-3.71-.78-5.5-1.11-1.79-.32-3.52-.68-5.24-.89-1.71-.25-3.36-.49-4.98-.72l-4.73-.5c-.77-.08-1.52-.18-2.27-.24-.75-.05-1.49-.11-2.21-.16-1.46-.12-2.87-.23-4.25-.35-2.76-.1-5.37-.34-7.85-.43-.62,.45-2.08,.84-4.13,1.19-2.04,.35-4.66,.82-7.58,1.22-5.84,.94-12.89,2.25-19.05,3.78-14.95,3.16-29.62,8.91-43.2,16.61-13.59,7.71-26.1,17.37-37,28.41-10.89,11.04-20.23,23.45-27.15,36.78-3.45,6.66-6.33,13.54-8.33,20.57-.45,1.77-.98,3.51-1.32,5.29-.19,.89-.37,1.77-.56,2.65-.14,.89-.28,1.78-.42,2.67l-.21,1.33-.13,1.34c-.09,.89-.18,1.77-.26,2.66-.03,.89-.07,1.77-.1,2.66l-.04,1.32,.04,1.32c-.05,4.19,.86,9.24,2.92,13.98,2.03,4.77,5.19,9.1,8.73,12.44-1.84-2.35-3.12-4.24-4.08-5.95-.45-.87-.94-1.62-1.3-2.4-.36-.78-.71-1.51-1.05-2.25-.33-.74-.58-1.52-.89-2.32-.33-.8-.56-1.67-.8-2.63-.12-.48-.25-.98-.39-1.5-.11-.53-.19-1.1-.28-1.69-.09-.6-.18-1.22-.29-1.89l-.14-2.14c-.05-1.13,.05-2.18,.16-3.15,.1-.97,.2-1.87,.41-2.72,.19-.84,.38-1.63,.58-2.38,.21-.75,.49-1.47,.73-2.17,.26-.7,.49-1.39,.79-2.07,.3-.68,.6-1.37,.91-2.09,.56-1.43,1.34-2.94,2.04-4.71-.77,1.12-1.56,2.27-2.34,3.44,.21-1.51,.43-2.77,.62-3.83,.22-1.06,.48-1.92,.69-2.65,.41-1.46,.83-2.35,1.2-3.17,.74-1.65,1.29-2.97,2.55-7.75l1.98,1.3c.07-.89,.4-2.02,.89-3.26,.51-1.23,1.23-2.55,1.97-3.85,1.55-2.58,3.37-5.01,4.56-6.34,.08-1.18,.14-2.38,.28-3.56,4.93-6.08,8.36-9.81,10.96-10.74l-1.64-.33c.65-.42,2.08-2.12,3.93-4.2,.93-1.04,1.95-2.18,2.98-3.34,1.07-1.13,2.15-2.27,3.17-3.34,4.2-4.2,7.67-6.91,5.27-2.86,1.37-1.76,2.25-3.8,6.03-6.93l1.53,.61c1.25-1.23,2.58-2.45,3.86-3.64,1.3-1.18,2.62-2.24,3.82-3.22,2.42-1.91,4.51-3.23,5.55-3.51-2.82,2.56-3.47,3.8-4.03,5.1,2.91-2.21,5.18-3.93,6.94-5.28,.88-.68,1.62-1.29,2.25-1.83,.64-.53,1.17-.98,1.61-1.4,1.74-1.66,1.98-2.55,2.13-3.39,.16-.83,.22-1.61,1.67-3.06,.73-.71,1.78-1.64,3.43-2.7,.82-.54,1.77-1.14,2.89-1.81,1.12-.66,2.43-1.33,3.9-2.1l.16,1c1.83-1.36,3.74-2.56,5.64-3.83,2.31-.62,4.66-1.12,6.96-1.66,3.82-3.26,12.72-6.47,22.69-8.32,2.5-.44,5.03-.92,7.59-1.22,1.28-.16,2.54-.38,3.81-.5,1.27-.13,2.52-.26,3.76-.39,1.24-.16,2.46-.24,3.66-.34,1.2-.1,2.38-.21,3.52-.33,2.3-.16,4.47-.35,6.47-.62,1.58-.04,3.28,.06,5.12,.22,1.84,.17,3.82,.57,5.97,.89,2.15,.35,4.44,.88,6.95,1.28,1.25,.24,2.54,.52,3.89,.76,1.35,.24,2.76,.45,4.21,.74l-.49-1.61c4.62,1.58,15.6,4.69,25.68,9.74,1.25,.63,2.51,1.26,3.75,1.88,1.24,.61,2.42,1.35,3.59,2.01,1.16,.68,2.3,1.35,3.4,2,1.06,.72,2.09,1.41,3.08,2.07,.98,.67,1.91,1.33,2.77,1.95,.85,.66,1.62,1.31,2.33,1.92,1.41,1.22,2.53,2.31,3.26,3.22,8.1,3.79-.61-.8,.12-1.64,7.86,3.87,11.58,6.85,14.25,9.35,1.31,1.3,2.36,2.5,3.5,3.76,.58,.62,1.17,1.27,1.82,1.97,.64,.71,1.35,1.46,2.16,2.27,8.8,6.26-6.02-5.66-.84-2.86,1.52,1.43,2.83,2.6,4.01,3.6,.59,.49,1.13,.95,1.64,1.37,.46,.42,.9,.8,1.33,1.16,.84,.71,1.62,1.31,2.37,1.86,.38,.28,.75,.54,1.11,.81l1.04,.87c.7,.58,1.43,1.19,2.23,1.89,.39,.35,.81,.73,1.25,1.12,.43,.41,.83,.9,1.28,1.4,.89,1.02,1.89,2.2,3,3.64,1.01,1.52,2.17,3.27,3.43,5.36,.38,2.05-3.29-3.86-4.93-5.12,4.65,4.96,10.08,13.37,13.77,23.6,3.79,10.17,6.25,21.83,7.43,32.38,.38,6.07,.49,12.88,.25,20.13-.33,7.25-1.02,14.93-2.15,22.69-1.19,7.76-2.83,15.58-4.79,23.14-1.97,7.56-4.41,14.82-6.93,21.51l.34,.67c-1.32,2.7-2.41,5.53-3.63,8.37-.59,1.43-1.16,2.88-1.73,4.35-.6,1.46-1.21,2.93-1.82,4.42-.3,.75-.6,1.5-.91,2.25-.33,.74-.65,1.49-.98,2.24-.67,1.5-1.34,3.01-2.02,4.53-.73,1.5-1.49,3-2.26,4.51-.39,.75-.78,1.51-1.19,2.26-.43,.74-.87,1.48-1.31,2.22,1.32-1.84,2.56-3.74,3.79-5.65-3.22,8.53-6.24,12.71-10.47,20.11l-1.92,1.59c-.65,.52-1.31,1.01-1.96,1.51-2.33,3.91-2.73,4.85-2.83,5.64-.06,.39-.07,.72-.26,1.32-.2,.6-.58,1.48-1.46,2.89-2.92,3.03-7.15,7.9-11.22,12.16-2.01,2.16-4.03,4.08-5.68,5.71-1.71,1.54-3.04,2.79-3.81,3.39-1.29,.56-.77-.14,.12-1.16,.87-1.04,2.14-2.37,2.49-2.96-1.89,1.81-3.2,3.23-4.35,4.37-1.12,1.16-1.98,2.18-2.97,3.15-.99,.97-2.01,2.06-3.55,3.22-.76,.59-1.61,1.26-2.64,1.96-1.04,.67-2.23,1.43-3.62,2.26l-.4-.26c-3.21,2.11-6.66,4.06-10.32,5.73-3.67,1.61-7.54,2.95-11.53,3.85-7.98,1.78-16.46,1.57-24.07-1.36-7.62-2.91-14.31-8.45-19.34-15.7-2.57-3.59-4.75-7.41-6.53-11.4-1.79-3.99-3.12-8.18-4.17-12.41,.42,2.33-.04,1.82-.13,2.79-2.31-8.97-2.99-18.87-2.99-29.05-.07-10.18,.64-20.68-.34-31.41-.51-5.34-1.59-10.84-3.92-15.97-.66-1.26-1.24-2.53-2.06-3.7-.4-.58-.74-1.2-1.19-1.74l-1.34-1.63c-.9-1.05-1.89-1.91-2.82-2.84-1.01-.85-2.02-1.67-3.05-2.44-4.21-3-8.79-4.91-13.18-6.11-4.41-1.2-8.66-1.75-12.66-2.02,1.34,.2,2.74,.5,4.18,.79,1.44,.36,2.93,.67,4.44,1.17,3.03,.88,6.19,2.1,9.27,3.76,3.07,1.66,6.1,3.72,8.69,6.35,1.27,1.33,2.55,2.67,3.61,4.23,.59,.74,1.02,1.58,1.5,2.38,.51,.79,.84,1.68,1.24,2.52,1.49,3.44,2.32,7.08,2.83,10.67,.51,3.59,.73,7.15,.88,10.59,.24,6.87,.3,13.28,.84,18.76-.67,4.02-.65,9.15-.48,13.66,.17,4.51,.49,8.39-.12,10.12,.55,7.73,2.08,14.2,4.13,19.8,2.08,5.6,4.74,10.31,7.86,14.57,3.15,4.26,6.68,8.1,11.08,11.55l.82,.66c.29,.2,.58,.4,.88,.6,.58,.4,1.18,.81,1.77,1.23,.58,.44,1.26,.75,1.89,1.14,.65,.37,1.28,.78,1.97,1.13,.69,.33,1.39,.67,2.1,1.01,.36,.17,.7,.36,1.08,.51,.37,.14,.75,.29,1.13,.44,.76,.28,1.52,.62,2.32,.89,.81,.24,1.63,.49,2.46,.75,.93,.4,1.55,.55,1.9,.78,.37,.21,.5,.38,.55,.56,0,0,0,.02,0,.03,0,0,0-.02,0-.02,1.69,.3,3.4,.31,5.05,.45,.84,.03,1.67,0,2.5,0,.83,0,1.65,0,2.47-.08,.82-.06,1.63-.11,2.44-.17,.81-.08,1.61-.22,2.41-.32,1.6-.16,3.18-.54,4.75-.83,6.26-1.32,12.21-3.56,17.95-6.3,11.45-5.57,22.11-13.4,31.97-23.91,2.48-2.62,5.31-5.81,7.64-8.43,2.34-2.62,4.17-4.7,4.85-4.93-2.77,3.9-.05,1.45-2.22,4.76,2.98-4.26,2.61-4.86,2.66-5.87,.03-.5,.16-1.1,.85-2.3,.34-.6,.84-1.35,1.5-2.33,.65-.99,1.48-2.21,2.55-3.72l1.05,3.02c.29-1.61,1.1-3.33,2.14-5.23,1.06-1.89,2.48-3.87,3.87-6.06,1.42-2.16,2.96-4.44,4.26-6.87,.67-1.21,1.31-2.43,1.9-3.68,.55-1.26,1.05-2.54,1.46-3.82,2.6-3.02,.13,3.69-3.83,10.97,2.41-4.04,3.45-6.39,4.17-8.62,.38-1.11,.71-2.17,1.16-3.37,.22-.6,.48-1.23,.78-1.93,.28-.7,.61-1.47,1-2.31-.29,2.47-.7,4.9-1.11,7.36,1.73-8.05,6.4-12.84,8.82-16.83-.14-.35-1.01,.3-1.34-.13-.17-.21-.19-.69,.06-1.69,.23-1.01,.73-2.55,1.65-4.88,1.79-3.93,1.53-1.68,2.17-2.53-.16-.35-.18-1.47,.1-3.28,.28-1.81,.9-4.29,1.82-7.47,1.05-.94-.23,4.54,.28,5.18,.81-2.38,1.38-4.58,2.06-6.58,.68-1.99,1.3-3.83,2.07-5.5,1.78-8.72-1.16,.27-.5-5.15,3.72-13.07,2.79-.71,5.49-5.24-.38,2.57-.76,5.35-1.33,8.1-.59,2.75-1.12,5.53-1.8,8.12-.67,2.59-1.26,5.06-1.85,7.19-.6,2.13-1.09,3.96-1.42,5.33,.99-3.2,2.03-6.37,2.89-9.61,.44-1.61,.91-3.21,1.33-4.83l1.19-4.87c.25,.7,1.55-2.46,2.39-4.55,.88-2.07,1.49-3.02,.63,2.26,2.92-9.64,5.05-20.62,6.18-31.61,1.13-10.99,1.22-21.98,.61-31.66Zm-223.01-52.02c-1.15-.15-.75,1.11-.33,1.51,.05-.54,.79-1.11,.33-1.51Zm-21.02,11l.77-.11c.07-.39,.17-.74,.26-1.12-.37,.39-.7,.81-1.03,1.23Zm24.03-9.62c-.39,.34-.89,.54-1.14,.67,.95,.02,1.33-.46,1.52-1.08,.19-.62,.13-1.39,.49-1.85-.85,.42-1.57,.85-2.24,1.44l.7-.37,.74-.27c.57,.67,.31,1.13-.06,1.47Zm2.93,38.79c1.36,.01,.52-.81,.52-1.49-.51,.46-.51,.97-.52,1.49Zm-1.36,2.3c-.62,1.14,.77,1.05,1.04,1.85-1-2.21,1.14-1.09-1.04-1.85Zm3.05-41.62c0-.38-.19-.92-.4-1.43-.58,.35-1.12,.72-1.62,1.13l1.45,.9c.4,.03,.55-.22,.58-.6Zm-22.33,48.31c-.45-.13-.96-.2-.98-.55-.36,.43-.37,.8,.98,.55Zm-.6,2c-.33,.14-.62,.25-.92,.55,.77-.39,1.44-.72,2.06-1.16l-.35-.1c-.16,.4-.47,.57-.79,.71Zm-17.49-21.95l-.1-2.01c0,.72-.03,1.42-.02,2.12l.15,2.1,.23-.24-.26-1.98Zm10.04-21.29l-1.15-.61-.74,2.11c1.32,.06,.94-.84,1.9-1.51Zm7.08,40.69c.07-.08,.14-.17,.23-.27-.08,.05-.15,.08-.24,.15-.01,.05,0,.08,.01,.12Zm21.2-13.21c-1.09-1.41,.04-3.46,.88-5.11,2.98-3.31,5.02-7.7,5.78-12.31,.34-2.32,.38-4.67-.02-6.93-.42-2.25-1.29-4.39-2.58-6.02-.15-.27-.41-.51-.73-.71-.35-.19-.79-.32-1.22-.43-.82-.25-1.85-.14-2.46-.23,.29,.65,.66,.75,.99,.97,.17,.1,.35,.2,.54,.34,.2,.14,.41,.33,.54,.67,.11,1.16-1.54,2.16-2.4,3.02,.46-.23,.87-.45,1.3-.71,.39,.2,.52,.42,.55,.58,.03,.16-.04,.29-.1,.39-.14,.23-.17,.34,.58,.84l-2.34,.17c1.21,.25,.31,1.21-.36,1.54,.53,.13,1.07,.26,1.6,.41l-.62,.55c-.21,.16-.41,.3-.62,.42-.43,.23-.91,.36-1.65,.37l1.48,.14c-.87,.14-.58,3.33-2.75,1.68,.25,.31,.92,.74,.6,1.22l-1.43-.37c.19,.82,.05,1.77-.77,1.66-.18-.52-.74-.87-1.3-1.22-.63,1.35,.33,2,1.43,2.65,1.07,.64,2.29,1.27,1.57,2.78l-.83-.48,.5,1.21c-.5,.06-.97,.12-1.47,.16,.55,.66,.65,1.24,.5,1.78-.14,.54-.55,1.01-1.05,1.46-.94,.93-2.17,1.68-2.14,3.04-.15,.4-.8,.47-1.48,.59-.69,.12-1.4,.3-1.86,.88l1.12,.97c-.49-.05-1.09,.07-1.77,.24-.68,.16-1.46,.32-2.24,.45-1.59,.21-3.26,.11-4.62-1.07-.14,1.47,.25,.2,.91,1.17-.36,1.18-.92,1.32-1.51,1.07-.59-.23-1.22-.79-1.81-.95-.28,.54-.05,.59,.27,.64,.32,.05,.74,.06,.74,.71-1.02-.09-1.09,.43-1.25,1.05-.15,.61-.4,1.21-1.51,1.12-.45-.71,.28-.71,.27-1.32-.09,.24-.21,.45-.36,.65-.14,.16-.32,.31-.51,.44-.19,.12-.41,.25-.62,.34l-.32,.09-.27,.06c-.46,.11-.85-.04-1.27,.07-.33-.57-.56-1.11-.52-1.66,.04-.54,.38-1.06,1.03-1.28l-.52,.15c1.36-.51,.04,.32,.78-1.06l-.85,.41c-.44-.36-.46-.69-.45-.97,0-.28,.13-.57,.02-.99,.54-.03,1.07-.05,1.6-.05-.3-.91-1.17-.68-1.76-1.54,.3-.13,.49-.35,.63-.61,.16-.26,.26-.57,.33-.88,.11-.61,.18-1.23,.31-1.42,.78,.03,.75,.74,1.09,1.04,.02-1.21-1.43-1.81-.69-3.16l.38,.18c-.09-1.06,.16-2.1,.47-3.15,.39-1.01,.85-2.05,1.47-3.02,.57-1.01,1.28-1.92,1.91-2.91,.69-.92,1.32-1.92,1.95-2.88-.28,.14-.44-.16-.73-.31,1.59-1.82,3.56-3.47,5.4-5.11,1.86-1.66,3.55-3.32,5.12-5.55-1.3,.45-3.24,.59-5.11,1.21-.92,.33-1.83,.73-2.53,1.36-.72,.58-1.24,1.38-1.44,2.35-.76-.17-1.25,.34-1.68,.77-.44,.42-.84,.74-1.52,.28-.91,.55-1.56,1.19-2.06,1.85-.47,.7-.79,1.41-1.09,2.13-.54,1.49-.95,2.96-2.11,4.5-.57,.26-1.01-.41-1.69-.73,.48-.97,.92-2,1.47-2.96-.61,.34-1.17,.74-1.75,1.13-.02-1.14,1.79-2.39,.94-3.52-.4,1.65-1.53,3.15-2.53,4.71-.47,.8-.97,1.56-1.26,2.37-.29,.81-.45,1.6-.34,2.37,.91-.8,1.29-2.27,2.22-3.3,.75-.21,1.57-.74,2.14-.22-.13,1.09-.35,2.01-.68,2.83-.27,.85-.65,1.6-1.03,2.34-.72,1.5-1.6,2.95-1.92,4.77-.2,.9-.65,1.99-1.39,1.94-.07-.65-.78-.39-.97-.99,.23,1.46,2.47,.93,1.74,2.56l-2.44-.85c1.23,.71,1,1.2,.6,1.79-.34,.57-.86,1.26-.13,1.97-.52,.18-.92,.07-1.2-.25-.25-.32-.34-.84-.3-1.37-.31,.57-.09,.95,.18,1.27,.29,.32,.65,.61,.6,1.05-.72-.31-1.43-.67-2.14-1.06,1.02,.64,.9,1.05,.43,1.45-.49,.4-1.24,.83-1.58,1.2,.53,0,2.17-.66,2.11,.58-.23,.58-.79,.43-1.09,.62,.55-.03,1.6,.19,1.78,.92-.68,.4-1.16-.18-1.9-.04,.13,.69,.46,1.14,.06,1.89,.47,.48,.69,.32,.94,.12,.25-.21,.49-.46,.97-.34,.12,.87-.42,1.3-1.13,1.62-.69,.32-1.6,.5-2.07,1.28-1.78-.96-2.67-3.32-3.39-4.23,.21,.6,.43,1.19,.66,1.76,.28,.56,.57,1.1,.86,1.63-.42,.08-.57,.84-.67,1.4-.13,.56-.33,.96-1.19,.18,.14,.51,.33,1.02,.54,1.53,.11,.25,.22,.51,.36,.75l.48,.69c.34,.45,.66,.92,1.06,1.33,.42,.39,.85,.76,1.29,1.12,1.85,1.34,4.01,2.11,5.93,2.36-.4-.44-.95-.82-.6-1.28,1.93,.13,1.34,1.04,1.53,1.75,1.6-.23,1.83-1.74,2.81-2.69,1.12,.76,1.9,.84,2.59,1.05,.71,.13,1.35,.35,2.68,1.09l-.34-1.45c.87,.45,1.31,.07,1.64-.3,.36-.37,.68-.81,1.52-.62,.17,.28-.28,.82-.66,1.29,1.18-.88,1.62,.83,2.75-.16-.14,.66-.34,1.27-.54,1.92,.28-.1,.58-.24,.86-.37,.27-.14,.54-.28,.77-.35,.46-.14,.81-.04,.79,.73,.66-1.14,1.73-1.96,2.89-2.73,.58-.39,1.13-.81,1.66-1.23,.54-.42,1-.88,1.33-1.41l.58,1.16c.07-1,1.03-1.56,1.85-2.25,.83-.68,1.66-1.35,1.42-2.41l.47,.29c.21-.95,.41-1.88,.57-2.8,.83-.6,1.92,1.03,1.61,.59,1.43-1.83,2.48-3.22,3.95-3.91Zm35.95-55.57c-.34,.63-.68,1.25-.99,1.87l-.83,1.94,.31-.1,.67-1.88,.83-1.83Zm-8.53,11.73c-.37,.44-.73,.7-1.14-.39-.56,2.26-.05,4.86,1.05,7.04,1.12,1.77,2.48,3.3,3.96,4.3-.15-.58-.47-1.17,.05-1.42,1.65,1,.72,1.54,.55,2.26,1.53,.53,2.43-.71,3.73-1.09,.64,1.19,1.3,1.62,1.82,2.12,.57,.44,1.03,.93,1.88,2.2l.36-1.44c.57,.8,1.13,.67,1.59,.49,.49-.17,.97-.41,1.63,.14,.03,.33-.62,.6-1.18,.84,1.45-.23,1.05,1.48,2.52,1.12-.43,.52-.89,.98-1.36,1.46,.29,.04,.62,.05,.94,.07,.31,0,.61,0,.85,.05,.48,.09,.73,.34,.37,1.01,1.11-.72,2.43-.95,3.82-1.1,.69-.08,1.37-.2,2.04-.33,.67-.12,1.29-.32,1.83-.64l-.02,1.29c.52-.86,1.63-.91,2.67-1.15,1.05-.22,2.09-.44,2.37-1.49l.28,.47c.62-.75,1.22-1.48,1.79-2.23,1.01-.15,1.23,1.8,1.16,1.26,2.11-.97,3.69-1.72,5.31-1.66-.32-1.75,1.62-3.06,3.13-4.14,4.17-1.57,8-4.54,10.79-8.28,1.36-1.9,2.48-3.98,3.17-6.17,.66-2.2,.87-4.49,.48-6.54,0-.3-.13-.64-.32-.97-.22-.33-.55-.65-.88-.94-.61-.6-1.58-.98-2.08-1.34-.04,.71,.24,.97,.43,1.31,.1,.17,.22,.34,.32,.55,.11,.22,.21,.48,.18,.84-.44,1.08-2.36,1.21-3.52,1.58,.51,0,.98,0,1.48-.03,.26,.36,.26,.61,.22,.77-.05,.16-.16,.24-.27,.31-.23,.14-.31,.23,.12,1.01l-2.15-.93c.96,.77-.28,1.22-1.03,1.2,.42,.36,.83,.73,1.23,1.11-.29,.07-.56,.14-.8,.2-.26,.05-.5,.08-.74,.09-.48,0-.97-.1-1.64-.43l1.25,.81c-.84-.27-2.05,2.69-3.21,.23,.08,.39,.48,1.08-.03,1.36l-1.1-.99c-.21,.82-.76,1.59-1.45,1.12,.08-.54-.26-1.12-.6-1.68-1.18,.91-.63,1.93,.06,3.01,.66,1.06,1.45,2.18,.12,3.19l-.52-.81-.11,1.31c-.47-.17-.92-.34-1.38-.53,.19,.84,0,1.4-.38,1.81-.37,.41-.96,.65-1.6,.81-1.26,.39-2.7,.49-3.3,1.72-.32,.29-.93,.05-1.59-.15-.67-.21-1.39-.38-2.06-.07l.55,1.38c-.41-.27-1-.44-1.68-.6-.68-.17-1.45-.38-2.2-.63-1.51-.55-2.95-1.4-3.61-3.08-.8,1.25,.13,.3,.27,1.46-.86,.88-1.43,.75-1.84,.25-.42-.48-.72-1.26-1.18-1.67-.5,.35-.32,.5-.05,.7,.26,.19,.63,.39,.34,.97-.86-.55-1.17-.12-1.6,.36-.41,.47-.91,.89-1.86,.31-.08-.84,.57-.51,.84-1.05-.19,.17-.4,.31-.62,.41-.2,.08-.42,.13-.65,.15-.23,.02-.47,.03-.71,.01l-.33-.07-.27-.07c-.46-.11-.74-.42-1.16-.53-.03-.62,0-1.16,.25-1.62,.28-.51,.83-.86,1.55-.75l-.53-.11c1.44,.18-.11,.31,1.18-.58l-.94-.03c-.23-.53-.09-.82,.05-1.07,.13-.25,.38-.45,.48-.87,.49,.22,.97,.45,1.44,.69,.16-.95-.72-1.15-.85-2.18,.33,.02,.6-.08,.84-.25,.27-.16,.5-.38,.7-.63,.38-.49,.73-1.01,.92-1.12,.68,.38,.32,1,.49,1.42,.57-1.07-.44-2.27,.83-3.12l.26,.33c.41-.99,1.11-1.79,1.86-2.58,.81-.72,1.7-1.43,2.69-2,.97-.63,2.02-1.12,3.03-1.71,1.04-.5,2.05-1.09,3.05-1.66-.31,0-.32-.34-.51-.61,2.25-.88,4.75-1.45,7.14-2.05,2.41-.62,4.68-1.32,7.09-2.57-1.36-.19-3.14-.96-5.1-1.27-.97-.14-1.96-.19-2.87,.05-.91,.19-1.74,.66-2.36,1.42-.6-.5-1.26-.28-1.84-.09-.58,.17-1.09,.27-1.47-.45-1.06,.07-1.93,.34-2.68,.7-.74,.4-1.35,.89-1.94,1.39-1.16,1.07-2.2,2.19-3.94,3.03-.63-.03-.71-.83-1.17-1.42,.88-.64,1.74-1.36,2.67-1.95-.7,.02-1.38,.12-2.08,.2,.51-1.03,2.69-1.3,2.45-2.7-1.11,1.28-2.81,2.09-4.41,3.02-.79,.49-1.58,.94-2.2,1.53-.63,.58-1.13,1.21-1.39,1.95,1.18-.29,2.19-1.42,3.49-1.91,.76,.16,1.73,.07,2.01,.79-.62,.9-1.24,1.63-1.9,2.2-.63,.63-1.31,1.12-1.99,1.61-1.33,1-2.78,1.89-3.89,3.36-.59,.71-1.49,1.47-2.12,1.08,.24-.61-.52-.71-.41-1.32-.47,1.4,1.77,1.96,.37,3.07l-1.78-1.88c.77,1.2,.34,1.53-.29,1.86-.56,.35-1.34,.73-1.02,1.69-.55-.08-.85-.36-.95-.77-.08-.4,.08-.9,.36-1.36-.54,.37-.52,.8-.43,1.21,.11,.42,.3,.84,.05,1.21-.49-.6-.96-1.25-1.42-1.92,.61,1.03,.31,1.35-.29,1.49-.62,.13-1.48,.17-1.95,.34,.47,.25,2.23,.41,1.61,1.48-.47,.41-.9,.02-1.25,.05,.5,.23,1.33,.9,1.16,1.63-.79,.05-.95-.69-1.67-.91-.2,.67-.12,1.23-.82,1.7,.19,.64,.46,.6,.78,.53,.32-.08,.65-.19,1.02,.15-.29,.83-.98,.96-1.74,.92-.76-.03-1.65-.29-2.43,.18-1.14-1.68-.85-4.17-1.07-5.31-.09,.63-.16,1.26-.22,1.87,0,.62,0,1.24,.02,1.84-.41-.13-.89,.49-1.23,.94Zm25.64-25.26l-1.63,1.53c1.14,.66,1.22-.32,2.38-.47l-.75-1.07Zm.87,4.6l.74,.25c.24-.31,.49-.58,.75-.87-.5,.18-1,.4-1.48,.62Zm23.72-.11c-.95-.66-1.18,.64-.99,1.19,.29-.45,1.21-.62,.99-1.19Zm-36.25,35.97c.1-.04,.2-.09,.33-.13-.09,0-.17,0-.28,.02-.04,.04-.03,.08-.05,.11Zm-.84,2.44c-.36-.03-.66-.06-1.07,.06,.86,0,1.61,.02,2.36-.08l-.27-.25c-.33,.29-.68,.3-1.03,.27Zm21.64,1.42c-1.07,.73,.2,1.28,.07,2.12,.13-2.42,1.51-.44-.07-2.12Zm-20.19-2.92c-.34-.32-.76-.62-.61-.94-.52,.21-.69,.54,.61,.94Zm23.6,.41c-.66,.18-.9,.63-1.15,1.08,1.2,.64,.84-.48,1.15-1.08Zm14.07-34.72c-.5,.12-1.04,.07-1.33,.07,.83,.45,1.39,.21,1.84-.26,.45-.46,.75-1.18,1.29-1.42-.95-.02-1.79,.03-2.65,.25h.8l.78,.09c.2,.86-.24,1.15-.73,1.27Zm4.35,1.65c.18-.33,.25-.9,.3-1.45-.68,.04-1.32,.12-1.96,.25l.88,1.47c.34,.22,.59,.06,.79-.27Zm32.93,201.01c.64,.3,1.03-.56,1.24-1.46-.65,.08-1.28,.18-1.91,.3l.67,1.16Zm-13.27,31.97c-1.06,.61,.12,1.29-.05,2.1,.27-2.37,1.46-.34,.05-2.1Zm8.38-36.09c-.22,.26-.37,.66-.39,.93,.38-.37,1.2-.4,1.2-.94-.27-.37-.58-.26-.81,0Zm2.34,2.38c.52-.38,.99-1,1.52-1.18-.81-.07-1.66-.03-2.42,.04,.44,.05,.9,.11,1.37,.2-.05,.76-.52,1.01-.98,1.07-.46,.06-1,0-1.25-.02,.7,.44,1.22,.29,1.75-.11Zm-8.55,32.44c1.12,.69,.79-.44,1.07-1.02-.62,.15-.83,.59-1.07,1.02Zm-22.28-26.2c-.73,.75,.62,1.29,.44,1.93-.65-.39-1.31-.83-1.93-1.29,.88,.72,.72,1.01,.19,1.23-.53,.21-1.37,.36-1.75,.57,.52,.13,2.22,0,1.96,.97-.34,.4-.86,.13-1.18,.21,.51,.12,1.5,.56,1.54,1.18-.74,.12-1.09-.45-1.84-.54,.04,.56,.14,.99-.41,1.43,.69,.94,1.05-.13,1.89,.37-.21,.69-.8,.85-1.58,.88-.77,.04-1.69-.07-2.41,.37-.6-.59-1.03-1.39-1.33-2.13-.27-.74-.48-1.43-.75-1.86,.18,.99,.29,1.93,.61,2.86-.44-.06-.76,.46-1.09,.84-.33,.37-.67,.61-1.17-.19-.26,1.64,.23,3.47,1.06,5.04,.4,.8,.97,1.5,1.49,2.17,.56,.64,1.17,1.2,1.72,1.72,0-.52-.12-1.06,.37-1.29,.6,.47,.66,.8,.56,1.1-.11,.31-.42,.6-.57,.91,1.18,.49,2.2-.57,3.41-.9,.26,1.1,.58,1.65,.9,2.1,.32,.47,.52,1.02,.79,2.26l.73-1.29c.19,.82,.64,.79,1.09,.71,.45-.06,.93-.24,1.3,.43-.07,.32-.68,.45-1.22,.57,1.27,.06,.45,1.65,1.79,1.56-.5,.41-1.01,.79-1.55,1.14,.96,.39,2.52,.35,1.56,1.53,1.14-.46,2.34-.44,3.57-.33,.62,.02,1.24,.07,1.84,.06,.6-.03,1.18-.14,1.7-.34l-.22,1.27c.6-.71,1.56-.69,2.52-.73,.96-.02,1.89-.22,2.23-1.18l.21,.5c.61-.64,1.17-1.36,1.68-2.03,.88,0,1.03,1.91,.98,1.38,1.89-.81,3.27-1.42,4.72-1.31-.19-.86,.13-1.6,.64-2.23,.51-.63,1.18-1.24,1.8-1.71,3.47-1.52,6.46-4.58,7.91-8.26,.72-1.84,1.14-3.77,1.09-5.66-.04-1.88-.43-3.67-1.14-5.18-.09-.47-.73-.94-1.4-1.32-.71-.38-1.56-.65-2.08-.94-.02,.62,.18,.87,.45,1.12,.24,.26,.5,.53,.63,1.11-.14,.47-.7,.84-1.3,1.13-.6,.3-1.3,.54-1.88,.81,.49-.09,.98-.19,1.47-.32,.57,.51,.37,.71,.21,.85-.15,.15-.28,.24,.39,.75l-2.32-.32c.58,.19,.6,.44,.41,.63-.21,.2-.67,.33-.99,.37,.51,.2,1.01,.42,1.51,.64-1,.38-1.54,.59-2.94,.21l1.4,.49c-.45-.06-.66,.45-.99,.78-.33,.34-.83,.4-1.76-.49,.22,.28,.8,.8,.48,1.01l-1.27-.75c.07,.57-.03,1.19-.75,.78-.13-.42-.62-.87-1.1-1.31-.56,.54,.23,1.4,1.12,2.32,.88,.91,1.82,1.85,1.04,2.69l-.63-.72c.11,.38,.2,.76,.26,1.13-.42-.18-.83-.37-1.23-.57,.74,1.54-.05,1.98-.93,2.23-.46,.1-.93,.18-1.34,.34-.42,.14-.74,.4-.89,.96-.21,.24-.68-.05-1.17-.32-.25-.14-.5-.27-.74-.34-.25-.09-.49-.11-.71,0l.45,1.41c-.61-.59-1.7-.99-2.65-1.73-.97-.74-1.74-1.86-1.92-3.56-.53,1.1,.03,.33,0,1.48-.57,.74-.9,.51-1.05,0-.15-.54-.16-1.35-.3-1.81-.69,.65,.32,.61-.18,1.67-.38-.6-.59-.26-.96,.16-.35,.43-.76,.76-1.16,.12,.22-.8,.51-.45,.79-.92-.3,.29-.63,.44-.89,.43-.29,.01-.57-.07-.79-.24-.51-.28-.76-.77-1.2-.96,.13-1.43,.23-2.56,1.65-3.1l-.54-.03c.65-.1,.77-.21,.67-.38,0-.18-.17-.42,.24-.54-.27-.02-.55-.03-.84-.03-.74-.62-.15-.64-.32-1.15,.5,.16,.98,.33,1.46,.52-.24-.57-1.06-.78-1.57-1.49,.5,.05,.77-.19,.87-.53,.13-.32,.2-.69,.3-.76,.63,.37,.61,.82,.9,1.15-.06-.77-1.09-1.76-.49-2.4l.29,.31c.04-1.5,.97-2.63,2.13-3.51,1.18-.89,2.53-1.56,3.85-2.43-.21-.04-.21-.37-.34-.67,1.55-.54,3.27-.73,5-.98,1.75-.25,3.52-.6,5.8-1.41-.49-.22-1.05-.5-1.6-.94-.6-.34-1.22-.83-1.94-1.1-1.39-.65-3.06-.7-4.18,.6-.38-.55-.92-.42-1.37-.35-.46,.08-.84,.15-1.09-.62-1.68-.19-2.75,.62-3.62,1.5-.88,.9-1.58,1.91-2.84,2.54-.5-.08-.66-.83-1.11-1.43,.63-.56,1.27-1.18,1.98-1.69-.57-.03-1.12,.01-1.69,.04,.33-.96,2.12-1.07,1.88-2.45-.89,1.18-2.24,1.83-3.48,2.67-.62,.41-1.21,.84-1.65,1.39-.22,.26-.42,.53-.57,.83-.13,.31-.22,.63-.26,.98,.46-.15,.84-.48,1.26-.8,.41-.33,.81-.72,1.32-.91,.66,.19,1.44,.17,1.74,.86-.73,1.64-1.56,2.47-2.41,3.32-.88,.8-1.77,1.62-2.31,2.82-.12,.31-.32,.62-.59,.81-.26,.19-.55,.3-.89,.15,0-.51-.68-.55-.79-1.06,.04,1.19,2.2,1.51,1.33,2.44-.74-.44-1.47-.89-2.2-1.35,1.07,.9,.81,1.19,.37,1.51-.43,.31-.97,.73-.39,1.41-1.09,.05-1.46-.76-1.23-1.58Zm.2,22.45c.67,.17,1.34,.31,2.01,.38l-.16-.3c-.73,.4-1.19-.21-1.85-.08Zm-2.98-24.19c.06-.55,.12-1.11,.21-1.68-.13,.59-.24,1.17-.34,1.74-.08,.58-.12,1.17-.17,1.73l.26-.14c.01-.54,0-1.1,.05-1.65Zm5.54,23.19c-.19-.39-.46-.72-.24-1-.49,.1-.74,.38,.24,1Zm-.24-1l.31-.08c-.08,0-.14-.02-.24-.02-.04,.03-.05,.07-.07,.1Zm9.89-32.74c-.4,.14-.81,.27-1.19,.46l.6,.31,.58-.77Zm-2.04-4.12c-.49,.46-.95,.94-1.39,1.41,1.02,.73,1.04-.26,2.05-.29l-.66-1.12Zm45.7-112.4c.3-.2,.53-.59,.92-.8-1-.12-1.58,.17-2.18,.4,.6,.62,.97,.6,1.27,.4Zm27.19-42.38c-.48-.3-.89-.9-1.16-1.18,.48,1.34,1.04,1.55,1.69,1.41,.64-.13,1.31-.6,1.88-.43l-1.11-1.02c-.39-.32-.8-.63-1.19-.93,.42,.46,.88,.94,1.24,1.45-.35,1-.87,.99-1.34,.69Zm2.26,4.56c.47,.84,1.16-.24,1.69-1.29-.63-.28-1.26-.55-1.89-.8l.2,2.08Zm-34.6,37.34c-1.86-.13-.57,1.17-1.29,1.76,1.76-1.86,2.27,.65,1.29-1.76Zm-17.88-20.91c-.06,0-.08,.03-.12,.04,.11,.06,.23,.12,.35,.2-.08-.08-.13-.16-.23-.24Zm28.44-49.16l-1.43,.35c.55,.54,.95,.6,1.43,.56,.48-.05,1.03-.13,1.77,.13l-.3-1.32c-.49,.05-.98,.15-1.47,.27Zm-31.01,21.45c-.27,1.32-.35,2.66-.44,3.98-.39-.2-.92,.37-1.35,.75-.42,.38-.83,.54-1.05-.61-.37,.99-.59,2.07-.75,3.19-.14,1.12-.08,2.27-.02,3.41,.21,2.28,.77,4.48,1.43,6.35,.22-.59,.3-1.31,.86-1.26,.77,1.86-.32,1.81-.87,2.34,.91,1.35,2.33,.87,3.59,1.44-.07,.38-.12,.73-.15,1.03-.01,.3,0,.58,0,.83,.02,.5,.07,.9,.1,1.3,.04,.4,.03,.8,0,1.28-.02,.48-.09,1.04-.25,1.82l1.3-.73c-.4,2.15,1.78,1.36,1.9,3.41-.22,.25-.9-.2-1.49-.56,1.24,1.26-.35,2.05,1.11,3.19-.71-.07-1.44-.17-2.17-.28,.84,1.18,2.44,2.61,.88,2.83,.7,.29,1.42,.69,2.08,1.21,.33,.26,.66,.54,.98,.83,.34,.28,.68,.57,1.03,.86,1.34,1.21,2.87,2.35,4.37,2.93l-.94,.9c1.15-.14,2.34,.74,3.62,1.48,1.31,.69,2.63,1.35,3.66,.71v.57c1.23-.11,2.39-.26,3.55-.56,1.28,.53,.36,2.27,.6,1.78,.78,.17,1.55,.19,2.26,.27,.71,.06,1.38,.19,2.01,.23,1.27,.07,2.39,.35,3.43,.61,.25-.87,1.17-1.47,2.3-1.9,.56-.24,1.18-.5,1.81-.7,.63-.21,1.27-.37,1.84-.62,5.95-.95,11.51-4.82,14.77-9.8,.88-1.2,1.52-2.55,2.18-3.83,.53-1.36,1.1-2.66,1.41-4.04,.77-2.69,.98-5.42,.93-7.95,.06-.75-.29-1.7-.78-2.64-.55-.95-1.19-1.9-1.57-2.75-.54,2.06,.41,2.31,.1,4.39-.32,.75-.95,1.17-1.7,1.51-.73,.34-1.53,.61-2.19,1.05,.51-.07,1.03-.16,1.54-.25,.37,1.12,.04,1.4-.2,1.63-.24,.23-.42,.4,.02,1.41l-2.19-.85c1.01,.93-.52,1.78-1.24,1.99,.42,.37,.86,.76,1.27,1.14-1.39,.66-2.04,1.14-3.48,.65l1.33,.68c-.52-.06-1.09,.86-1.7,1.48-.68,.57-1.33,.8-1.92-.48,.07,.43,.49,1.16-.08,1.57l-1.16-.93c-.35,.89-.89,1.88-1.66,1.37,.14-.56-.19-1.14-.54-1.73-1.35,.99-.75,2.08-.13,3.17,.62,1.08,1.33,2.24-.28,3.33l-.44-.85c-.1,.44-.22,.88-.35,1.34-.49-.2-.94-.38-1.41-.65,.04,.86-.28,1.42-.79,1.8-.51,.37-1.24,.43-1.96,.52-.74,.05-1.51-.06-2.2,.05-.71,.01-1.35,.13-1.93,.62-.46,.16-.99-.34-1.56-.78-.58-.41-1.17-1.01-1.97-1.02l-.18,1.47c-.14-.22-.33-.41-.55-.65-.22-.25-.47-.51-.74-.77-.27-.27-.56-.51-.84-.82-.27-.32-.54-.65-.8-.98-1.02-1.35-1.6-3.04-1-4.72-1.48,.4-.1,.3-.77,1.27-.32,.01-.59,0-.82-.05-.22-.06-.37-.17-.5-.28-.25-.23-.33-.53-.34-.85-.03-.63,.34-1.47,.29-2.13-1.4-.36,.26,1.06-.99,1.39-.15-.56-.38-.81-.66-.95-.25-.16-.57-.18-.91-.22-.34-.04-.69-.09-1.03-.3-.32-.22-.57-.65-.75-1.33,.56-.66,.87,.25,1.46,.15-.54-.16-1.07-.48-1.51-.96-.39-.5-.82-1.07-1.1-1.76-.26-.69-.61-1.38-.78-2.13-.11-.37-.22-.73-.35-1.08-.13-.35-.19-.72-.32-1.05,.07-1.7,.28-3.74,.66-5.74,.4-2.02,1.24-3.94,2.3-5.37l-.49-.21c.91-.46,1.07-1.14,1.34-1.83,.12-.35,.19-.73,.35-1.08,.18-.34,.4-.66,.71-.93l-1.06,.31c-.15-.68-.04-1.13,.17-1.49,.22-.35,.49-.66,.61-1.21,.52,.13,1.05,.3,1.57,.49,.25-1.1-.74-1.16-.85-2.32,.73-.03,1.25-.58,1.71-1.12,.48-.49,.81-1.12,1.04-1.2,.68,.4,.26,1.01,.44,1.47,.27-.6,.24-1.09,.26-1.66,.02-.55,.12-1.11,.83-1.46l.22,.36c1.1-1.86,3.18-3.02,5.47-3.49,2.32-.49,4.77-.35,7.26-.14-.28-.2-.09-.48-.1-.82,2.61,.63,5.24,2.09,7.73,3.77,2.51,1.68,4.91,3.57,7.74,5.13-1.02-1.49-1.74-3.89-3.23-5.92l-.54-.77c-.21-.23-.42-.46-.63-.68-.43-.43-.86-.86-1.35-1.19-1.01-.61-2.03-1.09-3.19-.98-.24-.81-.99-1.24-1.7-1.5-.69-.3-1.25-.59-1.17-1.43-1.16-.64-2.21-1.1-3.25-1.17-.51-.06-1-.09-1.48-.09-.49,.05-.96,.12-1.41,.2-.91,.11-1.8,.42-2.73,.62-.23,.05-.47,.1-.71,.13-.24,.07-.48,.13-.73,.19-.5,.11-1.03,.18-1.6,.23-.68-.16-.47-.97-.77-1.67,.63-.27,1.28-.38,1.95-.55l1-.24c.34-.08,.68-.09,1.02-.14-.82-.29-1.66-.41-2.53-.57,.53-.35,1.5-.55,2.37-.58,.87-.09,1.66-.27,1.9-.95-2.02,.69-4.44,.69-6.77,1.31-1.17,.21-2.26,.68-3.24,1.13-.95,.5-1.73,1.19-2.24,1.91,.75-.11,1.49-.43,2.26-.8,.8-.27,1.63-.6,2.47-.76,.86,.36,2.02,.53,2.04,1.28-.52,.37-1.02,.67-1.51,.94-.48,.29-.93,.6-1.39,.83-.23,.12-.46,.23-.68,.34l-.66,.38c-.44,.24-.88,.45-1.32,.66-1.7,.98-3.49,1.96-4.91,3.71-.37,.42-.78,.92-1.24,1.22-.46,.3-.9,.48-1.23,.32,.29-.75-.53-.72-.35-1.42-.66,1.66,1.86,1.91,.2,3.44l-1.85-1.79c.74,1.19,.28,1.71-.4,2.26-.71,.51-1.49,1.19-1.2,2.31-1.21,.08-1.2-1.22-.57-2.48-1.16,1.17,.07,2.01-.51,3.06-.52-.67-.95-1.33-1.41-2.05,.3,.55,.35,.94,.25,1.23-.08,.3-.31,.5-.63,.66-.62,.31-1.56,.45-2.05,.7,.23,.14,.81,.19,1.22,.41,.42,.22,.65,.57,.34,1.36-.49,.6-.9,.07-1.25,.14,.5,.27,1.19,1.15,.98,2.22-.77,.02-.89-1.01-1.56-1.3-.23,.86-.2,1.6-.95,2.1,.24,1.66,1.06,.12,1.62,1.19-.44,1.08-1.06,1.07-1.8,.82-.74-.24-1.57-.73-2.4-.37-.42-1.06-.46-2.25-.51-3.33-.07-1.1,.04-2.05-.07-2.67Zm2.22,28.99c0-.56-.11-1.15,.23-1.23-.57-.31-.9-.28-.23,1.23Zm4.24-35.61c.31-.77,.58-1.59,.99-2.32-.47,.76-.78,1.61-1.16,2.41-.39,.79-.65,1.64-.93,2.46l.33-.19,.34-1.19c.13-.39,.29-.77,.44-1.16Zm25.22-10.05l1.33-.38c-.68-.07-1.35-.2-2.03-.21,.24,.17,.48,.38,.71,.59Zm19.5,19.04c.54-.08,1.39,.66,1.58-.03-.33-1.45-1.38-.64-1.58,.03Zm-50.18,27.06c-.88-.26-1.12-1.2-1.79-1.63,.55,.73,1.2,1.39,1.79,2.06v-.43Zm16.17,93.09c.31-.42,.55-.91,.89-.8-.3-.52-.59-.67-.89,.8Zm43.94-38.53c-.51-.2-1.01-.4-1.51-.57-.53-.12-1.05-.23-1.56-.33,.32,.73,.68,.96,1.15,1.16,.44,.24,.99,.45,1.56,1.05,.13-.43,.25-.86,.36-1.31Zm-3.18,4c.41,.08,.89,.12,1.29,.28-.48-.43-1.06-.74-1.57-1.11l.29,.84Zm-22.96,2.91c-.51,.66-.94,1.38-1.38,2.09-.44,.7-.87,1.4-1.24,2.13l.34-.12c.31-.72,.7-1.37,1.08-2.06,.37-.69,.75-1.38,1.2-2.04Zm28.29,23.61c.47-1.34-.86-1.21-1.37-.74,.5,.2,.85,1.22,1.37,.74Zm-7.14-29.33c-.45-.07-.9-.15-1.34-.25l-.67-.15-.69-.05-1.38-.11c-.46,.04-.91,.08-1.36,.11-.22,.02-.44,.05-.66,.07-.21,.06-.42,.12-.62,.18-.41,.13-.8,.26-1.16,.41-.72,.35-1.31,.85-1.73,1.37,1.39-.08,2.94-.94,4.56-.8,.35,.26,.78,.41,1.08,.72,.3,.29,.48,.6,.4,.97-2,.87-3.44,1.42-5.1,2.08-1.62,.73-3.35,1.54-4.87,3.09-.74,.81-1.95,1.62-2.57,1.23,.37-.7-.45-.77-.21-1.44-.81,1.54,1.64,2.1-.18,3.41l-1.6-2.03c.6,1.28,.04,1.7-.69,2.14-.37,.21-.78,.43-1.1,.73-.31,.31-.5,.73-.45,1.31-1.17-.14-.98-1.45-.13-2.5-1.36,.86-.24,1.96-1.02,2.85-.35-.74-.68-1.49-1.01-2.26,.4,1.18-.03,1.56-.71,1.7-.66,.16-1.57,.07-2.08,.19,.39,.37,2.15,.76,1.11,2.04-.63,.43-.89-.17-1.25-.2,.4,.37,.93,1.41,.42,2.36-.73-.2-.57-1.19-1.17-1.65-.4,.75-.62,1.4-1.47,1.63-.16,1.62,.97,.43,1.25,1.61-1.5,1.75-2.35-.99-4.12-.95-.14-2.11,.87-4.32,.89-5.49-.45,1.14-.91,2.26-1.32,3.39-.64-.63-2.44,1.47-2.28-.63-2.52,2.87-3.35,7.46-3.71,10.97,.43-.38,.79-.93,1.27-.66-.04,1.84-1.01,1.33-1.71,1.51,.17,1.44,1.66,1.7,2.53,2.74-1.87,2.26-1.15,2.78-3.34,4.75l1.49,.09c-1.43,1.44,.81,1.96-.27,3.58-.33,.07-.63-.62-.91-1.2,.3,1.59-1.38,1.35-.9,2.96-.53-.44-1.06-.89-1.59-1.35,0,1.3,.42,3.19-.96,2.51,.43,.59,.72,1.27,.93,2.01,.1,.37,.19,.75,.26,1.14,.09,.4,.17,.8,.26,1.21,.18,.82,.27,1.65,.54,2.46,.25,.81,.54,1.57,.91,2.23l-1.29,.09c.95,.6,1.28,1.97,1.77,3.32,.27,.68,.56,1.34,.92,1.87,.36,.52,.88,.9,1.44,.99l-.35,.46c.53,.34,.99,.67,1.55,.96,.55,.29,1.1,.56,1.63,.8,.34,.62,.12,1.13-.15,1.47-.28,.34-.61,.5-.36,.37,.66,.58,1.27,1.12,1.87,1.62,.66,.46,1.27,.89,1.85,1.31,.57,.43,1.18,.72,1.7,1.1,.54,.36,1.03,.76,1.54,1.07,.29-.36,.73-.58,1.25-.72,.53-.15,1.12-.15,1.79-.27,.66-.08,1.36-.11,2.06-.14,.69-.1,1.37-.19,2.01-.26,3.09,.03,6.06-.95,8.61-2.38,1.3-.69,2.44-1.58,3.57-2.46,1.04-.96,2.11-1.9,2.98-2.98,3.67-4.19,5.89-9.11,7.2-13.73,.64-1.28-.32-3.87-.41-5.69-.61,.85-.74,1.4-.82,1.98-.07,.58-.1,1.18-.59,2.07-1.1,1.15-2.91,.79-4.5,1.26l1.58,.2c-.04,2.3-1.31,.78-.96,2.87l-1.91-1.35c.69,1.1-.87,1.69-1.69,1.72l.99,1.37c-1.45,.41-2.21,.77-3.56,.04l1.19,.89c-.51-.15-1.2,.72-1.92,1.23-.74,.49-1.43,.65-1.84-.71,.01,.45,.33,1.23-.29,1.56l-1.05-1.05c-.46,.86-1.1,1.79-1.8,1.21,.18-.54-.09-1.16-.38-1.78-1.44,.87-.92,2-.39,3.13,.54,1.12,1.15,2.33-.42,3.22l-.37-.88c-.11,.41-.23,.84-.37,1.27-.43-.24-.85-.51-1.22-.84,0,.84-.31,1.38-.77,1.65-.22,.11-.49,.17-.76,.2-.14,.02-.28,.02-.42,.03-.14,0-.27-.05-.41-.08-.27-.07-.55-.14-.81-.18-.25-.1-.47-.21-.7-.25-.11-.02-.23-.03-.34-.03-.11-.02-.22-.05-.33-.04-.23,0-.47,.07-.74,.22-.36,.03-.5-.6-.64-1.1-.08-.25-.08-.61-.17-.84-.07-.25-.22-.38-.42-.58l-.97,1.13c.15-.93-.17-2.12,.07-3.62,.18-1.42,.88-2.98,2.43-3.84-1.37-.57-.27,.16-1.41,.47-.25-.18-.44-.35-.58-.52-.11-.19-.18-.36-.2-.53-.04-.33,.08-.61,.28-.86,.39-.49,1.2-.94,1.57-1.5-.87-1.21-.46,1.04-1.64,.47,.23-.55,.21-.9,.08-1.19-.11-.3-.34-.53-.58-.78-.48-.49-1.03-1.09-.44-2.51,.84-.23,.54,.76,1.08,1.05-.35-.49-.55-1.1-.65-1.78-.08-.69,0-1.45,.08-2.24,.1-.79,.33-1.6,.48-2.41,.18-.81,.41-1.61,.51-2.39,.46-.8,1.02-1.68,1.51-2.62,.56-.92,1.12-1.91,1.74-2.87,.66-.94,1.27-1.92,2.03-2.76,.37-.43,.72-.85,1.09-1.24,.39-.37,.79-.73,1.18-1.06l-.42-.34c2-.64,1.95-2.74,3.57-3.78l-1.16,.21c0-1.58,.96-1.63,1.4-2.76,.51,.2,1.03,.44,1.53,.68,.46-1.14-.55-1.29-.48-2.49,.74,.04,1.36-.47,1.87-.98,.51-.45,.91-1.03,1.12-1.09,.32,.24,.36,.49,.35,.74-.01,.26-.08,.54-.02,.76,.17-.29,.24-.56,.27-.81,.04-.26,.04-.53,.06-.8,.04-.53,.19-1.07,.79-1.31l.19,.38c.59-1.02,1.33-1.55,2.1-1.99,.75-.32,1.34-.39,2.08-.34,.22,.1,.48,.13,.74,.19,.21,.14,.48,.18,.75,.32,.24,.19,.56,.3,.85,.51,.28,.25,.61,.44,.94,.7-.05-.28,.24-.37,.44-.63,1.44,1.61,2.42,4.36,3.28,7.16,.86,2.83,1.72,5.79,3.18,8.55,0-.88,.23-1.88,.38-2.97,.1-.55,.2-1.12,.3-1.69,.06-.58,.12-1.17,.16-1.77,.06-.6,.05-1.19-.02-1.78-.06-.58-.13-1.16-.29-1.7-.39-1.06-.85-2.04-1.79-2.65,.35-.74,.06-1.52-.3-2.12-.33-.62-.52-1.19,.05-1.75-.36-.93-.74-1.76-1.33-2.32-.28-.29-.54-.58-.84-.8-.32-.2-.63-.38-.94-.54-1.24-.66-2.56-.72-3.82-.96-.31,0-.61-.03-.92-.08-.16-.03-.31-.06-.47-.1-.16-.03-.33-.02-.5-.05-.48-.35-.13-1.07-.2-1.82l.71-.05c.24-.03,.48-.03,.72,0l1.47,.16,.77,.22-.63-.57-1.35-.85c.43-.13,1.04-.04,1.67,.08,1.01,.36,2.11,.75,2.75,.21-.4-.12-.84-.17-1.28-.27-.43-.1-.86-.22-1.29-.35Zm4.64,31.52c-.38,2.79,1.88,1.67,2.78,2.42-.39-.91-.78-1.8-1.19-2.67,.16,.59,.29,1.17,.43,1.78-1.45,1.38-1.87-.84-2.02-1.53Zm-44.84,5.51c-.6-.64-.22-1.44-.6-2.1l.36,2.42,.24-.32Zm2.14-.49c.06,.1,.12,.21,.18,.33-.02-.1-.02-.18-.06-.3-.04-.03-.08-.02-.12-.03Zm45.52,.97l-1.44-1.44-.6,1.88c.13,.92,1.16,.23,2.04-.44Zm-46.2,26.31c2.62-.37,1.86,2.08,2.15-.61-1.6-1.36-1.18,.6-2.15,.61Zm5.91,1.99c.75,1.81,1.47,.91,2.47,.93-.52-.3-.94-.51-1.33-.66-.39-.14-.77-.2-1.14-.27Z"/></g></svg>