<?xml version="1.0" encoding="UTF-8"?><svg xmlns="http://www.w3.org/2000/svg" xmlns:xlink="http://www.w3.org/1999/xlink" viewBox="0 0 434.65 434.65"><defs><style>.d{fill:url(#c);}</style><linearGradient id="c" x1="220.18" y1="348.73" x2="220.18" y2="81.29" gradientTransform="matrix(1, 0, 0, 1, 0, 0)" gradientUnits="userSpaceOnUse"><stop offset="0" stop-color="#d1d706"/><stop offset="1" stop-color="#88bd32"/></linearGradient></defs><g id="a"/><g id="b"><path class="d" d="M282.09,199c-1.4-1.69-2.89-3.3-4.35-4.92,.14,.29,.28,.58,.41,.88,1.47,.91,2.64,2.9,3.94,4.04Zm-71.34-42.11c2.28,.14,3.56-.07,4.85-.3-2.95-1.28-3.15-.08-4.85,.3Zm15.42-1.78c-2.92,1.84-5.09-.71-2,1.76,4.07,.25,.73-1.2,2-1.76Zm49.11,127.16l-.67,.66c-2.26,3.93-4.82,7.73-7.75,11.29,3.2-3.73,5.98-7.76,8.43-11.95Zm-78.59,30.93c-1.23,.01-2.46-.04-3.7-.05l2.93,.49c.98,.15,1.97,.22,2.95,.34l-2.18-.77Zm2.65,5.04h1.84l1.84-.1c-.72-.3-1.36-.47-1.97-.59-.61-.14-1.2-.2-1.83-.25-.63-.04-1.29-.09-2.05-.14-.76-.05-1.61-.16-2.6-.42l1.05,1.47,3.71,.02Zm-69.6-56.8c-.44-.35-.77-.48-.57,.43,1.81,3.91,2.38,2.24,1.93,.48-.3,0-.9-.56-1.36-.91Zm58.68-98.52c-1.95,.21-3.91,.42-5.88,.67-1.96,.33-3.92,.66-5.89,1.04-1.95,.47-3.91,.91-5.87,1.44-1.95,.65-3.93,1.24-5.85,1.98-7.67,3.03-14.7,7.58-20.68,13.06-12,10.96-19.71,25.73-21.78,39.98-.19,1.06-.28,2.24-.31,3.49,0,.31-.02,.63-.01,.95,.03,.32,.06,.65,.09,.98,.08,.65,.15,1.32,.23,1.99,.21,2.68,1.09,5.41,1.46,7.94,.1-1.57,.13-2.77,.1-3.8-.01-.51-.04-.98-.07-1.43,0-.45,0-.87,0-1.3,0-.85-.01-1.71,0-2.74,.02-.51,0-1.08,.09-1.69,.1-.61,.21-1.29,.36-2.06,.33-1.13,.7-2.05,1.11-2.85,.48-.78,.98-1.44,1.5-2.07,1.03-1.25,2.03-2.38,3.29-3.95-.68,.44-1.38,.88-2.07,1.35,.54-3.07,1.12-4.01,1.58-4.79,.49-.78,.95-1.35,1.34-3.89l2.01,1.23c-.09-.51,.02-1.11,.24-1.73,.27-.61,.68-1.23,1.12-1.83,.92-1.19,1.94-2.3,2.72-2.82l-.45-2.19c.73-.66,1.39-1.27,1.99-1.82,.59-.55,1.22-.95,1.75-1.32,1.09-.72,2.01-1.12,2.93-1.08l-1.36-.68c.2-.06,.49-.29,.85-.62,.36-.33,.83-.73,1.32-1.2,1.01-.92,2.09-2.14,3.23-3.04,2.27-1.82,4.06-2.95,3.26-.53,.28-.48,.48-1.04,.85-1.65,.4-.57,.97-1.19,1.96-1.84l1.17,.96c.61-.57,1.21-1.21,1.87-1.71,.66-.5,1.32-.98,1.93-1.38,.61-.41,1.18-.74,1.67-.96,.49-.22,.94-.26,1.25-.2-.71,.55-1.07,1.11-1.29,1.6-.22,.49-.29,.92-.36,1.35,5.84-3.39,6.08-4.58,6.04-5.97-.01-.68-.08-1.35,.61-2.18,.34-.42,.87-.87,1.69-1.39,.82-.51,1.98-.93,3.5-1.47l.15,.96c.91-.67,1.84-1.35,2.87-1.92l3.71,.32c.97-1.08,2.66-1.76,4.71-2.33,1.02-.3,2.17-.44,3.36-.6,1.2-.14,2.45-.3,3.74-.36,2.58-.09,5.25-.22,7.8-.24,1.27-.03,2.5-.15,3.68-.21,1.17-.08,2.29-.22,3.31-.44,3.25-.26,7.38,1.82,13.35,2.25l-.22-1.52c2.34,1.07,8.03,2.34,13.17,4.59,2.56,1.12,5.02,2.35,6.85,3.71,.46,.33,.91,.65,1.3,.97,.37,.35,.7,.69,.99,1.02,.59,.66,1.02,1.28,1.26,1.86,1.83,.36,1.78,.27,1.36-.08-.21-.17-.52-.4-.74-.64-.24-.23-.41-.48-.26-.74,.5,.1,.89,.25,1.27,.39,.38,.14,.74,.28,1.07,.43s.65,.28,.94,.42c.28,.15,.47,.32,.68,.47,.41,.31,.75,.61,1.03,.91,.15,.16,.26,.26,.41,.46,.15,.2,.28,.39,.4,.58,.49,.76,.84,1.49,1.23,2.25,.38,.79,.8,1.62,1.45,2.53,2.13,1.57,1.52,.77,.71-.29-.81-1.02-1.83-2.3-.42-1.74,2.54,3.18,3.99,4.1,5.65,5.19,.83,.54,1.71,1.13,2.74,2.14,.52,.5,1.08,1.1,1.7,1.83,.6,.75,1.26,1.65,1.99,2.72,0,1.32-2.14-1.7-3.24-2.14,2.9,2.26,6.31,6.24,9.48,10.87,3.18,4.61,6.11,9.85,8.32,14.37,.91,2.69,1.91,5.77,2.19,8.48,.25,2.11,0,5.7-.63,9.24-1.23,7.18-3.81,14.69-6.96,20.67l.41,.44c-1.74,2.33-2.93,4.96-4.33,7.63-1.34,2.7-2.88,5.43-4.96,7.87,.84-.68,1.6-1.44,2.42-2.16-1.55,4.09-3.54,5.61-5.82,8.88l-2.63,.57c-1.27,1.69-1.42,2.21-1.39,2.71,0,.48,.2,.94-.71,2.27-.92,.44-1.92,1.2-3.02,1.99-.56,.38-1.12,.8-1.68,1.23-.56,.43-1.11,.88-1.68,1.26-1.14,.78-2.16,1.64-3.1,2.2-.92,.59-1.65,1.06-2.06,1.27-1.45,0,.91-1.66,1.21-2.33-1,.72-1.69,1.33-2.25,1.9-.58,.52-1.04,.99-1.53,1.48-.5,.48-1.03,.99-1.82,1.51-.81,.48-1.85,1-3.32,1.6l-.24-.36c-6.71,3.6-15.49,5.73-24.8,6.06-1.16,.03-2.32,.07-3.48,.1-1.16,0-2.32-.07-3.48-.1l-1.74-.06-1.73-.16c-1.15-.12-2.32-.17-3.46-.33-4.59-.55-9.07-1.5-13.41-2.58,1.11,.48,.73,.66,1.08,1.11-4.54-1.35-9.14-3.19-13.59-5.44-4.46-2.24-8.72-4.96-12.74-7.84-4.02-2.89-7.77-5.99-11.26-9.04-3.48-3.07-6.66-6.12-9.66-8.86,.77,1.12,1.69,2.27,2.57,3.55,.91,1.27,1.92,2.57,2.93,3.96,2.13,2.68,4.42,5.56,7.04,8.15,2.55,2.66,5.4,5.03,8.23,7.03,1.46,.93,2.87,1.85,4.3,2.55,1.45,.68,2.81,1.31,4.17,1.7,.74,.74,1.69,1.41,2.7,2.02,1.02,.61,2.15,1.08,3.17,1.57,.51,.25,1.01,.48,1.48,.71,.48,.21,.92,.42,1.3,.64,.78,.43,1.35,.9,1.59,1.43,7.18,3.36,12.84,4.15,18.27,4.48,5.46,.26,10.78,.11,18.2-.15,1.1,.08,1.37,.34,1.47,.67,0,0,0-.02,0-.03,7.13-1.47,13.41-2.83,19.55-4.84,6.11-2.01,12.1-4.7,17.81-9.01,.74-.5,1.46-1.16,2.24-1.73,.76-.6,1.57-1.11,2.24-1.66,1.38-1.06,2.56-1.78,3.03-1.71-1.63,1.74,.14,1.02-1.13,2.58,1.78-1.93,1.41-2.51,1.32-3.21-.04-.35-.01-.72,.37-1.31,.19-.29,.46-.64,.86-1.07,.41-.42,.91-.94,1.55-1.59l1.22,2.47c.03-2.05,1.68-3.58,3.48-5.45,.94-.89,1.86-1.92,2.72-3,.87-1.07,1.53-2.32,1.94-3.64,.96-.52,1.08,.03,.67,1.17-.21,.57-.54,1.28-.97,2.07-.46,.77-1.02,1.61-1.63,2.46,.79-.89,1.33-1.63,1.73-2.29,.37-.68,.59-1.28,.78-1.85,.39-1.15,.67-2.2,1.63-3.81l.02,2.11c0,.7-.05,1.4-.07,2.1,.29-2.25,1.22-3.77,2.46-4.91,1.16-1.18,2.53-2.04,3.4-2.91-.37-.49-2.77,.67-.44-3.84,1.17-1.87,1.2-.63,1.69-.97-.4-.49-.49-2.54,.63-5.68,.91-.32,.22,2.47,.83,2.97,.44-1.21,.83-2.31,1.25-3.3,.39-1.01,.82-1.9,1.41-2.69,.79-4.52-1.08-.05-1.02-2.92,1.24-3.21,1.83-3.25,2.49-2.68,.64,.56,1.25,1.72,2.35,.65-.17,2.75-.81,5.82-1.48,8.56-.7,2.73-1.44,5.13-1.79,6.59,1.27-3.29,2.27-6.67,3.18-10.05,.32,.44,1.19-1.15,1.89-2.18,.35-.51,.63-.88,.8-.77,.17,.12,.2,.71-.02,2.13,1.94-5.01,3.24-10.84,3.69-16.81,.22-3,.25-6.01-.04-9.09-.1-.8-.18-1.55-.31-2.35-.08-.41-.16-.82-.23-1.22-.07-.41-.16-.8-.28-1.15-.21-.71-.42-1.42-.63-2.12-.11-.35-.21-.69-.32-1.03-.13-.32-.25-.64-.37-.95,.05,.38,.1,.8,.15,1.19,.03,.41,.05,.81,.06,1.15,0,.68-.08,1.12-.38,1.02-.43-1.35-.7-2.33-.91-3.01-.19-.7-.23-1.19-.2-1.55,.06-.73,.42-1,.52-1.64-2.05-3.54-3.23-2.54-5.23-4.2-.52-1.93-1.11-3.36-1.61-4.59-.48-1.24-.98-2.2-1.42-3.15-.87-1.92-1.68-3.69-2.77-7l-1,1.16c-1.67-4.57-3.88-3.85-6.23-8.37,.08-.41,1.59,.87,2.77,1.94-1.51-1.69-1.94-2.65-2.32-3.66-.39-1-.78-1.99-2.42-3.5,1.16,.55,2.35,1.09,3.5,1.69-1.11-1.39-2.64-2.96-3.56-4.16-.96-1.17-1.35-1.96-.21-1.73-2.67-1.82-5.75-4.78-9.06-7.83-.85-.75-1.71-1.51-2.56-2.26-.85-.75-1.78-1.46-2.65-2.17-.81-.7-1.96-1.4-2.95-2.04-.51-.31-1.01-.62-1.51-.92-.5-.25-1-.46-1.49-.67l1.15-.82c-.59-.11-1.24-.32-1.96-.6-.71-.27-1.47-.66-2.28-.95-1.62-.61-3.38-1.52-5.16-2.1-.89-.31-1.78-.62-2.63-.93-.86-.3-1.7-.46-2.48-.64-1.57-.31-2.93-.5-3.9-.23l-.45-.64-4.11-.07-4.06,.14c-1.75-.41-2.26-.98-2.37-1.43-.12-.45,.17-.77-.02-.52-1.98-.16-3.84-.38-5.61-.49-1.77-.1-3.43-.22-5.01-.36-3.16-.13-5.96-.45-8.5-.72-1.3,1.67-9.47,2.28-15.9,3.29Zm46.39,147.56c-1.04,.28-2.17,.51-3.33,.78-1.16,.26-2.34,.64-3.58,.88-1.24,.25-2.5,.5-3.77,.75-1.27,.27-2.57,.34-3.84,.48-2.1-.14-5.19-.37-5.54-.98,.04,.27,.04,.58,.31,.87l-2.99,.34-3.01,.17c-2.01,.17-4.02,.13-6.04,.12l3.67,.54,3.7,.33c-3.23,.86-11.03-.32-12.1,.86,5.46-.12,12.41,.11,19.17-.6,6.75-.64,13.25-2.25,17.35-4.54Zm-109.37-60.73c.37,.46,.76,1.14,1.16,1.81,.41,.66,.78,1.32,1.03,1.76-.85-1.98-1.39-3.14-1.84-3.76-.45-.62-.8-.7-1.09-.55-.59,.29-.98,1.52-1.71,.99,1.25,2.01,2.6,3.92,4,5.76-.89-1.38-1.69-2.8-2.51-4.25-.32-2.73,.23-2.68,.95-1.76Zm151.39-54.42c.53,1.17,1.25,2.47,.85,2.5,1.11,.92,1.54,.98-.85-2.5Zm.85,2.5c-.21-.18-.44-.37-.7-.6,.19,.21,.34,.39,.57,.62,.09,.04,.09-.02,.14-.02Zm-156.62,38.75c-.3-1.2-.58-1-.84-.15-.23,.85-.46,2.43-.56,3.88,.74,.77,1.46,1.52,2.2,2.24l-.49-2.97-.31-3Zm87.66,15.51c1.33,1.12,1.16-.6,2.06-.67-2.46,.53-1.27-1.72-2.06,.67Zm12.67-32.88c1.37-1.56,.04-1.89-.83-1.4,.33,.44-.01,1.88,.83,1.4Zm-1.29,52.03c.25,.15,.58,.12,.56,.58,.29-.69,.28-1.06-.56-.58Zm.56,.58c-.06,.13-.12,.27-.19,.42,.06-.09,.12-.15,.19-.26,.02-.07,0-.11,0-.16Zm30.2-23.59l.43-.19c1.13-1.81,2.2-3.64,3.2-5.49-1.14,1.92-2.34,3.82-3.63,5.68Zm4.86-32.1l1.27,.56c.42,.2,.81,.45,1.24,.68-.01-1.51-1.05-1.35-2.11-2.5-.12,.43-.26,.85-.4,1.27Zm-38.68,7.8c.07,.44,.31,.65,.62,.77,.61,.23,1.46,.11,1.81,.65-.1-1.21-.13-2.44-.16-3.73l-.31,2.5c-1.05,.9-1.42,.64-1.59-.06-.12-.67,.05-1.73,.15-2.27-.43,1.03-.57,1.69-.51,2.13Zm-11.01,25.67c.07-1.63-.91-.98-1.69-1.3,.51,.83,1.11,1.07,1.69,1.3Zm14.16,19.94c.23-1.03,.57-.94,.73-1.64-.25,.47-.54,.97-.88,1.5l.15,.14Zm38.87-57.27c-.6-.22-1.2-.41-1.77-.6,.78,.53,1.56,1.08,2.27,1.71l-.49-1.11Zm-53.25,3.21c-.48,0-1.01-.06-1.54-.19-1.06-.21-2.19-.55-2.89-.75-.33,.59-.64,1.16-.88,1.77-2.75-.34-4.45,.04-5.83-.92l.87,1.23c-.66-.24-2.89,.97-4.53,2.06-.84,.52-1.56,1.02-2.07,1.1-.5,.09-.79-.2-.6-1.21-.19,.39-.28,.84-.48,1.34-.2,.5-.52,1.01-1.13,1.6l-1.29-.77c-.71,1.1-1.37,2.33-1.98,3.32-.58,.97-1.23,1.92-1.77,2.14,.18-.84,.25-1.44,.21-1.95-.06-.48-.21-.87-.35-1.27-.21,.34-.38,.63-.57,.97-.19,.34-.37,.66-.5,.98-.28,.64-.49,1.21-.65,1.72-.27,1.04-.36,1.81-.29,2.39,.14,1.18,.68,1.58,1.25,1.93,.58,.35,1.17,.65,1.54,1.46,.4,.81,.5,2.11,.96,4.47l-.97,.02c.44,.81,1.02,1.54,1.57,2.23-.08,.47-.12,.93-.16,1.4l-.16,1.28c2.08,.72,3.11,3.05,4.27,5.54,1.14,2.49,2.35,5.17,4.26,6.4,1.15,1.19,.81,4.09,2.85,6.46l1.07-1.05c.14,1.46,1.43,4.17,2.58,6.99,1.14,2.82,2.14,5.76,1.57,7.76,2.38,1.09,.08-.39,1.02-1.1,2.05,1.28,2.69,2.33,2.92,3.38,.02,.21,.18,.63,.32,1.03,.14,.4,.28,.8,.42,1.21,.3,.83,.66,1.73,1.27,2.76,1.97,1.69,1.36,.78,.64-.33-.74-1.13-1.57-2.47-.32-1.87,2.13,3.32,3.48,4.14,4.81,4.91,1.37,.81,2.7,1.55,5.55,5.42,.47,1.75-1.66-.97-2.46-1.02,.97,.62,2.03,1.48,3.21,2.57,2.65-2.31,5.67-4.57,8.87-6.98,1.57-1.18,3.26-2.5,4.74-3.69,.72-.59,1.44-1.18,2.15-1.76,.5-.43,.89-.77,1.31-1.16,5.6-3.29,12.99-9.27,19.36-13.82l-.28-.48c3.25-1.32,4.75-4.73,7.75-7.23l-1.84,.88c.97-2.48,2.33-3.17,3.54-5.28l2.06-.09c1.24-2.4-.31-1.74,.21-3.76,1.13-.66,2.24-2.25,3.14-3.82,.44-.8,.84-1.57,1.16-2.22,.31-.68,.55-1.21,.72-1.48,1.06-.43,.34,1.44,.5,2.04,.62-1.68,.58-2.57,.59-3.64,0-1.08,.15-2.06,.94-4.29l.42,.07c.41-2.89,.95-6.15,.42-10.19-.51-3.48-1.79-6.93-3.65-9.86-3.73-5.91-9.52-9.71-15.18-11.12,.7,.38,.39,.6,.55,1.01-2.82-1.02-5.86-1.65-8.93-1.77-3.07-.13-6.16,.27-8.99,1.17-2.83,.88-5.37,2.32-7.36,4.04-1.03,.82-1.85,1.82-2.62,2.73-.69,1.01-1.33,1.96-1.74,3,1.9-2,5.3-3.76,8.77-4.87,3.52-1.12,7-1.66,9.9-2.95,.53,.26,1.12,.43,1.73,.51,.61,.07,1.24,.09,1.83,.17,1.19,.1,2.2,.37,2.42,1.23,.94,.31,1.78,.68,2.6,.94,.79,.34,1.57,.55,2.28,.86,.72,.28,1.43,.52,2.1,.81,.34,.14,.69,.27,1.02,.4,.33,.15,.66,.31,.99,.46,1.34,.6,2.63,1.37,3.92,2.42,1.25,1.08,2.54,2.46,3.47,4.44,.29,1.24-.68,.99-1.22,1.59-1.05-1.84-2.39-3.43-3.89-4.77,.65,1.05,1.2,2.14,1.62,3.26-.36-.23-.7-.62-1.07-1.05-.41-.4-.8-.86-1.22-1.26-.44-.37-.87-.71-1.27-.9-.42-.17-.8-.19-1.1,0,1.17,.45,2.26,1.36,3.25,2.45,.92,1.15,1.78,2.49,2.3,3.96,.54,1.45,.92,2.97,1.08,4.4,.04,.36,.09,.71,.15,1.07,.02,.35,.03,.69,.06,1.03,.03,.34,.07,.67,.12,1,.02,.32,.04,.63,.09,.94,.11-.25,.22-.51,.31-.78,.08-.28,.13-.57,.18-.87,.1-.6,.22-1.22,.16-1.88-.02-.65-.01-1.32-.15-1.96-.09-.65-.18-1.3-.33-1.93,.05-.31,.09-.65,.12-1.01,0-.35,.01-.7,.02-1.02,.03-.64,.13-1.17,.49-1.26,1.27,1.66,2.09,3.61,2.49,5.62,.3,2.13,.17,4.28-.35,6.11-.97,3.77-2.75,6.91-4.54,10.36-.91,1.73-2.54,3.78-3.32,3.57,.53-1.15-.51-.76-.2-1.77-1.09,2.48,2.03,1.83-.6,4.71l-1.71-1.98c.59,1.42-.22,2.3-1.28,3.12-1.04,.85-2.29,1.67-2.6,3.2-1.41,.03-.65-1.68,.62-3.28-1.86,1.46-.89,2.61-2.18,3.97-.13-.92-.29-1.86-.44-2.78,.25,2.88-2.68,2.33-3.94,2.63,.29,.46,2.22,.87,.41,2.56-.94,.57-.95-.21-1.35-.25,.3,.48,.37,1.8-.75,2.99-.73-.31-.01-1.55-.47-2.15-.83,.89-1.44,1.7-2.5,1.88-1.13,1.94,.84,.66,.44,2.15-2.77,1.92-1.99-1.61-3.95-1.89,1.08-2.45,3.07-4.9,3.57-6.23-.96,1.24-1.91,2.49-2.91,3.72-.4-.81-3.29,1.13-2.1-1.18-3.86,2.64-7.41,7.08-10.38,10.54,.67-.19,1.41-.59,1.67-.09-1.43,1.91-1.94,.92-2.7,.75-.93,1.57,.17,2.58,.06,4.1-.79,.32-1.4,.56-1.92,.77-.43,.18-.79,.37-1.09,.49-.6,.24-1.25,.43-2.21,.04l.49,1.51c-.76-.17-.99,.35-1.33,1-.32,.63-.74,1.4-1.41,1.36-.05-.37,.47-1.25,.82-1.96-.72,.96-.91,.27-1.19,.04-.12-.35-.26-.6-.55-.64,.29-.42,.54-.89,.75-1.4,.03-.06,.06-.19,.08-.27-.02,0-.04,.06-.06,.04-.48-.4-1.27-.64-.62-1.98-.6,.61-1.34,.16-2.07-.43l-.55-.47-.29-.24c-.11-.1-.15-.11-.37-.33-.72-.69-1.44-1.33-2.18-1.84l1.13-.65c-2.36-.38-4.12-5.13-6.53-5.19l.25-.53-3.56-1.76c-.86-1.38,1.01-2.11,.51-1.89-2.4-2.6-4.09-4.8-4.81-7.01-1.74,.52-4.2-2.3-5.82-4.7-.74-1.57-1.48-3.14-2.06-4.68-.29-.81-.5-1.39-.66-2.03-.09-.32-.13-.65-.2-.97-.03-.33-.07-.66-.05-.99,.06-1.32,.43-2.62,1.03-3.83,.65-1.31,1.54-2.63,2.61-3.77,2.13-2.29,4.94-4.14,7.9-4.64,1.5-.26,3.1-.19,4.61,.28,1.52,.46,2.92,1.3,4.18,2.38,.67,.71,1.75,1.37,2.93,2.19,.57,.42,1.16,.88,1.75,1.36,.21,.19,.42,.4,.62,.6l-.69,2.02c.06,1.24,1.21,.02,2.22-.9-.35-.45-.69-.91-1.03-1.38-.1-.25-.2-.47-.29-.68-.27-.49-.55-.87-.84-1.24-.27-.37-.6-.72-.97-1.15-.35-.44-.75-.95-1.28-1.61-.28-.58-.52-1.1-.68-1.64-.15-.57-.29-1.1-.43-1.62-.27-1.11-.61-2.28-1.56-3.49,.19,.64,.3,1.33,.39,1.98-1.99-.66-2.52-1.01-3.01-1.4-.46-.37-.95-.7-2.63-.34l.64-2.26c-.38,.23-.82,.32-1.3,.3Zm-66.24,11.37l.22,4.36c1.24-1.58,.53-2.66,1.13-4.85l-1.35,.5Zm30.99,27.22c.05,1.09,.53,1.61,.99,2.11,.68-1.55-.43-1.38-.99-2.11Zm2.6,5.7c.87,1.6,1.29-.16,2.16,.09-2.48-.36-.61-2.12-2.16-.09Zm-22.53,11.69c2.04,2.19,4.34,4.09,6.66,5.87-.1-.17-.18-.35-.27-.53-2.22-1.61-4.41-3.34-6.39-5.34Zm-6.28-45.9c-.18,1.16-.3,2.35-.46,3.52l.7-1.26c-.07-.76-.19-1.52-.24-2.26Zm-2.15,14.55c.04,4.06,.68,8.04,2.16,10.54-.13-2.57-.9-5.7-.82-8.76,.46-1.35,.89-3.38,1.64-3.21,.95,4.27,1.46,7.96,2.29,11.61,.82,3.63,1.91,7.27,4.08,10.77,.53,.88,1.19,1.89,1.58,2.82,.47,.88,.73,1.65,.53,2.01-.98-1-.9,.21-1.84-.56,1.12,1.09,1.7,.77,2.29,.65,.57-.11,1.15-.05,2.33,1.68l-2.35,1.16c.81-.08,1.36,.18,1.86,.58,.5,.4,.9,.98,1.31,1.63,.39,.66,.86,1.32,1.42,1.91,.49,.5,1.03,.96,1.74,1.2,.02,.1,.05,.19,.07,.29,.03,.15,.07,.28,.1,.42-.18,.19-.49,.21-.93,.07-.71-.25-1.63-.94-2.55-1.77,.85,1.14,1.59,1.48,2.29,1.73,.43,.13,.86,.22,1.3,.43,.06,.24,.11,.48,.17,.71-.75,.08-1.49,.15-2.26,.21,1.44,0,2.17,.59,2.64,1.4,.17,.81,.3,1.6,.37,2.31,.11,.78,.14,1.49,.04,2.09,2.99,2.2,.03-.49,1.05-1.09,2.53,2.34,3.58,3.71,4.11,5.12,.18,.5,.32,.97,.46,1.44-1.78-.65-3.36-1.35-4.34-1.64,.96,.49,1.9,1.02,2.87,1.46l1.65,.74c.23,.7,.52,1.42,1.03,2.23,2.95,2.02-.34-1.17-.12-1.83l.36,.16c-.37,.27,.38,1.16,.85,1.78,.47,.63,.61,1.12-1.11,.72,1.35,.9,2.85,1.72,4.4,2.5,1.29,.57,2.64,1.08,3.99,1.57-.12-.03-.23-.05-.32-.05,.56,.19,1.14,.44,1.74,.72,.6,.29,1.22,.61,1.9,.89,1.34,.6,2.73,1.37,4.22,2.11,1.5,.7,3.07,1.42,4.66,2.16,1.62,.63,3.26,1.27,4.87,1.87l1.53-5.36c.15,.07,.3,.14,.44,.21l1.75-6.14c-.15-.09-.29-.17-.43-.25l1.48-5.17c-1.12-.3-2.21-.57-3.27-.8-2.89-1.18-6.27-2.62-9.7-4.22,.05-.03,.1-.05,.16-.08-.16-.02-.33-.05-.49-.07-.54-.26-1.08-.51-1.63-.78-.88-.44-1.74-.91-2.59-1.39-.2-.16-.4-.32-.59-.49-1.75-1.4-3.31-3.11-4.89-4.36l1.17-.57c-.59-.16-1.15-.63-1.7-1.23-.27-.31-.57-.62-.8-1-.23-.38-.47-.76-.7-1.15-1-1.51-1.75-3.11-3-3.51l.34-.49c-1.08-.99-2.08-2.09-3.13-3.21-.4-1.89,1.64-1.82,1.08-1.81-.81-1.87-1.22-3.67-1.57-5.27-.1-.82-.17-1.6-.2-2.34-.01-.37-.01-.73,0-1.08,.03-.35,.09-.7,.15-1.03-.86-.26-1.55-1.48-1.93-3.12-.17-.82-.3-1.74-.4-2.68-.08-.94-.04-1.9-.04-2.8,1.26-8.58,3.87-17.23,8.01-25.14,2.06-3.94,4.4-7.77,7.13-11.22,2.72-3.46,5.7-6.66,8.88-9.48,1.02-.74,2.03-1.93,3.09-3.31,.65-.78,1.34-1.58,2.06-2.35,.85,0,1.7,0,2.56,0,1.2-.32,.21-.9-1.11-1.45,.02-.02,.04-.04,.06-.06-.04,.01-.06,.03-.1,.04-.3-.12-.61-.24-.91-.35-.38,.43-.75,.88-1.12,1.33-.62,.35-1.1,.69-1.56,1.03-.88,.68-1.66,1.47-3.33,2.52-1.38,.6-2.48,.81-3.67,.87-1.17,.07-2.39,.05-3.75,.51l1.94,.26c-1.2,1.79-1.85,2.09-2.42,2.36-.56,.27-1.04,.49-1.68,2.17l-1.52-1.79c0,.85-.69,1.59-1.55,2.19-.86,.6-1.81,1.13-2.45,1.38l.49,1.88c-1.23,.66-2.12,1.34-2.96,1.78-.84,.44-1.6,.67-2.44,.56l1.35,.68c-.73,.08-2.12,2.25-3.4,3.86-1.21,1.65-2.29,2.83-2.56,.79-.11,.87,.17,1.85-.82,3.27l-1.42-.47c-.41,1.22-.86,2.49-1.34,3.49-.46,1.01-.91,1.78-1.44,1.95,.22-1.4-.2-2.12-.58-2.81-1.17,2.49-1.5,4.01-1.42,4.98,.12,.99,.62,1.43,1.14,1.84,.52,.41,1.07,.79,1.31,1.6,.24,.81,.13,2.04-.42,4.25l-.9-.36,.36,2.5-1.69,2.13c.63,.98,.75,2.23,.72,3.68-.03,.72-.12,1.49-.25,2.29-.13,.8-.21,1.65-.36,2.51-.59,3.43-.89,7.31,.2,10,.19,1.07,0,2.36-.22,3.94-.05,.39-.11,.81-.13,1.23,0,.31,0,.64,.01,.96-.07-.12-.14-.25-.22-.37-.36-.66-.78-1.25-1.05-1.77-.28-.52-.5-.94-.58-1.18,.4-.89,1.25,.43,1.77,.55-.74-1.1-1.45-1.49-2.07-2.04-.32-.27-.64-.56-.95-1-.27-.45-.53-1.04-.77-1.88l.39-.16c-2.04-3.76-2.93-8.78-2.79-14.12,.05-2.71,.31-5.36,.64-8.46l.11-1.18c.02-.15-.03-.23,.02-.46,.04-.38,.14-.86,.26-1.36,.24-1.01,.66-2.15,1.07-3.27-.4,.53-.58,.23-.98,.31,1.06-2.33,2.58-4.73,4.28-7.04,1.71-2.3,3.63-4.51,5.6-6.6,3.95-4.19,8.14-7.81,11.67-11.37-2.83,1.46-6.87,3.07-10.53,5.51-3.66,2.4-6.86,5.6-7.97,8.93-1.2,.53-2.09,1.8-2.85,2.91-.76,1.12-1.39,2.08-2.33,2.07-1.43,1.85-2.35,3.65-2.92,5.34-.28,.85-.47,1.67-.59,2.46-.04,.39-.08,.78-.09,1.15,.01,.39,.02,.77,.03,1.15,.1,3.46,.22,6.63,.02,10.99-.34,1.24-1.07,.6-1.83,.94-.16-2.38-.18-4.79-.1-7.21-.39,1.43-.78,2.87-1.09,4.32-.58-1.98,.58-6.58-.69-7.32,.31,3.29-.13,7.44-.04,11.51Zm35.56,55.41c.56,.18,1.13,.33,1.69,.49-.14,.42-1.13-.21-2.01-.6,.11,.04,.21,.08,.32,.12Zm-19.16-34.14c-.05,.26-.07,.56-.08,.9-.06-.03-.12-.06-.18-.1-.04-.19-.11-.4-.18-.6l.43-.2Zm22.38-67.77c-2.52,.52-1.45,1.57-.36,1.64,.01-.55,1.49-1.51,.36-1.64Zm5.68-1.63c-.62,.41-1.24,.79-1.83,1.24,.88-.5,1.8-.88,2.72-1.33,1.66,.31,1.58,.86,.98,1.33-.6,.48-1.72,1.01-2.27,1.25,2.46-.58,2.9-1.13,2.77-1.78-.12-.64-.83-1.31-.45-1.89-.66,.36-1.29,.79-1.92,1.19Zm106.49-20.93c-.28-.26-.57-.54-.92-.88,.26,.3,.46,.55,.77,.88,.11,.07,.1,0,.15,0Zm-.65-4.67l.64,1.19c.93,.71,1.87,1.72,2.7,2.83,.82,1.11,1.63,2.25,2.46,3.11l-2.8-3.65-3-3.48Zm1.72,5.36c-.08-.42-.81-1.57-2.53-3.97,.84,1.56,1.92,3.31,1.47,3.28,.72,.68,1.15,1.1,1.06,.69Zm-88.66,175.47c-.84,.08-1.74,.16-2.76,.26-1.02,.08-2.17,.07-3.53,.03l1.72,1.24c1.63-.13,3.28-.42,4.91-.63,1.63-.24,3.26-.42,4.89-.77-2.04-.27-3.53-.3-5.22-.13Zm84.99-46.67c4.08-5.15,7.95-10.47,11.48-16.02l-.89,.91c-3.27,5.21-6.84,10.23-10.59,15.11Zm-183.52-12.79c.32-.15,.18-1.23-.17-2.41-.64-.1-2.82-3.3-2.11-.92,1.18,2.69,1.99,3.47,2.29,3.33Zm-7.66-19.81c.81,1.32,2.04,3.8,2.62,5.03-2.1-5.52-2.83-6.45-3.43-6.11-.58,.33-.89,1.93-1.67,1.15,.69,1.41,1.52,2.77,2.29,4.13,.75,1.37,1.62,2.68,2.45,3.99-.53-.97-1.08-1.94-1.59-2.93l-1.47-3.01c-.62-3.67,.01-3.57,.8-2.25Zm-6.38-18.25c-.17,1.17-.21,3.25-.26,5.18,.79,1.04,1.61,2.06,2.42,3.06-.57-2.67-.92-5.37-1.3-8.07-.41-1.62-.67-1.34-.85-.17Zm-54.76,14.47c.8,1.62,1.65,3.23,2.5,4.82-.64-4.03-1.08-8.09-1.51-12.15-.89-4.92-1.08,1.63-.99,7.33ZM212.72,82.28c.81,.06,1.56,.1,2.28,.13,.72,.03,1.39,.12,2.07,.16-6.23-2.18-6.69-.94-10.3-.82,1.22,.12,2.3,.21,3.28,.27,.98,.1,1.86,.19,2.67,.25Zm21.93,5.2c1.02,.36,1.78,.67,2.36,.9,.59,.22,1,.35,1.28,.4,.56,.11,.59-.06,.46-.34-.27-.55-1.23-1.49,.07-1.27-.75-.06-1.46-.17-2.13-.32-.67-.15-1.31-.28-1.87-.45-1.14-.33-2.03-.72-2.55-.95-1.05-.47-.56-.34,2.38,2.03Zm166.95,112.08c-.53-2.98-1.29-5.93-2.36-8.77-1.08-2.84-2.49-5.56-4.21-7.99,1.66,2.98,3.04,6.92,2.26,6.49-1.23-2.64-2.34-4.46-3.18-5.81-.86-1.33-1.4-2.22-1.78-2.87-.73-1.33-.65-1.8-1.32-2.94-1.77-1.5-3.21-2.35-4.38-2.86-1.16-.53-2.06-.73-2.85-.86-1.6-.23-2.82-.17-5.33-.6-3.76-1.84-6.9-2.69-9.54-3.35-2.65-.63-4.85-.99-6.95-1.33-4.3-.65-8.32-.99-14.79-2.19l.73,1.52c-4.6-.81-7.2-.81-9.93-.78-1.35-.03-2.74-.05-4.39-.2-1.64-.18-3.52-.62-5.88-1.28-.45-.43,3.28-.03,6.27,.11-2.15-.2-3.67-.58-4.91-.89-1.24-.3-2.15-.71-3.04-1.11-1.79-.81-3.57-1.45-7.53-2.62l3.34,.3c1.1,.09,2.24,.04,3.34,.07-.78-.19-1.61-.4-2.46-.61-.83-.24-1.67-.54-2.5-.81-.83-.27-1.64-.54-2.41-.8l-1.12-.38c-.35-.14-.68-.3-.99-.45-2.51-1.17-3.8-1.98-2-1.96-2.77-.63-5.78-2.13-9.11-3.71-1.61-.9-3.24-1.94-4.93-2.98-.42-.26-.85-.53-1.27-.79-.43-.26-.85-.54-1.25-.86-.81-.62-1.63-1.24-2.46-1.87-.83-.63-1.66-1.26-2.49-1.89l-1.25-.95-1.18-1.05c-1.57-1.4-3.14-2.8-4.68-4.18-.39-.34-.78-.68-1.16-1.02-.36-.37-.72-.74-1.08-1.1-.72-.73-1.43-1.44-2.13-2.15-1.41-1.4-2.79-2.75-4.13-4.02l1.63-.13c-.81-.54-1.61-1.36-2.51-2.3-.89-.94-1.85-2.02-2.86-3.19-1.01-1.17-2.04-2.42-3.12-3.74-1.15-1.43-2.33-2.9-3.51-4.36-2.45-2.84-4.97-5.6-7.43-7.74-.6-.54-1.18-1.07-1.76-1.54-.59-.45-1.16-.88-1.71-1.26-1.09-.77-2.06-1.38-2.89-1.79-.2-.4-.42-.77-.64-1.16-4.67-3.05-9.67-5.53-14.75-7.6-1.64-.87-2.68-1.55-3.34-2.09-.66-.52-.95-.88-1.03-1.16-.17-.55,.42-.68,.03-.55-7.69-3.17-14.96-4.89-21.55-5.81-6.6-.91-12.54-1.04-17.9-.92-.63,.51-2.19,.92-4.33,1.57-2.15,.57-4.89,1.31-7.92,2.22-6.06,1.82-13.2,4.7-19.09,8.07-7.21,3.82-13.95,8.85-19.53,15.14-.73,.75-1.36,1.6-2.03,2.42-.66,.82-1.33,1.64-1.92,2.52-.6,.86-1.23,1.75-1.79,2.6l-1.62,2.55c-2.17,3.39-4.27,6.82-6.38,10.24-4.21,6.83-8.32,13.71-12.87,20.1-4.55,6.38-9.64,12.22-15.75,16.73-6.06,4.58-13.19,7.59-20.59,9.65-1.87,.46-3.74,.92-5.61,1.37-1.94,.44-3.92,.87-5.85,1.42-3.88,1.06-7.7,2.4-11.32,4.21-3.62,1.79-6.99,4.21-9.76,7.16-2.79,2.95-4.78,6.52-6.16,10.16-1.36,3.67-2.08,7.46-2.51,11.2-.42,3.74-.53,7.46-.5,11.12-.17,8.81,2.55,20.7,4.34,31.45-.37-6.66-.73-10.27-1.12-13.87-.37-3.59-.81-7.16-.88-13.66,.21-4.88,.96-8.18,1.88-11.18,.95-2.99,2.03-5.75,3.57-9.21-.42,.53-.81,1.11-1.18,1.69-.38,.58-.78,1.17-1.12,1.8,.05-.79,.17-1.48,.27-2.13,.09-.65,.2-1.24,.33-1.77,.13-.53,.25-1.01,.35-1.46,.14-.43,.28-.81,.4-1.17,.24-.72,.5-1.27,.75-1.75,.25-.47,.44-.89,.69-1.25,.48-.72,.86-1.41,1.46-2.37,.14-.25,.29-.52,.45-.82,.18-.28,.37-.6,.57-.95,.38-.72,.94-1.5,1.59-2.5,.47,.63,.94,1.25,1.44,1.88,.58-1.49,2.61-3.4,5.14-4.68,2.5-1.32,5.4-2.05,7.1-2.35,.79-.85,1.63-1.69,2.51-2.53,.98-.16,1.92-.31,2.82-.45,.91-.11,1.77-.22,2.59-.33,1.7-.14,3.22-.27,4.56-.38,2.9-.26,5.09-.21,6.61,.11-.41-.4-.82-.78-1.22-1.2,.87,.02,3.38-.64,6.51-1.5,1.55-.54,3.24-1.19,4.96-1.83,.87-.29,1.7-.72,2.54-1.11,.84-.4,1.66-.79,2.46-1.16,6.33-3.19,10.71-6.47,6.94-2.04,2.04-1.93,3.69-3.9,8.14-7.8,.15,.04,.3,.08,.45,.11-6.05,8.79-10.59,18.39-13.79,28.1-3.26,9.98-5.17,20.09-5.7,29.86-.16,1.45-.12,3.06-.07,4.75,.12,1.7,.28,3.48,.56,5.29,.5,3.63,1.38,7.37,2.07,10.86-.13-4.35-.3-6.71-.46-9.08-.15-2.36-.35-4.73,0-9.02,.22-1.6,.59-2.93,.98-4.11,.37-1.18,.83-2.2,1.31-3.17,.92-1.96,2-3.75,3.07-6.29-.67,.8-1.3,1.61-1.96,2.43,.09-2.17,.33-3.61,.56-4.66,.24-1.04,.46-1.7,.7-2.29,.24-.59,.45-1.13,.62-1.95,.16-.83,.31-1.94,.46-3.68l2.17,.94c-.55-2.65,2.42-7.98,3.9-9.99l-.65-2.65c2.94-4.61,4.91-7.5,6.97-8.22l-1.56-.25c.45-.33,1.27-1.62,2.27-3.25,.51-.8,1.08-1.69,1.65-2.59,.57-.9,1.21-1.77,1.79-2.6,2.4-3.28,4.47-5.43,3.68-2.18,.3-.71,.49-1.47,.91-2.33,.43-.86,.98-1.93,2.13-3.13l1.46,.57c2.69-3.86,6.26-7.77,7.85-8.01-.82,.96-1.24,1.74-1.47,2.39-.24,.65-.3,1.17-.36,1.68,3.42-3.4,5.33-5.2,6.25-6.55,.9-1.35,.93-2.05,.84-2.8-.08-.73-.21-1.43,.57-2.63,.81-1.14,2.54-2.84,6.41-5.09l.29,.93c1.16-.97,2.31-2.03,3.54-2.96,1.62-.29,3.19-.61,4.8-.76,1.13-1.36,3.33-2.54,6.06-3.57,2.74-1,6.02-1.86,9.5-2.5,3.46-.69,7.11-1.15,10.55-1.66,1.73-.2,3.4-.48,5-.73,1.59-.23,3.09-.55,4.47-.87,1.09-.15,2.29-.16,3.59-.11,1.3,.07,2.71,.24,4.23,.39,1.52,.16,3.16,.4,4.93,.52,1.77,.19,3.68,.29,5.74,.35l-.47-1.51c3.33,.91,11.21,2.07,18.61,4.5,1.84,.62,3.68,1.21,5.39,1.94,.86,.35,1.7,.69,2.5,1.05,.79,.38,1.55,.76,2.28,1.14,1.46,.72,2.71,1.53,3.75,2.27,1.04,.74,1.87,1.44,2.38,2.13,5.91,1.15-.46-.52,.08-1.57,1.42,.37,2.68,.73,3.78,1.09,1.08,.41,2.02,.8,2.84,1.19,1.67,.74,2.77,1.61,3.74,2.37,.97,.76,1.69,1.57,2.47,2.4,.78,.84,1.66,1.65,2.75,2.68,3.11,1.61,2.09,.77,.73-.35-1.32-1.16-3.11-2.42-1.17-1.94,2.12,1.74,3.72,2.76,4.99,3.63,1.28,.85,2.42,1.32,3.51,1.97,.56,.31,1.14,.64,1.77,1.03,.63,.38,1.32,.83,2.03,1.44,.73,.6,1.53,1.31,2.44,2.18,.87,.91,1.81,2.02,2.89,3.31,.29,1.54-2.8-2.15-4.18-2.69,3.88,2.72,8.54,7.76,12.47,14.03,4.22,6.72,8.41,14.28,11.96,20.84,3.4,7.83,7.38,17.55,8.83,27.33,1.56,9.79,.04,19.34-3.78,27.33l.38,.49c-1.96,3.2-3.61,6.69-5.67,10.36-2.03,3.67-4.37,7.5-7.4,11.12l3.31-3.29c-.7,1.39-1.38,2.59-2.06,3.69-.71,1.08-1.42,2.06-2.14,3.02-.7,.97-1.48,1.89-2.25,2.89-.77,1-1.58,2.07-2.48,3.28l-3.33,1.55c-3.93,5.1-.92,2.97-3.47,7-.59,.47-1.22,1.03-1.88,1.65-.69,.59-1.42,1.24-2.15,1.93-1.47,1.39-3,2.93-4.44,4.44-3.03,2.79-5.67,5.46-6.76,6.29-.97,.3-.66-.25-.06-.99,.57-.79,1.42-1.78,1.62-2.25-.65,.66-1.19,1.25-1.67,1.79-.48,.52-.9,.98-1.29,1.4-.76,.85-1.33,1.59-1.96,2.36-.63,.77-1.32,1.56-2.3,2.51-1.03,.87-2.37,1.88-4.26,3.15l-.35-.27c-8.43,6.94-19.71,12.22-32.17,14.79-1.57,.29-3.14,.58-4.72,.88-1.61,.2-3.21,.41-4.82,.61-1.6,.24-3.25,.3-4.88,.44-1.63,.13-3.26,.26-4.92,.29-1.65,.05-3.29,.14-4.94,.17-1.66,.02-3.31,.03-4.95,.05-1.64,.03-3.3-.02-4.94-.02-.82,0-1.64,0-2.45,0-.74-.02-1.48-.04-2.22-.06,1.57,.22,1.15,.51,1.75,.88-.61-.03-1.23-.07-1.85-.12-1.13-.15-2.27-.31-3.4-.49-1.25-.22-2.51-.45-3.77-.68-1.23-.29-2.47-.58-3.71-.87-1.26-.26-2.43-.67-3.64-1.02l-1.81-.54-1.72-.66-2.73-1.05c-5.15-2.17-10.17-4.79-14.87-7.78-5.74-3.63-11.11-7.64-15.93-11.77-4.83-4.11-9.18-8.27-13.1-12.13,4.45,5.9,10.65,13.81,18.21,20.49,2.73,2.44,5.64,4.68,8.59,6.64-4.57-.65-9.1-.92-13.54-1-5.53-.09-10.94,.15-16.18,.64-5.24,.48-10.33,1.12-15.22,1.93-4.88,.79-9.6,1.7-14.04,2.63-3.9,.82-7.96,.39-11.59-1.1,2.36,1.21,5.11,2.13,8.12,2.39,.75,0,1.52,.08,2.29,.02,.77-.06,1.54-.09,2.42-.21,1.7-.19,3.44-.38,5.21-.58,7.08-.74,14.69-1.4,22.33-1.69,7.64-.3,15.31-.29,22.52,.19,6.59,.43,12.77,1.26,18.25,2.43,.95,.38,1.89,.71,2.8,.99,1.61,.82,3.37,1.61,5.05,2.31,.28,.13,.55,.25,.83,.38,.32,.12,.64,.24,.95,.36h.01c1.2,.45,2.42,.89,3.6,1.2,.74,.22,1.46,.44,2.14,.64,.68,.19,1.32,.37,1.89,.56,1.14,.4,2.03,.81,2.52,1.29,3.31,.84,6.36,1.21,9.23,1.37,6.33,.88,12.01,1.1,17.21,.91,.37-.01,.73-.03,1.09-.05l-4.16,.53,4.06-.09,2.03-.05,2.02-.13c-.91-.11-1.82-.19-2.73-.33,5.38-.3,10.32-.89,15.12-1.91l2.06-.4,2.03-.51c1.35-.35,2.72-.66,4.08-1.05,.27-.09,.55-.17,.83-.26,.07,.1,.16,.19,.31,.27l-3.96,1.1c-1.33,.34-2.68,.57-4.02,.87-2.68,.63-5.42,.96-8.15,1.38l5.06-.21c1.68-.13,3.36-.32,5.04-.48-.46,.15-1.01,.3-1.61,.45l-1.38,.3-1.42,.31c-1.54,.27-3.21,.45-4.79,.69-1.68,.27-3.26,.43-4.5,.65-1.24,.22-2.13,.5-2.42,.86,7.29-1.08,16.75-2.2,25.64-4.85,1.1-.35,2.2-.7,3.29-1.05,1.08-.37,2.18-.66,3.21-1.12,2.07-.87,4.11-1.67,6-2.58,1.34-.71,2.6-1.4,3.83-2.09,.47-.23,.94-.46,1.41-.7-1.35,.96-3.27,2.1-5.42,3.34-.27,.15-.54,.32-.82,.46-.29,.13-.58,.26-.87,.39-.58,.26-1.17,.53-1.77,.8-1.19,.53-2.37,1.11-3.59,1.5-1.2,.44-2.36,.87-3.44,1.28-1.08,.42-2.12,.69-3,1.02-1.78,.61-3.04,1.21-3.43,1.62,5.3-1.66,11.36-3.64,17.32-6.78,1.46-.82,2.93-1.66,4.42-2.5,.73-.42,1.46-.84,2.19-1.26,.75-.39,1.53-.74,2.29-1.11l1.16-.55,1.19-.48,2.39-.95c1.63-.54,3.25-1.14,4.91-1.59,6.61-1.92,13.34-3.1,19.55-4.01,6.22-.91,11.94-1.56,16.69-2.29-8.98,.08-20.17,1.38-30.62,3.53-2.35,.24-5.31,.79-7.65,1.23-1.94,.41-3.46,.66-3.86,.49,.15,.24,.2,.55,.82,.65-1.97,.8-3.95,1.57-5.84,2.57-1.92,.87-3.74,2.11-5.54,3.11l-.06,.04c-.49,.24-.98,.47-1.47,.72-1.53,.81-3.18,1.43-4.82,2.08-1.65,.64-3.28,1.35-4.98,1.77-1.53,.24-3.47,.54-5,.78-.5,.03-.95,.05-1.34,.05,.76-.24,1.52-.48,2.3-.72,.7-.2,1.38-.45,2.06-.73,.68-.26,1.37-.53,2.07-.79,.69-.27,1.41-.51,2.11-.82,.69-.32,1.38-.65,2.08-.98,.7-.32,1.42-.65,2.14-.99,.71-.36,1.38-.79,2.09-1.18,1.49-.85,3.03-1.73,4.62-2.63,.43-.24,.85-.5,1.29-.72,.45-.21,.9-.42,1.35-.64,.91-.41,1.83-.9,2.79-1.25,2.31-.73,2.94-.69,3.21-.45,0,0,0-.01,0-.02,7.23-3.09,14.54-4.87,21.69-6.09,7.16-1.18,14.21-1.8,21.26-2.16,14.1-.73,28.25-.42,43.75-.78,3.89-.09,8.44-.16,12.17-.15,3.73,0,6.64,.04,7.29,.38-5.02,.49-1.18,.95-5.32,1.46,5.45-.53,5.67-1.25,6.5-1.86,.42-.31,.98-.59,2.41-.85,1.4-.31,3.7-.53,7.38-1.05-.48,.96-.99,1.91-1.54,2.83,.73-.42,1.54-.82,2.44-1.16,.45-.17,.93-.31,1.41-.47,.48-.17,.97-.32,1.49-.47,1.06-.26,2.07-.64,3.19-.93,.49-.2,.98-.4,1.5-.58l.39-.14,.36-.2c.25-.13,.49-.26,.74-.39,1.98-1.08,3.86-2.76,5.29-4.93,1.46-2.15,2.4-4.77,2.8-7.4,1.06-1.66,1.22-.82,.79,1.53-.52,2.26-1.79,6.05-4.47,9.09,.44-.37,.73-.84,1.07-1.23,.31-.41,.65-.77,.87-1.18,.46-.81,.94-1.49,1.2-2.21,.29-.71,.56-1.34,.75-1.95,.17-.63,.32-1.21,.46-1.78,.48-2.31,.76-4.38,1.47-8.13l.19,1.89c.05,.63,.07,1.25,.11,1.89,.09,1.28,.05,2.54,.04,3.84,.3-4.27,1.04-7.8,1.94-11.02,.87-3.2,1.91-5.99,2.4-8.37-.25-.3-.85,.64-1.31,.32-.47-.31-.69-1.84-.5-7.08,.35-4.51,.87-2.19,1.19-3.25-.55-.59-1.48-4.37-1.7-11.32,.7-1.29,1.2,4.6,1.94,5.05-.12-5.26-.4-9.54,.08-13.38-.92-9.28-1.04,.64-2.02-5.03,.08-14.31,2.49-1.5,3.89-6.81,.67,5.34,1.25,11.48,1.69,17.02,.44,5.55,.74,10.5,1.01,13.44-.18-7-.6-13.92-1.03-20.8,.9,1.2,1.03-13.97,2.21-3.14,.08-10.28-.36-21.46,.19-32.2,.29-5.96,.19-12.02-.88-18Zm-131.91-53.45c-5.27-3.31-11.08-6.25-16.17-7.93l1.16-.88c-1.42-.24-3.34-.75-5.45-1.51-1.06-.35-2.19-.72-3.35-1.11-.58-.2-1.16-.4-1.75-.6l-1.79-.54c-3.94-1.25-7.89-2.11-10.56-2.13l-.29-.17c-.43,.07-.85,.13-1.28,.17l-.6-.6c-1.84-.07-3.67-.06-5.49-.09l-5.45,.14c-4.81-.62-3.01-2.39-3.45-1.89-5.38-.26-10.17-.34-14.47-.26-2.15-.02-4.18,.09-6.11,.06-1.93,.04-3.75,.06-5.49,.02-.79,.97-3.97,1.76-7.99,2.71-4.03,.95-8.92,1.98-13.2,3.17-5.23,1.13-10.42,2.56-15.58,4.48-5.19,1.95-10.18,4.52-14.83,7.6-1.72,1.13-3.37,2.36-4.98,3.62,.27-.54,.5-1.02,.7-1.46,1.04-2.5,.92-3.47,.73-4.34-.39-1.73-1.06-3.16,6.44-15.39l.64,.79,3-6.66c.84-.84,1.64-1.69,2.48-2.5,.89-.78,1.74-1.56,2.62-2.31,.94-2.25,3-5.19,6.2-7.96,3.16-2.8,7.31-5.53,11.93-7.75,4.62-2.24,9.68-3.98,14.58-5.23,4.9-1.25,9.61-2.07,13.65-2.77,.8-.12,1.63-.1,2.5-.11,.87,.02,1.77,0,2.71,.1,1.88,.2,3.89,.42,6.05,.88,4.33,.84,9.22,2.09,14.91,3.84l-.29-1.67c1.1,.6,2.6,1.28,4.35,2.12,1.72,.94,3.75,1.9,5.83,3.21,4.21,2.51,8.85,5.84,12.96,9.75,4.11,3.91,7.67,8.33,10.33,12.31,.63,1.03,1.22,2.02,1.76,2.96,.56,.99,1.08,1.92,1.57,2.77,1.05,1.88,1.86,3.51,2.34,4.79,7.44,7.4-.45-1.06,.61-1.6,1.74,1.85,3.24,3.51,4.56,5,1.41,1.43,2.65,2.7,3.71,3.87,1.07,1.17,1.99,2.22,2.79,3.21,.4,.5,.77,.97,1.14,1.42,.38,.44,.74,.86,1.1,1.27,.2,.23,.38,.46,.57,.69-1.71-1.17-3.5-2.36-5.35-3.52Zm116.39,70.44c-.87,9.21-.94,18.24-.95,26.92,0,8.67,.08,17-.15,24.63l.54,.56c-.61,6.34-.69,12.82-1.19,19.17-.27,3.16-.64,6.29-1.28,9.19-.63,2.88-1.6,5.55-2.81,7.34,.91-1.12,1.85-2.55,2.63-4.33-.31,1.93-.84,3.34-1.34,4.59-.3,.53-.56,1.11-.86,1.55-.32,.39-.57,.9-.91,1.17-.16,.16-.31,.33-.45,.5l-.49,.38c-.29,.31-.67,.45-1.01,.7-.15,.15-.39,.18-.58,.29-.23,.09-.35,.2-.67,.32-.35,.12-.71,.24-1.08,.37-.19,.06-.36,.14-.56,.2-.22,.06-.44,.12-.66,.18-1.41-.17-2.97-.44-4.48-.72-1.09,.2-1.96,.39-2.68,.55-.74,.14-1.31,.28-1.77,.4-.9,.25-1.31,.47-1.66,.67-.71,.4-1.03,.87-4.54,1.46-4.45-.25-11.48-.14-18.04-.04-6.55,.1-12.59,.28-14.8,.25-3.07-.72,3.83-.98,5.32-1.41-5.99,.25-8.8,.75-11.97,1.19-3.18,.46-6.71,.82-14.28,1.01l-.26-.41c-9.05,.8-18.77,1.67-28.96,3.3-4.73,.79-9.56,1.76-14.46,3.07,3.71-2.85,7.35-6.02,10.95-9.6,1.74-1.85,3.84-3.96,5.66-5.62,.93-.81,1.7-1.6,2.35-2.15,.65-.55,1.15-.89,1.43-.92-2.06,2.66,.08,1.2-1.51,3.49,4.39-5.82-1.44-2.35,5.7-9.9l1.07,2.69c.33-2.47,2.51-4.81,4.94-7.49,2.47-2.64,5.18-5.67,6.65-9.15,2.32-1.65,.14,2.83-3.33,7.45,2.17-2.46,2.99-4.08,3.66-5.58,.7-1.48,1.16-2.9,2.6-5.04-.29,1.75-.56,3.55-.92,5.32,.71-2.9,2.17-4.89,3.67-6.55,1.55-1.62,3.14-2.91,4.24-4.15-.14-.29-.94,.01-1.26-.37-.16-.19-.19-.55,0-1.25,.19-.7,.61-1.74,1.42-3.27,1.47-2.59,1.35-.98,1.92-1.5-.34-.58-.15-3.23,1.19-7.53,.48-.28,.51,.52,.49,1.47,0,.96-.16,2.02,.15,2.3,.65-1.63,1.02-3.18,1.53-4.56,.44-1.4,.89-2.68,1.49-3.85,.32-3.13,.04-3.06-.32-2.72-.36,.34-.8,.95-.83-.94,.95-4.55,1.45-4.78,2.21-4.19,.72,.57,1.5,2,2.42,.25,.17,3.78-.29,8.15-1.11,11.97-.85,3.81-1.89,7.14-2.45,9.1,1.74-4.54,3.1-9.27,3.89-14.11,.31,.52,1.25-1.84,1.79-3.44,.59-1.58,1.07-2.36,.91,1.69,.81-3.72,1.23-7.75,1.2-11.85-.03-4.11-.61-8.25-1.48-12.25-1.41-6.44-3.73-12.37-6.16-17.63,.37,.11,.72,.28,1.07,.47,.75,.4,1.53,.82,2.28,.7l-.45,1.23c.56-.56,1.16-.27,1.77,.02,.63,.2,1.25,.42,1.62-.48l.06,.56c.5-.47,.93-.91,1.33-1.44,.56,.26,.48,2.19,.49,1.66,.67-.06,1.26-.15,1.8-.11,.54-.02,1.05,.15,1.58,.4-.11-.86,.14-1.44,.5-1.84,.35-.46,.85-.7,1.27-.98,2.53-.23,4.72-2.06,5.72-4.32,1.05-2.26,1-4.84,.29-6.8,0-.28-.44-.68-1-1.04-.58-.36-1.25-.68-1.65-.95-.46,.65,.44,.72,.34,1.41-.49,.44-2.31,.25-3.42,.24,.48,.08,.96,.14,1.44,.2,.52,.42,.3,.48,.12,.5-.18,.04-.31,.05,.32,.51l-2.22-.8c1.12,.53,.04,.51-.55,.35,.48,.26,.96,.52,1.44,.8-.95-.1-1.36-.13-2.67-.82l1.3,.73c-.84-.38-.42,.93-2.31-.82,.24,.24,.82,.76,.6,.76l-1.16-.94c.2,.33,.29,.69-.34,.11-.2-.3-.67-.77-1.14-1.23-.16,0,.63,.9,1.44,1.88,.81,.97,1.66,1.98,1.29,2.32l-.56-.78c.14,.31,.27,.62,.39,.95-.3-.29-.59-.59-.86-.9,.73,1.44,.3,1.56-.17,1.41-.49-.14-.95-.53-1.04,.28-.22,.24-.85-1.54-1.13-1.42l.15,1.34c-.25-.71-.65-1.37-.86-2.23-.22-.86-.22-1.86,.11-3.19-.28,.84-.06,.24-.28,1.15-.25,.52-.3,.29-.2-.09,.09-.39,.3-.96,.43-1.27-.28,.44-.13,.42-.49,1.14,.1-.45-.06-.17-.27,.06-.2,.25-.45,.44-.36,0,.33-.46,.28-.23,.51-.52-.34,.35-.51,.24-.58,.07-.07-.18-.06-.42-.17-.56,.45-.61,.76-1.04,1.47-.74l-.28-.15c.36,.17,.36,.2,.33,.17-.03-.02-.07-.07-.04-.05-.09-.1-.19-.2-.29-.28-.39-.48-.11-.24-.23-.51,.21,.28,.41,.57,.6,.87-.18-.31-.47-.79-.7-1.35,.37,.57,.21-.15,.29-.15,.17,.53,.19,.77,.29,1.09-.09-.41-.36-1.58-.18-1.7l.05,.34c.04-1.01,.45-1.55,.92-1.86,.49-.31,1.01-.45,1.82-.85-.03-.1,.14-.37,.26-.66,.74,0,1.44,.26,2.36,.44,.94,.19,2.14,.29,4.18,.3-.43-.44-.35-1.41-.72-2.22-.32-.82-1.1-1.43-2.44-.72,.18-.54-.13-.64-.38-.7-.25-.07-.43-.16-.1-.87-.65-.68-1.54-.44-2.32,.03-.79,.44-1.46,1.08-2.14,1.17-.16-.22,.03-.93,.06-1.58,.23-.16,.48-.28,.73-.41,.25-.13,.51-.26,.78-.35-.24-.22-.49-.38-.76-.55,.54-.74,1.41-.18,1.97-1.5-1,.72-1.9,.77-2.78,1.08-.44,.11-.85,.35-1.22,.63-.36,.35-.67,.7-.87,1.24,.24,.03,.5-.08,.76-.24,.27-.14,.57-.28,.85-.32,.23,.39,.55,.66,.43,1.34-.84,1.08-1.31,1.53-1.82,1.85-.48,.33-.97,.61-1.32,1.26-.16,.34-.46,.54-.73,.13,.05-.34-.26-.59-.25-.97-.11,.81,.84,1.75,.39,2.03l-.9-1.57c.41,.92,.27,1.01,.03,1.08-.24,.05-.54,.15-.31,.73-.55-.29-.66-.88-.47-1.33-.43,.26,.19,.99,.03,1.3-.3-.42-.57-.86-.83-1.32,.35,.69,.25,.81-.04,.8-.14,0-.32-.04-.5-.08-.25-.09-.53-.2-.71-.23,.63,.49,1.34,.75,1.15,1.27-.21,.14-.45-.15-.63-.19,.27,.21,.68,.7,.64,1.05-.41-.12-.5-.52-.91-.78-.05,.34,.05,.63-.57,.64,.11,.2,.23,.32,.35,.4,.11,.07,.16,.07,.24,.09,.16,.02,.34,.03,.52,.25-.1,.16-.23,.23-.39,.24-.08,0-.17,0-.26-.03l-.15-.04c-.09-.03-.18-.06-.27-.09-.73-.24-1.56-.66-2.35-.66-.46-.6-.62-1.27-.74-1.9-.14-.64-.16-1.19-.3-1.61-.11,.73-.08,1.5-.08,2.21-.38-.21-.85-.02-1.23,.13-.39,.13-.77,.17-1.05-.6-.3,.54-.5,1.18-.62,1.84-.11,.67-.08,1.39,0,2.07,.2,1.39,.77,2.66,1.31,3.63,.23-.39,.35-.81,.88-.86,.66,.89-.39,1.07-.94,1.51,.78,.61,2.15-.04,3.26-.11-.42,.91-.34,1.35-.38,1.8-.03,.46-.14,.92-.53,2.07l1.14-1.03c-.28,.76,.04,.82,.38,.82,.36,0,.71-.07,.64,.62-.19,.29-.63,.3-1.04,.31,.79,.29-.45,1.65,.48,1.83-.24,.14-.49,.28-.74,.41-.24-.5-.48-1-.72-1.48,.13,.53,.29,1.09,.44,1.62-.16,.08-.33,.17-.49,.24,.22,.23,.52,.43,.72,.65,.06,.25,.11,.47,.15,.67-.06,.15-.18,.31-.4,.5-.45-.91-.81-1.67-1.09-2.31,.04,.02,.08,.04,.12,.07l.02-.32c-.09,.03-.16,.04-.23,.04-.53-1.25-.75-2.03-.82-2.58-.1-.9,.21-1.23,.19-2.01-1.37-2.24-2.38-3.01-3.28-3.56-.91-.55-1.78-.82-3-1.95-1.88-4.95-3.28-7.61-4.5-10.13-1.24-2.52-2.32-4.9-3.89-9.17l-.98,1.24c-1.09-3-2.43-4.45-3.72-5.88-.64-.73-1.34-1.42-2.11-2.31-.77-.89-1.53-2.02-2.46-3.51,.03-.53,1.96,1.37,3.53,2.91-1.04-1.18-1.71-2.1-2.2-2.9-.51-.78-.87-1.41-1.21-2.06-.7-1.27-1.34-2.61-3.71-4.62l2.3,1.22c.75,.43,1.48,.88,2.23,1.33-.97-1.19-2.22-2.42-3.36-3.57,4.5,3.57,7.51,4.96,10.64,6.56,2.15,.91,4.4,1.91,7.47,3.39,1.59,.65,3.38,1.41,5.46,2.35,.52,.23,1.06,.5,1.63,.72,.58,.22,1.18,.44,1.8,.68,1.24,.48,2.58,1,4.01,1.55,1.03,.8-.52,.42-2.66-.22-1.07-.32-2.29-.69-3.4-1.02-1.1-.36-2.07-.73-2.71-.85,2.05,.78,4.41,1.4,6.91,2.15,2.48,.83,5.23,1.38,8.09,2.08,5.73,1.21,12.13,2.24,18.6,2.64,3.22,.22,6.47,.38,9.61,.51,1.52,.07,3.05,.15,4.58,.22,1.46,.11,2.78,.21,4.23,.36,5.86,.67,11.17,1.75,15.11,3.56,4.42,2.38,7.51,5.7,9.27,11.37,.87,2.82,1.38,6.11,1.56,9.66,.18,3.56,0,7.36-.39,11.26Zm-71.63-6.9c.16-.03,.3-.03,.45-.04,.02,.32-.05,.5-.25,.45-.07-.15-.13-.27-.2-.41ZM48.49,292.42c-.68-2.13-1.22-3.82-1.64-5.16-.46-1.34-.78-2.32-1.08-3.02-.58-1.4-.96-1.67-1.25-1.48-.58,.38-.8,2.66-1.65,1.36,1.65,4.37,3.46,8.67,5.49,12.81-1.29-3.05-2.54-6.14-3.64-9.3-1.57-10.98,2.2,1,3.77,4.79Zm288.87-126.84c-.25-.1-.83-.24-1.84-.43-.51-.09-1.12-.19-1.85-.32-.73-.13-1.56-.34-2.52-.53,2.23,.77,5,1.23,4.56,1.54,1.34,0,2.15-.06,1.65-.26ZM53.33,308.9c-.67-.84-1.1-1.22-.52,.55,1.84,4.01,2.95,5.22,3.23,5.08,.32-.16-.08-1.67-.72-3.39-.36-.14-1.33-1.4-1.99-2.25ZM335.71,165.84c-.52,0-1.07,0-1.73-.02,.54,.04,.99,.09,1.6,.12,.16-.03,.08-.07,.13-.11Zm6.86-2.19c-2.01-.06-4.04-.11-6-.31l-2.98-.24-2.93-.41,1.66,.53c2.98-.12,7.12,.66,10.26,.43Zm-114.96,181.04l-1.93,.55c-.68,.15-1.39,.31-2.14,.47-.76,.15-1.57,.32-2.44,.49-.44,.08-.89,.16-1.36,.25-.48,.05-.97,.11-1.48,.17,.91,.3,1.83,.6,2.75,.83,2.43-.64,4.86-1.16,7.25-1.99l3.58-1.15,3.52-1.4c-1.54,.24-2.84,.55-4.08,.86-1.25,.26-2.42,.57-3.66,.92Zm27.35-17.23s-.06-.09-.1-.13c0,.06,.03,.1,.1,.13Zm137.36-18.65c-.25,.54-.45,1.1-.74,1.63-.59,1.05-1.12,2.13-1.86,3.1-.65,1.03-1.5,1.92-2.33,2.85-.43,.45-.92,.83-1.39,1.24l-.71,.61-.78,.52c-.53,.33-1.04,.71-1.59,1l-1.7,.81c-.57,.3-1.14,.45-1.71,.66-.57,.19-1.14,.42-1.72,.57-2.3,.66-4.61,1.19-6.92,1.58,2.47-.39,4.95-.95,7.41-1.65,2.43-.73,4.99-1.84,7.16-3.42,2.15-1.64,3.88-3.69,5.29-5.87,1.35-2.22,2.36-4.58,3.15-6.98l-.88,1.73c-.17,.56-.44,1.1-.67,1.65Zm-75.05-118.29c.04-.83,.21-1.66,.44-2.52-.3,.84-.53,1.66-.65,2.49l.2,.03Zm6.62,28.4c.5-2.27,1.14,.13,.3-2.05-.85,.3-.07,1.29-.3,2.05Zm2.03-2.63c.79,1.05,.64-.19,.89-.64-.47-.03-.67,.32-.89,.64Zm.78-29.45l.64-.46c-.25,0-.5-.04-.75-.03,.04,.15,.08,.33,.12,.49Zm1.51-3.58l.24-1.24c-.48,.16-.97,.43-1.42,.65,.17,1.05,.65,.18,1.19,.59Zm-13.76,22.94c.04-.4,.02-.77,.29-.99-.41,.04-.67,.2-.29,.99Zm.29-.99c.08,0,.16-.02,.25-.02-.05-.02-.08-.05-.15-.06-.04,.02-.06,.05-.1,.08Zm20.63-8.42c.47,.3,1.16-.07,1.73-.51-.62-.1-1.24-.19-1.86-.26l.13,.77Zm-2.9-2.86c.52-.14,1.18,.01,1.5-.3-.02-.54-1.17,0-1.5,.3Zm1.26,.55c.35,.12,.7,.25,1.02,.4-.88,.79-2.02,.21-2.4,.12,.3,.39,.87,.41,1.51,.3,.64-.1,1.34-.34,1.89-.33-.67-.21-1.34-.38-2.03-.49Zm37.39,3.26c.64-.12,1.33-.4,1.88-.38-.67-.25-1.39-.44-2.09-.57,.35,.14,.73,.29,1.07,.46-.42,.48-.93,.52-1.37,.45-.44-.07-.83-.24-1.04-.31,.36,.45,.9,.48,1.55,.35Zm-9.63-9.62c.09,.17,.18,.34,.27,.52,.19-.17,.39-.34,.6-.51-.29,0-.58-.04-.86-.01Zm8.08,8.03c.51-.16,1.2,.01,1.48-.35-.08-.63-1.18,.01-1.48,.35Zm-22.68,11.67l.27,.04c-.05-.03-.09-.06-.16-.09-.05,.01-.07,.04-.11,.05Zm15.59-22.97l-.07-1.28c-.5,.22-.99,.5-1.44,.76,.49,1.06,.81,.14,1.52,.52Zm-12.12,5.32c-.17,.4-.33,.8-.45,1.22-.12,.41-.25,.8-.31,1.22l.24-.02c.09-.79,.25-1.62,.52-2.42Zm7.82,29.65c.63,1.09,.78-.1,1.2-.52-.53-.1-.86,.23-1.2,.52Zm-12.89-10.26l.06-.29c-.75,.06-.78-.53-1.36-.63,.44,.32,.87,.63,1.3,.92Zm9.85,12.47c1.16-2.05,1.28,.31,.88-1.89-1.06,.13-.42,1.22-.88,1.89Zm17.53-22.55c.47,.35,1.16-.08,1.72-.61-.62-.12-1.25-.22-1.87-.29l.15,.9Zm-1.25,1.12c-.57-.43-1.24-.81-1.64-1.12-.47,.74,.43,.86,.29,1.65-.53,.52-2.36,.28-3.47,.28,.48,.09,.95,.17,1.44,.24,.49,.49,.23,.55,.06,.58-.18,.04-.31,.05,.28,.59l-2.15-.93c1.03,.6-.04,.58-.62,.39,.45,.29,.9,.6,1.34,.91-.96-.12-1.38-.16-2.63-.96l1.22,.84c-.8-.44-.63,1.01-2.26-.96,.21,.27,.72,.87,.47,.84l-1.02-1.07c.16,.39,.14,.75-.39,.11-.15-.33-.53-.85-.93-1.36-.18-.03,.46,1,1.1,2.08,.63,1.07,1.33,2.23,.83,2.55l-.41-.86c.08,.34,.14,.69,.19,1.04-.25-.31-.5-.67-.72-1.02,.22,.79,.2,1.22,.07,1.43-.14,.19-.38,.16-.62,.09-.25-.11-.5-.25-.7-.25-.21-.04-.39,.08-.56,.52-.14,.14-.31-.3-.46-.73-.15-.41-.27-.88-.49-.81l-.21,1.46c-.05-.38-.16-.74-.25-1.14-.1-.39-.19-.78-.2-1.25-.02-.45,.03-.96,.21-1.54,.16-.56,.46-1.2,.88-1.96-.64,.94-.16,.27-.73,1.28-.25,.29-.39,.38-.43,.34-.03-.05,.04-.22,.16-.43,.25-.44,.7-1.06,.98-1.42-.54,.49-.32,.48-1.06,1.3,.29-.53-.06-.17-.44,.08-.36,.27-.86,.53-.59,.02,.64-.53,.51-.26,.95-.59-.64,.4-.9,.29-1.01,.1-.09-.22-.05-.47-.24-.64,.41-.37,.79-.66,1.17-.83,.38-.17,.89-.22,1.51-.03l-.5-.18c.65,.2,.66,.24,.61,.2-.07-.03-.12-.08-.07-.05-.17-.11-.35-.23-.54-.33-.39-.27-.44-.36-.43-.39,.01-.03,.05-.04-.07-.19,.41,.32,.8,.66,1.18,1-.36-.36-.96-.92-1.45-1.53,.39,.32,.42,.28,.43,.18-.01-.12-.06-.34-.01-.32,.4,.6,.49,.85,.72,1.21-.24-.43-.97-1.76-.75-1.87l.18,.38c-.23-1.1,.16-1.66,.63-1.99,.49-.34,1.05-.5,1.85-.97-.05-.11,.06-.41,.12-.71,.81-.05,1.65,.18,2.68,.33,1.05,.16,2.35,.23,4.45,.22-.51-.5-.64-1.55-1.19-2.45-.55-.84-1.5-1.5-2.81-.64,.07-.62-.3-.66-.59-.72-.29-.07-.51-.16-.33-.92-.43-.35-.9-.46-1.34-.39-.44,.04-.85,.28-1.23,.53-.77,.5-1.37,1.21-2.17,1.28-.26-.25-.23-1.01-.39-1.73,.49-.29,1.02-.59,1.59-.8-.33-.24-.69-.41-1.06-.6,.45-.75,1.61-.19,1.88-1.56-.95,.77-1.97,.84-2.98,1.14-.99,.25-1.94,.75-2.17,1.89,.66,.11,1.24-.49,1.97-.51,.4,.44,.88,.73,.93,1.48-.71,1.18-1.2,1.61-1.8,1.93-.56,.34-1.23,.56-1.58,1.28-.2,.32-.58,.58-1.15,.09,.02-.36-.55-.66-.61-1.08-.02,.87,1.75,1.96,1.08,2.26-.61-.59-1.22-1.19-1.82-1.79,.88,1.05,.63,1.11,.26,1.2-.37,.06-.93,.13-.4,.81-.98-.33-1.3-1.03-1.02-1.51-.75,.25,.51,1.13,.25,1.46-.56-.47-1.1-.98-1.63-1.51,.74,.8,.53,.91,.04,.9-.49-.01-1.29-.18-1.69-.16,.48,.25,2.08,.71,1.7,1.25-.35,.17-.82-.17-1.13-.22,.48,.24,1.32,.82,1.23,1.22-.72-.14-.94-.61-1.63-.89-.1,.37-.02,.69-.68,.81,.43,.79,1.03,.22,1.7,.77-.36,.38-.96,.31-1.71,.12-.74-.19-1.59-.52-2.39-.44-.88-1.13-.78-2.54-1.1-3.27l-.07,1.06,.03,1.05c-.4-.16-.85,.08-1.26,.24-.4,.15-.8,.21-1.07-.46-.63,1.03-.76,2.35-.55,3.61,.21,1.26,.73,2.45,1.26,3.4,.24-.35,.37-.73,.91-.75,.65,.91-.41,.99-.97,1.34,.77,.65,2.19,.18,3.35,.28-.41,.83-.35,1.27-.4,1.7-.04,.44-.12,.84-.63,1.85l1.28-.75c-.35,.67,.04,.77,.42,.84,.4,.07,.8,.1,.7,.72-.24,.23-.75,.14-1.2,.06,.85,.46-.57,1.38,.42,1.77-.58,.15-1.16,.29-1.76,.4,.26,.3,.66,.59,.83,.88,.18,.27,.14,.56-.53,.87,1.11-.02,1.91,.47,2.75,.97,.4,.27,.83,.51,1.26,.71,.43,.2,.87,.35,1.35,.34l-.78,1.03c.8-.43,1.42,0,2.13,.31,.69,.33,1.42,.56,2.07-.21l-.06,.53c.7-.34,1.37-.76,1.98-1.2,.61,.31,0,2.15,.15,1.63,1.65-.01,2.83-.06,3.88,.59,.12-.87,.56-1.43,1.09-1.82,.53-.41,1.16-.68,1.71-.9,1.44-.04,2.88-.49,4.16-1.22,1.28-.75,2.35-1.82,3.16-3.02,1.63-2.43,1.96-5.39,1.4-7.69,.02-.33-.42-.8-.95-1.22Zm-24.93,8.07c.08-.36,.09-.71,.4-.85-.45-.05-.75,.04-.4,.85ZM200.59,127.04c-.42,.08-.88,.26-1.57,.17l.5,1.23,1.17-.49,1.09-.43c-.44-.51-.8-.54-1.19-.48Zm-33.09,1.36c-.09,.53-1.14,1.05-.52,1.48,1.58,.2,1.1-1.1,.52-1.48Zm60.13-22.77c-.12,.04-.25,.08-.4,.12,.12,0,.21,0,.35,0,.04-.04,.03-.08,.05-.11Zm-.8-.99c.43,.36,.97,.67,.8,.99,.63-.2,.82-.5-.8-.99Zm-28.82,19.38c.73-.11,1.47-.16,2.21-.24l-.88-.45c-.45,.22-.9,.45-1.34,.69Zm47.85-6.67c-.57-1.67-1.56-3.14-2.58-4.36-1.07-1.17-2.21-2.12-3.29-2.8,.37,.66,.88,1.5,.39,1.76-.54-.38-.89-.66-1.12-.89-.23-.24-.32-.46-.35-.67-.06-.41,.15-.8,.12-1.19-1.88-.6-2.5,.81-3.89,1.26-1.1-1.34-1.93-1.8-2.64-2.3-.73-.48-1.36-1.03-2.41-2.28l-.28,1.47c-.73-.86-1.33-.74-1.94-.58-.61,.15-1.22,.36-2.09-.27-.04-.34,.78-.54,1.46-.75-1.84,.09-1.36-1.59-3.19-1.33,.55-.46,1.1-.92,1.68-1.38-1.43-.22-3.53,0-2.61-1.3-2.69,1.29-6.79,.27-9.77,1.18l.23-1.28c-1.56,1.49-5.61-.13-6.86,1.79l-.24-.51c-.98,.6-1.93,1.22-2.88,1.85-1.34-.08-1.01-2.03-1.08-1.49-2.92,.52-5.18,.86-7.14,.42-.28,1.76-3.25,2.58-5.61,3.17-5.85,.37-11.82,1.78-17.42,4.03-2.8,1.13-5.5,2.48-8.01,4.08-1.25,.8-2.45,1.68-3.56,2.64-1.1,.96-2.13,2.02-2.86,3.26-.54,.63-.7,1.93-.21,2.81,.5,.92,1.43,1.02,2.09,1.2-.28-.7-.27-.68-.48-.86-.17-.16-.4-.5,.06-1.2,.58-.39,1.31-.34,2.06-.13,.73,.2,1.5,.53,2.26,.66-.43-.29-.86-.57-1.32-.84,.2-.52,.44-.79,.65-.93,.21-.14,.39-.16,.57-.17,.36-.02,.59-.04,1.02-1.1l1.04,2.1c-.06-1.33,1.74-1.12,2.55-.79l-.12-1.72c1.64,.28,2.63,.32,3.53,1.55l-.64-1.35c.78,.66,5.14-1.88,4.28,1.05,.29-.44,.43-1.28,1.34-1.37l.54,1.39c1.13-.72,2.48-1.36,3.04-.65-.59,.52-.65,1.21-.71,1.89,2.63-.55,2.66-1.77,2.57-3.05-.07-1.27-.24-2.59,2.21-3.18l.14,.95,1.05-1.26,1.54,.94c.58-1.78,2.37-2.02,4.31-2.05,1.95-.02,4.06,.16,5.48-.87,1.18-.4,2.93,1.37,5.15,.99l-.26-1.47c.97,.69,3.17,1.14,5.3,1.94,1.11,.41,2.19,.9,3.08,1.53-1.42-.13-2.9-.27-4.45-.36l-1.73-.06h-1.8l-1.87,.13-1.61,.21c-2.14,.31-4.2,.79-6.11,1.45,.55,0,.46,.34,.72,.62-4.07,.91-8.25,2.18-11.88,3.8-3.66,1.63-6.68,3.52-9.17,5.82,3.77-1.03,11.04-.88,14.45-4.55,1.78,.67,3.82-1.41,4.78,0,3.03-.25,5.05-1,7.15-1.78,1.04-.37,2.1-.76,3.39-.99,1.24-.2,2.63-.29,4.15-.07,.83,.4,.29,1.09,.42,1.86-1.58,0-3.17,.08-4.73,.28,.94,.24,1.86,.51,2.75,.82-.56,.24-1.41,.24-2.22,.3-2.39-.26-2.83,.57-4.69,1.03,.99-.02,1.83-.06,2.58-.11-.02,.06-.05,.12-.06,.18,.16-.08,.34-.15,.52-.22,1.29-.12,2.3-.3,3.29-.51,1.01,0,2.06,.1,3.09,.24,2.48,.31,4.89,.76,6.82,.26-1.5-.77-3.59-.86-5.48-1.36-.74-.66-2.03-1.24-1.82-1.97,3.05-.6,5.72-.22,8.26,.36,.98,.23,1.95,.49,2.92,.74-3.49,1.46-6.23-.72-2.01,1.61,4.82,.13,1.82-.9,2.16-1.57,1.51,.4,3.03,.79,4.68,1.02,1.38,.2,3.13,.77,3.17,1.52-.92,.05-.41,.79-1.22,.96,2.02-.17,.84-2.52,3.38-1.67l-.85,2.45c.81-1.21,1.58-.95,2.43-.57,.85,.4,1.85,.86,2.7,.08,.63,1.01-.51,1.68-2.04,1.58,.82,.3,1.31,.07,1.71-.24,.41-.29,.72-.68,1.31-.69-.31,.73-.68,1.51-1.14,2.22,.75-1.05,1.3-.98,1.92-.62,.31,.2,.63,.44,.95,.67,.32,.22,.65,.46,.93,.53-.04-.27-.38-.73-.48-1.19-.11-.49,.02-.87,.69-1.17,.71-.08,.74,.53,1.05,.69-.12-.25-.2-.68-.2-1.09,.01-.19,0-.42,.04-.63,.03-.21,.12-.37,.21-.59,.35,.13,.5,.41,.61,.76,.08,.32,.11,.71,.36,1,.65-.75,.81-1.49,1.66-1.94,.01-.94-.3-.97-.59-.95-.31,.03-.64,.08-.91-.46,.52-1.02,1.11-1.08,1.86-.8,.73,.25,1.55,.82,2.4,.39,.39,1.2,.27,2.85-.21,4.38-.51,1.56-1.52,2.9-2.12,3.69,.42-.4,.84-.79,1.17-1.26,.34-.46,.69-.91,.91-1.4,.53-.96,.82-1.91,1.04-2.83,.36,.3,.98-.48,1.5-1.04,.26-.27,.45-.43,.64-.37,.18,.07,.35,.36,.32,1.24,.33-.77,.48-1.42,.65-2.13,.18-.69,.22-1.5,.27-2.28,.04-.79-.06-1.65-.16-2.47-.19-.85-.33-1.7-.67-2.52Zm-32.98-.19c.69-.17,1.19-.1,1.59,.1-.52-.03-1.05-.06-1.59-.1Zm5.69,.73c.19-.08,.37-.19,.56-.29,.55-.3,1.18-.61,2.18-.37-.89,.28-1.5,.77-2.74,.66Zm2.83,.27c-.18-.45,.1-.63,.45-.76,.15,.06,.3,.11,.46,.19,.11,.54-.28,.57-.7,.63-.08-.02-.15-.04-.21-.06Zm5.46,1.61c-1.04-1.14-3.94-1.29-5.11-1.52,1.17-.23,2.55-.06,3.86,.32,.7,.19,1.35,.45,1.96,.7-.15,.18-.35,.36-.71,.5Zm5.53-1.09h0c0-.05,0-.01,0-.02,0,0,.01,.01,.02,.02h-.02Zm-75.35,8.69c.03,.44,.28,1.08,.54,1.69,.67-.27,1.31-.56,1.93-.88-.65-.41-1.25-.89-1.84-1.37-.49-.14-.64,.12-.62,.55Zm45.75-30.51c-.82,2.33-1.9,.1-.51,2.08,1.47-.47,.12-1.29,.51-2.08Zm-5.35,3.75c.85-.02,1.29-.39,1.73-.77-1.21-.92-1.15,.26-1.73,.77Zm-34.59,27.41c.51-.25,1.23-.36,1.58-.46-1.36-.18-1.84,.17-2.08,.79-.24,.62-.14,1.43-.62,1.82,1.1-.24,2.1-.57,3.01-1.03-.62,.18-1.28,.32-1.96,.39-.77-.83-.45-1.24,.06-1.51Zm66.92-24.85c-.94-.03-1.88-.06-2.79-.03l.33,.28c.78-.52,1.66,.02,2.45-.25Z"/></g></svg>