<?xml version="1.0" encoding="UTF-8"?><svg xmlns="http://www.w3.org/2000/svg" xmlns:xlink="http://www.w3.org/1999/xlink" viewBox="0 0 434.65 434.65"><defs><style>.d{fill:url(#c);}</style><linearGradient id="c" x1="216.39" y1="423.36" x2="216.39" y2="11.79" gradientTransform="matrix(1, 0, 0, 1, 0, 0)" gradientUnits="userSpaceOnUse"><stop offset="0" stop-color="#d1d706"/><stop offset="1" stop-color="#88bd32"/></linearGradient></defs><g id="a"/><g id="b"><path class="d" d="M226.15,414.88c.11,.87,1.19,.5,1.84,.96-1.99-1.22,.34-.99-1.84-.96Zm-26.87-7.22c.21,.39,.46,.75,.7,1.09,1.07-.23,.19-.53,.56-.99l-1.27-.1Zm26.18,4.51c-.13,.39,.18,.67,.45,.97,1.11-.37-.05-.62-.45-.97Zm-9.25,10.8c.25-.35,.48-.71,.7-1.06l-.23-.11c.07,.71-.4,.63-.47,1.16Zm-.75-2.87v-.25s-.03,.07-.05,.13c.01,.05,.03,.08,.05,.11Zm.69,.54c-.29-.15-.56-.22-.69-.54-.01,.41,.07,.71,.69,.54Zm-5.33-19.91c-.12,.61-.23,1.23-.31,1.84l.56-.08c.25-.45,.06-1.16-.25-1.76Zm10.18,9.18c-.36-.39-.56-.83-.71-1.21,.15-.99-.05-2.03-.49-2.95-.44-.92-1.16-1.69-1.99-2.26-1.67-1.14-3.79-1.26-5.33-.66-.21-.01-.56,.41-.88,.94-.32,.55-.6,1.21-.79,1.6,.31,.48,.47-.39,.89-.29,.19,.5-.29,2.25-.63,3.28,.17-.46,.33-.91,.48-1.37,.34-.51,.33-.28,.29-.13-.02,.16-.07,.27,.38-.33l-1.11,2.07c.6-1.03,.25-.1-.08,.4,.31-.44,.62-.88,.95-1.31-.4,.8-.61,1.12-1.57,2.24l.97-1.13c-.3,.37-.22,.36-.31,.51-.05,.07-.13,.17-.33,.34l-.32,.28h-.01s0-.1,0-.11c0,.06-.01,.09-.02,.12l-.02-.02s0,0,0,0c-.01,0,0-.01,0,0h-.01c-.09-.02-.25-.08-.4-.16l-.67-.26c-.2-.25-.26-.5-.45-1.09-.18-.59-.49-1.57-.76-3.46-.25,.33-.93,.14-1.53,.34-.56,.19-.99,.76-.06,1.86-.53-.22-.53,.01-.54,.17-.02,.16-.08,.27-.8-.02-.58,.39-.23,1.04,.3,1.51,.51,.49,1.2,.83,1.21,1.18-.28,.11-1.04,.08-1.77,.14-.25-.27-.5-.59-.7-.94-.24,.17-.44,.36-.66,.57-.7-.32-.1-.97-1.46-1.31,.73,.7,.76,1.32,.94,1.95,.15,.61,.47,1.22,1.51,1.29,.24-.41-.24-.72-.16-1.14,.48-.23,.83-.47,1.58-.47,1.1,.37,1.42,.5,1.58,.74,.16,.2,.18,.51,.62,.55,.2,.02,.21,.2-.34,.7-.27,.07-.69,.52-1.04,.65,.67-.16,2.11-1.62,2.04-1.26-.63,.58-1.27,1.15-1.91,1.72,1.06-.85,1.01-.71,.94-.44-.09,.27-.2,.71,.39,.15-.51,.89-1.05,1.27-1.33,1.11-.03,.58,.93-.61,1.05-.45-.46,.56-.96,1.11-1.48,1.63,.76-.74,.77-.59,.64-.15-.14,.44-.45,1.19-.52,1.55,.28-.46,.99-1.97,1.23-1.68,.02,.31-.3,.78-.4,1.07,.27-.47,.82-1.3,1.03-1.27-.23,.7-.57,.95-.9,1.62,.22,.06,.44-.02,.39,.61,.58-.44,.33-1.01,.78-1.69,.15,.33,.02,.93-.21,1.67-.23,.73-.58,1.56-.64,2.35-.9,.85-1.93,.79-2.54,1.12,.53,.04,1.05,.04,1.56,0-.4,.79,.56,1.73-.5,2.27,.69,.63,1.68,.8,2.62,.67,.95-.13,1.85-.55,2.57-.97-.24-.28-.52-.44-.5-.99,.67-.55,.69,.51,.93,1.11,.5-.68,.19-2.13,.25-3.26,.57,.52,.89,.55,1.2,.66,.32,.11,.61,.27,1.4,.94l-.61-1.35c.51,.45,.58,.12,.6-.23,.03-.35,.02-.72,.5-.49,.19,.26,.16,.71,.12,1.11,.3-.69,1.12,.81,1.38-.02,.16,.55,.3,1.11,.42,1.69,.48-.34,.85-1.24,1.43,.08-.06-1.01,.3-1.61,.69-2.22,.39-.6,.82-1.2,.78-1.96l.97,.85c-.42-.74-.06-1.16,.2-1.66,.28-.48,.48-1.02-.26-1.65l.51,.14c-.35-.6-.75-1.16-1.19-1.67,.29-.39,2.09,.33,1.59,.13,0-1.22,.01-2.04,.73-2.75-.85-.16-1.38-.51-1.73-.9Zm-10.62,.08h0Zm0,0h0Zm.07-.06s0,0,0,0h0Zm0,0h.01s.05-.05,.02-.02l-.04,.03h0Zm1.97,.53c-.37-.06-.7-.11-1.06-.2-.17-.04-.35-.09-.52-.15-.15-.05-.46-.18-.37-.15,0,0,0,0-.02,0,.02,0,.03,0,.05,0h.03s-.06,0-.08-.01l.77-.37c.45-.21,.79-.32,.84-.25l-.9,.34c.32-.11,.65-.21,.98-.29-.37,.15-.76,.3-1.15,.41,1.59-.44,1.56-.21,1.31-.06-.14,.08-.31,.15-.34,.2-.05,.06,.05,.1,.49,.19,.13,.06-.3,.07-.72,.05-.42-.02-.86-.1-.75-.05l1.43,.36Zm-8.63-2.19c0,.18-.03,.34-.01,.52,.17-.04,.34-.07,.52-.09-.17-.13-.34-.28-.51-.43Zm1.71,8.03c-.57,0-1.19-.05-1.79-.19,.58,.21,1.17,.34,1.75,.41l.04-.21Zm4.29-10.94c.22-.28,.25-.83,.19-1.48-.05-.65-.21-1.36-.19-1.91-.18,.65-.29,1.32-.36,1.98,.07-.32,.16-.67,.27-.99,.29,.47,.29,.98,.25,1.41-.04,.43-.13,.79-.16,.99Zm-.95-1.72c-.39-.04,.09,1.13,.29,1.49-.13-.52-.06-1.14-.29-1.49Zm59.81-295.06l1.04,.08,7.78-1.45c2.86-.52,5.85-.92,8.95-1.37-3.28,.43-6.46,.82-9.52,1.34l-8.25,1.4Zm21.81,76.03c-.42-2.6-.81-5.2-1.18-7.8-.92,3.22,.03,4.83-.01,9.22l1.19-1.42Zm-116.66-64.19l-6.71,2.23,1.04-.04c1.53-1.04,4.02-1.33,5.66-2.19Zm112.07,40.61c-.14-6.89-.16-13.6-.66-18.73,.33,.03,.78-.28,1.08-.7-.47-.28-.7-1.99-1.3-1.07-.26,.86-.24,1.36-.08,1.6-.46,4.66-.23,10.25-.38,15.55-.46,2.34-.77,5.87-1.4,6.25,.27-.04,.58-.01,.88-.31,.29,4.58,.64,9.14,1.05,13.7,.1-2.79,.23-5.58,.39-8.37,.73,3.59,.55,12.4,2.01,13.34-1.08-5.93-1.44-13.69-1.57-21.27Zm.26,27.59l-.41-6.67-.38,2.57,.79,4.1Zm-201-45.98c-.96,.54-1.47,1.13-2.74,1.78,3.97-1.2,5.93-2.2,8.03-3.2-2.89,.35-4.35,.89-5.3,1.42Zm14.52-4.94c3.96-1.56,.17-1.39,1.12-2.46-1.93,2.93-5.14,1.53-1.12,2.46Zm71.1-13.58l-.91,.43c.29-.1,.54-.17,.87-.3,.08-.07,.02-.09,.04-.13Zm-2.86-.14c1.39-.06,3-.25,2.86,.14,1.4-.7,1.65-1.06-2.86-.14Zm127.87,169.71c2.3,9.73,2.92,3.13,4.28,4.5-1.13-2.34-2.18-4.72-3.27-7.09l1.9,5.21c.21,6.15-2.17-.4-2.91-2.62Zm-19.07-172.92s.02,0,.03,0c0-.05-.01-.06-.03,0Zm26.16,192.14c1.19,2.5,.86-1.14,.72-4.19l-2.43-2.26,.81,3.24,.9,3.21Zm-6.89-29.12c-.64-4.82-1.66-3.28-1.72-1.2,.58,.23,1.66,3.28,1.72,1.2ZM138.61,148.4c.87-.14,1.26-.58,1.65-1.02-1.36-.71-1.12,.43-1.65,1.02Zm67.23-8.96l5.07-2.31-5.48,2.21,.41,.11Zm79.86-18.04l-.75,1.99,2.4-.47c.92-.6-.45-1.11-1.65-1.52Zm-117.05,22.86c.54,.14,1.15,.18,1.15,.53,.45-.48,.49-.8-1.15-.53Zm-.11-1.29c.45-.8,1.39-.73,1.91-1.33l-2.32,1.22,.41,.11Zm71.75-14.93l-2.62,1.48c1.36,.74,1.75-.25,3.38-.36l-.76-1.12Zm-70.49,16.76c-.09,.09-.18,.19-.3,.29,.1-.05,.19-.09,.3-.17,.02-.05,0-.08,0-.12Zm71.48-11.75l1.33-.91-2.35,.63,1.01,.28Zm-90.54,78.76c-1.93,1.69-2.27-.91-1.47,1.62,1.95,.35,.69-1.11,1.47-1.62Zm32.73,11.27l-3.36,.4,.47,.23c.87-.61,2.02-.24,2.9-.63Zm102.76-94.22l.33-3.35c-.31-1.42-1.2,.31-1.98,1.72l1.66,1.62Zm-23.44,55.25l-1.41-.11-1.42,3.69c1.7-.75,1.46-1.89,2.83-3.58Zm-117.65,28.41c-.97-1.53-1.47-.47-2.43-.39,1.02,.52,1.73,.46,2.43,.39Zm36.31,13.33c-.15,.06-.31,.12-.49,.18,.15-.02,.28-.02,.45-.06,.05-.04,.02-.08,.04-.12Zm-1.26-.88c.63,.31,1.39,.55,1.26,.88,.77-.31,.94-.59-1.26-.88Zm106.71-92.01c-.65-.04-1.46,.42-1.93-.07l1.17,4.1-.4-2.89c1.52-2.85,1.94,.76,2.05,1.99,.26-2.55-.24-3.1-.89-3.14Zm-20.72,51.86c-.57,.97-1.12,1.95-1.73,2.89l1.13-.8,.6-2.09Zm-33.95,33.08c.97-.78,1.89-1.63,2.8-2.48l-1.5,1.3-1.56,1.23-1.57,1.23-1.63,1.15,.54-.07c1.01-.74,1.98-1.55,2.93-2.36Zm-8.41-195.06c.08-.22,.17-.44,.23-.66,.11-.28,.23-.61,.28-.92l-.23,.53c-.08,.19-.15,.36-.18,.47l-.23,.76-.46,1.52,.39-.3c-.11-.49,.03-.95,.19-1.39Zm-10.33,41.95c-.41-.99-.98-1.37-1.54-1.75-.28,1.71,.79,1.24,1.54,1.75Zm11.15-39.73c.52-.4,1.02-.94,1.27-.69,0-.76-.19-1.03-1.27,.69Zm58.04,40.76h1.4l.78-3.5c-1.54,.82-1.08,1.87-2.17,3.5Zm-3.4-.48l1.22-2.7-.95,.79-.28,1.9Zm-5.03-33.96l-6.55-2.93,.29,.4,6.26,2.52Zm-48.34-7.01c0,.15,0,.3-.02,.48,.04-.13,.08-.24,.11-.4-.02-.06-.06-.05-.09-.08Zm19.17,57.74c2.16,.02,1.49-1.2,.56-1.54-.11,.54-1.49,1.2-.56,1.54Zm-36.51-23.12c.11,.42-.05,.24,.64-1.28-.54-1.44-.83-1.51-1.17-1.27-.33,.24-.65,.79-1.11,.4,1.3,.81,1.57,1.73,1.65,2.15Zm34.22,247.66l.44,.41,4.05,1.23,4.06,1.09-4.28-1.3-4.26-1.43Zm-49.6-29.4c1.2-.32,2.45,.49,3.61,.43-1.38-.28-2.72-.6-4.12-.81l.51,.38Zm-41.28-8.92c2.6-.54,.27-1.3,.97-2.11-1.54,2.37-3.34,.18-.97,2.11Zm199.73,16.83c-.6,1.45-1.3,2.81-1.97,4.22l1.75-2.68c3.16-1.57,1.03,1.85,.22,2.93,1.01-.99,1.5-1.69,1.68-2.2,.18-.51,.06-.81-.19-1.02-.49-.43-1.46-.53-1.49-1.24Zm-57.33,29.1c.36-.09,.73-.19,1.16-.3,.43-.13,.91-.24,1.51-.31l-.96-1.07c-.65,.31-1.31,.56-1.98,.79l-2.02,.73c.92,.38,1.57,.32,2.29,.16Zm2.51,3.38l2.15-1.09c-1.22,.28-2.43,.65-3.66,.87,.51,.11,1,.17,1.51,.22Zm-103.11-38c-.18,0-.38,0-.6,0,.18,.04,.32,.08,.53,.1,.07-.03,.05-.07,.08-.1Zm-1.25-1.27c.68,.49,1.49,.99,1.25,1.27,.94-.01,1.25-.28-1.25-1.27Zm162.95,1.71l.1,2.41,2.71-2.6c.8-1.39-1.14-.51-2.81,.19Zm-9.18,11.64c-2.18,1.65-.82,2.14,.32,1.7-.2-.54,.81-2.14-.32-1.7Zm-202.8-21.08c1.48-.16,2.25-.63,3.01-1.09-2.1-.7-2.01,.47-3.01,1.09Zm188.13,32.67c-1.03,.55-2.07,1.11-3.12,1.67-1.04,.57-2.06,1.15-3.06,1.76-1.03,.55-2.02,1.12-2.97,1.71-.94,.6-1.83,1.22-2.65,1.88-.82,.65-1.61,1.25-2.28,1.95-1.45,.05-2.92,.89-4.28,1.53-1.38,.59-2.6,1.06-3.39,.52-2.42,.81-4.51,1.4-6.36,2.14-1.84,.78-3.54,1.36-5.23,2.07-1.68,.74-3.4,1.29-5.33,1.83-1.92,.6-4.08,.87-6.61,1.07-1.46-.18-.78-.99-1.22-1.71,1.3-.18,2.6-.42,3.89-.62,.64-.12,1.29-.19,1.92-.34l1.9-.46c-.8,0-1.59,.03-2.38,.02l-2.37-.14c1.98-.7,6.9-1.04,7.21-2.46-1.56,.63-3.41,1.19-5.41,1.54-1,.14-2.04,.26-3.09,.38-.52,.05-1.05,.12-1.58,.16l-1.59,.04c-1.06,.04-2.11,.07-3.14,.1-1.03,.01-2.04-.03-3.01,0-.97,0-1.91,.1-2.79,.12-.88,.03-1.71,.11-2.48,.25,1.36,.36,2.91,.62,4.55,.65,1.63,.06,3.32,.19,4.98,.2,1.44,.5,3.73,.87,3.61,1.62-1.2,.27-2.39,.48-3.56,.66-.59,.09-1.17,.17-1.76,.23-.58,.02-1.16,.04-1.73,.06-1.15,.02-2.29,.01-3.43-.02-1.13-.09-2.25-.22-3.37-.36-2.26-.21-4.45-.78-6.74-1.19-1.13-.27-2.27-.54-3.44-.81-.59-.13-1.18-.26-1.78-.39-.59-.15-1.19-.3-1.79-.46-1.21-.31-2.64-.71-3.74-1.23-1.1-.51-1.91-1.04-1.97-1.45,1.61,.32,.67-.67,2.03-.55-3.46-.63-1.27,2.44-5.89,.3l1.55-2.14c-1.42,.88-2.81,.18-4.31-.72-1.47-.95-3.06-2.08-5-2.11-.72-1.47,1.65-1,4.17,.02-2.63-1.67-3.51-.42-5.71-1.53l3.03-.98c-3.24,.76-4.05-2.36-5.03-3.66-.4,.4,.09,2.51-2.77,.93-1.13-.88-.24-1.05-.39-1.47-.41,.4-1.9,.75-3.84-.19-.01-.83,1.78-.32,2.24-.92-1.46-.71-2.7-1.18-3.46-2.26-2.82-.79-.32,1.02-2.25,.91-3.66-2.51,.79-2.45,.07-4.58,3.42,.62,7.34,2.28,9.17,2.56l-5.89-2.37c.74-.59-3.11-3.3,.24-2.48-5.21-3.62-12.52-6.41-18.42-8.49,.67,.65,1.6,1.3,1.19,1.71-3.1-.94-2.32-1.74-2.64-2.59-2.4-.5-2.79,.97-4.57,1.37-1.96-1.57-3.18-2.27-4.32-2.93-1.14-.67-2.14-1.42-3.78-3.01l-.3,1.47c-1.17-1.08-2.07-1.14-3-1.16-.92-.04-1.89-.02-3.27-.92-.07-.36,1.22-.33,2.28-.34-2.87-.44-2.12-2.02-4.97-2.34,.87-.31,1.74-.59,2.63-.88-2.16-.71-5.54-1.04-4.02-2.1-1.08,.15-2.28,.06-3.59-.05-1.31-.11-2.7-.32-4.11-.56-1.42-.2-2.88-.39-4.29-.55-1.41-.16-2.8-.16-4.05-.1l.49-1.23c-1.38,.56-3.73,.34-6.06,.17-2.33-.11-4.63-.14-5.75,.8l-.38-.52c-1.71,.6-3.39,1.15-5.03,1.86-2.28-.02-1.66-1.99-1.8-1.44-1.27,.14-2.45,.39-3.58,.55-.56,.08-1.11,.16-1.65,.23-.53,.09-1.05,.17-1.55,.25-1.01,.15-1.97,.25-2.88,.34-.91,.11-1.78,.16-2.61,.16-.35,1.31-3.12,2.58-6.1,3.76-1.7-5.6-2.76-6.43-4.95-12.69-1.37-5.26-.37-7.74-.9-12.51l-.57,2.72c-3.57-6.51-.97-5.02-4.31-9.97l2.29-.57c-1.82-1.51-2.64-6.66-2.8-8.85l-2.17-1.22c-.76-4.64-1.45-7.59-.56-9.43l-1.23,.94c.27-1.82-5.44-14.46-2.89-12.98l-.02,.03s.07,.01,.11,.02c.19,.12,.42,.32,.69,.59-.13-.18-.27-.36-.41-.54,.64,.11,1.28,.22,1.93,.3l1.2,2.23c2.14-.51,4.58,1.01,7.19,2.84,1.33,.86,2.7,1.8,4.06,2.58,1.38,.73,2.77,1.28,4.08,1.43,.94,.32,1.81,1.14,2.89,2.08,1.08,.93,2.38,1.99,4.18,2.55l.32-1.47c.56,.62,1.62,1.41,2.93,2.28,1.34,.83,2.9,1.79,4.46,2.75,1.58,.93,3.16,1.92,4.46,2.93,1.32,.96,2.37,1.97,2.86,2.98,3.13-.36-.23-.38,.13-1.5,1.47,0,2.56,.12,3.42,.31,.86,.21,1.48,.53,2,.9,1.05,.76,1.72,1.7,3.13,2.4,3.62-.08-2.56-1.05-.47-1.79,2.54,1.04,3.7,.82,5.01,.51,.65-.14,1.34-.28,2.27-.27,.92,.03,2.08,.19,3.7,.6,.56,.89-1.77,.4-2.52,.85,2.43-.47,5.75-.23,9.38,0,1.81,.13,3.71,.19,5.58,.29,1.88,.02,3.74,.03,5.49-.1,4.03,.39,9.07,.37,14.36-.09,5.28-.44,10.84-1.42,15.85-2.6v-.57c1.11,0,2.15-.29,3.2-.63,1.04-.35,2.08-.78,3.08-1.33,1-.53,2.03-1.07,3.07-1.62,1.02-.57,2.08-1.12,3.22-1.57l-2.46,.46c2.32-2.31,4.08-2.73,6.34-4.65l2.22,.36c2.35-2.24,.43-1.86,1.78-3.88,2.96-.87,6.93-5.52,7.93-6.38,1.18-.1-.2,1.51-.25,2.15,2.39-2.85,1.17-3.75,4.32-6.91l.35,.24c2.95-4.59,6.49-9.36,9.82-14.43,3.33-5.05,6.46-10.37,8.63-15.69-.44,.64-.63,.31-1.05,.41,1.34-2.63,2.66-5.39,3.88-8.2,.52,9.61,1.28,19.25,2.49,28.3-.02-1.48,.33-1.13,.6-1.72,1.05,11.47,2.3,23.79,4.1,35.44,1.79,11.65,4.13,22.61,7.21,31.32-1.05-6.1-1.64-14.44-2.38-22.77-.74-8.33-1.66-16.66-3.6-22.82,.67-4.75-1.52-11.79-.09-13.84-.35-8.99-1.24-15.27-2.16-21.48-.92-6.21-1.86-12.36-2.03-21.05,.14-1.28,.41-1.59,.73-1.68,0,0-.02,0-.02,0-.13-.91-.24-1.8-.34-2.69,1.06-4.39,1.55-8.64,1.21-12.4-.38,1.59-1.03,3.39-1.81,5.3-.26-4.75-.23-9.37-.03-14.01,.06-1.94,.2-3.89,.35-5.85,.07-.98,.15-1.97,.22-2.96,.1-.99,.21-1.99,.31-3,.1-1.01,.21-2.02,.31-3.04,.14-1.03,.27-2.06,.41-3.1,.04-.37,.09-.73,.13-1.1,.03-.33,.08-.66,.13-.99,.09-.65,.18-1.3,.28-1.96,.25-1.69,.82-3.7,1.61-5.29l.31-.63c.1-.14-.05-.08-.07-.12-.05-.02-.09-.04-.13-.06-.15-.08-.21-.19-.14-.32,.49-.1,.85-.21,1.13-.31l.18-.07s.04,0,.06,0c.05,0,.1-.03,.15-.07,.22-.13,.51-.39,.59-.13,.02,.07,.03,.18,0,.35,.03-.16,.05-.3,.06-.41,.02-.19,.03-.34,.02-.46,.05-.1-.12-.03-.23,0l-.34,.12c-.43,.16-.78,.32-1.08,.48-.61,.33-1.04,.66-1.5,.96-.94,.61-1.86,1.09-4.2,1.15,.77-.94,1.62-1.88,2.55-2.83-2.39,1.6-3.92,1.55-6.13,1.58-.56,0-1.13,0-1.71,0-.7,.02-1.56,.07-2.33,.14-1.59,.15-3.18,.43-4.66,1.01-2.34-.75,1.66-1.83,6.39-2.45-5.44,.2-5.74,1.67-10.02,2.26,1.26-.9,2.51-1.85,3.78-2.72-4.3,2.67-8.24,.74-10.95,.4-.23,.58,2.41,1.87-3.33,2.57-2.49,.12-1.32-.63-1.95-.84-.23,.58-2.14,1.89-5.9,2.56-.81-.61,2.33-1.49,2.46-2.27-2.84,.5-5.14,1.02-7.31,.76-4.93,1.48,.5,.98-2.43,2.31-7.8,.87-1.21-2.36-4.32-3.38,5.63-2.13,13.14-3.6,16.19-4.7l-11.15,2.42c.54-.97-7.84-.09-2.06-1.98-5.11,.57-10.66,1.53-16.14,2.78,.49-3,1.67-1.42,1.56-4.28l2.03,1.18c-.65-1.36,1.27-2.9,2.24-3.45l-1.05-1.49c1.73-1.4,2.68-2.4,4.27-2.27l-1.41-.51c1.18-.25,3.49-7.03,4.61-3.71-.02-.68-.45-1.51,.3-2.58l1.4,.51c.07-.24,.12-.43,.22-.72,.13-.35,.25-.69,.38-1.04l.66-1.95c.41-1.19,.77-2.14,1.27-2.46-.02,1.63,.4,2.35,.83,3.1,.59-1.56,.81-2.85,.88-3.86,.06-1.01-.04-1.75-.22-2.29-.2-.61-.5-.97-.82-1.21l3.19-2.07-2.37,1.07c-2.74-.82,.24-2.05,1.24-2.46-4.3,.7-1.57,2.32-2.09,3.44-.24-.17-.5-.29-.75-.39-.62-.24-1.27-.44-1.77-1.16-.54-.72-.88-1.95-1.48-4.23l.96-.13c-.53-.73-1.1-1.41-1.7-2.03,.04-.46,.07-.93,.07-1.41v-.72l.06-.56c-4.06-.81-4.09-8.94-7.52-11.96-.49-.69-.54-1.73-.67-2.95-.06-.61-.15-1.26-.31-1.93-.04-.17-.09-.34-.14-.51-.06-.18-.12-.35-.13-.43-.06-.2-.15-.4-.25-.61l-1.33,.66c.35-1.06,.48-3.08,1.56-4.55,.5-.73,1.19-1.3,1.95-1.55,.19-.06,.37-.12,.58-.14,.21-.05,.34,.03,.66-.16,.55-.26,1.09-.44,1.6-.49,.13-2.65-.39,.07-1.4-.53,.87-4.85,3.07-4.02,5.01-5.76,.72-2.88-1.54,1.67-1.79-.22,3.09-3.35,.1-4.02,3.56-8.34,.99-.08-.16,1.51,.06,2.27,.12-1.02,.48-2.16,.98-3.36,.25-.6,.54-1.22,.85-1.85,.16-.31,.32-.63,.49-.96l.13-.24c.04-.08,.05-.08,.08-.12l.13-.2c.14-.29,.38-.51,.56-.77,.24-.2,.43-.46,.7-.63,.48-.4,1-.73,1.53-1.02,1.45-.09,3.08,.2,4.19,1.09,.13,.13,.29,.19,.41,.35,.06,.07,.13,.13,.19,.19l.05,.04,.1,.08,.32,.24c.84,.64,1.68,1.28,2.51,1.92,1.65,1.28,3.25,2.57,4.71,3.84l.4-.39c2,2.82,5.61,3.49,8.46,5.94l-1.14-1.61c2.55,.45,3.41,1.66,5.58,2.5l.29,1.99c2.39,.84,1.62-.56,3.57-.32,.36,.5,.91,.99,1.55,1.44,.32,.23,.66,.44,1.01,.65l.27,.15,.1,.06c.06,.03,.12,.07,.18,.09,.49,.22,1,.43,1.09,.6-.19,.34-.44,.43-.65,.49-.24,.07-.46,.11-.64,.23,.1,.02,.22,.02,.35,0,.11,0,.22-.01,.35-.03,.25-.04,.51-.11,.75-.12,.24-.02,.52-.03,.73,.08,.11,.05,.22,.12,.33,.21,.08,.11,.17,.24,.25,.39l-.38,.18c.8,.52,1.36,1.46,1.57,2.52,.05,.53,.12,1.11,0,1.67-.01,.3-.14,.57-.2,.87-.18,.49-.46,1.13-.7,1.69-1.95,4.63-4.04,9.31-5.55,13.92,.36-.55,.58-.26,.97-.34-.49,1.14-1,2.3-1.51,3.47-.32,.76-.74,1.48-1.26,2.16-1.04,1.35-2.45,2.46-4.05,3.23-.4,.2-.82,.37-1.24,.52-.21,.07-.43,.16-.64,.22-.24,.06-.38,.14-.73,.2-1.24,.26-2.45,.56-3.63,.89-2.35,.66-4.54,1.48-6.48,2.51,2.72-.35,6.43-.04,10.14-.03,1.79,.05,3.54-.31,5-1.09,1.44-.78,2.54-1.95,2.99-3.26,1.04-.17,1.78-1.15,2.3-2.01,.55-.88,.91-1.63,1.81-1.68,4.14-6.83,3.1-10.96,6.45-17.84,.38-.44,.64-.41,.94-.31,.3,.1,.62,.31,1.01,.33-.62,1.88-1.33,3.83-2,5.74l2.19-3.04c-.09,1.74-2.27,5.01-1.22,6.03,.21-1.37,.68-2.84,1.27-4.35,.57-1.53,1.33-3.01,1.93-4.67,1.14-3.29,.8-6.9-.74-8.77,.11,1.03,.23,2.16,.32,3.35,.03,1.19-.04,2.45-.41,3.62-.39,.45-.78,1.02-1.21,1.39-.43,.37-.82,.57-1.14,.37,.32-3.22,.09-5.69-.61-8.11-.72-2.36-2.14-4.68-4.6-5.93-.15-.08-.31-.16-.46-.25-.22-.12-.43-.25-.65-.38-.44-.26-.86-.55-1.23-.83-.73-.56-1.24-1.12-1.18-1.51,1.2,.42,.71-.58,1.77-.36-2.62-.85-1.61,2.15-4.78-.11l1.75-1.94c-2.72,1.53-3.81-2.86-6.99-2.93-.32-1.39,1.56-.96,3.41,.08-1.83-1.63-2.79-.46-4.41-1.49l2.69-.93c-2.83,.73-2.93-2.24-3.56-3.44-.39,.39-.33,2.37-2.46,.94-.8-.81-.03-.99-.09-1.39-.4,.39-1.7,.76-3.18-.07,.11-.79,1.53-.36,2.02-.94-1.12-.62-2.08-1.04-2.56-2.04-2.25-.65-.42,.98-2.02,.95-2.7-2.24,1.02-2.35,.73-4.34,2.78,.46,5.83,1.92,7.33,2.14l-4.6-2.08c.71-.58-2.14-3.02,.56-2.36-.97-.81-2.05-1.57-3.19-2.27-.91-.56-2.91-1.72-4.77-2.25-3.78-1.23-7.79-.99-10.95-.11,.97,.16,2.15,.22,2,.78-.79,.22-1.36,.31-1.79,.33-.43,.05-.72,0-.94-.09-.45-.19-.63-.58-1.05-.8-2.26,1.3-1.44,2.65-2.21,4.18-.58,.07-1.06,.24-1.51,.37-.46,.13-.84,.29-1.19,.46-.35,.17-.67,.33-.97,.48-.29,.18-.56,.35-.82,.51-.27,.16-.54,.33-.82,.49-.27,.18-.55,.36-.87,.55-.66,.36-1.37,.81-2.38,1.41l1.36,.66c-.69,.37-1.01,.84-1.25,1.26-.11,.22-.19,.43-.25,.64-.05,.2-.05,.37-.07,.56-.06,.74-.09,1.52-1.06,2.39-.35-.03-.23-1.04-.17-1.87-.61,2.15-2.06,1.17-2.56,3.32l-.65-2.27c-.75,1.52-1.49,3.95-2.32,2.51,.08,3.41-2.98,7.66-3.88,11.37l-1.01-.83c.11,.61-.04,1.29-.33,2.02-.15,.37-.31,.71-.52,1.14-.26,.53-.53,1.07-.76,1.63-.97,2.21-1.33,4.63-.52,5.83l-.56,.32c.4,1.78,1.04,3.43,1.85,4.9,.11,1.06-.3,1.54-.69,1.75-.39,.22-.77,.16-.49,.18,.39,1.22,.86,2.33,1.38,3.34,.12,.23,.27,.55,.36,.7l.29,.54c.19,.35,.36,.7,.53,1.04,.66,1.37,1.13,2.64,1.37,3.88,1.82-.22,3.99,3.15,5.58,5.89,.72,1.77,1.49,3.53,2.3,5.29l.29,.64,.22,.52c.13,.35,.27,.7,.37,1.06,.22,.72,.38,1.46,.47,2.2,.16,1.5,.1,3.03-.27,4.52-.18,.75-.42,1.46-.74,2.19l-1.2,2.67c-3.14,7.11-5.87,14.29-8.28,21.02-1.8,.44-3.59,.89-5.34,1.34-2.89,.8-5.69,1.57-8.32,2.29,1.57-.03,3.55-.25,3.34,.34-5.4,1.65-5.01,.47-6.26,.1-3.95,1.43-3.18,2.81-5.43,4.43-8.63,.65-9.65,1.6-17.16,1.53l.78,1.34c-5.31,.02-5.54,2.35-11.15,2.81-.37-.24,1.61-1.12,3.2-1.84-4.69,1.61-4.72-.14-9.26,1.56l3.32-2.52c-3.72,.97-9.07,2.81-7.49,.97-6.11,3.26-17.68,5.53-25.52,8.67l.2-1.38c-3.79,2.58-15.4,4.16-18.51,6.98l-.76-.32-7.8,4.07c-3.79,.95-3.07-1.27-3.22-.67-2.03,.7-3.96,1.35-5.78,1.98-1.07,.35-2.11,.68-3.12,1.01-1.23,.39-2.42,.76-3.58,1.13-4.65,1.48-8.87,2.69-13.15,3.72,.05,.2-.07,.43-.31,.69-.12,.13-.28,.26-.47,.41-.08,.17,.02,.42,.02,.65,2.06,2.2,4.44,5.25,6.56,8.4,1.14,1.58,2.02,3.2,2.96,4.81l.68,1.2c.2,.38,.4,.75,.6,1.13,.33,.62,.65,1.23,.96,1.82,1.03,2.38,2.06,4.79,3.09,7.22-.25-.22-.5-.43-.76-.66-1.21-1.07-2.56-2.2-3.64-3.4,.67,1.78,1.25,2.66,1.86,3.5,.31,.42,.61,.83,.98,1.33,.38,.49,.79,1.09,1.26,1.88,.52,1.31,.51,2.44,.47,3.55-.03,1.1-.14,2.23,.09,3.57l.51-1.85c3.09,2.52,.82,2.67,3.82,4.22l-1.95,1.3c.81,.07,1.42,.79,1.86,1.66,.43,.88,.77,1.83,.89,2.46l1.84-.26c.17,.42,.35,.84,.52,1.26,.65,1.71,1.12,2.88,.67,4.14l.68-.87c2.64,6.43,5.28,12.87,7.95,19.26,6.71,16.19,13.4,32.09,19.65,46.86,1.51,4.09,4.93,9.1,7.59,14.05-.98,.38-1.98,.76-2.91,1.12-9.68,2.61-18.97,7.61-27.02,13.66-8.08,6.05-15,13.1-20.91,19.97-1.94,1.89-3.27,5.85-5.04,8.79,3.2-2.57,2.87-3.46,5.79-6.24,2.51-1.75,4.54-1.18,7.17-2.07l-1.94-.21c2.25-3.56,2.58-1.28,4.04-4.47l1.42,1.87c.04-.82,.75-1.49,1.61-1.99,.87-.49,1.89-.8,2.52-.92l-.21-1.92c2.54-.85,4.06-1.55,5.55-.81l-1.08-1.05c.66,.1,2.55-1.38,4.21-2.31,1.64-.97,3.02-1.41,2.51,.43,.4-.67,.52-1.66,1.92-2.38l1,1.12c1.67-1.5,3.66-3.04,4.63-2.61-.86,.9-.87,1.65-.87,2.42,4.02-2.21,3.89-3.44,3.62-4.73-.14-.64-.31-1.28,.02-2.01,.32-.74,1.16-1.55,3.05-2.5l.32,.91c.49-.62,.99-1.23,1.51-1.82l2.53,.21c.74-2.09,3.57-3.13,6.69-3.88,3.15-.7,6.54-1.16,8.84-2.48,.95-.33,2.16-.17,3.58,.06,.71,.1,1.46,.2,2.27,.22,.81,.05,1.67,.05,2.58-.11l-.39-1.45c.4,.15,.92,.27,1.54,.38,.62,.14,1.33,.27,2.1,.4,1.53,.23,3.31,.59,5.05,1,1.74,.43,3.45,1.01,4.85,1.67,1.41,.72,2.52,1.52,3.09,2.43,2.81-.8-.24-.37-.07-1.49,5.52-.9,5.58,1.6,8.1,2.93,1.67,0,1.09-.27,.33-.65-.76-.33-1.71-.74-.73-1.13,4.7,2.17,4.48-.97,10.38,1.78,.18,.5-.26,.51-.83,.43-.58-.05-1.3-.17-1.69,0,1.18-.09,2.54,.12,4.03,.48,.74,.18,1.52,.38,2.31,.63,.79,.27,1.61,.57,2.43,.88,3.31,1.23,6.79,2.93,10,4.23,6.76,4.22,17.07,10.28,25.29,16.01l.41-.39c1.5,1.56,3.46,2.54,5.5,3.49,2.11,.91,4.27,1.82,6.45,3.11-.63-.58-1.28-1.14-1.89-1.72,3.35,.48,4.73,1.81,7.78,2.61l1.03,2.1c3.35,.78,1.89-.67,4.47-.56,2.52,2.09,9.22,3.11,10.66,3.51,.83,.96-1.51,.62-2.13,.91,2.07,.28,3.11,.04,4.25-.12,1.16-.21,2.41-.33,4.9,.17v.43c6.22-.02,13.14,.12,20.16-.68,6.99-.78,14.04-2.42,20.04-5.16-.88,.18-.76-.2-1.18-.39,1.64-.52,3.23-1.23,4.86-1.9,1.62-.67,3.27-1.34,4.82-2.18,1.57-.81,3.17-1.58,4.7-2.45,1.5-.91,2.98-1.83,4.43-2.75,1.47-.89,2.78-1.96,4.09-2.97,1.29-1.03,2.57-2.03,3.71-3.11,2.24-2.21,4.27-4.36,5.77-6.63-1.32,1.16-3.11,2.2-4.99,3.36-.95,.56-1.92,1.17-2.94,1.73ZM113.71,200.2c-2.78-7-4.19-7.39-5.52-7.55-1.44-.17-2.78-.1-5.88-7.43l.96-.2-2.51-3.34c-.17-1.46-.36-2.92-.55-4.39-1.94-1.47-3.62-4.62-5.32-8.42,.02,0,.04,0,.06-.01,2.02,.05,3.11,1.66,5,2.36l-1.15-1.24c2.36-1.72,1.96,.36,3.71-1.53l.41,2.31c.47-1.33,2.51-.77,3.39-.34l.33-1.73c1.84,.51,2.99,.63,3.81,1.95l-.49-1.41c.82,.77,6.26-1.6,4.88,1.31,.4-.44,.66-1.28,1.74-1.36l.49,1.41c1.42-.72,3.03-1.38,3.65-.67-.73,.53-.86,1.23-.98,1.92,6.41-1.23,.24-5.03,5.82-6.48l.16,.95,1.19-1.33,1.77,.83c1.26-3.66,7.93-1.58,10.9-4.09,1.26-.58,3.47,.89,5.94,.07l-.51-1.4c2.39,.97,10.18,.05,12.89,2.92,1.64-1.58-.27-.25-.51-1.4,3.37-2.41,4.17-.21,6.34,.16,2.12-1.28-1.89-.12-.92-1.5,3.78,.23,2.42-2.47,7-2.58,.63,.7-.98,.84-1.3,1.48,2.7-2.22,8.61-2.71,13.08-4.11,5.44-.25,13.21-1.71,19.59-1.87v-.55c2.83,.73,5.26-1.18,8.35-1.28l-1.62-.42c1.71-1.37,2.93-1.05,4.65-1.87l1.37,1.27c1.85-.97,.57-1.48,1.81-2.61,2.03,.52,5.61-1.25,6.48-1.37,.76,.56-.51,1.14-.7,1.63,2.19-1.05,1.69-2.45,4.56-3.14l.14,.4c6.37-3.76,15.2-5.17,22.55-8.2-.54,.03-.47-.31-.74-.57,7.97-2.32,17.25-4.32,23-9.12-2.17,.57-5.22,.68-8.23,1.07-3.01,.39-5.99,1.04-7.94,2.88-1.88-.72-4.09,1.39-5.11,0-6.53,.69-8.51,4.01-14.61,5.43-.94-.08-.68-.92-1.1-1.57l4.69-1.82-3.09,.06c1.13-.96,4.36-1.18,4.41-2.62-3.88,2.59-10.95,2.83-14.2,5.63,1.82-.06,3.89-.98,5.97-1.32,1.02,.28,2.5,.32,2.57,1.07-5.4,3.43-10.5,3.56-16.37,5.62-1.47,.52-3.55,.89-3.97,.24,.93-.49,.04-.9,.78-1.44-1.99,1.12,.4,2.65-2.76,3.1l-.2-2.59c-.6,2.93-3.89,.44-5.72,2.5-1.03-.81,.29-1.74,1.96-2.21-2.03,.02-1.85,1.52-3.39,1.84l.94-2.48c-1.14,2.42-3.02,.3-4.11-.16,.01,.55,1.26,1.96-.81,2.33-.94-.06-.62-.71-.9-.96,.01,.55-.49,1.69-1.83,2.07-.42-.65,.64-1.29,.55-2.04-1.01,.29-1.81,.63-2.69,.22-1.66,1.03,.36,1-.55,2.04-2.89,.16-.87-2.4-2.26-3.67,1.84-1.52,4.45-2.49,5.43-3.32l-3.86,1.55c.04-.9-3.05-.78-1.14-2.1-4.18,.2-8.77,2.29-12.43,3.9,.61,.16,1.35,.16,1.37,.72-1.86,.98-1.89-.12-2.44-.62-1.32,.93-.81,2.33-1.45,3.62-3.31-.48-3.56,.36-6.56-.76l.51,1.4c-2.1-.72-1.84,1.53-4.01,1.16-.18-.28,.48-.83,1-1.32-1.62,.9-1.9-.82-3.46,.15l.95-1.93c-1.34,.39-3.2,1.37-2.83-.18-1.96,2.22-6.25,2.59-8.97,4.25l-.11-1.29c-1.15,1.88-5.61,1.29-6.49,3.42l-.35-.45-2.62,2.42c-1.41,.19-1.4-1.81-1.38-1.26-2.93,1.06-5.27,1.73-7.36,1.55-.08,1.79-3.15,3-5.62,3.82-12.4,1.86-25.05,6.5-36.02,10.79-.39,.09-.79,.3-1.21,.56-.12-.28-.24-.56-.36-.84-.27-.63-.55-1.26-.83-1.9l-.42-.97-.22-.56c-.29-.71-.57-1.41-.86-2.07-.62-1.32-1.24-2.52-2.29-3.69l-.17-.19-.09-.1-.04-.05s.02-.02,.03-.02l.28-.18c.18-.12,.34-.25,.49-.38,.88-.42,2.62-.54,4.2-.6,.8-.04,1.58-.05,2.33-.13,.18-.02,.37-.05,.56-.07h.07l.15-.05,.29-.07,.59-.15c.79-.21,1.61-.45,2.45-.74l-.87-1.28c2.95-.14,9.61-1.45,16.28-2.5,6.69-1,13.39-1.74,16.41-.78,4.88-2.49-.63-.15-.82-1.31,6.24-2.69,9.01-2.82,11.66-2.7,.11,.1,.23,.21,.38,.37,.21-.11,.35-.22,.45-.33,1.21,.07,2.46,.13,4.07-.01,6.07-2.32-4.92,.68-1.84-1.26,9.86-1.36,7.32-3.81,19.44-5.76,1.38,.52-2.93,1.32-4.02,2.15,7.98-3.56,23.8-6.36,36.22-9.36,14.5-2.1,35.75-5.91,52.7-7.24l.23-.58c1.79,.06,3.6-.05,5.42-.26,1.82-.18,3.67-.45,5.54-.75,3.75-.6,7.65-1.36,11.74-1.48l-4.06-.32c2.59-.77,4.65-1.1,6.69-1.35,.45-.07,.54-.04,.98-.28-.11,.53-.34,1.08-.7,1.64,.18-.28,.57-.64,.98-1.05,.43-.41,.83-.85,1.69-1.33,.02,.05-.13,.23-.24,.38-.55,.74-.62,1.1-.6,1.57,0,.2,.03,.5,.05,.62,.04-.12-.03,.41-.06,.66l-.1,.83c-.06,.51-.12,.92-.17,1.21-.49,.84-.65,.26-.73-.67-.04-.46-.06-1.01-.08-1.49-.01-.24-.03-.47-.05-.67-.04-.05-.08-.03-.13-.03,0,.13-.03,.55-.03,.8-.01,.39-.02,.76-.03,1.1-.01,.69,0,1.29,.03,1.85,.03,.38,.06,.73,.1,1.07h0c-1.76,.18-1.06,1.32-.26,1.58,0-.24,.21-.52,.37-.78,.05,.35,.09,.69,.14,1.04,.12,.93,.21,1.91,.22,3.19,.03,1.27,.02,2.83-.15,4.95l-.43,.11c.31,8.95,.55,18.7,.97,28.71-.83,2.27-1.44,4.49-1.53,6.57-1,.84-1.54,2.25-2.1,3.47-.55,1.22-1.06,2.27-1.99,2.33-1.23,1.93-2.12,3.65-2.89,5.25-.73,1.62-1.35,3.11-1.93,4.63-1.18,3.01-2.37,6.05-5.03,9.64-1,.85-1.23-.11-2.03-.26,1.24-1.98,2.36-4.03,3.48-6.07-.96,1.05-1.96,2.06-2.94,3.09,.25-.95,1.12-2.24,1.81-3.46,.66-1.24,1.16-2.38,.71-2.97-.93,2.95-3.11,6.21-5.35,9.29-2.26,3.07-4.54,5.98-5.65,8.57,1.97-1.57,3.71-4.2,5.65-6.42,1.23-.68,2.7-2.09,3.23-1.52-.84,2.04-1.91,3.83-3.02,5.54-1.18,1.66-2.38,3.25-3.74,4.71-2.66,3-5.65,5.7-8.87,8.86-1.59,1.61-4.16,3.34-4.88,2.97,1.02-1.09-.23-.91,.51-1.92-1.06,1.2-.73,1.78-.61,2.38,.13,.61,.03,1.22-1.98,2.42l-.97-2.45c.03,1.63-1.2,2.35-2.7,2.94-.74,.3-1.53,.61-2.27,1.01-.75,.38-1.44,.87-1.97,1.61-1.52-.36,.11-1.87,2.18-3.19-1.3,.55-1.86,1.09-2.31,1.72-.46,.6-.83,1.26-1.85,1.74,.32-.95,.58-1.97,.84-2.94-.26,.74-.64,1.23-1.09,1.52-.45,.27-.97,.37-1.48,.37-1.04,0-2.08-.37-2.82-.42,.07,.55,1.91,1.58-.89,2.62-1.28,.24-.89-.53-1.28-.7,.03,.28-.11,.75-.49,1.26-.39,.48-1.02,.98-1.94,1.34-.58-.57,.87-1.47,.72-2.22-1.36,.51-2.42,1.1-3.62,.79-2.29,1.3,.47,.96-.83,2.17-2,.32-2.25-.3-2.24-1.08,.02-.79,.27-1.8-.6-2.36,1.24-.92,2.71-1.64,3.98-2.39,1.26-.77,2.39-1.35,2.96-1.93-.77,.45-1.59,.79-2.39,1.2-.8,.4-1.61,.79-2.45,1.11,.04-.91-3.83-.42-1.41-2-2.58,.37-5.37,.99-8.16,1.71-1.4,.36-2.81,.67-4.18,1.04-1.39,.32-2.73,.62-3.99,.91,.75,.23,1.7,.33,1.6,.88-2.65,.76-2.43-.4-3.01-.97-1.94,.68-1.67,2.16-2.88,3.31-2.12-.62-3.3-.72-4.41-.92-1.11-.23-2.15-.53-3.86-1.49l.15,1.49c-2.44-1.35-2.97,.87-5.62-.24-.12-.33,.95-.59,1.81-.89-2.44,.3-2.07-1.47-4.44-1.13l2.01-1.44c-.91-.07-2.05-.05-2.82-.18-.77-.16-1.17-.44-.61-1.07-3.4,1.28-8.84-.41-12.96-.41l.56-1.19c-1.19,.52-3.03,0-4.85-.46-1.8-.52-3.57-1-4.73-.38l-.13-.59-4.51,.27c-1.74-.8-.44-2.4-.78-1.95-1.98-.6-3.76-1.13-5.26-1.83-1.51-.68-2.82-1.37-3.86-2.27-.67,.63-2.04,.58-3.66,.19-1.59-.44-3.42-1.22-5.01-1.97-1.74-1.21-3.57-2.3-5.3-3.55-.88-.6-1.77-1.2-2.66-1.8l-2.62-1.88c-.89-.61-1.75-1.25-2.6-1.91l-2.59-1.93-.44-.35Zm2.62,12.53l-.45,.53c-.33-.41-.7-.86-1.06-1.44,.45,.23,.94,.52,1.51,.92Zm41.66,131.29c-.09,.51,.33,1.11,.82,1.58-.09-.62-.19-1.23-.32-1.84l-.51,.26Zm1.15-.92c-.43-.35-.59-.83-.7-1.25-.1-.42-.14-.79-.18-.98-.11,.33,.04,.86,.32,1.46,.26,.59,.65,1.22,.81,1.74-.05-.67-.16-1.34-.32-1.99,.04,.33,.07,.68,.07,1.02Zm-.18-2.23c.3,.45,.44,1.06,.77,1.3,.38-.09-.46-1.04-.77-1.3Zm-10.96-12l.07,.24s.02-.08,.01-.15c-.03-.04-.06-.06-.08-.09Zm14.32,7.03c.21,.07,.41,.15,.62,.23-.06-.17-.09-.33-.16-.49-.15,.09-.3,.18-.46,.26Zm-15.15-7.31c.32,.04,.6,.02,.83,.28-.12-.39-.3-.64-.83-.28Zm18.99,6.97l1.23-.32c-.32-.3-.68-.56-1.02-.8-.93,.57,0,.57-.2,1.12Zm-25.71,3.35c-.92,.72,.25,.56,.75,.77,0-.41-.39-.58-.75-.77Zm-.81-1.56c-.39-.78-1.28-.08-2.05-.29,2.28,.49,0,1.05,2.05,.29Zm19-8.44l.03,.21c.54-.19,1.14-.34,1.75-.41-.62,0-1.22,.07-1.78,.2Zm4.3,4.96c-.35-.53-.85-.99-1.85-.71-.09,.46,.47,.6,.53,1.02-.38,.37-.63,.72-1.33,.97-1.16,.02-1.5,0-1.73-.17-.22-.14-.33-.42-.77-.31-.19,.04-.27-.12,.09-.77,.23-.16,.48-.72,.76-.96-.58,.37-1.45,2.23-1.51,1.87,.4-.76,.81-1.51,1.23-2.25-.72,1.16-.72,1.01-.75,.73,0-.28-.05-.74-.42-.01,.19-1.01,.57-1.54,.88-1.49-.16-.56-.67,.88-.84,.78,.25-.69,.54-1.36,.85-2.03-.47,.95-.53,.82-.55,.35-.01-.46,.03-1.27-.02-1.64-.11,.52-.28,2.19-.6,2-.12-.29,.03-.83,.03-1.14-.1,.53-.34,1.5-.55,1.54-.01-.74,.22-1.08,.31-1.83-.23,.01-.4,.17-.57-.44-.4,.61,.03,1.06-.17,1.85-.25-.26-.33-.87-.35-1.64-.03-.76,.03-1.67-.18-2.43,.57-1.1,1.56-1.39,2.03-1.9-.51,.14-1,.31-1.47,.52,.12-.87-1.11-1.45-.28-2.31-.86-.37-1.85-.2-2.69,.23-.85,.44-1.56,1.13-2.1,1.76,.32,.18,.63,.25,.8,.76-.45,.74-.82-.26-1.25-.74-.24,.81,.53,2.07,.84,3.16-.72-.3-1.02-.22-1.35-.23-.34,0-.67-.05-1.63-.42l1.03,1.07c-.63-.26-.58,.08-.49,.42,.09,.34,.22,.69-.31,.63-.27-.18-.38-.62-.48-1.01-.06,.75-1.33-.39-1.29,.47-.33-.47-.65-.95-.95-1.45-.34,.48-.39,1.45-1.38,.4,.39,.93,.25,1.62,.08,2.32-.17,.69-.38,1.41-.09,2.11l-1.2-.48c.64,.56,.45,1.07,.36,1.64-.1,.55-.12,1.12,.79,1.46l-.53,.04c.53,.45,1.09,.84,1.67,1.18-.15,.46-2.08,.39-1.55,.4,.4,1.16,.66,1.93,.22,2.83,.86-.13,1.48,.03,1.93,.28,.47,.25,.8,.6,1.07,.91,.19,.98,.72,1.9,1.44,2.62,.72,.72,1.66,1.21,2.62,1.47,1.96,.52,4-.08,5.25-1.15,.2-.05,.4-.57,.52-1.18,.12-.63,.17-1.34,.21-1.77-.45-.35-.32,.53-.74,.57-.35-.41-.47-2.22-.5-3.3-.01,.49-.01,.96,0,1.45-.16,.59-.21,.38-.23,.22-.03-.16-.03-.28-.25,.44l.36-2.32c-.22,1.17-.21,.18-.06-.41-.14,.52-.3,1.04-.46,1.55,.11-.89,.2-1.26,.74-2.63l-.54,1.38c.16-.45,.08-.41,.13-.58,.02-.08,.07-.2,.19-.43,.05-.08,.11-.2,.21-.37h0s.04,.08,.04,.1c-.01-.06-.02-.09-.02-.12h.02s.01,.02,0,0h0c.1-.02,.26-.01,.43,.01,.18,0,.42,.01,.72,.02,.27,.17,.41,.39,.79,.88,.37,.5,.98,1.31,1.87,3.02,.12-.4,.83-.45,1.33-.83,.46-.37,.68-1.05-.56-1.77,.57,.03,.49-.19,.45-.34-.03-.16-.02-.28,.76-.24,.42-.56-.13-1.06-.78-1.32-.65-.29-1.41-.38-1.53-.71,.22-.2,.95-.42,1.62-.72,.32,.18,.67,.39,.97,.65,.17-.24,.3-.49,.43-.76,.77,.07,.42,.88,1.81,.75-.92-.41-1.16-.99-1.54-1.53Zm-7.44,3.51c-.35,.34-.64,.56-.71,.51l.73-.62c-.26,.21-.54,.41-.83,.6,.29-.27,.62-.53,.94-.77-1.36,.94-1.4,.71-1.22,.49,.1-.12,.25-.24,.26-.3,.03-.07-.08-.07-.52-.01-.15,0,.26-.17,.67-.29,.4-.12,.84-.19,.73-.2l-1.47,.13c.37-.07,.7-.13,1.06-.17,.18-.02,.36-.03,.54-.03,.16,0,.49,.02,.4,.02,0,0,0,0,.02,0-.01,0-.03,.01-.05,.02h-.03s.06,0,.08,0c-.22,.22-.43,.43-.61,.61Zm.6-.58s0,0,0,0h0Zm0-.01h0c-.03,.06-.04,.07-.01,.03l.03-.04h0Zm.04-.06h0Zm-9.81-10.31c-.12,.42-.22,.83-.31,1.23l.25,.02c-.31-.65,.17-.73,.05-1.25Zm97.53,23.82c-.53,.31-1.02,.68-1.43,1.08l.13,.17c.37-.44,.8-.88,1.3-1.25Zm-11.46,6.64c.3-.13,.53-.29,.85-.18-.3-.27-.58-.4-.85,.18Zm15.12,5.73c-.57-.07,0,.62-.35,.87-.51-.18-1.54-1.67-2.11-2.59,.24,.43,.48,.84,.74,1.25,.17,.59,0,.43-.09,.31-.11-.12-.16-.23,0,.51l-.87-2.18c.4,1.12-.09,.26-.26-.32,.14,.52,.27,1.04,.39,1.57-.36-.83-.47-1.18-.71-2.64l.24,1.46c-.09-.47-.14-.39-.19-.57-.02-.08-.04-.21-.05-.47v-.42h0s.08,.05,.09,.07c-.05-.05-.06-.07-.08-.09h.03s0,0,0,0c.01,0,.01,0,0,0h0c.08-.07,.23-.15,.39-.21,.16-.09,.37-.2,.63-.35,.32,0,.55,.13,1.12,.35,.57,.24,1.52,.63,3.14,1.64-.09-.4,.49-.81,.72-1.39,.21-.55,.05-1.25-1.38-1.24,.51-.26,.33-.41,.22-.53-.11-.12-.16-.23,.53-.6,.07-.7-.65-.84-1.35-.74-.71,.08-1.41,.38-1.68,.17,.09-.28,.61-.85,1.03-1.45,.37-.01,.77,0,1.17,.07,.03-.29,.01-.57-.01-.87,.7-.33,.81,.55,1.94-.28-1.01,.11-1.5-.26-2.1-.53-.57-.28-1.24-.42-1.96,.33,.16,.45,.7,.28,.98,.61-.14,.52-.17,.94-.65,1.51-.99,.61-1.3,.76-1.58,.73-.26,0-.5-.19-.82,.12-.15,.14-.29,.04-.32-.71,.12-.25,.04-.86,.17-1.21-.31,.62-.11,2.65-.35,2.38-.04-.86-.07-1.71-.09-2.57-.03,1.36-.11,1.23-.27,1-.15-.24-.42-.61-.37,.2-.35-.96-.29-1.62,0-1.73-.42-.4-.13,1.1-.33,1.1-.13-.72-.23-1.45-.3-2.18,.08,1.06-.04,.97-.3,.59-.25-.39-.62-1.11-.85-1.4,.17,.51,.88,2.02,.5,2.03-.25-.19-.4-.73-.56-1,.19,.51,.47,1.46,.31,1.6-.38-.63-.36-1.04-.66-1.73-.19,.13-.26,.35-.72-.09-.03,.73,.56,.9,.79,1.68-.35-.09-.73-.58-1.14-1.23-.41-.64-.82-1.45-1.39-2-.07-1.24,.63-1.99,.78-2.67-.37,.38-.7,.78-1,1.2-.35-.81-1.69-.68-1.42-1.84-.93,.12-1.69,.77-2.2,1.57-.51,.81-.77,1.77-.91,2.59,.37,0,.67-.11,1.08,.25,0,.87-.84,.2-1.45,0,.2,.82,1.51,1.51,2.34,2.29-.77,.1-.99,.33-1.28,.49-.29,.17-.6,.3-1.61,.47l1.43,.4c-.67,.1-.46,.37-.21,.61,.25,.25,.54,.48,.05,.7-.32-.02-.65-.34-.93-.62,.34,.68-1.34,.34-.87,1.07-.52-.23-1.05-.49-1.56-.77-.05,.58,.4,1.45-.98,1.05,.81,.6,1.04,1.27,1.25,1.96,.2,.68,.39,1.4,1,1.86l-1.27,.2c.84,.15,.93,.7,1.15,1.22,.19,.53,.47,1.03,1.43,.86l-.44,.3c.68,.12,1.37,.17,2.04,.16,.11,.47-1.59,1.39-1.13,1.13,.93,.79,1.56,1.32,1.63,2.33,.67-.55,1.28-.73,1.8-.75,.53-.03,.99,.11,1.39,.24,.67,.75,1.59,1.27,2.57,1.52,.99,.25,2.04,.2,3-.07,1.95-.55,3.4-2.1,3.93-3.66,.14-.15,.05-.69-.16-1.28-.21-.6-.54-1.24-.72-1.63Zm-3.26-3.3h0Zm-.22,.9c-.13,.48-.27,.81-.35,.8l.31-.91c-.12,.32-.25,.63-.4,.94,.12-.38,.26-.77,.42-1.14-.69,1.5-.84,1.33-.8,1.05,.03-.16,.09-.34,.07-.39,0-.07-.11-.02-.46,.25-.13,.07,.14-.28,.43-.59,.28-.31,.63-.59,.52-.54l-1.2,.87c.28-.25,.53-.47,.83-.69,.14-.11,.29-.21,.45-.3,.13-.08,.44-.23,.35-.19,0,0,0,0,.02,0-.01,.01-.01,.02-.03,.04l-.02,.02s.05-.04,.06-.06c-.07,.3-.15,.59-.21,.83Zm.22-.8c0,.05,0,.07,0,.02v-.05h0v.03Zm0,0h0s0,0,0,0Zm-13.1-2.86c-.59-.4-.23-.71-.59-1.11,.11,.42,.23,.82,.36,1.21l.23-.11Zm2.09,.16l.18,.17s-.02-.08-.06-.13c-.04-.02-.08-.02-.12-.04Zm16.56-1.36c-.13-.12-.25-.24-.39-.34-.08,.15-.17,.3-.26,.46,.21-.05,.43-.08,.65-.11Zm2.47-2.13l.89-.9c-.43-.09-.87-.13-1.29-.16-.51,.97,.29,.49,.39,1.07Zm-2.17,8.97c.28-.27-.92-.66-1.33-.73,.48,.23,.91,.69,1.33,.73Zm-.56,2.48c.18,.48,.85,.79,1.51,.94-.39-.49-.79-.96-1.21-1.42l-.3,.48Zm-.06-2.22c.2,.26,.41,.55,.58,.84-.54-.08-.93-.41-1.24-.72-.3-.31-.53-.61-.65-.76,.07,.34,.48,.72,1.02,1.1,.53,.38,1.18,.71,1.59,1.08-.38-.55-.82-1.07-1.29-1.55Zm-17.64,6.75c-.43,1.09,.51,.36,1.04,.28-.22-.35-.63-.3-1.04-.28Zm-3.4-.14c2.21-.74,.54,.9,1.91-.79-.74-.47-1.14,.59-1.91,.79Zm78.66-14.36c.31-.53,.54-1.1,.71-1.65l-.2-.08c-.1,.57-.26,1.16-.51,1.73Zm-8.79,1.61l-.33,1.23c.42-.14,.82-.32,1.2-.5-.04-1.09-.49-.28-.87-.73Zm-3.09-9.83c.51-.2,1.01-.11,1.43,0,.42,.12,.76,.27,.94,.33-.23-.26-.77-.39-1.43-.45-.65-.06-1.38-.03-1.91-.15,.6,.29,1.25,.52,1.89,.7-.31-.13-.63-.28-.92-.44Zm-.23-1.46c-.4-.33-1.13-.27-1.78-.06,.58,.23,1.17,.44,1.76,.63l.02-.57Zm18.1-1.2l-.24-.06s.06,.06,.12,.08c.05,0,.08-.02,.12-.03Zm-17.36,3.63c-.11,.38,1.13,.12,1.51-.03-.53,.04-1.14-.14-1.51,.03Zm18.01-4.21c-.2,.26-.31,.51-.65,.58,.4,.09,.71,.06,.65-.58Zm-.18,5.12c-.43-.75,.63-.59,1.26-.72-.58-.61-2.07-.56-3.16-.83,.62-.47,.7-.78,.87-1.06,.16-.29,.37-.56,1.17-1.21l-1.44,.36c.53-.42,.22-.55-.12-.63-.34-.09-.71-.15-.39-.58,.29-.14,.73-.03,1.12,.08-.63-.42,.99-.96,.23-1.36,.57-.06,1.15-.1,1.73-.11-.25-.53-1.07-1.06,.33-1.4-1-.12-1.53-.58-2.06-1.08-.52-.49-1.04-1.02-1.79-1.12l1.01-.8c-.8,.28-1.15-.14-1.6-.49-.43-.36-.92-.66-1.67-.03l.23-.48c-.65,.24-1.27,.54-1.85,.87-.33-.36,.69-2,.41-1.54-1.2-.22-2.01-.38-2.57-1.21-.31,.81-.75,1.27-1.19,1.54-.45,.29-.92,.4-1.32,.48-.95-.32-2.01-.31-2.99-.04-.98,.27-1.87,.84-2.57,1.55-1.42,1.44-1.91,3.51-1.6,5.13-.05,.2,.3,.63,.77,1.03,.49,.42,1.08,.81,1.43,1.06,.53-.22-.3-.54-.12-.93,.53-.1,2.17,.69,3.12,1.2-.42-.25-.83-.49-1.26-.71-.44-.43-.22-.37-.08-.31,.15,.05,.26,.11-.26-.44l1.84,1.45c-.91-.77-.05-.27,.38,.15-.38-.38-.76-.77-1.12-1.17,.72,.54,.99,.8,1.93,1.94l-.94-1.15c.31,.36,.31,.28,.45,.4,.06,.06,.14,.16,.28,.38l.22,.36h0s-.1,0-.12-.01c.06,.02,.09,.03,.11,.04l-.02,.02h0s-.01,0,0,0h0c-.04,.1-.13,.24-.24,.38l-.37,.61c-.28,.15-.54,.16-1.15,.25-.62,.07-1.63,.21-3.54,.13,.28,.3-.02,.95,.07,1.57,.09,.58,.57,1.11,1.82,.39-.31,.48-.08,.52,.08,.56,.16,.05,.25,.12-.16,.78,.28,.64,.98,.41,1.54-.03,.58-.42,1.03-1.03,1.37-.98,.06,.29-.1,1.04-.17,1.77-.31,.2-.67,.39-1.05,.52,.12,.27,.27,.5,.44,.75-.44,.63-.98-.07-1.54,1.21,.82-.6,1.43-.52,2.09-.58,.63-.04,1.28-.25,1.53-1.26-.36-.31-.75,.11-1.15-.04-.14-.51-.32-.9-.18-1.64,.56-1.02,.75-1.31,1-1.42,.23-.13,.53-.08,.65-.51,.06-.19,.23-.18,.63,.46,.02,.27,.39,.77,.45,1.14-.04-.69-1.22-2.36-.88-2.23,.46,.72,.91,1.45,1.35,2.19-.65-1.2-.52-1.12-.26-1.01,.25,.13,.67,.32,.22-.36,.78,.66,1.06,1.26,.86,1.5,.56,.13-.44-1.02-.26-1.12,.47,.56,.92,1.14,1.34,1.74-.6-.88-.45-.87-.04-.66,.41,.22,1.09,.65,1.43,.79-.4-.35-1.76-1.32-1.44-1.51,.31,.04,.71,.44,.98,.59-.41-.35-1.14-1.04-1.06-1.23,.65,.35,.83,.73,1.43,1.17,.1-.21,.05-.43,.67-.28-.33-.64-.93-.5-1.52-1.06,.35-.09,.92,.14,1.6,.51,.68,.35,1.43,.85,2.2,1.05,.68,1.04,.44,2.04,.65,2.7,.13-.51,.22-1.03,.27-1.54,.7,.53,1.8-.25,2.15,.89,.74-.57,1.09-1.51,1.13-2.46,.04-.96-.21-1.91-.5-2.7-.32,.19-.53,.43-1.06,.32Zm-11.37-1.41s0,0,0,0h0Zm0,.01h0c-.02-.06-.03-.07,0-.04l.02,.04h0Zm.04,.06h0Zm.46-.9c-.07,.16-.15,.32-.24,.49-.07,.14-.26,.42-.21,.34,0,0,0,0-.01,.01,0-.02,0-.03,0-.05v-.03s-.01,.06-.02,.08l-.23-.83c-.12-.48-.17-.83-.1-.87l.18,.94c-.05-.33-.09-.67-.12-1.02,.09,.39,.16,.8,.2,1.2-.15-1.64,.07-1.57,.17-1.3,.06,.15,.09,.33,.13,.37,.05,.06,.1-.03,.27-.45,.08-.12,.02,.31-.08,.72-.09,.41-.25,.83-.19,.73l.61-1.35c-.12,.35-.23,.67-.38,1.01Zm7.14-13.76c.87,.04,.7-1.08,1.27-1.64-1.55,1.74-.92-.51-1.27,1.64Zm5.14,10.56c.71,.05,.55,.51,1.06,.67-.3-.31-.61-.6-.92-.88l-.15,.21Zm-7.93-10.35c.36,.2,.69-.05,1.04-.27-.17-1.16-.62-.06-1.04,.27Zm-7.15,20.23c-.16,.15-.33,.29-.51,.42,.17,.03,.33,.09,.51,.1,0-.18,0-.35,0-.53Zm-167.79,40.16c.12-.3,.17-.58,.48-.73-.41,.02-.7,.13-.48,.73Zm8.32,9.08c.47,1.07,.61-.11,.93-.54-.4-.09-.66,.23-.93,.54Zm8.08-15.07c-.58-.28-1.26-.49-1.66-.65-.45,.35,.43,.44,.36,.86-.48,.24-2.27-.09-3.32-.34,.47,.13,.93,.25,1.4,.36,.54,.3,.31,.3,.16,.28-.16-.01-.28-.04,.36,.35l-2.16-.92c1.08,.51,.12,.24-.41-.05,.47,.27,.93,.54,1.39,.83-.84-.33-1.17-.51-2.37-1.37l1.21,.86c-.4-.27-.38-.18-.53-.27-.07-.04-.18-.12-.37-.3-.07-.06-.16-.16-.3-.29h0s.1-.02,.12-.02c-.06,0-.1,0-.12,0l.02-.02s0,.01,0,0c0-.01,.01,0,0,0h0c.02-.11,.07-.27,.13-.43l.2-.69c.23-.22,.48-.3,1.04-.54,.57-.23,1.52-.63,3.39-1.06-.35-.22-.23-.92-.47-1.5-.24-.54-.84-.92-1.86,.1,.17-.55-.06-.52-.22-.53-.17,0-.28-.05-.05-.8-.44-.54-1.06-.13-1.48,.43-.45,.55-.72,1.27-1.07,1.31-.13-.26-.17-1.03-.29-1.75,.25-.27,.54-.55,.87-.78-.19-.23-.4-.41-.62-.61,.26-.73,.96-.19,1.17-1.57-.63,.79-1.25,.87-1.86,1.11-.6,.2-1.17,.58-1.15,1.62,.43,.21,.69-.3,1.12-.26,.27,.46,.54,.79,.61,1.53-.27,1.13-.38,1.46-.6,1.63-.19,.18-.49,.22-.49,.67,0,.2-.18,.23-.73-.28-.09-.26-.58-.64-.74-.98,.22,.65,1.8,1.96,1.44,1.92-.63-.58-1.26-1.16-1.88-1.75,.94,.98,.8,.95,.52,.9-.28-.06-.73-.14-.12,.4-.93-.44-1.35-.94-1.22-1.22-.58,.02,.69,.87,.54,1.01-.6-.41-1.19-.86-1.75-1.33,.81,.69,.66,.72,.21,.62-.45-.1-1.22-.34-1.59-.39,.48,.24,2.05,.81,1.79,1.08-.31,.04-.8-.23-1.1-.31,.49,.23,1.37,.7,1.35,.91-.72-.17-.99-.48-1.69-.76-.05,.23,.06,.43-.57,.45,.49,.53,1.03,.24,1.75,.63-.31,.18-.93,.1-1.68-.07-.75-.16-1.61-.44-2.39-.43-.93-.82-.96-1.85-1.34-2.44,0,.53,.05,1.05,.14,1.55-.82-.33-1.68,.71-2.31-.3-.57,.74-.65,1.74-.44,2.67,.21,.93,.71,1.79,1.19,2.47,.26-.27,.4-.55,.94-.59,.61,.62-.45,.73-1.02,1.03,.72,.44,2.14,0,3.27-.03-.47,.62-.47,.94-.56,1.25-.08,.33-.21,.63-.81,1.47l1.29-.73c-.4,.55-.07,.59,.28,.58,.36,0,.72-.04,.53,.46-.25,.21-.69,.22-1.1,.22,.72,.24-.71,1.19,.14,1.37-.54,.21-1.08,.39-1.64,.56,.38,.45,1.31,.74,.05,1.43,1-.15,1.63,.16,2.27,.5,.63,.34,1.27,.71,2.02,.61l-.76,1.04c.7-.49,1.15-.17,1.67,.05,.51,.24,1.06,.39,1.62-.41l-.1,.52c.56-.4,1.09-.85,1.56-1.33,.41,.26-.14,2.11,0,1.6,1.22-.1,2.04-.16,2.8,.49,.08-.87,.39-1.42,.75-1.8,.36-.39,.78-.63,1.15-.81,1,.06,2.02-.23,2.89-.74,.88-.52,1.59-1.3,2.07-2.17,.99-1.77,.92-3.89,.19-5.37,0-.21-.46-.53-1.01-.79Zm-6.23-.61s0,0,0,0h0Zm-.01,0h.01s.04,.06,.01,.03l-.03-.04h0Zm-.06-.05h0Zm0,0h0Zm.8,1.61l-.42-.86c.14,.31,.27,.63,.38,.95-.18-.35-.36-.73-.51-1.1,.57,1.55,.34,1.53,.18,1.3-.09-.13-.17-.3-.23-.32-.06-.05-.09,.06-.14,.5-.05,.14-.1-.3-.11-.72-.02-.42,.02-.86-.01-.75l-.24,1.46c.03-.37,.05-.71,.1-1.07,.03-.18,.06-.35,.11-.53,.04-.15,.14-.47,.12-.39,0,0,0,0,0-.02,0,.02,0,.03,0,.05,0,.02,0,.02,0,.03,0-.03,0-.07,0-.09,.16,.26,.31,.53,.44,.74,.24,.43,.38,.76,.32,.82Zm-10.43,4.33h.25s-.07-.05-.14-.06c-.05,.01-.07,.04-.11,.06Zm2.68-10.3l.21,.03c-.05-.57-.05-1.19,.04-1.8-.16,.6-.24,1.2-.25,1.77Zm11.66,2.66c.51-.18,1.13-.16,1.45-.42,0-.39-1.12,.18-1.45,.42Zm-3.35-8.3v-1.27c-.37,.24-.72,.52-1.03,.79,.32,1.04,.55,.14,1.03,.48Zm3.18,8.97c.29,.19,.85,.17,1.49,.06,.64-.11,1.34-.33,1.89-.36-.66-.12-1.34-.18-2-.18,.33,.04,.68,.1,1.01,.18-.44,.33-.95,.37-1.38,.37-.43,0-.8-.06-1-.07Zm-8.83,19.07c1.04-2.09,1.02,.25,.79-1.91-.85,.19-.39,1.22-.79,1.91Zm11.81-18.02c.47,.21,1.16-.04,1.73-.4-.62-.07-1.24-.12-1.86-.15l.13,.55Zm-19.95,6.91c.37,.22,.75,.42,1.11,.6l.09-.24c-.7,.14-.66-.34-1.2-.36Zm13.16-13.13c.12-.18,.24-.36,.38-.54-.18,.01-.35,0-.52,.03,.05,.17,.1,.33,.14,.51Z"/></g></svg>