<?xml version="1.0" encoding="UTF-8"?><svg xmlns="http://www.w3.org/2000/svg" xmlns:xlink="http://www.w3.org/1999/xlink" viewBox="0 0 434.65 434.65"><defs><style>.d{fill:url(#c);}</style><linearGradient id="c" x1="218.41" y1="367.44" x2="218.41" y2="70.79" gradientTransform="matrix(1, 0, 0, 1, 0, 0)" gradientUnits="userSpaceOnUse"><stop offset="0" stop-color="#d1d706"/><stop offset="1" stop-color="#88bd32"/></linearGradient></defs><g id="a"/><g id="b"><path class="d" d="M254.32,103.7c.69,1.71,1.6,3.67,1.15,3.57,1.31,1.59,1.81,1.81-1.15-3.57Zm48.42,127.42c1.64,6.49,3,13.11,3.22,20.04-.15-7.4-1.58-14.48-3.3-21.42l.08,1.38Zm-95.79,36.79l1.5,1.59c1.19,.15,2.39,.32,3.58,.48-.34,1.15-.64,2.31-.93,3.42l.97-2.17c1.22-.47,1.51,0,1.41,.63-.08,.66-.49,1.52-.7,1.95,1.24-1.49,1.15-2.15,.69-2.6-.45-.44-1.25-.68-1.4-1.25,2.22,.3,4.43,.61,6.65,.96-3.86-1.96-6.17-1.61-11.77-3.03Zm94.65-16.98c-1.3-2.22-1.29-5.52-1.49-9.4-.19-3.87-.57-8.27-2.2-12.06,.34-3.07,2.23,2.04,3.26,8.23-.32-3.55-.99-5.41-1.64-7.07-.67-1.66-1.36-3.11-2.01-5.87,1.14,1.57,2.25,3.16,3.34,4.78-3.31-5.48-2.17-10.7-2.45-14.27-.64-.24-1.31,3.28-3.37-4.07-.7-3.22,.32-1.78,.39-2.61-.65-.24-2.39-2.57-4.07-7.32,.4-1.11,2.11,2.82,2.93,2.91-1.24-3.61-2.4-6.5-2.76-9.32-2.88-6.15-.84,.77-3-2.84-3.14-9.88,2.02-1.86,2.13-5.99,3.8,6.96,7.39,16.48,9.2,20.37-1.72-4.78-3.54-9.5-5.45-14.17,1.15,.57-2.17-10.13,1.4-2.91-4.46-14.53-12.54-30.98-19.33-43.74,.6,1.98,1.54,4.45,.87,4.28-3.6-6.56-2.31-6.25-2.4-7.9-2.93-4.73-4-3.52-6.48-6.07-1.96-5.37-3.34-8.31-4.57-11.1-1.23-2.78-2.31-5.4-3.84-10.11l-1.01,1.24c-2.27-6.61-4.7-6.4-7.7-13.22,.07-.52,1.84,1.74,3.28,3.55-3.74-5.44-1.97-5.89-5.87-11.1l4.1,3.51c-2.68-4.41-7.34-10.52-4.69-9.04-2.34-2.43-4.94-5.74-8.03-9.36-.41-.47-.82-.94-1.23-1.41-.57-.64-1.15-1.29-1.75-1.91-1.2-1.25-2.46-2.44-3.81-3.45-1.35-1.02-2.79-1.83-4.34-2.33-.77-.24-1.61-.4-2.43-.36-.8,.12-1.61,.21-2.38,.42-2.41,.72-4.63,2.04-6.67,3.43-.99,.75-1.97,1.53-2.86,2.25-.67,.62-1.27,1.19-1.87,1.78l-.21-1.49c-1.93,2.6-5.95,6.34-9.57,10.22-3.64,3.86-6.99,7.78-7.93,10.29l-.95,.3c-2.06,3.29-4.08,6.6-6.05,9.91-3.39,3.92-3.78,1.35-3.63,2.01-6.88,9.08-12.2,16.21-17.14,21.62,.25,2.5-6.55,12.29-12,20.03-1.75,2.25-3.49,4.57-5.26,6.62l-1.32,1.59-.66,.8-.72,.73-2.88,2.94c-4.01,3.72-8.46,6.91-13.37,9.39-9.81,5.02-21.33,7.08-32.62,10.21-5.67,1.49-11.28,3.33-16.73,5.43-1.35,.55-2.7,1.11-4.05,1.66-1.34,.55-2.68,1.2-4,1.83-2.63,1.31-5.17,2.8-7.57,4.5-2.39,1.7-4.62,3.68-6.49,5.96-1.88,2.27-3.34,4.89-4.24,7.65-.91,2.75-1.26,5.61-1.22,8.39,.05,2.78,.48,5.48,1.07,8.09,.6,3.15,2.03,6.7,3.77,10.3,1.72,3.61,3.71,7.31,5.33,10.98-1.3-4.71-2.25-7.17-3.19-9.61-.92-2.44-1.96-4.84-3.02-9.38-.54-3.46-.28-5.88,.25-8.02,.54-2.13,1.32-4.03,2.35-6.26l-.95,1.09-.88,1.22c-.11-2.11,.23-3.47,.51-4.45,.17-.48,.34-.86,.49-1.19,.17-.32,.35-.58,.5-.84,.3-.52,.65-.94,.99-1.65,.38-.7,.83-1.65,1.63-3.18l1.61,1.74c.23-1.19,1.57-2.69,3.33-3.79,.41-.29,.87-.55,1.33-.78,.46-.23,.89-.46,1.33-.64,.9-.35,1.68-.65,2.3-.82,.39-.82,.8-1.66,1.24-2.51,1.39-.41,2.62-.82,3.79-1.1,.58-.14,1.13-.28,1.64-.41,.53-.11,1.05-.2,1.53-.28,1.93-.31,3.39-.36,4.46,.02l-1.03-1.2c.58,0,2.22-.41,4.25-.99,2-.62,4.48-1.26,6.67-1.8,4.43-1.02,7.82-1.47,4.71,.61,1.56-.76,2.94-1.87,6.71-2.58l.91,1.31c5.33-1.59,11.59-3.5,13.47-3.21-3,1.2-3.88,2.11-4.72,2.98,1.48-.33,2.85-.74,4.05-1.09,1.21-.37,2.23-.66,3.16-1.03,1.85-.72,3.15-1.33,4.07-1.86,1.85-1.17,2.19-1.98,2.43-2.74,.23-.78,.38-1.5,1.76-2.6,.68-.59,1.66-1.29,3.1-2.15,.36-.21,.75-.43,1.17-.68,.41-.27,.85-.55,1.31-.86,.94-.6,2.01-1.26,3.24-1.99l.29,.94c1.45-1.37,2.82-2.82,4.19-4.21,1.8-.97,3.59-2.02,5.42-3.08,.45-1.03,1.1-2.17,1.95-3.37,.42-.6,.89-1.22,1.4-1.86,.5-.64,.96-1.36,1.49-2.06,.52-.71,1.08-1.44,1.66-2.18,.58-.74,1.21-1.51,1.75-2.24,1.13-1.49,2.33-3.03,3.57-4.59,4.96-6.25,10.47-12.84,13.59-18.38,2.79-4.11,8.27-8.1,13.92-15.56l-1.54-.44c2.94-2.5,9-9.1,15.37-15.17,3.18-3.04,6.44-5.94,9.37-8.15,2.92-2.21,5.48-3.76,7.24-4.2,3.93-5.13-.7,.18-1.41-.71,1.17-1.42,2.23-2.55,3.19-3.46,.24-.22,.47-.43,.7-.64,.2-.17,.39-.34,.57-.51,.12-.11,.25-.2,.37-.27,.5-.28,.93-.22,1.23,.04,.47,.33,.57,1.41,.5,1.85,.4-.12,.49-.23,.39-.61-.04-.18-.12-.39-.14-.61-.02-.22,0-.47,.29-.62,.21,.36,.34,.61,.48,.8,.07,.09,.13,.17,.2,.24,.05,.05,.04,.03,.16,.16,.14,.16,.29,.31,.42,.46,1.11,1.21,2.08,2.12,3.11,3.12,2.04,2.03,4.37,4.42,8.12,11.4,.12,1.76-2.63-3.16-3.98-4.19,3.63,4.18,7.89,10.97,12.12,18.61,4.23,7.64,8.44,16.11,12.27,23.59,3.76,8.85,8.45,19.8,12.85,31.26,4.41,11.45,8.51,23.42,11.33,34.09l.64,.22c.77,4.57,2.15,9.1,3.51,13.8,1.35,4.69,2.71,9.57,3.31,14.62-.04-1.67-.11-3.37-.21-5.07,1.17,3.21,1.73,5.78,2.12,8.27,.39,2.5,.64,4.93,.99,7.85-.46,1.12-.96,2.18-1.49,3.16,.1,1.44,.18,2.27,.29,2.8,.11,.54,.25,.79,.4,1.01,.16,.22,.33,.4,.47,.75,.14,.35,.26,.9,.25,1.74-.26,.44-.49,.94-.74,1.32-.12,.19-.24,.38-.35,.52-.05,.09-.1,.14-.15,.2l-.09,.12-.21,.27c-1.1,1.46-2.24,3-3.42,4.19-.29,.31-.57,.61-.85,.9-.29,.26-.58,.51-.86,.76-.53,.55-1.11,.87-1.59,1.27-.24,.2-.48,.35-.72,.48-.23,.14-.45,.26-.64,.38-.38,.25-.73,.39-.97,.47-.8-.05-.47-.47,.07-.91,.51-.52,1.23-1.07,1.38-1.44-2.04,1.56-3.14,2.27-4.49,3.14-.72,.36-1.47,.79-2.65,1.05-.29,.07-.59,.17-.93,.22-.35,.04-.72,.09-1.12,.14-.78,.12-1.75,.11-2.85,.11l-.14-.42c-2.66,.19-5.62,.1-8.73-.2-3.13-.33-6.42-.86-9.8-1.51-6.79-1.33-13.95-3.11-21.29-4.86-7.34-1.75-14.86-3.49-22.41-4.86-3.77-.69-7.54-1.31-11.29-1.81-1.88-.24-3.74-.51-5.6-.68-.93-.09-1.86-.19-2.78-.28l-1.39-.13-1.47-.1c2.11,.32,1.52,.58,2.25,1-3.98-.49-8.23-.7-12.4-.54-4.2,.16-8.39,.68-12.51,1.47-8.25,1.58-16.13,4.33-23.42,7.48-14.63,6.31-26.89,14.12-37.77,18.59,7.72-1.96,17.91-6.11,28.13-10.37,5.11-2.13,10.25-4.24,15.11-6.18,4.86-1.93,9.45-3.68,13.44-5.3,3.19-.18,7.08-1.02,10.6-1.46,3.52-.44,6.63-.54,7.93,.26,3.02,.08,5.8,.26,8.4,.57,2.58,.31,4.99,.6,7.3,.88,4.59,.58,8.75,1.02,12.88,1.56,8.25,1.04,16.41,2.3,27.5,5.2,1.59,.57,1.91,.93,1.94,1.28,0,0,0-.02,0-.02,5.46,.88,10.61,1.9,15.61,2.87,4.99,.96,9.84,1.86,14.62,2.36l1.79,.18,1.78,.1c1.19,.1,2.35,.05,3.53,.07,.59,0,1.16-.07,1.74-.09,.58-.03,1.16-.06,1.73-.16,.57-.08,1.14-.15,1.71-.23,.55-.12,1.11-.25,1.67-.37,4.43-1.04,8.47-3.35,11.78-7.04,.21-.23,.44-.44,.65-.69,.2-.25,.41-.51,.62-.77,.41-.53,.88-1.02,1.28-1.58,.41-.56,.82-1.11,1.21-1.66,.21-.27,.41-.54,.52-.72,.14-.2,.27-.42,.39-.63,1.01-1.71,1.57-3.54,2.03-3.84-.23,1.59-.13,1.81,.07,2.01,.17,.18,.42,.32,.1,1.62,.51-1.68,.44-2.68,.31-3.28-.16-.61-.42-.85-.64-1.17-.23-.33-.39-.73-.44-1.68-.05-.96,.05-2.45,.11-5.1,.87,.45,1.71,.92,2.56,1.41Zm-46.13-143.65c-.25-.31-.52-.64-.84-1.03,.23,.34,.41,.64,.69,1.02,.1,.08,.1,0,.15,.02Zm-45.54,157.31l-5.48-.51c2.9,.54,5.8,1.1,8.68,1.71l-3.2-1.2Zm-28.78-157.49c3.26-4.62-.52-1.39-.09-3.13-.5,4.22-4.49,5.53,.09,3.13Zm-95.85,174.32c-.3,.19-1.37-.1-2.15-.22-.74-.18-1.21-.16-.18,.7,2.74,1.61,3.99,1.57,4.09,1.28,.13-.33-.74-1.04-1.76-1.76ZM170.55,122.61c2.03-2.51,2.85-4.13,3.68-5.73-3.42,2.74-2.58,3.57-3.68,5.73Zm89.96-12.32c-1.71-2.64-3.45-5.27-5.22-7.88l.52,1.29c1.74,1.67,3.14,4.71,4.71,6.59ZM71.12,270.15c-1.62-3.72-.99-3.71,.18-2.52,1.14,1.22,3.04,3.47,4.04,4.52-1.94-2.46-3-4.03-3.76-4.82-.76-.8-1.13-.89-1.37-.65-.51,.47-.34,2.19-1.35,1.54,2.2,2.66,4.59,5.14,7.21,7.2-1.76-1.6-3.42-3.37-4.94-5.27Zm-9.45-15.12c1,.96,2.01,1.91,3.05,2.83-1.14-2.74-2.13-5.54-3.09-8.34-1.54-3.3-.81,1.41,.04,5.52Zm182.79,17.95c-2.88-1.22-7.29-2.74-7.6-3.48-.03,.28-.14,.56,.16,.95-5.91-1.31-11.83-2.61-17.77-3.77,3.54,1.07,7.06,2.16,10.58,3.29-2.4-.27-6.39-1.24-9.99-1.96-1.32-.27-2.59-.5-3.7-.66l1.04-.86c.61-1.03-.95-.74-2.33-.42l.12,1.13c-1.34-.14-2.34-.13-2.74,.14,.9,.1,1.84,.22,2.79,.36l.06,.52,.53-.44c7.26,1.1,15.84,3.26,24.23,5.37,4.87,1.22,9.7,2.39,14.19,3.21,4.49,.83,8.67,1.29,12.12,1.22-3.17-.57-6.73-1.18-10.44-1.94-3.7-.77-7.55-1.65-11.25-2.66Zm-77.8,44.04c.37,.93,.92,1.29,1.46,1.64,.36-1.63-.73-1.17-1.46-1.64Zm10.38,31.96c-.05,.25-.05,.43-.08,.6-.03,.17-.1,.31-.26,.38,.5,.11,.77,.02,.34-.98Zm2.43-.1c-.21-.05-.36-.16-.55-.26-.19-.1-.41-.17-.6-.41l-.09,.31c.38,0,.57,.06,.71,.18,.13,.11,.25,.24,.53,.19Zm-2.77,1.08c-.1-.03-.2-.05-.32-.1,.07,.05,.12,.1,.21,.15,.05,0,.07-.04,.11-.05Zm-4.25-28.41c-2.53-.06-.89-2.01-2.16,.19,1.07,1.42,1.26-.32,2.16-.19Zm25.67-9.52c-.26-.52-.54-1.04-.8-1.57l.44,2.65,.36-1.08Zm10.65-36.84c-1.39,1.37-.08,1.78,.74,1.45-.33-.45,.1-1.78-.74-1.45Zm-1.94,74.71c-.26-1.98-1.08-3.75-1.93-5.28,.81,1.63,1.59,3.51,1.68,5.56l.26-.28Zm-12.63-38.07l-1.17,.74c.42,1.09,.9,2.14,1.36,3.19,.78-1.5-.21-2.03-.19-3.92Zm24.1,38.91c.02-1.46,.09-2.92-.45-4.77,.46-.67,.78-1.4,1.16-2.17-.77-2.12-1.3-2.5-1.73-2.75-.44-.24-.92-.33-1.81-1.62-.02-.24-.05-.49-.1-.75-.03-.18-.06-.37-.09-.56-.07-.36-.17-.74-.3-1.13-.24-.76-.63-1.66-.9-2.23-.6-1.27-1.24-2.38-1.36-2.83,.45-.85,1.2,.4,1.72,.54-1.35-2.15-2.7-1.49-3.74-4.41l.38-.18c-2.23-3.13-3.83-7.01-5.03-11.01-1.18-4.01-1.97-8.1-2.7-11.9-.08,.52-.4,.4-.71,.61-.19-2.05-.21-4.18-.12-6.3,.11-2.12,.38-4.22,.7-6.3,.32-2.08,.78-4.09,1.15-6.11,.44-1.98,.79-3.99,1.06-5.94-1.21,2.07-3.3,4.6-4.73,7.6-1.45,2.96-2.18,6.32-1.19,8.92-.34,.4-.51,.89-.62,1.41-.09,.52-.08,1.07-.1,1.57-.05,1.02-.03,1.89-.84,2.25-.45,3.55,.31,6.06,1.18,8.4,.89,2.36,2,4.56,2.77,7.83-.06,1-.9,.73-1.55,1.17-.66-1.7-1.29-3.43-1.84-5.18-.02,1.13,.02,2.26,.03,3.41-.48-.64-.79-1.86-1.12-2.94-.32-1.09-.71-2.03-1.42-2.14,1.19,2.31,1.88,5.37,2.76,8.32,.87,2.95,1.92,5.76,3.51,7.44-.28-1.97-1.39-4.2-1.87-6.48,.22-1.12,.18-2.72,.95-2.8,1.82,2.91,2.93,5.65,3.95,8.47,1.02,2.82,1.96,5.71,3.51,8.74,.79,1.54,1.63,3.95,1.09,4.67-.38-.66-.62-.67-.86-.65-.24,.02-.48,.05-.82-.33,.19,.25,.38,.47,.57,.66,.19,.17,.37,.29,.55,.36,.35,.15,.68,.16,.99,.22,.62,.11,1.27,.47,1.75,2.85-.92-.16-1.84-.29-2.75-.39,1.59,.68,1.85,2.13,1.73,3.56-.11,1.47-.46,2.88-.12,4.67-.61,.32-.91-.1-1.04-.81-.15-.72-.2-1.77-.31-2.84-.16,1.15,.01,1.87,.21,2.59,.18,.71,.39,1.45-.07,2.37-.33-.94-.83-1.86-1.4-2.71,.81,1.37,.3,2.25-.51,2.64-.41,.2-.89,.29-1.36,.33-.51,0-1-.04-1.36-.03,.19,.25,.89,.57,1.17,.89,.3,.32,.34,.87-.83,1.43-1.17,.26-1.04-.42-1.47-.56,.25,.45,.07,1.63-1.63,2.12-.66-.58,.51-1.24,.13-1.91-1.08,.34-2,.63-3.04,.16-.87,.43-.78,.68-.55,.94,.22,.26,.59,.52,.02,1-1.83-.04-1.96-.68-1.92-1.45,.06-.77,.2-1.69-.39-2.41,1.63-1.19,3.31-1.85,3.62-2.66-.71,.48-1.54,.84-2.45,1.16-.07-.43-.67-.72-1.02-1.05-.38-.33-.51-.68-.08-1.15-.6-.13-.85-.2-2.36-.06-1.25,.12-2.52,.32-3.7,.56-2.38,.48-4.52,1.06-6.28,1.35,.49,.31,1.18,.48,1.07,1.02-.98,.27-1.4,.1-1.6-.2-.21-.29-.22-.72-.38-1.04-1.26,.45-1.36,1.97-2.39,2.86-.66-.43-1.04-.8-1.4-1.05-.35-.25-.6-.51-.85-.72-.24-.22-.42-.53-.6-.86-.18-.33-.23-.87-.26-1.45l-.95,1.14c-.06-.46-.15-.75-.33-.91-.18-.16-.42-.24-.65-.35-.46-.2-1.08-.41-1.03-1.46,.26-.24,.85,.28,1.4,.47-.3-.18-.36-.5-.38-.71-.01-.23,.06-.45,.13-.65,.04-.1,.07-.2,.09-.3,.02-.11,.02-.27,0-.41-.04-.3-.17-.63-.48-1.03,.7,.27,1.41,.58,2.1,.81-.61-1.37-1.93-3.34-.32-3.1-2.57-1.9-3.74-6.58-5.96-9.35l1.27-.29c-2.1-1.02-2.48-6.01-4.81-6.65l.37-.45-3.01-2.49c-.52-1.5,1.46-1.82,.92-1.71-1.77-3.03-3.05-5.45-3.45-7.77-1.8,.25-3.83-2.83-5.4-5.3-2.82-6.46-6.69-12.77-11.41-18.34-2.37-2.78-4.96-5.36-7.76-7.59-2.79-2.22-5.82-4.09-8.96-5.23-.22-.11-.46-.2-.72-.28-.27-.06-.56-.09-.86-.11-.61-.02-1.23-.06-1.88,.07-.65,.12-1.29,.24-1.9,.4-.61,.21-1.18,.4-1.7,.52,.6,.21,1.06,.31,1.47,.35,.41,.05,.75,.12,1.11,.13,.72,0,1.45,.1,2.66,.62,.78,.69,1.1,1.48,1.29,2.35,.18,.9,.25,1.79,.55,2.69,.08-.57,.14-1.08,.18-1.64,1.41,.24,1.65,.77,1.85,1.11,.21,.36,.37,.63,1.65,.81l-1.63,1.69c.66-.2,1.19,.17,1.53,.76,.34,.59,.52,1.33,.56,1.81,.55-.22,1.11-.42,1.66-.61,.25,.95,.49,1.68,.57,2.35,.07,.68-.03,1.3-.43,1.96l1.03-1.08c-.26,1.02,4.21,5.17,.95,5.03,.56,.2,1.45,.13,1.95,1.12l-1.11,.99c1.21,1.06,2.44,2.39,1.99,3.23-.76-.53-1.47-.4-2.17-.27,1.71,2.82,2.9,2.51,4.12,2.05,1.21-.44,2.41-.99,4.06,1.61l-.86,.43,1.66,.84-.23,2.02c1.97,.16,2.97,2.11,3.84,4.34,.88,2.22,1.62,4.71,3.23,6.02,.9,1.22,0,3.82,1.38,6.27l1.26-.79c-.37,2.69,2.19,10.83-.17,14.12,1.88,1.52,.2-.33,1.3-.74,3.04,3.25,.99,4.42,1.01,6.76,1.65,2.1-.22-2.03,1.33-1.17,.44,4.07,2.9,2.28,3.79,7.21-.6,.76-1-.97-1.7-1.23,.33,.33,.65,.72,.95,1.16,.15,.22,.3,.45,.44,.69,.08,.14,.16,.28,.24,.42,.11,.2,.22,.4,.33,.6,.22,.41,.44,.82,.67,1.25,.11,.21,.23,.43,.34,.64,.15,.23,.3,.47,.45,.7,.61,.94,1.23,1.92,2.02,2.8,1.47,1.85,3.41,3.41,5.51,4.62,2.1,1.18,4.57,1.92,6.48,2.2,2.15,.65,4.46,1.01,6.66,1.16,2.19,.15,4.33,.15,6.34,.15,.95,0,1.91,0,2.87,0l1.4,.03h.86l1.23-.04c3.63-.13,7.26-.53,10.35-1.56l-.1-.55c2.76-.49,5.02-2.11,6.75-4.32,1.75-2.23,2.84-5,3.66-7.86-.43,.89-.92,1.73-1.48,2.53,.19-2,.3-3.45,.39-4.91Zm-120.72-116.76c-.21,.18-.34,.36-.66,.47,.37-.03,.66-.13,.66-.47Zm-.66,.47h-.22s.05,.04,.11,.04c.05-.01,.08-.03,.12-.04Zm10.07,20.92c-1.15-.33-.99-3.33-3.58-1.93,.41-1.1-1.11-.31-.2-1.59-.67-1.53-3.04,.05-4.18-1.04,.05-.36,.67-.81,1.15-1.36,.45,.12,.9,.22,1.36,.32l-.07-.94c.7-.27,.88,.6,1.91-.34-1.89,.51-2.05-1.55-4.09-.89,.03,.55,.68,.67,.93,1.1-.21,.5-.23,1-.78,1.51-2.61,.44-2.67-1.26-4.19-2.01-.38-.2-.62-.7-.08-1.2,.36,.04,.72-.49,1.13-.55-.83-.03-2.13,1.61-2.4,.79l2.1-1.48c-2.35,1.39-.19-1.05-1.8-.56,.72-.76,1.42-.81,1.73-.52,.08-.65-1.16,.2-1.35-.15l1.99-.98c-1.94,.89-.08-.82,.39-1.39-.46,.28-1.71,1.4-1.89,.91,.11-.33,.63-.55,.86-.76-.46,.28-1.39,.68-1.62,.42,.58-.45,1.04-.41,1.68-.81-.17-.18-.39-.27,.02-.75-.74-.04-.88,.59-1.69,.78,.08-.85,2.12-1.39,3.32-2.41,1.14-.16,1.7,.15,2.33,.02-.33-.12-.64-.25-.96-.39,.75-.42,.96-1.25,1.89-1.33,.25-1.08-1.02-1.38-1.98-1.75-.22,.23-.31,.44-.8,.67-.64-.13,.34-.58,.86-.93-.66,0-1.99,.69-3.06,.99,.86-1.13,.13-.9,1.57-2.1l-1.35,.61c.96-.81-1.13-.02-.48-.73,.29-.14,.7-.13,1.07-.14-.59-.16,1.05-.75,.39-.86l1.64-.34c-.16-.21-.75-.38,.63-.73-1.74,.16-1.35-.78-2.41-1.05l1.25-.29c-1.6,.11-.14-.96-2.02-.84l.5-.14c-.61-.08-1.2-.17-1.8-.28,.11-.3,2.04-.48,1.51-.42-.43-.5-.56-.95,.08-1.34-1.74,.03-2.23-.59-2.43-1.11,.54-1.24,.52-2.42,.3-3.78-.25-1.35-.66-2.87-1.04-4.49,.1-.37-1.38-1.7-1.87-2.6-.67,.42,.07,.87-.21,1.46-.63,.25-2.32-.27-3.52-.22l1.43,.32c.83,1.1-.91,.19,.27,1.24l-2.19-.83c1.05,.6-.05,.76-.69,.8l1.49,.68c-.98,.18-1.44,.38-2.9,.14l1.44,.35c-.99-.08-.28,1.89-2.62,.74,.29,.23,1.01,.52,.78,.81l-1.46-.24c.25,.56,.48,1.15-.37,1.16-.31-.33-.94-.53-1.56-.73-.3,1.1,.89,1.38,2.13,1.62,1.25,.24,2.5,.46,2.51,1.29l-.96-.11,.98,.52-1.24,.37c1.61,.41,1.51,.95,1.25,1.59-.28,.62-.71,1.36,.2,1.79,.3,.35-1.62,1.06-1.29,1.81l1.46-.24c-1.45,.77-1.96,3.2-5.1,4.68,1.28,.34,.28-.14,1.43-.41,1.8,.77-.43,1.45-1.07,2.35,.94,.51,.36-.72,1.55-.65-.71,1.42,2.01,.31,1.53,1.89-.73,.42-.67-.12-1.23-.08,1.74,.4,1.55,2.34,2.43,3.49-.25,1.89,.54,4.14,.45,6.44l.47-.27c-.71,1.4,.82,1.4,.85,2.47l.38-.81c1.1-.08,.81,.52,1.45,.72l-1.05,1.19c.77,.15,1.2-.6,2.1-.76-.45,1.03,.96,1.32,1.07,1.54-.44,.59-.9,.47-1.29,.69,.85,.19,1.94-.81,2.49-.2l-.31,.29c2.93,0,4.18,2.09,6.67,2.46-.05-.15,.2-.37,.37-.64,1.93,1.02,3.98,2.55,7.44,.5Zm1.4,2.03c.99,.09,1.5-1.75,2.2-2.59l-1.58,1.26,.9-.53c-.09,1.1-1.15,1.68-1.52,1.86Zm-.62-.85c.33-.43,.88-.75,.95-1.18-.26-.35-.88,.75-.95,1.18Zm-8.42-28.21c-.06,.13,.27,.17,.63,.2,.99-.27-.17-.14-.63-.2Zm-1.49,14.43l1.59,.34-1.48-.52-.11,.18Zm4.12,7.42l.66-.19-.47-.32-.19,.51Zm8.88,5.5l.53,.2c.44-.29,.52-1.03,.63-1.67l-1.16,1.46Zm-12.06-22.15c.66-.14,.46,.11,.92,.04l-.75-.18-.16,.14Zm1.91-4.65c.4,.14,1.27-.16,2.03-.22-2.27,.22,0-.24-2.03,.22Zm4.04,18.62l.79-.98-1.04,.19c-.53,.9,.18,.37,.25,.79Zm14.38-34.39c-.35-.22-1-.3-1.65-.38-.26,1.75,4.84,.37,4.98,1.75l-.96,.02,1.04,.3-1.18,.42c1.66,.16,1.62,.61,1.39,1.14-.22,.52-.65,1.15,.28,1.43,.31,.27-1.55,.95-1.24,1.53l1.46-.27c-.71,.35-1.22,1.02-1.97,1.77-.72,.73-1.65,1.54-3.27,2.16,1.23,.23,.29-.12,1.44-.36,1.71,.58-.54,1.17-1.26,1.89,.85,.4,.44-.59,1.59-.55-.88,1.17,1.95,.23,1.3,1.52-.77,.34-.64-.11-1.2-.07,1.69,.31,1.16,1.96,1.87,2.92-.27,.78-.33,1.67-.4,2.62-.04,.93-.07,1.91-.35,2.92l.5-.2c-.99,1.19,.5,1.28,.31,2.24l.53-.69c1.06,.02,.67,.54,1.24,.77l-1.24,.97c.69,.22,1.26-.42,2.14-.49-.66,.89,.67,1.28,.71,1.5-.53,.5-.95,.35-1.36,.5,.77,.26,2.01-.55,2.41,.06l-.35,.23c1.37,.17,2.29,.73,3.12,1.37,.8,.64,1.63,1.33,2.77,1.61-.02-.15,.25-.33,.46-.57,.42,.29,.82,.61,1.27,.9,.47,.28,.96,.53,1.5,.69,.55,.16,1.13,.25,1.83,.16,.7-.1,1.48-.35,2.34-.82-.48-.17-.67-.94-.94-1.56-.29-.61-.76-.99-2.12-.42,.55-.99-.98-.37,.1-1.5-.32-1.46-2.87-.16-3.71-1.29,.12-.32,.79-.69,1.36-1.15l1.2,.4,.14-.87c.71-.19,.68,.63,1.83-.16-1.82,.29-1.58-1.55-3.62-1.13-.11,.51,.5,.66,.65,1.08-.3,.44-.42,.89-1.04,1.31-2.57,.18-2.25-1.4-3.54-2.21-.34-.21-.45-.68,.17-1.09,.33,.07,.78-.37,1.17-.39-.77-.11-2.36,1.26-2.43,.49l2.3-1.14c-2.52,1.04,.03-.95-1.6-.65,.84-.62,1.52-.6,1.75-.32,.21-.57-1.14,.08-1.26-.24l2.1-.71c-2.03,.63,.07-.73,.63-1.2-.49,.21-1.92,1.1-1.98,.65,.18-.29,.71-.44,.98-.61-.5,.21-1.45,.49-1.63,.24,.64-.35,1.08-.28,1.77-.58-.13-.17-.33-.27,.16-.66-.71-.09-.95,.45-1.78,.57,.24-.75,2.3-1.07,3.64-1.89,1.12-.05,1.62,.27,2.23,.21l-.85-.43c.8-.32,1.15-1.05,2.07-1.04,.22-.48,.02-.81-.34-1.08-.34-.27-.86-.48-1.3-.69-.24,.2-.37,.38-.88,.55-.6-.17,.41-.5,.97-.78-.65-.04-2.04,.49-3.13,.69,.97-.96,.22-.79,1.81-1.81l-1.4,.48c1.04-.69-1.11-.07-.39-.69,.3-.11,.7-.08,1.07-.08-.56-.17,1.11-.64,.47-.78l1.66-.23c-.12-.21-.72-.4,.68-.67-1.77,.07-1.28-.82-2.34-1.1l1.26-.26c-1.58,.08-.15-.95-2.02-.82l.51-.14c-.59-.07-1.19-.15-1.78-.23,.11-.28,2.03-.51,1.5-.44-.42-.47-.59-.89,.01-1.31-1.74,.14-2.22-.4-2.48-.86,.4-1.19,.29-2.29-.23-3.46-.41-1.15-1.28-2.4-1.97-3.71,0-.34-1.78-1.23-2.48-1.92-.53,.48,.3,.74,.19,1.3-.52,.33-2.3,.17-3.47,.41l1.47,.03c1.05,.79-.87,.32,.54,1l-2.32-.33c1.17,.34,.15,.65-.47,.78l1.6,.34c-.92,.3-1.32,.54-2.8,.56l1.48,.07c-.96,.09,.05,1.58-2.45,.98,.34,.14,1.1,.28,.93,.54h-1.48c.38,.41,.66,.84-.17,.96Zm16.34,8.57c.67-.09,.44,.13,.91,.1l-.73-.22-.17,.12Zm-1.24,.34c-.23,.16-.37,.31-.7,.4,.37-.01,.66-.08,.7-.4Zm-.7,.4h-.22s.05,.02,.1,.03c.05,0,.08-.02,.12-.03Zm2.62-5.96c-.05,.14,.3,.17,.65,.19,.97-.32-.18-.15-.65-.19Zm2.35,18.29l.94-.84c-.34,.05-.66,.08-.99,.11-.69,.78,.07,.35,.06,.73Zm-5.43-4.78l1.44,.44-1.3-.59-.14,.15Zm7.18,14.11c.93,.07,1.54-1.72,2.26-2.54-.51,.43-1.03,.85-1.56,1.25l.88-.53c-.18,1.06-1.21,1.64-1.58,1.81Zm2.85-1.5c.41-.29,.55-1.02,.71-1.64l-1.16,1.45,.45,.19Zm-3.37,.69c.35-.4,.9-.73,1.02-1.13-.2-.33-.89,.71-1.02,1.13Zm-3.69-6.38l-.39-.32-.28,.45,.66-.13Zm1.5-19.86c.41,.16,1.27-.19,2.03-.25-2.26,.25-.02-.27-2.03,.25Zm23.37-.59h-.23s.05,.03,.11,.04c.05,0,.08-.03,.12-.04Zm3.33,17.41l-.37-.46-.32,.44,.69,.02Zm-3.06-8.43l1.53,.68-1.39-.85-.14,.16Zm1.53-16.4c-.03,.18,.32,.2,.67,.21,.94-.45-.2-.18-.67-.21Zm.08,6.54c.67-.1,.48,.18,.95,.15l-.79-.29-.16,.14Zm1.38-5.89c.45,.19,1.25-.28,2.01-.39-2.25,.39-.07-.36-2.01,.39Zm2.8,22.39l1.04-.72-1.08-.16c-.76,.73,.08,.43,.04,.87Zm-5.4-16.11c-.21,.19-.33,.38-.66,.48,.38,0,.67-.09,.66-.48Zm5.31,25.88c.47-.27,1.11-.35,1.34-.71-.11-.43-1.1,.34-1.34,.71Zm4.85-.35l-1.67,.84,.41,.42c.52-.08,.91-.72,1.26-1.25Zm-2.47,.29c-.52,.97-1.74,1.06-2.15,1.08,.88,.47,2.09-.99,3.07-1.47l-1.97,.51,1.04-.11Zm-23.91-35.59c-.37-.24-1.03-.29-1.68-.34-.06,1.08,1.16,1.08,2.42,1.04,1.26-.04,2.56-.11,2.73,.67l-.96,.09,1.06,.28-1.15,.59c1.65,.07,1.66,.6,1.51,1.23-.16,.62-.5,1.37,.46,1.63,.34,.29-1.45,1.19-1.08,1.83l1.43-.4c-1.33,.88-1.71,3.15-4.8,4.67,1.26,.19,.28-.15,1.41-.47,1.78,.55-.42,1.32-1.07,2.12,.91,.38,.37-.65,1.55-.66-.75,1.29,1.98,.17,1.44,1.62-.74,.39-.65-.1-1.21-.04,1.71,.29,1.37,2.07,2.12,3.1-.46,1.71-.01,3.77-.54,5.83l.5-.2c-.97,1.21,.52,1.32,.3,2.31l.54-.69c1.06,.07,.66,.58,1.23,.84l-1.27,.93c.69,.25,1.28-.37,2.17-.39-.67,.87,.6,1.36,.64,1.59-.57,.47-.97,.28-1.39,.41,.75,.31,2.04-.41,2.41,.25l-.37,.21c2.79,.56,3.36,2.81,5.55,3.81,0-.16,.3-.29,.55-.49,1.5,1.49,2.81,3.5,6.78,2.89-.92-.71,.22-3.52-2.69-3.07,.74-.91-.96-.64,.31-1.58-.19-1.69-2.91-.88-3.7-2.2,.14-.33,.86-.6,1.47-1l1.22,.69,.19-.93c.75-.06,.69,.85,1.95,.24-1.97-.08-1.6-2.16-3.76-2.03-.11,.54,.5,.82,.64,1.32-.33,.43-.48,.91-1.15,1.25-2.61-.25-2.24-1.85-3.54-2.89-.33-.26-.45-.79,.18-1.17,.34,.11,.8-.33,1.21-.31-.8-.2-2.41,1.14-2.5,.31l2.35-1.04c-2.57,.92,0-1.05-1.65-.86,.84-.62,1.54-.55,1.78-.2,.2-.62-1.17-.02-1.3-.38l2.13-.61c-2.06,.53,.06-.83,.6-1.32-.5,.2-1.91,1.1-2.02,.59,.16-.31,.71-.45,.97-.62-.5,.2-1.47,.45-1.66,.16,.64-.36,1.09-.25,1.78-.55-.14-.21-.36-.34,.12-.75-.74-.15-.95,.46-1.79,.54,.2-.84,2.29-1.1,3.61-1.96,1.16,.03,1.72,.47,2.35,.46l-.93-.61c.81-.3,1.09-1.18,2.05-1.07,.34-1.15-.95-1.77-1.93-2.32-.23,.23-.34,.45-.85,.63-.64-.23,.37-.59,.91-.91-.68-.09-2.04,.5-3.14,.71,.9-1.12,.15-.94,1.63-2.14l-1.37,.56c.97-.82-1.15-.1-.5-.83,.29-.13,.71-.1,1.08-.08-.6-.21,1.04-.77,.37-.94l1.66-.27c-.16-.26-.78-.51,.6-.83-1.77,.07-1.44-1.02-2.55-1.35l1.24-.34c-1.59,.13-.29-1.18-2.15-.96l.49-.19-1.84-.21c.07-.34,1.97-.71,1.44-.61-.5-.55-.7-1.04-.15-1.59-1.72,.26-2.3-.35-2.6-.87,.58-2.88-1.16-5.18-2.57-8.27,.03-.38-1.66-1.43-2.27-2.31-.61,.59,.2,.91,.01,1.59-.56,.41-2.32,.25-3.5,.6h1.48c1.03,.93-.86,.42,.51,1.21l-2.33-.31c1.17,.37,.15,.79-.48,.99l1.6,.33c-.92,.43-1.33,.75-2.79,.86h1.48c-.94,.16,.16,1.92-2.37,1.35,.34,.15,1.1,.27,.94,.6l-1.48,.1c.41,.47,.73,.96-.09,1.16Zm166.28-48.73c-.55-.79-1.16-1.54-1.74-2.3l-.13,.23c.62,.68,1.27,1.36,1.86,2.07Zm-7.37-33.71c-2.1,1-.61-.81-1.82,1,.79,.39,1.07-.71,1.82-1Zm2.82,13.31c.73-.07,.71,.46,1.26,.52l-1.18-.78-.08,.26Zm5.72,44.82c.18-1.37,.12-2.79-1.35-3.72,1.04-.83-.62-1.87,.9-2.33,.34-3.05-2.57-3.85-3.13-6.53,.2-.44,.98-.4,1.68-.66,.39,.69,.8,1.38,1.15,2.09,.13-.49,.26-.99,.36-1.48,.82,.46,.53,2.02,1.94,1.96-.49-.44-.81-.98-1.05-1.56-.26-.58-.45-1.2-.64-1.81-.36-1.23-.84-2.4-2-3.01-.16,.88,.52,1.76,.58,2.73-.4,.52-.63,1.23-1.37,1.33-2.63-2.18-2.16-4.52-3.58-6.97-.36-.6-.54-1.52,.13-1.85,.38,.35,.86-.16,1.31,.09-.9-.74-2.58,.72-2.72-.7l2.49-.64c-2.73,.33-.12-1.81-1.96-2.23,.84-.7,1.63-.27,1.97,.45,.12-1-1.32-.56-1.52-1.24l2.29-.12c-2.22,0-.08-1.43,.4-2.1-.52,.15-1.92,1.12-2.16,.19,.11-.48,.7-.49,.95-.7-.52,.15-1.57,.2-1.85-.36,.63-.39,1.17-.03,1.89-.27-.22-.43-.5-.74-.07-1.3-.91-.55-.95,.46-1.89,.3-.05-1.4,2.28-1.12,3.51-2.19,1.39,.51,2.17,1.62,2.92,1.92l-1.3-1.61c.84-.22,.81-1.82,2.01-1.18-.05-1.08-.53-2.09-1.2-3-.68-.9-1.53-1.7-2.26-2.41-.15,.38-.16,.77-.67,.96-.88-.66,.11-1.03,.57-1.5-.87-.38-2.15,.37-3.33,.49,.42-1.89-.34-1.71,.6-3.7l-1.25,.79c.59-1.37-1.41-.37-1.14-1.64,.25-.21,.76-.08,1.2,0-.84-.5,.69-1.33-.25-1.76l1.77-.27c-.41-.56-1.37-1.15,.02-1.58-2.05-.15-2.65-2.26-4.29-2.95l1.11-.64c-1.7,.24-1.61-2.38-3.5-1.82l.35-.4c-.77-.06-1.55-.11-2.31-.16-.3-.63,1.36-1.65,.9-1.36-1.19-1.01-2.08-1.82-2.21-3.01-1.45,.93-2.86,.07-3.88-.69-1.72-2.55-4.23-4.64-7.08-6.07-2.84-1.45-6.07-2.17-8.97-2.18-.8-.28-2.46,1.31-3.47,1.87,.94,.72,1.27-.13,2.34,.23,.64,.73,.26,2.48,.39,3.72l.28-1.46c1.46-.63,.32,1.01,1.73,.05l-1.09,2.08c.39-.48,.65-.41,.79-.15,.14,.28,.16,.76,.14,1.1l1.04-1.27c.13,1.11,.29,1.62-.34,2.98l.75-1.28c-.31,.93,2.18,1.3,.07,2.92,.34-.18,.94-.7,1.16-.3l-.84,1.22c.68,.05,1.38,.23,.98,.97-.47,.08-.95,.53-1.44,.98,.82,.78,1.69,.02,2.59-.89,.89-.89,1.8-1.84,2.74-1.11l-.67,.69c.38-.13,.76-.24,1.13-.34l-.38,1.32c1.43-.87,2.03-.25,2.46,.62,.44,.87,.78,1.87,1.91,1.88,.58,.28-.39,2.09,.45,2.8l1.11-.99c-.31,.83-.14,2.03-.2,3.36-.08,1.35-.38,2.8-1.56,4.09,1.39,0,.21-.25,1.18-.9,2.16,.43,.29,1.85,0,2.99,1.15,.39,.07-.91,1.28-1.1-.13,1.84,2.19,.05,2.35,2.15-.62,.58-.75-.11-1.32,.02,.99,.15,1.6,.89,2.09,1.78,.51,.88,.89,1.93,1.48,2.73,.12,2.45,1.13,5.61,.84,8.48l.51-.16c-.88,1.49,.74,2.08,.56,3.46l.54-.84c1.15,.44,.76,1.07,1.39,1.67l-1.34,.9c.74,.62,1.36-.07,2.31,.26-.68,1.02,.63,2.28,.65,2.66-.62,.43-1.04-.03-1.49-.02,.76,.78,2.19,.32,2.52,1.5l-.4,.13c2.89,2.29,3.05,6.09,4.78,9.16,.05-.23,.38-.21,.68-.33,.25,.86,.45,1.75,.65,2.66,.22,.91,.45,1.82,.72,2.71,.3,.9,.69,1.78,1.17,2.63,.5,.85,1.19,1.69,2.02,2.49-.09-1.01,.42-2.34,.69-3.72Zm-6.88-44.26c-.11,.34-.13,.68-.44,.82,.44,.05,.73-.05,.44-.82Zm-.44,.82c-.08-.01-.17-.02-.27-.04,.05,.03,.08,.07,.16,.09,.05,0,.07-.04,.11-.05Zm-4.6-14.58c.39-1.11-.53-.38-1.09-.34,.24,.39,.66,.36,1.09,.34Zm10.48,64.1c.52,.12,1.02,.71,1.46,.43,.26-.78-1.02-.7-1.46-.43Zm4.73-16.35l1.2-.43-1.07-1.24c-.91,.72,0,.86-.13,1.66Zm-3.86,.29l.7,.59-.27-1.09-.42,.5Zm-.01,17.63l.78,1.06c-1.16,.8-1.96-.51-2.27-.92,.2,1.64,2.14,1,3.17,1.46-.53-.54-1.12-1.08-1.68-1.59Zm.62,3.99c.34,.56,1.15,.16,1.84-.24l-1.7-.9-.15,1.13Zm56.95-50.54l2.95,3.43-2.91-3.79-.04,.36Zm11.59,24.36c-.83,1.15,.12,1.46,.11,2.8l1.16-.63-1.27-2.17Zm-3.77,3l.8,1.06-.44-1.87-.36,.81Zm-18.77-54.33c-.61-.41-1.23-.8-1.86-1.18l.05,.36c.85-.06,1.13,.7,1.81,.82Zm-12.82-19.09c-2.1,1.16-1.22-1.09-1.75,1.18,1.21,.57,.97-.85,1.75-1.18Zm-5.85-.59c.52,.52,1.05,.52,1.58,.52-.1-1.4-.88-.53-1.58-.52Zm37.6,102.32c.4-1.34-.91-1.18-1.41-.69,.51,.19,.91,1.19,1.41,.69Zm-1.7-38.08c-.47-.89-1.02-1.67-1.71-2.22,.08,1.44,1.01,2.98,1.38,4.6-.3,.84-.38,2.01-1.13,2.13-.4-.5-.75-.99-1.06-1.47-.32-.49-.63-.96-.89-1.45-.53-.96-.93-1.94-1.29-2.93-.35-.99-.78-1.97-1.18-2.98-.43-1-.83-2.05-1.48-3.05-.64-1.01-1.17-2.51-.59-3,.55,.61,.86-.18,1.45,.26-1.27-1.29-2.49,.94-3.22-1.37l2.45-.83c-2.87,.31-.94-2.89-3.14-3.73,.62-1.05,1.67-.29,2.36,.89-.31-1.58-1.68-1.02-2.22-2.1,.84-.02,1.64-.01,2.47,0-2.42-.19-.8-2.25-.55-3.28-.51,.19-1.61,1.61-2.32,.12-.11-.75,.55-.72,.73-1.02-.51,.19-1.65,.17-2.25-.73,.53-.55,1.31,.05,1.99-.27-.44-.71-.95-1.18-.75-2.02-1.3-.92-.85,.64-2,.31-.76-2.17,2.02-1.55,2.88-3.09,1.82,.9,3.31,2.63,4.25,3.18-.72-.89-1.48-1.74-2.26-2.58,.84-.28,.02-2.73,1.69-1.65-.58-1.65-1.62-3.24-2.9-4.62-1.26-1.4-2.62-2.69-3.91-3.74,.04,.54,.25,1.12-.24,1.36-1.42-1.02-.45-1.51-.16-2.16-1.23-.62-2.31,.39-3.64,.48-.55-2.77-1.41-2.51-1.39-5.34l-1.05,1.06c-.06-1.95-1.89-.67-2.33-2.44,.18-.28,.88-.06,1.48,.09-1.34-.76,.04-1.83-1.34-2.51l1.99-.25c-.81-.82-2.31-1.73-.88-2.24-1.29-.19-2.44-1-3.56-1.92-1.12-.92-2.2-1.96-3.46-2.46l1.02-.8c-2.02,.22-3.36-3.38-5.49-2.73l.21-.51-3.04-.41c-.75-.88,.8-2.08,.38-1.74-2.18-1.37-3.74-2.58-4.62-4.11-1.41,1.1-3.75-.2-5.57-1.26-7.48-6.88-18.15-11.23-27.64-12.19-.68-.16-1.6,.02-2.58,.4-.98,.38-1.97,.85-2.83,1.07,.92,.44,1.46,.45,2.03,.42,.57-.05,1.15-.11,2.1,.2,1.31,.87,1.24,2.71,2,4.2l-.09-1.59c2.27-.38,.98,1.18,3,.42l-.97,2.14c.96-.88,1.84,.58,2.09,1.36l1.15-1.26c.75,1.34,1.3,2.06,.97,3.54l.56-1.38c0,.54,1.09,.99,1.84,1.61,.76,.61,1.19,1.26-.06,2.01,.47-.12,1.13-.63,1.73-.1l-.63,1.34c1.17,.19,2.38,.66,2.23,1.52-.7-.02-1.21,.43-1.71,.89,1.92,1.33,2.78,.43,3.61-.53,.83-.97,1.64-2.02,3.49-.86l-.57,.77,1.48-.23,.27,1.64c1.57-.89,2.78,.08,3.97,1.27,1.19,1.2,2.29,2.69,3.89,2.81,1,.43,.79,2.84,2.43,3.91l.86-1.21c.27,2.15,3.99,6.84,2.59,10.31,1.84,.18,.11-.33,.95-1.15,3.15,.87,1.61,2.71,2.01,4.36,1.74,.73-.52-1.35,.93-1.45,1.04,2.7,2.87,.29,4.37,3.45-.4,.8-1-.25-1.64-.13,2.7,.7,4.87,4.61,7.2,7.16,1.66,3.73,4.56,8.76,5.74,13.27l.5-.2c-.13,1.16,.32,2,.89,2.84,.28,.42,.59,.83,.86,1.28,.24,.46,.45,.94,.56,1.49l.22-1.31c1.47,.83,1.31,1.81,2.27,2.83l-1.06,1.34c1.04,1.09,1.44,.02,2.6,.64-.18,.81,.22,1.75,.7,2.58,.49,.82,.93,1.55,1.03,1.85-.51,.67-1.11-.14-1.59-.17,1.08,1.36,2.42,.73,3.2,2.71l-.38,.17c1.82,2.02,3.16,4.66,4.1,7.48,.25,.7,.51,1.41,.74,2.12,.21,.72,.42,1.44,.62,2.15,.22,.71,.45,1.43,.7,2.13,.26,.7,.43,1.41,.7,2.1,.04-.4,.37-.34,.66-.53,.15,.75,.3,1.52,.45,2.29,.15,.78,.32,1.56,.39,2.36,.18,1.59,.48,3.19,.74,4.77,.21,1.58,.53,3.13,1.01,4.64,.39,1.5,.9,2.95,1.68,4.34-.02-1.75,.85-4.02,1.07-6.39,.14-1.18,.26-2.37,.08-3.49-.21-1.11-.61-2.15-1.32-2.99,.52-.68,.38-1.51,.27-2.24-.15-.73-.23-1.36,.52-1.71,.03-1.28-.13-2.36-.4-3.32-.3-.95-.77-1.78-1.21-2.59-.46-.81-.93-1.6-1.35-2.47-.45-.87-.9-1.82-1.19-2.97,.11-.73,.93-.6,1.59-.98,.54,1.19,1.12,2.39,1.64,3.61,.05-.82,.03-1.63,.04-2.46,.46,.42,.73,1.28,1.04,2.03,.27,.76,.62,1.42,1.33,1.43-1.07-1.58-1.77-3.71-2.41-5.81-.3-1.05-.73-2.06-1.19-2.95Zm.57,46.68c.21,.89,1.18,.13,1.98-.59l-1.56-1.31-.42,1.9Zm.33-6.63c.22,.58,.37,1.15,.53,1.73-1.4,1.43-1.91-.72-2.09-1.41-.28,2.79,1.95,1.54,2.88,2.24-.44-.87-.81-1.71-1.33-2.56Zm-21.06-83.58c-.11-.02-.23-.04-.36-.08,.08,.05,.14,.1,.25,.14,.05-.01,.07-.05,.11-.07Zm.05-1.13c.07,.48,.25,.95-.05,1.13,.57,.11,.87-.02,.05-1.13Z"/></g></svg>