<?xml version="1.0" encoding="UTF-8"?><svg xmlns="http://www.w3.org/2000/svg" xmlns:xlink="http://www.w3.org/1999/xlink" viewBox="0 0 434.65 434.65"><defs><style>.d{fill:url(#c);}</style><linearGradient id="c" x1="214.11" y1="377.24" x2="214.11" y2="65.19" gradientTransform="matrix(1, 0, 0, 1, 0, 0)" gradientUnits="userSpaceOnUse"><stop offset="0" stop-color="#d1d706"/><stop offset="1" stop-color="#88bd32"/></linearGradient></defs><g id="a"/><g id="b"><path class="d" d="M109.95,114.15c-2.04-3.9-3.33-6.18-4.18-7.41-.86-1.23-1.28-1.41-1.52-1.16-.48,.5-.24,2.72-1.34,1.66,2.49,3.82,5.01,7.6,7.62,11.31-1.75-2.75-3.44-5.53-5.13-8.33-3.7-10.21,2.42,.46,4.55,3.92Zm-4.19,178c-.03-.59-.08-1.21-.13-1.85,1.08-.52,2.22-1.18,3.26-1.54,.01,.55,.03,1.11,.07,1.66,.06-.76,.1-1.51,.17-2.27l.3-2.26c-.12-2.45-.34-4.91-.29-7.36-.05,.99-.16,1.98-.17,2.97l-.05,2.98c-.02,1.42-.06,2.84-.04,4.25-1.63-.43-2.25-.11-3.34,.02-.01-.27-.03-.53-.04-.81,0-1.5,.04-3.2,.15-5.2l-1.32,2.47c.05,1.2,.06,2.35,.16,3.58-.15,0-.3,0-.47-.02-1.68-.69-2.07-2.54-3.31-3.82l.5,1.53c-1.23,.43-1.6,.17-1.89-.06-.3-.22-.54-.39-1.57,.15l.54-2.28c-.84,1.05-2.2-.19-2.63-.98l-.95,1.42c-1.12-1.24-1.9-1.8-1.83-3.35l-.32,1.46c-.1-.53-1.33-.92-2.24-1.41-.94-.46-1.41-1.16-.26-2-.45,.17-1.06,.73-1.74,.25l.5-1.4c-1.23-.06-2.42-.48-2.3-1.34,.69-.03,1.16-.51,1.62-1-.92-.59-1.59-.62-2.13-.42-.52,.18-.93,.65-1.34,1.13-.81,.95-1.65,2.03-3.49,.79l.62-.73c-.48,.04-.97,.08-1.48,.1-.04-.56-.07-1.1-.09-1.63-.81,.35-1.49,.22-2.08-.16-.29-.19-.59-.43-.83-.74-.23-.31-.44-.67-.65-1.02-.2-.36-.42-.72-.61-1.1-.17-.39-.35-.76-.55-1.1-.2-.35-.44-.65-.69-.93-.23-.29-.51-.54-.85-.73-.34-.41-.31-1.09-.14-1.92,.07-.41,.13-.83,.12-1.26-.02-.42-.1-.84-.27-1.29l-1.37,.58c.25-.5,.39-1.24,.5-2.07,.17-.85,.37-1.83,.61-2.76,.33-.97,.71-1.9,1.22-2.66,.57-.79,1.25-1.41,2.1-1.76-1.2-1.32-.3,.14-1.48,.15-.2-.33-.35-.63-.44-.91-.07-.28-.09-.52-.08-.74,.03-.44,.22-.77,.48-1.05,.26-.28,.59-.5,.91-.75,.35-.25,.68-.5,.94-.84-.56-1.78-.7,1.25-1.71,.24,1.39-2.53-1.61-2.43-.02-5.72,.88-.17,.37,1,.88,1.44-.3-.65-.34-1.43-.29-2.27,.05-.84,.2-1.75,.49-2.69,.49-1.88,1.32-3.85,1.81-5.69,2.43-3.73,5.59-9.43,9.34-13.21l-.42-.35c1.12-.59,1.7-1.53,2.26-2.55,.56-1.02,1.03-2.15,2.01-3.02l-1.35,.6c.14-1.89,1.15-2.34,1.7-3.87l1.78,.17c.57-1.67-.64-1.37-.57-2.85,.85-.37,1.58-1.29,2.17-2.2,.59-.91,1.01-1.84,1.27-2.07,.87,.07,.37,1.09,.58,1.56,.79-1.82-.41-2.64,1.13-4.51l.34,.25c1.1-2.82,3.06-5.54,5.38-7.88,2.31-2.38,4.89-4.49,7.24-6.64-.41,.14-.48-.2-.78-.39,2.75-1.95,5.95-3.55,9.07-5.01,3.14-1.5,6.22-2.82,9.05-4.7-1.94,.22-4.61-.06-7.3,.28-2.68,.31-5.3,1.31-6.62,3.32-.88-.21-1.72,.22-2.43,.67-.72,.43-1.36,.75-2,.19-2.71,1.09-4.2,2.63-5.45,4.29-.62,.82-1.24,1.64-1.9,2.53-.68,.87-1.47,1.71-2.46,2.64-.77,.31-.99-.51-1.65-.9l1.41-1.75,1.5-1.68c-.83,.41-1.69,.8-2.51,1.25,.47-1.3,3.04-2.74,2.51-4.02-1.12,1.86-3.04,3.57-4.81,5.36-1.75,1.81-3.35,3.68-3.76,5.61,.68-.47,1.26-1.14,1.88-1.85,.63-.68,1.28-1.42,1.99-2.04,.92-.24,2.14-.78,2.57-.18-1.24,2.56-2.69,4.43-4.24,6.27-.8,.89-1.56,1.84-2.34,2.8-.79,.95-1.53,2.01-2.21,3.19-.7,1.15-1.88,2.58-2.6,2.34,.31-.88-.57-.69-.43-1.5-.63,1.96,2.05,1.73,.19,3.83l-1.89-1.77c1.55,2.44-2.33,2.6-2.14,5.14-1.26,.05-1.03-1.39-.22-2.73-1.35,1.23-.21,2.17-.97,3.33l-1.14-2.31c.96,2.4-1.77,2.08-2.84,2.46,.41,.36,2.24,.55,1.15,2.1-.64,.56-.91-.08-1.28-.07,.41,.37,.92,1.45,.36,2.55-.75-.16-.55-1.26-1.15-1.71-.43,.85-.7,1.58-1.56,1.89-.25,1.78,.98,.41,1.2,1.69-1.65,2.02-2.36-.97-4.18-.85-.03-2.26,1-4.66,1.03-5.89-.46,1.22-.95,2.42-1.39,3.65-.64-.63-2.53,1.63-2.3-.59-2.6,3.06-3.75,7.87-4.52,11.61,.46-.39,.9-.95,1.36-.64-.25,1.98-1.15,1.39-1.88,1.54,.04,1.57,1.48,1.93,2.21,3.11-1.06,1.16-1.43,1.92-1.86,2.6-.44,.68-.89,1.3-2.1,2.28l1.47,.25c-1.63,1.41,.44,2.21-.81,3.87-.33,.03-.54-.77-.75-1.44,.1,1.78-1.57,1.28-1.38,3.06l-1.32-1.66c-.28,1.35-.07,3.47-1.35,2.52,1.18,2.67,.12,6.88,1.06,10l-1.28-.21c.77,.82,.82,2.29,.89,3.75,.16,1.46,.4,2.91,1.4,3.46l-.48,.32c.78,.98,1.55,1.91,2.32,2.79,.24,1.4-1.75,1.46-1.2,1.43,.31,.76,.6,1.48,.85,2.16,.3,.67,.59,1.3,.82,1.91,.44,1.24,.87,2.32,1.07,3.43,.9-.17,1.78,.46,2.78,1.28,.49,.42,.97,.91,1.42,1.42,.48,.49,.98,.98,1.44,1.45,.84,1.34,1.96,2.46,3.04,3.64,.58,.54,1.19,1.05,1.8,1.56l.92,.76,.99,.66,2.01,1.28c.7,.37,1.41,.71,2.11,1.05,1.39,.74,2.89,1.18,4.34,1.7,5.88,1.86,11.86,2.14,17.22,1.77,.48,.05,1.03-.1,1.62-.32,.06,.65,.13,1.3,.21,1.95l.66,3.75,.93,3.67c-.04-1.56-.19-2.89-.32-4.16-.08-1.28-.25-2.49-.4-3.78Zm222.51-67.67c-.29-.48-.68-.96-1.1-1.55,.31,.5,.6,.91,.93,1.49,.12,.13,.1,.03,.17,.06ZM118.81,131.85c-.75-.23-3.96-4.92-2.57-1.54,4.09,7.63,4.03,4.87,2.57,1.54Zm210.67,94.01c-.07-.29-.31-.92-.77-1.97-.52-1.02-1.26-2.49-2.43-4.38,1.2,2.38,2.52,5.19,1.98,4.98,.81,1.23,1.35,1.96,1.22,1.38Zm-201.96,102.23c-1.39-1.8-3.12-4.09-4.31-5.99-1.01-1.57-1.63-2.86-1.57-3.27-.19,.21-.47,.35-.41,.94-2.44-3.15-4.7-6.48-6.5-10.05-1.81-3.56-3.26-7.32-4.25-11.22,.83,4.83,2.41,9.56,4.55,14.03-1.85-2.66-4.15-7.78-5.41-12.62-1.33-4.83-1.68-9.27-2.4-10.18,.58,5.47,1.9,11.67,4.56,17.7,.34,.75,.67,1.5,1.02,2.26,.36,.75,.77,1.48,1.15,2.23,.73,1.51,1.67,2.92,2.52,4.39,1.87,2.83,3.83,5.65,6.07,8.22,8.81,10.41,19.9,18.06,28.31,21.98-7.25-4.77-16.33-10.87-23.34-18.42ZM93.83,89.47l3.61,3.9c-1.57-3.66-3.1-7.34-4.52-11.08-1.05-2.21-1.19-1.76-.91-.08,.29,1.7,1.06,4.6,1.82,7.26ZM232.17,364.77c-1.08,.33-2.18,.63-3.28,.95l-1.64,.47-1.67,.39-3.35,.76-3.4,.57c9.76-1.39,18.95-4.68,27.85-8.19l-1.79,.43c-4.16,1.7-8.4,3.23-12.72,4.63Zm81.47-250.62c2.66-5.28,1.62-5.81,2.06-9.05-1.27,4.21-1.68,6.64-2.06,9.05Zm14.32,105.58c2.39,2.58,4.35,7.18,6.03,10.39-1.85-4.35-4.24-8.43-6.97-12.2,.31,.6,.65,1.19,.94,1.81Zm-19.02-89.79c-.58,1.86-.84,2.88-.9,3.4-.05,.52,.13,.54,.38,.41,.51-.27,1.33-1.19,1.26,0-.33-5.48,3.49-9.25-.73-3.81Zm47.98,26.33c-.12-.02-.25-.04-.4-.07,.1,.05,.17,.1,.3,.14,.05-.01,.06-.05,.1-.08Zm6.61,63.31l1.33,.2,.47-2.79c-1.41,.51-.87,1.4-1.8,2.6Zm-6.8-64.54c.18,.52,.48,1.03,.19,1.23,.63,.08,.93-.06-.19-1.23Zm12.94,32.01c.58,1.62,.8,3.3,1.16,5.03-.27-1.84-.47-3.64-1-5.38l-.17,.35Zm2.71-11.91c-.21-1.04-.5-2.14-.96-3.17-.49-1.02-1.06-2.03-1.68-3-1.34-1.87-2.83-3.57-4.29-4.91,.08,.62,.34,1.29-.17,1.51-1.56-1.3-.57-1.75-.31-2.46-1.34-.85-2.45,.25-3.84,.27-.9-3.06-1.79-2.77-2.27-5.87l-.93,1.17c-.44-2.11-2.19-.59-2.99-2.5,.13-.31,.92-.12,1.59,.02-1.58-.76-.35-2.02-2.04-2.61l2.1-.45c-1.11-.8-3-1.63-1.59-2.32-1.45-.1-2.96-.78-4.46-1.61-1.5-.81-3.09-1.61-4.58-1.93l.79-1.03c-1.05,.32-2.28-.33-3.51-.94-1.23-.6-2.52-1.05-3.47-.46v-.57c-1.13,.11-2.28,.32-3.39,.52-1.19-.6-.13-2.27-.41-1.8-2.93-.65-5.17-1.16-6.91-2.2-.43,.8-1.41,1.09-2.59,1.25-1.19,.18-2.55,.1-3.77,.06-5.73-1.21-12.09-.82-17.81,1.18-3.18,1.08-6.08,2.71-8.62,4.63l.63-.57,2.32-7.23,1.22-3.77c.39-1.26,.73-2.53,1.09-3.78,1.43-3.24,2.26-4.16,2.81-4.34,.53-.18,.7,.37,.55,0,2.58-7.35,4.57-13.94,6.34-19.88,1.78-5.93,3.36-11.19,4.9-15.9-.21-.57-.23-1.66-.12-3.14,.05-.74,.14-1.58,.26-2.5,.06-.46,.13-.94,.2-1.44,.09-.56,.18-1.14,.27-1.74,.47-2.66,1-5.66,1.56-8.83,.28-1.57,.57-3.18,.86-4.81,.14-.81,.29-1.62,.44-2.44l.22-1.22,.11-.61,.05-.31c.02-.1,.05-.22-.03-.24-3.39,.07-6.78,.14-10,.21-4.42,0-8.87,0-13.32,0-3.87,.04-7.76,.07-11.66,.11-7.8,.11-15.63,.3-23.49,.54-15.72,.51-31.46,1.18-47.13,2.17-31.31,2.08-61.89,5.78-90.18,9.81-8.49,.98-19.98,4.2-30.43,6.36,12.99-1.18,14.12-2.16,26.88-3.59,9.64-.6,13.36,.81,21.72,1.08l-4.34-1.03c12.85-2.46,9-.11,19.11-2.54l-.21,2.37c3.49-1.52,12.64-1.34,16.41-1.02l3.22-1.89c8.24,.25,13.58,.23,16.17,1.55l-.9-1.43c1.57,.37,9.41-.22,15.67-.39,6.26-.22,10.92-.01,6.15,1.45,2.34-.44,4.46-1.31,9.65-1.37l.85,1.45c7.49-.67,15.86-1.26,18.05-.5-4.05,.5-5.4,1.2-6.71,1.89,31.73-.81,6.54-5.11,34.67-6.07l-.3,.97,7.11-1.2,7.51,1.04c2.98-1.04,7.66-1.5,13.21-1.68,.69-.02,1.4-.03,2.12-.05,.66,0,1.33-.02,2.02-.03,.85,0,1.73,.02,2.63,.03,1.77,.04,3.52,.12,5.21,.2,.02,0,.04,0,.05,0v.06l-.04,.12-.06,.24-.12,.47-.24,.93c-.15,.61-.31,1.21-.46,1.81-.15,.59-.29,1.17-.43,1.74-.15,.62-.29,1.23-.43,1.84-.16,.71-.31,1.41-.46,2.1-.21,.99-.42,1.96-.62,2.91-.38,1.9-.74,3.71-.98,5.42-.7,3.24-2.11,6.84-3.78,11.1-1.69,4.26-3.61,9.2-5.54,15.11l1.66-.29c-.94,1.84-2.25,4.75-3.88,8.2-1.16-.12-2.35-.3-3.54-.56,.85,.31,1.67,.62,2.52,.85,.27,.41,.4,.71,.44,.94-.09,.19-.18,.38-.27,.56-.12,.05-.26,.07-.44,.08-.71,0-1.83-.37-2.35-.61,1.42,.93,2.18,1.06,2.62,.87-.06,.12-.11,.23-.17,.35-.55,1.13-1.13,2.3-1.72,3.51-.6,1.2-1.27,2.39-1.91,3.62-.68,1.28-1.38,2.58-2.08,3.9-.72,1.37-1.51,2.74-2.19,4.14-5.77,11.13-10.3,22.79-13.2,27.27-1.08,8.12-.08,2.62,.92,.38,.03,.17,.08,.34,.17,.49,.08-.09,.21-.16,.35-.22-.62,3.34-1.13,6.13-1.57,8.5-.09,.48-.37,1.73-.53,2.69-.19,1-.37,1.94-.55,2.85-.39,1.82-.62,3.46-.94,5.01,.31,.66,.62,1.29,.91,1.9,.14,.3,.28,.6,.42,.89,.11,.26,.23,.51,.34,.77,.21,.49,.42,.97,.62,1.43,.09,.22,.19,.44,.28,.66l.35,.52c1.03,1.52,2.15,3.38,3.86,6.14,1.09,.46,2.3,.89,3.53,1.44,.62,.28,1.26,.56,1.92,.86,.33,.15,.67,.29,1.01,.44,.15,.08,.31,.17,.47,.26,2.49,.84,3.2,1.08,3.11,.91-.12-.16-1.08-.72-2.26-1.31-.29-.15-.59-.3-.89-.46-.08-.05-.46-.21-.76-.34-.31-.13-.61-.26-.91-.39-1.18-.51-2.22-.97-2.97-1.26-1.47-.62-1.48-.84,1.4-.21,.92,.38,1.81,.75,2.66,1.1,.22,.09,.43,.18,.64,.26,.18,.08,.23,.11,.35,.16,.2,.1,.41,.2,.6,.29,.78,.37,1.5,.72,2.17,1.04l3.5,1.66c2.07,.92,3.66,1.62,5.36,2.37,1.7,.76,3.46,1.65,5.73,3.17,2.23,1.54,4.96,3.75,8.03,7.39,.35,.96-.61,.18-1.86-.97-1.28-1.12-2.93-2.55-3.88-2.96,2.78,1.88,5.86,4.57,8.65,8.04,2.79,3.46,5.31,7.68,7.01,12.45,1.7,4.76,2.63,10.03,2.79,15.38l.05,2.01c.03,.67-.05,1.35-.06,2.02-.07,1.35-.07,2.63-.24,4.12-.28,2.88-.49,5.73-.77,8.46-1.12,6.17-2.31,13.08-4.44,20-2.05,6.93-4.71,14.03-8.44,20.39-3.73,6.36-8.43,11.99-13.96,16.41-1.08,.86-2.19,1.67-3.32,2.45-.58-.19-1.15-.32-1.69-.36,.46,.12,.94,.31,1.42,.55-.56,.38-1.12,.75-1.68,1.1-.06-.03-.13-.06-.18-.08,.05,.04,.09,.07,.14,.11-4.09,2.59-8.44,4.68-12.86,6.28l-.25,.7c-2.87,.7-5.37,1.54-8.8,2.64-.5,.16-1,.33-1.49,.5-.31-.37-.61-.77-.81-1.18-.08-.16-.17-.32-.24-.47l-.12-.34c-.08-.23-.1-.43-.09-.61,0-.38,.17-.75,.5-1.11,.04-1.73,.22-3.17,.21-4.28-.02-1.12-.13-1.94-.57-2.62-.22-.33-.52-.64-1-.82-.48-.18-1.1-.17-1.71-.07-1.23,.23-2.42,.65-3.62,1.04-.6-.15-.04-1.33-.05-2.26,.79-.45,1.63-.87,2.53-1.17,.89-.31,1.83-.58,2.78-.59-.89-.47-1.87-.66-2.86-.73,.83-.53,2.12-.75,3.31-.71,.6,0,1.15,.14,1.6,.23,.43,.11,.78,.14,1.03-.06-.51-.3-1.19-.53-1.91-.6-.73-.04-1.48-.01-2.24,.12-1.51,.22-3.02,.68-4.43,1.31-3,1.34-5.71,3.5-6.91,5.76,.79-.4,1.59-1.01,2.46-1.67,.87-.66,1.83-1.32,2.79-1.75,.39,.1,.87,.13,1.23,.29,.37,.15,.59,.45,.43,.99-.25,.21-.48,.42-.7,.62-2.38,2.19-3.77,3.52-5.3,4.81-.37,.32-.74,.64-1.11,.97-.45,.4-.89,.81-1.35,1.22-.35,.33-.71,.66-1.07,.99-.38,.36-.76,.73-1.15,1.09-.78,.75-1.57,1.52-2.38,2.3-.86,.82-1.93,1.68-2.84,2.15-.9,.48-1.62,.64-1.79,.31,1.12-.97,.2-1.11,1.04-2.08-1.09,1.13-1.13,1.86-1.3,2.58-.09,.35-.21,.72-.57,1.04-.36,.33-.94,.69-1.94,.89,.23-.94,.45-1.89,.64-2.87-.38,.87-.88,1.36-1.46,1.59-.58,.22-1.25,.21-1.93-.1-.33-.16-.65-.38-.92-.65-.26-.27-.35-.63-.55-.9-.36-.58-.73-1-1.29-1.13-.07-.98,.28-1.21,.69-1.03,.4,.16,.9,.77,1.37,1.58-.46-1.18-.82-1.44-1.22-1.58-.4-.13-.9-.22-1.42-1.05,.74-.25,1.4-.51,1.96-.79-.89,.27-1.38-.61-1.46-1.75-.06-.58-.05-1.2,0-1.75,.03-.55,.07-1.03,.06-1.39-.2,.16-.45,.8-.8,1.16-.34,.36-.79,.36-1.47-.81-.4-1.14,.33-1.03,.42-1.45-.22,.15-.72,.14-1.22,.03-.51-.09-1.03-.4-1.52-.81,.17-.35,.52-.39,.92-.38,.41,0,.82,.11,1.14-.1-.37-.45-.81-.76-1.12-1.14-.31-.39-.58-.75-.75-1.27-1-.43-1.12-.12-1.16,.18-.04,.33-.04,.68-.72,.74-1.04-.98-.95-1.54-.48-2.2,.44-.64,1.3-1.24,.96-2.23,.78,.04,1.55,.31,2.35,.58,.74,.36,1.55,.71,2.21,1.18,.34,.24,.67,.47,.99,.69,.16,.11,.31,.22,.46,.33,.13,.1,.26,.21,.38,.3l.69,.53,.31,.22c.06,.01,.1,0,.15,.01-.04-.03-.04-.02-.11-.08l-.25-.25-.51-.5c-.17-.17-.33-.33-.52-.5l-.61-.51c-.41-.33-.81-.67-1.23-.97l-1.31-.83c.19-.12,.14-.42-.03-.78-.18-.34-.48-.73-.71-1.08-.45-.68-.65-1.23,1.15-.65-.7-.53-1.44-1.08-2.29-1.45-.42-.2-.84-.42-1.28-.57-.45-.15-.9-.28-1.36-.41-1.85-.43-3.85-.51-5.75-.13-.96,.13-1.88,.46-2.78,.75-.87,.35-1.76,.74-2.53,1.17-1.57,.89-2.72,1.78-3.73,2.67,.77-.19,1.74-.51,1.87,.03-1.06,.9-1.55,1.15-2.01,1.09-.43-.04-.74-.36-1.14-.44-1.22,1.69-.1,2.7-.22,4.26-1.8,.74-2.64,1.42-3.46,1.99-.83,.57-1.62,1.06-3.35,1.67l1.25,.82c-.58,.22-.92,.5-1.14,.81-.14,.18-.12,.24-.16,.37-.03,.12-.04,.25-.05,.39-.04,.55-.14,1.21-.9,1.51-.24-.21-.11-1.01-.07-1.61-.24,.69-.62,.69-.95,.64-.34-.04-.64-.14-.81,.6-.1-.81-.23-1.54-.4-2.23-.36,.58-.73,2.01-1.11,.13,.07,1.36-.36,2.45-.8,3.48-.46,1.05-.93,2-1.39,3.72l.14-2.54c-.04,.34-.09,.63-.14,.9l-.08,.38-.04,.17c-.02,.05-.03,.02-.04,.03-.22,0-.46-.78-.71-1.26-.26-.48-.54-.7-.94,.07l.12-.88c-.46,.26-1.02,.37-1.64,.32-.44-1.13,.76-2.83,.43-2.35-.53-.66-1.07-1.33-1.48-2.02-.2-.35-.39-.67-.52-1.02l-.05-.13-.11-.22-.2-.45c-.12-.3-.24-.6-.36-.89-.89,.26-2-.33-3.15-1.23-.61-.44-1.22-.96-1.82-1.51-.61-.54-1.24-1.09-1.82-1.6-.58-.73-1.3-1.38-1.96-2.07-.69-.67-1.46-1.28-2.21-1.9-1.6-1.15-3.29-2.26-5.22-3.02-.93-.44-1.96-.69-2.95-1-1.04-.2-2.06-.45-3.13-.48-1.05-.12-2.12-.03-3.18,.02-1.05,.16-2.1,.29-3.09,.63-1.02,.25-1.95,.7-2.89,1.09-.89,.5-1.79,.94-2.58,1.55-1.65,1.1-2.99,2.48-4.22,3.86-2.14,2.57-3.66,5.37-4.8,8.15-2.14-1.43-4.24-2.93-6.29-4.55-6.95-5.51-13.31-12.19-17.73-19.86-2.2-3.83-3.91-7.89-4.95-12.08-.21-1.06-.46-2.11-.65-3.17-.12-1.07-.31-2.13-.41-3.2-.02-.55-.06-1.08-.09-1.62,2.4-1.7,4.41-1.06,6.91-1.7-.62-.14-1.23-.24-1.86-.35,2.24-3.32,2.47-1.02,4.05-3.94l1.21,2.01c.16-1.57,2.87-2.1,4.01-1.95,.01-.61,.04-1.24,.08-1.86,2.41-.17,3.82-.19,4.81,1l-.63-1.35c.51,.31,2.34-.21,3.78-.24,.71,.04,1.31,.14,1.6,.38,.29,.28,.25,.65-.21,1.32,.23-.2,.45-.46,.75-.64,.3-.18,.7-.35,1.2-.2l-.06,1.5c.34-.03,.69-.05,1.03-.08,.34,.02,.66,.1,.95,.18,.59,.11,.98,.53,.98,.97-.41,.01-.71,.12-.97,.33-.26,.23-.47,.51-.67,.79,1.07,.45,1.81,.55,2.43,.45,.62-.14,1.09-.58,1.55-1.03,.47-.46,.92-.93,1.6-1,.66-.05,1.66,.12,2.94,1.44l-.74,.62c.65,.18,1.36,.33,2,.63l.08,.58c.03,.2,.02,.35,.16,.67,.22,.55,.41,1.17,.62,1.81,.24,.08,.49,.16,.72,.29,.22,.14,.44,.3,.66,.49,.44,.37,.87,.81,1.3,1.33,.85,1.03,1.71,2.33,2.51,3.99,1.67,3.25,3.29,7.48,4.95,11.02,1.42-1.93,2.82-4.12,3.96-6.41,.9-1.47,2.04-2.3,3.55-3.6,.76-.62,1.58-1.46,2.51-2.31,.46-.44,.93-.93,1.42-1.47,.49-.53,1.02-1.02,1.53-1.61-.38-.31-.76-.64-1.13-.97,.52-.23,1.13-.68,1.95-1.16,.53-.21,1.1-.54,1.74-.78,1.24-.58,2.68-1.06,4.02-1.31,1.35-.25,2.59-.15,3.49,.28,.46,.16,.82,.51,1.11,.8,.29,.36,.49,.74,.61,1.15,1.1-1.07-.09-.32-.11-1.47,.31-.19,.61-.31,.88-.37,.28-.03,.52-.06,.74,0,.22,.07,.4,.15,.56,.26,.16,.12,.29,.29,.4,.45,.22,.31,.36,.74,.5,1.14,.14,.38,.29,.83,.55,1.2,1.05,.17,.81-.13,.43-.56-.35-.37-.82-.9-.08-1.14,1.19,1.23,2.04,1.32,3.07,1.48,.51,.12,1.07,.19,1.7,.61,.32,.21,.66,.43,1.02,.81,.18,.18,.37,.39,.56,.62l.15,.18,.02,.02,.1,.1c.08,.08,.08,.08,.11,.12l.16,.19c.22,.26,.43,.55,.66,.85,.12,.78-.47,.3-1.29-.42l-.18-.16c-.16-.14-.15-.12-.18-.15l-.17-.11-.34-.2c-.23-.12-.45-.22-.64-.21,.32,.13,.65,.29,.98,.48l.13,.07,.06,.04,.22,.19c.16,.14,.33,.28,.49,.43,.32,.3,.64,.61,.97,.93,.65,.65,1.34,1.28,1.98,2.05,.64,.78,1.29,1.6,1.97,2.43,2.64,3.43,5.49,7.49,8.23,11.4l.24-.21,.25-.31,.5-.62,1-1.24c.66-.83,1.33-1.67,1.98-2.49,1.33-1.67,2.63-3.35,3.88-4.96,1.2-1.28,2.48-2.71,3.87-4.11,.7-.7,1.39-1.48,2.15-2.19,.38-.37,.76-.73,1.13-1.06l.28-.26,.14-.13,.08-.07,.3-.25c1.61-1.28,3.31-2.52,4.85-3.33l.27-.15,.1-.02,.2-.03c.11,0,.19,.01,.28,.03,.17,.04,.33,.12,.44,.24,.23,.23,.28,.64,.1,.95l.33-.45c-.17,.34-.3,.47-.35,.54l-.04,.05h0s0,0,0,0l.04,.08c.06,.11,.12,.22,.19,.33,.61,1.05,1.42,2.65,1.67,4.53,.06-.65,.13-1.33,.17-1.96,.84,.95,1.21,1.89,1.51,2.83l6.51,20.32,11.72-17.31c.64-.94,1.32-1.84,1.97-3.09l2.16-.37c1.32-2.73-.3-1.83,.32-4.07,2.39-1.65,5.04-6.59,5.87-7.39,1.07-.18,.11,1.43,.19,2.01,.41-.7,.63-1.27,.78-1.79,.15-.5,.22-.94,.33-1.39,.1-.46,.24-.91,.5-1.41,.12-.24,.33-.55,.48-.78,.08-.14,.2-.29,.35-.44l.29,.31c.04-.72,.38-1.5,1.07-2.03,.34-.25,.77-.39,1.19-.36,.42,.03,.82,.21,1.19,.46,.38,.25,.71,.56,1.06,.93l.27,.31c.05,.06,.08,.09,.15,.17l.26,.37c.34,.49,.69,.96,1.03,1.5l.51,.78,.13,.2c.04,.07,.08,.11,.16,.26l.42,.74c.55,.99,1.13,1.95,1.66,2.94,1.04,1.95,2.07,3.88,3.09,5.8,.77,.46,1.36,.85,1.97,1.25l.91,.6c.33,.2,.52,.41,1,.52-.13-.06-.23-.12-.32-.18-.07-.03-.11-.12-.15-.17-.07-.12-.1-.22-.12-.31-.03-.19,0-.36-.06-.63,.29,.22,.48,.46,.94,.59,.4,.14,.79,.33,1.22,.41,.84,.22,1.71,.34,2.58,.34,1.74,.02,3.45-.38,5.07-1.06,3.23-1.34,6.15-3.83,8.57-6.71,.62-.71,1.18-1.46,1.74-2.2,.53-.73,1.09-1.53,1.41-2.07,.74-1.19,1.42-2.38,2.03-3.58,1.22-2.41,2.17-4.74,2.9-7.18l-1.94-.52c-.76,1.24-1.58,2.47-2.43,3.7-.01-1.33,.07-2.77,.22-4.3l-1.88-.51c.28,1.97,.72,3.73,1.28,5.36-.87,1.25-1.77,2.5-2.64,3.73-1,1.43-1.97,2.83-2.89,4.15-1.01,1.51-1.96,2.93-2.83,4.23-1.33,.39-2.72,1.54-4.19,2.27-1.43,.75-2.87,.93-3.32,.19-.73,0-1.43-.08-2.08-.27-.32-.1-.65-.17-.94-.32-.27-.16-.66-.19-.75-.51-.6-1.02-1.14-1.91-1.78-2.71-.73-1.21-1.49-2.31-2.3-3.43-.39-.57-.83-1.12-1.26-1.7l-.66-.88c-.23-.31-.41-.49-.61-.75-.4-.47-.79-.97-1.22-1.45-.41-.45-.86-1.06-1.21-1.4-.73-.83-1.47-1.62-2.34-2.51-.57-.95,.16-1.34,.3-2.26,1.78,1.26,3.27,2.9,4.81,4.89-.62-1.42-1.29-2.7-2.11-4.08,.84,.5,1.97,1.91,2.89,3.16,.96,1.22,1.79,2.32,2.55,2.21-1.22-1.27-2.33-2.76-3.72-4.43-1.37-1.61-2.84-3.28-4.67-4.43-.92-.55-1.92-.96-2.96-1.1-1.03-.09-2.07,0-2.98,.39-1.85,.69-3.2,2.08-4.01,3.35,1.06-.63,2.2-1.43,3.57-1.98,.68-.28,1.42-.45,2.17-.51,.37,.02,.75,.02,1.12,.09,.36,.11,.74,.15,1.07,.34,1.14,.99,2.37,2.61,1.87,3.23-1.59-.69-3.23-.96-4.72-.48-1.48,.46-2.65,1.37-3.71,2.28-.53,.47-1.02,.92-1.58,1.5l-.42,.43-.5,.55c-.33,.37-.68,.73-1,1.13-1.34,1.54-2.64,3.28-3.9,5.19-1.26,1.92-3.21,4.38-4.03,4.27,.69-1.39-.48-.82-.02-2.04-1.43,3.04,1.95,1.83-1.06,5.53l-1.74-1.99c.71,2-1.04,3.29-2.56,4.94l-4.34,4.72-.84-5.57c-.18-1.19-.51-2.42-1.44-3.31,.56-1.45,1.91,.36,2.7,2.84-.42-2.94-1.94-2.72-2.71-4.81,.95,.37,1.88,.81,2.83,1.27-1.41-.84-1.7-1.87-1.69-2.95,.02-1.08,.35-2.19,.28-3.04-.27,.06-.6,.59-1.05,.75-.47,.17-.94-.03-1.67-1.22-.5-1.18,.26-1.07,.31-1.53-.25,.13-.7,.14-1.27,.02-.56-.13-1.18-.43-1.92-.92,.06-.44,.43-.52,.89-.54,.45,0,.95,.08,1.23-.19-1.18-1.09-2.32-1.61-3.25-2.58-1.48-.15-1.48,.26-1.37,.56,.12,.33,.3,.7-.54,1.01-.92-.26-1.42-.44-1.66-.72-.24-.27-.22-.67-.09-1.06,.23-.79,.99-1.73,.06-2.44,.99-.37,2.11-.49,3.25-.47,1.12,.07,2.26,.31,3.27,.73,2.05,.79,3.6,2.08,4.59,2.78-2.01-2.04-4.48-3.56-7.21-4.06,.37-.37-.93-1.07-1.87-1.49-.46-.21-.82-.41-.75-.59,.07-.16,.58-.41,1.84-.43-2.28-.56-4.85-.43-7.32,.35-.62,.19-1.23,.44-1.84,.69-.61,.25-1.19,.59-1.78,.89-.6,.29-1.14,.65-1.69,1l-.81,.54c-.27,.19-.43,.33-.65,.49-1.67,1.27-3.02,2.65-4.3,4-.61,.68-1.19,1.36-1.75,2.03l-.4,.5-.19,.29c-.11,.18-.22,.36-.33,.53,.48-.07,1.07-.41,1.41,.01-1.11,1.84-1.52,.78-2.08,.46-.24,.69-.2,1.44-.14,2.23,.06,.8,.18,1.63,0,2.67-.95,.48-1.5,.85-1.95,1.21-.22,.17-.42,.32-.61,.48-.1,.07-.19,.13-.28,.19-.09,.02-.19,.22-.28-.11-.31-.74-.64-1.72-.98-3.05l-.16,2.1c-.5-1.58-.84-1.64-1.33-1.77-.46-.11-1.05-.31-1.6-1.56,.09-.38,.83-.11,1.34-.02-.67-.42-.81-1.04-.89-1.57-.1-.53-.15-1.03-.84-1.31,.64-.16,1.25-.29,1.77-.54-.17-.15-.37-.31-.57-.47l-.08-.06s-.04-.03,0,.01c.03,.03-.04-.04-.06-.05l-.35-.31c-.22-.2-.43-.4-.61-.59-.71-.74-1.04-1.28-.08-1.39-2.17-.82-4.67-2.5-7.63-3.97-2.95-1.47-6.55-2.58-9.66-2.4l.56-1.22c-1.73,.54-4.71,.43-7.54,1.09-2.81,.62-5.32,1.81-5.96,3.24l-.63-.27c-1.42,1.44-2.63,2.92-3.64,4.47-1.95,1.35-2.55-.58-2.37-.07l-.7,.7-.17,.17s-.03,.03-.04,.05c0,.02-.09,.11-.13,.16-.21,.24-.41,.48-.61,.71-.39,.48-.79,.91-1.14,1.32-.72,.8-1.37,1.4-1.87,1.58-.03,.74-.19,1.5-.46,2.3-.26,.8-.62,1.69-1.04,2.52-.59-.55-1.22-1.72-1.94-2.76-.42-.84-.8-1.67-1.25-2.44-.47-.76-.92-1.51-1.41-2.22l-.85-1.09c-.43-.5-.79-1.04-1.28-1.52l-1.42-1.43-.72-.71c-.25-.22-.53-.43-.8-.65l-1.62-1.27c-.55-.41-1.18-.74-1.77-1.11-1.16-.77-2.51-1.26-3.79-1.82-2.69-.91-5.53-1.33-8.3-1.21-2.77,.17-5.39,.84-7.81,1.77-2.43,.94-4.61,2.23-6.65,3.59-3.71,2.56-6.83,5.55-9.55,8.65v-1.88c.1-9.61,1.14-19.02,3.23-27.83-.68,2.36-.84,1.68-1.38,2.53,1.11-5.11,2.87-10.13,4.91-15.06l.49-1.06c.31,.24,.65,.51,1.02,.83,.55,.67,.88,1.32,1.11,1.97l.29,.83,3.61-1.33c1.24-.46,2.68-.53,4.15-1.06-.6-.07-1.18-.11-1.79-.15,.63-1.65,1.21-1.94,1.65-2.19,.46-.24,.79-.44,1.27-1.88l1.51,1.79c-.09-.75,.47-1.3,1.17-1.68,.71-.35,1.56-.51,2.09-.5-.1-.59-.2-1.2-.28-1.79,2.13-.37,3.38-.48,4.44,.62l-.77-1.27c.5,.23,2.01-.4,3.23-.53,.3-.02,.59-.03,.83,0,.24,.03,.44,.13,.57,.24,.27,.24,.28,.65-.02,1.31,.31-.36,.63-1.21,1.51-1.03l.09,1.47c1.05-.35,2.46-.3,2.5,.64-.69,.11-1.01,.74-1.3,1.35,.11,.03,.21,.05,.32,.06,.1,.03,.2,.07,.29,.09,.19,.04,.37,.05,.53,.04,.34,0,.63-.02,.9-.16,.53-.26,.94-.75,1.33-1.24,.4-.49,.78-1.01,1.4-1.21,.31-.09,.69-.15,1.15-.02,.45,.15,.99,.42,1.64,.88l-.66,.7c.61,.09,1.24,.19,1.89,.31,.08,.54,.52,1.69,.89,2.7,.42,.03,.84,.14,1.26,.31,.21,.09,.41,.19,.62,.3,.21,.12,.42,.33,.62,.52,.83,.78,1.66,1.81,2.52,3.02,.83,1.26,1.68,2.71,2.57,4.23,.87,1.52,1.72,3.1,2.59,4.57,.18-.02,.37-.05,.55-.08,.05-.01,.09,0,.14-.03l.15-.17,.31-.34c.41-.45,.8-.92,1.19-1.4,.77-.96,1.48-1.96,2.08-3,.86-1.16,1.94-1.75,3.37-2.71,1.41-.94,3.18-2.28,4.93-4.45-.38-.31-.76-.62-1.14-.95,.45-.23,1.02-.6,1.69-1.1,.66-.48,1.53-1.23,2.05-1.56,1.21-.89,2.62-1.92,4.03-2.96,.71-.51,1.44-1.02,2.15-1.49l.54-.34c.08-.04,.21-.15,.24-.13h.13c.17,0,.34,.03,.5,.07,.65,.15,1.17,.62,1.64,1.4-.38-1.35-.16-.3-.78-1.38-.03-.53,.08-.9,.19-1.05,.43-.57,.88,1.28,.99,2.21,.04-.65,.04-.87-.04-1.07-.06-.22-.21-.4-.18-1.34,.18,.21,.25,.16,.34-.11,.04-.13,.08-.31,.12-.53,.04-.21,.07-.27,.11-.43,.08-.28,.18-.52,.32-.49,.13,.02,.3,.35,.44,1.04-.2,1.15-.38,.38-.56,1.05,.25-.5,.57-.33,.93,.03,.17,.17,.34,.38,.52,.6l.14,.17,.07,.08,.05,.06,.18,.2c.49,.54,1.02,1.07,1.57,1.6,1.09,1.06,2.34,2.07,3.68,2.99,1.37,.91,2.86,1.71,4.42,2.3,2.07,1.08,4.73,1.96,7.67,2.2,.73,.05,1.47,.06,2.23,.07,.74-.03,1.49-.09,2.24-.16,1.33-.23,2.69-.44,4.06-.81,.69-.22,1.39-.45,2.08-.7l1.05-.38,1.02-.49c.68-.34,1.36-.69,2.03-1.05,.65-.39,1.28-.84,1.91-1.27l.94-.67c.3-.23,.58-.49,.87-.73l1.65-1.47c.14-.03,.29-.06,.38-.02,.21,.05,.35,.21,.47,.53l-.21-.7c.2,.54,.25,.77,.26,.83,0-.01,0-.03,0-.07-.02-.13,0-.23,.03,.16-.01-.34-.05-.72-.11-1.13-.01-.58,.08-.55,.16-.49,.09,.07,.15,.2,.34,.1-.05,.34-.11,.66-.2,.98l-.09,.29c-.03,.1-.09,.18-.03,.31,.25,.05,.46,.07,.64,.07,.38,.07,.84,.15,1.13,.16,.61,.04,.93-.05,1.19-.16,.52-.27,.88-.51,2.9-.6,1.2,.42,2.81,.62,4.45,.52,.81-.05,1.67-.14,2.44-.32,.8-.16,1.59-.37,2.27-.62,1.46-.47,2.6-1.09,3.57-1.58,.9-.52,1.6-.93,1.99-1.13,.66,.01,.52,.42,.07,.89-.44,.47-1.13,1.02-1.31,1.36,1.04-.68,1.78-1.26,2.24-1.81,.33-.32,.25-.41,.24-.54-.03-.11-.06-.23-.08-.34-.1-.47-.04-.95,.31-1.25l.09,.46c.09-.31,.21-.68,.37-.97,.4-.12,.96,.02,1.78,.25,2.88,1.38,6.68,2.78,10.88,2.75,2.1,0,4.24-.35,6.22-1.04,1-.34,1.93-.77,2.82-1.24l1.28-.76,.15-.09,.06-.05,.12-.1,.25-.2c.83-.78,1.4-1.71,2.01-3.07-.19,.16-.16-.33-.27-.62,.44-.73,.85-1.53,1.22-2.39,.29-.69,.56-1.43,.78-2.2l.16-.59c.03-.18,.05-.01,.07,.04l.06,.21c.08,.28,.15,.56,.25,.84,.35,1.12,.83,2.23,1.5,3.31,.68,1.09,1.57,2.16,2.91,3.17,.15,.1,.38,.3,.63,.54,.26,.22,.53,.42,.8,.63,.51,.41,1.11,.75,1.67,1.07,1.18,.6,2.38,1.04,3.59,1.14-1.67-.67-3.25-2.08-4.45-3.78-.32-.45-.55-.85-.78-1.22-.21-.41-.43-.82-.65-1.24-.2-.44-.4-.88-.6-1.32l-.56-1.38c-.72-1.86-1.33-3.8-1.9-5.29-.55-1.49-1.05-2.52-1.48-2.45,0-.4-.02-.77-.05-1.1l-.02-.24v-.12s-.02,.02-.03,.02l-.08,.22c-.14,.42-.28,.86-.42,1.28-.32,.96-.69,1.93-.93,2.15-.12,.12-.23,.05-.28-.29-.91,1.55-1.95,3.11-2.93,4.5-1,1.39-1.93,2.58-2.91,3.6l-.39,.39c-.13,.13-.34,.28-.51,.42-.35,.29-.73,.56-1.13,.81-.79,.53-1.69,.96-2.68,1.31-1.98,.7-4.43,.86-6.98,.21-1.36-.67-.42-1.22-.59-2.03,2.41,.57,5.01,.52,7.3-.25-1.47,.12-2.93-.05-4.28-.44,.93-.21,2.44-.2,3.72-.61,1.28-.38,2.26-1.09,2.16-1.81-.98,.9-2.44,1.55-4.08,1.72-1.65,.19-3.44-.14-5.12-.75-.41-.17-.84-.31-1.24-.5-.41-.19-.81-.38-1.21-.57-.81-.45-1.6-.87-2.31-1.31-1.46-.83-2.65-1.6-3.57-1.89-.06-.07-.11,.06-.16,.13l-.14,.22,.15-.1c.05-.03,.1-.1,.16,0,1.57,1.8,3.6,3.03,5.97,4.4,.45,.55,1.16,1.07,1.71,1.57,.56,.47,.98,.89,.8,1.23-1.15-.09-2.27-.35-3.29-.68-.46-.16-.91-.32-1.36-.47-.31-.11-.61-.22-.9-.35-1.13-.51-2.05-1.17-2.92-1.91-.02-.01-.03-.03-.05-.03l-.05,.05-.09,.09-.19,.18-.37,.35c-.25,.23-.49,.47-.76,.68-.51,.44-1.05,.86-1.61,1.25-.28,.22-.54,.37-.88,.6-.5,.34-1.04,.65-1.61,.96l-.84,.47c-.3,.14-.6,.29-.91,.43-.6,.3-1.25,.56-1.93,.81-.62,.27-1.4,.42-2.14,.58-.78,.09-1.55,.2-2.28,.13-.72-.03-1.36-.14-1.85-.32-.48-.16-.79-.35-.88-.56,.96,.02,1.09-.21,1.18-.42,.09-.23,.15-.43,.86-.59-1.86,.2-2.12,.74-2.56,1.22-.22,.23-.51,.44-1.13,.43-.3-.01-.69-.08-1.19-.23-.23-.07-.33-.12-.53-.21-.17-.08-.41-.19-.51-.28,.36-.76,.81-1.49,1.28-2.22-.33,.24-.59,.38-.82,.44-.79,.24-1.39-.51-2.08-1.51-.66-.97-1.39-2.24-1.8-2.11-.27-1.09-.28-1.56-.02-1.48,.25,.07,.76,.66,1.45,1.39-.76-1.17-1.11-1.41-1.37-1.44-.26-.04-.44,.09-.81-.69,.07-.67,.23-1.22,.48-1.69-.28,.34-.52,.13-.78-.5-.26-.62-.55-1.64-.84-2.78-.08-.32-.16-.64-.23-.95l-.06-.24s-.01,.04-.02,.06l-.03,.17c-.04,.22-.08,.4-.13,.58,0,.07,.02,.09,.04,.1,0,.01,0-.01,.02,.03l.06,.28c.04,.21,.07,.4,.11,.61,.12,.86,.21,1.87-.09,3-.35,.66-.41-.68-.59-.87,.12,.95,.26,3.23-.28,4.76-.22-.3-.22-.86-.23-1.53,0-.65,.02-1.46-.08-1.92-.24,.69-.44,1.33-.71,1.85-.25,.53-.51,.94-.93,1.12-.5,1.36-.32,1.57-.08,1.7,.23,.11,.54,.22,.4,1.16-.13,.14-.25,.26-.36,.36-.44,.4-.79,.48-1.07,.36-.28-.12-.47-.42-.65-.82-.37-.77-.64-1.93-1.62-1.85,.21-.47,.29-1.15,.47-1.79,.25-.32,.55-.63,.82-.93,.23-.31,.48-.61,.73-.9,.56-.58,.91-1.12,1.33-1.62,.76-1,1.24-1.81,1.51-2.35-.82,1.24-1.86,2.57-3.58,3.94-.03-.25-.32-.3-.71-.3-.44,0-1.06,.06-1.57,.05-.48,.49-.83,.71-.62-.89,.15-.14,.38-.31,.7-.51-.29,.08-.58,.15-.89,.23l-.34,.86c-.12,.27-.19,.63-.37,.83-.31,.47-.61,.94-.93,1.42-.74,1.28-.93,1.19-1.26,1.58l-.22,.24-.25,.2c-.17,.13-.33,.28-.49,.43-.31,.31-.71,.49-1.04,.8-.74,.48-1.54,.97-2.45,1.32-.47,.24-.82,.34-1.19,.49-.37,.09-.74,.21-1.1,.24,.39,.35,1,.48,.93,1.03-.44,.16-.78,.16-1.01,.1-.24-.04-.38-.18-.46-.34-.17-.32-.13-.74-.23-1.06-.62,.16-1.05,.58-1.47,1.03-.43,.47-.84,1.02-1.55,1.29-1.33-1.3-2.01-2.03-2.65-2.77-.31-.36-.58-.77-.84-1.27-.12-.26-.24-.55-.35-.88-.06-.16-.11-.34-.15-.53-.02-.16-.21-.51-.32-.82-.28,.43-.56,.85-.86,1.27-.54-1.36-1.16-2.08-1.75-2.58-.31-.24-.6-.47-.9-.72-.3-.25-.59-.54-.87-1-.37-.24-.71-.6-1.09-1.12,.01-.36,.72-.19,1.67-.06l.37,.35-.32-.45c-.57-.25-.88-.55-1.15-.84-.27-.3-.45-.6-.63-.89-.38-.59-.85-1.1-1.75-1.49,.58-.11,1.25-.29,2.07-.52-2.06-.83-3.86-1.75-3.05-2.32-.64-.02-1.27-.27-1.83-.66-.3-.51-.84,.09-1.38,.31-.55,.29-1.16,.58-1.82,.87l-1.03,.44c-.34,.15-.77,.29-1.14,.44-.4,.15-.73,.31-1.16,.47-.42,.16-.83,.32-1.23,.5-.35,.56-.66,1.11-.96,1.62l-.28-1.72c-.72,2.19-2.54,4.47-4.4,6.75-.46,.57-.91,1.14-1.35,1.69l-.25,.34-.19,.27c-.12,.18-.24,.36-.35,.54-.42,.72-.69,1.41-.63,2.07l-.6-.1-1.44,4.34c-.34,.34-.66,.48-.95,.52-.26,0-.47-.12-.65-.24-.36-.25-.57-.54-.4-.33-1.27,1.99-2.71,3.78-3.79,3.98,0,.77-.15,1.56-.46,2.38-.15,.41-.34,.82-.55,1.24-.11,.2-.22,.43-.34,.62-.1-.07-.2-.15-.3-.24-.56-.48-1.17-1.31-1.83-2.04-.44-.7-.85-1.4-1.33-2.02-.47-.63-.9-1.24-1.52-1.89l-.87-.95c-.36-.35-.85-.78-1.28-1.17-.85-.82-1.85-1.52-2.83-2.22-2.04-1.32-4.26-2.53-6.75-3.13-2.46-.64-5.06-.81-7.53-.46-2.48,.34-4.81,1.15-6.88,2.24-2.08,1.09-3.92,2.44-5.57,3.9-3.12,2.8-5.59,5.95-7.53,9.29l-.27-.18c-.67-.55-1.59-1-2.63-1.4,.14-.31,.28-.62,.43-.93,.56-1.22,1.26-2.37,1.88-3.56l.96-1.78c.34-.58,.72-1.14,1.07-1.71,.73-1.13,1.41-2.3,2.19-3.41,3.08-4.45,6.64-8.56,10.47-12.38,.99-.92,1.98-1.84,2.97-2.76,.48-.47,1-.91,1.53-1.33l1.56-1.28c1.53-1.29,3.18-2.46,4.78-3.6,1.59-1.14,3.17-2.28,4.74-3.42-1.3-3.12-2.63-6.21-3.78-9.23-.93-2.37-1.85-4.71-2.76-7.03-1.49-3.72-3.07-7.37-4.74-10.86,.03-.05,.04-.09,.07-.14,.17-.3,.41-.64,.8-1,1.49-.72,2.88,.56,4.05,1.19-.3-.4-.64-.77-1-1.14,.52-1,.93-.95,1.19-.89,.29,.05,.45,.1,1.04-.91l.25,2.53c.1-.71,.48-.87,.83-.76,.36,.11,.67,.52,.8,.86,.19-.61,.4-1.22,.65-1.83,.84,1.04,1.14,1.85,.64,3.51l.6-1.59c-.04,.3,.09,.56,.21,.87,.12,.29,.26,.64,.39,.95,.07,.16,.1,.27,.18,.46,.07,.11,.13,.22,.17,.33,.05,.11,.04,.19,.14,.34,.13,.27,.14,.48-.03,.62-.09,.07-.22,.11-.42,.13-.1,0-.21,.01-.33,0l-.27,.07c.08,.01,.13,0,.24,.02l.42,.11c.28,.07,.58,.14,.9,.22,.3,.06,.61,.15,.95,.29,.32,.12,.65,.27,1,.5l-.42,1.44c.59,.17,1.1,.29,1.54,.39,.23,.02,.28-.01,.4,.03,.2,.06,.28,.25,.1,.63-.39,.21-.75,.77-1.08,1.34,.2,.18,.7-.27,1.39-.85,.68-.57,1.45-1.4,2.19-1.71,.5-.2,1.02-.1,1.36,.61l-.85,.46c.39,.04,.76,.06,1.23,.27-.11,.73-.13,1.6,.07,2.65,.32,.11,.64,.25,.95,.41,.34,.18,.69,.38,1.05,.6,.77,.45,1.65,.99,2.7,1.38,1.03,.42,2.33,.69,3.53,.69,1.22,0,2.37-.24,3.42-.62,1.04-.39,1.99-.93,2.85-1.61,.41-.33,.86-.77,1.17-1.13,.33-.37,.61-.75,.86-1.13,.49-.76,.82-1.49,1.01-2.16,.06-.2,.06-.25,.05-.32,0-.07,0-.14-.02-.22-.02-.15-.06-.3-.12-.47,0-.43,.49-.66,.98-.82,.49-.18,.96-.28,1.04-.9l-1.15-1.27c.74,.12,1.53-.43,2.33-.13,.39,.15,.83,.52,1.29,1.28,.46,.76,.9,1.93,1.24,3.44-.09-.77-.12-1.02-.12-1.1h0c-.06-.37-.14-.11-.45-1.51,.01-.28,.05-.49,.09-.63,.24-.67,.5,.06,.62,.96,.14,.92,.2,2.1,.21,2.74,.07-.5,.08-.72,.04-1.06-.03-.33-.12-.81-.04-1.61,.19,1.13,.27,.49,.49,.02,.01-.03,.02-.05,.03-.08v-.02c-.3-.46-.6-.9-.92-1.33,.3,.34,.67,.77,1.01,1.19,.2-.34,.47-.43,.65,.43-.03,.11-.06,.2-.09,.28,.21,.26,.41,.52,.62,.79l.92,1.17c.89,1.11,1.79,2.22,2.68,3.33,1.34,1.62,2.86,2.74,4.21,3.39,.75,.57,1.45,1.04,2.34,1.42,.45,.17,1.02,.35,1.59,.4,.57,.07,1.08,.09,1.62,.04,1.08-.04,2.23-.26,3.42-.63,1.18-.42,2.39-.97,3.6-1.64,2.43-1.3,4.88-3.01,7.15-5.01,1.15-1,2.22-2.09,3.27-3.21,.52-.57,1.01-1.14,1.51-1.74,.36-.49,.49-.61,.54-.63l-.33-.25c.59,.36,.56,.44,.53,.36-.04-.05-.06-.17-.03-.11-.09-.24-.19-.47-.31-.68-.18-.56-.11-.73-.05-.79,.08-.06,.15-.04,.24-.3,.11,.65,.18,1.31,.2,1.97,0-.33,.03-.73,.07-1.19,.04-.45,.07-.96,.24-1.39,.07,.68,.15,.82,.32,.85,.16,.03,.41-.02,.45,.06-.12,.37-.34,.51-.46,.68-.14,.16-.24,.3-.35,.49l.15-.18,.09-.11s.11-.04,.16-.07c.25-.11,.46-.2,.68-.3,.12-.04,.22-.1,.36-.1,.23,.05,.46,.12,.71,.22,.51,.19,1.06,.52,1.79,1.01l-.2,.38c1.82,.7,3.73,1.43,5.7,2.19,.97,.38,1.96,.72,2.96,1.08l.79,.27,1.1,.39c.7,.24,1.42,.43,2.13,.65,2.84,.83,5.7,1.42,8.45,1.69,1.38,.16,2.74,.31,4.09,.43l1.01,.09c.28-.02,.44-.15,.67-.22l.62-.27,.8-.25c.24-1.3,.53-2.63,.79-3.89-.34,.83-.5,.25-.84,.25,.47-1.78,1-3.48,1.54-5.07,.06-.2,.15-.38,.25-.54l.16-.24,.13-.18c.13-.2,.21-.32,.34-.48,.23-.3,.46-.61,.74-.92,1.06-1.23,2.38-2.48,3.78-3.73,.91-.93,1.78-1.91,2.86-3.12,.28-.28,.58-.55,.91-.73,.33-.18,.66-.26,.98-.31,.64-.09,1.29-.15,2.03-.27-.43-.18-.87-.43-1.34-.72-.46-.29-.98-.64-1.59-.74-.61-.1-1.22,.08-1.79,.32-.57,.24-1.17,.51-1.76,.81-2.33,1.13-4.84,2.97-5.44,5.36-1.93,.2-2.27,2.93-3.86,2.7-1.03,1.31-1.6,2.67-1.92,4.16-.09,.23-.18,.46-.27,.69-.06,.24-.12,.47-.17,.7-.07,.22-.09,.5-.2,.65l-.62,.06c-.84,.1-1.67,.18-2.58,.25-1.8,.1-3.98,.03-6.72-.93-.95-.65-.25-1.2-.32-2.01,1.73,.42,3.4,.66,4.99,.83-1.01-.48-1.96-.96-2.85-1.49,.64-.14,1.64,.11,2.52,.22,.89,.08,1.63,.02,1.59-.74-1.58,.57-4.17-.08-6.51-.96-2.43-.88-4.74-1.99-6.81-2.17,1.28,1.26,3.39,1.98,5.21,2.94,.57,.81,1.99,1.78,1.69,2.44-.45-.02-.89-.06-1.35-.14-.42-.07-.83-.14-1.24-.21-.75-.17-1.49-.34-2.19-.6-1.41-.49-2.72-1.15-3.97-1.91-.63-.37-1.23-.8-1.84-1.22l-.9-.66c-.29-.22-.64-.47-.81-.61-.89-.69-1.54-1.2-2.29-1.71-.37-.24-.73-.63-1.06-1.05-.32-.42-.62-.86-.65-1.35,.63,.04,.27-.99,.84-1.05-.74-.13-.86,.74-1.02,1.36-.17,.67-.33,1.03-1.23,.8,.02-1.1,.07-2.18,.15-3.26-.44,1.69-1.02,1.59-1.82,1.55-.76-.06-1.75,.05-1.93,1.48-.44-.34-.59-.86-.44-1.44,.14-.58,.59-1.21,1.21-1.61-.79,.15-1.04,.77-1.19,1.37-.14,.61-.18,1.24-.56,1.67-.18-1.02-.28-2.1-.29-3.22-.05,1.67-.43,2.01-1.05,2.06-.61,.03-1.4-.18-1.89-.05,.31,.49,1.78,1.26,.8,2.68-.59,.47-.81-.25-1.14-.31,.18,.23,.36,.67,.45,1.16,.08,.5,.1,.99-.22,1.54-.72-.22-.48-1.3-1.04-1.84-.47,.89-.84,1.67-1.72,1.85-.28,.89-.09,1.08,.19,1.18,.27,.11,.65,.15,.55,.9-1.15,.99-1.58,.49-1.96-.23-.38-.75-.79-1.66-1.55-1.99,.18-1.02,.42-1.91,.58-2.66,.05-.21,.04-.33,.1-.53,.17-.39,.24-.65,.35-.96,.2-.59,.35-1.12,.44-1.55l-1.12,2.47c-.11,.36-.29,.8-.46,1.2-.27-.35-.79-.28-1.19-.38-.41-.08-.68-.33-.67-1.01-.82,.4-1.36,1.01-2.03,1.87-.33,.42-.69,.9-1.09,1.38-.2,.24-.41,.49-.63,.73-.21,.24-.45,.51-.71,.6,.25,.45,.59,.46,.52,1.23-.55,.66-.87,.28-.92-.17-.07-.46,0-1.05-.02-1.54-.62,.23-.95,2.13-1.72,2.94-.52-1.64-.82-2.2-1.08-2.83-.48-.74,.7,.53,.54,.02-.12-.47-.21-1.04-.26-1.82l-1.05,1.06c-.1-1.07-.63-1.31-1.2-1.53-.14-.06-.29-.11-.43-.18-.15-.08-.24-.1-.47-.33-.4-.38-.76-.87-1.16-1.7,.06-.43,1.12,.27,2.12,.97-1.22-1.12-1.48-1.93-1.83-2.85-.32-.86-.88-2.05-1.65-2.5,.3-.08,.61-.14,.93-.19,.13-.06,.39,.04,.61,.09,.23,.06,.46,.13,.7,.21-.27-.31-.55-.64-.83-.97l-.58-.61c-.37-.38-.73-.74-1.01-1.06-.56-.65-.83-1.22-.27-1.73-1.49-.2-3.13-1.11-4.66-1.87-.76-.39-1.5-.74-2.31-.96-.8-.22-1.68-.29-2.54-.04l.05-1.28c-.16,.15-.36,.27-.59,.37-.52,.28-1.2,.52-1.85,.84-.66,.33-1.26,.72-1.75,1.18-.98,.91-1.62,1.96-1.52,3.46l-.36-.29c-.21,1.84-.34,3.59-.41,5.26-.66,1.41-1.74-.77-1.43-.18-.61,1.97-1.14,3.64-1.72,5.08-.29,.72-.59,1.37-.91,1.98-.29,.67-.6,1.33-.96,1.92,.34,.36,.54,.91,.63,1.54,.01,.18,.05,.27,.08,.35,.03,.09,.06,.19,.08,.28,.04,.19,.06,.37,.06,.55,0,.35-.09,.69-.15,.88-.1,.23-.29,.42-.44,.53-.09,0-.15-.01-.19-.04l.03-.08h0s0,0,0,0c.01-.02,.03-.05,.02-.03,0,0,0-.03,0-.04-.03-.07-.1-.16-.21-.37-.1-.19-.23-.46-.37-.8l-.63-1.46c-.44-.98-.97-1.93-1.66-2.75-.93-1.09-2.16-1.87-3.47-2.43-.65-.29-1.33-.53-2-.76l-1.46-.5c-.38-.15-.7-.29-.95-.42-.28-.33-.84-.88-1.28-1.36-.86-.96-1.59-1.91-2.8-2.42-1.17-.52-2.51-.58-3.76-.4-1.26,.18-2.45,.6-3.57,1.12-2.23,1.04-4.09,2.53-5.49,4.17-.38,.35-.66,.87-.88,1.47-3.9-7.81-8.18-14.76-12.47-20.74,3.48,5.96,7.2,13.52,10.56,21.85,.45,1.13,.9,2.28,1.33,3.43,0,.05,0,.1,0,.15,.02-.02,.03-.03,.04-.05,.05,.14,.1,.28,.15,.41-.2-.44-.59-.95-.97-1.42-.55,.44-1.07,.9-1.58,1.37,.72,.24,1.41,.48,2.13,.8,.48,0,.57-.26,.46-.65,1.09,2.91,2.13,5.89,3.13,8.89l1.1,3.3,1.16,3.41c.8,2.35,1.67,4.65,2.58,6.92-1.21,.84-2.42,1.68-3.62,2.51-.59,.42-1.2,.82-1.77,1.26-.57,.45-1.13,.9-1.7,1.35-1.06,.87-2.08,1.65-3.05,2.52-.94,.89-1.87,1.77-2.78,2.64-.93,.85-1.75,1.78-2.55,2.69-.8,.91-1.59,1.8-2.33,2.69-.69,.93-1.36,1.85-2,2.75-.63,.9-1.27,1.76-1.76,2.68-1.41,1.47-2.99,3.18-4.25,5.19-.66,.99-1.32,2-1.96,3-.57,1.05-1.13,2.09-1.67,3.1-.79,1.36-1.42,2.71-2.01,3.94-.77-.28-1.53-.57-2.22-.9,.72,.79,1.29,1.31,1.82,1.71-.13,.27-.27,.54-.41,.79-.88,1.56-1.55,2.82-2.22,3.46-.75,1.83-1.54,3.57-2.07,5.34-.29,.88-.57,1.74-.85,2.58-.28,.85-.55,1.68-.74,2.52-.41,1.68-.8,3.3-1.19,4.87-.32,1.59-.55,3.15-.81,4.67-.12,.76-.25,1.51-.35,2.25-.07,.75-.14,1.49-.21,2.22-.13,1.46-.26,2.9-.39,4.31-.04,1.42-.08,2.82-.12,4.21-.02,1.39-.11,2.76-.03,4.14,.04,1.37,.09,2.74,.13,4.12,.02,.69,.05,1.37,.07,2.06,.06,.67,.13,1.34,.19,2.01,.1,1.26,.29,2.52,.53,3.79-.23,.59-.46,1.17-.68,1.71,.32-.32,.6-.61,.85-.89,.24,1.17,.51,2.35,.81,3.54,.83,2.74,1.75,5.59,3.13,8.46,.61,1.47,1.45,2.89,2.21,4.41,.89,1.46,1.73,3.01,2.78,4.52,1.02,1.85,1.18,2.41,1.01,2.74,0,0,0,.01-.01,.02,0,0,.01-.01,.02-.01,4.62,5.49,9.71,10.12,14.95,14.32,2.81,2.22,5.69,4.3,8.62,6.28,.05,1.08,.13,2.17,.09,3.13,.63-1.04,.86-1.74,1.02-2.4,2.21,1.46,4.44,2.88,6.73,4.23,5.73,3.34,11.68,6.4,18.02,9.02,3.16,1.33,6.42,2.55,9.78,3.63,2.56,.83,5.19,1.59,7.88,2.24,.67,2.64,1.38,5.51,1.95,8.33,.66,3.23,1.24,6.55,1.54,9.6,.09,.07,.16,.14,.23,.17,1.21-3.49,.55-2.01,.1-1.67-.17-.68-.3-1.48-.24-2.27l.34,.44c3.52-8.86,3.82-4.9,6.28-7.63,1.31-3.14,.73-2.38,.04-1.5-.71,.9-1.53,1.9-.91-.37,.82-1.02,1.44-2.02,1.93-2.99,.88,.13,1.73,.25,2.54,.37,1.74,.17,3.29,.36,4.49,.56,1.19,.13,2.03,.27,2.33,.45-1.19,.06-1.87,.15-2.26,.24-.4,.07-.52,.17-.62,.28-.2,.21-.29,.45-2.29,.48,1.31,0,2.31,0,3.08-.08,.77-.11,1.32-.24,1.73-.38,.82-.27,1.09-.58,1.5-.85,.21-.14,.45-.27,.8-.38,.36-.1,.84-.21,1.51-.35,1.36-.26,3.51-.37,7.16-.83-.5,.93-1.02,1.86-1.56,2.79,.71-.43,1.52-.79,2.42-1.08,.9-.28,1.88-.62,2.93-.86,2.12-.46,4.52-.99,7.09-1.49,5.12-1.1,10.87-2.68,15.77-5.32,4.07-.45-2.55,2.82-10.6,5.44,9.29-2.55,9.57-4.38,16.81-7.03l-6.09,4.61c6.98-4.8,13.95-4.85,18.58-5.79,.35-.68-4.34-.79,5.45-4.19,4.28-1.24,2.32,.06,3.4-.01,.18-.36,1.04-1.1,2.64-2.05,.79-.49,1.79-.98,2.93-1.6,1.13-.64,2.45-1.33,3.96-2.04,1.45,.14-3.59,2.86-3.72,3.75,2.32-1.12,4.45-2.07,6.38-3.03,1.9-1.03,3.72-1.83,5.48-2.55,3.66-2.78,3.37-2.91,2.72-2.82-.66,.09-1.67,.38,.39-1.45,5.6-3.93,6.25-3.78,6.18-2.69-.09,1.04-1.04,2.93,1.55,1.87-.99,.95-2.02,1.92-3.1,2.91-.54,.48-1.07,1.01-1.64,1.46-.59,.45-1.18,.89-1.77,1.34-1.19,.88-2.36,1.83-3.6,2.63-1.25,.78-2.49,1.55-3.69,2.29-1.19,.78-2.41,1.4-3.58,2-1.16,.61-2.27,1.19-3.3,1.73-2.09,1.01-3.91,1.8-5.23,2.47l4.86-2.03,4.75-2.35,1.18-.59c.39-.21,.77-.44,1.15-.67l2.29-1.35,2.28-1.35,2.19-1.53c-.15,.36,.57,.12,1.62-.34,1.05-.46,2.42-1.13,3.45-1.76,1.05-.6,1.86-1.01,1.88-.78,0,.21-.74,1.15-2.97,3.02,9.22-5.94,17.66-15.44,23.13-26.01,5.45-10.61,8.34-21.86,10.02-31.7-.2,.68-.42,1.41-.62,2.11-.2,.7-.47,1.37-.69,1.93-.44,1.12-.8,1.82-.99,1.47,.26-1.27,.5-2.35,.71-3.29,.17-.94,.32-1.73,.47-2.4,.3-1.34,.57-2.19,.83-2.78,.52-1.19,.98-1.35,1.49-2.34,.32-3.81-.01-5.56-.39-6.94-.42-1.38-.85-2.39-1.18-4.74,.65-3.82,1.19-6.78,1.47-9.4,.11-1.33,.22-2.54,.31-3.68,.08-1.15,.05-2.24,.08-3.31,.02-4.28,0-8.29-.93-15.32l-1.22,1.22c-.12-1.23-.39-2.29-.65-3.25-.27-.96-.5-1.84-.83-2.61-.68-1.54-1.28-2.84-2.07-4.06-.79-1.22-1.51-2.5-2.49-3.96-.48-.73-.93-1.57-1.49-2.46-.57-.89-1.15-1.9-1.81-3.03-.04-.33,.61,.26,1.49,1.28,.44,.51,.97,1.11,1.49,1.76,.49,.68,1.01,1.38,1.49,2.04-.65-.98-1.15-1.87-1.65-2.62-.5-.75-.91-1.41-1.26-2.01-.68-1.23-1.27-2.13-1.79-3.09-.51-.96-1.1-1.86-1.95-2.96-.82-1.12-2-2.33-3.71-3.87,1.05,.67,2.09,1.37,3.14,2.07,1.03,.74,2.03,1.51,3.06,2.28-2.4-2.93-5.78-6.1-8.14-8.23-2.36-2.12-3.65-3.35-1.69-2.72-3.43-2.12-7.55-4.7-12.21-7.12-2.31-1.23-4.77-2.4-7.3-3.52-1.27-.56-2.55-1.09-3.84-1.6l-.37-.14-.22-.08-.45-.16-.91-.3c-.77-.24-1.57-.48-2.38-.67-.09-.04-.25-.02-.28-.1l.02-.31,.06-.61c.04-.41,.08-.82,.13-1.23,.09-.81,.18-1.6,.27-2.37l.09-.66c.06-.36,.11-.72,.17-1.08,.11-.72,.23-1.42,.34-2.11l1.04,1.21c.03-3.79,1.74-10.46,3.81-16.86,1-3.14,2.08-6.22,2.98-8.93,.84,.18,1.7,.51,2.61,.63-.45-.28-.92-.55-1.39-.81,.53-1.07,.96-1.12,1.29-1.16,.36-.02,.57-.12,.95-1.14l1.13,2.05c-.11-1.3,1.64-1.13,2.38-.85-.08-.56-.15-1.11-.21-1.67,1.57,.3,2.46,.33,3.31,1.56l-.63-1.34c.38,.34,1.52-.04,2.48-.19,.95-.18,1.74,.11,1.34,1.46,.25-.4,.39-1.21,1.19-1.22l.42,1.42c.95-.66,2.18-1.05,2.59-.28-.54,.43-.63,1.1-.71,1.76,1.09-.08,1.65-.44,1.97-.93,.32-.48,.37-1.09,.41-1.72,.08-1.27,.09-2.57,2.34-2.78l-.03,.96c.36-.35,.74-.67,1.13-1l1.17,1.23c.85-1.68,2.5-1.4,4.19-.99,1.71,.54,3.44,1.26,4.98,.77,.56,0,1.1,.52,1.71,1.14,.61,.63,1.31,1.29,2.31,1.47l.33-1.45c.3,.46,.84,1.05,1.51,1.67,.66,.63,1.45,1.27,2.14,2.07,.7,.79,1.38,1.57,1.81,2.47,.44,.9,.67,1.81,.59,2.72,1.82-.36,.02-.34,.59-1.37,1.66-.06,2.2,.6,2.46,1.3,.25,.74,.21,1.6,.56,2.38,1.81,.35-.78-1.2,.59-1.63,1.54,2.45,2.9-.32,4.96,2.56-.27,.85-1.04-.08-1.64,.15,.68,.06,1.4,.3,2.08,.71,.67,.43,1.34,.98,2.01,1.58,.65,.62,1.25,1.34,1.88,2,.64,.67,1.16,1.39,1.78,1.98,.47,.88,.82,1.93,1.33,2.93,.27,.5,.43,1.06,.65,1.59,.2,.54,.45,1.08,.63,1.63,.29,1.13,.73,2.22,.83,3.35,.08,.56,.17,1.1,.22,1.63,0,.54-.01,1.07-.04,1.57l.54-.07c-.39,.95-.33,1.74-.09,2.56,.29,.81,.43,1.69,.24,2.61l.7-.96c.51,.57,.66,1.05,.71,1.53,0,.48-.06,.95,.14,1.55-.52,.21-1.04,.4-1.55,.59,.44,1.26,1.26,.63,1.97,1.65-.58,.57-.62,1.38-.77,2.47-.1,1.02-.06,1.97-.16,2.3-.8,.31-.85-.78-1.24-1.09,.17,1.88,1.59,2.07,1.08,4.32l-.42-.07c.35,2.9-.25,6.03-1.24,9.07-.99,3.06-2.37,6-3.52,8.94,.29-.31,.51-.04,.86,0-1.59,2.91-3.68,5.81-5.73,8.6-2.04,2.81-4,5.6-5.29,8.7,1.47-1.25,3.84-2.41,5.95-4.02,2.09-1.6,3.93-3.61,4.12-6,1.8-.4,1.89-3.15,3.49-2.72,1.95-2.09,2.52-4.13,2.94-6.1,.21-.99,.33-2.01,.59-3.04,.21-1.05,.52-2.15,1.03-3.36,.54-.59,1.11,.04,1.87,.11-.14,.72-.32,1.42-.51,2.12-.19,.7-.36,1.42-.58,2.12,.58-.7,1.11-1.43,1.68-2.15,.07,.66-.29,1.6-.55,2.47-.29,.86-.46,1.66,.08,2.14,.08-1.07,.4-2.15,.74-3.3,.18-.57,.39-1.14,.6-1.71,.2-.58,.39-1.16,.59-1.75,.42-1.15,.72-2.33,.91-3.43,.21-1.1,.19-2.16-.05-3.09-.74,1.4-.98,3.35-1.72,5.05-.76,.58-1.56,1.59-2.22,1.22-.02-1.39,.11-2.63,.27-3.83,.09-.6,.21-1.17,.34-1.74,.11-.58,.24-1.14,.38-1.7,.3-1.12,.56-2.26,.81-3.43,.28-1.17,.41-2.4,.5-3.7,.02-.33,.06-.68,.12-1.02,.03-.33,.09-.65,.17-.93,.17-.57,.43-1.01,.81-1.07,.16,.84,.84,.29,1.11,1.01-.21-.94-.87-1.04-1.4-1.24-.27-.1-.5-.21-.63-.45-.13-.24-.14-.6-.08-1.21l2.56,.45c-1.35-.6-1.22-1.34-.95-2.23,.32-.88,.56-1.92-.29-2.76,.97-.77,1.66,.4,1.87,1.87,.3-1.7-1.2-1.73-1.27-3,.76,.31,1.52,.65,2.29,1.02-1.12-.63-1.02-1.25-.7-1.88,.34-.62,1.04-1.26,1.3-1.74-.54,.01-2.04,1.05-2.25-.72,.13-.82,.73-.56,1-.81-.55,.02-1.69-.36-2.07-1.45,.64-.42,1.27,.44,2.02,.33-.3-.88-.64-1.55-.26-2.39-1.17-1.32-.96,.44-2.07-.2-.2-1.22,.37-1.52,1.12-1.68,.76-.16,1.72-.16,2.26-.9,1.79,1.46,2.81,4.01,3.68,4.96-.58-1.26-1.1-2.52-1.74-3.71,.91-.03,.37-3.11,1.95-1.35Zm-192.97,175.29c-2.36-1.62,3.59,.26,5,.23-5.18-1.44-7.7-1.95-10.52-2.64-1.41-.35-2.89-.77-4.78-1.47-1.9-.7-4.2-1.71-7.23-3.29v-.48c-4.32-1.95-8.68-4.26-12.96-6.92,1.15-.5,2.46-.52,3.71-1-.56-.07-1.12-.11-1.67-.13,.26-1.43,.73-1.68,1.06-1.9,.35-.23,.64-.35,.75-1.64l1.71,1.61c-.25-.67,.13-1.15,.68-1.44,.27-.15,.57-.26,.87-.33,.3-.05,.59-.06,.81-.05-.21-.53-.4-1.08-.59-1.64,.87-.14,1.55-.19,2.12-.15,.6,.11,1.1,.35,1.61,.9l-.84-1.23c.23,.14,.59,.01,1.04-.09,.22-.06,.45-.14,.69-.23,.24-.07,.48-.1,.71-.15,.45-.1,.87-.04,1.1,.19,.24,.22,.29,.63,.16,1.3,.18-.37,.32-1.24,1.03-1.12l.23,1.46c.19-.14,.4-.22,.61-.28,.21-.06,.42-.14,.61-.12,.39,.04,.69,.2,.74,.62-.51,.32-.7,.94-.86,1.57,.67,.11,1.14,0,1.53-.4,.39-.32,.67-.89,.94-1.46,.54-1.12,1.07-2.48,3.32-1.43l-.5,.82c.5-.1,1.04-.22,1.58-.28,.16,.6,.31,1.18,.43,1.75,.84-.42,1.62-.27,2.39,.12,.72,.48,1.45,1.16,2.07,2.05,1.32,1.67,2.34,3.8,4.08,4.68,.25,.25,.39,.59,.52,1.02,.24,.59,.45,1.3,.7,2.11,.24,.82,.49,1.75,.86,2.71,.18,.48,.39,.97,.62,1.46,.12,.24,.24,.49,.37,.73,.12,.26,.24,.53,.38,.79l.8-1.72c.14,1.16,.57,2.9,1.17,5.08,.23,.87,.48,1.81,.74,2.77-3.57-.95-6.48-1.89-7.77-2.41Zm53.77,1.66c-3.31,.98-6.55,1.89-10.51,2.81l-2.36-.34-2.3-.49c-2.1,.45-3.37,.61-4.21,.83-.83,.21-1.22,.41-1.54,.62-.64,.42-.98,.77-4.15,1.18-.99-.1-2.12-.35-3.34-.48-.61-.07-1.24-.14-1.9-.22-.24-.04-.5-.08-.75-.13,.26-.75,.55-1.52,.93-2.35,.59-1.31,1.4-2.62,2.71-4.32,.92,.04-.93,2.63-1.19,4.14,.35-.96,.75-1.92,1.2-2.91,.45-.98,.97-1.88,1.52-2.84,.54-.97,1.16-1.88,1.82-2.8,.33-.46,.66-.93,1-1.4,.3-.41,.85-1.07,.94-1.17,1.5-1.8,3.29-3.44,4.67-4.8,1.01-.5,2.08-1.04,3.01-1.3,.91-.25,1.06-.1,1.41,.06,.3,.15,.49,.47,.55,.74,.03,.15,.02,.31-.02,.45-.02,.07-.05,.14-.09,.21-.02,.03-.04,.07-.07,.1,0,.02-.04,.01-.03,.06l.03,.15,.44-.31c-.02,.12-.03,.23-.03,.33v.18l.09,.15,.17,.31c.11,.2,.26,.42,.34,.61l.22,.56,.47,1.11c.64,1.48,1.39,2.9,2.19,4.3,.2,.35,.4,.7,.6,1.05l.3,.53c.05,.08,.1,.19,.16,.25l.19,.15c.5,.4,1,.81,1.5,1.23l.75,.65c.25,.21,.51,.49,.71,.57,.44,.26,.87,.54,1.3,.85-.25-.29-.5-.57-.74-.87l-.36-.44-.17-.22c-.06-.08-.13-.21-.2-.31,.09,.04,.19,.09,.27,.11l.24,.04c.15,.03,.3,.06,.44,.09,.28,.07,.55,.15,.79,.24,.5,.19,.92,.41,1.37,.65,1.11,.42,2.59,.81,4.13,.58,.24,.24,.5,.47,.75,.71-1.1,.39-2.17,.75-3.24,1.11Zm6.78-2.49c.2-.31,.51-.67,1.11-1.14,.45-.01,.99-.16,1.57-.39,.52-.12,1.03-.24,1.55-.37-1.52,.75-2.91,1.36-4.23,1.91Zm17.26-7.58c-4.01,1.55-8.04,3.2-12.13,4.69,.64-.44,1.28-.93,1.89-1.48,2.04-1.78,3.72-3.62,4.4-4.17,1.37-.27-.58,1.86-.86,2.68,.9-.96,1.48-1.76,1.93-2.44,.43-.67,.83-1.34,.83-1.64,.05-.19,.11-.38,.18-.57,.04-.1,.08-.19,.12-.29,.07-.12,0-.11,.02-.18-.02-.18,.02-.35,.16-.47l.22,.36c0-1.15,.81-2.38,1.94-3.23,.43-.32,.91-.59,1.43-.77,.51-.17,1.14-.31,1.58-.04,.41,.28,.47,.73,.57,1.11,.08,.4,.15,.8,.3,1.24,.1-.32,.39-.49,.69-.84,0,.53,.03,1.1,.16,1.69,.1,.33,.08,.4,.55,1.44,.17,.39,.4,.77,.65,1.15-1.54,.57-3.08,1.16-4.63,1.75Zm81.54-204.82c-1.72,1.79-1.87-.71-1.31,1.7,1.6,.18,.63-1.14,1.31-1.7Zm21.13,17.82l-2.32-1.22,.14,.4c.9-.09,1.38,.72,2.17,.83Zm-25.81-16.5c-.85-1.31-1.22-.2-1.96,.06,.83,.32,1.39,.13,1.96-.06Zm26.2,80.14c.34-.63,.65-1.27,.94-1.92l-.81,.49c-.02,.49-.08,.95-.13,1.43Zm-21.97,19.44c.19,.52-.42,1.51,.34,1.55,1.41-.65,.4-1.51-.34-1.55Zm-3.21,1.25c-2.58,1.68-.1,2.55-.11,3.75,.51-.92,.97-1.83,1.4-2.77-.37,.54-.77,1.06-1.17,1.59-2.16-.12-.57-1.96-.12-2.58Zm-279.28,28.52c2.52,.55,.62,2.23,2.19,.22-.86-1.63-1.31,.09-2.19-.22Zm5.43-26.47c-.52-.77-.02-1.57-.28-2.3-.03,.86-.03,1.74,0,2.62l.28-.31Zm-1.43,30.09c-.44,1.63,.67,1.26,1.36,1.76-.32-.96-.84-1.35-1.36-1.76Zm22.5-64.37c-.82,1.61-1.52,3.29-2.27,4.92l.35-.18c.64-1.57,1.22-3.19,1.92-4.75Zm54.14-24.69c1.54,.11,1.97-.33,2.1-.97,.14-.64-.06-1.44,.34-1.9-1,.39-1.95,.82-2.87,1.3,.64-.19,1.28-.37,1.94-.52,1.66,1.44-.78,1.88-1.51,2.09Zm-34.85,3.05l-1.12-.74c-.59,.77-1.17,1.54-1.69,2.35,1.48,.1,1.41-.92,2.81-1.61Zm1.78,3.47l.75-1.27-1.73,1.36,.97-.09Zm30.37-8.89c-1.56-.33-1.23,.98-.65,1.44,.15-.52,1.25-.98,.65-1.44Zm-70.32,61.07c.04,.12,.09,.24,.13,.39,0-.11,0-.2-.02-.33-.04-.04-.08-.03-.11-.05Zm-.98,.76c.36-.41,.66-.92,.98-.76-.21-.6-.5-.8-.98,.76Zm198.39-110.68c-.75,.68-1.48,1.42-2.35,1.97,.37-.03,.72-.09,1.09-.17,.46-.59,.87-1.21,1.26-1.81Zm-69.78-20.41c.36,1.03,.84,2.04,.56,2.23,.76,.44,1.07,.43-.56-2.23Zm.47,2.31c.06,0,.06-.06,.09-.08-.14-.09-.3-.18-.47-.3,.13,.13,.22,.25,.38,.38Zm36.84,15.45s.07,.07,.1,.12c-.05-.08-.08-.11-.1-.12Zm-33.45-15.9c-1.15-1.23-2.23-2.45-3.27-3.66l.3,.82c1.05,.39,1.91,2.15,2.97,2.84Zm-32.74,10.84c.24-.17,.12-.69-.03-1.13-.8-.75-.06,.42,.03,1.13Zm60.92-7.61c1.17-.97,2.53-1.8,4.04-2.23-1.52,.38-2.89,1.15-4.1,2.09-1.01,.78-1.9,1.68-2.68,2.64l.49-.19c.66-.83,1.41-1.62,2.25-2.31Zm65.52,6.31c-.72-.85-1.15-.95-1.4-.7-.23,.26-.35,.75-.16,1.25,.49-.24,1.94,.39,1.56-.55Zm-127.27-1.77c-.31-.2-.66-.45-.97-.68,1.85,1.46-.1,.16,1.64,1.35-.09-.28-.36-.45-.67-.66Zm-3.45,10.33c-1.16-.96-2.04-2.16-2.79-3.37-.77-1.24-1.28-2.46-2.02-3.78-.18-.32-.53-.96-.86-1.49-.33-.55-.69-1.07-1.05-1.59-.74-1.03-1.57-1.98-2.49-2.81-1.83-1.66-4.15-2.78-6.58-2.96-1.21-.14-2.42,.05-3.59,.3-1.16,.32-2.27,.77-3.29,1.37-2.04,1.17-3.81,2.86-5.18,4.48-1.32,1.56-2.41,3.24-3.38,4.86-.97,1.62-1.89,3.24-2.76,4.84-1.23,1.79-1.4,5.31-2.21,7.98,2.19-2.45,1.67-3.19,3.55-5.8,1.79-1.68,3.75-1.33,5.86-2.28l-1.79-.05c.51-1.64,1.02-1.97,1.43-2.24,.42-.26,.7-.47,.93-1.85l1.71,1.6c-.2-.7,.23-1.26,.83-1.63,.3-.19,.64-.33,.96-.41,.34-.1,.54-.06,.74-.03-.24-.51-.45-1.04-.63-1.6,1.52-.11,2.3-.04,2.98,1.31-.17-.49-.35-.97-.54-1.45,.33,.36,1.23-.1,2.01,.02,.38,.06,.7,.22,.8,.54,.11,.31-.01,.75-.31,1.42,.23-.35,.64-1.16,1.11-.78-.15,.53-.3,1.05-.46,1.57,.63-.2,1.38,.16,.9,.93-.42,.07-.85,.6-1.25,1.16,.14,.22,.39,.13,.81-.06,.41-.19,.94-.51,1.48-.83,.54-.32,1.09-.65,1.64-.69,.14,0,.27,0,.41,.04,.17,.1,.32,.17,.57,.48,.45,.51,.98,1.36,1.6,2.47l-.82,.5c.71,.59,1.41,1.11,2.1,1.57,.18,1.05,.45,2.12,.78,3.18,1.78,.04,3.41,1.7,5.72,3.27,1.14,.79,2.46,1.53,3.9,1.96,1.43,.45,2.98,.51,4.36,.24,.61-.15,1.17-.37,1.7-.6,.5-.3,.99-.6,1.37-1,.91-.63,2.05-.95,3.36-1.62,1.29-.67,2.81-1.74,3.94-3.89-.4-.29-.8-.59-1.19-.9,.7-.47,1.7-1.56,2.8-3.15,.56-.81,1.11-1.67,1.78-2.7,.41-.46,.87-.92,1.34-1.36,.55-.55,.8-.53,1.15-.61,.33-.05,.65-.05,.96,.04,.62,.17,1.16,.66,1.66,1.44-.44-1.31-.17-.3-.85-1.38-.09-1.14,.36-1.27,.63-.78,.3,.47,.54,1.45,.64,2.01,.05-.58,.04-.78-.05-.98-.08-.22-.25-.42-.22-1.27,.29,.34,.37,.13,.53-.35,.17-.58,.29-.98,.49-1.1,.16-.1,.39,.14,.54,.88-.24,1.09-.42,.39-.63,1.03,.41-.7,.95-.17,1.4,.45,.11,.16,.22,.32,.33,.49,.48,.63,.96,1.27,1.44,1.91,1.01,1.31,2.04,2.57,3.09,3.7,.24,.37,.48,.76,.73,1.16l.39,.59,.11,.16,.18,.24,.37,.48c.99,1.3,2.11,2.62,3.4,3.81,1.29,1.18,2.75,2.25,4.38,3.05,.82,.39,1.67,.76,2.56,.99,.44,.13,.89,.26,1.35,.37l1.39,.25c3.75,.49,7.67-.28,11.2-2,1.77-.85,3.45-1.92,5.02-3.13,1.54-1.17,3.14-2.75,3.97-3.53l-.3-.48c1.82-1.16,2.86-2.61,3.69-3.8,.19-.28,.38-.55,.58-.83,.13-.18,.06-.09,.07-.13v-.03s0,0,.02,0c-.12-.18-.25-.35-.42-.48-.29-.53-.14-.66-.04-.73,.08-.05,.14-.1,.22-.31,.17,.53,.29,1.09,.35,1.66-.03-.28,0-.65,.03-1.05,.03-.4,.04-.86,.25-1.26,.13,.6,.28,.72,.52,.78l.09,.02,.15,.06,.16,.06,.08,.03s.04,0,.13,.07c.57,.35,1.01,.63,1.22,.81,.19,1.04-1.37,.21-1.94,.32,2.76,1.42,3.46,.11,6.53,2.31l-.2,.38c2.15,.88,4.33,1.96,6.54,3.14,.55,.3,1.1,.6,1.66,.91l.83,.47c.29,.17,.49,.27,1.01,.59,1.8,1.08,3.59,2.19,5.4,3.14,1.85,.84,3.57,1.48,5.53,1.49,.98,0,1.98-.17,2.88-.49,.91-.31,1.74-.74,2.56-1.26,.81-.56,1.59-1.21,2.37-1.81,.76-.67,1.48-1.41,2.2-2.1,.67-.7,1.35-1.4,2.01-2.1,.49-.55,.86-1.02,1.27-1.53-.56,.42-.66,.06-1.06,.02,1.36-1.43,2.75-2.92,4.1-4.46,.68-.77,1.35-1.55,2-2.35,.2-.24,.24-.3,.33-.42l.24-.33,.49-.69c.65-.95,1.3-1.99,1.97-3.18,.67-1.17,1.36-2.61,2.1-4.08,1.01,.6,2.18,1.11,3.69,1.56-1.1-1.24-2.26-3.28-3.6-5.64l-.03-.05-.03,.03-.06,.07-.12,.13-.24,.27-.49,.55-1.02,1.15c-.7,.79-1.41,1.64-2.09,2.52-1.35,1.76-2.57,3.66-2.95,5.39-.46,.09-.96,.49-1.41,.92-.45,.43-.85,.93-1.24,1.38-.78,.91-1.51,1.65-2.37,1.41-.78,.66-1.48,1.29-2.11,1.92-.64,.62-1.18,1.21-1.78,1.86-1.19,1.38-2.26,2.63-3.33,3.87-.57,.66-1.17,1.27-1.88,1.78-.7,.51-1.55,.9-2.47,.94-.91,.04-1.79-.2-2.71-.58-.92-.4-1.91-.89-2.95-1.57-1.08-1.03-.19-1.37-.21-2.26,1.01,.52,2,1.02,2.97,1.46,.96,.44,1.9,.91,2.98,.89-1.34-.34-2.36-1.42-3.36-2.27,.78,.05,1.85,.9,3.04,1,.59,.05,1.15-.18,1.52-.53,.37-.35,.58-.78,.58-1.22-.44,.54-1.04,1.02-1.73,1.14-.69,.12-1.38-.12-2.03-.44-1.31-.67-2.71-1.53-4.1-2.38-2.85-1.76-5.7-3.54-8.18-4.11,1.6,1.58,4.11,2.82,6.21,4.39,.62,1.02,2.23,2.53,1.81,3.15-.53-.19-1.06-.39-1.59-.61l-.8-.34-.65-.27c-.85-.36-1.67-.75-2.46-1.17-1.58-.83-3.06-1.75-4.5-2.73-1.45-.98-2.86-2.01-4.33-3.06-.74-.52-1.48-1.05-2.25-1.58l-.55-.37-.42-.26c-.29-.18-.55-.34-.81-.48-.53-.29-1.1-.68-1.61-1.05-.5-.38-.94-.72-1.01-1.15,.89-.03,.32-.91,1.14-1-1.07-.07-1.18,.74-1.37,1.3-.19,.62-.42,.92-1.57,.98-.03-.96-.02-1.93,.03-2.9-.54,1.81-1.42,1.7-2.56,2.06-.83,.24-1.77,.78-1.94,1.96-.59-.13-.78-.53-.61-1.12,.17-.58,.7-1.33,1.44-1.91-.97,.42-1.25,1.1-1.42,1.69-.16,.62-.21,1.18-.7,1.75-.24-.86-.39-1.79-.43-2.79-.03,1.53-.52,1.98-1.4,2.35-.85,.34-1.92,.43-2.56,.69,.34,.43,2.33,.55,.67,2.57-.9,.74-1-.06-1.4-.03,.33,.44,.6,1.78-.58,3.25-.75-.24-.04-1.64-.58-2.19-.76,1.03-1.43,1.94-2.48,2.08-.63,.99-.5,1.18-.21,1.33,.27,.15,.69,.21,.3,1.04-1.71,.97-2.04,.33-2.2-.46-.15-.83-.27-1.85-1.03-2.3,.63-1.05,1.23-2.02,1.65-2.89,.37-.79,.96-1.93,1.11-2.6-.39,.68-.82,1.38-1.15,1.91-.29,.46-.59,.93-.95,1.37-.19-.41-.8-.37-1.23-.51-.45-.14-.66-.42-.4-1.16-1.08,.36-2.06,.94-3.33,1.12-1.27,.18-2.5-.34-3.57-1.02,.04,.49,.29,1-.08,1.4-1.42-.74-.54-1.43-.26-2.04-.11-.01-.34-.14-.52-.2-.19-.06-.36-.1-.54-.12-.34-.04-.67,0-.99,.08-.65,.14-1.29,.38-2.07,.3-.73-1.85-1.3-2.76-1.78-3.67-.23-.45-.44-.9-.62-1.47-.04-.14-.08-.29-.13-.45l-.06-.25-.12-.34c-.16-.46-.32-.99-.5-1.62l-.92,1.25c-.47-1.63-1.19-2.2-1.89-2.65-.71-.48-1.38-.83-2.06-2.63,.05-.5,.94,.14,1.73,.7-.99-1.03-1.21-1.92-1.47-2.86-.25-.93-.55-1.92-1.52-2.88,.65-.01,1.35,.05,2.1,.19-1.56-2.28-3.86-4.93-2.71-5.75-.38-.22-.77-.52-1.17-.88-.89,.62-1.59,.57-2.79,1.71-1.05,.82-2.16,1.69-3.27,2.56-1.08,.85-2.14,1.69-3.13,2.59-.98,.91-1.89,1.88-2.62,2.89l-.3-1.5c-.72,1.75-2.5,3.54-4.07,5.65-.4,.51-.77,1.05-1.11,1.59-.35,.53-.65,1.06-.88,1.58-.24,.51-.45,1.01-.54,1.46-.1,.46-.06,.75,.02,1.09l-.61,.04c-.09,.8-.16,1.58-.2,2.37,.05,.56,.18,1.02,.23,1.61-.61,1.03-1.98-.66-1.59-.21-.29,1.08-.64,2.09-1.15,2.82-.5,.72-1.14,1.15-1.82,1.06,.13,.98-.14,1.94-.83,2.59-.47,.46-1.13,.77-1.82,.79-.69,.04-1.4-.17-2-.48Zm98.32-1.46c.52,.67,.96,.59,1.35,.33,.4-.27,.75-.73,1.33-1.07-.26-.34-.5-.69-.72-1.05-.46,.76-1.12,1.58-1.95,1.79Zm-56.84,41.76l-1.09-1.09,.42,.84c.35,.17,.7,.42,1.03,.72,.24,.18,.33,.23,.49,.37,.29,.24,.55,.5,.93,.6l-1.02-.75-.25-.19c-.12-.11-.35-.35-.52-.52Zm-10.59,11.5c-.03,.05-.06,.11-.08,.17,.17,.28,.42,.67,.48,.86,.05-.06,.1-.15,.16-.31-.16-.21-.33-.41-.48-.62-.03-.03-.05-.06-.08-.09Zm28.38-15.45c.12-.03,.25-.04,.37-.06,1.31-1.51,3.15-2.67,5.16-2.91-2.15,.17-4.13,1.38-5.54,2.97Zm27.8,8.71c.43,.65,.76,.77,1.08,.78,.33,.01,.65-.1,1.24,.16-.27-.5-.52-1.01-.75-1.5-.46,.23-.98,.41-1.57,.57Zm4.36,4.81c-.76-.07-1.51-.2-2.28-.32l1.03,.7c.43-.11,.85-.24,1.25-.38Zm-26.4,.39l-.06-.04s.02,.06,.06,.04Zm-24.28-7.76c.02-.08,0-.21-.1-.41l-.08-.16-.25-.36c-.19-.26-.42-.57-.67-.92,.24,.5,.5,1.01,.66,1.4,.07,.28,.01,.42-.14,.51,.31,.09,.54,.11,.58-.05Zm-25.14-7.08c.73-2.46-.68-1.42-.88-2.71,.78,3.41-1.3,2.74,.88,2.71Zm49.49,14.77c.02,.06,.05,.11,.08,.17-.04-.1-.06-.14-.08-.17Zm-24.93-7.63c-.13-.06-.2-.02-.45-.21,.18,.18,.22,.2,.34,.27,.06,0,.07-.04,.11-.06Zm-26.68,.7c.56-1.11,.57-1.98,.6-2.87-1.5,.88-.61,1.75-.6,2.87Zm17.42,10.01c.1-.17,.21-.28,.32-.34,.09,.05,.1,0,.06-.1-.13,.14-.23,.05-.38,.44Zm-16.13,48.73c.26-.19,.25-.69,.18-1.13-.69-.75-.15,.41-.18,1.13Zm30.6-14.58c.16,.15,.36,.3,.54,.46,.11-.02,.22-.04,.33-.05,.92,.85,1.8,2.68,2.83,3.47-.98-1.17-1.91-2.35-2.73-3.68l-.98-.2Zm69.88,5.34c.65,.38,1.12,.26,1.56,.04,.22-.14,.45-.28,.71-.45,.13-.09,.27-.18,.43-.26,.09-.05,.15-.06,.27-.14,.12-.08,.25-.16,.39-.24-.41-.22-.89-.36-1.2-.69-.62,.69-1.32,1.29-2.15,1.75Zm-100.11,6.75c.04-.09,.08-.18,.1-.26,.05-.15,.06-.28,.05-.37-.03-.2-.17-.3-.34-.38-.35-.15-.86-.2-.96-.67,.11,.31,.17,.57,.18,.79,.05,.18,.15,.23,.18,.3,.08,.11,.06,.12,.04,.12-.03-.02-.1-.02,.74,.59,0-.04,0-.07,0-.12Zm106.08-5.64c-.85,.7-1.79,1.31-2.81,1.78,.46-.01,.93-.06,1.39-.14,.53-.52,.96-1.04,1.42-1.65Zm26.7,9.3c.02-.55,1.23-1.84,.1-1.71-1.15,.46-1.5,.83-1.41,1.18,.1,.34,.67,.56,1.3,.53Zm-102.45-13.77c-.14-.08-.33-.19-.53-.3l.46,.45c.28,.95,.54,1.68,.32,1.83,.73,.52,1.03,.64-.25-1.98Zm109,7.54c-.53-.38-1.46-.47-1.59-1.12-.37,1.32-.82,2.65-1.44,3.96,.55-.83,1.01-1.68,1.44-2.53,1.39-.74,1.72-.35,1.58,.42-.12,.77-.77,1.87-1.12,2.43,.93-.99,1.32-1.7,1.43-2.19,.12-.49-.04-.76-.3-.96Zm-78.08-7c.09,.16,.19,.33,.29,.49,1.24,1.47,2.88,2.6,5.51,3.04l.4,.29c.13,.09,.26,.13,.39,.19-.13-.07-.25-.11-.38-.21l-.4-.31c-2.8-.57-4.53-1.87-5.81-3.5Zm-30.66,1.44c-.15-.12-.31-.23-.48-.4,.12,.17,.23,.32,.39,.48,.06,0,.06-.06,.09-.08Zm-36.23,57.4c-.35-.36-.36-.28-.35,.03,.02,.3,.11,.8,.07,1.17,.28-.21,.3-.75,.27-1.2Zm80.52,10.72v.61c.39,.8,.75,1.62,1.11,2.44l.2,.03c-.42-1.04-.85-2.07-1.31-3.08Zm-78.85-14.26c-.36-.18-.98-.23-.87-.8-.04,2.98-2.84,2.43,.34,2.38,.97-1.09,.91-1.39,.53-1.58Zm42.67,7.84c-.35-.11-.74-.29-1.2-.49l.07,.38c.54-.37,.78,.35,1.13,.11Zm100.67,8.11c-.39,.01-.73-.15-1.14-.27-.34-.18-.76-.36-1.08-.61,.86,.77,2.01,1.34,3.04,1.22,.74,.38,1.27,.52,1.4,.73,.14,.19,0,.54-.47,.75-.23,.11-.53,.24-.88,.3-.35,.03-.76,.03-1.16,0-.38-.08-.76-.2-1.11-.33-.32-.14-.58-.3-.8-.43,.22,.17,.42,.32,.62,.45,.22,.13,.46,.23,.67,.32,.22,.09,.42,.17,.62,.22,.21,.04,.41,.06,.59,.08,.74,.11,1.23-.1,1.57-.22,.65-.3,.65-.69,.55-.98-.12-.31-.37-.59-.53-.9-.16-.33-.2-.64-.09-.92-.42,.33-1.05,.7-1.79,.59Zm-5.1-5.43c.56,.09,1.58,1.69,1.67,.47-.46-2.66-1.5-1.74-1.67-.47Zm-97.37-1.64c.16,.56,.42,1.17,.25,1.49,.46,.02,.59-.3-.25-1.49Zm.25,1.49c-.09,0-.18-.01-.3-.04,.08,.05,.14,.11,.24,.15,.04-.03,.04-.08,.06-.11Zm36.11,6.47l.18,.03,2.6-4.94-2.78,4.91Zm63.15-20.79l-2.4-.65c-.01,.14-.02,.26-.04,.4l2.21,.6c.07-.12,.15-.23,.22-.35Zm-23.93,6.73c.18,.27,.36,.59,.52,1.02,.25-.43,.51-.83,.78-1.2l-.51-.48-.75-.86c-.5-.59-1.02-1.18-1.56-1.76,.08,1.07,.4,1.68,.84,2.34,.21,.29,.43,.61,.68,.96Zm-3.01,2.59l1.56,1.69c-.58-1.08-1.21-2.15-1.84-3.21l.27,1.52Zm-36.06,11.57l2.64,.44-.04-.08-2.57-.42-.04,.07Zm-52.99,38.73c.56-1.01-.25-.11-.72-.01,.1,.28,.43,.18,.72,.01Zm42.16,5.92c-.23-.03-.42-.13-.6-.23-.14-.14-.22-.32-.33-.48l-.65-1.03,.05,.57,.64,.9c.14,.34,.6,.46,1.02,.48,.92-.04,1.78-.7,2.48-1.34-.74,.61-1.68,1.26-2.62,1.14Zm-36.93-5.46l-.1,.18s0,.03,0,.05c0,.04-.01,.1-.02,.15l-.06,.33c-.04,.22-.09,.46-.15,.7l.24,.02c-.23-.78,.12-.79,.07-1.43Zm67.41-5.15c-.06-.84-.24-1.73-.84-2.38l.06,.75-.03,.78c.34,.24,.61,.53,.8,.85Zm-71.88,4.7c.17-.07,.32-.44,.5-.87,.17-.43,.38-.89,.57-1.31-1.17,2.46-.07-.18-1.07,2.18Zm6.08,3.08c0,.11,0,.22,0,.36,.03-.08,.06-.15,.08-.25-.02-.05-.05-.07-.07-.1Zm-.93-.1c.35-.02,.72-.2,.93,.1-.02-.56-.22-.79-.93-.1Zm88.07-8.16c-.03-.12-.11-.22-.3-.23-.8,.31-.84,.84-.6,1.07,.12,.13,.29,.22,.48,.28,.19,.06,.37,.14,.5,.15-.12-.27-.12-.56-.08-.87,.01-.16,.03-.3,0-.41Zm-22.17-6.24c.49,.64,.99,.9,1.53,1.24,.53,.33,1.09,.77,1.33,1.72,.21-.53,.37-1.06,.53-1.58-.4-.36-.85-.75-1.47-.99-.6-.24-1.26-.39-1.92-.39Z"/></g></svg>