<svg width="331" height="101" viewBox="0 0 331 101" fill="none" xmlns="http://www.w3.org/2000/svg">
<path fill-rule="evenodd" clip-rule="evenodd" d="M56.8035 100.935H90.6531L90.9294 90.7484L66.6149 90.4731L56.8035 100.935ZM90.6531 85.9896L90.9294 65.6158L71.3102 85.851L90.6531 85.9896ZM135 0.273474L134.31 93.0531H111.517C115.659 83.6776 117.321 40.0747 99.6338 46.8702L54.8694 93.0531L55.8392 0L91.8973 0.273474L91.482 44.2848L135 0.273474ZM26.3683 46.3538C26.5055 25.3755 35.7955 7.95234 48.0497 3.84123L48.0826 0.408412H47.8063C21.6932 0.277072 0.278927 20.8236 0.00262622 46.3394C-0.271845 71.7222 21.0033 92.6753 47.1147 92.8102H47.6673V89.2731C35.4295 84.9245 26.2292 67.2278 26.3683 46.3538ZM167.304 8.99945H167.247L163.545 18.3875H170.894L167.304 8.99945ZM173.734 25.694L171.84 20.9046H162.599L160.705 25.694H157.337L165.494 6.20714H169.168L177.269 25.694H173.734V25.694ZM181.81 14.0353V25.694H178.692V11.655H188.297V14.0353H181.81ZM195.788 13.6233C193.395 13.6233 192.114 15.5412 191.947 17.3728H199.351C199.351 15.2948 198.043 13.6233 195.788 13.6233ZM191.975 19.4274C192.03 22.0542 194.257 23.6969 196.82 23.6969C198.377 23.6969 200.493 23.0672 201.411 22.4644V25.12C199.852 25.7243 198.189 26.0309 196.513 26.0232C191.585 26.0232 188.745 23.0132 188.745 18.5513C188.745 14.3088 191.697 11.3258 195.761 11.3258C200.383 11.3258 202.412 14.5013 202.412 18.5243V19.4274H191.975V19.4274ZM214.749 25.694V19.5354H208.152V25.694H205.036V11.655H208.123V17.1821H214.721V11.655H217.841V25.694H214.749V25.694ZM227.308 14.0353V25.694H224.22V14.0623H219.514V11.655H231.985V14.0353H227.308ZM240.366 26.0232C235.83 26.0232 232.545 22.8477 232.545 18.688C232.545 14.1991 235.802 11.3258 240.366 11.3258C241.649 11.3258 242.984 11.6802 243.819 12.0095V14.6381C242.845 14.1991 241.954 13.7349 240.589 13.7349C237.64 13.7349 235.775 15.8147 235.775 18.688C235.775 21.3418 237.669 23.6141 240.673 23.6141C241.843 23.6141 243.096 23.1229 243.958 22.6282V25.3107C242.818 25.7497 241.453 26.0232 240.366 26.0232ZM253.425 14.0353V25.694H250.338V14.0623H245.63V11.655H258.104V14.0353H253.425ZM266.347 19.5102H262.783V23.4774H266.402C267.681 23.4774 268.907 23.0132 268.907 21.3975C268.907 20.0014 267.795 19.5102 266.347 19.5102ZM265.819 13.8698H262.783V17.3728H265.791C266.82 17.3728 268.239 16.9896 268.239 15.5412C268.239 14.3898 267.153 13.8698 265.819 13.8698V13.8698ZM267.041 25.694H259.694V11.655H266.571C269.465 11.655 271.412 12.9396 271.412 15.1292C271.423 15.8376 271.189 16.5287 270.75 17.0901C270.31 17.6515 269.691 18.0504 268.992 18.222V18.2778C270.133 18.3875 272.109 19.2907 272.109 21.725C272.109 24.4076 269.771 25.694 267.041 25.694ZM281.937 13.7061C279.238 13.7061 277.429 15.8147 277.429 18.661C277.429 21.3975 279.043 23.6429 281.91 23.6429C284.779 23.6429 286.393 21.3706 286.393 18.661C286.393 15.7589 284.64 13.7061 281.937 13.7061ZM281.937 26.0232C277.345 26.0232 274.172 22.8477 274.172 18.688C274.172 14.3088 277.262 11.3258 281.91 11.3258C286.587 11.3258 289.65 14.3358 289.65 18.661C289.65 22.8225 286.532 26.0232 281.937 26.0232ZM169.531 56.6883C163.518 56.6883 158.535 53.0468 158.535 46.6147C158.535 40.431 163.349 36.5448 169.501 36.5448C171.09 36.5448 173.066 36.8164 174.568 37.3652V40.4022C173.205 39.6357 171.201 39.1446 169.67 39.1446C165.214 39.1446 161.902 42.3453 161.902 46.6147C161.902 51.1037 165.439 54.0885 169.67 54.0885C171.144 54.0885 173.426 53.5685 174.597 52.9676V55.893C173.148 56.4418 171.06 56.6883 169.531 56.6883V56.6883ZM184.151 44.3712C181.448 44.3712 179.64 46.4798 179.64 49.3261C179.64 52.0626 181.256 54.308 184.121 54.308C186.987 54.308 188.603 52.0356 188.603 49.3261C188.603 46.424 186.85 44.3712 184.151 44.3712V44.3712ZM184.151 56.6883C179.558 56.6883 176.385 53.5127 176.385 49.3531C176.385 44.9739 179.472 41.9909 184.121 41.9909C188.798 41.9909 191.861 45.0009 191.861 49.3261C191.861 53.4876 188.742 56.6883 184.151 56.6883ZM206.368 60.5457V56.359H194.452V42.3201H197.543V53.9787H204.419V42.3201H207.508V53.9499H209.318V60.5457H206.368ZM221.235 56.359V46.0948H221.153L214.751 56.359H211.16V42.3201H214.222V52.5826H214.278L220.681 42.3201H224.298V56.359H221.235ZM236.218 49.9558C235.801 49.846 234.882 49.5186 233.991 49.5186C232.628 49.5186 229.87 49.873 229.87 52.1724C229.87 53.5685 231.18 54.3907 232.432 54.3907C233.685 54.3907 235.411 53.4876 236.218 52.5826V49.9558V49.9558ZM236.469 56.359V54.362H236.414C235.411 55.5116 234.02 56.6883 231.96 56.6883C228.785 56.6883 226.754 55.0456 226.754 52.2821C226.754 48.2574 231.18 47.5467 233.296 47.5467C234.52 47.5467 235.716 47.8741 236.218 48.0379V47.1923C236.218 45.2473 234.966 44.3172 232.794 44.3172C230.9 44.3172 229.48 45.0548 228.423 45.8231V43.441C229.314 42.921 231.153 41.9909 233.296 41.9909C237.193 41.9909 239.199 43.7972 239.199 47.7122V56.359H236.469V56.359ZM252.117 56.359V44.7004H247.328V48.5866C247.328 52.1184 246.829 56.5785 242.736 56.5785C242.179 56.5785 241.427 56.4688 241.01 56.359V53.869C241.232 53.9499 241.79 54.0885 242.289 54.0885C243.989 54.0885 244.212 52.1724 244.212 47.1923V42.3201H255.208V56.359H252.117ZM264.898 49.7903H261.502V54.0615H264.955C266.013 54.0615 267.347 53.5415 267.347 51.9529C267.347 50.339 266.179 49.7903 264.898 49.7903ZM265.455 56.359H258.412V42.3201H261.502V47.4927H265.623C268.265 47.4927 270.547 48.9159 270.547 51.8701C270.547 54.7991 268.322 56.359 265.455 56.359V56.359ZM282.662 56.359V50.2005H276.064V56.359H272.946V42.3201H276.036V47.8472H282.635V42.3201H285.751V56.359H282.662ZM296.14 44.3712C293.438 44.3712 291.63 46.4798 291.63 49.3261C291.63 52.0626 293.246 54.308 296.111 54.308C298.978 54.308 300.592 52.0356 300.592 49.3261C300.592 46.424 298.839 44.3712 296.14 44.3712V44.3712ZM296.14 56.6883C291.548 56.6883 288.375 53.5127 288.375 49.3531C288.375 44.9739 291.462 41.9909 296.111 41.9909C300.788 41.9909 303.851 45.0009 303.851 49.3261C303.851 53.4876 300.733 56.6883 296.14 56.6883ZM313.152 40.7584C311.009 40.7584 309.535 39.553 309.033 37.4192L310.925 36.982C311.233 38.2414 312.04 38.7056 313.125 38.7056C314.21 38.7056 315.017 38.2414 315.324 36.982L317.216 37.4192C316.715 39.553 315.24 40.7584 313.152 40.7584V40.7584ZM316.521 56.359V46.0948H316.438L310.036 56.359H306.444V42.3201H309.505V52.5826H309.562L315.964 42.3201H319.584V56.359H316.521V56.359ZM173.066 87.0223V71.9974H172.982L162.932 87.0223H159.313V67.5337H162.57V82.6161H162.654L172.815 67.5337H176.323V87.0223H173.066ZM189.439 87.0223V80.8637H182.842V87.0223H179.724V72.9816H182.813V78.5104H189.411V72.9816H192.529V87.0223H189.439ZM206.061 85.0522C209.014 85.0522 210.683 82.4506 210.683 80.0163C210.683 77.3895 208.902 74.9805 206.061 74.9805V85.0522ZM202.974 74.9805C200.161 74.9805 198.352 77.3895 198.352 80.0163C198.352 82.4506 200.022 85.0522 202.974 85.0522V74.9805ZM206.09 87.3516V92.2507H202.974V87.3516C198.268 87.3516 195.15 83.9565 195.15 80.0433C195.15 75.8836 198.074 72.6811 202.974 72.6811V67.5337H206.061V72.6811C210.961 72.6811 213.912 75.8836 213.912 80.0433C213.912 83.9565 210.794 87.3516 206.09 87.3516V87.3516ZM223.744 75.0344C221.043 75.0344 219.235 77.1413 219.235 79.9875C219.235 82.7259 220.849 84.9712 223.717 84.9712C226.582 84.9712 228.198 82.6989 228.198 79.9875C228.198 77.0873 226.445 75.0344 223.744 75.0344ZM223.744 87.3516C219.153 87.3516 215.978 84.176 215.978 80.0163C215.978 75.6354 219.067 72.6523 223.717 72.6523C228.392 72.6523 231.455 75.6641 231.455 79.9875C231.455 84.149 228.337 87.3516 223.744 87.3516ZM237.166 77.3608V82.5334C237.918 83.7388 239.255 84.9425 241.343 84.9425C244.015 84.9425 245.656 82.7529 245.656 79.9875C245.656 77.278 244.07 75.0614 241.343 75.0614C239.005 75.0614 237.947 76.3208 237.166 77.3608ZM241.954 87.3516C240.062 87.3516 238.168 86.4484 237.25 85.2717H237.193V92.2507H234.104V72.9816H236.999V74.8689H237.056C237.861 73.9405 239.447 72.6523 241.843 72.6523C246.046 72.6523 248.913 75.7469 248.913 79.9066C248.913 83.9853 246.242 87.3516 241.954 87.3516V87.3516ZM263.782 87.0223V76.4036H263.727L259.272 81.4395L254.735 76.4036H254.681V87.0223H251.59V72.9816H255.098L259.219 77.798L263.31 72.9816H266.816V87.0223H263.782ZM278.735 80.6191C278.32 80.5075 277.401 80.1801 276.508 80.1801C275.145 80.1801 272.388 80.5363 272.388 82.8356C272.388 84.23 273.698 85.0522 274.951 85.0522C276.203 85.0522 277.93 84.149 278.735 83.2458V80.6191ZM278.988 87.0223V85.0252H278.933C277.93 86.1749 276.538 87.3516 274.477 87.3516C271.304 87.3516 269.271 85.7089 269.271 82.9454C269.271 78.9206 273.698 78.21 275.813 78.21C277.037 78.21 278.236 78.5374 278.735 78.7011V77.8537C278.735 75.9088 277.484 74.9805 275.312 74.9805C273.42 74.9805 271.998 75.7181 270.94 76.4846V74.1043C271.833 73.5843 273.672 72.6523 275.813 72.6523C279.711 72.6523 281.716 74.4605 281.716 78.3737V87.0223H278.988V87.0223ZM296.806 91.209V87.0223H284.893V72.9816H287.981V84.642H294.858V72.9816H297.948V84.6132H299.756V91.209H296.806V91.209ZM311.675 87.0223V76.758H311.593L305.189 87.0223H301.599V72.9816H304.66V83.2458H304.717L311.117 72.9816H314.738V87.0223H311.675V87.0223ZM327.937 87.0223V76.758H327.855L321.45 87.0223H317.86V72.9816H320.921V83.2458H320.978L327.379 72.9816H331V87.0223H327.937" fill="#005286"/>
</svg>
