<svg width="228" height="70" viewBox="0 0 228 70" fill="none" xmlns="http://www.w3.org/2000/svg">
<path d="M46.4478 22.6943L46.1002 22.2926L45.7203 22.6639L44.7364 23.6255L44.2682 24.0832L44.833 24.4144C45.6189 24.8752 46.808 25.7355 47.7937 26.7992C48.7925 27.8771 49.505 29.0801 49.505 30.2337C49.505 31.4995 49.0343 33.5594 48.4182 35.6709C47.8078 37.763 47.0746 39.8414 46.5867 41.1133L46.2448 42.0047L47.1723 41.778L49.1399 41.2972L49.4391 41.2241L49.5084 40.924C49.7923 39.6946 50.2907 37.8541 50.8606 36.3288C51.1467 35.563 51.4424 34.8996 51.7274 34.436C51.8707 34.2031 51.998 34.0426 52.1035 33.946C52.1674 33.8874 52.2063 33.8675 52.2217 33.8611C52.2334 33.8661 52.2568 33.8794 52.2929 33.9134C52.3659 33.982 52.4569 34.1048 52.5568 34.2983C52.7561 34.6843 52.9387 35.2467 53.0973 35.9095C53.4127 37.2268 53.6067 38.821 53.6877 39.8878L53.7388 40.5617L54.3683 40.3156L55.5981 39.8348L55.9734 39.688L55.9097 39.2901C55.7076 38.0267 55.4895 36.0346 55.4915 34.1766C55.4925 33.247 55.5487 32.3666 55.6838 31.6344C55.8222 30.885 56.0305 30.3654 56.2804 30.0864C56.8891 29.4068 57.8034 28.9218 58.7405 28.5965C59.672 28.2731 60.5752 28.125 61.1076 28.088L61.978 28.0275L61.4857 27.3071C61.4005 27.1823 61.2611 26.9841 61.1167 26.791C60.9792 26.6072 60.8145 26.397 60.6846 26.27L60.474 26.0642L60.192 26.1485C57.4911 26.9552 55.0485 26.8956 52.9756 26.4063C54.0471 26.3962 54.9322 25.5407 54.9322 24.4639C54.9322 23.3807 54.0365 22.5215 52.9565 22.5215C52.437 22.5215 51.9615 22.7191 51.6073 23.045C51.2237 23.3975 50.9807 23.9024 50.9807 24.4639C50.9807 25.1593 51.3499 25.7624 51.9 26.1051C49.2739 25.2523 47.364 23.7529 46.4478 22.6943ZM52.2128 33.8583C52.2128 33.8582 52.2138 33.8583 52.2157 33.8588C52.2138 33.8587 52.2129 33.8584 52.2128 33.8583Z" fill="#4BC578" stroke="white"/>
<path d="M37.5082 21.9418L37.1535 21.5114L36.7643 21.9108L35.5931 23.1129L35.1572 23.5602L35.689 23.8876C36.6305 24.4672 38.0545 25.5486 39.2365 26.888C40.4293 28.2397 41.3072 29.7761 41.3072 31.275C41.3072 32.8811 40.7408 35.4747 40.0079 38.1127C39.28 40.7323 38.4058 43.3341 37.8239 44.9268L37.4981 45.8186L38.4179 45.5826L40.7603 44.9816L41.0583 44.9052L41.1243 44.6047C41.4631 43.0642 42.0581 40.7571 42.7392 38.8427C43.0809 37.8824 43.4364 37.0436 43.7821 36.4532C43.9558 36.1567 44.1139 35.9457 44.2499 35.8149C44.3793 35.6904 44.4422 35.6821 44.4438 35.6816C44.4524 35.6819 44.4987 35.6876 44.5874 35.7751C44.6869 35.8734 44.8026 36.0403 44.9253 36.2897C45.1698 36.7868 45.3901 37.5028 45.5799 38.3354C45.9577 39.9922 46.1894 41.9934 46.2862 43.3314L46.336 44.0201L46.9747 43.7578L48.4387 43.1568L48.8024 43.0075L48.7432 42.619C48.5017 41.0341 48.2411 38.5359 48.2435 36.2035C48.2447 35.0367 48.3118 33.9264 48.4748 32.9991C48.641 32.0538 48.8948 31.3737 49.2149 30.9985C49.9565 30.129 51.0623 29.5162 52.1826 29.1078C53.2984 28.7011 54.38 28.5148 55.0197 28.4681L55.8643 28.4064L55.4024 27.6967C55.3016 27.5418 55.1366 27.2955 54.966 27.0559C54.802 26.8257 54.6108 26.5701 54.463 26.4184L54.2485 26.1983L53.9553 26.2903C45.7747 28.8559 39.5692 24.4424 37.5082 21.9418ZM45.3208 26.3659C46.5791 26.3659 47.5777 25.3221 47.5777 24.0628C47.5777 22.8036 46.5791 21.7598 45.3208 21.7598C44.7194 21.7598 44.1735 22.0001 43.7705 22.3893C43.3344 22.8099 43.064 23.4061 43.064 24.0628C43.064 25.3221 44.0626 26.3659 45.3208 26.3659Z" fill="#DD127B" stroke="white"/>
<path d="M25.6758 20.4154L25.3248 20.0004L24.9405 20.3847L23.4179 21.9073L22.9651 22.3602L23.5143 22.6896C24.7489 23.4303 26.6117 24.8088 28.1591 26.5172C29.7185 28.2389 30.8843 30.2145 30.8843 32.1576C30.8843 34.2104 30.1433 37.5104 29.1906 40.8511C28.2433 44.1729 27.1059 47.4716 26.3485 49.4916L26.0142 50.3831L26.9379 50.1522L29.983 49.3909L30.2817 49.3162L30.3495 49.0159C30.7906 47.0618 31.5653 44.134 32.4532 41.7026C32.8983 40.4837 33.3637 39.4124 33.8194 38.6542C34.048 38.2738 34.261 37.9947 34.4512 37.8164C34.6472 37.6327 34.7646 37.6059 34.8101 37.6059C34.8693 37.6059 34.9665 37.6308 35.1086 37.7674C35.2537 37.907 35.4121 38.1332 35.5747 38.4553C35.8993 39.0982 36.1883 40.0163 36.4358 41.0739C36.9288 43.1807 37.2306 45.7221 37.3566 47.4203L37.4072 48.101L38.041 47.8475L39.9442 47.0862L40.314 46.9383L40.2525 46.5448C39.9379 44.5329 39.5983 41.3622 39.6015 38.4002C39.603 36.9186 39.6904 35.5046 39.9041 34.3205C40.1209 33.1188 40.4554 32.2289 40.896 31.7256C41.8827 30.5985 43.347 29.8108 44.8171 29.2886C46.2821 28.7683 47.7029 28.5294 48.5487 28.4692L49.4069 28.4082L48.929 27.6928C48.7988 27.4978 48.5855 27.1875 48.3649 26.8857C48.1512 26.5934 47.9083 26.2778 47.7249 26.0944L47.5125 25.882L47.2252 25.9697C36.5073 29.2449 28.3783 23.6102 25.6758 20.4154ZM35.9521 25.806C37.4891 25.806 38.7359 24.5592 38.7359 23.0221C38.7359 21.4851 37.4891 20.2383 35.9521 20.2383C35.2148 20.2383 34.5433 20.5251 34.045 20.9943L34.3878 21.3583L34.0455 20.9939C33.5059 21.5009 33.1682 22.2229 33.1682 23.0221C33.1682 24.5592 34.415 25.806 35.9521 25.806Z" fill="#0093DD" stroke="white"/>
<path d="M21.8674 18.4542C20.3448 21.1187 21.8674 21.1187 20.3448 23.0219C18.8223 23.7839 17.3001 23.0219 16.9194 26.4471C16.5388 29.8723 15.0158 30.2535 13.113 31.3955C11.2101 32.5374 9.30656 31.3955 8.16463 30.2535C7.0227 29.1116 5.11912 28.731 4.73884 29.8729C4.35857 31.0148 2.45462 31.0148 5.11912 31.7761C7.78362 32.5374 6.64169 33.6793 5.11912 33.6793C3.59655 33.6793 0.932051 34.06 2.45462 35.5825C3.97719 37.1051 4.73848 36.7245 7.40298 37.4857C10.0675 38.247 11.2094 40.5309 11.9707 42.4341C12.732 44.3373 13.1126 44.718 15.0158 45.0986C16.919 45.4792 17.6803 45.0986 18.061 44.3373C18.4416 43.576 19.9642 44.3373 20.3448 46.2405C20.7255 48.1437 22.6287 48.905 24.1513 50.8082C25.6738 52.7115 27.577 51.5695 29.8609 52.3308C32.1448 53.0921 41.2802 61.4662 44.3253 66.034C47.3705 70.221 49.2737 69.0791 51.9382 67.1759C54.6027 65.2727 53.4607 70.6017 57.6478 68.3178C61.8349 66.034 56.5059 64.5114 60.3123 61.0856C64.1187 57.6598 61.0736 58.4211 61.8349 56.5179C62.5962 54.6147 62.2155 56.1372 64.4994 56.1372C66.7832 56.1372 66.022 54.6147 67.1639 55.376C68.3058 56.1372 66.4026 56.8985 67.9252 58.0405C69.4477 59.1824 71.351 57.2792 72.8735 54.6147C74.3961 51.9502 72.4929 51.9502 72.1122 51.1889C71.7316 50.4276 73.2542 49.6663 74.0155 48.905C74.7767 48.1437 70.9703 45.0986 70.209 44.3373C69.4477 43.576 73.2542 40.9115 73.6348 39.7696C74.0155 38.6277 72.8735 38.247 71.7316 38.247C70.5897 38.247 71.351 37.4857 70.209 36.7245C69.0671 35.9632 69.8284 34.4406 69.4477 33.6793C69.0671 32.918 66.4026 33.6793 65.6413 33.6793C64.88 33.6793 65.2607 31.3955 64.88 30.2535C64.4994 29.1116 62.9768 27.2084 62.5962 26.4471C62.2155 25.6858 62.9768 24.5439 65.6413 25.3052C68.3058 26.0665 67.1639 24.1633 67.9252 24.1633C68.6865 24.1633 68.6865 22.26 67.5445 21.1181C66.4026 19.9762 66.7832 19.2149 66.4026 18.073C66.022 16.931 65.2607 16.931 64.4994 16.5504C63.7381 16.1698 64.4994 15.0278 63.7381 13.8859C62.9768 12.744 62.5962 13.5053 62.2155 13.8859C61.8349 14.2665 61.8349 15.0278 60.3123 13.8859C58.7897 12.744 56.1252 12.744 55.364 12.744C54.6027 12.744 54.6027 13.1246 54.6027 11.2214C54.6027 9.31818 53.0801 8.5569 51.9382 8.17626C50.7962 7.79561 51.5575 7.03433 52.3188 6.27304C53.0801 5.51176 51.5575 4.37059 50.4156 3.60854C49.2737 2.84649 47.7511 3.98919 45.0866 3.2279C42.4221 2.46661 42.0415 3.2279 40.8995 3.60854C39.7576 3.98919 39.7576 5.13111 39.377 5.89316C38.9963 6.65521 36.7125 6.27304 35.9512 5.51252C35.1899 4.752 36.3318 3.98919 36.3318 3.2279C36.3318 2.46725 35.5718 2.46725 34.0518 2.46725H34.048C32.5254 2.46725 33.6673 2.08661 32.1448 1.70597C30.6222 1.32533 29.4803 1.70597 29.4803 2.46725C29.4803 3.22854 32.5254 4.75123 31.3835 5.51252C30.2415 6.27381 29.8609 5.13188 29.0996 4.37059C28.3383 3.60931 27.1964 3.98995 26.4351 4.75123C25.6738 5.51252 24.9125 5.89316 23.7706 5.89316C22.6287 5.89316 20.7255 4.75123 21.4868 5.51252C22.248 6.27381 21.8674 7.41573 22.6287 9.69959C23.39 11.9834 25.2932 9.31895 26.4351 11.6028C27.577 13.8867 26.0545 17.3123 24.9125 18.4542C23.7706 19.5962 23.39 15.7897 21.8674 18.4542Z" stroke="#4BC578" stroke-width="2"/>
<path d="M88.4633 21.9101C88.6125 22.2732 88.629 22.7847 88.5296 23.3953C88.5296 23.4448 88.5296 23.4943 88.5628 23.5273C88.5959 23.5603 88.6456 23.5933 88.6953 23.5933H89.0765C89.0765 23.5933 89.2256 23.5438 89.2422 23.4613L89.8388 20.2104C89.8388 20.2104 89.8388 20.1114 89.8056 20.0784C89.7725 20.0454 89.7228 20.0124 89.673 20.0124H79.1999C79.1999 20.0124 79.0507 20.0619 79.0341 20.1444L78.9678 20.524C78.9678 20.524 78.9678 20.623 79.001 20.656C79.0341 20.689 79.0838 20.722 79.117 20.722C80.0947 20.755 80.3764 20.953 80.4593 21.0685C80.5421 21.1841 80.6416 21.5471 80.4261 22.6857L78.6861 31.5307C78.4707 32.6198 78.2221 33.0324 78.0564 33.1809C77.8907 33.3294 77.493 33.5109 76.5318 33.5439C76.449 33.5439 76.3827 33.6099 76.3827 33.676L76.3164 34.0555C76.3164 34.0555 76.3164 34.1545 76.3495 34.1875C76.3827 34.2205 76.4324 34.2535 76.4821 34.2535H82.0667C82.0667 34.2535 82.2159 34.204 82.2324 34.1215L82.2987 33.742C82.2987 33.742 82.2987 33.643 82.2656 33.6099C82.2324 33.5769 82.1827 33.5439 82.1496 33.5439C81.1884 33.5109 80.9067 33.3129 80.8239 33.1974C80.741 33.0819 80.6416 32.7188 80.857 31.5802L82.9284 21.1015H86.4416C87.0713 21.1015 87.5353 21.151 87.8502 21.2501C88.1319 21.3491 88.3308 21.5636 88.4633 21.9101ZM99.9142 24.0554C100.08 23.1808 99.9805 22.4217 99.6325 21.7781C99.268 21.1345 98.7542 20.6725 98.108 20.4085C97.4617 20.1444 96.5337 20.0124 95.3571 20.0124H90.5679C90.5679 20.0124 90.4188 20.0619 90.4022 20.1444L90.3359 20.524C90.3359 20.524 90.3359 20.623 90.3691 20.656C90.4022 20.689 90.4519 20.722 90.5016 20.722H90.9988C91.4296 20.722 91.7279 20.8375 91.8936 21.1015C91.9433 21.1841 92.0262 21.4811 91.8108 22.6197L90.0376 31.5967C89.8553 32.5538 89.6896 32.9004 89.5902 33.0324C89.3085 33.3789 88.9273 33.5439 88.4136 33.5439H87.9165C87.9165 33.5439 87.7673 33.5934 87.7508 33.676L87.6845 34.0555C87.6845 34.0555 87.6845 34.1545 87.7176 34.1875C87.7508 34.2205 87.8005 34.2535 87.8502 34.2535H93.4348C93.4348 34.2535 93.5839 34.204 93.6005 34.1215L93.6668 33.742C93.6668 33.742 93.6668 33.643 93.6336 33.6099C93.6005 33.5769 93.5508 33.5439 93.5011 33.5439H93.0039C92.5731 33.5439 92.2748 33.4284 92.1256 33.1644C92.0759 33.0819 91.9765 32.7849 92.1919 31.6462L92.9542 27.7683C93.2856 27.8508 93.6171 27.9003 93.9319 27.9498C94.2965 27.9993 94.6445 28.0158 94.9594 28.0158C96.2685 28.0158 97.3788 27.6363 98.2571 26.9102C99.1188 26.1841 99.6822 25.2105 99.9142 24.0554V24.0554ZM97.3622 24.2039C97.1965 25.0455 96.8319 25.7221 96.2685 26.2501C95.7051 26.7782 95.1251 27.0257 94.4954 27.0257C94.3131 27.0257 94.1142 27.0257 93.8491 26.9762C93.6502 26.9432 93.4182 26.9102 93.1531 26.8607L94.2302 21.3491C94.7108 21.2336 95.0919 21.1841 95.3902 21.1841C95.8874 21.1841 96.3182 21.2996 96.6662 21.5306C97.0142 21.7616 97.2297 22.1082 97.3622 22.5867C97.4782 23.0818 97.4948 23.6263 97.3622 24.1874V24.2039ZM110.172 33.6099C110.172 33.6099 110.106 33.5439 110.056 33.5439C109.575 33.5109 109.227 33.3789 109.012 33.1314C108.797 32.8839 108.581 32.2898 108.415 31.3987L106.145 19.8309C106.145 19.8309 106.062 19.6989 105.979 19.6989H105.648C105.648 19.6989 105.532 19.7319 105.499 19.7814L98.6548 31.2172C98.0748 32.2073 97.5777 32.8674 97.2131 33.1809C97.0971 33.2799 96.8154 33.4284 96.1525 33.5439C96.0862 33.5439 96.0365 33.6099 96.0199 33.676L95.9537 34.0555C95.9537 34.0555 95.9537 34.1545 95.9868 34.1875C96.0199 34.2205 96.0697 34.2535 96.1194 34.2535H100.229C100.229 34.2535 100.378 34.204 100.395 34.1215L100.461 33.742C100.461 33.742 100.461 33.643 100.428 33.6099C100.395 33.5769 100.362 33.5439 100.312 33.5439C99.5662 33.4944 99.3177 33.3624 99.2514 33.2799C99.1354 33.1644 99.0857 33.0324 99.1188 32.8674C99.1685 32.6198 99.3508 32.2238 99.6657 31.7122L100.925 29.6H105.747L106.112 31.4647C106.228 32.0918 106.278 32.5538 106.211 32.8344C106.178 33.0159 106.062 33.1809 105.88 33.3129C105.698 33.4449 105.35 33.5274 104.869 33.5604C104.786 33.5604 104.737 33.6264 104.72 33.6925L104.654 34.072C104.654 34.072 104.654 34.171 104.687 34.204C104.72 34.237 104.77 34.27 104.819 34.27H109.973C109.973 34.27 110.122 34.2205 110.139 34.138L110.205 33.7585C110.205 33.7585 110.205 33.6595 110.172 33.6264V33.6099ZM101.571 28.5109L104.571 23.5108L105.565 28.5109H101.571ZM127.821 34.1215L127.887 33.742C127.904 33.6595 127.854 33.5604 127.754 33.5439C127.092 33.4119 126.594 33.1809 126.296 32.8509C125.981 32.5208 125.6 31.6792 125.169 30.3756C124.672 28.9234 124.374 28.0983 124.241 27.7683C124.109 27.4878 123.943 27.2237 123.728 26.9927C124.109 26.7122 124.44 26.3821 124.689 26.0026C124.97 25.59 125.401 24.7815 125.965 23.6098C126.396 22.7352 126.694 22.1742 126.86 21.9431C127.191 21.5306 127.489 21.5801 128.02 21.9431C128.351 22.1577 128.633 22.2732 128.881 22.2732C129.196 22.2732 129.478 22.1742 129.71 21.9761C129.942 21.7781 130.091 21.5306 130.157 21.2501C130.24 20.8705 130.124 20.524 129.859 20.2599C129.594 19.9959 129.18 19.8639 128.633 19.8639C128.086 19.8639 127.556 20.0124 127.075 20.326C126.594 20.623 126.213 20.9695 125.965 21.3656C125.716 21.7451 125.318 22.4877 124.805 23.5603C124.324 24.5504 123.976 25.2105 123.761 25.524C123.562 25.8211 123.313 26.0521 123.032 26.2171C122.75 26.3821 122.369 26.4646 121.921 26.4646C121.822 26.4646 121.722 26.4646 121.623 26.4316L122.336 22.7682C122.551 21.6791 122.8 21.2666 122.965 21.118C123.197 20.9035 123.711 20.7715 124.49 20.755C124.573 20.755 124.639 20.689 124.639 20.623L124.705 20.2434C124.705 20.2434 124.705 20.1444 124.672 20.1114C124.639 20.0784 124.589 20.0454 124.54 20.0454H118.922C118.922 20.0454 118.773 20.0949 118.756 20.1774L118.69 20.557C118.69 20.557 118.69 20.656 118.723 20.689C118.756 20.722 118.806 20.755 118.839 20.755C119.833 20.788 120.115 20.986 120.181 21.1015C120.264 21.2171 120.38 21.5801 120.148 22.7187L119.419 26.4316C119.22 26.4646 119.071 26.4811 118.955 26.4811C118.557 26.4811 118.242 26.3986 118.027 26.2501C117.811 26.1016 117.679 25.8871 117.596 25.5735C117.513 25.26 117.43 24.5999 117.331 23.6263C117.231 22.5372 117.132 21.7946 117.016 21.4151C116.917 21.0025 116.668 20.6395 116.287 20.3425C115.906 20.0454 115.442 19.8804 114.878 19.8804C114.315 19.8804 113.851 20.0124 113.519 20.2764C113.171 20.5405 112.956 20.854 112.89 21.2006C112.823 21.4976 112.89 21.7616 113.055 21.9761C113.221 22.1907 113.486 22.2897 113.801 22.2897C114.066 22.2897 114.381 22.1907 114.779 21.9761C115.442 21.6296 115.773 21.5636 115.906 21.9101C115.955 22.0587 116.055 22.4547 116.154 23.5768C116.254 24.7485 116.37 25.557 116.486 25.9696C116.585 26.3326 116.784 26.6792 117.049 26.9597C116.651 27.2567 116.187 27.7518 115.707 28.4119C114.215 30.4581 113.171 31.8112 112.608 32.4218C112.061 33.0159 111.299 33.3954 110.371 33.5439C110.305 33.5439 110.255 33.6099 110.238 33.676L110.172 34.0555C110.172 34.0555 110.172 34.1545 110.205 34.1875C110.238 34.2205 110.288 34.2535 110.338 34.2535H113.652C113.652 34.2535 113.751 34.2205 113.785 34.1875L116.453 30.3921C117.811 28.4614 118.126 28.0158 118.209 27.9333C118.325 27.8013 118.458 27.6858 118.607 27.6033C118.756 27.5208 118.938 27.4878 119.137 27.4878H119.203L118.408 31.5637C118.193 32.6528 117.944 33.0654 117.778 33.2139C117.613 33.3624 117.215 33.5439 116.254 33.5769C116.171 33.5769 116.105 33.643 116.105 33.709L116.038 34.0885C116.038 34.0885 116.038 34.1875 116.071 34.2205C116.105 34.2535 116.154 34.2865 116.204 34.2865H121.822C121.822 34.2865 121.971 34.237 121.988 34.1545L122.054 33.775C122.054 33.775 122.054 33.676 122.021 33.643C121.988 33.6099 121.938 33.5769 121.905 33.5769C120.927 33.5439 120.645 33.3459 120.562 33.2304C120.48 33.1149 120.38 32.7519 120.596 31.6132L121.408 27.4878C121.789 27.4713 121.988 27.5373 122.104 27.7023C122.236 27.8838 122.319 28.0653 122.369 28.2303L123.28 31.2007C123.81 32.9004 124.125 33.973 124.175 34.1545C124.192 34.237 124.258 34.2865 124.341 34.2865H127.655C127.655 34.2865 127.804 34.237 127.821 34.1545V34.1215ZM140.912 33.5439C140.133 33.5439 139.686 33.4119 139.62 33.1479C139.553 32.9169 139.57 32.2733 139.918 30.4581L141.426 22.7517C141.641 21.6626 141.89 21.2501 142.056 21.1015C142.304 20.887 142.818 20.755 143.58 20.7385C143.663 20.7385 143.713 20.6725 143.729 20.6065L143.812 20.2269C143.812 20.2269 143.812 20.1279 143.779 20.0949C143.746 20.0619 143.696 20.0289 143.646 20.0289H132.875C132.875 20.0289 132.726 20.0784 132.709 20.1609L132.643 20.5405C132.643 20.5405 132.643 20.6395 132.676 20.6725C132.709 20.7055 132.742 20.7385 132.792 20.7385C133.621 20.7715 133.936 20.8375 134.068 20.887C134.217 20.953 134.35 21.118 134.416 21.3821C134.499 21.6791 134.482 22.1577 134.35 22.8012C134.134 23.9234 133.72 25.359 133.124 27.1577C132.527 28.9234 131.781 30.4251 130.92 31.6132C130.058 32.7849 129.13 33.4284 128.136 33.5274C128.069 33.5274 128.003 33.5934 127.986 33.6595L127.125 38.0324C127.125 38.0324 127.125 38.1315 127.158 38.1645C127.191 38.1975 127.241 38.2305 127.29 38.2305H127.622C127.622 38.2305 127.754 38.181 127.771 38.115C128.086 37.1578 128.666 36.2667 129.494 35.4417C130.306 34.6331 131.433 34.237 132.842 34.237H136.173C136.902 34.237 137.515 34.336 137.996 34.5341C138.46 34.7321 138.841 35.1116 139.122 35.6892C139.421 36.2832 139.553 37.0753 139.553 38.0654C139.553 38.115 139.553 38.148 139.603 38.181C139.636 38.214 139.669 38.2305 139.719 38.2305H140.05C140.05 38.2305 140.2 38.181 140.216 38.0985L141.078 33.7255C141.078 33.7255 141.078 33.6265 141.045 33.5934C141.012 33.5604 140.962 33.5274 140.912 33.5274V33.5439ZM137.532 31.4977C137.316 32.6033 137.117 32.8839 137.034 32.9664C136.935 33.0489 136.62 33.1644 135.543 33.1644H131.102C131.947 32.2403 132.726 31.0357 133.422 29.5505C134.184 27.9333 135.046 25.095 135.99 21.118H139.57L137.532 31.4977V31.4977ZM155.363 33.5439C154.882 33.5109 154.534 33.3789 154.319 33.1314C154.103 32.8839 153.888 32.2898 153.722 31.3987L151.452 19.8309C151.452 19.8309 151.369 19.6989 151.286 19.6989H150.955C150.955 19.6989 150.839 19.7319 150.805 19.7814L143.961 31.2172C143.381 32.2073 142.884 32.8674 142.52 33.1809C142.404 33.2799 142.122 33.4284 141.459 33.5439C141.393 33.5439 141.343 33.6099 141.326 33.676L141.26 34.0555C141.26 34.0555 141.26 34.1545 141.293 34.1875C141.326 34.2205 141.376 34.2535 141.426 34.2535H145.536C145.536 34.2535 145.685 34.204 145.701 34.1215L145.768 33.742C145.768 33.742 145.768 33.643 145.735 33.6099C145.701 33.5769 145.668 33.5439 145.619 33.5439C144.856 33.4944 144.624 33.3624 144.558 33.2799C144.442 33.1644 144.392 33.0324 144.425 32.8674C144.475 32.6198 144.657 32.2238 144.972 31.7122L146.232 29.6H151.054L151.419 31.4647C151.535 32.0918 151.584 32.5538 151.518 32.8344C151.485 33.0159 151.385 33.1809 151.203 33.3129C151.021 33.4449 150.673 33.5274 150.192 33.5604C150.109 33.5604 150.06 33.6264 150.043 33.6925L149.977 34.072C149.977 34.072 149.977 34.171 150.01 34.204C150.043 34.237 150.093 34.27 150.143 34.27H155.296C155.296 34.27 155.445 34.2205 155.462 34.138L155.528 33.7585C155.528 33.7585 155.528 33.6595 155.495 33.6264C155.462 33.5934 155.429 33.5604 155.379 33.5604L155.363 33.5439ZM146.895 28.5109L149.894 23.5108L150.888 28.5109H146.895V28.5109ZM172 20.7385C172 20.7385 172.149 20.689 172.166 20.6065L172.249 20.2269C172.249 20.2269 172.249 20.1279 172.216 20.0949C172.183 20.0619 172.133 20.0289 172.083 20.0289H166.499C166.499 20.0289 166.349 20.0784 166.333 20.1609L166.267 20.5405C166.267 20.5405 166.267 20.6395 166.3 20.6725C166.333 20.7055 166.383 20.7385 166.432 20.7385H166.896C167.178 20.7385 167.41 20.8045 167.625 20.953C167.775 21.052 167.857 21.1675 167.874 21.2831C167.891 21.4151 167.891 21.7781 167.725 22.6197L166.963 26.4646H161.229L161.975 22.6857C162.107 22.0256 162.223 21.5801 162.339 21.3821C162.439 21.1841 162.588 21.052 162.787 20.953C163.068 20.8045 163.35 20.7385 163.632 20.7385H164.112C164.112 20.7385 164.261 20.689 164.278 20.6065L164.344 20.2269C164.344 20.2269 164.344 20.1279 164.311 20.0949C164.278 20.0619 164.228 20.0289 164.179 20.0289H158.594C158.594 20.0289 158.445 20.0784 158.428 20.1609L158.362 20.5405C158.362 20.5405 158.362 20.6395 158.395 20.6725C158.428 20.7055 158.478 20.7385 158.528 20.7385H158.992C159.273 20.7385 159.505 20.8045 159.737 20.953C159.87 21.052 159.953 21.1675 159.969 21.2831C160.003 21.4151 159.986 21.7616 159.82 22.6197L158.064 31.5967C157.865 32.5868 157.683 32.9664 157.567 33.0984C157.285 33.3954 156.904 33.5439 156.423 33.5439H155.959C155.959 33.5439 155.81 33.5934 155.793 33.676L155.727 34.0555C155.727 34.0555 155.727 34.1545 155.76 34.1875C155.793 34.2205 155.843 34.2535 155.893 34.2535H161.477C161.477 34.2535 161.627 34.204 161.643 34.1215L161.709 33.742C161.709 33.742 161.709 33.643 161.676 33.6099C161.643 33.5769 161.593 33.5439 161.544 33.5439H161.063C160.781 33.5439 160.549 33.4779 160.334 33.3294C160.185 33.2304 160.102 33.1149 160.085 32.9994C160.069 32.8509 160.069 32.5043 160.235 31.6627L161.047 27.5703H166.78L165.985 31.6132C165.786 32.6033 165.604 32.9829 165.471 33.1149C165.189 33.4119 164.825 33.5604 164.328 33.5604H163.864C163.864 33.5604 163.715 33.6099 163.698 33.6925L163.615 34.072C163.615 34.072 163.615 34.171 163.648 34.204C163.681 34.237 163.731 34.27 163.781 34.27H169.365C169.365 34.27 169.515 34.2205 169.531 34.138L169.597 33.7585C169.597 33.7585 169.597 33.6595 169.564 33.6264C169.531 33.5934 169.481 33.5604 169.432 33.5604H168.968C168.686 33.5604 168.437 33.4944 168.222 33.3459C168.089 33.2469 168.007 33.1314 167.973 33.0159C167.957 32.8674 167.957 32.5208 168.123 31.6792L169.879 22.7022C170.012 22.0421 170.128 21.5966 170.244 21.3821C170.343 21.1841 170.492 21.052 170.691 20.953C170.973 20.8045 171.255 20.7385 171.536 20.7385H172V20.7385ZM182.689 30.5076C182.689 30.5076 182.523 30.4581 182.457 30.5241C181.479 31.6462 180.618 32.4218 179.922 32.7849C179.226 33.1644 178.463 33.3459 177.635 33.3459C176.707 33.3459 175.911 33.1149 175.282 32.6363C174.652 32.1743 174.238 31.4977 174.055 30.6066C173.873 29.7155 173.89 28.6264 174.138 27.4053C174.436 25.9036 174.884 24.6329 175.464 23.6263C176.044 22.6362 176.74 21.8936 177.502 21.4481C178.264 21.0025 179.076 20.7715 179.905 20.7715C180.883 20.7715 181.678 21.0685 182.258 21.6626C182.838 22.2567 183.203 23.2468 183.319 24.6164C183.319 24.6989 183.402 24.765 183.484 24.765H183.783C183.783 24.765 183.932 24.6989 183.948 24.6164L184.578 19.8969C184.578 19.8969 184.578 19.7979 184.545 19.7649C184.512 19.7319 184.462 19.7154 184.412 19.7154H184.081C184.081 19.7154 183.948 19.7484 183.932 19.8144C183.799 20.1114 183.65 20.359 183.468 20.524C183.335 20.623 183.219 20.6725 183.087 20.6725C183.054 20.6725 182.938 20.656 182.639 20.4745C181.794 19.9629 180.883 19.7154 179.905 19.7154C178.662 19.7154 177.452 20.0454 176.276 20.689C175.116 21.3326 174.105 22.2567 173.276 23.4448C172.448 24.6164 171.901 25.9201 171.619 27.3392C171.271 29.0884 171.437 30.6396 172.083 31.9268C172.962 33.6925 174.536 34.5836 176.756 34.5836C177.983 34.5836 179.11 34.2865 180.12 33.6925C181.115 33.1149 182.092 32.1743 182.987 30.9366C183.037 30.8706 183.02 30.7716 182.954 30.7056L182.689 30.5076V30.5076ZM196.046 33.5604C195.316 33.5439 194.77 33.2799 194.388 32.7519C193.991 32.1908 193.411 31.0687 192.648 29.402C192.035 28.0488 191.488 27.2237 190.958 26.9102C191.919 26.3491 192.847 25.26 193.726 23.6758C194.223 22.7517 194.571 22.1742 194.753 21.9596C194.902 21.7781 195.068 21.6791 195.217 21.6791C195.283 21.6791 195.449 21.7121 195.863 21.9596C196.278 22.1907 196.576 22.3062 196.791 22.3062C197.073 22.3062 197.355 22.1907 197.62 21.9761C197.885 21.7616 198.051 21.4976 198.1 21.2006C198.167 20.8375 198.117 20.5405 197.935 20.3095C197.703 20.0289 197.288 19.8969 196.675 19.8969C196.095 19.8969 195.565 20.0124 195.084 20.2599C194.62 20.491 194.256 20.788 193.991 21.1345C193.742 21.4646 193.378 22.0421 192.93 22.8507C192.466 23.7088 192.085 24.3359 191.82 24.6989C191.555 25.062 191.223 25.4085 190.842 25.7221C190.461 26.0356 190.13 26.2336 189.864 26.3161C189.616 26.3986 189.202 26.4481 188.638 26.4481L189.367 22.7682C189.583 21.6791 189.831 21.2666 189.997 21.118C190.229 20.9035 190.743 20.7715 191.522 20.755C191.604 20.755 191.654 20.689 191.671 20.623L191.737 20.2434C191.737 20.2434 191.737 20.1444 191.704 20.1114C191.671 20.0784 191.621 20.0454 191.571 20.0454H185.954C185.954 20.0454 185.804 20.0949 185.788 20.1774L185.722 20.557C185.722 20.557 185.722 20.656 185.755 20.689C185.788 20.722 185.821 20.755 185.871 20.755C186.848 20.788 187.13 20.986 187.213 21.1015C187.296 21.2171 187.395 21.5801 187.18 22.7187L185.44 31.5637C185.224 32.6693 184.976 33.0654 184.81 33.2139C184.562 33.4284 184.048 33.5439 183.286 33.5769C183.203 33.5769 183.136 33.643 183.12 33.709L183.054 34.0885C183.054 34.0885 183.054 34.1875 183.087 34.2205C183.12 34.2535 183.17 34.2865 183.219 34.2865H188.837C188.837 34.2865 188.986 34.237 189.003 34.1545L189.069 33.775C189.069 33.775 189.069 33.676 189.036 33.643C189.003 33.6099 188.953 33.5769 188.903 33.5769C187.926 33.5439 187.644 33.3459 187.561 33.2304C187.478 33.1149 187.379 32.7519 187.594 31.6132L188.39 27.6033C188.787 27.6198 189.086 27.7023 189.251 27.8508C189.384 27.9663 189.765 28.5604 190.792 30.6726C191.621 32.3723 192.151 33.5604 192.4 34.1875C192.416 34.2535 192.483 34.2865 192.549 34.2865H195.913C195.913 34.2865 196.062 34.237 196.079 34.1545L196.162 33.775C196.162 33.775 196.162 33.676 196.128 33.643C196.095 33.6099 196.046 33.5769 195.996 33.5769L196.046 33.5604ZM210.413 22.7682C210.629 21.6791 210.877 21.2666 211.043 21.118C211.275 20.9035 211.789 20.7715 212.567 20.755C212.65 20.755 212.7 20.689 212.717 20.623L212.783 20.2434C212.783 20.2434 212.783 20.1444 212.75 20.1114C212.717 20.0784 212.667 20.0454 212.617 20.0454H206.966C206.966 20.0454 206.817 20.0949 206.801 20.1774L206.734 20.557C206.734 20.557 206.734 20.656 206.767 20.689C206.801 20.722 206.85 20.755 206.9 20.755C207.795 20.755 208.126 20.9035 208.242 21.0355C208.342 21.1345 208.458 21.4481 208.275 22.4382L201.034 30.2271L202.492 22.7847C202.707 21.6956 202.956 21.2831 203.122 21.1345C203.37 20.92 203.884 20.788 204.663 20.7715C204.746 20.7715 204.795 20.7055 204.812 20.6395L204.878 20.2599C204.878 20.2599 204.878 20.1609 204.845 20.1279C204.812 20.0949 204.762 20.0619 204.713 20.0619H199.078C199.078 20.0619 198.929 20.1114 198.912 20.1939L198.846 20.5735C198.846 20.5735 198.846 20.6725 198.879 20.7055C198.912 20.7385 198.946 20.7715 198.995 20.7715C199.973 20.8045 200.255 21.0025 200.338 21.118C200.42 21.2336 200.52 21.5966 200.305 22.7352L198.564 31.5802C198.349 32.6693 198.1 33.0819 197.935 33.2304C197.769 33.3789 197.371 33.5604 196.41 33.5934C196.327 33.5934 196.261 33.6595 196.261 33.7255L196.178 34.105C196.178 34.105 196.178 34.204 196.211 34.237C196.244 34.27 196.294 34.303 196.344 34.303H201.978C201.978 34.303 202.127 34.2535 202.144 34.171L202.21 33.7915C202.21 33.7915 202.21 33.6925 202.177 33.6595C202.144 33.6265 202.094 33.5934 202.045 33.5934C201.299 33.5934 200.984 33.4944 200.851 33.4119C200.669 33.3294 200.586 33.2139 200.553 33.0654C200.537 32.9334 200.553 32.6363 200.669 31.9598L207.911 24.1544L206.453 31.5637C206.287 32.4383 206.071 32.9829 205.823 33.2139C205.657 33.3624 205.243 33.5604 204.265 33.5769C204.182 33.5769 204.116 33.643 204.116 33.709L204.033 34.0885C204.033 34.0885 204.033 34.1875 204.066 34.2205C204.099 34.2535 204.149 34.2865 204.199 34.2865H209.85C209.85 34.2865 209.999 34.237 210.015 34.1545L210.082 33.775C210.082 33.775 210.082 33.676 210.049 33.643C210.015 33.6099 209.966 33.5769 209.916 33.5769C208.938 33.5439 208.657 33.3459 208.574 33.2304C208.491 33.1149 208.391 32.7519 208.607 31.6132L210.347 22.7682H210.413ZM220.406 18.9068C221.715 18.9068 222.742 18.6758 223.438 18.2302C224.151 17.7682 224.582 17.2071 224.698 16.547C224.764 16.2665 224.714 16.0025 224.582 15.7879C224.449 15.5569 224.234 15.4414 223.985 15.4414C223.72 15.4414 223.471 15.5404 223.256 15.7384C223.057 15.92 222.775 16.316 222.378 16.9266C221.847 17.7352 221.234 18.1312 220.505 18.1312C219.776 18.1312 219.345 17.7517 219.146 16.9761C218.981 16.3655 218.831 15.9695 218.715 15.7714C218.566 15.5569 218.351 15.4414 218.086 15.4414C217.821 15.4414 217.589 15.5569 217.39 15.7714C217.191 15.9695 217.058 16.217 217.009 16.4975C216.876 17.1576 217.091 17.7517 217.638 18.2137C218.169 18.6758 219.097 18.9068 220.439 18.9068H220.406ZM227.001 20.0949C227.001 20.0949 226.918 20.0289 226.869 20.0289H221.218C221.218 20.0289 221.069 20.0784 221.052 20.1609L220.986 20.5405C220.986 20.5405 220.986 20.6395 221.019 20.6725C221.052 20.7055 221.102 20.7385 221.151 20.7385C222.046 20.7385 222.378 20.887 222.494 21.019C222.593 21.118 222.709 21.4316 222.527 22.4217L215.285 30.2106L216.743 22.7682C216.959 21.6791 217.207 21.2666 217.373 21.118C217.622 20.9035 218.135 20.7715 218.914 20.755C218.997 20.755 219.047 20.689 219.063 20.623L219.13 20.2434C219.13 20.2434 219.13 20.1444 219.097 20.1114C219.063 20.0784 219.014 20.0454 218.964 20.0454H213.33C213.33 20.0454 213.181 20.0949 213.164 20.1774L213.098 20.557C213.098 20.557 213.098 20.656 213.131 20.689C213.164 20.722 213.197 20.755 213.247 20.755C214.225 20.788 214.506 20.986 214.589 21.1015C214.672 21.2171 214.771 21.5801 214.556 22.7187L212.816 31.5637C212.601 32.6528 212.352 33.0654 212.186 33.2139C212.021 33.3624 211.623 33.5439 210.662 33.5769C210.579 33.5769 210.513 33.643 210.513 33.709L210.43 34.0885C210.43 34.0885 210.43 34.1875 210.463 34.2205C210.496 34.2535 210.546 34.2865 210.595 34.2865H216.23C216.23 34.2865 216.379 34.237 216.395 34.1545L216.462 33.775C216.462 33.775 216.462 33.676 216.429 33.643C216.395 33.6099 216.346 33.5769 216.296 33.5769C215.55 33.5769 215.235 33.4779 215.103 33.3954C214.921 33.3129 214.838 33.1974 214.805 33.0489C214.788 32.9169 214.805 32.6198 214.921 31.9433L222.162 24.1379L220.704 31.5472C220.538 32.4218 220.323 32.9664 220.074 33.1974C219.909 33.3459 219.494 33.5439 218.517 33.5604C218.434 33.5604 218.367 33.6264 218.367 33.6925L218.285 34.072C218.285 34.072 218.285 34.171 218.318 34.204C218.351 34.237 218.401 34.27 218.45 34.27H224.101C224.101 34.27 224.25 34.2205 224.267 34.138L224.333 33.7585C224.333 33.7585 224.333 33.6595 224.3 33.6264C224.267 33.5934 224.217 33.5604 224.167 33.5604C223.19 33.5274 222.908 33.3294 222.825 33.2139C222.742 33.0984 222.643 32.7353 222.858 31.5967L224.598 22.7517C224.814 21.6626 225.062 21.2501 225.228 21.1015C225.46 20.887 225.974 20.755 226.753 20.7385C226.836 20.7385 226.885 20.6725 226.902 20.6065L226.968 20.2269C226.968 20.2269 226.968 20.1279 226.935 20.0949H227.001Z" fill="#4BC578"/>
<path d="M89.537 43.5675C88.8769 43.2301 87.9196 43.0614 86.6983 43.0427C86.8304 42.5179 86.9954 42.1806 87.1934 41.9931C87.4245 41.787 87.8866 41.6745 88.5633 41.637C88.6458 41.637 88.7118 41.5621 88.7118 41.4871L88.7778 41.0748C88.7778 41.0748 88.7778 40.9623 88.7448 40.9248C88.7118 40.8873 88.6623 40.8499 88.6128 40.8499H83.348C83.348 40.8499 83.1995 40.9061 83.183 40.9998L83.1169 41.4121C83.1169 41.4121 83.1169 41.5246 83.15 41.5621C83.183 41.5995 83.2325 41.637 83.282 41.637C83.9091 41.637 84.1567 41.712 84.2557 41.7495C84.3878 41.8057 84.5033 41.9182 84.5858 42.0868C84.6353 42.1618 84.6848 42.4055 84.6023 43.0239C83.447 43.0239 82.4403 43.1926 81.6316 43.5112C80.7734 43.8299 79.9812 44.4296 79.288 45.273C78.5948 46.1164 78.1327 47.1659 77.9347 48.3654C77.6541 49.9773 77.9017 51.3267 78.6444 52.4137C79.3705 53.4633 80.7404 54.0068 82.7043 54.0443C82.5888 54.5316 82.4238 54.8689 82.2257 55.0189C81.9782 55.2063 81.5161 55.3188 80.8559 55.3188C80.7734 55.3188 80.7074 55.375 80.6909 55.4687L80.6248 55.881C80.6248 55.881 80.6248 55.9935 80.6578 56.031C80.6909 56.0684 80.7404 56.1059 80.7899 56.1059H86.0712C86.0712 56.1059 86.2197 56.0497 86.2362 55.956L86.3022 55.5437C86.3022 55.5437 86.3022 55.4312 86.2692 55.3937C86.2362 55.3562 86.1867 55.3188 86.1372 55.3188C85.3285 55.3188 85.0149 55.1501 84.8994 55.0189C84.8004 54.9064 84.7013 54.644 84.7839 54.0255C86.8469 54.0068 88.4147 53.4445 89.4875 52.3762C90.5603 51.2892 91.2534 49.9585 91.5175 48.4029C91.7321 47.1847 91.633 46.1539 91.2204 45.3105C90.8243 44.4858 90.2467 43.8861 89.537 43.5112V43.5675ZM82.9189 52.8823C82.2587 52.8823 81.6976 52.7698 81.2355 52.5637C80.7734 52.3762 80.4268 51.9264 80.1627 51.1955C79.9152 50.4646 79.8822 49.5462 80.0637 48.4404C80.2452 47.4283 80.5423 46.5849 80.9879 45.9665C81.417 45.348 81.9122 44.8794 82.4403 44.617C82.9354 44.3734 83.5956 44.2422 84.4043 44.2234L82.9189 52.8635V52.8823ZM89.372 48.3842C89.1904 49.4337 88.8769 50.3146 88.4147 51.0268C87.9691 51.7203 87.4575 52.2263 86.9129 52.4887C86.4013 52.7323 85.7576 52.8823 84.9819 52.901L86.4673 44.2609C87.2595 44.2609 87.8701 44.3921 88.2992 44.617C88.7448 44.8419 89.0749 45.2917 89.2895 45.9477C89.504 46.6037 89.537 47.4471 89.372 48.4029V48.3842ZM104.242 42.8178C103.301 41.2997 101.998 40.5312 100.347 40.5312C98.6968 40.5312 97.1784 41.206 95.7755 42.5179C94.1747 44.036 93.1514 46.0227 92.7388 48.4217C92.3262 50.7832 92.5903 52.7323 93.5145 54.213C94.4387 55.7123 95.792 56.4808 97.525 56.4808C99.2579 56.4808 100.826 55.7123 102.295 54.1942C103.747 52.6761 104.688 50.7457 105.084 48.4592C105.463 46.2288 105.183 44.3172 104.259 42.8178H104.242ZM102.625 48.6841C102.229 50.9893 101.568 52.6949 100.644 53.7444C99.7365 54.794 98.7298 55.3188 97.624 55.3188C96.6007 55.3188 95.8746 54.8689 95.429 53.9318C94.8183 52.6761 94.7193 50.8207 95.1319 48.4404C95.528 46.1164 96.2542 44.3359 97.2609 43.1364C98.0531 42.1993 98.9938 41.712 100.034 41.712C101.139 41.712 101.915 42.1618 102.377 43.1177C102.971 44.3359 103.037 46.2101 102.608 48.6841H102.625ZM114.277 41.2997C113.682 41.0185 112.808 40.8686 111.685 40.8686H107.196C107.196 40.8686 107.048 40.9248 107.031 41.0185L106.965 41.4309C106.965 41.4309 106.965 41.5433 106.998 41.5808C107.031 41.6183 107.081 41.6558 107.13 41.6558H107.592C108.005 41.6558 108.269 41.787 108.418 42.0494C108.467 42.1243 108.55 42.4617 108.335 43.6612L106.685 53.2759C106.503 54.2879 106.355 54.6628 106.256 54.8127C105.992 55.1876 105.628 55.3562 105.166 55.3562H104.704C104.704 55.3562 104.556 55.4125 104.539 55.5062L104.473 55.9185C104.473 55.9185 104.473 56.031 104.506 56.0684C104.539 56.1059 104.589 56.1434 104.638 56.1434H109.886C109.886 56.1434 110.035 56.0872 110.052 55.9935L110.118 55.5811C110.118 55.5811 110.118 55.4687 110.085 55.4312C110.052 55.3937 110.002 55.3562 109.953 55.3562H109.474C109.061 55.3562 108.797 55.225 108.649 54.9627C108.599 54.8877 108.517 54.5503 108.715 53.3508L109.424 49.2088C109.754 49.2838 110.052 49.3588 110.332 49.3963C112.016 49.6586 113.385 49.2651 114.392 48.2905C115.217 47.5033 115.729 46.4725 115.943 45.2168C116.109 44.2797 116.009 43.455 115.679 42.7803C115.333 42.0868 114.854 41.5995 114.244 41.3184L114.277 41.2997ZM113.567 45.3667C113.418 46.2663 113.072 46.9973 112.544 47.5595C112.016 48.1218 111.471 48.3842 110.877 48.3842C110.712 48.3842 110.514 48.3842 110.266 48.328C110.068 48.2905 109.853 48.253 109.622 48.1968L110.646 42.3117C111.091 42.1993 111.454 42.1431 111.718 42.1431C112.197 42.1431 112.577 42.2743 112.907 42.5179C113.22 42.7616 113.435 43.1364 113.55 43.6424C113.666 44.1672 113.666 44.7482 113.55 45.3667H113.567ZM129.477 41.6558C129.477 41.6558 129.609 41.5808 129.609 41.5058L129.675 41.0935C129.675 41.0935 129.675 40.9811 129.642 40.9436C129.609 40.9061 129.559 40.8686 129.51 40.8686H125.664C125.664 40.8686 125.516 40.9248 125.499 41.0185L125.433 41.4309C125.433 41.4309 125.433 41.5246 125.466 41.5808C125.499 41.6183 125.532 41.6558 125.582 41.6558C125.978 41.7307 126.225 41.8619 126.341 42.0494C126.407 42.1618 126.44 42.3117 126.407 42.4992C126.341 42.8928 125.994 43.6799 125.4 44.8607L122.644 50.2209L121.076 44.8982C120.581 43.2301 120.532 42.6116 120.565 42.3867C120.631 41.9556 121.076 41.712 121.868 41.6745C121.951 41.6745 122 41.5995 122.017 41.5246L122.083 41.1123C122.083 41.1123 122.083 40.9998 122.05 40.9623C122.017 40.9248 121.967 40.8873 121.918 40.8873H116.95C116.95 40.8873 116.802 40.9436 116.785 41.0373L116.719 41.4496C116.719 41.4496 116.719 41.5433 116.752 41.5995C116.785 41.637 116.818 41.6745 116.851 41.6745C117.264 41.7682 117.561 41.9369 117.775 42.1806C117.99 42.4429 118.188 42.8928 118.386 43.53L121.175 52.9385C120.268 54.3067 119.739 54.5878 119.459 54.5878C119.409 54.5878 119.294 54.5691 119.063 54.4004C118.37 53.8381 117.775 53.8944 117.363 54.3067C117.148 54.5128 117.016 54.7752 116.967 55.0938C116.884 55.5437 117 55.8998 117.313 56.1621C117.594 56.4058 117.957 56.5182 118.419 56.5182C118.931 56.5182 119.459 56.3308 119.987 55.9747C120.515 55.6186 121.043 55.0751 121.555 54.3254C122.066 53.5945 122.76 52.3762 123.684 50.5957L127.199 43.8299C127.876 42.5367 128.652 41.8057 129.526 41.6745L129.477 41.6558ZM145.898 40.8686H142.432C142.432 40.8686 142.317 40.9061 142.3 40.9623L136.128 52.2263L133.784 41.0185C133.784 41.0185 133.702 40.8686 133.619 40.8686H130.153C130.153 40.8686 130.005 40.9248 129.988 41.0185L129.922 41.4309C129.922 41.4309 129.922 41.5433 129.955 41.5808C129.988 41.6183 130.038 41.6558 130.087 41.6558C130.665 41.6558 130.929 41.7495 131.045 41.8432C131.21 41.9556 131.309 42.1056 131.342 42.2555C131.408 42.5179 131.375 42.9677 131.276 43.605L129.592 53.3321C129.427 54.3254 129.262 54.7003 129.147 54.8502C128.899 55.1876 128.536 55.3562 128.074 55.3562H127.645C127.645 55.3562 127.496 55.4125 127.48 55.5062L127.414 55.9185C127.414 55.9185 127.414 56.031 127.447 56.0684C127.48 56.1059 127.529 56.1434 127.579 56.1434H131.837C131.837 56.1434 131.985 56.0872 132.002 55.9935L132.068 55.5811C132.068 55.5811 132.068 55.4687 132.035 55.4312C132.002 55.3937 131.952 55.3562 131.903 55.3562H131.474C131.061 55.3562 130.781 55.225 130.632 54.9814C130.583 54.9064 130.5 54.5691 130.698 53.4071L132.266 44.3172L134.659 55.9935C134.659 55.9935 134.742 56.1434 134.824 56.1434H135.121C135.121 56.1434 135.237 56.1059 135.253 56.0497L141.673 44.3734L140.122 53.3321C139.957 54.3254 139.792 54.7003 139.676 54.8502C139.429 55.1876 139.082 55.3562 138.604 55.3562H138.174C138.174 55.3562 138.026 55.4125 138.009 55.5062L137.943 55.9185C137.943 55.9185 137.943 56.031 137.976 56.0684C138.009 56.1059 138.059 56.1434 138.108 56.1434H143.307C143.307 56.1434 143.456 56.0872 143.472 55.9935L143.538 55.5811C143.538 55.5811 143.538 55.4687 143.505 55.4312C143.472 55.3937 143.423 55.3562 143.373 55.3562H142.944C142.531 55.3562 142.251 55.225 142.102 54.9814C142.053 54.9064 141.97 54.5878 142.168 53.4071L143.852 43.6799C144.017 42.6866 144.182 42.3117 144.297 42.1618C144.545 41.8245 144.908 41.6558 145.387 41.6558H145.816C145.816 41.6558 145.964 41.5995 145.981 41.5058L146.047 41.0935C146.047 41.0935 146.047 40.9811 146.014 40.9436C145.981 40.9061 145.931 40.8686 145.882 40.8686H145.898ZM161.313 40.6999C160.768 40.6999 160.257 40.8311 159.811 41.0935C159.366 41.3559 159.019 41.6558 158.771 42.0306C158.54 42.3867 158.21 42.9865 157.781 43.8673C157.336 44.7857 156.989 45.4417 156.741 45.854C156.494 46.2476 156.18 46.6224 155.817 46.9598C155.454 47.2971 155.157 47.5033 154.91 47.597C154.678 47.672 154.299 47.7282 153.771 47.747L154.447 43.8299C154.645 42.6678 154.876 42.218 155.025 42.0681C155.174 41.9182 155.553 41.712 156.444 41.6745C156.527 41.6745 156.593 41.5995 156.593 41.5246L156.659 41.1123C156.659 41.1123 156.659 40.9998 156.626 40.9623C156.593 40.9248 156.543 40.8873 156.494 40.8873H151.213C151.213 40.8873 151.064 40.9436 151.048 41.0373L150.982 41.4496C150.982 41.4496 150.982 41.5621 151.015 41.5995C151.048 41.637 151.097 41.6745 151.147 41.6745C152.054 41.712 152.318 41.9182 152.401 42.0306C152.483 42.1618 152.582 42.5367 152.368 43.7549L150.734 53.2196C150.536 54.4004 150.305 54.8315 150.14 54.9814C149.975 55.1313 149.612 55.3375 148.72 55.375C148.638 55.375 148.572 55.4499 148.555 55.5249L148.489 55.9372C148.489 55.9372 148.489 56.0497 148.522 56.0872C148.555 56.1247 148.605 56.1621 148.654 56.1621H153.936C153.936 56.1621 154.084 56.1059 154.101 56.0122L154.167 55.5999C154.167 55.5999 154.167 55.4874 154.134 55.4499C154.101 55.4125 154.051 55.375 154.002 55.375C153.078 55.3375 152.83 55.1313 152.747 55.0189C152.665 54.8877 152.582 54.5128 152.78 53.2946L153.523 49.0027C153.903 49.0214 154.167 49.1151 154.315 49.2651C154.414 49.3775 154.744 49.9023 155.751 52.2825C156.527 54.1193 157.039 55.375 157.27 56.0497C157.286 56.1247 157.352 56.1621 157.418 56.1621H160.587C160.587 56.1621 160.735 56.1059 160.752 56.0122L160.818 55.5999C160.818 55.5999 160.818 55.4874 160.785 55.4499C160.752 55.4125 160.702 55.375 160.653 55.375C159.96 55.3562 159.465 55.0751 159.118 54.5128C158.755 53.9131 158.194 52.7136 157.484 50.9144C156.923 49.49 156.395 48.6091 155.916 48.2342C156.807 47.6345 157.682 46.4725 158.507 44.767C158.969 43.7736 159.3 43.1551 159.465 42.9302C159.613 42.7241 159.762 42.6304 159.894 42.6304C159.943 42.6304 160.092 42.6678 160.488 42.9302C160.867 43.1926 161.165 43.3051 161.363 43.3051C161.627 43.3051 161.891 43.1926 162.155 42.949C162.402 42.7241 162.551 42.4429 162.617 42.1056C162.683 41.712 162.617 41.3746 162.452 41.1497C162.237 40.8499 161.841 40.6999 161.264 40.6999H161.313ZM175.655 41.6558C175.655 41.6558 175.787 41.5808 175.787 41.5058L175.853 41.0935C175.853 41.0935 175.853 40.9811 175.82 40.9436C175.787 40.9061 175.738 40.8686 175.688 40.8686H171.843C171.843 40.8686 171.694 40.9248 171.678 41.0185L171.612 41.4309C171.612 41.4309 171.612 41.5246 171.645 41.5808C171.678 41.6183 171.711 41.6558 171.76 41.6558C172.156 41.7307 172.404 41.8619 172.519 42.0494C172.585 42.1618 172.618 42.3117 172.585 42.4992C172.519 42.8928 172.173 43.6799 171.579 44.8607L168.822 50.2209L167.255 44.8982C166.759 43.2301 166.71 42.6116 166.743 42.3867C166.809 41.9556 167.255 41.712 168.047 41.6745C168.129 41.6745 168.179 41.5995 168.195 41.5246L168.261 41.1123C168.261 41.1123 168.261 40.9998 168.228 40.9623C168.195 40.9248 168.146 40.8873 168.096 40.8873H163.129C163.129 40.8873 162.98 40.9436 162.963 41.0373L162.897 41.4496C162.897 41.4496 162.897 41.5433 162.914 41.5995C162.93 41.637 162.98 41.6745 163.013 41.6745C163.426 41.7682 163.723 41.9369 163.937 42.1806C164.152 42.4429 164.35 42.8928 164.548 43.53L167.337 52.9385C166.413 54.3067 165.885 54.5878 165.604 54.5878C165.555 54.5878 165.439 54.5691 165.208 54.4004C164.515 53.8381 163.921 53.8944 163.508 54.3067C163.294 54.5128 163.162 54.7752 163.112 55.0938C163.029 55.5437 163.145 55.8998 163.459 56.1621C163.739 56.4058 164.102 56.5182 164.548 56.5182C165.059 56.5182 165.588 56.3308 166.116 55.9747C166.644 55.6186 167.172 55.0751 167.684 54.3254C168.195 53.5945 168.888 52.3762 169.813 50.5957L173.328 43.8299C174.005 42.5179 174.78 41.8057 175.655 41.6745V41.6558ZM184.056 49.34C183.709 48.6466 183.164 48.178 182.471 47.9344C181.778 47.6907 180.705 47.5783 179.17 47.5783H178.89L179.847 42.0494H181.778C182.768 42.0494 183.428 42.1806 183.742 42.4429C184.039 42.6866 184.204 43.3238 184.221 44.2984C184.221 44.4109 184.287 44.4858 184.386 44.4858H184.716C184.716 44.4858 184.864 44.4109 184.881 44.3359L185.31 41.0935C185.31 41.0935 185.31 40.9811 185.277 40.9436C185.244 40.9061 185.194 40.8873 185.145 40.8873H176.464C176.464 40.8873 176.315 40.9436 176.299 41.0373L176.233 41.4496C176.233 41.4496 176.233 41.5621 176.266 41.5995C176.299 41.637 176.332 41.6745 176.381 41.6745C177.008 41.712 177.272 41.8057 177.371 41.8807C177.504 41.9556 177.586 42.1056 177.619 42.3117C177.652 42.5554 177.619 43.0427 177.487 43.7736L175.853 53.2384C175.655 54.4004 175.424 54.8315 175.259 55.0001C175.028 55.225 174.549 55.3562 173.84 55.3937C173.757 55.3937 173.691 55.4687 173.675 55.5437L173.609 55.956C173.609 55.956 173.609 56.0684 173.642 56.1059C173.675 56.1434 173.724 56.1809 173.774 56.1809H178.956C180.639 56.1809 181.927 55.7498 182.768 54.8877C183.61 54.0255 184.138 53.0135 184.336 51.8702C184.501 50.9144 184.402 50.071 184.056 49.3963V49.34ZM181.976 51.7765C181.795 52.7886 181.382 53.5945 180.705 54.1567C180.029 54.7377 179.335 55.0189 178.642 55.0189C178.395 55.0189 178.048 54.9814 177.619 54.9064L178.659 48.834C178.89 48.7965 179.137 48.7778 179.352 48.7778C180.276 48.7778 180.986 49.0214 181.498 49.5275C181.976 50.0147 182.141 50.7644 181.96 51.7952L181.976 51.7765ZM197.061 55.3562C196.615 55.3188 196.285 55.1688 196.087 54.9252C195.873 54.6628 195.691 54.0256 195.526 53.0697L193.397 40.6812C193.397 40.6812 193.314 40.5312 193.232 40.5312H192.918C192.918 40.5312 192.803 40.5687 192.77 40.625L186.35 52.8823C185.805 53.9318 185.343 54.644 184.996 54.9814C184.881 55.0938 184.633 55.2438 184.006 55.375C183.94 55.375 183.891 55.4499 183.874 55.5249L183.808 55.9372C183.808 55.9372 183.808 56.0497 183.841 56.0872C183.874 56.1247 183.924 56.1621 183.973 56.1621H187.835C187.835 56.1621 187.984 56.1059 188 56.0122L188.066 55.5999C188.066 55.5999 188.066 55.4874 188.033 55.4499C188 55.4125 187.967 55.375 187.918 55.375C187.208 55.3188 186.993 55.1688 186.927 55.0938C186.812 54.9627 186.779 54.8315 186.812 54.6628C186.861 54.4004 187.026 53.9881 187.323 53.4258L188.512 51.158H193.034L193.38 53.1447C193.496 53.8194 193.529 54.3067 193.479 54.6066C193.446 54.794 193.347 54.9627 193.182 55.1126C193.067 55.2063 192.803 55.3375 192.225 55.375C192.143 55.375 192.093 55.4499 192.077 55.5249L192.011 55.9372C192.011 55.9372 192.011 56.0497 192.044 56.0872C192.077 56.1247 192.126 56.1621 192.176 56.1621H197.011C197.011 56.1621 197.16 56.1059 197.176 56.0122L197.242 55.5999C197.242 55.5999 197.242 55.4874 197.209 55.4499C197.176 55.4125 197.143 55.375 197.094 55.375L197.061 55.3562ZM189.122 49.9585L191.928 44.6358L192.852 49.9585H189.139H189.122ZM210.71 43.7361C210.858 42.8553 210.974 42.4804 211.056 42.3305C211.155 42.1243 211.287 41.9744 211.469 41.8807C211.733 41.7307 211.997 41.6558 212.261 41.6558H212.69C212.69 41.6558 212.839 41.5995 212.855 41.5058L212.921 41.0935C212.921 41.0935 212.921 40.9811 212.888 40.9436C212.855 40.9061 212.806 40.8686 212.756 40.8686H207.508C207.508 40.8686 207.359 40.9248 207.343 41.0185L207.277 41.4309C207.277 41.4309 207.277 41.5433 207.31 41.5808C207.343 41.6183 207.392 41.6558 207.442 41.6558H207.871C208.119 41.6558 208.35 41.7307 208.548 41.8807C208.68 41.9931 208.746 42.1056 208.779 42.2368C208.795 42.3867 208.779 42.7616 208.647 43.6799L207.937 47.7844H202.573L203.266 43.7549C203.382 43.0427 203.497 42.5741 203.613 42.3492C203.712 42.1431 203.844 41.9931 204.026 41.8994C204.29 41.7495 204.554 41.6745 204.818 41.6745H205.263C205.263 41.6745 205.412 41.6183 205.428 41.5246L205.494 41.1123C205.494 41.1123 205.494 40.9998 205.461 40.9623C205.428 40.9248 205.379 40.8873 205.329 40.8873H200.081C200.081 40.8873 199.933 40.9436 199.916 41.0373L199.85 41.4496C199.85 41.4496 199.85 41.5621 199.883 41.5995C199.916 41.637 199.966 41.6745 200.015 41.6745H200.444C200.708 41.6745 200.923 41.7495 201.137 41.8994C201.269 42.0119 201.335 42.1243 201.352 42.2555C201.368 42.4055 201.352 42.7803 201.22 43.6987L199.569 53.3134C199.388 54.3816 199.206 54.7752 199.107 54.9064C198.843 55.225 198.497 55.3937 198.035 55.3937H197.605C197.605 55.3937 197.457 55.4499 197.44 55.5437L197.374 55.956C197.374 55.956 197.374 56.0684 197.407 56.1059C197.44 56.1434 197.49 56.1809 197.539 56.1809H202.788C202.788 56.1809 202.936 56.1247 202.953 56.031L203.019 55.6186C203.019 55.6186 203.019 55.5062 202.986 55.4687C202.953 55.4312 202.903 55.3937 202.854 55.3937H202.408C202.144 55.3937 201.93 55.3188 201.731 55.1688C201.599 55.0564 201.517 54.9439 201.5 54.8127C201.484 54.6628 201.484 54.2879 201.632 53.3883L202.392 49.0027H207.755L207.013 53.3134C206.831 54.3816 206.65 54.7752 206.534 54.9064C206.27 55.225 205.923 55.375 205.478 55.375H205.049C205.049 55.375 204.9 55.4312 204.884 55.5249L204.818 55.9372C204.818 55.9372 204.818 56.0497 204.851 56.0872C204.884 56.1247 204.933 56.1621 204.983 56.1621H210.231C210.231 56.1621 210.38 56.1059 210.396 56.0122L210.462 55.5999C210.462 55.5999 210.462 55.4874 210.429 55.4499C210.396 55.4125 210.347 55.375 210.297 55.375H209.868C209.604 55.375 209.389 55.3 209.175 55.1501C209.043 55.0564 208.977 54.9252 208.96 54.794C208.944 54.644 208.96 54.2692 209.092 53.3696L210.743 43.7549L210.71 43.7361ZM226.273 40.9436C226.273 40.9436 226.19 40.8686 226.141 40.8686H220.843C220.843 40.8686 220.695 40.9248 220.678 41.0185L220.612 41.4309C220.612 41.4309 220.612 41.5433 220.645 41.5808C220.678 41.6183 220.728 41.6558 220.777 41.6558C221.619 41.6558 221.916 41.8245 222.031 41.9556C222.114 42.0681 222.229 42.3867 222.064 43.4363L215.281 51.739L216.651 43.8111C216.849 42.6491 217.08 42.218 217.245 42.0494C217.394 41.8994 217.773 41.6933 218.681 41.6558C218.764 41.6558 218.83 41.5808 218.83 41.5058L218.896 41.0935C218.896 41.0935 218.896 40.9811 218.863 40.9436C218.83 40.9061 218.78 40.8686 218.731 40.8686H213.449C213.449 40.8686 213.301 40.9248 213.284 41.0185L213.218 41.4309C213.218 41.4309 213.218 41.5433 213.251 41.5808C213.284 41.6183 213.334 41.6558 213.383 41.6558C214.291 41.6933 214.555 41.8994 214.638 42.0119C214.72 42.1431 214.819 42.5179 214.605 43.7361L212.971 53.2009C212.773 54.3629 212.542 54.794 212.377 54.9627C212.145 55.1876 211.667 55.3188 210.957 55.3562C210.875 55.3562 210.809 55.4312 210.792 55.5062L210.726 55.9185C210.726 55.9185 210.726 56.031 210.759 56.0684C210.792 56.1059 210.842 56.1434 210.891 56.1434H216.172C216.172 56.1434 216.321 56.0872 216.338 55.9935L216.404 55.5811C216.404 55.5811 216.404 55.4687 216.371 55.4312C216.338 55.3937 216.288 55.3562 216.239 55.3562C215.545 55.3562 215.248 55.2438 215.116 55.1688C214.902 55.0376 214.852 54.8877 214.852 54.794C214.836 54.6066 214.852 54.213 214.951 53.632L221.734 45.3105L220.381 53.2009C220.183 54.3629 219.952 54.794 219.787 54.9627C219.638 55.1313 219.259 55.3188 218.335 55.3562C218.252 55.3562 218.186 55.4312 218.169 55.5062L218.103 55.9185C218.103 55.9185 218.103 56.031 218.136 56.0684C218.169 56.1059 218.219 56.1434 218.268 56.1434H223.566C223.566 56.1434 223.715 56.0872 223.731 55.9935L223.797 55.5811C223.797 55.5811 223.797 55.4687 223.764 55.4312C223.731 55.3937 223.682 55.3562 223.632 55.3562C222.725 55.3188 222.461 55.1126 222.378 55.0001C222.295 54.8689 222.196 54.4941 222.411 53.2759L224.045 43.8111C224.243 42.6491 224.474 42.218 224.639 42.0494C224.788 41.8994 225.167 41.6933 226.058 41.6558C226.141 41.6558 226.207 41.5808 226.207 41.5058L226.273 41.0935C226.273 41.0935 226.273 40.9811 226.24 40.9436H226.273Z" fill="black"/>
</svg>
