<svg width="265" height="125" viewBox="0 0 265 125" fill="none" xmlns="http://www.w3.org/2000/svg">
<path d="M15.0139 95.2923V83.7775H11.0546C10.7665 85.9215 10.3688 87.9558 9.86164 89.8807C9.36602 91.8056 8.67445 93.6094 7.78693 95.2923H15.0139ZM23.1225 106.081H18.3853V99.1477H5.38373V106.081H0.646484V95.2923H2.27167C3.37818 93.5748 4.30604 91.4079 5.05523 88.7914C5.80444 86.1751 6.32887 83.184 6.62855 79.8184H20.287V95.2923H23.1225V106.081Z" fill="#F58220"/>
<path d="M39.7618 99.1469L38.7417 96.519H38.6034C37.7159 97.6371 36.7996 98.4151 35.8544 98.853C34.9208 99.2796 33.699 99.4928 32.1892 99.4928C30.3333 99.4928 28.8696 98.9626 27.7977 97.9021C26.7372 96.8417 26.207 95.3319 26.207 93.3724C26.207 91.3207 26.9216 89.8108 28.3509 88.8426C29.7916 87.8629 31.9586 87.3212 34.8516 87.2174L38.2058 87.1137V86.2665C38.2058 84.307 37.203 83.3273 35.1975 83.3273C33.6529 83.3273 31.8376 83.7942 29.7513 84.7277L28.0051 81.1662C30.2297 80.002 32.6963 79.4199 35.4049 79.4199C37.9983 79.4199 39.9865 79.9847 41.3697 81.1144C42.7529 82.2439 43.4443 83.9613 43.4443 86.2665V99.1469H39.7618ZM38.2058 90.1911L36.1656 90.2603C34.6326 90.3064 33.4915 90.583 32.7424 91.0901C31.9932 91.5974 31.6186 92.3695 31.6186 93.407C31.6186 94.8938 32.4714 95.6373 34.1774 95.6373C35.3992 95.6373 36.373 95.2857 37.0992 94.5826C37.8369 93.8795 38.2058 92.946 38.2058 91.7817V90.1911Z" fill="#F58220"/>
<path d="M47.1875 79.8184H52.9622L56.6102 90.6933C56.9213 91.6385 57.1346 92.7565 57.2498 94.0474H57.3536C57.4804 92.8602 57.7282 91.7421 58.0971 90.6933L61.6759 79.8184H67.3295L59.1516 101.62C58.4025 103.637 57.3305 105.147 55.9359 106.15C54.5528 107.153 52.9333 107.654 51.0776 107.654C50.1671 107.654 49.2738 107.556 48.3978 107.36V103.176C49.0317 103.326 49.7233 103.401 50.4725 103.401C51.4061 103.401 52.2187 103.113 52.9103 102.536C53.6134 101.972 54.1609 101.113 54.5528 99.9603L54.8639 99.0094L47.1875 79.8184Z" fill="#F58220"/>
<path d="M76.449 79.8184V87.2527H83.8141V79.8184H89.0874V99.1477H83.8141V91.1773H76.449V99.1477H71.1758V79.8184H76.449Z" fill="#F58220"/>
<path d="M103.533 99.4933C97.5162 99.4933 94.5078 96.191 94.5078 89.5866C94.5078 86.3017 95.3262 83.7947 96.9629 82.0658C98.5996 80.3253 100.945 79.4551 104 79.4551C106.236 79.4551 108.241 79.8931 110.016 80.7691L108.46 84.8493C107.63 84.515 106.858 84.2442 106.144 84.0368C105.429 83.8177 104.714 83.7083 104 83.7083C101.256 83.7083 99.8848 85.6562 99.8848 89.552C99.8848 93.3326 101.256 95.2229 104 95.2229C105.014 95.2229 105.953 95.0904 106.818 94.8252C107.682 94.5485 108.547 94.1221 109.411 93.5458V98.0583C108.558 98.6 107.694 98.9746 106.818 99.1821C105.953 99.3895 104.858 99.4933 103.533 99.4933Z" fill="#F58220"/>
<path d="M127.24 99.1469L126.22 96.519H126.082C125.195 97.6371 124.278 98.4151 123.333 98.853C122.399 99.2796 121.177 99.4928 119.668 99.4928C117.812 99.4928 116.348 98.9626 115.276 97.9021C114.216 96.8417 113.686 95.3319 113.686 93.3724C113.686 91.3207 114.4 89.8108 115.829 88.8426C117.27 87.8629 119.437 87.3212 122.33 87.2174L125.685 87.1137V86.2665C125.685 84.307 124.682 83.3273 122.676 83.3273C121.131 83.3273 119.316 83.7942 117.23 84.7277L115.484 81.1662C117.708 80.002 120.175 79.4199 122.883 79.4199C125.477 79.4199 127.465 79.9847 128.848 81.1144C130.231 82.2439 130.923 83.9613 130.923 86.2665V99.1469H127.24ZM125.685 90.1911L123.644 90.2603C122.111 90.3064 120.97 90.583 120.221 91.0901C119.472 91.5974 119.097 92.3695 119.097 93.407C119.097 94.8938 119.95 95.6373 121.656 95.6373C122.878 95.6373 123.852 95.2857 124.578 94.5826C125.315 93.8795 125.685 92.946 125.685 91.7817V90.1911Z" fill="#F58220"/>
<path d="M142.533 79.818V87.4599C142.533 88.2667 142.401 90.2377 142.136 93.3728L151.057 79.818H157.402V99.1473H152.302V91.4364C152.302 90.0647 152.417 88.1283 152.648 85.6272L143.761 99.1473H137.434V79.818H142.533ZM155.846 71.502C155.627 73.6573 154.814 75.2306 153.409 76.2218C152.002 77.2015 149.974 77.6914 147.322 77.6914C144.591 77.6914 142.568 77.2189 141.254 76.2738C139.952 75.3286 139.22 73.738 139.059 71.502H143.779C143.859 72.689 144.153 73.5248 144.661 74.0089C145.179 74.4814 146.101 74.7177 147.426 74.7177C148.59 74.7177 149.454 74.4583 150.02 73.9397C150.596 73.4095 150.947 72.5969 151.074 71.502H155.846Z" fill="#F58220"/>
<path d="M176.116 95.2923V83.7775H172.158C171.87 85.9215 171.471 87.9558 170.964 89.8807C170.47 91.8056 169.778 93.6094 168.889 95.2923H176.116ZM184.225 106.081H179.489V99.1477H166.486V106.081H161.75V95.2923H163.375C164.482 93.5748 165.41 91.4079 166.158 88.7914C166.907 86.1751 167.432 83.184 167.732 79.8184H181.39V95.2923H184.225V106.081Z" fill="#F58220"/>
<path d="M229.592 124.641C249.147 124.641 265 108.788 265 89.2326C265 69.6771 249.147 53.8242 229.592 53.8242C210.036 53.8242 194.184 69.6771 194.184 89.2326C194.184 108.788 210.036 124.641 229.592 124.641Z" fill="#F58220"/>
<path d="M201.266 75.0701C215.345 75.0701 226.76 63.656 226.76 49.5761C226.76 35.4961 215.345 24.082 201.266 24.082C187.186 24.082 175.771 35.4961 175.771 49.5761C175.771 63.656 187.186 75.0701 201.266 75.0701Z" fill="#253A7F"/>
<path d="M238.088 36.8287C248.257 36.8287 256.501 28.5852 256.501 18.4163C256.501 8.24741 248.257 0.00390625 238.088 0.00390625C227.919 0.00390625 219.676 8.24741 219.676 18.4163C219.676 28.5852 227.919 36.8287 238.088 36.8287Z" fill="#F58220"/>
<path d="M221.972 99.1469L220.952 96.519H220.815C219.927 97.637 219.01 98.415 218.066 98.853C217.131 99.2794 215.91 99.4927 214.4 99.4927C212.544 99.4927 211.08 98.9624 210.008 97.9021C208.948 96.8417 208.418 95.3317 208.418 93.3723C208.418 91.3206 209.132 89.8108 210.561 88.8425C212.003 87.8628 214.17 87.3211 217.063 87.2174L220.416 87.1136V86.2664C220.416 84.307 219.413 83.3273 217.409 83.3273C215.863 83.3273 214.049 83.794 211.961 84.7277L210.215 81.1661C212.44 80.002 214.907 79.4199 217.616 79.4199C220.209 79.4199 222.197 79.9847 223.58 81.1142C224.964 82.2437 225.655 83.9612 225.655 86.2664V99.1469H221.972ZM220.416 90.1911L218.377 90.2603C216.843 90.3064 215.702 90.5829 214.953 91.0901C214.203 91.5973 213.829 92.3695 213.829 93.4069C213.829 94.8937 214.682 95.6371 216.388 95.6371C217.61 95.6371 218.584 95.2857 219.31 94.5826C220.048 93.8795 220.416 92.9458 220.416 91.7817V90.1911Z" fill="#253A7F"/>
<path d="M249.73 79.8184V99.1478H244.44V83.7777H237.437V99.1478H232.164V79.8184H249.73Z" fill="#253A7F"/>
</svg>
