<svg width="331" height="93" viewBox="0 0 331 93" fill="none" xmlns="http://www.w3.org/2000/svg">
<path fill-rule="evenodd" clip-rule="evenodd" d="M124.928 0.652344H330.978V60.132H124.928V0.652344Z" fill="#0C96D1"/>
<path fill-rule="evenodd" clip-rule="evenodd" d="M35.8455 60.3228H51.5429L26.1574 28.7306L49.9273 0.800674H34.2299L13.0598 27.3942V0.798828H0.326172V60.3228H13.0635V42.0283L17.7284 36.4944L35.8474 60.3246L35.8455 60.3228ZM49.3349 0.800674V60.3246H61.6229L90.1468 18.2017V60.3246H102.886V0.800674H89.7884L62.0723 41.493V0.798828H49.3349V0.800674Z" fill="black"/>
<path fill-rule="evenodd" clip-rule="evenodd" d="M191.333 52.4368H196.477V9.75465H191.14V43.4769L166.442 9.75281H160.973V52.435H166.312V18.0094L191.333 52.4368V52.4368ZM202.364 52.4368H230.472V47.704H207.703V32.985H230.023V28.2485H207.701V14.4893H230.472V9.75281H202.364V52.435V52.4368ZM267.618 52.4368H273.406L285.626 9.75465H279.709L270.255 45.3339L260.413 9.75465H255.974L246.132 45.3339L236.615 9.75465H230.697L242.918 52.4368H248.706L258.162 18.0094L267.618 52.4368ZM284.888 46.423C288.424 50.3916 293.893 53.2066 301.353 53.2066C312.931 53.2066 317.175 46.8697 317.175 40.662C317.175 31.704 309.201 29.5277 302.188 27.6726C296.721 26.1996 291.77 24.9204 291.77 20.6324C291.77 16.601 295.436 13.8488 300.582 13.8488C305.277 13.8488 309.78 15.4492 312.996 18.9693L316.211 15.0652C312.608 11.2904 307.527 9.11413 300.966 9.11413C292.541 9.11413 286.238 13.9134 286.238 20.9536C286.238 29.3357 293.893 31.2554 300.775 33.0478C306.435 34.5835 311.644 35.9901 311.644 41.1105C311.644 44.374 309.201 48.47 301.546 48.47C295.499 48.47 290.868 45.5259 288.04 42.3897L284.888 46.423ZM124.928 52.1267C136.993 52.1267 146.776 42.399 146.776 30.3952C146.776 18.3915 136.993 8.6582 124.928 8.6582C112.863 8.6582 103.078 18.3915 103.078 30.3952C103.078 42.399 112.865 52.1267 124.928 52.1267Z" fill="#FEFEFE"/>
<path fill-rule="evenodd" clip-rule="evenodd" d="M124.929 45.6893C133.419 45.6893 140.305 38.8411 140.305 30.3944C140.305 21.9477 133.419 15.0977 124.929 15.0977C116.439 15.0977 109.553 21.9477 109.553 30.3944C109.553 38.843 116.439 45.6893 124.929 45.6893" fill="#0C96D1"/>
<path fill-rule="evenodd" clip-rule="evenodd" d="M9.6881 89.1681H13.9704L7.04556 80.5516L13.5284 72.9337H9.24799L3.4745 80.188V72.9337H0V89.1681H3.4745V84.1787L4.74656 82.6688L9.6881 89.1681V89.1681ZM14.9323 89.1681H18.4068V83.3518H22.5666C26.0894 83.3518 28.0448 80.9891 28.0448 78.1667C28.0448 75.3185 26.1135 72.9337 22.5666 72.9337H14.9342V89.1681H14.9323ZM24.4997 78.1427C24.4997 79.505 23.4709 80.3818 22.1023 80.3818H18.4068V75.9037H22.1023C23.4709 75.9037 24.4979 76.8045 24.4979 78.1427H24.4997ZM39.1888 89.1681H42.9809L36.693 72.9337H32.3382L26.0262 89.1681H29.8424L30.8693 86.3698H38.16L39.1888 89.1681V89.1681ZM34.5147 75.9277L37.2074 83.3758H31.7997L34.5147 75.9277ZM50.8194 89.4616C54.5371 89.4616 56.5929 87.4902 57.7665 85.469L54.7823 84.0329C54.405 84.7516 53.8352 85.3526 53.1359 85.7696C52.4365 86.1865 51.6348 86.4032 50.8194 86.3956C47.98 86.3956 45.8277 84.1307 45.8277 81.0629C45.8277 77.9969 47.9818 75.7339 50.8194 75.7339C52.6281 75.7339 54.097 76.7786 54.7823 78.0947L57.7665 76.6328C56.617 74.6134 54.5371 72.666 50.8194 72.666C46.0468 72.666 42.2566 76.0735 42.2566 81.0647C42.2566 86.0542 46.0487 89.4616 50.8175 89.4616H50.8194ZM70.3998 89.1681H73.8985V72.9337H70.3998V79.3112H62.6932V72.9337H59.2205V89.1681H62.6932V82.3532H70.3998V89.1681ZM75.6942 81.0647C75.6942 85.9563 79.2913 89.4616 84.2087 89.4616C89.1502 89.4616 92.7473 85.9545 92.7473 81.0629C92.7473 76.1713 89.1502 72.666 84.2087 72.666C79.2913 72.666 75.6942 76.1713 75.6942 81.0647ZM89.1762 81.0647C89.1762 84.0809 87.2171 86.3938 84.2087 86.3938C81.2003 86.3938 79.2671 84.0809 79.2671 81.0629C79.2671 78.0209 81.1985 75.7339 84.2068 75.7339C87.2171 75.7339 89.1744 78.0227 89.1744 81.0629L89.1762 81.0647ZM92.634 86.1261V92.1622H95.6684V89.1681H106.703V92.1622H109.76V86.1261H107.778V72.9337H96.6378L96.2719 77.2659C95.7872 82.8885 94.738 85.2752 93.9061 86.1261H92.634V86.1261ZM99.3082 77.8991L99.4567 75.9757H104.304V86.128H97.3954C98.1587 85.1774 98.9423 82.8165 99.3082 77.8991ZM122.59 89.1681H126.382L120.094 72.9337H115.739L109.427 89.1681H113.243L114.272 86.3698H121.561L122.59 89.1681V89.1681ZM117.917 75.9277L120.608 83.3758H115.201L117.917 75.9277V75.9277ZM127.271 89.1681H130.746V83.3518H134.905C138.428 83.3518 140.384 80.9891 140.384 78.1667C140.384 75.3185 138.452 72.9337 134.905 72.9337H127.273V89.1681H127.271ZM136.839 78.1427C136.839 79.505 135.81 80.3818 134.439 80.3818H130.746V75.9037H134.441C135.81 75.9037 136.837 76.8045 136.837 78.1427H136.839ZM149.691 89.4616C153.411 89.4616 155.466 87.4902 156.64 85.469L153.654 84.0329C153.277 84.7516 152.707 85.3526 152.008 85.7696C151.308 86.1865 150.507 86.4032 149.691 86.3956C146.854 86.3956 144.701 84.1307 144.701 81.0629C144.701 77.9969 146.854 75.7339 149.691 75.7339C151.502 75.7339 152.971 76.7786 153.654 78.0947L156.64 76.6328C155.489 74.6134 153.409 72.666 149.691 72.666C144.92 72.666 141.13 76.0735 141.13 81.0647C141.13 86.0542 144.92 89.4616 149.691 89.4616ZM167.78 89.1681H172.063L165.14 80.5516L171.621 72.9337H167.34L161.567 80.188V72.9337H158.094V89.1681H161.567V84.1787L162.839 82.6688L167.78 89.1681ZM173.027 72.9337V89.1681H176.378L184.159 77.6794V89.1681H187.632V72.9337H184.059L176.501 84.0329V72.9337H173.027V72.9337ZM190.236 89.1681H201.783V86.1741H193.71V82.4012H201.612V79.4348H193.71V75.9055H201.783V72.9355H190.236V89.17V89.1681ZM210.761 72.9337V89.1681H214.113L221.894 77.6794V89.1681H225.367V72.9337H221.794L214.236 84.0329V72.9337H210.761V72.9337ZM226.843 86.8571C228.043 88.3153 230.563 89.4598 233.571 89.4598C237.462 89.4598 240.275 87.4902 240.275 84.6901C240.275 82.2553 238.121 80.9651 236.483 80.7953C238.269 80.4796 240.03 79.1413 240.03 77.0961C240.03 74.3938 237.389 72.69 233.571 72.69C230.711 72.69 228.386 73.7846 227.064 75.2705L228.802 77.4118C229.952 76.3172 231.64 75.708 233.229 75.708C235.088 75.708 236.557 76.3651 236.557 77.6554C236.557 78.8479 235.309 79.457 233.229 79.457H230.342V82.4252H233.229C235.677 82.4252 236.826 83.0343 236.826 84.3486C236.826 85.589 235.579 86.4399 233.424 86.4399C231.835 86.4399 229.781 85.7847 228.656 84.5904L226.845 86.8553L226.843 86.8571ZM242.266 89.1681H251.124C254.231 89.1681 255.868 87.2207 255.868 84.7879C255.868 82.7427 254.476 81.0629 252.738 80.7953C254.279 80.4796 255.551 79.1155 255.551 77.0721C255.551 74.9051 253.961 72.9337 250.853 72.9337H242.266V89.1681V89.1681ZM245.74 79.457V75.8797H250.095C251.27 75.8797 252.004 76.6586 252.004 77.6554C252.004 78.702 251.27 79.457 250.095 79.457H245.74ZM245.74 86.224V82.403H250.218C251.588 82.403 252.322 83.278 252.322 84.3006C252.322 85.469 251.54 86.224 250.218 86.224H245.742H245.74ZM257.861 89.1681H269.408V86.1741H261.336V82.4012H269.237V79.4348H261.336V75.9055H269.408V72.9355H257.861V89.17V89.1681ZM279.278 89.4616C282.996 89.4616 285.052 87.4902 286.225 85.469L283.241 84.0329C282.864 84.7516 282.294 85.3526 281.595 85.7696C280.895 86.1865 280.094 86.4032 279.278 86.3956C276.439 86.3956 274.286 84.1307 274.286 81.0629C274.286 77.9969 276.441 75.7339 279.278 75.7339C281.087 75.7339 282.556 76.7786 283.241 78.0947L286.225 76.6328C285.076 74.6134 282.996 72.666 279.278 72.666C274.506 72.666 270.715 76.0735 270.715 81.0647C270.715 86.0542 274.507 89.4616 279.276 89.4616H279.278ZM291.447 89.1681H294.944V75.9757H299.691V72.9337H286.675V75.9757H291.447V89.1681ZM301.289 72.9337V89.1681H304.643L312.424 77.6794V89.1681H315.897V72.9337H312.324L304.766 84.0329V72.9337H301.291H301.289ZM317.791 89.1681H321.778L325.007 83.3998H327.527V89.1681H331V72.9337H323.368C319.969 72.9337 317.889 75.1487 317.889 78.1667C317.889 81.0389 319.698 82.5728 321.46 82.9863L317.791 89.17V89.1681ZM327.527 80.3578H323.882C322.489 80.3578 321.436 79.529 321.436 78.1667C321.436 76.8045 322.487 75.9757 323.882 75.9757H327.527V80.3578V80.3578Z" fill="#818181"/>
</svg>
