<svg width="357" height="72" viewBox="0 0 357 72" fill="none" xmlns="http://www.w3.org/2000/svg">
<path fill-rule="evenodd" clip-rule="evenodd" d="M271.465 0.429688H278.313V71.479H271.465V0.429688Z" fill="#FFBE00"/>
<path d="M271.466 0.429688H0V71.3356H271.466V0.429688Z" fill="#E3E6F3"/>
<path d="M36.5757 39.4716H30.7473V53.8249H22.4414V18.372H30.7473V32.7254H36.7214L46.1929 18.372H54.9359L43.133 35.4526L55.2273 53.8249H45.7558L36.5757 39.4716ZM93.6959 18.2285L78.396 46.3612C76.9387 49.0883 75.1901 51.0979 73.0044 52.5331C70.9643 53.9685 68.6329 54.5427 66.3017 54.5427C64.4073 54.5427 62.513 54.112 60.473 53.3944L62.513 47.2224C63.9702 47.6529 65.1358 47.94 66.1557 47.94C67.1759 47.94 68.0501 47.6529 68.9245 47.2224C69.7987 46.7919 70.5272 45.9306 71.2559 44.926L71.5473 44.4952L57.2673 18.2285H66.1557L75.7729 37.3186L85.6817 18.2285H93.6959ZM96.3188 18.2285H125.316V24.831H104.625V32.1513H114.533C118.905 32.1513 122.256 33.0125 124.442 34.8785C126.773 36.601 127.793 39.1845 127.793 42.6293C127.793 46.2177 126.482 48.9449 124.005 50.9543C121.528 52.9639 117.885 53.8249 113.222 53.8249H96.3188V18.2285ZM113.076 47.6529C115.262 47.6529 116.865 47.2224 118.03 46.3612C119.196 45.4999 119.779 44.3518 119.779 42.7729C119.779 39.615 117.593 38.1798 113.222 38.1798H104.916V47.6529H113.076ZM158.393 46.0741H141.782L138.576 53.6815H129.979L146.008 18.2285H154.167L170.196 53.6815H161.453L158.393 46.0741ZM155.77 39.9021L150.088 26.2664L144.405 39.9021H155.77ZM208.228 18.2285V53.6815H199.922V39.1845H183.602V53.6815H175.296V18.2285H183.602V32.1513H199.922V18.2285H208.228ZM234.601 29.8548C238.972 29.8548 242.326 30.8595 244.655 32.7254C246.987 34.5914 248.154 37.462 248.154 41.3375C248.154 45.3565 246.842 48.3707 244.218 50.5238C241.596 52.6768 237.953 53.6815 233.292 53.6815H216.97V18.2285H225.277V29.8548H234.601ZM232.999 47.6529C235.186 47.6529 236.788 47.0788 238.1 46.0741C239.265 45.0694 239.994 43.4905 239.994 41.481C239.994 37.7491 237.663 36.0268 233.144 36.0268H225.567V47.6529H232.999Z" fill="#224B83"/>
<path fill-rule="evenodd" clip-rule="evenodd" d="M357 0.574219H285.018V71.3366H357V0.574219Z" fill="#224B83"/>
<path d="M343.157 45.7868V18.8025H335.144L316.638 45.7868H309.351L314.159 40.9066C317.948 37.0314 320.572 33.5866 322.029 30.7157C323.486 27.8451 324.216 25.1179 324.216 22.6778C324.216 20.5249 323.631 18.5154 322.466 16.5059C321.299 14.4965 319.697 12.9176 317.803 11.9128C315.764 10.7646 313.577 10.334 310.955 10.334C306.729 10.334 303.378 11.6258 300.754 14.2094C298.132 16.793 296.675 20.3813 296.383 24.8308H304.253C304.398 22.6778 304.98 20.9555 306.147 19.6637C307.312 18.3719 308.769 17.7977 310.518 17.7977C312.265 17.7977 313.577 18.3719 314.744 19.3766C315.764 20.3813 316.346 21.8167 316.346 23.3956C316.346 24.9745 315.764 26.6968 314.744 28.5627C313.724 30.4286 311.538 33.0124 308.479 36.1701L295.363 49.3753V53.1071H324.798H335.434V61.7192H343.304V53.1071H347.093V45.7868H343.157ZM335.144 45.7868H325.38L335.144 31.7206V45.7868Z" fill="white"/>
</svg>
