<svg width="392" height="59" viewBox="0 0 392 59" fill="none" xmlns="http://www.w3.org/2000/svg">
<path d="M392 0H0V59H392V0Z" fill="#A09F9F"/>
<path d="M216.947 0H0V59H216.947V0Z" fill="#771213"/>
<path d="M27.6625 28.8814C28.237 29.023 28.7757 29.2354 29.2784 29.5186C29.7093 29.7782 30.1282 30.1381 30.5352 30.5983C30.9406 31.0585 31.2414 31.6663 31.4329 32.4229L32.6897 38.0869C32.9291 39.1489 33.4078 39.6799 34.126 39.6799C34.2696 39.6799 34.4372 39.6563 34.6287 39.6076C34.723 39.584 34.7963 39.5501 34.8442 39.5015H35.0237L35.3828 41.8039C35.2392 41.8747 35.0596 41.9337 34.8442 41.9809C34.4372 42.0989 33.8986 42.1579 33.2283 42.1579C32.0553 42.1579 31.1336 41.8319 30.4634 41.1844C29.7931 40.5369 29.3382 39.6799 29.0988 38.6179L27.842 32.9539C27.6505 32.1515 27.2914 31.5084 26.7648 31.0231C26.2366 30.5408 25.5185 30.2989 24.6103 30.2989H22.0967V41.8039H18.5059V17.0239H22.0967V27.8209H24.2512C25.2566 27.8209 26.0406 27.579 26.6032 27.0952C27.1658 26.6114 27.5189 25.9683 27.6625 25.1659L28.5602 20.2099C28.7517 19.1479 29.1946 18.2924 29.8888 17.6434C30.583 16.9944 31.5167 16.6699 32.6897 16.6699C33.0488 16.6699 33.36 16.6876 33.6233 16.723C33.8866 16.7584 34.114 16.7997 34.3056 16.8469C34.521 16.9177 34.7005 16.9767 34.8442 17.0239L34.4851 19.3249H34.3056C34.2577 19.3013 34.1844 19.2777 34.0901 19.2541C34.0183 19.2305 33.9405 19.2069 33.8567 19.1833C33.7729 19.1597 33.6831 19.1479 33.5874 19.1479C33.2283 19.1479 32.9231 19.2777 32.6717 19.5373C32.4204 19.7969 32.2468 20.1981 32.151 20.7409L31.2533 25.6969C31.1321 26.4049 30.8763 26.9713 30.4813 27.3961C30.0863 27.8209 29.6853 28.1395 29.2784 28.3519C28.7996 28.61 28.261 28.787 27.6625 28.8814Z" fill="white"/>
<path d="M45.6517 29.9425C45.7459 30.1785 45.8432 30.444 45.9389 30.739C46.0332 31.034 46.1185 31.3231 46.1903 31.6063L46.4417 32.5975H46.5853C46.6332 32.2671 46.705 31.9382 46.8007 31.6063C46.8726 31.3467 46.9504 31.065 47.0342 30.7567C47.1179 30.4499 47.1957 30.1785 47.2676 29.9425L51.5766 17.0215H55.1674L48.5243 37.3765C48.3089 38.0373 48.0037 38.6686 47.6087 39.2704C47.2137 39.8707 46.7469 40.3988 46.2083 40.8442C45.6696 41.2941 45.0637 41.654 44.3949 41.9239C43.7261 42.1938 43.0064 42.331 42.2404 42.331C41.6419 42.331 41.1153 42.2779 40.6604 42.1717C40.2056 42.0655 39.8106 41.9416 39.4754 41.8C39.0924 41.6584 38.7573 41.4814 38.47 41.2705L39.3677 38.968H39.7268C39.8929 39.1568 40.0978 39.3102 40.3372 39.4297C40.5287 39.5477 40.7502 39.6465 41.0015 39.7291C41.2529 39.8132 41.5462 39.853 41.8813 39.853C42.5995 39.853 43.2279 39.617 43.7665 39.1465C44.3051 38.6745 44.6941 38.0845 44.9335 37.3765L45.6517 35.254H44.0358L36.6387 17.023H40.4091L45.6517 29.9425Z" fill="white"/>
<path d="M65.5824 26.9335C68.5493 26.9335 70.7577 27.6002 72.2075 28.9336C73.6558 30.267 74.3799 32.0783 74.3799 34.3675C74.3799 36.6803 73.6558 38.4975 72.2075 39.8191C70.7592 41.1407 68.5508 41.8015 65.5824 41.8015H58.7598V17.0215H72.764V19.4995H62.3506V26.9335H65.5824V26.9335ZM62.3506 29.4115V39.3235H65.5824C67.306 39.3235 68.6047 38.8987 69.4784 38.0491C70.3507 37.1995 70.7891 35.9738 70.7891 34.3675C70.7891 32.7627 70.3522 31.5355 69.4784 30.6859C68.6047 29.8363 67.306 29.4115 65.5824 29.4115H62.3506Z" fill="white"/>
<path d="M92.3329 41.8015L90.3579 35.4295H82.099L80.124 41.8015H76.5332L83.8944 17.0215H88.5625L95.9237 41.8015H92.3329ZM82.8187 32.9515H89.6413L86.7686 23.2165C86.6728 22.9569 86.601 22.6796 86.5531 22.3846C86.5053 22.0896 86.4574 21.8123 86.4095 21.5527C86.3616 21.2695 86.3257 20.9996 86.3018 20.7385H86.1581C86.1342 21.0217 86.0983 21.3049 86.0504 21.5881C86.0025 21.8477 85.9487 22.1191 85.8888 22.4023C85.829 22.6855 85.7632 22.9569 85.6913 23.2165L82.8187 32.9515Z" fill="white"/>
<path d="M115.853 17.0215V41.8015H112.263V30.4735H103.286V41.8015H99.6953V17.0215H103.286V27.9955H112.263V17.0215H115.853Z" fill="white"/>
<path d="M121.059 29.412C121.059 27.1228 121.274 25.1699 121.705 23.5533C122.136 21.9367 122.746 20.6151 123.538 19.5885C124.326 18.5619 125.272 17.8185 126.375 17.3583C127.474 16.8981 128.697 16.668 130.037 16.668C131.043 16.668 131.928 16.7683 132.693 16.9689C133.459 17.1695 134.117 17.3996 134.668 17.6592C135.29 17.9424 135.839 18.261 136.32 18.615L135.063 20.739H134.704C134.321 20.4558 133.915 20.1962 133.484 19.9602C133.1 19.7714 132.647 19.5885 132.12 19.4115C131.592 19.2345 131.02 19.146 130.398 19.146C129.582 19.146 128.828 19.3171 128.134 19.6593C127.44 20.0015 126.835 20.5679 126.321 21.3585C125.806 22.1491 125.399 23.2052 125.1 24.5268C124.802 25.8484 124.652 27.4768 124.652 29.412C124.652 31.3708 124.802 33.0051 125.1 34.3149C125.399 35.6261 125.818 36.6749 126.357 37.4669C126.897 38.2561 127.537 38.8239 128.279 39.1647C129.02 39.5069 129.846 39.6794 130.755 39.6794C131.378 39.6794 131.952 39.5954 132.479 39.4316C133.006 39.2664 133.459 39.0894 133.842 38.9006C134.274 38.6646 134.681 38.3918 135.063 38.0864H135.422L136.679 40.209C136.2 40.5866 135.649 40.917 135.027 41.2002C134.475 41.4598 133.817 41.684 133.052 41.8728C132.287 42.0616 131.4 42.156 130.396 42.156C128.958 42.156 127.667 41.9259 126.517 41.4642C125.368 41.004 124.386 40.2621 123.572 39.234C122.758 38.2089 122.136 36.8917 121.705 35.2869C121.274 33.6821 121.059 31.7248 121.059 29.412Z" fill="white"/>
<path d="M149.966 28.8814C150.54 29.023 151.079 29.2354 151.582 29.5186C152.011 29.7782 152.43 30.1381 152.838 30.5983C153.244 31.0585 153.545 31.6662 153.736 32.4229L154.993 38.0869C155.232 39.1489 155.711 39.6799 156.431 39.6799C156.574 39.6799 156.74 39.6563 156.933 39.6076C157.028 39.584 157.099 39.5501 157.149 39.5014H157.328L157.688 41.8039C157.544 41.8747 157.363 41.9337 157.149 41.9809C156.742 42.0989 156.203 42.1579 155.533 42.1579C154.36 42.1579 153.438 41.8319 152.767 41.1844C152.098 40.5369 151.641 39.6799 151.404 38.6179L150.145 32.9539C149.955 32.1515 149.596 31.5084 149.069 31.0231C148.54 30.5408 147.823 30.2989 146.915 30.2989H144.4V41.8039H140.811V17.0239H144.4V27.8209H146.554C147.56 27.8209 148.344 27.579 148.905 27.0952C149.469 26.6114 149.822 25.9683 149.966 25.1659L150.863 20.2099C151.055 19.1479 151.498 18.2924 152.194 17.6434C152.886 16.9944 153.821 16.6699 154.993 16.6699C155.352 16.6699 155.663 16.6876 155.928 16.723C156.191 16.7584 156.417 16.7997 156.609 16.8469C156.826 16.9177 157.004 16.9767 157.147 17.0239L156.788 19.3249H156.609C156.562 19.3013 156.489 19.2777 156.393 19.2541C156.321 19.2305 156.242 19.2069 156.16 19.1833C156.076 19.1597 155.986 19.1479 155.891 19.1479C155.532 19.1479 155.226 19.2777 154.975 19.5373C154.724 19.7969 154.55 20.1981 154.454 20.7409L153.557 25.6969C153.435 26.4049 153.179 26.9713 152.783 27.3961C152.387 27.8209 151.987 28.1395 151.58 28.3519C151.103 28.61 150.564 28.787 149.966 28.8814Z" fill="white"/>
<path d="M165.406 41.8015H161.816V17.0215H165.406V32.7745C165.406 33.0356 165.398 33.3409 165.386 33.6949C165.374 34.0489 165.356 34.3808 165.334 34.6861C165.31 35.0637 165.286 35.4295 165.261 35.7835H165.406C165.5 35.4295 165.609 35.0637 165.729 34.6861C165.849 34.3808 165.968 34.0489 166.088 33.6949C166.208 33.3409 166.339 33.0356 166.483 32.7745L174.383 17.0215H177.972V41.8015H174.383V26.0485C174.383 25.7889 174.389 25.488 174.401 25.1458C174.414 24.8036 174.432 24.4673 174.455 24.1369C174.479 23.7829 174.501 23.4171 174.526 23.0395H174.383C174.289 23.4171 174.179 23.7829 174.06 24.1369C173.94 24.4673 173.814 24.8036 173.683 25.1458C173.551 25.488 173.425 25.7889 173.306 26.0485L165.406 41.8015Z" fill="white"/>
<path d="M184.436 41.8015V17.0215H198.438V19.4995H188.026V27.6415H196.285V30.1195H188.026V39.3235H198.438V41.8015H184.436V41.8015Z" fill="white"/>
<path d="M251.956 17.1094V41.8894H248.365V30.5614H239.388V41.8894H235.799V17.1094H239.388V28.0834H248.365V17.1094H251.956Z" fill="white"/>
<path d="M274.759 29.4999C274.759 31.8127 274.542 33.7715 274.113 35.3763C273.682 36.9811 273.083 38.2953 272.317 39.3234C271.55 40.3485 270.622 41.0919 269.534 41.5536C268.444 42.0152 267.256 42.2453 265.962 42.2453C264.667 42.2453 263.478 42.0152 262.387 41.5536C261.298 41.0919 260.37 40.35 259.606 39.3234C258.838 38.2968 258.241 36.9811 257.81 35.3763C257.38 33.7715 257.164 31.8127 257.164 29.4999C257.164 27.2107 257.38 25.2578 257.81 23.6412C258.241 22.0246 258.84 20.703 259.606 19.6764C260.372 18.6498 261.3 17.9064 262.387 17.4462C263.478 16.986 264.667 16.7559 265.962 16.7559C267.256 16.7559 268.444 16.986 269.534 17.4462C270.624 17.9064 271.551 18.6498 272.317 19.6764C273.083 20.703 273.682 22.0246 274.113 23.6412C274.542 25.2578 274.759 27.2107 274.759 29.4999ZM260.753 29.4999C260.753 31.4587 260.899 33.093 261.184 34.4028C261.472 35.7126 261.861 36.7628 262.351 37.5534C262.842 38.344 263.397 38.9118 264.021 39.2511C264.643 39.5933 265.29 39.7659 265.96 39.7659C266.629 39.7659 267.277 39.5948 267.899 39.2511C268.522 38.9118 269.078 38.344 269.569 37.5534C270.058 36.7628 270.449 35.7126 270.734 34.4028C271.022 33.0915 271.165 31.4587 271.165 29.4999C271.165 27.5647 271.022 25.9363 270.734 24.6147C270.449 23.2931 270.058 22.237 269.569 21.4464C269.078 20.6558 268.522 20.0894 267.899 19.7472C267.277 19.4064 266.629 19.2339 265.96 19.2339C265.29 19.2339 264.643 19.405 264.021 19.7472C263.397 20.0894 262.842 20.6558 262.351 21.4464C261.861 22.237 261.472 23.2931 261.184 24.6147C260.899 25.9363 260.753 27.5647 260.753 29.4999Z" fill="white"/>
<path d="M290.558 28.7914C291.491 29.0038 292.329 29.3814 293.071 29.9242C293.383 30.1602 293.688 30.4375 293.987 30.7561C294.285 31.0747 294.556 31.4464 294.795 31.8697C295.033 32.296 295.226 32.7798 295.37 33.3211C295.513 33.8639 295.585 34.4775 295.585 35.1619C295.585 36.1767 295.411 37.0986 295.064 37.9231C294.717 38.7491 294.185 39.4571 293.466 40.0471C292.75 40.6371 291.839 41.0899 290.739 41.41C289.638 41.7286 288.321 41.8879 286.787 41.8879H279.965V17.1094H286.787C288.08 17.1094 289.223 17.2687 290.217 17.5873C291.21 17.9059 292.036 18.3366 292.694 18.8794C293.351 19.4222 293.848 20.0785 294.185 20.8441C294.52 21.6111 294.687 22.4312 294.687 23.3044C294.687 24.4608 294.472 25.393 294.041 26.101C293.61 26.809 293.131 27.3636 292.605 27.7648C291.981 28.2368 291.298 28.579 290.558 28.7914ZM283.556 27.7294H286.787C288.152 27.7294 289.211 27.3636 289.965 26.632C290.719 25.9004 291.096 24.9107 291.096 23.6584C291.096 22.4061 290.719 21.4164 289.965 20.6848C289.211 19.9532 288.152 19.5874 286.787 19.5874H283.556V27.7294ZM283.556 30.2074V39.4114H286.787C288.583 39.4114 289.9 39.022 290.739 38.2432C291.577 37.4659 291.996 36.3198 291.996 34.8094C291.996 33.3005 291.577 32.1544 290.739 31.3756C289.9 30.5982 288.584 30.2074 286.787 30.2074H283.556V30.2074Z" fill="white"/>
<path d="M316.951 29.4999C316.951 31.8127 316.734 33.7715 316.304 35.3763C315.873 36.9811 315.275 38.2953 314.509 39.3234C313.741 40.3485 312.814 41.0919 311.726 41.5536C310.635 42.0152 309.447 42.2453 308.153 42.2453C306.859 42.2453 305.669 42.0152 304.579 41.5536C303.489 41.0919 302.562 40.35 301.797 39.3234C301.03 38.2968 300.433 36.9811 300.002 35.3763C299.571 33.7715 299.355 31.8127 299.355 29.4999C299.355 27.2107 299.571 25.2578 300.002 23.6412C300.433 22.0246 301.031 20.703 301.797 19.6764C302.563 18.6498 303.491 17.9064 304.579 17.4462C305.669 16.986 306.859 16.7559 308.153 16.7559C309.447 16.7559 310.635 16.986 311.726 17.4462C312.815 17.9064 313.743 18.6498 314.509 19.6764C315.275 20.703 315.873 22.0246 316.304 23.6412C316.734 25.2578 316.951 27.2107 316.951 29.4999ZM302.946 29.4999C302.946 31.4587 303.091 33.093 303.377 34.4028C303.664 35.7126 304.053 36.7628 304.544 37.5534C305.035 38.344 305.59 38.9118 306.214 39.2511C306.836 39.5933 307.483 39.7659 308.153 39.7659C308.822 39.7659 309.47 39.5948 310.092 39.2511C310.715 38.9118 311.271 38.344 311.762 37.5534C312.251 36.7628 312.642 35.7126 312.927 34.4028C313.215 33.0915 313.358 31.4587 313.358 29.4999C313.358 27.5647 313.215 25.9363 312.927 24.6147C312.642 23.2931 312.251 22.237 311.762 21.4464C311.271 20.6558 310.715 20.0894 310.092 19.7472C309.47 19.4064 308.822 19.2339 308.153 19.2339C307.483 19.2339 306.836 19.405 306.214 19.7472C305.59 20.0894 305.035 20.6558 304.544 21.4464C304.053 22.237 303.664 23.2931 303.377 24.6147C303.09 25.9363 302.946 27.5647 302.946 29.4999Z" fill="white"/>
<path d="M320.9 29.4999C320.9 27.2107 321.116 25.2578 321.547 23.6412C321.978 22.0246 322.588 20.703 323.378 19.6764C324.168 18.6498 325.114 17.9064 326.215 17.4462C327.315 16.986 328.537 16.7559 329.877 16.7559C330.883 16.7559 331.769 16.8562 332.533 17.0568C333.299 17.2574 333.958 17.4875 334.508 17.7471C335.131 18.0303 335.681 18.3489 336.16 18.7029L334.903 20.8269H334.546C334.161 20.5437 333.756 20.2841 333.325 20.0481C332.942 19.8593 332.485 19.6764 331.96 19.4994C331.434 19.3224 330.859 19.2339 330.237 19.2339C329.423 19.2339 328.669 19.405 327.974 19.7472C327.28 20.0894 326.676 20.6558 326.161 21.4464C325.646 22.237 325.239 23.2931 324.94 24.6147C324.641 25.9363 324.491 27.5647 324.491 29.4999C324.491 31.4587 324.641 33.093 324.94 34.4028C325.239 35.7126 325.658 36.7628 326.198 37.5534C326.736 38.344 327.376 38.9118 328.118 39.2511C328.86 39.5933 329.686 39.7659 330.596 39.7659C331.218 39.7659 331.793 39.6833 332.319 39.5181C332.846 39.3529 333.299 39.1773 333.684 38.9871C334.115 38.7511 334.522 38.4797 334.903 38.1729H335.262L336.519 40.2969C336.04 40.6745 335.49 41.0034 334.867 41.2881C334.317 41.5477 333.657 41.7719 332.892 41.9592C332.126 42.1495 331.241 42.2439 330.235 42.2439C328.799 42.2439 327.508 42.0138 326.357 41.5521C325.208 41.0904 324.226 40.3485 323.412 39.3219C322.599 38.2953 321.976 36.9796 321.545 35.3748C321.114 33.77 320.9 31.8127 320.9 29.4999Z" fill="white"/>
<path d="M344.239 41.8894V19.5874H337.777V17.1094H354.295V19.5874H347.832V41.8894H344.239Z" fill="white"/>
<path d="M361.476 41.8894H357.887V17.1094H361.476V32.8609C361.476 33.122 361.47 33.4288 361.458 33.7828C361.446 34.1368 361.427 34.4672 361.404 34.774C361.38 35.1516 361.356 35.5174 361.332 35.8714H361.476C361.572 35.5174 361.68 35.1516 361.801 34.774C361.919 34.4672 362.039 34.1368 362.158 33.7828C362.278 33.4288 362.41 33.122 362.555 32.8609L370.453 17.1094H374.044V41.8894H370.453V26.1364C370.453 25.8768 370.459 25.5759 370.473 25.2337C370.485 24.8915 370.503 24.5552 370.526 24.2248C370.55 23.8708 370.573 23.505 370.598 23.1274H370.453C370.359 23.505 370.25 23.8708 370.13 24.2248C370.01 24.5552 369.885 24.8915 369.753 25.2337C369.621 25.5759 369.496 25.8768 369.376 26.1364L361.476 41.8894Z" fill="white"/>
</svg>
