<svg width="361" height="45" viewBox="0 0 361 45" fill="none" xmlns="http://www.w3.org/2000/svg">
<path d="M91.5422 13.8268H88.762V21.3116H84.4281V13.8268H81.5933L77.314 21.3116H72.2168L77.9408 11.5973L72.5711 2.73242H77.2322L81.5116 10.2437H84.4281V2.73242H88.762V10.2437H91.5967L95.9033 2.73242H100.564L95.2219 11.5973L100.919 21.3116H95.8216L91.5422 13.8268Z" fill="black"/>
<path d="M116.476 7.0332V21.3127H112.415V19.6405C111.87 20.2598 111.197 20.7287 110.398 21.0472C109.616 21.3657 108.781 21.525 107.89 21.525C105.964 21.525 104.428 20.9853 103.284 19.9059C102.157 18.8266 101.594 17.2253 101.594 15.1018V7.0332H105.846V14.4915C105.846 16.7917 106.836 17.9419 108.817 17.9419C109.853 17.9419 110.679 17.6233 111.297 16.9863C111.915 16.3317 112.224 15.3673 112.224 14.0933V7.0332H116.476Z" fill="black"/>
<path d="M131.187 13.8544C132.913 14.4207 133.776 15.5531 133.776 17.2518C133.776 18.5435 133.277 19.5431 132.278 20.251C131.277 20.9588 129.787 21.3127 127.807 21.3127H119.984V7.0332H127.48C129.315 7.0332 130.75 7.36055 131.787 8.01525C132.822 8.65225 133.341 9.55467 133.341 10.7225C133.341 11.4303 133.149 12.0584 132.769 12.607C132.405 13.1378 131.878 13.5536 131.187 13.8544ZM123.882 12.8989H127.099C128.589 12.8989 129.334 12.3858 129.334 11.3595C129.334 10.3509 128.589 9.84663 127.099 9.84663H123.882V12.8989ZM127.453 18.4992C129.016 18.4992 129.797 17.9773 129.797 16.9333C129.797 16.3847 129.615 15.9867 129.252 15.7388C128.888 15.4735 128.316 15.3408 127.534 15.3408H123.882V18.4992H127.453Z" fill="black"/>
<path d="M151.196 7.03264V21.3121H147.134V19.6665C146.08 20.9051 144.554 21.5245 142.555 21.5245C141.175 21.5245 139.921 21.2236 138.793 20.622C137.685 20.0204 136.814 19.1622 136.177 18.0475C135.541 16.9327 135.223 15.641 135.223 14.1724C135.223 12.7037 135.541 11.412 136.177 10.2973C136.814 9.18253 137.685 8.32434 138.793 7.72273C139.921 7.12113 141.175 6.82031 142.555 6.82031C144.427 6.82031 145.889 7.39538 146.943 8.54553V7.03264H151.196ZM143.292 18.127C144.363 18.127 145.254 17.7732 145.963 17.0654C146.671 16.34 147.026 15.3756 147.026 14.1724C147.026 12.9691 146.671 12.0136 145.963 11.3059C145.254 10.5804 144.363 10.2177 143.292 10.2177C142.201 10.2177 141.301 10.5804 140.593 11.3059C139.883 12.0136 139.53 12.9691 139.53 14.1724C139.53 15.3756 139.883 16.34 140.593 17.0654C141.301 17.7732 142.201 18.127 143.292 18.127Z" fill="black"/>
<path d="M167.699 7.0332V21.3127H163.91V17.2253H160.775L157.995 21.3127H153.471L156.823 16.6413C155.806 16.252 155.024 15.6947 154.479 14.9692C153.952 14.226 153.688 13.3324 153.688 12.2885C153.688 10.6075 154.306 9.31579 155.543 8.41337C156.796 7.49326 158.514 7.0332 160.694 7.0332H167.699ZM160.775 10.404C159.867 10.404 159.177 10.5632 158.704 10.8818C158.25 11.2003 158.023 11.7134 158.023 12.4212C158.023 13.129 158.24 13.6509 158.677 13.9872C159.131 14.3057 159.813 14.4648 160.72 14.4648H163.91V10.404H160.775Z" fill="black"/>
<path d="M186.128 13.8268H183.074V21.3116H178.686V2.73242H183.074V10.2437H186.236L191.252 2.73242H195.913L189.671 11.7035L196.104 21.3116H191.088L186.128 13.8268Z" fill="black"/>
<path d="M211.833 7.0332V18.9239C211.833 21.5426 211.151 23.489 209.789 24.7631C208.425 26.0371 206.444 26.6741 203.847 26.6741C202.465 26.6741 201.157 26.506 199.922 26.1698C198.704 25.8336 197.677 25.3469 196.842 24.71L198.532 21.7373C199.148 22.2328 199.903 22.622 200.793 22.9052C201.684 23.1883 202.583 23.3298 203.492 23.3298C204.91 23.3298 205.945 23.0113 206.599 22.3743C207.254 21.7373 207.581 20.7641 207.581 19.4547V18.9769C207.035 19.5077 206.391 19.9148 205.645 20.1979C204.901 20.481 204.1 20.6225 203.247 20.6225C201.32 20.6225 199.794 20.0917 198.668 19.0301C197.541 17.9507 196.978 16.3405 196.978 14.1995V7.0332H201.229V13.589C201.229 15.907 202.219 17.066 204.2 17.066C205.218 17.066 206.036 16.7475 206.654 16.1105C207.271 15.4557 207.581 14.4915 207.581 13.2174V7.0332H211.833Z" fill="black"/>
<path d="M223.784 8.01451C225.184 8.01451 226.411 8.29763 227.465 8.86384C228.519 9.41237 229.327 10.1909 229.89 11.1995C230.472 12.2081 230.763 13.3759 230.763 14.7031C230.763 16.0655 230.417 17.2775 229.726 18.3392C229.055 19.3832 228.109 20.1971 226.893 20.7811C225.675 21.3473 224.294 21.6304 222.749 21.6304C220.188 21.6304 218.169 20.8341 216.698 19.2417C215.244 17.6314 214.518 15.278 214.518 12.1816C214.518 9.31505 215.153 7.03246 216.426 5.3338C217.716 3.61744 219.687 2.49384 222.341 1.963L229.318 0.609375L229.89 4.16597L223.731 5.36034C222.058 5.67884 220.813 6.20968 219.996 6.95284C219.197 7.69601 218.724 8.74883 218.579 10.1113C219.215 9.43892 219.978 8.92578 220.868 8.57188C221.759 8.2003 222.731 8.01451 223.784 8.01451ZM222.776 18.4188C223.867 18.4188 224.738 18.0738 225.393 17.3837C226.066 16.6937 226.402 15.8177 226.402 14.7561C226.402 13.6767 226.066 12.8186 225.393 12.1816C224.738 11.5446 223.867 11.2261 222.776 11.2261C221.667 11.2261 220.777 11.5446 220.105 12.1816C219.433 12.8186 219.096 13.6767 219.096 14.7561C219.096 15.8355 219.442 16.7202 220.133 17.4102C220.823 18.0827 221.704 18.4188 222.776 18.4188Z" fill="black"/>
<path d="M247.905 7.03264V21.3121H243.843V19.6665C242.789 20.9051 241.263 21.5245 239.264 21.5245C237.883 21.5245 236.629 21.2236 235.502 20.622C234.394 20.0204 233.521 19.1622 232.886 18.0475C232.25 16.9327 231.932 15.641 231.932 14.1724C231.932 12.7037 232.25 11.412 232.886 10.2973C233.521 9.18253 234.394 8.32434 235.502 7.72273C236.629 7.12113 237.883 6.82031 239.264 6.82031C241.136 6.82031 242.598 7.39538 243.652 8.54553V7.03264H247.905ZM239.999 18.127C241.072 18.127 241.963 17.7732 242.671 17.0654C243.38 16.34 243.734 15.3756 243.734 14.1724C243.734 12.9691 243.38 12.0136 242.671 11.3059C241.963 10.5804 241.072 10.2177 239.999 10.2177C238.909 10.2177 238.01 10.5804 237.302 11.3059C236.592 12.0136 236.238 12.9691 236.238 14.1724C236.238 15.3756 236.592 16.34 237.302 17.0654C238.01 17.7732 238.909 18.127 239.999 18.127Z" fill="black"/>
<path d="M251.377 7.0332H255.602V12.607H261.98V7.0332H266.232V21.3127H261.98V15.9778H255.602V21.3127H251.377V7.0332Z" fill="black"/>
<path d="M276.488 21.7108C274.163 21.7108 272.401 21.2065 271.201 20.1979C270.019 19.1893 269.43 17.7029 269.43 15.7388V7.0332H273.653V11.8638C274.108 11.5453 274.69 11.2976 275.398 11.1206C276.125 10.9437 276.934 10.8552 277.825 10.8552C279.659 10.8552 281.095 11.2976 282.131 12.1823C283.167 13.0671 283.684 14.3587 283.684 16.0574C283.684 17.8799 283.04 19.2778 281.75 20.251C280.477 21.2241 278.724 21.7108 276.488 21.7108ZM276.488 18.7912C277.398 18.7912 278.097 18.5523 278.588 18.0746C279.096 17.5968 279.351 16.9509 279.351 16.137C279.351 15.3584 279.106 14.748 278.615 14.3057C278.142 13.8632 277.461 13.642 276.571 13.642C275.916 13.642 275.334 13.7571 274.826 13.9872C274.318 14.2171 273.927 14.5445 273.653 14.9692V16.137C273.653 16.9687 273.899 17.6233 274.39 18.1011C274.899 18.5611 275.598 18.7912 276.488 18.7912Z" fill="black"/>
<g opacity="0.6">
<path opacity="0.6" d="M74.0508 41.0628V33.1777H75.3822V36.4551C75.3822 36.8769 75.3656 37.342 75.3323 37.8503C75.31 38.348 75.2823 38.8509 75.2491 39.3593H75.3156C75.471 39.1105 75.6485 38.8293 75.8482 38.5155C76.059 38.2019 76.2366 37.9206 76.3808 37.6719L79.4431 33.1777H80.7247V41.0628H79.3932V37.7855C79.3932 37.3637 79.4044 36.904 79.4265 36.4063C79.4598 35.898 79.493 35.3842 79.5264 34.8651H79.4598C79.3044 35.1139 79.1214 35.4005 78.9105 35.725C78.7109 36.0386 78.5389 36.3144 78.3946 36.5524L75.3156 41.0628H74.0508Z" fill="black"/>
<path opacity="0.6" d="M83.2949 41.0628V33.1777H84.6597V36.374H88.5542V33.1777H89.9189V41.0628H88.5542V37.5584H84.6597V41.0628H83.2949Z" fill="black"/>
<path opacity="0.6" d="M94.2538 41.0628V34.2648H91.541V33.1777H98.3314V34.2648H95.6186V41.0628H94.2538Z" fill="black"/>
<path opacity="0.6" d="M103.015 41.2569C102.471 41.2569 101.961 41.1649 101.483 40.981C101.017 40.7863 100.607 40.516 100.252 40.1699C99.9079 39.8129 99.636 39.3803 99.4363 38.8718C99.2366 38.3635 99.1367 37.7849 99.1367 37.1359C99.1367 36.487 99.2366 35.9082 99.4363 35.3999C99.6471 34.8807 99.919 34.4426 100.252 34.0857C100.596 33.7287 100.984 33.4584 101.417 33.2745C101.85 33.0798 102.299 32.9824 102.765 32.9824C103.275 32.9824 103.73 33.069 104.13 33.2421C104.54 33.4151 104.879 33.6638 105.145 33.9884C105.422 34.3128 105.633 34.7022 105.777 35.1566C105.922 35.6108 105.994 36.1191 105.994 36.6817C105.994 36.8222 105.988 36.9628 105.977 37.1034C105.977 37.2333 105.966 37.3467 105.944 37.4442H100.485C100.54 38.2879 100.807 38.9584 101.284 39.4559C101.772 39.9427 102.404 40.1861 103.181 40.1861C103.569 40.1861 103.924 40.132 104.246 40.0239C104.579 39.9048 104.895 39.7534 105.195 39.5695L105.677 40.4457C105.322 40.6619 104.929 40.8513 104.496 41.0135C104.063 41.1757 103.569 41.2569 103.015 41.2569ZM100.468 36.487H104.795C104.795 35.6865 104.618 35.0808 104.263 34.6698C103.919 34.2479 103.431 34.037 102.798 34.037C102.51 34.037 102.232 34.0911 101.966 34.1992C101.711 34.3075 101.478 34.4697 101.267 34.686C101.056 34.8914 100.879 35.1457 100.734 35.4485C100.601 35.7513 100.513 36.0976 100.468 36.487Z" fill="black"/>
<path opacity="0.6" d="M107.826 44.3882V33.1771H108.958L109.074 34.0857H109.124C109.49 33.7829 109.89 33.5232 110.323 33.3069C110.766 33.0907 111.227 32.9824 111.704 32.9824C112.225 32.9824 112.686 33.0798 113.085 33.2745C113.485 33.4584 113.818 33.7287 114.084 34.0857C114.35 34.4318 114.55 34.8536 114.683 35.3513C114.827 35.8379 114.899 36.3896 114.899 37.0061C114.899 37.6767 114.805 38.2771 114.617 38.807C114.428 39.3262 114.173 39.7697 113.851 40.1374C113.529 40.5052 113.158 40.7863 112.736 40.981C112.314 41.1649 111.87 41.2569 111.404 41.2569C111.027 41.2569 110.65 41.1757 110.273 41.0135C109.907 40.8513 109.535 40.6296 109.158 40.3483L109.191 41.7274V44.3882H107.826ZM111.171 40.1374C111.504 40.1374 111.809 40.0671 112.087 39.9264C112.375 39.775 112.619 39.5695 112.819 39.31C113.03 39.0395 113.191 38.7096 113.302 38.3202C113.424 37.9308 113.485 37.4928 113.485 37.0061C113.485 36.5734 113.446 36.1787 113.368 35.8218C113.291 35.4647 113.163 35.1619 112.986 34.9131C112.819 34.6536 112.597 34.4534 112.32 34.3128C112.053 34.1722 111.732 34.102 111.355 34.102C111.011 34.102 110.661 34.1939 110.306 34.3778C109.962 34.5616 109.59 34.8266 109.191 35.1727V39.31C109.557 39.6128 109.912 39.8292 110.256 39.9589C110.6 40.078 110.905 40.1374 111.171 40.1374Z" fill="black"/>
<path opacity="0.6" d="M116.891 41.0628V33.1777H118.255V36.374H122.15V33.1777H123.515V41.0628H122.15V37.5584H118.255V41.0628H116.891Z" fill="black"/>
<path opacity="0.6" d="M129.348 41.2569C128.805 41.2569 128.294 41.1649 127.817 40.981C127.352 40.7863 126.941 40.516 126.586 40.1699C126.241 39.8129 125.97 39.3803 125.77 38.8718C125.571 38.3635 125.471 37.7849 125.471 37.1359C125.471 36.487 125.571 35.9082 125.77 35.3999C125.98 34.8807 126.252 34.4426 126.586 34.0857C126.929 33.7287 127.318 33.4584 127.75 33.2745C128.183 33.0798 128.633 32.9824 129.099 32.9824C129.609 32.9824 130.064 33.069 130.464 33.2421C130.873 33.4151 131.212 33.6638 131.479 33.9884C131.756 34.3128 131.967 34.7022 132.111 35.1566C132.256 35.6108 132.327 36.1191 132.327 36.6817C132.327 36.8222 132.322 36.9628 132.311 37.1034C132.311 37.2333 132.3 37.3467 132.277 37.4442H126.818C126.874 38.2879 127.14 38.9584 127.618 39.4559C128.106 39.9427 128.738 40.1861 129.515 40.1861C129.903 40.1861 130.258 40.132 130.58 40.0239C130.913 39.9048 131.229 39.7534 131.529 39.5695L132.011 40.4457C131.656 40.6619 131.262 40.8513 130.83 41.0135C130.396 41.1757 129.903 41.2569 129.348 41.2569ZM126.802 36.487H131.129C131.129 35.6865 130.952 35.0808 130.596 34.6698C130.253 34.2479 129.764 34.037 129.132 34.037C128.844 34.037 128.565 34.0911 128.299 34.1992C128.045 34.3075 127.811 34.4697 127.601 34.686C127.39 34.8914 127.213 35.1457 127.068 35.4485C126.934 35.7513 126.846 36.0976 126.802 36.487Z" fill="black"/>
<path opacity="0.6" d="M135.777 41.0628V34.2648H133.064V33.1777H139.855V34.2648H137.142V41.0628H135.777Z" fill="black"/>
<path opacity="0.6" d="M140.365 37.5104V36.4883H144.193V37.5104H140.365Z" fill="black"/>
<path opacity="0.6" d="M146.169 41.0628V43.8535H144.988L144.838 40.8194V39.9758H145.238C145.349 39.9109 145.454 39.8243 145.553 39.7162C145.665 39.5973 145.765 39.4187 145.853 39.1807C145.942 38.9429 146.031 38.6238 146.119 38.2236C146.208 37.8233 146.292 37.3042 146.369 36.666L146.801 33.1777H151.828V39.9758H153.009V40.8194L152.877 43.8535H151.694V41.0628H146.169ZM147.567 36.9256C147.478 37.7044 147.357 38.3371 147.201 38.8238C147.057 39.3106 146.89 39.6945 146.701 39.9758H150.463V34.2648H147.884L147.567 36.9256Z" fill="black"/>
<path opacity="0.6" d="M154.578 41.0628V33.1777H155.943V36.374H159.837V33.1777H161.202V41.0628H159.837V37.5584H155.943V41.0628H154.578Z" fill="black"/>
<path opacity="0.6" d="M167.036 41.2569C166.493 41.2569 165.982 41.1649 165.505 40.981C165.039 40.7863 164.628 40.516 164.273 40.1699C163.929 39.8129 163.658 39.3803 163.458 38.8718C163.258 38.3635 163.158 37.7849 163.158 37.1359C163.158 36.487 163.258 35.9082 163.458 35.3999C163.669 34.8807 163.94 34.4426 164.273 34.0857C164.617 33.7287 165.005 33.4584 165.439 33.2745C165.871 33.0798 166.32 32.9824 166.786 32.9824C167.297 32.9824 167.752 33.069 168.151 33.2421C168.562 33.4151 168.901 33.6638 169.167 33.9884C169.444 34.3128 169.655 34.7022 169.798 35.1566C169.943 35.6108 170.015 36.1191 170.015 36.6817C170.015 36.8222 170.01 36.9628 169.998 37.1034C169.998 37.2333 169.987 37.3467 169.965 37.4442H164.506C164.562 38.2879 164.828 38.9584 165.305 39.4559C165.793 39.9427 166.425 40.1861 167.202 40.1861C167.59 40.1861 167.946 40.132 168.267 40.0239C168.601 39.9048 168.917 39.7534 169.217 39.5695L169.699 40.4457C169.344 40.6619 168.95 40.8513 168.517 41.0135C168.085 41.1757 167.59 41.2569 167.036 41.2569ZM164.489 36.487H168.817C168.817 35.6865 168.64 35.0808 168.285 34.6698C167.94 34.2479 167.452 34.037 166.82 34.037C166.531 34.037 166.254 34.0911 165.987 34.1992C165.732 34.3075 165.5 34.4697 165.289 34.686C165.078 34.8914 164.9 35.1457 164.756 35.4485C164.623 35.7513 164.534 36.0976 164.489 36.487Z" fill="black"/>
<path opacity="0.6" d="M171.848 41.0628V33.1777H174.96C175.403 33.1777 175.808 33.2156 176.175 33.2913C176.541 33.3671 176.851 33.486 177.107 33.6482C177.373 33.7996 177.578 34.0052 177.722 34.2648C177.866 34.5135 177.938 34.8164 177.938 35.1733C177.938 35.6169 177.816 35.9791 177.573 36.2604C177.339 36.5416 177.012 36.7417 176.591 36.8607V36.9093C176.823 36.9634 177.039 37.0392 177.239 37.1365C177.45 37.2339 177.634 37.3582 177.789 37.5097C177.945 37.6611 178.066 37.845 178.155 38.0613C178.243 38.2777 178.288 38.5264 178.288 38.8076C178.288 39.197 178.204 39.5323 178.038 39.8135C177.884 40.0948 177.661 40.3328 177.373 40.5274C177.095 40.7113 176.762 40.8464 176.374 40.933C175.985 41.0196 175.558 41.0628 175.092 41.0628H171.848ZM173.195 36.4876H174.726C175.403 36.4876 175.887 36.3848 176.175 36.1793C176.464 35.963 176.607 35.6709 176.607 35.3031C176.607 34.9354 176.469 34.6487 176.191 34.4432C175.914 34.2377 175.458 34.1349 174.826 34.1349H173.195V36.4876ZM173.195 40.1056H174.942C175.608 40.1056 176.103 39.9867 176.424 39.7487C176.757 39.5107 176.923 39.1699 176.923 38.7265C176.923 38.3263 176.752 38.0126 176.407 37.7855C176.064 37.5584 175.548 37.4448 174.86 37.4448H173.195V40.1056Z" fill="black"/>
<path opacity="0.6" d="M180.133 41.0628V33.1777H181.497V36.374H185.392V33.1777H186.757V41.0628H185.392V37.5584H181.497V41.0628H180.133Z" fill="black"/>
<path opacity="0.6" d="M189.312 41.0628V33.1777H190.644V36.4551C190.644 36.8769 190.626 37.342 190.594 37.8503C190.571 38.348 190.544 38.8509 190.51 39.3593H190.576C190.732 39.1105 190.91 38.8293 191.11 38.5155C191.321 38.2019 191.498 37.9206 191.642 37.6719L194.704 33.1777H195.986V41.0628H194.654V37.7855C194.654 37.3637 194.665 36.904 194.688 36.4063C194.721 35.898 194.754 35.3842 194.788 34.8651H194.721C194.565 35.1139 194.383 35.4005 194.172 35.725C193.972 36.0386 193.8 36.3144 193.656 36.5524L190.576 41.0628H189.312Z" fill="black"/>
<path opacity="0.6" d="M198.557 41.0622V33.1771H199.92V36.422H201.485L202.285 34.6698C202.439 34.3237 202.594 34.0424 202.75 33.8261C202.905 33.6098 203.071 33.4421 203.25 33.3232C203.427 33.1933 203.61 33.1068 203.798 33.0635C203.987 33.0094 204.193 32.9824 204.414 32.9824C204.592 32.9824 204.747 33.0094 204.881 33.0635L204.647 34.3128C204.592 34.2912 204.548 34.2804 204.514 34.2804C204.481 34.2804 204.436 34.2804 204.381 34.2804C204.27 34.2804 204.165 34.2967 204.065 34.329C203.977 34.3507 203.882 34.3994 203.782 34.4751C203.693 34.5508 203.598 34.6589 203.498 34.7995C203.4 34.9402 203.3 35.1241 203.2 35.3513L202.517 36.9087L205.263 41.0622H203.766L201.519 37.5091H199.92V41.0622H198.557Z" fill="black"/>
<path opacity="0.6" d="M209.979 41.0624V30.4193H211.36V34.9134H213.241L214.772 32.2039C215.004 31.8037 215.215 31.4739 215.404 31.2143C215.592 30.9546 215.781 30.7546 215.969 30.614C216.169 30.4625 216.369 30.3597 216.569 30.3057C216.769 30.2516 216.991 30.2246 217.235 30.2246C217.334 30.2246 217.434 30.2354 217.534 30.257C217.645 30.2678 217.745 30.2894 217.834 30.3219L217.6 31.5874C217.534 31.5658 217.462 31.5495 217.384 31.5387C217.318 31.5279 217.257 31.5225 217.201 31.5225C217.08 31.5225 216.969 31.5387 216.869 31.5712C216.769 31.6037 216.664 31.6686 216.553 31.7659C216.453 31.8632 216.342 31.9984 216.219 32.1715C216.097 32.3445 215.953 32.5771 215.787 32.8691L214.338 35.3839L218.1 41.0624H216.585L213.223 36.0167H211.36V41.0624H209.979Z" fill="black"/>
<path opacity="0.6" d="M219.332 44.3882V33.1771H220.464L220.581 34.0857H220.631C220.997 33.7829 221.396 33.5232 221.829 33.3069C222.273 33.0907 222.733 32.9824 223.21 32.9824C223.732 32.9824 224.193 33.0798 224.591 33.2745C224.991 33.4584 225.324 33.7287 225.59 34.0857C225.856 34.4318 226.056 34.8536 226.19 35.3513C226.333 35.8379 226.406 36.3896 226.406 37.0061C226.406 37.6767 226.311 38.2771 226.122 38.807C225.934 39.3262 225.679 39.7697 225.357 40.1374C225.036 40.5052 224.664 40.7863 224.243 40.981C223.821 41.1649 223.377 41.2569 222.91 41.2569C222.533 41.2569 222.156 41.1757 221.779 41.0135C221.413 40.8513 221.041 40.6296 220.663 40.3483L220.697 41.7274V44.3882H219.332ZM222.678 40.1374C223.01 40.1374 223.316 40.0671 223.593 39.9264C223.882 39.775 224.125 39.5695 224.325 39.31C224.536 39.0395 224.697 38.7096 224.808 38.3202C224.93 37.9308 224.991 37.4928 224.991 37.0061C224.991 36.5734 224.952 36.1787 224.875 35.8218C224.797 35.4647 224.67 35.1619 224.491 34.9131C224.325 34.6536 224.103 34.4534 223.826 34.3128C223.559 34.1722 223.239 34.102 222.86 34.102C222.517 34.102 222.167 34.1939 221.812 34.3778C221.468 34.5616 221.097 34.8266 220.697 35.1727V39.31C221.063 39.6128 221.418 39.8292 221.762 39.9589C222.106 40.078 222.412 40.1374 222.678 40.1374Z" fill="black"/>
<path opacity="0.6" d="M230.033 41.2569C229.356 41.2569 228.79 41.0622 228.336 40.6728C227.892 40.2834 227.67 39.7317 227.67 39.0179C227.67 38.1526 228.063 37.4928 228.851 37.0386C229.639 36.5734 230.898 36.249 232.629 36.0651C232.629 35.8163 232.602 35.5729 232.547 35.335C232.502 35.097 232.418 34.8861 232.297 34.7022C232.175 34.5183 232.002 34.3723 231.781 34.2642C231.57 34.1451 231.298 34.0857 230.966 34.0857C230.5 34.0857 230.062 34.1722 229.651 34.3453C229.24 34.5183 228.874 34.713 228.552 34.9294L228.02 34.0045C228.397 33.7666 228.858 33.5395 229.401 33.3232C229.944 33.096 230.544 32.9824 231.198 32.9824C232.186 32.9824 232.902 33.2799 233.345 33.8748C233.789 34.4589 234.011 35.243 234.011 36.2273V41.0622H232.879L232.763 40.1211H232.713C232.325 40.4349 231.909 40.7052 231.464 40.9324C231.021 41.1487 230.544 41.2569 230.033 41.2569ZM230.432 40.1861C230.821 40.1861 231.187 40.0995 231.531 39.9264C231.875 39.7426 232.241 39.4776 232.629 39.1315V36.9412C231.952 37.0278 231.382 37.1305 230.916 37.2495C230.46 37.3684 230.089 37.5091 229.801 37.6713C229.523 37.8335 229.317 38.0228 229.185 38.2391C229.062 38.4446 229.001 38.6718 229.001 38.9206C229.001 39.3748 229.14 39.6994 229.417 39.8941C229.694 40.0887 230.033 40.1861 230.432 40.1861Z" fill="black"/>
<path opacity="0.6" d="M239.586 41.2569C239.053 41.2569 238.554 41.1649 238.088 40.981C237.622 40.7972 237.217 40.5322 236.873 40.1861C236.54 39.8292 236.274 39.3965 236.075 38.8881C235.886 38.369 235.791 37.7849 235.791 37.1359C235.791 36.4761 235.896 35.8921 236.107 35.3836C236.318 34.8645 236.602 34.4264 236.956 34.0695C237.311 33.7126 237.722 33.4421 238.188 33.2582C238.665 33.0744 239.164 32.9824 239.685 32.9824C240.218 32.9824 240.673 33.0744 241.05 33.2582C241.427 33.4421 241.761 33.6584 242.049 33.9073L241.35 34.7833C241.117 34.5778 240.868 34.4102 240.6 34.2804C240.346 34.1506 240.057 34.0857 239.735 34.0857C239.369 34.0857 239.031 34.1614 238.721 34.3128C238.41 34.4534 238.144 34.6589 237.922 34.9294C237.699 35.1997 237.522 35.5243 237.388 35.9029C237.267 36.2706 237.206 36.6817 237.206 37.1359C237.206 37.5902 237.267 38.0012 237.388 38.369C237.511 38.7367 237.677 39.0557 237.888 39.3262C238.11 39.5858 238.376 39.7913 238.687 39.9427C238.998 40.0833 239.337 40.1536 239.703 40.1536C240.08 40.1536 240.423 40.078 240.734 39.9264C241.056 39.7642 241.345 39.575 241.6 39.3587L242.199 40.251C241.833 40.5647 241.427 40.8135 240.984 40.9973C240.541 41.1704 240.073 41.2569 239.586 41.2569Z" fill="black"/>
<path opacity="0.6" d="M243.814 41.0628V33.1777H245.179V36.374H249.073V33.1777H250.438V41.0628H249.073V37.5584H245.179V41.0628H243.814Z" fill="black"/>
<path opacity="0.6" d="M256.138 41.2569C255.638 41.2569 255.161 41.1649 254.707 40.981C254.262 40.7972 253.869 40.5322 253.524 40.1861C253.181 39.8292 252.903 39.3965 252.692 38.8881C252.492 38.369 252.393 37.7849 252.393 37.1359C252.393 36.4761 252.492 35.8921 252.692 35.3836C252.903 34.8645 253.181 34.4264 253.524 34.0695C253.869 33.7126 254.262 33.4421 254.707 33.2582C255.161 33.0744 255.638 32.9824 256.138 32.9824C256.638 32.9824 257.108 33.0744 257.553 33.2582C258.008 33.4421 258.407 33.7126 258.751 34.0695C259.094 34.4264 259.366 34.8645 259.566 35.3836C259.777 35.8921 259.882 36.4761 259.882 37.1359C259.882 37.7849 259.777 38.369 259.566 38.8881C259.366 39.3965 259.094 39.8292 258.751 40.1861C258.407 40.5322 258.008 40.7972 257.553 40.981C257.108 41.1649 256.638 41.2569 256.138 41.2569ZM256.138 40.1536C256.481 40.1536 256.797 40.0833 257.086 39.9427C257.374 39.7913 257.619 39.5858 257.819 39.3262C258.03 39.0557 258.19 38.7367 258.301 38.369C258.412 38.0012 258.467 37.5902 258.467 37.1359C258.467 36.6817 258.412 36.2706 258.301 35.9029C258.19 35.5243 258.03 35.1997 257.819 34.9294C257.619 34.6589 257.374 34.4534 257.086 34.3128C256.797 34.1614 256.481 34.0857 256.138 34.0857C255.793 34.0857 255.477 34.1614 255.189 34.3128C254.9 34.4534 254.651 34.6589 254.439 34.9294C254.241 35.1997 254.085 35.5243 253.974 35.9029C253.862 36.2706 253.808 36.6817 253.808 37.1359C253.808 37.5902 253.862 38.0012 253.974 38.369C254.085 38.7367 254.241 39.0557 254.439 39.3262C254.651 39.5858 254.9 39.7913 255.189 39.9427C255.477 40.0833 255.793 40.1536 256.138 40.1536Z" fill="black"/>
<path opacity="0.6" d="M262.13 41.0628V43.8535H260.949L260.799 40.8194V39.9758H261.198C261.31 39.9109 261.415 39.8243 261.514 39.7162C261.626 39.5973 261.725 39.4187 261.814 39.1807C261.903 38.9429 261.992 38.6238 262.08 38.2236C262.169 37.8233 262.253 37.3042 262.33 36.666L262.763 33.1777H267.789V39.9758H268.97V40.8194L268.838 43.8535H267.656V41.0628H262.13ZM263.529 36.9256C263.44 37.7044 263.318 38.3371 263.162 38.8238C263.018 39.3106 262.852 39.6945 262.663 39.9758H266.424V34.2648H263.845L263.529 36.9256Z" fill="black"/>
<path opacity="0.6" d="M272.468 41.2569C271.791 41.2569 271.225 41.0622 270.769 40.6728C270.326 40.2834 270.104 39.7317 270.104 39.0179C270.104 38.1526 270.498 37.4928 271.286 37.0386C272.073 36.5734 273.333 36.249 275.064 36.0651C275.064 35.8163 275.035 35.5729 274.98 35.335C274.935 35.097 274.853 34.8861 274.731 34.7022C274.608 34.5183 274.437 34.3723 274.215 34.2642C274.004 34.1451 273.733 34.0857 273.399 34.0857C272.933 34.0857 272.495 34.1722 272.084 34.3453C271.673 34.5183 271.307 34.713 270.986 34.9294L270.453 34.0045C270.83 33.7666 271.291 33.5395 271.834 33.3232C272.379 33.096 272.977 32.9824 273.633 32.9824C274.619 32.9824 275.335 33.2799 275.78 33.8748C276.223 34.4589 276.445 35.243 276.445 36.2273V41.0622H275.314L275.196 40.1211H275.146C274.758 40.4349 274.342 40.7052 273.899 40.9324C273.454 41.1487 272.977 41.2569 272.468 41.2569ZM272.867 40.1861C273.254 40.1861 273.622 40.0995 273.965 39.9264C274.308 39.7426 274.676 39.4776 275.064 39.1315V36.9412C274.387 37.0278 273.815 37.1305 273.349 37.2495C272.895 37.3684 272.523 37.5091 272.234 37.6713C271.957 37.8335 271.752 38.0228 271.618 38.2391C271.496 38.4446 271.435 38.6718 271.435 38.9206C271.435 39.3748 271.575 39.6994 271.852 39.8941C272.129 40.0887 272.468 40.1861 272.867 40.1861Z" fill="black"/>
<path opacity="0.6" d="M278.824 44.3882V33.1771H279.956L280.073 34.0857H280.123C280.489 33.7829 280.889 33.5232 281.321 33.3069C281.765 33.0907 282.225 32.9824 282.702 32.9824C283.224 32.9824 283.685 33.0798 284.083 33.2745C284.483 33.4584 284.816 33.7287 285.082 34.0857C285.348 34.4318 285.548 34.8536 285.682 35.3513C285.825 35.8379 285.898 36.3896 285.898 37.0061C285.898 37.6767 285.803 38.2771 285.614 38.807C285.426 39.3262 285.171 39.7697 284.849 40.1374C284.528 40.5052 284.156 40.7863 283.734 40.981C283.313 41.1649 282.868 41.2569 282.402 41.2569C282.025 41.2569 281.648 41.1757 281.271 41.0135C280.905 40.8513 280.533 40.6296 280.156 40.3483L280.189 41.7274V44.3882H278.824ZM282.17 40.1374C282.502 40.1374 282.808 40.0671 283.085 39.9264C283.374 39.775 283.617 39.5695 283.817 39.31C284.028 39.0395 284.189 38.7096 284.301 38.3202C284.422 37.9308 284.483 37.4928 284.483 37.0061C284.483 36.5734 284.444 36.1787 284.367 35.8218C284.289 35.4647 284.162 35.1619 283.983 34.9131C283.817 34.6536 283.595 34.4534 283.318 34.3128C283.052 34.1722 282.729 34.102 282.352 34.102C282.009 34.102 281.659 34.1939 281.305 34.3778C280.96 34.5616 280.589 34.8266 280.189 35.1727V39.31C280.555 39.6128 280.91 39.8292 281.255 39.9589C281.598 40.078 281.904 40.1374 282.17 40.1374Z" fill="black"/>
<path opacity="0.6" d="M291.084 41.2569C290.551 41.2569 290.052 41.1649 289.586 40.981C289.12 40.7972 288.715 40.5322 288.371 40.1861C288.038 39.8292 287.772 39.3965 287.573 38.8881C287.384 38.369 287.289 37.7849 287.289 37.1359C287.289 36.4761 287.395 35.8921 287.605 35.3836C287.816 34.8645 288.1 34.4264 288.454 34.0695C288.809 33.7126 289.22 33.4421 289.686 33.2582C290.163 33.0744 290.662 32.9824 291.184 32.9824C291.716 32.9824 292.171 33.0744 292.548 33.2582C292.925 33.4421 293.259 33.6584 293.547 33.9073L292.848 34.7833C292.616 34.5778 292.366 34.4102 292.1 34.2804C291.844 34.1506 291.555 34.0857 291.234 34.0857C290.867 34.0857 290.529 34.1614 290.219 34.3128C289.908 34.4534 289.642 34.6589 289.42 34.9294C289.197 35.1997 289.02 35.5243 288.888 35.9029C288.765 36.2706 288.704 36.6817 288.704 37.1359C288.704 37.5902 288.765 38.0012 288.888 38.369C289.009 38.7367 289.176 39.0557 289.386 39.3262C289.608 39.5858 289.874 39.7913 290.185 39.9427C290.496 40.0833 290.835 40.1536 291.201 40.1536C291.578 40.1536 291.921 40.078 292.232 39.9264C292.554 39.7642 292.843 39.575 293.098 39.3587L293.697 40.251C293.331 40.5647 292.925 40.8135 292.482 40.9973C292.039 41.1704 291.573 41.2569 291.084 41.2569Z" fill="black"/>
<path opacity="0.6" d="M295.312 41.0622V33.1771H296.678V36.422H298.242L299.04 34.6698C299.197 34.3237 299.351 34.0424 299.507 33.8261C299.662 33.6098 299.828 33.4421 300.006 33.3232C300.184 33.1933 300.367 33.1068 300.555 33.0635C300.744 33.0094 300.95 32.9824 301.171 32.9824C301.348 32.9824 301.504 33.0094 301.637 33.0635L301.405 34.3128C301.348 34.2912 301.305 34.2804 301.271 34.2804C301.238 34.2804 301.193 34.2804 301.139 34.2804C301.027 34.2804 300.921 34.2967 300.821 34.329C300.733 34.3507 300.639 34.3994 300.539 34.4751C300.45 34.5508 300.355 34.6589 300.256 34.7995C300.156 34.9402 300.056 35.1241 299.956 35.3513L299.274 36.9087L302.02 41.0622H300.522L298.275 37.5091H296.678V41.0622H295.312Z" fill="black"/>
<path opacity="0.6" d="M306.306 41.2569C305.806 41.2569 305.329 41.1649 304.875 40.981C304.43 40.7972 304.037 40.5322 303.692 40.1861C303.349 39.8292 303.071 39.3965 302.86 38.8881C302.66 38.369 302.561 37.7849 302.561 37.1359C302.561 36.4761 302.66 35.8921 302.86 35.3836C303.071 34.8645 303.349 34.4264 303.692 34.0695C304.037 33.7126 304.43 33.4421 304.875 33.2582C305.329 33.0744 305.806 32.9824 306.306 32.9824C306.804 32.9824 307.276 33.0744 307.72 33.2582C308.175 33.4421 308.575 33.7126 308.919 34.0695C309.262 34.4264 309.534 34.8645 309.734 35.3836C309.945 35.8921 310.05 36.4761 310.05 37.1359C310.05 37.7849 309.945 38.369 309.734 38.8881C309.534 39.3965 309.262 39.8292 308.919 40.1861C308.575 40.5322 308.175 40.7972 307.72 40.981C307.276 41.1649 306.804 41.2569 306.306 41.2569ZM306.306 40.1536C306.649 40.1536 306.965 40.0833 307.254 39.9427C307.542 39.7913 307.787 39.5858 307.987 39.3262C308.197 39.0557 308.358 38.7367 308.469 38.369C308.58 38.0012 308.635 37.5902 308.635 37.1359C308.635 36.6817 308.58 36.2706 308.469 35.9029C308.358 35.5243 308.197 35.1997 307.987 34.9294C307.787 34.6589 307.542 34.4534 307.254 34.3128C306.965 34.1614 306.649 34.0857 306.306 34.0857C305.961 34.0857 305.645 34.1614 305.357 34.3128C305.068 34.4534 304.819 34.6589 304.607 34.9294C304.408 35.1997 304.253 35.5243 304.142 35.9029C304.03 36.2706 303.976 36.6817 303.976 37.1359C303.976 37.5902 304.03 38.0012 304.142 38.369C304.253 38.7367 304.408 39.0557 304.607 39.3262C304.819 39.5858 305.068 39.7913 305.357 39.9427C305.645 40.0833 305.961 40.1536 306.306 40.1536Z" fill="black"/>
<path opacity="0.6" d="M312.014 41.0628V33.1777H317.057V34.2648H313.377V41.0628H312.014Z" fill="black"/>
<path opacity="0.6" d="M321.119 41.2569C320.621 41.2569 320.144 41.1649 319.688 40.981C319.245 40.7972 318.85 40.5322 318.506 40.1861C318.163 39.8292 317.886 39.3965 317.675 38.8881C317.475 38.369 317.375 37.7849 317.375 37.1359C317.375 36.4761 317.475 35.8921 317.675 35.3836C317.886 34.8645 318.163 34.4264 318.506 34.0695C318.85 33.7126 319.245 33.4421 319.688 33.2582C320.144 33.0744 320.621 32.9824 321.119 32.9824C321.619 32.9824 322.091 33.0744 322.534 33.2582C322.989 33.4421 323.388 33.7126 323.733 34.0695C324.076 34.4264 324.349 34.8645 324.549 35.3836C324.758 35.8921 324.865 36.4761 324.865 37.1359C324.865 37.7849 324.758 38.369 324.549 38.8881C324.349 39.3965 324.076 39.8292 323.733 40.1861C323.388 40.5322 322.989 40.7972 322.534 40.981C322.091 41.1649 321.619 41.2569 321.119 41.2569ZM321.119 40.1536C321.464 40.1536 321.78 40.0833 322.068 39.9427C322.357 39.7913 322.6 39.5858 322.8 39.3262C323.011 39.0557 323.172 38.7367 323.283 38.369C323.395 38.0012 323.45 37.5902 323.45 37.1359C323.45 36.6817 323.395 36.2706 323.283 35.9029C323.172 35.5243 323.011 35.1997 322.8 34.9294C322.6 34.6589 322.357 34.4534 322.068 34.3128C321.78 34.1614 321.464 34.0857 321.119 34.0857C320.776 34.0857 320.46 34.1614 320.171 34.3128C319.883 34.4534 319.633 34.6589 319.422 34.9294C319.222 35.1997 319.067 35.5243 318.956 35.9029C318.845 36.2706 318.79 36.6817 318.79 37.1359C318.79 37.5902 318.845 38.0012 318.956 38.369C319.067 38.7367 319.222 39.0557 319.422 39.3262C319.633 39.5858 319.883 39.7913 320.171 39.9427C320.46 40.0833 320.776 40.1536 321.119 40.1536Z" fill="black"/>
<path opacity="0.6" d="M329.994 41.0622V33.1771H331.359V36.422H332.923L333.722 34.6698C333.877 34.3237 334.033 34.0424 334.188 33.8261C334.344 33.6098 334.51 33.4421 334.687 33.3232C334.865 33.1933 335.048 33.1068 335.237 33.0635C335.425 33.0094 335.63 32.9824 335.853 32.9824C336.03 32.9824 336.185 33.0094 336.318 33.0635L336.085 34.3128C336.03 34.2912 335.985 34.2804 335.953 34.2804C335.919 34.2804 335.875 34.2804 335.819 34.2804C335.708 34.2804 335.603 34.2967 335.503 34.329C335.414 34.3507 335.319 34.3994 335.219 34.4751C335.131 34.5508 335.037 34.6589 334.937 34.7995C334.837 34.9402 334.737 35.1241 334.637 35.3513L333.956 36.9087L336.701 41.0622H335.203L332.956 37.5091H331.359V41.0622H329.994Z" fill="black"/>
<path opacity="0.6" d="M338.117 44.3882V33.1771H339.249L339.365 34.0857H339.415C339.781 33.7829 340.18 33.5232 340.614 33.3069C341.057 33.0907 341.518 32.9824 341.995 32.9824C342.516 32.9824 342.977 33.0798 343.376 33.2745C343.776 33.4584 344.108 33.7287 344.375 34.0857C344.641 34.4318 344.841 34.8536 344.974 35.3513C345.118 35.8379 345.191 36.3896 345.191 37.0061C345.191 37.6767 345.096 38.2771 344.907 38.807C344.719 39.3262 344.464 39.7697 344.142 40.1374C343.82 40.5052 343.449 40.7863 343.027 40.981C342.606 41.1649 342.161 41.2569 341.695 41.2569C341.318 41.2569 340.941 41.1757 340.564 41.0135C340.198 40.8513 339.826 40.6296 339.449 40.3483L339.482 41.7274V44.3882H338.117ZM341.462 40.1374C341.795 40.1374 342.1 40.0671 342.377 39.9264C342.666 39.775 342.91 39.5695 343.11 39.31C343.321 39.0395 343.481 38.7096 343.592 38.3202C343.715 37.9308 343.776 37.4928 343.776 37.0061C343.776 36.5734 343.737 36.1787 343.66 35.8218C343.581 35.4647 343.454 35.1619 343.276 34.9131C343.11 34.6536 342.888 34.4534 342.611 34.3128C342.345 34.1722 342.022 34.102 341.645 34.102C341.302 34.102 340.952 34.1939 340.596 34.3778C340.253 34.5616 339.881 34.8266 339.482 35.1727V39.31C339.848 39.6128 340.203 39.8292 340.546 39.9589C340.891 40.078 341.196 40.1374 341.462 40.1374Z" fill="black"/>
<path opacity="0.6" d="M348.818 41.2569C348.141 41.2569 347.575 41.0622 347.121 40.6728C346.676 40.2834 346.455 39.7317 346.455 39.0179C346.455 38.1526 346.848 37.4928 347.637 37.0386C348.425 36.5734 349.683 36.249 351.414 36.0651C351.414 35.8163 351.387 35.5729 351.331 35.335C351.287 35.097 351.203 34.8861 351.081 34.7022C350.96 34.5183 350.787 34.3723 350.565 34.2642C350.354 34.1451 350.083 34.0857 349.75 34.0857C349.284 34.0857 348.845 34.1722 348.435 34.3453C348.025 34.5183 347.659 34.713 347.337 34.9294L346.804 34.0045C347.182 33.7666 347.642 33.5395 348.186 33.3232C348.729 33.096 349.329 32.9824 349.983 32.9824C350.971 32.9824 351.687 33.2799 352.13 33.8748C352.573 34.4589 352.796 35.243 352.796 36.2273V41.0622H351.664L351.547 40.1211H351.498C351.11 40.4349 350.693 40.7052 350.249 40.9324C349.806 41.1487 349.329 41.2569 348.818 41.2569ZM349.218 40.1861C349.606 40.1861 349.972 40.0995 350.315 39.9264C350.66 39.7426 351.026 39.4776 351.414 39.1315V36.9412C350.738 37.0278 350.166 37.1305 349.7 37.2495C349.245 37.3684 348.873 37.5091 348.584 37.6713C348.307 37.8335 348.102 38.0228 347.969 38.2391C347.848 38.4446 347.786 38.6718 347.786 38.9206C347.786 39.3748 347.925 39.6994 348.202 39.8941C348.48 40.0887 348.818 40.1861 349.218 40.1861Z" fill="black"/>
<path opacity="0.6" d="M359.635 41.0628V37.9477H358.12L355.889 41.0628H354.342L356.805 37.7692C356.284 37.6178 355.845 37.3637 355.491 37.0067C355.135 36.639 354.958 36.1414 354.958 35.5141C354.958 35.0814 355.035 34.719 355.191 34.427C355.357 34.1242 355.579 33.8808 355.857 33.6969C356.145 33.513 356.484 33.3833 356.872 33.3075C357.26 33.221 357.681 33.1777 358.137 33.1777H361V41.0628H359.635ZM358.369 36.9743H359.635V34.2162H358.369C357.738 34.2162 357.238 34.3243 356.872 34.5406C356.516 34.7461 356.339 35.0814 356.339 35.5466C356.339 36.0116 356.516 36.3685 356.872 36.6173C357.238 36.8553 357.738 36.9743 358.369 36.9743Z" fill="black"/>
</g>
<path d="M36.6769 2.29688H28.252V41.3856H36.6769V2.29688Z" fill="#FEDA00"/>
<path d="M49.9263 2.29688H59.9619L47.0767 19.9109C47.0767 19.9109 50.2901 22.004 51.9086 23.8922C53.6844 25.9636 55.2539 29.9243 55.2539 29.9243L61.3248 24.4953L65.0417 26.9083L56.9885 34.2675L59.9619 41.3856H51.537C51.537 41.3856 46.4573 29.3212 44.5988 26.4256C42.7404 23.5302 39.0234 23.289 39.0234 23.289V19.549L43.9792 12.069L49.9263 2.29688Z" fill="#B0DA06"/>
<path d="M15.1154 2.29688H5.07976L17.965 19.9109C17.965 19.9109 14.7516 22.004 13.133 23.8922C11.3573 25.9636 9.78783 29.9243 9.78783 29.9243L3.7169 24.4953L0 26.9083L8.05327 34.2675L5.07976 41.3856H13.5047C13.5047 41.3856 18.5845 29.3212 20.443 26.4256C22.3013 23.5302 26.0182 23.289 26.0182 23.289V19.549L21.0624 12.069L15.1154 2.29688Z" fill="#FF7400"/>
<path d="M56.2531 17.9802C57.7584 17.9802 58.9788 16.7919 58.9788 15.326C58.9788 13.8602 57.7584 12.6719 56.2531 12.6719C54.7477 12.6719 53.5273 13.8602 53.5273 15.326C53.5273 16.7919 54.7477 17.9802 56.2531 17.9802Z" fill="#B0DA06"/>
<path d="M8.67298 17.9802C10.1784 17.9802 11.3987 16.7919 11.3987 15.326C11.3987 13.8602 10.1784 12.6719 8.67298 12.6719C7.16761 12.6719 5.94727 13.8602 5.94727 15.326C5.94727 16.7919 7.16761 17.9802 8.67298 17.9802Z" fill="#FF7400"/>
</svg>
