<svg width="258" height="77" viewBox="0 0 258 77" fill="none" xmlns="http://www.w3.org/2000/svg">
<path d="M83.4336 0C65.4336 32 47.4336 38.5 22.4336 37C28.0336 42.6 35.1003 44.3333 37.9336 44.5V76.5H42.4336V47.5C56.4336 42.8333 80.9336 28.5 83.4336 0Z" fill="url(#paint0_linear_479_639)"/>
<path d="M31.9329 46.5V76.5H18.9335V47.5C1.93352 36.5 -0.0670919 18 13.9329 5.5C6.33291 31.9 22.7662 43.8333 31.9329 46.5Z" fill="url(#paint1_linear_479_639)"/>
<path d="M15.9342 49.5V76.5H10.9338V52C4.43384 47.5 -2.56641 40 0.934244 23C0.134244 41.4 10.6009 48.3333 15.9342 49.5Z" fill="url(#paint2_linear_479_639)"/>
<path d="M46.4336 49.5V76.5H51.9336V53C61.9336 48.5 74.4336 42 81.4336 23C71.8336 40.6 54.1003 48 46.4336 49.5Z" fill="url(#paint3_linear_479_639)"/>
<path d="M55.4336 55.5V76.5H58.4336V57.5C67.9336 51 69.9336 51 77.4336 39.5C70.6336 48.3 59.9336 53.8333 55.4336 55.5Z" fill="url(#paint4_linear_479_639)"/>
<path d="M64.4336 61.5V76.5H66.4336V62.5C68.1003 61.1667 71.9336 57.3 73.9336 52.5C71.1336 56.5 66.4336 60.1667 64.4336 61.5Z" fill="url(#paint5_linear_479_639)"/>
<circle cx="29.4336" cy="24.5" r="8.5" fill="url(#paint6_linear_479_639)"/>
<circle cx="46.9336" cy="24" r="6" fill="url(#paint7_linear_479_639)"/>
<circle cx="58.9336" cy="19" r="4" fill="url(#paint8_linear_479_639)"/>
<circle cx="67.4336" cy="12.5" r="3.5" fill="url(#paint9_linear_479_639)"/>
<path d="M111.946 34.1658C111.151 34.1658 110.419 34.0211 109.751 33.7315C109.087 33.4368 108.511 33.0262 108.021 32.4998C107.532 31.9734 107.153 31.3575 106.884 30.6522C106.621 29.9415 106.49 29.1704 106.49 28.3387V28.1571C106.49 27.3307 106.621 26.5648 106.884 25.8594C107.153 25.154 107.529 24.5382 108.013 24.0118C108.503 23.4854 109.079 23.0748 109.743 22.78C110.406 22.4852 111.135 22.3379 111.93 22.3379C112.709 22.3379 113.433 22.4852 114.101 22.78C114.77 23.0748 115.354 23.4854 115.854 24.0118C116.359 24.5382 116.751 25.154 117.03 25.8594C117.309 26.5648 117.449 27.3307 117.449 28.1571V28.3387C117.449 29.1704 117.309 29.9415 117.03 30.6522C116.751 31.3575 116.362 31.9734 115.862 32.4998C115.362 33.0262 114.778 33.4368 114.109 33.7315C113.441 34.0211 112.719 34.1658 111.946 34.1658ZM111.946 32.0655C112.525 32.0655 113.019 31.9102 113.43 31.5997C113.841 31.2891 114.154 30.8548 114.37 30.2969C114.585 29.7389 114.693 29.0862 114.693 28.3387V28.1413C114.693 27.4096 114.583 26.7674 114.362 26.2147C114.146 25.6567 113.833 25.2225 113.422 24.9119C113.011 24.6013 112.514 24.446 111.93 24.446C111.314 24.446 110.809 24.5987 110.414 24.904C110.024 25.2093 109.735 25.6383 109.545 26.191C109.356 26.7437 109.261 27.3938 109.261 28.1413V28.3387C109.261 29.0862 109.356 29.7415 109.545 30.3048C109.74 30.8627 110.035 31.297 110.43 31.6076C110.83 31.9129 111.335 32.0655 111.946 32.0655ZM119.102 34V32.3814L120.294 32.1287V24.3829L119.102 24.1302V22.5037H128.056V25.6462H126.019L125.94 24.6198H123.066V26.4832H124.503C125.434 26.4832 126.242 26.6385 126.927 26.949C127.616 27.2543 128.151 27.6833 128.53 28.236C128.909 28.7888 129.098 29.4388 129.098 30.1863C129.098 30.9443 128.906 31.6102 128.522 32.184C128.143 32.7577 127.608 33.2052 126.919 33.5263C126.229 33.8421 125.424 34 124.503 34H119.102ZM123.066 31.8918H124.503C125.066 31.8918 125.511 31.7286 125.837 31.4023C126.169 31.0759 126.335 30.6653 126.335 30.1705C126.335 29.702 126.174 29.323 125.853 29.0335C125.532 28.744 125.082 28.5993 124.503 28.5993H123.066V31.8918ZM145.011 36.7556V34H131.067V32.3814L132.267 32.1287V24.3829L131.067 24.1302V22.5037H136.223V24.1302L135.039 24.3829V31.8918H137.897V24.3829L136.697 24.1302V22.5037H141.845V24.1302L140.66 24.3829V31.8918H143.479V24.3829L142.279 24.1302V22.5037H147.435V24.1302L146.235 24.3829V31.8918H147.751L147.625 36.7556H145.011ZM149.27 34V32.3814L150.462 32.1287V24.3829L149.27 24.1302V22.5037H158.453V25.8199H156.36L156.297 24.6355H153.234V26.9964H156.905V29.1204H153.234V31.8602H156.447L156.51 30.6206H158.579V34H149.27ZM166.391 34.1658C165.296 34.1658 164.319 33.9447 163.461 33.5026C162.603 33.0604 161.93 32.4208 161.44 31.5839C160.951 30.7417 160.706 29.7205 160.706 28.5203V27.9913C160.706 26.8859 160.93 25.9094 161.377 25.0619C161.83 24.2092 162.472 23.5433 163.304 23.0643C164.14 22.58 165.133 22.3379 166.28 22.3379C167.08 22.3379 167.841 22.4458 168.562 22.6616C169.289 22.8721 169.962 23.2353 170.583 23.7512V26.7121H168.57L168.294 25.0145C168.115 24.8935 167.925 24.7882 167.725 24.6987C167.53 24.6092 167.32 24.5408 167.094 24.4934C166.872 24.446 166.633 24.4224 166.375 24.4224C165.791 24.4224 165.28 24.5618 164.843 24.8408C164.406 25.1198 164.067 25.5251 163.825 26.0568C163.588 26.5832 163.469 27.2227 163.469 27.9755V28.5203C163.469 29.2257 163.593 29.8468 163.84 30.3837C164.088 30.9154 164.433 31.3312 164.875 31.6313C165.322 31.9313 165.838 32.0813 166.422 32.0813C166.733 32.0813 167.049 32.0497 167.37 31.9866C167.691 31.9181 168.002 31.8286 168.302 31.7181L168.578 30.0916H170.599V32.9893C170.141 33.3052 169.557 33.5815 168.846 33.8184C168.136 34.05 167.317 34.1658 166.391 34.1658ZM174.755 34V32.3814L175.956 32.1287V24.6513H174.179L174.108 25.891H172.015V22.5037H182.699V25.891H180.582L180.519 24.6513H178.727V32.1287L179.927 32.3814V34H174.755ZM184.249 34V32.3814L185.441 32.1287V24.3829L184.249 24.1302V22.5037H185.441H189.452C190.9 22.5037 192.029 22.7695 192.84 23.3011C193.65 23.8328 194.056 24.625 194.056 25.6778C194.056 26.22 193.927 26.7069 193.669 27.1385C193.411 27.5649 193.013 27.8886 192.476 28.1097C192.934 28.2097 193.308 28.3808 193.598 28.6229C193.887 28.8598 194.1 29.1493 194.237 29.4915C194.374 29.8284 194.442 30.1942 194.442 30.589C194.442 31.7155 194.066 32.5656 193.313 33.1394C192.561 33.7131 191.468 34 190.037 34H184.249ZM188.213 31.8918H190.037C190.584 31.8918 190.995 31.7839 191.268 31.5681C191.547 31.3523 191.687 31.0233 191.687 30.5811C191.687 30.2495 191.634 29.9758 191.529 29.7599C191.424 29.5389 191.26 29.3757 191.039 29.2704C190.818 29.1599 190.529 29.1046 190.171 29.1046H188.213V31.8918ZM188.213 27.2728H189.334C189.987 27.2728 190.474 27.1701 190.795 26.9648C191.121 26.7543 191.284 26.4305 191.284 25.9936C191.284 25.5146 191.132 25.1672 190.826 24.9514C190.526 24.7303 190.068 24.6198 189.452 24.6198H188.213V27.2728ZM196.119 34V32.3814L197.312 32.1287V24.3829L196.119 24.1302V22.5037H205.302V25.8199H203.21L203.147 24.6355H200.083V26.9964H203.755V29.1204H200.083V31.8602H203.297L203.36 30.6206H205.428V34H196.119ZM207.595 34V32.3814L208.787 32.1287V24.3829L207.595 24.1302V22.5037H212.751V24.1302L211.558 24.3829V27.2885H215.743V24.3829L214.551 24.1302V22.5037H215.743H218.507H219.699V24.1302L218.507 24.3829V32.1287L219.699 32.3814V34H214.551V32.3814L215.743 32.1287V29.4125H211.558V32.1287L212.751 32.3814V34H207.595ZM221.471 34V32.3814L222.663 32.1287V24.3829L221.471 24.1302V22.5037H226.627V24.1302L225.434 24.3829V27.2885H229.619V24.3829L228.427 24.1302V22.5037H229.619H232.383H233.575V24.1302L232.383 24.3829V32.1287L233.575 32.3814V34H228.427V32.3814L229.619 32.1287V29.4125H225.434V32.1287L226.627 32.3814V34H221.471ZM233.98 34V32.3814L234.786 32.2629L238.213 22.5037H241.213L244.648 32.2629L245.453 32.3814V34H241.158V32.3814L241.908 32.2392L241.56 30.9917H237.865L237.534 32.2392L238.284 32.3814V34H233.98ZM238.449 29.0493H240.968L239.847 25.5673L239.721 25.1646H239.673L239.539 25.6067L238.449 29.0493ZM257.442 32.3814V34H252.294V32.3814L253.494 32.1445V29.7915H252.483L251.812 31.8602C251.512 32.5603 251.128 33.1051 250.659 33.4947C250.191 33.8842 249.62 34.079 248.946 34.079C248.651 34.079 248.362 34.0421 248.077 33.9684C247.798 33.8895 247.554 33.7842 247.343 33.6526L247.69 31.5207C247.896 31.5891 248.09 31.6234 248.275 31.6234C248.506 31.6234 248.725 31.5576 248.93 31.426C249.135 31.2944 249.359 31.018 249.601 30.5969L250.035 29.2862L250.051 29.2546C249.272 28.9335 248.696 28.5229 248.322 28.0229C247.948 27.5228 247.761 26.8753 247.761 26.0805C247.761 24.9172 248.143 24.0302 248.906 23.4196C249.67 22.809 250.73 22.5037 252.088 22.5037H257.442V24.1302L256.257 24.3829V32.1287L257.442 32.3814ZM252.088 24.6198C251.567 24.6198 251.175 24.7566 250.912 25.0303C250.654 25.2988 250.525 25.7015 250.525 26.2384C250.525 26.7648 250.654 27.1622 250.912 27.4307C251.175 27.6991 251.567 27.8334 252.088 27.8334H253.494V24.6198H252.088ZM106.458 53V51.3814L107.642 51.1287V43.3829L106.458 43.1302V41.5037H118.499V43.1302L117.315 43.3829V51.1287L118.499 51.3814V53H113.359V51.3814L114.543 51.1287V43.6198H110.414V51.1287L111.606 51.3814V53H106.458ZM120.089 53V51.3814L120.894 51.2629L124.321 41.5037H127.322L130.756 51.2629L131.562 51.3814V53H127.266V51.3814L128.016 51.2392L127.669 49.9917H123.974L123.642 51.2392L124.392 51.3814V53H120.089ZM124.558 48.0493H127.077L125.956 44.5673L125.829 44.1646H125.782L125.648 44.6067L124.558 48.0493ZM133.357 53V50.8918H133.665C134.023 50.8444 134.315 50.7471 134.541 50.5997C134.768 50.4523 134.941 50.2259 135.062 49.9206C135.183 49.6101 135.265 49.1889 135.307 48.6573C135.349 48.1256 135.365 47.4492 135.354 46.6281L135.299 43.3829L134.107 43.1302V41.5037H144.798V43.1302L143.606 43.3829V51.1287L144.798 51.3814V53H139.65V51.3814L140.842 51.1287V43.6198H138.063L138.126 46.6281C138.136 47.7651 138.055 48.7389 137.881 49.5495C137.713 50.3549 137.455 51.0129 137.107 51.5235C136.76 52.0288 136.328 52.4025 135.812 52.6447C135.302 52.8816 134.707 53 134.028 53H133.357ZM145.235 53V51.3814L146.04 51.2629L149.467 41.5037H152.468L155.902 51.2629L156.708 51.3814V53H152.412V51.3814L153.162 51.2392L152.815 49.9917H149.12L148.788 51.2392L149.538 51.3814V53H145.235ZM149.704 48.0493H152.223L151.102 44.5673L150.975 44.1646H150.928L150.794 44.6067L149.704 48.0493ZM160.137 53V51.3814L161.337 51.1287V43.6513H159.561L159.49 44.891H157.397V41.5037H168.081V44.891H165.964L165.901 43.6513H164.109V51.1287L165.309 51.3814V53H160.137ZM168.376 53V51.3814L169.181 51.2629L172.608 41.5037H175.608L179.043 51.2629L179.848 51.3814V53H175.553V51.3814L176.303 51.2392L175.956 49.9917H172.26L171.929 51.2392L172.679 51.3814V53H168.376ZM172.845 48.0493H175.363L174.242 44.5673L174.116 44.1646H174.068L173.934 44.6067L172.845 48.0493Z" fill="#0769B2"/>
<path d="M108.072 68.5332V67.2154L109.036 67.0097V60.7038L108.072 60.4981V59.1739H115.355V61.7323H113.697L113.632 60.8966H111.293V67.0097L112.263 67.2154V68.5332H108.072ZM119.996 68.6682C119.349 68.6682 118.753 68.5503 118.209 68.3146C117.669 68.0747 117.2 67.7404 116.801 67.3119C116.403 66.8833 116.094 66.3819 115.876 65.8077C115.661 65.2292 115.554 64.6013 115.554 63.9243V63.7764C115.554 63.1036 115.661 62.4801 115.876 61.9058C116.094 61.3316 116.401 60.8302 116.795 60.4017C117.194 59.9731 117.663 59.6389 118.203 59.3989C118.743 59.1589 119.336 59.0389 119.983 59.0389C120.618 59.0389 121.207 59.1589 121.751 59.3989C122.295 59.6389 122.771 59.9731 123.178 60.4017C123.589 60.8302 123.909 61.3316 124.136 61.9058C124.363 62.4801 124.477 63.1036 124.477 63.7764V63.9243C124.477 64.6013 124.363 65.2292 124.136 65.8077C123.909 66.3819 123.592 66.8833 123.185 67.3119C122.777 67.7404 122.302 68.0747 121.757 68.3146C121.213 68.5503 120.626 68.6682 119.996 68.6682ZM119.996 66.9583C120.468 66.9583 120.87 66.8319 121.205 66.5791C121.539 66.3262 121.794 65.9727 121.97 65.5184C122.145 65.0642 122.233 64.5328 122.233 63.9243V63.7636C122.233 63.1679 122.143 62.6451 121.963 62.1951C121.787 61.7408 121.532 61.3873 121.198 61.1345C120.864 60.8816 120.459 60.7552 119.983 60.7552C119.482 60.7552 119.071 60.8795 118.749 61.128C118.432 61.3766 118.196 61.7258 118.042 62.1758C117.888 62.6258 117.811 63.155 117.811 63.7636V63.9243C117.811 64.5328 117.888 65.0663 118.042 65.5249C118.201 65.9791 118.441 66.3326 118.762 66.5855C119.088 66.834 119.499 66.9583 119.996 66.9583ZM124.734 68.5332V67.2154L125.704 67.0097V60.7038L124.734 60.4981V59.1739H125.704H129.285C130.03 59.1739 130.678 59.3046 131.226 59.566C131.775 59.8274 132.197 60.1917 132.492 60.6588C132.792 61.1216 132.942 61.6616 132.942 62.2787C132.942 62.8958 132.792 63.4357 132.492 63.8985C132.197 64.3614 131.775 64.7213 131.226 64.9785C130.678 65.2356 130.03 65.3641 129.285 65.3641H127.961V67.0097L128.931 67.2154V68.5332H124.734ZM127.961 63.635H129.285C129.743 63.635 130.09 63.5107 130.326 63.2622C130.566 63.0093 130.686 62.6858 130.686 62.2915C130.686 61.8844 130.566 61.5501 130.326 61.2887C130.09 61.0273 129.743 60.8966 129.285 60.8966H127.961V63.635ZM137.841 68.6682C137.193 68.6682 136.598 68.5503 136.054 68.3146C135.514 68.0747 135.044 67.7404 134.646 67.3119C134.247 66.8833 133.939 66.3819 133.72 65.8077C133.506 65.2292 133.399 64.6013 133.399 63.9243V63.7764C133.399 63.1036 133.506 62.4801 133.72 61.9058C133.939 61.3316 134.245 60.8302 134.639 60.4017C135.038 59.9731 135.507 59.6389 136.047 59.3989C136.587 59.1589 137.181 59.0389 137.828 59.0389C138.462 59.0389 139.051 59.1589 139.595 59.3989C140.14 59.6389 140.615 59.9731 141.023 60.4017C141.434 60.8302 141.753 61.3316 141.98 61.9058C142.207 62.4801 142.321 63.1036 142.321 63.7764V63.9243C142.321 64.6013 142.207 65.2292 141.98 65.8077C141.753 66.3819 141.436 66.8833 141.029 67.3119C140.622 67.7404 140.146 68.0747 139.602 68.3146C139.058 68.5503 138.471 68.6682 137.841 68.6682ZM137.841 66.9583C138.312 66.9583 138.715 66.8319 139.049 66.5791C139.383 66.3262 139.638 65.9727 139.814 65.5184C139.99 65.0642 140.078 64.5328 140.078 63.9243V63.7636C140.078 63.1679 139.988 62.6451 139.808 62.1951C139.632 61.7408 139.377 61.3873 139.043 61.1345C138.708 60.8816 138.303 60.7552 137.828 60.7552C137.326 60.7552 136.915 60.8795 136.594 61.128C136.276 61.3766 136.041 61.7258 135.886 62.1758C135.732 62.6258 135.655 63.155 135.655 63.7636V63.9243C135.655 64.5328 135.732 65.0663 135.886 65.5249C136.045 65.9791 136.285 66.3326 136.606 66.5855C136.932 66.834 137.343 66.9583 137.841 66.9583ZM142.437 70.828L142.321 66.8169H142.99C143.217 66.6626 143.42 66.4398 143.6 66.1484C143.78 65.857 143.928 65.4606 144.044 64.9592C144.164 64.4578 144.241 63.815 144.275 63.0307L144.462 60.6845L143.594 60.4981V59.1739H151.905V60.4981L150.941 60.7038V66.8169H151.937L151.732 70.8409H149.681V68.5332H144.564V70.828H142.437ZM145.567 66.8169H148.685V60.8966H146.692L146.538 63.0307C146.512 63.6307 146.456 64.1621 146.371 64.6249C146.289 65.0835 146.18 65.4906 146.043 65.8463C145.91 66.2019 145.751 66.5255 145.567 66.8169ZM152.497 68.5332V67.2154L153.152 67.119L155.942 59.1739H158.385L161.181 67.119L161.837 67.2154V68.5332H158.34V67.2154L158.95 67.0997L158.668 66.0841H155.659L155.389 67.0997L156 67.2154V68.5332H152.497ZM156.135 64.5028H158.186L157.273 61.668L157.17 61.3402H157.131L157.022 61.7001L156.135 64.5028ZM165.494 68.5332V67.2154L166.459 67.0097V60.7038L165.494 60.4981V59.1739H169.602V60.4981L168.715 60.7038V62.7543H169.441L170.977 60.5495C171.367 60.001 171.738 59.6174 172.09 59.3989C172.445 59.1803 172.833 59.071 173.253 59.071C173.514 59.071 173.757 59.1053 173.979 59.1739C174.207 59.2382 174.399 59.3217 174.558 59.4246L174.166 61.1537C174.089 61.128 174.018 61.1087 173.954 61.0959C173.889 61.083 173.823 61.0766 173.754 61.0766C173.583 61.0766 173.394 61.1323 173.189 61.2437C172.987 61.3552 172.754 61.5801 172.488 61.9187L171.363 63.4293L173.626 67.0547L174.674 67.2154V68.5332H170.572V67.2154L170.997 67.1447L170.99 67.1319L169.743 64.8563H168.715V67.0097L169.602 67.2154V68.5332H165.494ZM174.911 68.5332V67.2154L175.882 67.0097V60.7038L174.911 60.4981V59.1739H175.882H179.463C180.208 59.1739 180.855 59.3046 181.404 59.566C181.952 59.8274 182.374 60.1917 182.67 60.6588C182.97 61.1216 183.12 61.6616 183.12 62.2787C183.12 62.8958 182.97 63.4357 182.67 63.8985C182.374 64.3614 181.952 64.7213 181.404 64.9785C180.855 65.2356 180.208 65.3641 179.463 65.3641H178.138V67.0097L179.109 67.2154V68.5332H174.911ZM178.138 63.635H179.463C179.921 63.635 180.268 63.5107 180.504 63.2622C180.744 63.0093 180.864 62.6858 180.864 62.2915C180.864 61.8844 180.744 61.5501 180.504 61.2887C180.268 61.0273 179.921 60.8966 179.463 60.8966H178.138V63.635ZM181.847 68.5332V67.2154L182.503 67.119L185.293 59.1739H187.736L190.532 67.119L191.187 67.2154V68.5332H187.691V67.2154L188.301 67.0997L188.018 66.0841H185.01L184.74 67.0997L185.351 67.2154V68.5332H181.847ZM185.486 64.5028H187.536L186.623 61.668L186.521 61.3402H186.482L186.373 61.7001L185.486 64.5028ZM195.848 68.6682C194.956 68.6682 194.161 68.4882 193.463 68.1282C192.764 67.7683 192.216 67.2476 191.817 66.5662C191.419 65.8805 191.22 65.0492 191.22 64.0721V63.6414C191.22 62.7415 191.402 61.9465 191.766 61.2566C192.134 60.5624 192.657 60.0203 193.334 59.6303C194.016 59.236 194.824 59.0389 195.758 59.0389C196.409 59.0389 197.028 59.1267 197.616 59.3024C198.207 59.4739 198.755 59.7696 199.261 60.1895V62.6001H197.622L197.397 61.218C197.251 61.1195 197.097 61.0337 196.934 60.9609C196.776 60.888 196.604 60.8323 196.42 60.7938C196.24 60.7552 196.045 60.7359 195.835 60.7359C195.359 60.7359 194.944 60.8495 194.588 61.0766C194.232 61.3037 193.956 61.6337 193.759 62.0665C193.566 62.4951 193.469 63.0157 193.469 63.6286V64.0721C193.469 64.6463 193.57 65.152 193.772 65.5891C193.973 66.022 194.254 66.3605 194.614 66.6048C194.978 66.849 195.398 66.9712 195.874 66.9712C196.126 66.9712 196.383 66.9455 196.645 66.894C196.906 66.8383 197.159 66.7655 197.403 66.6755L197.628 65.3513H199.274V67.7104C198.901 67.9675 198.425 68.1925 197.847 68.3854C197.268 68.5739 196.602 68.6682 195.848 68.6682ZM199.865 68.5332V67.2154L200.836 67.0097V60.7038L199.865 60.4981V59.1739H204.063V60.4981L203.092 60.7038V63.0693H206.499V60.7038L205.529 60.4981V59.1739H206.499H208.749H209.72V60.4981L208.749 60.7038V67.0097L209.72 67.2154V68.5332H205.529V67.2154L206.499 67.0097V64.7985H203.092V67.0097L204.063 67.2154V68.5332H199.865ZM214.824 68.6682C214.176 68.6682 213.581 68.5503 213.037 68.3146C212.497 68.0747 212.027 67.7404 211.629 67.3119C211.23 66.8833 210.922 66.3819 210.703 65.8077C210.489 65.2292 210.382 64.6013 210.382 63.9243V63.7764C210.382 63.1036 210.489 62.4801 210.703 61.9058C210.922 61.3316 211.228 60.8302 211.622 60.4017C212.021 59.9731 212.49 59.6389 213.03 59.3989C213.57 59.1589 214.164 59.0389 214.811 59.0389C215.445 59.0389 216.034 59.1589 216.578 59.3989C217.123 59.6389 217.598 59.9731 218.005 60.4017C218.417 60.8302 218.736 61.3316 218.963 61.9058C219.19 62.4801 219.304 63.1036 219.304 63.7764V63.9243C219.304 64.6013 219.19 65.2292 218.963 65.8077C218.736 66.3819 218.419 66.8833 218.012 67.3119C217.605 67.7404 217.129 68.0747 216.585 68.3146C216.041 68.5503 215.454 68.6682 214.824 68.6682ZM214.824 66.9583C215.295 66.9583 215.698 66.8319 216.032 66.5791C216.366 66.3262 216.621 65.9727 216.797 65.5184C216.973 65.0642 217.061 64.5328 217.061 63.9243V63.7636C217.061 63.1679 216.971 62.6451 216.791 62.1951C216.615 61.7408 216.36 61.3873 216.026 61.1345C215.691 60.8816 215.286 60.7552 214.811 60.7552C214.309 60.7552 213.898 60.8795 213.577 61.128C213.259 61.3766 213.024 61.7258 212.869 62.1758C212.715 62.6258 212.638 63.155 212.638 63.7636V63.9243C212.638 64.5328 212.715 65.0663 212.869 65.5249C213.028 65.9791 213.268 66.3326 213.589 66.5855C213.915 66.834 214.326 66.9583 214.824 66.9583ZM219.42 70.828L219.304 66.8169H219.972C220.2 66.6626 220.403 66.4398 220.583 66.1484C220.763 65.857 220.911 65.4606 221.027 64.9592C221.147 64.4578 221.224 63.815 221.258 63.0307L221.445 60.6845L220.577 60.4981V59.1739H228.888V60.4981L227.924 60.7038V66.8169H228.92L228.715 70.8409H226.664V68.5332H221.547V70.828H219.42ZM222.55 66.8169H225.668V60.8966H223.675L223.521 63.0307C223.495 63.6307 223.439 64.1621 223.354 64.6249C223.272 65.0835 223.163 65.4906 223.026 65.8463C222.893 66.2019 222.734 66.5255 222.55 66.8169ZM229.48 68.5332V67.2154L230.135 67.119L232.925 59.1739H235.368L238.164 67.119L238.82 67.2154V68.5332H235.323V67.2154L235.933 67.0997L235.651 66.0841H232.642L232.372 67.0997L232.983 67.2154V68.5332H229.48ZM233.118 64.5028H235.169L234.256 61.668L234.153 61.3402H234.114L234.005 61.7001L233.118 64.5028ZM239.231 68.5332V67.2154L240.202 67.0097V60.7038L239.231 60.4981V59.1739H240.202H243.782C244.528 59.1739 245.175 59.3046 245.723 59.566C246.272 59.8274 246.694 60.1917 246.99 60.6588C247.29 61.1216 247.44 61.6616 247.44 62.2787C247.44 62.8958 247.29 63.4357 246.99 63.8985C246.694 64.3614 246.272 64.7213 245.723 64.9785C245.175 65.2356 244.528 65.3641 243.782 65.3641H242.458V67.0097L243.429 67.2154V68.5332H239.231ZM242.458 63.635H243.782C244.241 63.635 244.588 63.5107 244.824 63.2622C245.063 63.0093 245.183 62.6858 245.183 62.2915C245.183 61.8844 245.063 61.5501 244.824 61.2887C244.588 61.0273 244.241 60.8966 243.782 60.8966H242.458V63.635ZM246.167 68.5332V67.2154L246.823 67.119L249.612 59.1739H252.055L254.851 67.119L255.507 67.2154V68.5332H252.01V67.2154L252.621 67.0997L252.338 66.0841H249.33L249.06 67.0997L249.67 67.2154V68.5332H246.167ZM249.805 64.5028H251.856L250.943 61.668L250.84 61.3402H250.802L250.692 61.7001L249.805 64.5028Z" fill="#CF0223"/>
<defs>
<linearGradient id="paint0_linear_479_639" x1="27.4336" y1="35.5" x2="80.4336" y2="35.5" gradientUnits="userSpaceOnUse">
<stop stop-color="#B00721"/>
<stop offset="1" stop-color="#DE0024"/>
</linearGradient>
<linearGradient id="paint1_linear_479_639" x1="6.89563" y1="38.4477" x2="30.5916" y2="38.4477" gradientUnits="userSpaceOnUse">
<stop stop-color="#B00721"/>
<stop offset="1" stop-color="#DE0024"/>
</linearGradient>
<linearGradient id="paint2_linear_479_639" x1="-2.73158" y1="38" x2="-2.73158" y2="75" gradientUnits="userSpaceOnUse">
<stop stop-color="#0769B2"/>
<stop offset="1" stop-color="#00A8EC"/>
</linearGradient>
<linearGradient id="paint3_linear_479_639" x1="40.4336" y1="38" x2="40.4336" y2="75" gradientUnits="userSpaceOnUse">
<stop stop-color="#0769B2"/>
<stop offset="1" stop-color="#00A8EC"/>
</linearGradient>
<linearGradient id="paint4_linear_479_639" x1="51.6622" y1="49.8738" x2="51.6622" y2="75.4626" gradientUnits="userSpaceOnUse">
<stop stop-color="#0769B2"/>
<stop offset="1" stop-color="#00A8EC"/>
</linearGradient>
<linearGradient id="paint5_linear_479_639" x1="62.805" y1="59.229" x2="62.805" y2="75.8271" gradientUnits="userSpaceOnUse">
<stop stop-color="#0769B2"/>
<stop offset="1" stop-color="#00A8EC"/>
</linearGradient>
<linearGradient id="paint6_linear_479_639" x1="22.327" y1="23.8889" x2="37.0975" y2="23.8889" gradientUnits="userSpaceOnUse">
<stop stop-color="#B00721"/>
<stop offset="1" stop-color="#DE0024"/>
</linearGradient>
<linearGradient id="paint7_linear_479_639" x1="37.4947" y1="24.2804" x2="55.1924" y2="24.2804" gradientUnits="userSpaceOnUse">
<stop stop-color="#0769B2"/>
<stop offset="1" stop-color="#00A8EC"/>
</linearGradient>
<linearGradient id="paint8_linear_479_639" x1="52.641" y1="19.1869" x2="64.4395" y2="19.1869" gradientUnits="userSpaceOnUse">
<stop stop-color="#0769B2"/>
<stop offset="1" stop-color="#00A8EC"/>
</linearGradient>
<linearGradient id="paint9_linear_479_639" x1="61.9275" y1="12.6636" x2="72.2512" y2="12.6636" gradientUnits="userSpaceOnUse">
<stop stop-color="#0769B2"/>
<stop offset="1" stop-color="#00A8EC"/>
</linearGradient>
</defs>
</svg>
