<svg width="231" height="107" viewBox="0 0 231 107" fill="none" xmlns="http://www.w3.org/2000/svg">
<path d="M0 0H231V74.7746H0V0Z" fill="#0A5FAA"/>
<path d="M0 74.7754H231V106.822H0V74.7754Z" fill="#BE1414"/>
<path d="M36.6315 44.0993H28.0372V37.6654H36.6315C37.8027 37.6654 38.7524 37.4676 39.4804 37.0719C40.2085 36.6762 40.7387 36.1302 41.0711 35.4338C41.4193 34.7215 41.5934 33.9222 41.5934 33.0359C41.5934 32.0862 41.4193 31.2078 41.0711 30.4006C40.7387 29.5934 40.2085 28.9445 39.4804 28.4539C38.7524 27.9474 37.8027 27.6941 36.6315 27.6941H31.171V55.8274H22.8379V21.2603H36.6315C39.4013 21.2603 41.7833 21.7668 43.7776 22.7797C45.7877 23.7927 47.3308 25.1855 48.4071 26.9582C49.4834 28.715 50.0215 30.7251 50.0215 32.9884C50.0215 35.2201 49.4834 37.1669 48.4071 38.8287C47.3308 40.4906 45.7877 41.7885 43.7776 42.7223C41.7833 43.6403 39.4013 44.0993 36.6315 44.0993Z" fill="#FEFFFF"/>
<path d="M83.7577 37.8553V39.2561C83.7577 41.8993 83.3857 44.2734 82.6419 46.3784C81.9138 48.4676 80.8771 50.2561 79.5318 51.7439C78.1864 53.2159 76.5958 54.3475 74.7598 55.1389C72.9238 55.9145 70.8979 56.3022 68.6821 56.3022C66.4504 56.3022 64.4087 55.9145 62.5568 55.1389C60.7209 54.3475 59.1223 53.2159 57.7611 51.7439C56.4158 50.2561 55.3712 48.4676 54.6273 46.3784C53.8992 44.2734 53.5352 41.8993 53.5352 39.2561V37.8553C53.5352 35.2122 53.8992 32.8381 54.6273 30.733C55.3712 28.628 56.4079 26.8395 57.7374 25.3675C59.0827 23.8797 60.6734 22.7481 62.5094 21.9725C64.3612 21.1811 66.4029 20.7855 68.6346 20.7855C70.8504 20.7855 72.8763 21.1811 74.7123 21.9725C76.5641 22.7481 78.1627 23.8797 79.508 25.3675C80.8534 26.8395 81.898 28.628 82.6419 30.733C83.3857 32.8381 83.7577 35.2122 83.7577 37.8553ZM75.3058 39.2561V37.8079C75.3058 36.0985 75.1555 34.5949 74.8548 33.297C74.5699 31.9834 74.1425 30.8834 73.5727 29.997C73.0029 29.1107 72.2986 28.4459 71.4598 28.0028C70.6367 27.5438 69.695 27.3143 68.6346 27.3143C67.5267 27.3143 66.5612 27.5438 65.7382 28.0028C64.9151 28.4459 64.2266 29.1107 63.6727 29.997C63.1187 30.8834 62.6993 31.9834 62.4144 33.297C62.1453 34.5949 62.0108 36.0985 62.0108 37.8079V39.2561C62.0108 40.9496 62.1453 42.4532 62.4144 43.7669C62.6993 45.0647 63.1187 46.1648 63.6727 47.0669C64.2425 47.9691 64.9389 48.6497 65.7619 49.1087C66.6008 49.5677 67.5741 49.7972 68.6821 49.7972C69.7425 49.7972 70.6842 49.5677 71.5073 49.1087C72.3303 48.6497 73.0188 47.9691 73.5727 47.0669C74.1425 46.1648 74.5699 45.0647 74.8548 43.7669C75.1555 42.4532 75.3058 40.9496 75.3058 39.2561Z" fill="#FEFFFF"/>
<path d="M107.736 44.123H116.046C115.935 46.5288 115.286 48.6497 114.099 50.4856C112.912 52.3216 111.266 53.754 109.161 54.7828C107.072 55.7958 104.602 56.3022 101.753 56.3022C99.4427 56.3022 97.3772 55.9145 95.557 55.1389C93.7527 54.3634 92.2175 53.2475 90.9513 51.7914C89.7009 50.3353 88.7433 48.5705 88.0786 46.4971C87.4297 44.4237 87.1052 42.0892 87.1052 39.4935V37.6179C87.1052 35.0222 87.4455 32.6877 88.1261 30.6143C88.8225 28.5251 89.8038 26.7524 91.07 25.2963C92.352 23.8243 93.8872 22.7006 95.6757 21.925C97.4642 21.1495 99.4506 20.7617 101.635 20.7617C104.642 20.7617 107.182 21.2999 109.256 22.3761C111.329 23.4524 112.936 24.9322 114.075 26.8157C115.215 28.6833 115.887 30.8121 116.093 33.2021H107.784C107.752 31.9042 107.53 30.8201 107.119 29.9495C106.707 29.0632 106.059 28.3985 105.172 27.9553C104.286 27.5121 103.107 27.2905 101.635 27.2905C100.606 27.2905 99.7117 27.4805 98.952 27.8603C98.1923 28.2402 97.5592 28.8416 97.0527 29.6647C96.5463 30.4877 96.1664 31.556 95.9132 32.8697C95.6758 34.1676 95.557 35.7345 95.557 37.5705V39.4935C95.557 41.3295 95.6678 42.8964 95.8894 44.1942C96.111 45.4921 96.4671 46.5525 96.9578 47.3756C97.4484 48.1986 98.0815 48.8079 98.8571 49.2036C99.6484 49.5835 100.614 49.7734 101.753 49.7734C103.02 49.7734 104.088 49.5756 104.959 49.1799C105.829 48.7684 106.502 48.1511 106.977 47.3281C107.451 46.4892 107.705 45.4209 107.736 44.123Z" fill="#FEFFFF"/>
<path d="M139.644 44.123H147.954C147.843 46.5288 147.194 48.6497 146.007 50.4856C144.82 52.3216 143.174 53.754 141.069 54.7828C138.98 55.7958 136.511 56.3022 133.662 56.3022C131.351 56.3022 129.285 55.9145 127.465 55.1389C125.661 54.3634 124.126 53.2475 122.859 51.7914C121.609 50.3353 120.651 48.5705 119.987 46.4971C119.338 44.4237 119.013 42.0892 119.013 39.4935V37.6179C119.013 35.0222 119.354 32.6877 120.034 30.6143C120.731 28.5251 121.712 26.7524 122.978 25.2963C124.26 23.8243 125.795 22.7006 127.584 21.925C129.372 21.1495 131.359 20.7617 133.543 20.7617C136.55 20.7617 139.09 21.2999 141.164 22.3761C143.237 23.4524 144.844 24.9322 145.983 26.8157C147.123 28.6833 147.795 30.8121 148.001 33.2021H139.692C139.66 31.9042 139.439 30.8201 139.027 29.9495C138.616 29.0632 137.967 28.3985 137.08 27.9553C136.194 27.5121 135.015 27.2905 133.543 27.2905C132.514 27.2905 131.62 27.4805 130.86 27.8603C130.1 28.2402 129.467 28.8416 128.961 29.6647C128.454 30.4877 128.075 31.556 127.821 32.8697C127.584 34.1676 127.465 35.7345 127.465 37.5705V39.4935C127.465 41.3295 127.576 42.8964 127.798 44.1942C128.019 45.4921 128.375 46.5525 128.866 47.3756C129.357 48.1986 129.99 48.8079 130.765 49.2036C131.557 49.5835 132.522 49.7734 133.662 49.7734C134.928 49.7734 135.996 49.5756 136.867 49.1799C137.737 48.7684 138.41 48.1511 138.885 47.3281C139.359 46.4892 139.613 45.4209 139.644 44.123Z" fill="#FEFFFF"/>
<path d="M159.753 43.0784L172.17 21.2603H180.503V55.8274H172.17V34.033L159.753 55.8274H151.42V21.2603H159.753V43.0784Z" fill="#FEFFFF"/>
<path d="M203.603 43.6957H194.368L191.899 42.6748C189.081 41.7885 186.937 40.4748 185.465 38.7338C183.993 36.9769 183.257 34.7373 183.257 32.015C183.257 29.6409 183.787 27.6625 184.848 26.0797C185.908 24.4812 187.412 23.2783 189.358 22.4711C191.305 21.6639 193.616 21.2603 196.291 21.2603H208.826V55.8274H200.469V27.6941H196.291C194.629 27.6941 193.426 28.1294 192.682 28.9999C191.938 29.8546 191.566 31.1049 191.566 32.751C191.566 34.0172 191.74 35.0143 192.089 35.7424C192.453 36.4705 192.983 36.9928 193.679 37.3093C194.376 37.61 195.246 37.7604 196.291 37.7604H203.556L203.603 43.6957ZM197.193 40.5856L189.857 55.8274H180.788L188.029 40.5856H197.193Z" fill="#FEFFFF"/>
<path d="M71.5365 83.7129V101.48H67.2656V83.7129H71.5365ZM81.7867 83.7129L75.4048 94.4512H70.7922L70.2797 90.583H73.1961L76.6128 83.7129H81.7867ZM77.345 101.48L73.1839 93.7068L76.2956 90.8392L82.3969 101.48H77.345Z" fill="#FEFFFF"/>
<path d="M89.0961 94.7807L93.2938 83.7129H97.821L91.8295 97.8069C91.6017 98.3276 91.3373 98.8238 91.0363 99.2956C90.7435 99.7675 90.3937 100.186 89.9869 100.553C89.5883 100.919 89.1165 101.207 88.5714 101.419C88.0264 101.63 87.3878 101.736 86.6556 101.736C86.4766 101.736 86.257 101.732 85.9967 101.724C85.7445 101.724 85.5248 101.72 85.3377 101.712L85.2645 98.3926C85.3703 98.4171 85.5167 98.4333 85.7038 98.4415C85.8909 98.4415 86.0251 98.4415 86.1065 98.4415C86.5946 98.4415 86.981 98.3845 87.2657 98.2706C87.5505 98.1486 87.7742 97.9696 87.9369 97.7337C88.1077 97.4897 88.2541 97.1805 88.3762 96.8063L89.0961 94.7807ZM86.7166 83.7129L90.353 91.4249L91.7441 96.3548H88.669L82.165 83.7129H86.7166Z" fill="#FEFFFF"/>
<path d="M111.28 83.7129V87.0198H103.556V101.48H99.2853V83.7129H111.28ZM101.97 89.8264H105.789C107.229 89.8264 108.482 90.0664 109.548 90.5464C110.613 91.0263 111.435 91.6975 112.013 92.5598C112.598 93.4221 112.891 94.4309 112.891 95.586C112.891 96.4565 112.724 97.2537 112.391 97.9778C112.057 98.6936 111.577 99.316 110.951 99.8448C110.333 100.365 109.588 100.768 108.718 101.053C107.847 101.338 106.871 101.48 105.789 101.48H99.2975V83.7129H103.593V98.1852H105.789C106.399 98.1852 106.912 98.0672 107.327 97.8313C107.75 97.5954 108.071 97.2822 108.291 96.8917C108.51 96.4931 108.62 96.0497 108.62 95.5616C108.62 95.0898 108.51 94.6708 108.291 94.3048C108.071 93.9387 107.75 93.6499 107.327 93.4384C106.912 93.2269 106.399 93.1211 105.789 93.1211H101.97V89.8264Z" fill="#FEFFFF"/>
<path d="M122.434 87.4469L118.102 101.48H113.501L120.03 83.7129H122.946L122.434 87.4469ZM126.021 101.48L121.677 87.4469L121.116 83.7129H124.069L130.634 101.48H126.021ZM125.85 94.8539V98.1608H116.735V94.8539H125.85Z" fill="#FEFFFF"/>
<path d="M143.91 90.766V94.0607H134.795V90.766H143.91ZM136.223 83.7129V101.48H131.94V83.7129H136.223ZM146.79 83.7129V101.48H142.519V83.7129H146.79Z" fill="#FEFFFF"/>
<path d="M152.196 89.8264H156.015C157.455 89.8264 158.708 90.0664 159.774 90.5464C160.839 91.0263 161.661 91.6975 162.239 92.5598C162.824 93.4221 163.117 94.4309 163.117 95.586C163.117 96.4565 162.95 97.2537 162.617 97.9778C162.283 98.6936 161.803 99.316 161.177 99.8448C160.559 100.365 159.814 100.768 158.944 101.053C158.073 101.338 157.097 101.48 156.015 101.48H149.524V83.7129H153.819V98.1852H156.015C156.625 98.1852 157.138 98.0672 157.553 97.8313C157.976 97.5954 158.297 97.2822 158.517 96.8917C158.736 96.4931 158.846 96.0497 158.846 95.5616C158.846 95.0898 158.736 94.6708 158.517 94.3048C158.297 93.9387 157.976 93.6499 157.553 93.4384C157.138 93.2269 156.625 93.1211 156.015 93.1211H152.196V89.8264Z" fill="#FEFFFF"/>
</svg>
