<svg width="324" height="95" viewBox="0 0 324 95" fill="none" xmlns="http://www.w3.org/2000/svg">
<path fill-rule="evenodd" clip-rule="evenodd" d="M104.304 13.1769L91.1031 13.2172C91.2264 16.806 92.8186 18.5403 96.5334 18.5403C98.7038 18.5403 101.085 18.13 102.126 17.8004L102.875 17.5118V21.02C101.201 21.8065 98.908 22.216 95.9411 22.216C88.9264 22.216 85.9595 18.3387 85.9595 11.2409C85.9595 4.47362 89.382 0.353516 95.5263 0.353516C101.412 0.353516 104.337 4.02299 104.337 11.3286C104.345 12.1414 104.345 12.7666 104.304 13.1769ZM99.6228 10.0853C99.6228 5.99927 98.2411 3.93534 95.4446 3.93534C92.4777 3.93534 90.9742 6.12027 90.9742 10.0853H99.6228Z" fill="black"/>
<path d="M68.2617 0.924374V4.63418H74.8617V21.5908H79.8293V4.63418H86.3884V0.924374H68.2617Z" fill="black"/>
<path fill-rule="evenodd" clip-rule="evenodd" d="M194.459 67.8498C183.389 67.8498 177.857 61.1096 177.857 47.5866C177.857 34.394 182.995 27.4918 194.459 27.4918C205.53 27.4918 211.062 34.1722 211.062 47.5866C211.062 61.1158 205.523 67.8498 194.459 67.8498ZM194.453 33.8496C189.03 33.8496 186.907 38.7624 186.907 47.6471C186.907 56.6397 189.091 61.3912 194.453 61.3912C199.875 61.3912 201.999 56.7002 201.999 47.6471C201.999 38.4335 199.481 33.8496 194.453 33.8496Z" fill="black"/>
<path d="M126.492 61.1693C129.452 61.1693 132.582 60.6186 133.923 60.175L134.93 59.8926V65.8541C132.915 67.016 129.622 67.6217 124.982 67.6217C113.857 67.6217 108.325 60.9405 108.325 47.6339C108.325 34.9921 114.027 27.7066 124.982 27.7066C128.949 27.7066 132.582 28.3178 133.923 28.9228L134.875 29.3129V35.4489C132.752 34.6221 129.956 34.1784 126.492 34.1784C120.178 34.1784 117.048 38.6483 117.048 47.6471C117.048 56.6397 120.178 61.1693 126.492 61.1693Z" fill="black"/>
<path fill-rule="evenodd" clip-rule="evenodd" d="M80.0461 67.0237L82.1152 60.1215H94.689L96.8122 67.0237H105.528L93.4573 28.1573H83.394L71.4321 67.0237H80.0461ZM88.4292 35.1673L89.0411 38.6483L93.1784 53.7769H83.6186L87.756 38.7088L88.4292 35.1673Z" fill="black"/>
<path d="M25.8304 49.7444L36.1183 67.0167H26.2797L18.5635 53.4945C17.3931 51.3437 16.4411 50.793 14.8213 50.793H12.365V67.0237H3.92773V28.3791H12.365V44.6633H14.8213L25.3881 28.3791H35.2817L22.0881 46.2091C23.374 46.5992 24.6599 47.7549 25.8304 49.7444Z" fill="black"/>
<path fill-rule="evenodd" clip-rule="evenodd" d="M65.2886 50.8466C62.8322 53.3867 59.1442 54.6572 54.2795 54.6572H48.5837V67.0237H40.2556V28.3791H54.2795C59.1984 28.3791 62.8864 29.6496 65.2886 32.1362C67.7449 34.6159 68.9766 37.768 68.9766 41.4646C68.9766 45.1605 67.7449 48.2521 65.2886 50.8466ZM53.4555 34.6694H48.5837V48.4677H53.8915C58.2802 48.4134 60.5181 45.4699 60.3689 41.0411C60.2463 37.4453 57.0964 34.6694 53.4555 34.6694Z" fill="black"/>
<path d="M149.633 51.0684H163.269V67.0237H171.598V28.3791H163.269V44.3879H149.633V28.3791H141.244V67.0237H149.633V51.0684Z" fill="black"/>
<path fill-rule="evenodd" clip-rule="evenodd" d="M219.384 50.3494C218.771 56.922 216.982 60.2285 214.015 60.2285L214.743 74.9134H221.173L221.561 67.0167H243.246L243.695 74.9134H250.125L250.853 60.175L245.709 60.0074V28.3791H221.227L219.384 50.3494ZM237.32 60.0074H224.8C226.14 57.8566 226.977 54.9263 227.372 51.2297L228.713 35.1068H237.32V60.0074Z" fill="black"/>
<path fill-rule="evenodd" clip-rule="evenodd" d="M264.04 60.1215L261.971 67.0237H253.364L265.326 28.1573H275.382L287.453 67.0237H278.737L276.614 60.1215H264.04ZM270.967 38.6483L270.354 35.1673L269.681 38.7088L265.543 53.7769H275.103L270.967 38.6483Z" fill="black"/>
<path fill-rule="evenodd" clip-rule="evenodd" d="M306.403 54.6572C311.268 54.6572 314.956 53.3867 317.412 50.8466C319.868 48.2521 321.1 45.1605 321.1 41.4646C321.1 37.768 319.868 34.6159 317.412 32.1362C315.01 29.6496 311.323 28.3791 306.403 28.3791H292.373V67.0237H300.701V54.6572H306.403ZM300.701 34.6694H305.573C309.213 34.6694 312.363 37.4453 312.486 41.0411C312.636 45.4699 310.397 48.4134 306.008 48.4677H300.701V34.6694Z" fill="black"/>
<path d="M121.423 4.63418V21.5908H126.349V0.924374H110.733L109.774 12.2694C109.723 12.8372 109.664 13.3592 109.597 13.8338L109.549 14.1534L109.502 14.4349L109.472 14.5994L109.425 14.8546C109.247 15.7457 109.03 16.4097 108.774 16.8456C108.311 17.6321 107.562 18.002 106.474 18.002L106.515 21.6312C109.278 21.6312 111.237 20.9323 112.448 19.568C113.659 18.1634 114.367 15.8109 114.659 12.4703L115.285 4.63418H121.423Z" fill="black"/>
<path fill-rule="evenodd" clip-rule="evenodd" d="M146.061 13.1769L132.86 13.2172C132.984 16.806 134.575 18.5403 138.291 18.5403C140.461 18.5403 142.843 18.13 143.884 17.8004L144.632 17.5118V21.02C142.958 21.8065 140.665 22.216 137.698 22.216C130.684 22.216 127.717 18.3387 127.717 11.2409C127.717 4.47362 131.139 0.353516 137.284 0.353516C143.17 0.353516 146.095 4.02299 146.095 11.3286C146.109 12.1414 146.109 12.7666 146.061 13.1769ZM141.387 10.0853C141.387 5.99927 140.006 3.93534 137.209 3.93534C134.242 3.93534 132.738 6.12027 132.738 10.0853H141.387Z" fill="black"/>
<path d="M159.724 14.1239L163.854 21.5908V21.5978H169.495L163.854 11.7784C163.398 10.9113 162.854 10.3738 162.228 10.1248L168.657 0.884042H163.187L157.927 9.29877H155.09L155.212 6.90598V0.843709H150.246V21.5908H155.212V12.8472H158.261C158.292 12.8472 158.324 12.8488 158.355 12.8519C158.388 12.855 158.421 12.8604 158.454 12.8674C158.487 12.8744 158.52 12.8837 158.553 12.8946L158.604 12.9116C158.732 12.9605 158.86 13.0365 158.985 13.1412C159.238 13.3522 159.486 13.6772 159.724 14.1239Z" fill="black"/>
<path fill-rule="evenodd" clip-rule="evenodd" d="M189.329 21.5908H185.819L185.233 19.817C183.519 21.262 181.477 22.0011 179.096 22.0011C174.462 22.0011 171.659 19.4874 171.659 15.482C171.659 10.9051 175.333 8.76127 181.307 8.76127H184.437V8.30365C184.437 5.33301 183.519 4.05634 180.388 4.05634C179.429 4.05634 178.34 4.137 177.129 4.30531C176.578 4.38443 176.082 4.46199 175.642 4.53567C175.149 4.61789 174.726 4.69468 174.374 4.76216L173.333 5.01113V1.50221C175.795 0.763044 178.3 0.386867 180.851 0.386867C186.989 0.386867 189.329 3.14886 189.329 8.72093V21.5908ZM184.403 16.806V11.9398H181.729C178.218 11.9398 176.469 13.0156 176.469 15.1997C176.469 17.1349 177.973 18.2913 180.273 18.2913C181.729 18.2913 183.11 17.7934 184.403 16.806Z" fill="black"/>
<path d="M212.178 0.924374H207.368V9.0498H199.393V0.924374H194.63V21.5908H199.393V12.9682H207.374V21.5908H212.178V0.924374Z" fill="black"/>
<path fill-rule="evenodd" clip-rule="evenodd" d="M234.06 21.5908H230.548L229.964 19.817C228.249 21.262 226.208 22.0011 223.826 22.0011C219.193 22.0011 216.389 19.4874 216.389 15.482C216.389 10.9051 220.064 8.76127 226.038 8.76127H229.167V8.30365C229.167 5.33301 228.249 4.05634 225.119 4.05634C224.16 4.05634 223.071 4.137 221.86 4.30531C220.689 4.47285 219.771 4.63418 219.104 4.76216L218.063 5.01113V1.50221C220.526 0.763044 223.03 0.386867 225.582 0.386867C231.719 0.386867 234.06 3.14886 234.06 8.72093V21.5908ZM229.134 16.806V11.9398H226.46C222.949 11.9398 221.2 13.0156 221.2 15.1997C221.2 17.1349 222.703 18.2913 225.003 18.2913C225.521 18.2913 226.029 18.2285 226.526 18.1029C227.428 17.8756 228.296 17.442 229.134 16.806Z" fill="black"/>
<path d="M252.31 4.63418V21.5908H257.236V0.924374H241.62L240.66 12.2694C240.456 14.5342 240.122 16.0599 239.66 16.8456C239.197 17.6321 238.448 18.002 237.36 18.002L237.401 21.6312C240.164 21.6312 242.123 20.9323 243.334 19.568C244.546 18.1634 245.253 15.8109 245.546 12.4703L246.172 4.63418H252.31Z" fill="black"/>
<path d="M2.09186 12.8257H68.9364C69.7329 12.8257 70.3857 12.1804 70.3927 11.3947C70.3927 10.6082 69.74 9.96289 68.9435 9.96289H2.09186C1.60327 9.96289 1.16809 10.2064 0.904941 10.5764C0.739982 10.8091 0.642578 11.0914 0.642578 11.3947C0.642578 12.1804 1.29613 12.8257 2.09186 12.8257Z" fill="#FFCD05"/>
<path d="M262.217 12.8257H322.55C323.346 12.8257 324 12.1804 324 11.3947C324 10.6082 323.346 9.96289 322.55 9.96289H262.217C261.421 9.96289 260.768 10.6082 260.768 11.3947C260.768 12.1804 261.421 12.8257 262.217 12.8257Z" fill="#FFCD05"/>
<path d="M322.551 83.6765H2.09186C1.29613 83.6765 0.642578 83.0312 0.642578 82.2447C0.642578 81.4583 1.29613 80.8129 2.09186 80.8129H322.551C323.347 80.8129 324 81.4583 324 82.2447C323.993 83.0312 323.347 83.6765 322.551 83.6765Z" fill="#FFCD05"/>
<path d="M2.09186 94.8595H322.551C323.347 94.8595 323.993 94.2211 324 93.4277C324 92.6412 323.347 91.9966 322.551 91.9966H2.09186C1.29613 91.9966 0.642578 92.6412 0.642578 93.4277C0.642578 94.2141 1.29613 94.8595 2.09186 94.8595Z" fill="#FFCD05"/>
</svg>
