<svg width="163" height="72" viewBox="0 0 163 72" fill="none" xmlns="http://www.w3.org/2000/svg">
<path d="M53.6992 2.9053e-10H5.91397C5.13512 -7.71948e-06 4.36395 0.153828 3.64472 0.452675C2.92548 0.751522 2.27237 1.18949 1.72287 1.74144C1.17336 2.29339 0.738297 2.94845 0.442648 3.669C0.146999 4.38955 -0.00340908 5.1614 5.86227e-05 5.94024V65.7113C5.86227e-05 67.2797 0.623129 68.784 1.7322 69.8931C2.84128 71.0021 4.3455 71.6252 5.91397 71.6252C10.0953 71.6252 15.2667 70.7299 19.0794 68.9921C22.3181 67.507 23.7821 64.4053 23.7821 61.214C23.7821 58.3439 23.8769 53.7307 23.7821 51.2082C23.682 47.7378 23.8505 43.725 17.884 40.6759C16.1409 39.7807 10.7957 38.2113 6.72496 33.1821C4.78701 30.786 7.64654 28.7059 9.61609 30.6333C11.3487 32.2711 17.0203 37.6321 27.4052 37.0107C36.8843 36.4472 42.5876 31.0177 45.7262 26.2993C50.1919 19.5796 55.2053 29.0271 52.5722 29.8381C50.3499 30.5227 48.7595 28.332 48.7595 28.332C47.2429 32.0762 44.5466 35.2939 37.4109 39.8333C33.8721 42.0662 29.8329 44.22 29.8329 50.4341V51.1135C29.8329 51.1135 37.0318 40.7286 53.7835 44.6097C45.4261 45.8368 47.8959 54.0625 45.6999 59.0917C44.8415 61.3298 42.5402 63.1098 39.3805 63.1098C37.6569 63.0619 36.0199 62.3444 34.8165 61.1096C33.6131 59.8747 32.9381 58.2197 32.9347 56.4955C32.9392 56.0904 32.9815 55.6867 33.0611 55.2895C33.4318 53.8786 34.1403 52.5791 35.1254 51.5032C37.1424 49.323 41.3816 47.6536 43.6882 46.9532C47.0006 46.1843 45.7052 45.1785 43.3564 45.8526C41.0077 46.5266 31.3074 48.7963 29.9382 57.4908C29.8961 57.7594 29.8329 59.3813 29.8329 59.6605C29.8329 65.6428 32.9926 67.5966 35.9469 68.9552C38.6327 70.1981 44.4413 71.5883 53.6992 71.5883C54.4778 71.5954 55.25 71.4472 55.9706 71.1525C56.6913 70.8578 57.3461 70.4224 57.8966 69.8718C58.4472 69.3213 58.8825 68.6665 59.1773 67.9459C59.472 67.2252 59.6201 66.453 59.6131 65.6744V5.94024C59.6166 5.1614 59.4662 4.38955 59.1705 3.669C58.8749 2.94845 58.4398 2.29339 57.8903 1.74144C57.3408 1.18949 56.6877 0.751522 55.9685 0.452675C55.2492 0.153828 54.4781 -7.71948e-06 53.6992 2.9053e-10ZM20.8857 25.167C20.0374 25.1681 19.2079 24.9174 18.5022 24.4468C17.7964 23.9762 17.2462 23.3067 16.9211 22.5232C16.596 21.7397 16.5106 20.8774 16.6759 20.0454C16.8411 19.2134 17.2495 18.4491 17.8493 17.8492C18.4491 17.2494 19.2134 16.8411 20.0454 16.6758C20.8775 16.5106 21.7398 16.5959 22.5233 16.921C23.3068 17.2461 23.9762 17.7964 24.4469 18.5021C24.9175 19.2079 25.1681 20.0374 25.1671 20.8856C25.1657 22.0207 24.7142 23.1089 23.9116 23.9115C23.1089 24.7141 22.0208 25.1656 20.8857 25.167ZM35.7995 27.0629C35.1682 27.0628 34.551 26.8759 34.0258 26.5256C33.5006 26.1752 33.0909 25.6772 32.8483 25.0944C32.6058 24.5115 32.5412 23.8699 32.6629 23.2504C32.7845 22.6309 33.0869 22.0613 33.5318 21.6134C33.9768 21.1655 34.5444 20.8594 35.1631 20.7337C35.7817 20.608 36.4238 20.6683 37.0082 20.907C37.5927 21.1458 38.0934 21.5522 38.4471 22.0751C38.8009 22.598 38.9919 23.2139 38.9961 23.8452C38.9988 24.2668 38.9182 24.6847 38.7588 25.075C38.5994 25.4652 38.3644 25.8201 38.0673 26.1192C37.7702 26.4182 37.4169 26.6556 37.0276 26.8175C36.6384 26.9795 36.2211 27.0629 35.7995 27.0629Z" fill="white"/>
<path d="M77.5844 64.7434C77.5225 64.7448 77.4609 64.7337 77.4034 64.7106C77.3459 64.6876 77.2936 64.6531 77.2498 64.6093C77.206 64.5655 77.1715 64.5133 77.1485 64.4558C77.1254 64.3982 77.1143 64.3366 77.1158 64.2747V58.1449C77.1127 58.0821 77.1233 58.0195 77.147 57.9612C77.1706 57.903 77.2067 57.8507 77.2527 57.8078C77.296 57.7643 77.3478 57.7302 77.4049 57.7075C77.4619 57.6849 77.5231 57.6742 77.5844 57.6762H79.396C79.8174 57.6684 80.2334 57.772 80.602 57.9764C80.9462 58.17 81.229 58.4565 81.4182 58.8031C81.6191 59.1767 81.7207 59.5956 81.7131 60.0196C81.7193 60.4318 81.6177 60.8385 81.4182 61.1993C81.2259 61.5382 80.9433 61.8171 80.602 62.005C80.2306 62.201 79.8159 62.3006 79.396 62.2946H78.0584V64.2747C78.0591 64.3997 78.012 64.5203 77.9267 64.6117C77.8818 64.6561 77.8282 64.6907 77.7693 64.7133C77.7104 64.736 77.6475 64.7462 77.5844 64.7434ZM78.0584 61.4257H79.396C79.6521 61.4306 79.9048 61.3669 80.128 61.2414C80.3363 61.1244 80.5091 60.9534 80.6283 60.7464C80.7513 60.5243 80.8131 60.2735 80.8073 60.0196C80.8128 59.7541 80.7512 59.4915 80.6283 59.256C80.5124 59.0383 80.3395 58.8563 80.128 58.7294C79.9062 58.5998 79.6528 58.5342 79.396 58.5398H78.0584V61.4257Z" fill="white"/>
<path d="M82.2189 64.7436C82.1404 64.747 82.0624 64.7286 81.9936 64.6905C81.9249 64.6524 81.868 64.596 81.8292 64.5276C81.785 64.4593 81.7593 64.3807 81.7547 64.2994C81.75 64.2182 81.7667 64.1371 81.8029 64.0642L84.3465 57.9923C84.3768 57.8993 84.4361 57.8185 84.5157 57.7616C84.5953 57.7048 84.691 57.6749 84.7888 57.6763C84.8874 57.6713 84.9848 57.6998 85.0651 57.7572C85.1454 57.8146 85.2039 57.8974 85.2312 57.9923L87.7853 64.0853C87.8197 64.1579 87.835 64.2383 87.8294 64.3185C87.8239 64.3987 87.7978 64.4762 87.7537 64.5434C87.7116 64.6089 87.6528 64.662 87.5834 64.6972C87.514 64.7324 87.4364 64.7484 87.3587 64.7436C87.2673 64.7447 87.1777 64.719 87.1007 64.6698C87.0198 64.6198 86.9584 64.5436 86.9269 64.4539L84.6782 58.8823H84.9573L82.6771 64.4539C82.6413 64.5457 82.5766 64.6234 82.4928 64.6751C82.4106 64.7252 82.315 64.7491 82.2189 64.7436ZM82.6981 63.1637L83.0615 62.3843H86.6056L86.969 63.1637H82.6981Z" fill="white"/>
<path d="M91.8504 64.8375C91.3779 64.8402 90.91 64.7452 90.4759 64.5584C90.0577 64.3793 89.6798 64.1178 89.3648 63.7896C89.0449 63.4569 88.7927 63.0652 88.6223 62.6363C88.4404 62.1808 88.3492 61.6943 88.3537 61.2039C88.3491 60.7186 88.4404 60.2372 88.6223 59.7873C88.794 59.3606 89.046 58.9708 89.3648 58.6392C89.6806 58.3129 90.056 58.0502 90.4707 57.8651C90.9064 57.6779 91.3762 57.5829 91.8504 57.586C92.2563 57.5761 92.6607 57.6366 93.0458 57.7651C93.4151 57.9051 93.7573 58.1082 94.0569 58.3654C94.1005 58.3968 94.1394 58.434 94.1728 58.476C94.1958 58.5119 94.2136 58.5509 94.2255 58.5919C94.2312 58.6391 94.2312 58.6868 94.2255 58.734C94.2272 58.7879 94.2167 58.8414 94.1948 58.8907C94.1729 58.9399 94.1402 58.9836 94.0991 59.0184C94.0125 59.0947 93.9011 59.1368 93.7857 59.1368C93.6704 59.1368 93.559 59.0947 93.4724 59.0184C93.2647 58.8348 93.0303 58.6839 92.7773 58.5708C92.476 58.4589 92.1558 58.407 91.8346 58.4181C91.487 58.4156 91.1433 58.4912 90.8288 58.6392C90.5162 58.7805 90.2351 58.9828 90.002 59.2343C89.7592 59.4894 89.5694 59.7901 89.4438 60.119C89.3118 60.4545 89.2439 60.8118 89.2437 61.1723C89.2414 61.5433 89.3093 61.9113 89.4438 62.2571C89.5708 62.5838 89.7604 62.8826 90.002 63.1366C90.2351 63.3881 90.5162 63.5904 90.8288 63.7316C91.1448 63.8739 91.488 63.9458 91.8346 63.9423C92.1332 63.9434 92.4295 63.8898 92.7088 63.7843C92.9902 63.6739 93.2558 63.527 93.4987 63.3472C93.589 63.2734 93.7035 63.2358 93.82 63.2419C93.9217 63.2505 94.017 63.2953 94.0885 63.3683C94.1612 63.455 94.1988 63.5659 94.1939 63.679C94.1948 63.7406 94.1822 63.8018 94.157 63.858C94.1339 63.9178 94.0979 63.9717 94.0517 64.016C93.7359 64.2699 93.3799 64.4692 92.9984 64.6058C92.6318 64.7479 92.2435 64.8263 91.8504 64.8375Z" fill="white"/>
<path d="M95.3777 58.5449C95.3199 58.5472 95.2623 58.5374 95.2085 58.5161C95.1548 58.4949 95.106 58.4627 95.0654 58.4216C95.0248 58.3804 94.9931 58.3313 94.9726 58.2773C94.952 58.2233 94.9429 58.1655 94.9459 58.1078C94.9432 58.0504 94.9526 57.9931 94.9735 57.9396C94.9943 57.8861 95.0262 57.8375 95.067 57.7971C95.108 57.7571 95.1566 57.7257 95.21 57.7049C95.2634 57.6841 95.3204 57.6743 95.3777 57.676H100.228C100.285 57.6743 100.342 57.6841 100.396 57.7049C100.449 57.7257 100.498 57.7571 100.539 57.7971C100.579 57.8375 100.611 57.8861 100.632 57.9396C100.653 57.9931 100.662 58.0504 100.66 58.1078C100.663 58.1655 100.654 58.2233 100.633 58.2773C100.612 58.3313 100.581 58.3804 100.54 58.4216C100.5 58.4627 100.451 58.4949 100.397 58.5161C100.343 58.5374 100.286 58.5472 100.228 58.5449H95.3777ZM97.8054 64.7432C97.7432 64.7456 97.6811 64.7351 97.6232 64.7125C97.5652 64.6898 97.5125 64.6555 97.4684 64.6115C97.4245 64.5671 97.3898 64.5145 97.3663 64.4567C97.3428 64.3988 97.3309 64.3369 97.3314 64.2745V57.676H98.2741V64.2745C98.2755 64.3364 98.2644 64.398 98.2413 64.4555C98.2183 64.5131 98.1838 64.5653 98.14 64.6091C98.0962 64.6529 98.044 64.6874 97.9864 64.7104C97.9289 64.7335 97.8673 64.7446 97.8054 64.7432Z" fill="white"/>
<path d="M102.189 64.7436C102.061 64.7465 101.936 64.6993 101.842 64.6119C101.796 64.5685 101.76 64.5162 101.736 64.4582C101.711 64.4002 101.699 64.3378 101.7 64.2749V58.1451C101.697 58.0819 101.709 58.019 101.733 57.9608C101.758 57.9025 101.795 57.8504 101.842 57.808C101.936 57.7207 102.061 57.6735 102.189 57.6764C102.25 57.6731 102.311 57.6832 102.367 57.706C102.424 57.7287 102.474 57.7636 102.516 57.808C102.558 57.8529 102.591 57.9059 102.613 57.9638C102.635 58.0217 102.645 58.0833 102.642 58.1451V63.2796L106.987 57.8502C107.029 57.7955 107.083 57.7514 107.145 57.7213C107.208 57.6911 107.276 57.6758 107.345 57.6764C107.408 57.6736 107.471 57.6838 107.53 57.7065C107.589 57.7291 107.642 57.7637 107.687 57.808C107.732 57.8518 107.766 57.9044 107.789 57.9625C107.812 58.0206 107.822 58.0828 107.819 58.1451V64.2749C107.82 64.337 107.809 64.3988 107.787 64.4566C107.764 64.5145 107.73 64.5673 107.687 64.6119C107.642 64.6563 107.589 64.6908 107.53 64.7135C107.471 64.7362 107.408 64.7464 107.345 64.7436C107.283 64.7456 107.222 64.7349 107.165 64.7123C107.108 64.6896 107.056 64.6555 107.013 64.6119C106.969 64.5675 106.935 64.5149 106.911 64.4571C106.888 64.3992 106.876 64.3373 106.876 64.2749V59.1298L102.547 64.5593C102.504 64.6122 102.448 64.6538 102.384 64.6804C102.325 64.7166 102.258 64.7382 102.189 64.7436Z" fill="white"/>
<path d="M110.098 64.7433C110.036 64.7455 109.974 64.7349 109.916 64.7121C109.858 64.6893 109.806 64.6549 109.762 64.6109C109.718 64.5669 109.683 64.5144 109.661 64.4565C109.638 64.3986 109.627 64.3367 109.629 64.2746V58.1447C109.626 58.0825 109.637 58.0202 109.659 57.9622C109.682 57.9041 109.717 57.8514 109.761 57.8077C109.806 57.7645 109.859 57.7307 109.916 57.7081C109.974 57.6855 110.036 57.6746 110.098 57.6761C110.184 57.6748 110.269 57.6979 110.342 57.7426C110.416 57.7873 110.476 57.8519 110.514 57.9288L113.347 63.6058H113.058L115.817 57.9288C115.856 57.8523 115.916 57.7881 115.989 57.7434C116.063 57.6988 116.147 57.6755 116.233 57.6761C116.296 57.6739 116.358 57.6845 116.416 57.7072C116.474 57.7299 116.527 57.7643 116.571 57.8082C116.616 57.8521 116.651 57.9046 116.674 57.9624C116.697 58.0203 116.709 58.0823 116.707 58.1447V64.2746C116.708 64.3375 116.696 64.3999 116.671 64.4579C116.647 64.5159 116.611 64.5682 116.565 64.6116C116.521 64.6544 116.469 64.6881 116.412 64.7107C116.355 64.7333 116.294 64.7443 116.233 64.7433C116.172 64.7452 116.111 64.7346 116.054 64.7119C115.997 64.6893 115.945 64.6551 115.901 64.6116C115.858 64.5672 115.823 64.5146 115.799 64.4567C115.776 64.3989 115.764 64.337 115.765 64.2746V59.4508L115.944 59.4034L113.574 64.2377C113.53 64.3133 113.467 64.3753 113.39 64.417C113.313 64.4588 113.227 64.4785 113.14 64.4742C113.053 64.4698 112.968 64.4415 112.896 64.3923C112.824 64.3432 112.767 64.2751 112.731 64.1956L110.388 59.4929L110.567 59.4508V64.2746C110.569 64.3367 110.558 64.3986 110.536 64.4565C110.513 64.5144 110.478 64.5669 110.434 64.6109C110.39 64.6549 110.338 64.6893 110.28 64.7121C110.222 64.7349 110.16 64.7455 110.098 64.7433Z" fill="white"/>
<path d="M123.349 63.3425L120.326 58.3818C120.276 58.2792 120.268 58.1615 120.302 58.0527C120.336 57.944 120.41 57.8524 120.51 57.7966C120.609 57.7408 120.726 57.7251 120.837 57.7526C120.948 57.7802 121.044 57.8489 121.105 57.9447L123.938 62.8791L123.349 63.3425ZM122.032 64.8539C121.747 64.8515 121.469 64.7654 121.232 64.6064C121.179 64.5774 121.133 64.5376 121.096 64.4894C121.06 64.4413 121.034 64.3861 121.021 64.3273C121.007 64.2719 121.005 64.2141 121.015 64.1579C121.025 64.1016 121.047 64.0481 121.079 64.0008C121.109 63.95 121.149 63.9063 121.197 63.8727C121.245 63.839 121.3 63.8163 121.358 63.806C121.491 63.7872 121.627 63.8151 121.742 63.885C121.787 63.9105 121.835 63.93 121.885 63.9429C121.934 63.9498 121.983 63.9498 122.032 63.9429C122.221 63.9311 122.399 63.8505 122.532 63.7164C122.724 63.5305 122.879 63.3109 122.991 63.0687L125.476 57.9605C125.496 57.9034 125.527 57.8513 125.569 57.8078C125.611 57.7643 125.662 57.7305 125.718 57.7089C125.774 57.6873 125.835 57.6784 125.895 57.6827C125.955 57.6871 126.013 57.7046 126.066 57.7341C126.123 57.7518 126.175 57.7829 126.217 57.8248C126.26 57.8666 126.292 57.9181 126.31 57.9748C126.329 58.0315 126.334 58.0918 126.324 58.1507C126.314 58.2096 126.291 58.2654 126.256 58.3133L123.77 63.4268C123.59 63.8289 123.326 64.1879 122.996 64.48C122.727 64.7078 122.385 64.8311 122.032 64.8276V64.8539Z" fill="white"/>
<path d="M127.26 64.7436C127.181 64.747 127.103 64.7286 127.035 64.6905C126.966 64.6524 126.909 64.596 126.87 64.5276C126.826 64.4593 126.8 64.3807 126.796 64.2994C126.791 64.2182 126.808 64.1371 126.844 64.0642L129.387 57.9923C129.418 57.8993 129.477 57.8185 129.557 57.7616C129.636 57.7048 129.732 57.6749 129.83 57.6763C129.928 57.6713 130.026 57.6998 130.106 57.7572C130.186 57.8146 130.245 57.8974 130.272 57.9923L132.826 64.0853C132.861 64.1567 132.879 64.235 132.879 64.3144C132.879 64.3937 132.861 64.472 132.826 64.5434C132.787 64.6089 132.73 64.6622 132.662 64.6975C132.594 64.7328 132.518 64.7487 132.442 64.7436C132.35 64.7453 132.261 64.7196 132.184 64.6698C132.101 64.6201 132.038 64.544 132.005 64.4539L129.719 58.8823H130.009L127.692 64.4539C127.654 64.5461 127.588 64.6237 127.502 64.6751C127.429 64.7193 127.345 64.743 127.26 64.7436Z" fill="white"/>
<path d="M134.43 64.7436C134.368 64.7456 134.307 64.735 134.25 64.7123C134.193 64.6897 134.141 64.6555 134.098 64.612C134.054 64.5676 134.019 64.515 133.996 64.4571C133.972 64.3993 133.961 64.3374 133.961 64.2749V58.103C133.96 58.0443 133.971 57.9861 133.995 57.9324C134.019 57.8787 134.054 57.8309 134.098 57.7923C134.19 57.7131 134.308 57.6716 134.43 57.6764C134.554 57.67 134.677 57.7114 134.772 57.7923C134.816 57.8311 134.85 57.8792 134.873 57.9329C134.895 57.9866 134.906 58.0447 134.904 58.103V60.399H136.426C136.842 60.3923 137.254 60.4862 137.626 60.6729C137.965 60.8406 138.249 61.0996 138.448 61.4207C138.648 61.7523 138.75 62.1339 138.743 62.5213C138.749 62.9252 138.647 63.3233 138.448 63.6746C138.253 64.0077 137.968 64.2795 137.626 64.4593C137.257 64.6541 136.843 64.752 136.426 64.7436H134.43ZM134.904 63.8747H136.426C136.678 63.8813 136.929 63.829 137.158 63.722C137.366 63.6237 137.539 63.4637 137.653 63.2638C137.781 63.038 137.845 62.7811 137.837 62.5213C137.847 62.2613 137.783 62.0039 137.653 61.7788C137.536 61.5897 137.363 61.4422 137.158 61.3575C136.926 61.2589 136.677 61.2105 136.426 61.2153H134.904V63.8747ZM140.254 64.7436C140.192 64.7458 140.13 64.7352 140.072 64.7125C140.014 64.6897 139.962 64.6552 139.918 64.6113C139.874 64.5673 139.839 64.5147 139.817 64.4569C139.794 64.399 139.783 64.3371 139.785 64.2749V58.1451C139.782 58.0828 139.793 58.0206 139.815 57.9625C139.838 57.9044 139.873 57.8518 139.917 57.8081C139.962 57.7649 140.015 57.731 140.072 57.7084C140.13 57.6858 140.192 57.6749 140.254 57.6764C140.315 57.6744 140.377 57.6851 140.434 57.7078C140.491 57.7304 140.543 57.7646 140.586 57.8081C140.629 57.8526 140.663 57.9053 140.686 57.9632C140.709 58.0211 140.719 58.083 140.718 58.1451V64.2749C140.718 64.4 140.671 64.5206 140.586 64.612C140.543 64.6555 140.491 64.6897 140.434 64.7123C140.377 64.735 140.315 64.7456 140.254 64.7436Z" fill="white"/>
<path d="M143.012 64.7431C142.95 64.7453 142.888 64.7347 142.83 64.7119C142.772 64.6892 142.72 64.6547 142.676 64.6108C142.632 64.5668 142.597 64.5142 142.575 64.4564C142.552 64.3985 142.541 64.3366 142.543 64.2744V58.1446C142.54 58.0823 142.551 58.0201 142.573 57.962C142.596 57.9039 142.631 57.8513 142.675 57.8076C142.72 57.7644 142.773 57.7305 142.83 57.7079C142.888 57.6853 142.95 57.6744 143.012 57.6759H146.851C146.907 57.6747 146.962 57.6848 147.014 57.7057C147.065 57.7265 147.112 57.7576 147.151 57.797C147.193 57.839 147.226 57.8892 147.248 57.9445C147.27 57.9998 147.28 58.0589 147.278 58.1183C147.279 58.1752 147.268 58.2317 147.247 58.2843C147.225 58.3368 147.192 58.3843 147.151 58.4237C147.112 58.4632 147.065 58.4943 147.014 58.5151C146.962 58.5359 146.907 58.546 146.851 58.5448H143.481V60.5828H145.545C145.962 60.5742 146.375 60.6625 146.751 60.8409C147.084 60.9981 147.366 61.2442 147.567 61.5518C147.768 61.866 147.87 62.2325 147.862 62.6051C147.872 62.9927 147.77 63.3749 147.567 63.7057C147.37 64.0285 147.088 64.2908 146.751 64.464C146.378 64.6525 145.964 64.7465 145.545 64.7379L143.012 64.7431ZM143.481 63.8742H145.545C145.797 63.8795 146.046 63.831 146.277 63.732C146.484 63.6441 146.658 63.4953 146.778 63.3055C146.904 63.0962 146.966 62.8545 146.957 62.6103C146.968 62.3692 146.905 62.1305 146.778 61.9257C146.655 61.745 146.48 61.6055 146.277 61.5255C146.044 61.4351 145.795 61.3904 145.545 61.3938H143.481V63.8742Z" fill="white"/>
<path d="M149.731 64.7429C149.669 64.7451 149.607 64.7345 149.549 64.7117C149.491 64.6889 149.439 64.6545 149.395 64.6105C149.351 64.5666 149.316 64.514 149.293 64.4561C149.271 64.3983 149.26 64.3363 149.262 64.2742V58.1444C149.259 58.0821 149.269 58.0199 149.292 57.9618C149.315 57.9037 149.349 57.8511 149.394 57.8073C149.439 57.7642 149.491 57.7303 149.549 57.7077C149.607 57.6851 149.669 57.6742 149.731 57.6757C149.793 57.6735 149.855 57.6841 149.913 57.7069C149.971 57.7296 150.023 57.7641 150.067 57.8081C150.111 57.852 150.146 57.9046 150.168 57.9624C150.191 58.0203 150.202 58.0822 150.2 58.1444V60.7459H151.685V61.5779H150.205V64.2742C150.206 64.3363 150.196 64.3981 150.173 64.4559C150.15 64.5138 150.116 64.5666 150.073 64.6112C150.029 64.6564 149.975 64.6915 149.916 64.7142C149.857 64.7369 149.794 64.7467 149.731 64.7429ZM154.47 64.627C154.375 64.7086 154.254 64.7535 154.128 64.7535C154.003 64.7535 153.881 64.7086 153.786 64.627L150.784 61.1408L153.554 57.8284C153.595 57.7796 153.645 57.7401 153.703 57.7129C153.76 57.6856 153.823 57.6711 153.886 57.6704C153.948 57.6673 154.009 57.6785 154.066 57.7032C154.123 57.7279 154.173 57.7653 154.212 57.8126C154.291 57.8933 154.336 58.0004 154.339 58.1128C154.332 58.2267 154.285 58.3346 154.207 58.4182L151.916 61.0513L154.439 63.9846C154.518 64.0681 154.568 64.1754 154.581 64.29C154.592 64.3509 154.587 64.4135 154.568 64.4723C154.548 64.531 154.515 64.5841 154.47 64.627Z" fill="white"/>
<path d="M156.373 64.7435C156.246 64.7467 156.123 64.6994 156.031 64.6118C155.983 64.5695 155.946 64.5175 155.92 64.4594C155.895 64.4012 155.882 64.3383 155.883 64.2748V58.145C155.881 58.0813 155.893 58.0179 155.918 57.9595C155.944 57.9011 155.982 57.8493 156.031 57.8079C156.123 57.7204 156.246 57.673 156.373 57.6763C156.434 57.6733 156.496 57.6835 156.553 57.7062C156.61 57.7289 156.662 57.7636 156.705 57.8079C156.787 57.9004 156.83 58.0212 156.826 58.145V63.2795L161.17 57.8501C161.213 57.7947 161.268 57.7502 161.331 57.72C161.395 57.6898 161.464 57.6748 161.534 57.6763C161.596 57.6741 161.658 57.6847 161.716 57.7075C161.774 57.7302 161.826 57.7647 161.87 57.8087C161.914 57.8526 161.948 57.9052 161.971 57.963C161.994 58.0209 162.005 58.0828 162.002 58.145V64.2748C162.004 64.3369 161.993 64.3987 161.97 64.4565C161.948 64.5144 161.914 64.5672 161.871 64.6118C161.827 64.6563 161.774 64.691 161.716 64.7137C161.658 64.7364 161.596 64.7465 161.534 64.7435C161.472 64.7456 161.41 64.735 161.352 64.7123C161.294 64.6897 161.241 64.6555 161.197 64.6118C161.153 64.5674 161.118 64.5148 161.095 64.457C161.071 64.3991 161.059 64.3372 161.06 64.2748V59.1297L156.736 64.5592C156.691 64.6109 156.636 64.6522 156.573 64.6803C156.512 64.7166 156.444 64.7382 156.373 64.7435Z" fill="white"/>
<path d="M91.0105 21.2959C91.2226 21.3118 91.4356 21.3118 91.6477 21.2959C91.89 21.2959 92.127 21.2959 92.3534 21.2959C92.5663 21.2969 92.779 21.3092 92.9906 21.3328C93.1514 21.3437 93.3071 21.3944 93.4435 21.4802L93.7173 21.6856C93.806 21.7484 93.8905 21.817 93.9701 21.891C94.2198 22.0633 94.4328 22.2834 94.5968 22.5387C94.7536 22.789 94.8425 23.0757 94.8548 23.3708V23.5867C94.8474 23.6585 94.8474 23.7308 94.8548 23.8026C94.8548 24.1537 94.8548 24.517 94.8548 24.8927C94.8488 24.9575 94.8488 25.0227 94.8548 25.0875V25.2613C94.8478 25.3279 94.8478 25.3949 94.8548 25.4614C94.8621 25.5297 94.8621 25.5986 94.8548 25.6668C94.8548 25.7458 94.8285 25.8143 94.818 25.8827C94.8074 25.9512 94.818 26.0249 94.818 26.0987C94.7725 26.3541 94.7531 26.6134 94.76 26.8728C94.76 27.1308 94.76 27.3994 94.818 27.6469C94.8148 27.7013 94.8148 27.7558 94.818 27.8102C94.824 27.8626 94.824 27.9157 94.818 27.9681C94.8504 28.3004 94.8053 28.6357 94.6863 28.9477C94.5823 29.2532 94.3806 29.516 94.1123 29.6954C93.8015 29.9122 93.4372 30.0397 93.0591 30.0641C92.6987 30.0812 92.339 30.0182 92.0058 29.8798C91.6782 29.7425 91.389 29.5274 91.1632 29.2531C90.9233 28.9669 90.7553 28.6274 90.6735 28.2631C90.6407 28.188 90.6211 28.1078 90.6156 28.0261C90.6156 27.9418 90.6156 27.8628 90.5787 27.7838C90.5062 27.2192 90.5258 26.6465 90.6366 26.0881C90.7477 25.5281 91.0037 25.0069 91.3792 24.5767L90.2838 24.6189C89.9199 24.6338 89.5554 24.6197 89.1937 24.5767H88.9672C88.8901 24.5715 88.8127 24.5715 88.7355 24.5767C88.2089 24.5293 87.6823 24.4925 87.1188 24.4714C86.5553 24.4503 86.0287 24.4714 85.481 24.4714C84.4489 24.5206 83.436 24.6048 82.4425 24.7242C81.4344 24.8466 80.4174 24.8765 79.4039 24.8137C79.5408 25.0718 79.6777 25.3403 79.8146 25.6458C79.9495 25.9348 80.0553 26.2364 80.1306 26.5463C80.2078 26.8472 80.2432 27.1573 80.2359 27.4679C80.2258 27.781 80.1429 28.0876 79.9937 28.3631C79.8473 28.6366 79.6379 28.8712 79.3828 29.0477C79.133 29.2262 78.8501 29.3533 78.5508 29.4216C78.2545 29.49 77.9465 29.49 77.6502 29.4216C77.3449 29.3536 77.0621 29.2086 76.8287 29.0003C76.6316 28.8396 76.4763 28.6336 76.3758 28.4C76.2843 28.1777 76.224 27.9437 76.1968 27.7048C76.1648 27.4551 76.1489 27.2036 76.1494 26.9518C76.1498 26.7017 76.134 26.4519 76.102 26.204C76.0879 26.1361 76.0773 26.0676 76.0704 25.9986C76.0595 25.928 76.0401 25.8591 76.0125 25.7932C75.9368 25.5423 75.8752 25.2874 75.8282 25.0296C75.786 24.7821 75.7334 24.503 75.6702 24.266C75.579 23.9103 75.5488 23.5417 75.5806 23.1759C75.6063 22.8181 75.703 22.4691 75.865 22.149C76.0221 21.8507 76.2522 21.5971 76.5338 21.4118C76.8479 21.2141 77.2169 21.1219 77.587 21.1485H78.1137H78.4876C78.5695 21.1624 78.6532 21.1624 78.7351 21.1485C78.8091 21.1306 78.8767 21.0923 78.9299 21.0379C79.0088 20.9549 79.0777 20.863 79.1353 20.764C79.2564 20.5797 79.3881 20.4007 79.525 20.2374C79.6619 20.0742 79.7883 19.8951 79.9094 19.7108C79.9568 19.6318 79.9937 19.5686 80.0253 19.5054L80.1148 19.3C80.1785 19.1532 80.2313 19.0018 80.2728 18.8471L80.4097 18.3679C80.4097 18.2784 80.4361 18.1889 80.4466 18.1046C80.455 18.0152 80.4726 17.927 80.4992 17.8413C80.5174 17.7474 80.5297 17.6524 80.5361 17.5569C80.5361 17.4621 80.5361 17.3673 80.5677 17.2725C80.5993 16.9724 80.6256 16.6722 80.652 16.3773C80.6783 16.0824 80.6836 15.7822 80.6836 15.4768V14.0339C80.6836 13.9549 80.6836 13.8864 80.6836 13.8285C80.678 13.7601 80.678 13.6914 80.6836 13.6231V12.9964C80.6831 12.7866 80.6673 12.5772 80.6362 12.3697C80.6362 12.296 80.6362 12.2223 80.6362 12.1538C80.6307 12.082 80.6307 12.0098 80.6362 11.9379C80.6362 11.543 80.6783 11.1269 80.7152 10.6846C80.7508 10.2528 80.8302 9.82585 80.9521 9.41016C81.0722 9.011 81.2496 8.63139 81.4787 8.2832C81.6829 7.94442 81.9738 7.66628 82.3213 7.47747L82.5478 7.38795L82.7742 7.29316C83.0846 7.18334 83.406 7.10741 83.7327 7.06671L83.9223 7.03511L84.1171 6.99825C84.4129 7.02967 84.7113 7.02967 85.0071 6.99825H85.223C85.2949 6.99274 85.367 6.99274 85.4389 6.99825C85.6074 6.96665 85.7654 6.94559 85.9287 6.92979C86.0919 6.91399 86.2499 6.89293 86.4184 6.86133C86.5788 6.86076 86.7384 6.83772 86.8924 6.79287L87.9877 6.64542C88.3646 6.59228 88.7463 6.58345 89.1252 6.61909C89.4762 6.65458 89.8165 6.76024 90.1258 6.92979C90.4482 7.11881 90.6914 7.41809 90.8104 7.77238C90.842 7.8619 90.8683 7.95143 90.8999 8.03042L90.9947 8.29373C91.0855 8.69261 91.1262 9.10126 91.1158 9.51021C91.1158 9.93151 91.0843 10.3528 91.0369 10.7846C90.9895 11.2165 90.9368 11.643 90.8789 12.0485C90.8209 12.454 90.7735 12.849 90.742 13.2123C90.6946 13.9707 90.6788 14.7132 90.6945 15.4294C90.7103 16.1456 90.7577 16.8934 90.8315 17.6517C90.8806 18.2556 90.9491 18.8664 91.0369 19.4843C91.1231 20.0858 91.1143 20.6972 91.0105 21.2959ZM76.1915 26.5989C76.1818 26.6441 76.1818 26.6907 76.1915 26.7359C76.1818 26.6907 76.1818 26.6441 76.1915 26.5989ZM79.3091 20.4059C79.3122 20.418 79.3122 20.4307 79.3091 20.4428C79.3091 20.4428 79.3091 20.4428 79.3091 20.4744C79.3091 20.506 79.3091 20.4481 79.3091 20.4428C79.3122 20.4307 79.3122 20.418 79.3091 20.4059ZM83.3166 21.4065C83.4271 21.3974 83.538 21.3974 83.6484 21.4065H84.175C84.5226 21.4065 84.8807 21.4065 85.2283 21.3749L86.2815 21.338C86.1771 20.7329 86.1541 20.1166 86.213 19.5054C86.2762 18.8893 86.3552 18.2731 86.4553 17.6517C86.5553 17.0303 86.6396 16.4089 86.7133 15.798C86.7923 15.1809 86.7923 14.5562 86.7133 13.9391C86.6712 13.5178 86.6185 13.0912 86.5659 12.6647C86.5132 12.2381 86.4658 11.8168 86.4184 11.3902C86.4031 11.319 86.3926 11.2469 86.3868 11.1743C86.3868 11.1059 86.3868 11.0321 86.35 10.9584C86.3183 10.7401 86.3183 10.5184 86.35 10.3001C86.3765 10.204 86.3731 10.1021 86.3401 10.008C86.3072 9.91391 86.2463 9.83211 86.1656 9.77352C85.9545 9.65396 85.7249 9.57032 85.4863 9.52601C85.3611 9.4817 85.2294 9.45857 85.0966 9.45755C84.9704 9.42589 84.8384 9.42589 84.7122 9.45755C84.5892 9.46203 84.4703 9.50229 84.3699 9.57341C84.2378 9.65013 84.1256 9.75683 84.0424 9.8849C83.9591 10.013 83.9071 10.1588 83.8907 10.3107C83.8464 10.6192 83.8697 10.9337 83.9591 11.2323C84.1423 11.8222 84.2347 12.4366 84.233 13.0543V13.6916C84.2407 13.7527 84.2407 13.8147 84.233 13.8759C84.23 14.0053 84.2141 14.1341 84.1856 14.2603C84.1562 14.3492 84.1368 14.441 84.1276 14.5341C84.1276 14.6237 84.1276 14.7132 84.1276 14.808C84.096 15.4873 84.0855 16.1614 84.096 16.8197C84.1018 17.4839 84.0204 18.1461 83.8538 18.7892C83.8538 18.8945 83.8538 18.9946 83.8222 19.0841C83.7906 19.1736 83.8222 19.2684 83.7853 19.358C83.7771 19.442 83.7771 19.5267 83.7853 19.6107C83.7865 19.6956 83.7703 19.7798 83.7379 19.8582C83.7063 20.0268 83.68 20.1847 83.6484 20.3375C83.6126 20.5023 83.5596 20.6629 83.4904 20.8167C83.4619 20.9136 83.439 21.012 83.422 21.1116C83.3929 21.2119 83.3577 21.3104 83.3166 21.4065Z" fill="white"/>
<path d="M95.6464 14.3662C95.467 13.6161 95.342 12.8541 95.2725 12.086C95.2112 11.5118 95.2112 10.9328 95.2725 10.3587C95.3185 9.90658 95.4339 9.46429 95.6148 9.0474C95.7735 8.68616 95.9828 8.34928 96.2362 8.04683C96.4192 7.81489 96.6585 7.63361 96.9313 7.52021C97.1971 7.41333 97.4777 7.34762 97.7634 7.32536C98.0543 7.3017 98.3466 7.3017 98.6375 7.32536C98.9377 7.35696 99.2274 7.39382 99.517 7.44122C99.9678 7.51396 100.425 7.54043 100.881 7.52021L102.245 7.44122C102.659 7.40961 103.074 7.40961 103.488 7.44122C103.899 7.46333 104.294 7.61441 104.615 7.87304C104.773 8.01941 104.898 8.19931 104.978 8.39966C105.07 8.60406 105.124 8.82362 105.136 9.0474C105.153 9.2716 105.126 9.49692 105.057 9.71094C104.992 9.90544 104.888 10.0846 104.752 10.2376C104.556 10.4459 104.309 10.5985 104.035 10.6799C103.742 10.7652 103.44 10.8147 103.135 10.8274C102.821 10.8458 102.506 10.8458 102.192 10.8274C101.882 10.801 101.597 10.7905 101.339 10.7905C101.132 10.7902 100.926 10.7708 100.723 10.7326C100.497 10.6967 100.268 10.6791 100.038 10.6799C99.8192 10.6772 99.6008 10.7074 99.3906 10.7694C99.18 10.8297 98.995 10.9573 98.864 11.1328C98.6647 11.4089 98.5561 11.7402 98.5533 12.0807C98.548 12.4538 98.5833 12.8264 98.6586 13.1919C98.7316 13.5779 98.8266 13.9594 98.943 14.3346C99.0454 14.6586 99.1246 14.9894 99.18 15.3247C99.4906 15.2038 99.7858 15.0465 100.059 14.856L100.944 14.2504C101.228 14.0598 101.534 13.9042 101.855 13.787C102.165 13.6727 102.502 13.6526 102.824 13.729C103.044 13.7717 103.248 13.8737 103.414 14.0239C103.578 14.169 103.708 14.3489 103.793 14.5505C103.873 14.7571 103.914 14.9767 103.914 15.1983C103.918 15.4184 103.871 15.6363 103.777 15.8355C103.587 16.2163 103.307 16.5452 102.961 16.7939C102.568 17.0882 102.144 17.339 101.697 17.5417C101.239 17.7578 100.764 17.9339 100.275 18.0683C99.8483 18.1859 99.4137 18.2739 98.9746 18.3317C98.9167 18.5581 98.8535 18.7845 98.7955 19.0057C98.7317 19.2259 98.679 19.4491 98.6375 19.6745C98.5305 19.9924 98.5494 20.3391 98.6902 20.6435C98.7561 20.7298 98.8429 20.7978 98.9424 20.8411C99.042 20.8845 99.1509 20.9016 99.259 20.891C99.5618 20.8737 99.8593 20.8042 100.138 20.6856C100.47 20.5592 100.812 20.4171 101.16 20.2696C101.508 20.1222 101.834 19.9852 102.14 19.8694C102.376 19.7637 102.635 19.7202 102.893 19.743C103.403 19.8249 103.883 20.0412 104.283 20.3697C104.689 20.6889 105.015 21.0981 105.236 21.5651C105.447 22.0073 105.526 22.5011 105.463 22.987C105.425 23.2443 105.336 23.4912 105.199 23.7123C105.062 23.9334 104.881 24.1239 104.667 24.2719C104.444 24.4573 104.171 24.5727 103.883 24.6037C103.611 24.6265 103.337 24.6069 103.072 24.5457C102.803 24.4878 102.545 24.4141 102.255 24.3298C101.989 24.2477 101.713 24.1982 101.434 24.1824C100.924 24.1525 100.413 24.2095 99.9225 24.3509C99.429 24.4947 98.9195 24.5761 98.4058 24.5931C97.909 24.6328 97.4107 24.5382 96.9629 24.3193C96.5526 24.1124 96.1929 23.8175 95.9097 23.4556C95.6139 23.0803 95.3939 22.6511 95.2619 22.1918C95.1159 21.7162 95.05 21.2197 95.0671 20.7225C95.0656 20.4681 95.0993 20.2147 95.1671 19.9694C95.2352 19.7266 95.3161 19.4875 95.4094 19.2532C95.4989 19.0215 95.5884 18.7898 95.6832 18.5581C95.7758 18.3237 95.8429 18.0801 95.8833 17.8314C95.9771 17.2514 95.9895 16.6612 95.9202 16.0777C95.8623 15.5143 95.7675 14.935 95.6464 14.3662Z" fill="white"/>
<path d="M110.376 14.9874C110.376 14.4608 110.376 14.05 110.376 13.7604C110.379 13.5326 110.349 13.3056 110.287 13.0863C110.24 12.9344 110.144 12.8027 110.013 12.7124C109.887 12.6229 109.697 12.507 109.455 12.3701L108.67 11.9172C108.359 11.7329 108.049 11.5328 107.738 11.3116C107.432 11.0958 107.143 10.8564 106.874 10.5954C106.627 10.3658 106.419 10.0972 106.258 9.80023C106.112 9.53546 106.057 9.23042 106.1 8.93131C106.168 8.57827 106.353 8.25877 106.627 8.02553C106.786 7.84713 106.983 7.70706 107.204 7.61584C107.424 7.52463 107.663 7.48465 107.901 7.49891C108.418 7.53735 108.927 7.64905 109.413 7.83068C109.939 8.02026 110.466 8.23091 110.992 8.46789C111.429 8.68075 111.896 8.82295 112.377 8.88918C112.957 8.96491 113.545 8.95248 114.121 8.85232C114.647 8.75753 115.221 8.63641 115.816 8.49949C116.03 8.45604 116.246 8.42614 116.464 8.40996C116.675 8.39422 116.887 8.4138 117.091 8.46789C117.286 8.51915 117.467 8.61668 117.617 8.75226C117.778 8.89704 117.902 9.07739 117.981 9.27888C118.141 9.60605 118.178 9.97974 118.086 10.3321C117.983 10.6585 117.802 10.9549 117.559 11.1958C117.267 11.4883 116.927 11.7288 116.554 11.9067C116.179 12.0932 115.79 12.2482 115.39 12.3701C115.015 12.4863 114.631 12.5674 114.242 12.6124C113.929 12.6558 113.612 12.6558 113.299 12.6124C113.444 13.1986 113.553 13.793 113.626 14.3923C113.741 15.1928 113.815 16.0722 113.857 17.0254C113.893 18.0017 113.874 18.9793 113.799 19.9534C113.74 20.8472 113.575 21.731 113.31 22.5865C113.113 23.2577 112.734 23.8611 112.214 24.3296C111.952 24.5323 111.641 24.6644 111.313 24.7132C110.985 24.7621 110.65 24.7261 110.339 24.6087C110.169 24.5823 110.006 24.5221 109.86 24.4317C109.713 24.3412 109.586 24.2224 109.486 24.0821C109.305 23.7965 109.194 23.4714 109.165 23.1342C109.128 22.7437 109.148 22.35 109.223 21.9651C109.295 21.546 109.39 21.1311 109.507 20.7223C109.623 20.322 109.734 19.9429 109.85 19.5848C109.947 19.2896 110.026 18.9889 110.087 18.6843C110.208 18.0855 110.28 17.4779 110.303 16.8674C110.345 16.225 110.361 15.6141 110.376 14.9874Z" fill="white"/>
<path d="M131.582 19.8163C131.777 20.4091 131.892 21.0255 131.924 21.6489C131.947 22.0974 131.901 22.5468 131.787 22.9813C131.703 23.2997 131.56 23.5997 131.366 23.866C131.223 24.0632 131.055 24.2404 130.865 24.3926C130.746 24.488 130.617 24.571 130.481 24.6401C130.381 24.6875 130.36 24.7086 130.423 24.7086C130.183 24.7515 129.936 24.7442 129.699 24.6871C129.461 24.63 129.238 24.5243 129.043 24.3768C128.703 24.0957 128.438 23.7336 128.275 23.3236C128.092 22.865 127.977 22.3826 127.932 21.8912C127.883 21.4294 127.856 20.9654 127.853 20.5009C127.853 19.9251 127.853 19.3406 127.853 18.7473C127.853 18.1575 127.853 17.5729 127.911 16.9936C127.911 16.9199 127.911 16.7356 127.911 16.467C127.911 16.1984 127.911 15.8561 127.948 15.5086L127.99 14.1868C127.628 14.4627 127.34 14.8247 127.153 15.24C126.951 15.6587 126.79 16.0961 126.674 16.546C126.552 17.0094 126.447 17.4781 126.352 17.9468C126.271 18.3905 126.149 18.8259 125.989 19.2476C125.81 19.6583 125.599 20.1217 125.362 20.6484C125.123 21.1741 124.854 21.6857 124.557 22.1808C124.26 22.6699 123.916 23.1285 123.53 23.55C123.177 23.9148 122.747 24.1956 122.271 24.3715C121.864 24.5737 121.401 24.6348 120.955 24.5453C120.615 24.4534 120.317 24.2469 120.112 23.9608C119.88 23.6374 119.717 23.27 119.633 22.8812C119.527 22.4405 119.462 21.991 119.438 21.5383C119.438 21.0749 119.438 20.6326 119.438 20.206C119.438 19.7794 119.491 19.4266 119.517 19.1528C119.627 18.1996 119.696 17.2464 119.722 16.309C119.753 15.3616 119.67 14.414 119.475 13.4864C119.38 13.0914 119.301 12.707 119.222 12.3331C119.143 11.9592 119.085 11.5958 119.043 11.2324C118.994 10.8624 118.975 10.4891 118.985 10.116C118.995 9.71023 119.045 9.30638 119.132 8.91006C119.224 8.3717 119.497 7.88096 119.907 7.51979C120.236 7.25456 120.642 7.10307 121.065 7.08797C121.486 7.08442 121.899 7.20732 122.25 7.4408C122.572 7.6328 122.835 7.90989 123.009 8.24158C123.184 8.57327 123.264 8.94671 123.24 9.32082C123.232 9.67387 123.199 10.0259 123.14 10.3741C123.077 10.7269 123.014 11.0797 122.945 11.4273C122.882 11.7348 122.84 12.0462 122.819 12.3594C122.819 12.6332 122.819 13.0335 122.777 13.5654C122.735 14.0972 122.724 14.6555 122.719 15.24C122.713 15.8245 122.719 16.3775 122.75 16.8988C122.756 17.3079 122.835 17.7126 122.982 18.0943C123.375 17.7823 123.72 17.4131 124.004 16.9989C124.326 16.5377 124.608 16.0496 124.846 15.5402C125.106 15.003 125.348 14.4343 125.573 13.8339C125.805 13.2336 126.021 12.628 126.237 12.0118C126.452 11.3957 126.668 10.8006 126.895 10.2161C127.121 9.63153 127.363 9.09964 127.611 8.57303C127.974 7.87789 128.375 7.47766 128.806 7.3776C129.018 7.33007 129.237 7.32997 129.448 7.37733C129.659 7.42468 129.857 7.5183 130.028 7.65145C130.44 7.97957 130.767 8.40229 130.981 8.88373C131.234 9.39663 131.367 9.9602 131.371 10.532C131.371 11.3045 131.297 12.0751 131.15 12.8334C131.006 13.5911 130.92 14.3586 130.892 15.1294C130.86 15.9254 130.905 16.7227 131.029 17.5097C131.156 18.2911 131.341 19.0621 131.582 19.8163Z" fill="white"/>
<path d="M81.722 37.4784C81.801 38.2842 81.8642 39.1794 81.9169 40.1642C81.9695 41.1623 81.9695 42.1625 81.9169 43.1606C81.865 44.1534 81.7507 45.1419 81.5746 46.1202C81.4188 47.0332 81.1352 47.9196 80.732 48.7533C80.3669 49.5146 79.853 50.1951 79.2206 50.7545C78.563 51.3202 77.7571 51.6857 76.8982 51.8077C76.6214 51.8755 76.3324 51.8755 76.0556 51.8077C75.8013 51.7496 75.5658 51.6283 75.371 51.4549C75.1735 51.2815 75.0155 51.0678 74.9076 50.8282C74.7901 50.5797 74.7307 50.3078 74.7338 50.033C74.7171 49.657 74.7294 49.2802 74.7707 48.906C74.8109 48.54 74.9143 48.1836 75.0761 47.8528C75.2052 47.5567 75.3697 47.2773 75.5659 47.0207C75.6796 46.8883 75.8194 46.7807 75.9766 46.7048C76.1484 46.6224 76.3242 46.5486 76.5032 46.4836C76.8339 46.3499 77.1498 46.1823 77.4459 45.9833C77.6565 45.7569 77.8408 45.5515 77.9725 45.3724C78.1262 45.1799 78.262 44.9737 78.378 44.7563C78.5152 44.5007 78.623 44.2304 78.6992 43.9506C78.7888 43.6399 78.8835 43.2396 78.9731 42.7551C79.0628 42.3275 79.1052 41.8913 79.0995 41.4544C79.0995 41.0173 79.0995 40.5749 79.0995 40.1379C79.1016 39.4602 79.0611 38.783 78.9783 38.1104C78.893 37.4381 78.8578 36.7604 78.873 36.0829C78.84 35.7223 78.9413 35.3623 79.1574 35.0718C79.3494 34.866 79.599 34.7229 79.8736 34.661C80.1844 34.5908 80.5034 34.5642 80.8215 34.582C81.1638 34.582 81.485 34.582 81.7905 34.582C82.2276 34.6136 82.6699 34.6347 83.1175 34.6505C83.571 34.6661 84.025 34.6503 84.4762 34.6031C84.6214 34.589 84.7656 34.5662 84.908 34.5347L85.5768 34.4135C85.7128 34.3937 85.8467 34.362 85.9771 34.3187C86.035 34.3187 85.9086 34.3187 85.5874 34.3556C85.8612 34.2819 86.1825 34.1976 86.5564 34.1134C86.9279 34.0346 87.3044 33.9818 87.6833 33.9554C88.0495 33.9345 88.4168 33.9539 88.7787 34.0133C89.1046 34.0636 89.4066 34.2146 89.6423 34.4451C90.0142 34.8241 90.3314 35.253 90.585 35.7195C90.8299 36.2076 90.9146 36.7604 90.8272 37.2994C90.7813 37.5993 90.6999 37.8928 90.585 38.1736C90.4744 38.4527 90.3533 38.7318 90.2216 39.0056C90.09 39.2795 89.9794 39.5322 89.8793 39.8324C89.7793 40.122 89.7294 40.4266 89.7319 40.7329C89.7319 41.4807 89.7319 42.2233 89.7898 42.9658C89.8477 43.7083 89.8319 44.4509 89.7898 45.1934C89.7873 45.5116 89.8173 45.8292 89.8793 46.1413C89.9423 46.4235 90.0232 46.7014 90.1216 46.9733C90.2163 47.2419 90.3217 47.5 90.427 47.7896C90.5498 48.0875 90.657 48.3916 90.7482 48.7006C90.8264 49.0051 90.8654 49.3184 90.8641 49.6328C90.8652 49.9417 90.819 50.2489 90.7272 50.5438C90.6368 50.8405 90.479 51.1124 90.2661 51.338C90.0533 51.5637 89.7911 51.737 89.5001 51.8446C89.0001 52.0515 88.4485 52.0993 87.9203 51.9815C87.4633 51.8659 87.0441 51.6336 86.7038 51.3074C86.3535 50.9673 86.0743 50.5609 85.8823 50.112C85.6818 49.6496 85.5624 49.1562 85.5295 48.6533C85.49 48.094 85.49 47.5326 85.5295 46.9733C85.5663 46.4099 85.6137 45.8464 85.6664 45.2776C85.719 44.7089 85.7717 44.1401 85.8138 43.5819C85.8596 43.0126 85.8684 42.4409 85.8402 41.8704C85.7948 41.1996 85.7139 40.5316 85.5979 39.8693C85.4851 39.2086 85.4515 38.5368 85.4979 37.8681C85.4979 37.6259 85.3557 37.4468 85.0292 37.3415C84.657 37.2285 84.2701 37.1717 83.8811 37.173C83.451 37.1625 83.0208 37.1925 82.5962 37.2625C82.2976 37.3016 82.0044 37.374 81.722 37.4784Z" fill="white"/>
<path d="M97.4521 47.4748C97.4943 47.4116 97.5575 47.3115 97.6312 47.1799C97.7049 47.0482 97.7786 46.9008 97.8471 46.7586C97.9103 46.6217 97.9648 46.481 98.0104 46.3373C98.0472 46.2004 98.042 46.1056 98.0104 46.0635C97.8563 45.8129 97.6801 45.5767 97.4837 45.3578C97.2836 45.1419 97.0888 44.9154 96.8887 44.6732C96.5411 44.2466 96.2357 43.8675 95.9776 43.5252L95.2509 42.5562L94.5821 41.6662C94.3609 41.3818 94.1029 41.0606 93.8185 40.713L93.1444 39.8125C92.9232 39.5176 92.6915 39.2174 92.4493 38.912C92.1983 38.604 92.0185 38.2444 91.9227 37.8588C91.8084 37.4515 91.7692 37.0268 91.8068 36.6054C91.8423 36.1941 91.9662 35.7953 92.1702 35.4363C92.3816 35.067 92.694 34.7655 93.0707 34.5674C93.4573 34.3282 93.9199 34.2436 94.3662 34.3304C94.772 34.4353 95.1382 34.6568 95.4194 34.9676C95.7503 35.3401 96.0253 35.7588 96.2357 36.2105C96.4779 36.7107 96.7096 37.2637 96.9308 37.7903C97.152 38.3169 97.3626 38.9383 97.568 39.5229C97.7543 40.0611 97.9706 40.5886 98.2157 41.1027C98.3856 41.5199 98.6068 41.9144 98.874 42.2771C99.0973 42.5596 99.4188 42.7476 99.7745 42.8037C100.017 41.9822 100.217 41.1607 100.375 40.3339C100.533 39.5071 100.675 38.6645 100.796 37.8166C100.859 37.3901 100.938 36.9477 101.038 36.4843C101.128 36.0387 101.284 35.6091 101.502 35.2099C101.703 34.8357 101.992 34.5159 102.344 34.2778C102.753 34.0283 103.232 33.9192 103.708 33.9671C103.956 33.9671 104.198 33.9671 104.44 33.9671C104.68 33.9564 104.919 33.967 105.157 33.9987C105.384 34.0264 105.606 34.0885 105.815 34.183C106.039 34.2891 106.232 34.4526 106.373 34.6569C106.503 34.8276 106.595 35.0236 106.644 35.2323C106.693 35.441 106.698 35.6576 106.657 35.8682C106.573 36.2737 106.463 36.6949 106.331 37.1162C106.168 37.6197 105.972 38.1122 105.746 38.5908C105.525 39.0437 105.293 39.486 105.041 39.9178C104.788 40.3497 104.54 40.7868 104.293 41.2291C104.045 41.6715 103.803 42.1244 103.571 42.5931C103.224 43.3566 102.871 44.1308 102.518 44.926C102.154 45.7028 101.741 46.4557 101.281 47.1799C101.007 47.6486 100.728 48.112 100.438 48.5649C100.158 49.0115 99.8468 49.4374 99.506 49.8393C99.1696 50.2389 98.7996 50.6088 98.4001 50.9452C97.9883 51.2935 97.5335 51.5873 97.0467 51.8194C96.6675 52.0037 96.2831 52.1722 95.8881 52.3197C95.5038 52.4695 95.1022 52.5704 94.6927 52.6198C94.2994 52.6636 93.9013 52.6351 93.5183 52.5356C93.1144 52.4205 92.75 52.1964 92.4651 51.8878C92.1312 51.5828 91.9181 51.1678 91.8647 50.7188C91.807 50.2909 91.8614 49.8554 92.0227 49.4549C92.184 49.0551 92.4473 48.7047 92.7863 48.4385C93.1417 48.1566 93.5808 48.001 94.0344 47.9961C94.3612 47.984 94.6872 48.0377 94.9928 48.1541C95.307 48.2716 95.6314 48.3598 95.9618 48.4174C96.2479 48.4725 96.5438 48.4451 96.8149 48.3384C96.9744 48.2456 97.1132 48.121 97.2228 47.9725C97.3324 47.824 97.4104 47.6546 97.4521 47.4748Z" fill="white"/>
<path d="M115.499 35.7259C115.673 35.1947 115.999 34.7261 116.436 34.3778C116.763 34.129 117.163 33.9972 117.574 34.0039C117.981 34.0247 118.375 34.1577 118.711 34.3883C119.087 34.6354 119.404 34.9627 119.638 35.3468C119.883 35.7533 120.037 36.2077 120.091 36.6791C120.147 37.1921 120.076 37.711 119.886 38.1905C119.749 38.5381 119.638 38.8593 119.554 39.1489C119.47 39.4319 119.407 39.7206 119.364 40.0126C119.317 40.3107 119.289 40.6115 119.28 40.9131C119.28 41.2221 119.28 41.5591 119.28 41.9242C119.28 42.2718 119.28 42.6404 119.243 43.0301C119.206 43.4198 119.201 43.8042 119.175 44.1992C119.148 44.5942 119.175 44.9839 119.175 45.363C119.189 45.7188 119.242 46.072 119.333 46.4163C119.425 46.7164 119.532 47.0117 119.654 47.301C119.775 47.5906 119.886 47.875 119.996 48.1594C120.104 48.443 120.187 48.7355 120.244 49.0336C120.297 49.3508 120.297 49.6747 120.244 49.992C120.23 50.2808 120.155 50.5635 120.026 50.822C119.896 51.0805 119.714 51.309 119.491 51.4929C119.086 51.8037 118.59 51.9721 118.079 51.9721C117.545 51.9666 117.024 51.8076 116.578 51.5139C116.101 51.2118 115.732 50.7654 115.525 50.2395C115.364 49.8508 115.257 49.4413 115.209 49.023C115.162 48.6035 115.146 48.181 115.162 47.7591C115.162 47.3326 115.209 46.906 115.257 46.4742C115.304 46.0424 115.346 45.6211 115.394 45.2103C114.725 45.2103 114.008 45.2103 113.25 45.2419C112.526 45.2702 111.802 45.2136 111.091 45.0734C110.429 44.947 109.803 44.6754 109.258 44.2782C108.681 43.8136 108.282 43.1647 108.126 42.4403C107.954 41.8097 107.829 41.1672 107.752 40.5182C107.668 39.8283 107.594 39.1647 107.536 38.5275C107.458 37.9271 107.428 37.3213 107.447 36.716C107.453 36.1163 107.584 35.5243 107.831 34.9781C107.972 34.704 108.19 34.477 108.458 34.3251C108.74 34.1663 109.049 34.0593 109.369 34.0092C109.697 33.954 110.031 33.954 110.359 34.0092C110.665 34.0605 110.954 34.1852 111.202 34.3725C111.451 34.5714 111.635 34.8413 111.728 35.1467C111.835 35.4893 111.903 35.8424 111.934 36.1999C111.965 36.5678 111.965 36.9378 111.934 37.3058C111.902 37.6692 111.881 37.9799 111.865 38.2379C111.849 38.4959 111.786 38.8488 111.728 39.1595C111.668 39.4629 111.638 39.7716 111.639 40.0811C111.636 40.3729 111.69 40.6626 111.797 40.9342C111.924 41.2302 112.139 41.4801 112.413 41.6504C112.637 41.8112 112.891 41.9241 113.161 41.9822C113.415 42.0353 113.675 42.0653 113.935 42.0717C114.193 42.0717 114.461 42.0717 114.735 42.0717C115.001 42.0653 115.267 42.0776 115.53 42.1085C115.499 41.5819 115.451 41.0553 115.383 40.5287C115.315 40.0021 115.262 39.4439 115.22 38.8962C115.185 38.3543 115.185 37.8108 115.22 37.2689C115.233 36.7433 115.327 36.2228 115.499 35.7259Z" fill="white"/>
<path d="M133.99 47.1318C134.183 47.7252 134.298 48.3413 134.333 48.9644C134.356 49.4129 134.309 49.8623 134.196 50.2967C134.111 50.6152 133.968 50.9152 133.774 51.1815C133.632 51.3787 133.464 51.5558 133.274 51.7081C133.154 51.8046 133.023 51.8876 132.884 51.9556C132.784 52.003 132.768 52.024 132.826 52.024C132.587 52.066 132.342 52.0587 132.105 52.0025C131.869 51.9464 131.647 51.8426 131.452 51.6975C131.105 51.4083 130.839 51.0347 130.678 50.6127C130.498 50.1534 130.383 49.6713 130.335 49.1803C130.286 48.7185 130.259 48.2545 130.256 47.79C130.256 47.216 130.256 46.6315 130.256 46.0364C130.247 45.453 130.266 44.8695 130.314 44.288C130.314 44.209 130.314 44.03 130.314 43.7614C130.314 43.4928 130.314 43.1558 130.346 42.803L130.393 41.4864C130.032 41.7515 129.742 42.1027 129.551 42.5081C129.35 42.9292 129.19 43.3682 129.072 43.8193C128.95 44.2828 128.845 44.7462 128.756 45.2149C128.67 45.6575 128.548 46.0925 128.392 46.5156C128.208 46.9264 127.997 47.3898 127.766 47.9164C127.527 48.4432 127.256 48.955 126.955 49.4489C126.663 49.9399 126.321 50.3989 125.933 50.8181C125.587 51.204 125.159 51.5065 124.68 51.7028C124.27 51.9049 123.806 51.966 123.358 51.8766C123.02 51.7822 122.724 51.5785 122.515 51.2973C122.288 50.9692 122.126 50.6011 122.036 50.2125C121.929 49.7721 121.866 49.3223 121.846 48.8696C121.82 48.4259 121.82 47.981 121.846 47.5373C121.846 47.116 121.894 46.7579 121.925 46.484C122.031 45.5291 122.099 44.5812 122.131 43.6403C122.162 42.6926 122.077 41.7447 121.878 40.8176C121.788 40.4227 121.704 40.0382 121.63 39.6696C121.557 39.301 121.494 38.9271 121.446 38.5637C121.4 38.1934 121.381 37.8203 121.388 37.4473C121.401 37.0417 121.451 36.6381 121.536 36.2413C121.628 35.7078 121.901 35.2223 122.31 34.8669C122.64 34.598 123.048 34.4445 123.474 34.4298C123.895 34.4262 124.308 34.5491 124.659 34.7826C124.981 34.9746 125.243 35.2517 125.418 35.5834C125.593 35.9151 125.672 36.2885 125.649 36.6626C125.639 37.0158 125.604 37.3678 125.543 37.7159C125.485 38.074 125.417 38.4268 125.348 38.7691C125.287 39.0767 125.246 39.3881 125.227 39.7012C125.227 39.975 125.227 40.3753 125.18 40.9072C125.133 41.439 125.133 41.9973 125.122 42.5818C125.111 43.1663 125.122 43.7193 125.159 44.2406C125.163 44.6493 125.24 45.054 125.385 45.4361C125.781 45.1331 126.126 44.7686 126.407 44.3565C126.729 43.8953 127.011 43.4072 127.249 42.8978C127.508 42.3711 127.75 41.7919 127.981 41.1915C128.213 40.5912 128.429 39.9856 128.64 39.3694C128.85 38.7533 129.072 38.1582 129.298 37.5737C129.524 36.9891 129.772 36.4414 130.03 35.9254C130.393 35.225 130.794 34.8247 131.225 34.7299C131.435 34.6798 131.654 34.678 131.865 34.7245C132.075 34.771 132.273 34.8647 132.442 34.9985C132.854 35.3147 133.184 35.7245 133.406 36.1939C133.659 36.7068 133.792 37.2704 133.795 37.8422C133.795 38.6144 133.722 39.3848 133.579 40.1436C133.434 40.9012 133.346 41.6687 133.316 42.4396C133.284 43.2356 133.33 44.0329 133.453 44.8199C133.575 45.6027 133.755 46.3754 133.99 47.1318Z" fill="white"/>
<path d="M136.863 43.2402C136.863 42.9664 136.863 42.6399 136.863 42.2607C136.863 41.8816 136.816 41.4919 136.768 41.0864C136.721 40.6809 136.674 40.2965 136.61 39.9278C136.547 39.5592 136.5 39.2432 136.452 38.9957C136.405 38.7482 136.373 38.5744 136.347 38.4691C136.321 38.3638 136.347 38.4164 136.347 38.5849C136.315 38.3111 136.279 38.032 136.242 37.7424C136.204 37.4525 136.185 37.1605 136.184 36.8682C136.183 36.5759 136.215 36.2845 136.279 35.9993C136.338 35.717 136.454 35.45 136.621 35.2146C136.739 35.0368 136.893 34.8861 137.074 34.7722C137.245 34.6611 137.44 34.5908 137.642 34.5669C137.838 34.545 138.036 34.5684 138.222 34.6353C138.424 34.7129 138.595 34.8532 138.712 35.0356C138.952 35.3774 139.13 35.7589 139.238 36.1625C139.362 36.5897 139.45 37.0266 139.501 37.4685C139.554 37.9213 139.58 38.3767 139.58 38.8325V40.1121C139.958 39.8917 140.311 39.6323 140.634 39.338C140.945 39.0475 141.231 38.7303 141.487 38.3901C141.747 38.039 141.989 37.6879 142.214 37.3369C142.44 36.9735 142.677 36.6101 142.919 36.2468C143.088 36.0045 143.277 35.7465 143.488 35.4726C143.695 35.2046 143.936 34.9639 144.204 34.7564C144.459 34.5573 144.743 34.3992 145.047 34.2878C145.359 34.1824 145.692 34.1588 146.016 34.2193C146.424 34.2694 146.799 34.4682 147.069 34.7775C147.286 35.051 147.416 35.3828 147.443 35.7307C147.471 36.1055 147.42 36.4821 147.295 36.8366C147.177 37.2054 146.999 37.5524 146.769 37.8635C146.511 38.2137 146.222 38.5398 145.905 38.8377C145.589 39.1432 145.257 39.4381 144.915 39.7277L143.936 40.5966C143.598 40.8839 143.274 41.188 142.967 41.5077C143.521 41.7762 144.02 42.148 144.436 42.603C144.851 43.0608 145.214 43.5643 145.515 44.1039C145.826 44.6493 146.082 45.2244 146.279 45.8207C146.474 46.421 146.642 47.0108 146.779 47.5848C146.875 48.0333 146.943 48.487 146.985 48.9435C147.032 49.4157 147.002 49.8925 146.895 50.3548C146.802 50.7772 146.596 51.1666 146.3 51.4818C146.13 51.6419 145.93 51.7663 145.711 51.8477C145.492 51.9291 145.259 51.9659 145.026 51.9558C144.628 51.9915 144.232 51.8685 143.925 51.6135C143.635 51.3636 143.405 51.0524 143.251 50.7024C143.081 50.3287 142.955 49.9363 142.877 49.5333C142.793 49.1173 142.719 48.7381 142.661 48.4064C142.566 47.9482 142.466 47.5058 142.35 47.0635C142.251 46.6484 142.086 46.2519 141.861 45.8891C141.647 45.5447 141.355 45.2559 141.008 45.0465C140.587 44.8113 140.115 44.6829 139.633 44.6726C139.707 45.5694 139.734 46.4694 139.712 47.3689C139.692 48.2633 139.543 49.1501 139.27 50.002C139.144 50.3895 138.942 50.7478 138.675 51.0552C138.424 51.3561 138.109 51.5972 137.753 51.7609C137.411 51.9119 137.032 51.9595 136.663 51.8978C136.228 51.8127 135.838 51.5756 135.562 51.229C135.256 50.9021 135.07 50.4804 135.036 50.0336C135.001 49.5578 135.031 49.0794 135.125 48.6117C135.226 48.1246 135.363 47.6458 135.536 47.1793C135.71 46.7107 135.868 46.2999 136.005 45.9471L136.531 44.62C136.704 44.1771 136.815 43.713 136.863 43.2402Z" fill="white"/>
<path d="M160.962 47.1323C161.158 47.7253 161.277 48.3413 161.314 48.9649C161.335 49.4134 161.289 49.8623 161.178 50.2973C161.091 50.6149 160.948 50.9144 160.756 51.182C160.612 51.378 160.444 51.555 160.256 51.7086C160.136 51.8051 160.005 51.8881 159.866 51.9561C159.766 52.0035 159.75 52.0246 159.808 52.0246C159.569 52.0665 159.324 52.0592 159.087 52.0031C158.851 51.9469 158.629 51.8431 158.434 51.6981C158.087 51.4088 157.821 51.0352 157.66 50.6132C157.48 50.1539 157.365 49.6718 157.317 49.1808C157.268 48.719 157.241 48.255 157.238 47.7906C157.238 47.2165 157.238 46.632 157.238 46.0369C157.238 45.4418 157.238 44.8626 157.291 44.2886C157.291 44.2096 157.291 44.0305 157.291 43.7619C157.291 43.4934 157.291 43.1563 157.323 42.8035L157.37 41.487C157.009 41.752 156.719 42.1032 156.528 42.5086C156.325 42.9288 156.164 43.368 156.048 43.8199C155.927 44.2833 155.822 44.7467 155.732 45.2154C155.647 45.6587 155.524 46.0939 155.364 46.5161C155.185 46.9269 154.974 47.3903 154.737 47.9169C154.505 48.4372 154.239 48.9421 153.942 49.4283C153.64 49.9208 153.287 50.3797 152.889 50.7975C152.545 51.1832 152.118 51.4858 151.641 51.6823C151.231 51.8844 150.766 51.9455 150.319 51.856C149.981 51.7617 149.685 51.5579 149.476 51.2768C149.247 50.9497 149.085 50.5813 148.997 50.1919C148.89 49.7515 148.827 49.3018 148.807 48.8491C148.781 48.4053 148.781 47.9604 148.807 47.5167C148.807 47.0954 148.855 46.7373 148.886 46.4635C148.992 45.5085 149.06 44.5606 149.092 43.6198C149.12 42.6722 149.035 41.7246 148.839 40.7971C148.749 40.4021 148.665 40.0177 148.591 39.6491C148.518 39.2804 148.455 38.9065 148.407 38.5432C148.361 38.1729 148.342 37.7998 148.349 37.4267C148.362 37.0211 148.411 36.6175 148.497 36.2208C148.589 35.6872 148.862 35.2018 149.271 34.8463C149.6 34.5768 150.009 34.4232 150.435 34.4092C150.854 34.4067 151.265 34.5296 151.614 34.7621C151.985 34.9984 152.279 35.3392 152.457 35.7416C152.568 36.0283 152.62 36.3347 152.61 36.6421C152.597 36.9951 152.562 37.3469 152.504 37.6953C152.441 38.0534 152.378 38.4062 152.309 38.7485C152.245 39.0557 152.205 39.3673 152.188 39.6807C152.188 39.9545 152.188 40.3547 152.141 40.8866C152.093 41.4185 152.088 41.9767 152.083 42.5613C152.078 43.1458 152.083 43.6987 152.12 44.2201C152.124 44.6288 152.201 45.0335 152.346 45.4155C152.742 45.1126 153.087 44.7481 153.368 44.336C153.69 43.8747 153.972 43.3867 154.21 42.8772C154.468 42.3506 154.737 41.7713 154.942 41.171C155.148 40.5706 155.39 39.965 155.601 39.3489C155.811 38.7327 156.033 38.1377 156.259 37.5531C156.485 36.9686 156.733 36.4209 156.991 35.9048C157.354 35.2044 157.749 34.8042 158.186 34.7094C158.396 34.6593 158.615 34.6574 158.825 34.7039C159.036 34.7505 159.234 34.8441 159.403 34.978C159.815 35.3058 160.142 35.7286 160.356 36.2103C160.609 36.7232 160.742 37.2867 160.746 37.8586C160.745 38.6307 160.673 39.4011 160.53 40.1599C160.384 40.9175 160.296 41.685 160.267 42.4559C160.234 43.2519 160.28 44.0492 160.403 44.8362C160.533 45.6142 160.72 46.3816 160.962 47.1323Z" fill="white"/>
</svg>
