<svg width="215" height="94" viewBox="0 0 215 94" fill="none" xmlns="http://www.w3.org/2000/svg">
<path d="M102.487 85.5244C102.405 85.5263 102.324 85.5116 102.248 85.4811C102.172 85.4507 102.103 85.4051 102.045 85.3473C101.987 85.2894 101.942 85.2204 101.911 85.1444C101.881 85.0684 101.866 84.9871 101.868 84.9052V76.8078C101.864 76.7248 101.878 76.6421 101.909 76.5652C101.94 76.4883 101.988 76.4191 102.049 76.3625C102.106 76.305 102.174 76.2599 102.25 76.23C102.325 76.2001 102.406 76.186 102.487 76.1886H104.88C105.437 76.1784 105.986 76.3152 106.473 76.5851C106.928 76.8409 107.301 77.2194 107.551 77.6773C107.817 78.1708 107.951 78.7241 107.941 79.2843C107.949 79.8288 107.815 80.366 107.551 80.8426C107.297 81.2903 106.924 81.6587 106.473 81.9069C105.983 82.1659 105.435 82.2975 104.88 82.2896H103.113V84.9052C103.114 85.0704 103.052 85.2297 102.939 85.3505C102.88 85.409 102.809 85.4547 102.731 85.4846C102.653 85.5146 102.57 85.5281 102.487 85.5244ZM103.113 81.1417H104.88C105.218 81.1481 105.552 81.0641 105.847 80.8982C106.122 80.7437 106.35 80.5178 106.508 80.2443C106.67 79.9509 106.752 79.6196 106.744 79.2843C106.752 78.9335 106.67 78.5866 106.508 78.2756C106.355 77.988 106.126 77.7475 105.847 77.5799C105.554 77.4087 105.219 77.322 104.88 77.3295H103.113V81.1417Z" fill="#6A6A69"/>
<path d="M108.608 85.5244C108.505 85.5289 108.402 85.5046 108.311 85.4543C108.22 85.404 108.145 85.3295 108.094 85.2391C108.035 85.1489 108.001 85.045 107.995 84.9377C107.989 84.8303 108.011 84.7232 108.059 84.627L111.419 76.606C111.459 76.4832 111.537 76.3764 111.642 76.3013C111.748 76.2262 111.874 76.1867 112.003 76.1886C112.133 76.182 112.262 76.2196 112.368 76.2954C112.474 76.3712 112.552 76.4807 112.588 76.606L115.962 84.6548C116.007 84.7508 116.027 84.8569 116.02 84.9629C116.013 85.0689 115.978 85.1712 115.92 85.26C115.864 85.3465 115.787 85.4167 115.695 85.4631C115.603 85.5096 115.501 85.5308 115.398 85.5244C115.277 85.5258 115.159 85.492 115.057 85.427C114.95 85.3609 114.869 85.2603 114.828 85.1418L111.857 77.7817H112.226L109.214 85.1418C109.166 85.263 109.081 85.3656 108.97 85.4339C108.862 85.5001 108.735 85.5317 108.608 85.5244ZM109.241 83.4374L109.721 82.4078H114.403L114.883 83.4374H109.241Z" fill="#6A6A69"/>
<path d="M121.332 85.6496C120.708 85.6531 120.09 85.5276 119.517 85.2809C118.964 85.0442 118.465 84.6988 118.049 84.2652C117.626 83.8258 117.293 83.3083 117.068 82.7417C116.828 82.1401 116.707 81.4973 116.713 80.8495C116.707 80.2085 116.828 79.5725 117.068 78.9782C117.295 78.4145 117.628 77.8997 118.049 77.4617C118.466 77.0306 118.962 76.6835 119.51 76.439C120.085 76.1918 120.706 76.0663 121.332 76.0703C121.868 76.0572 122.403 76.1372 122.911 76.3069C123.399 76.4918 123.851 76.7602 124.247 77.0999C124.305 77.1414 124.356 77.1905 124.4 77.246C124.431 77.2934 124.454 77.345 124.47 77.3991C124.477 77.4614 124.477 77.5245 124.47 77.5869C124.472 77.658 124.458 77.7288 124.429 77.7938C124.4 77.8588 124.357 77.9165 124.303 77.9625C124.188 78.0633 124.041 78.1189 123.889 78.1189C123.736 78.1189 123.589 78.0633 123.475 77.9625C123.201 77.72 122.891 77.5206 122.557 77.3712C122.159 77.2234 121.736 77.1549 121.311 77.1695C120.852 77.1662 120.398 77.2661 119.983 77.4617C119.57 77.6482 119.198 77.9155 118.891 78.2478C118.57 78.5847 118.319 78.9819 118.153 79.4165C117.979 79.8596 117.889 80.3316 117.889 80.8078C117.886 81.2979 117.975 81.7841 118.153 82.2408C118.321 82.6724 118.571 83.0671 118.891 83.4026C119.198 83.7349 119.57 84.0022 119.983 84.1887C120.4 84.3767 120.854 84.4716 121.311 84.467C121.706 84.4684 122.097 84.3976 122.466 84.2583C122.838 84.1125 123.189 83.9183 123.51 83.6809C123.629 83.5833 123.78 83.5337 123.934 83.5417C124.068 83.5531 124.194 83.6124 124.289 83.7087C124.385 83.8233 124.435 83.9697 124.428 84.1191C124.429 84.2006 124.413 84.2813 124.379 84.3557C124.349 84.4346 124.301 84.5058 124.24 84.5643C123.823 84.8997 123.353 85.163 122.849 85.3435C122.364 85.5312 121.852 85.6347 121.332 85.6496Z" fill="#6A6A69"/>
<path d="M125.993 77.3364C125.917 77.3394 125.841 77.3265 125.77 77.2985C125.699 77.2704 125.634 77.2279 125.58 77.1735C125.527 77.1192 125.485 77.0543 125.458 76.9829C125.431 76.9116 125.419 76.8353 125.423 76.759C125.419 76.6832 125.432 76.6076 125.459 76.5369C125.487 76.4662 125.529 76.402 125.583 76.3486C125.637 76.2957 125.701 76.2543 125.772 76.2268C125.842 76.1993 125.917 76.1863 125.993 76.1886H132.4C132.476 76.1863 132.551 76.1993 132.622 76.2268C132.692 76.2543 132.756 76.2957 132.811 76.3486C132.864 76.402 132.906 76.4662 132.934 76.5369C132.962 76.6076 132.974 76.6832 132.971 76.759C132.974 76.8353 132.962 76.9116 132.935 76.9829C132.908 77.0543 132.866 77.1192 132.813 77.1735C132.759 77.2279 132.695 77.2704 132.624 77.2985C132.552 77.3265 132.476 77.3394 132.4 77.3364H125.993ZM129.2 85.5244C129.118 85.5275 129.036 85.5137 128.959 85.4838C128.883 85.4539 128.813 85.4085 128.755 85.3504C128.697 85.2918 128.651 85.2223 128.62 85.1459C128.589 85.0695 128.573 84.9877 128.574 84.9052V76.1886H129.819V84.9052C129.821 84.987 129.806 85.0684 129.776 85.1444C129.745 85.2204 129.7 85.2894 129.642 85.3473C129.584 85.4051 129.515 85.4507 129.439 85.4811C129.363 85.5115 129.282 85.5263 129.2 85.5244Z" fill="#6A6A69"/>
<path d="M134.989 85.5244C134.819 85.5282 134.655 85.4659 134.53 85.3504C134.47 85.2931 134.422 85.224 134.39 85.1474C134.357 85.0708 134.341 84.9884 134.342 84.9052V76.8077C134.339 76.7243 134.354 76.6412 134.387 76.5643C134.419 76.4873 134.468 76.4185 134.53 76.3625C134.655 76.2471 134.819 76.1847 134.989 76.1886C135.069 76.1843 135.15 76.1977 135.224 76.2277C135.299 76.2577 135.366 76.3038 135.42 76.3625C135.477 76.4218 135.52 76.4918 135.549 76.5683C135.578 76.6447 135.591 76.7261 135.587 76.8077V83.5904L141.327 76.4182C141.382 76.346 141.454 76.2877 141.536 76.2479C141.618 76.2081 141.708 76.1878 141.8 76.1886C141.883 76.1849 141.966 76.1984 142.044 76.2284C142.122 76.2583 142.193 76.304 142.252 76.3625C142.311 76.4203 142.356 76.4898 142.386 76.5665C142.416 76.6433 142.43 76.7255 142.426 76.8077V84.9052C142.428 84.9873 142.413 85.0689 142.384 85.1453C142.354 85.2217 142.309 85.2915 142.252 85.3504C142.193 85.409 142.122 85.4547 142.044 85.4846C141.966 85.5145 141.883 85.5281 141.8 85.5244C141.719 85.527 141.638 85.5129 141.562 85.483C141.487 85.4531 141.419 85.4079 141.361 85.3504C141.303 85.2918 141.258 85.2223 141.227 85.1459C141.196 85.0695 141.18 84.9877 141.181 84.9052V78.1086L135.462 85.2809C135.404 85.3508 135.33 85.4057 135.247 85.4409C135.169 85.4887 135.08 85.5173 134.989 85.5244Z" fill="#6A6A69"/>
<path d="M145.436 85.5244C145.354 85.5273 145.272 85.5133 145.196 85.4832C145.119 85.4531 145.05 85.4076 144.992 85.3495C144.934 85.2914 144.888 85.222 144.858 85.1456C144.828 85.0691 144.814 84.9873 144.817 84.9052V76.8077C144.813 76.7255 144.826 76.6433 144.856 76.5665C144.886 76.4898 144.932 76.4203 144.991 76.3625C145.05 76.3055 145.12 76.2607 145.196 76.2309C145.273 76.201 145.354 76.1867 145.436 76.1886C145.55 76.187 145.662 76.2175 145.759 76.2765C145.856 76.3356 145.935 76.4209 145.986 76.5225L149.728 84.0217H149.346L152.991 76.5225C153.043 76.4214 153.121 76.3366 153.219 76.2776C153.316 76.2186 153.427 76.1878 153.541 76.1886C153.623 76.1857 153.705 76.1998 153.782 76.2298C153.859 76.2598 153.929 76.3052 153.987 76.3631C154.046 76.4211 154.092 76.4905 154.123 76.5669C154.154 76.6434 154.169 76.7253 154.167 76.8077V84.9052C154.168 84.9884 154.152 85.0708 154.119 85.1474C154.087 85.224 154.039 85.2931 153.979 85.3505C153.921 85.407 153.852 85.4514 153.777 85.4813C153.702 85.5111 153.622 85.5258 153.541 85.5244C153.46 85.527 153.379 85.5129 153.303 85.483C153.228 85.4531 153.16 85.408 153.102 85.3505C153.044 85.2918 152.999 85.2223 152.968 85.1459C152.937 85.0695 152.921 84.9877 152.922 84.9052V78.533L153.158 78.4704L150.028 84.8565C149.97 84.9563 149.886 85.0383 149.785 85.0934C149.684 85.1485 149.569 85.1747 149.454 85.1689C149.339 85.1631 149.228 85.1257 149.133 85.0608C149.037 84.9959 148.962 84.9059 148.915 84.8009L145.819 78.5886L146.055 78.533V84.9052C146.058 84.9873 146.044 85.0691 146.014 85.1456C145.984 85.222 145.939 85.2914 145.881 85.3495C145.822 85.4076 145.753 85.4531 145.677 85.4832C145.6 85.5133 145.518 85.5273 145.436 85.5244Z" fill="#6A6A69"/>
<path d="M162.941 83.6739L158.948 77.1208C158.882 76.9852 158.871 76.8297 158.916 76.686C158.961 76.5424 159.059 76.4214 159.191 76.3477C159.322 76.2741 159.477 76.2533 159.623 76.2896C159.769 76.326 159.896 76.4168 159.977 76.5434L163.72 83.0617L162.941 83.6739ZM161.202 85.6704C160.825 85.6672 160.457 85.5535 160.144 85.3435C160.074 85.3052 160.013 85.2525 159.965 85.1889C159.918 85.1254 159.884 85.0524 159.866 84.9748C159.848 84.9016 159.845 84.8253 159.858 84.7509C159.871 84.6766 159.9 84.6059 159.942 84.5435C159.982 84.4764 160.035 84.4186 160.098 84.3742C160.162 84.3298 160.235 84.2997 160.311 84.2861C160.487 84.2613 160.667 84.2982 160.819 84.3904C160.878 84.4242 160.941 84.45 161.007 84.4669C161.071 84.4761 161.137 84.4761 161.202 84.4669C161.451 84.4513 161.686 84.3449 161.862 84.1678C162.115 83.9222 162.32 83.6321 162.468 83.3122L165.751 76.5643C165.777 76.4888 165.819 76.4199 165.874 76.3625C165.929 76.305 165.996 76.2605 166.071 76.2319C166.145 76.2034 166.225 76.1915 166.304 76.1973C166.384 76.203 166.461 76.2262 166.53 76.2651C166.606 76.2885 166.674 76.3296 166.73 76.3849C166.786 76.4403 166.828 76.5082 166.853 76.5831C166.877 76.658 166.884 76.7377 166.871 76.8155C166.859 76.8933 166.828 76.967 166.781 77.0303L163.497 83.7852C163.259 84.3163 162.91 84.7906 162.475 85.1765C162.119 85.4773 161.667 85.6403 161.202 85.6356V85.6704Z" fill="#6A6A69"/>
<path d="M168.108 85.5244C168.005 85.5289 167.902 85.5046 167.811 85.4543C167.72 85.404 167.645 85.3295 167.594 85.2391C167.535 85.1489 167.501 85.045 167.495 84.9377C167.489 84.8303 167.511 84.7232 167.559 84.627L170.919 76.606C170.959 76.4832 171.037 76.3764 171.142 76.3013C171.248 76.2262 171.374 76.1867 171.503 76.1886C171.633 76.182 171.762 76.2196 171.868 76.2954C171.974 76.3712 172.052 76.4807 172.088 76.606L175.462 84.6548C175.507 84.7492 175.531 84.8526 175.531 84.9574C175.531 85.0622 175.507 85.1656 175.462 85.26C175.409 85.3465 175.334 85.4169 175.245 85.4635C175.155 85.5102 175.054 85.5312 174.954 85.5244C174.833 85.5267 174.714 85.4927 174.613 85.427C174.504 85.3613 174.421 85.2608 174.376 85.1418L171.357 77.7817H171.74L168.679 85.1418C168.629 85.2635 168.541 85.366 168.428 85.4339C168.332 85.4924 168.221 85.5236 168.108 85.5244Z" fill="#6A6A69"/>
<path d="M177.578 85.5244C177.497 85.527 177.416 85.5129 177.341 85.483C177.266 85.453 177.197 85.4079 177.14 85.3504C177.082 85.2918 177.036 85.2223 177.005 85.1459C176.974 85.0695 176.958 84.9877 176.959 84.9052V76.7521C176.957 76.6746 176.973 76.5977 177.004 76.5267C177.035 76.4558 177.082 76.3926 177.14 76.3416C177.261 76.237 177.418 76.1823 177.578 76.1886C177.743 76.1801 177.905 76.2349 178.03 76.3416C178.088 76.393 178.133 76.4564 178.163 76.5274C178.194 76.5983 178.207 76.6751 178.204 76.7521V79.7852H180.215C180.765 79.7762 181.309 79.9003 181.801 80.1469C182.248 80.3684 182.624 80.7106 182.886 81.1347C183.151 81.5728 183.286 82.0769 183.276 82.5887C183.284 83.1222 183.15 83.6482 182.886 84.1122C182.628 84.5521 182.252 84.9112 181.801 85.1487C181.313 85.4061 180.767 85.5353 180.215 85.5244H177.578ZM178.204 84.3765H180.215C180.548 84.3852 180.879 84.3162 181.182 84.1748C181.457 84.0449 181.685 83.8336 181.836 83.5696C182.006 83.2712 182.09 82.9318 182.079 82.5887C182.092 82.2453 182.008 81.9051 181.836 81.6078C181.682 81.358 181.453 81.1632 181.182 81.0513C180.876 80.9211 180.547 80.8571 180.215 80.8634H178.204V84.3765ZM185.272 85.5244C185.19 85.5273 185.108 85.5133 185.032 85.4832C184.955 85.4531 184.886 85.4076 184.828 85.3495C184.77 85.2914 184.724 85.222 184.694 85.1456C184.664 85.0691 184.65 84.9873 184.653 84.9052V76.8077C184.649 76.7255 184.663 76.6433 184.692 76.5665C184.722 76.4898 184.768 76.4203 184.827 76.3625C184.886 76.3055 184.956 76.2607 185.032 76.2309C185.109 76.201 185.19 76.1866 185.272 76.1886C185.353 76.186 185.434 76.2001 185.509 76.23C185.585 76.2599 185.653 76.305 185.711 76.3625C185.768 76.4213 185.813 76.491 185.843 76.5675C185.873 76.6439 185.887 76.7257 185.884 76.8077V84.9052C185.885 85.0704 185.823 85.2297 185.711 85.3504C185.653 85.4079 185.585 85.453 185.509 85.483C185.434 85.5129 185.353 85.527 185.272 85.5244Z" fill="#6A6A69"/>
<path d="M188.917 85.5244C188.835 85.5273 188.753 85.5133 188.676 85.4832C188.6 85.4531 188.531 85.4076 188.472 85.3495C188.414 85.2914 188.369 85.222 188.339 85.1456C188.309 85.0691 188.295 84.9873 188.298 84.9052V76.8077C188.294 76.7255 188.307 76.6433 188.337 76.5665C188.367 76.4898 188.413 76.4203 188.471 76.3625C188.53 76.3055 188.6 76.2607 188.677 76.2309C188.753 76.201 188.835 76.1866 188.917 76.1886H193.988C194.062 76.187 194.135 76.2004 194.203 76.2279C194.271 76.2554 194.333 76.2965 194.385 76.3486C194.44 76.4041 194.484 76.4704 194.512 76.5434C194.541 76.6164 194.554 76.6946 194.552 76.773C194.553 76.8481 194.539 76.9228 194.51 76.9922C194.482 77.0617 194.439 77.1244 194.385 77.1764C194.333 77.2286 194.271 77.2696 194.203 77.2972C194.135 77.3247 194.062 77.338 193.988 77.3364H189.536V80.0287H192.263C192.813 80.0172 193.358 80.1339 193.856 80.3695C194.295 80.5773 194.668 80.9023 194.934 81.3087C195.199 81.7237 195.334 82.2079 195.324 82.7C195.337 83.212 195.201 83.7169 194.934 84.1539C194.673 84.5803 194.3 84.9269 193.856 85.1557C193.362 85.4046 192.815 85.5289 192.263 85.5174L188.917 85.5244ZM189.536 84.3765H192.263C192.595 84.3835 192.925 84.3195 193.23 84.1887C193.502 84.0726 193.733 83.876 193.891 83.6252C194.057 83.3487 194.14 83.0295 194.127 82.7069C194.142 82.3885 194.059 82.0731 193.891 81.8026C193.729 81.5638 193.498 81.3796 193.23 81.2739C192.922 81.1545 192.593 81.0955 192.263 81.1H189.536V84.3765Z" fill="#6A6A69"/>
<path d="M197.792 85.5244C197.71 85.5273 197.628 85.5133 197.551 85.4832C197.475 85.4531 197.406 85.4076 197.347 85.3495C197.289 85.2914 197.244 85.222 197.214 85.1456C197.184 85.0691 197.17 84.9873 197.173 84.9052V76.8077C197.169 76.7255 197.182 76.6433 197.212 76.5665C197.242 76.4898 197.288 76.4203 197.346 76.3625C197.405 76.3055 197.475 76.2607 197.552 76.2309C197.628 76.201 197.71 76.1866 197.792 76.1886C197.874 76.1857 197.956 76.1997 198.032 76.2298C198.109 76.2599 198.178 76.3054 198.236 76.3635C198.294 76.4215 198.34 76.491 198.37 76.5674C198.4 76.6438 198.414 76.7257 198.411 76.8077V80.2443H200.373V81.3434H198.418V84.9052C198.42 84.9873 198.405 85.0689 198.376 85.1453C198.346 85.2217 198.301 85.2915 198.244 85.3504C198.185 85.4101 198.115 85.4565 198.037 85.4865C197.959 85.5165 197.875 85.5294 197.792 85.5244ZM204.053 85.3713C203.927 85.4791 203.766 85.5383 203.6 85.5383C203.435 85.5383 203.274 85.4791 203.148 85.3713L199.183 80.766L202.842 76.3903C202.896 76.3258 202.963 76.2737 203.038 76.2377C203.114 76.2017 203.197 76.1825 203.28 76.1817C203.362 76.1775 203.443 76.1924 203.518 76.225C203.593 76.2575 203.659 76.307 203.712 76.3695C203.815 76.476 203.875 76.6176 203.879 76.766C203.869 76.9165 203.808 77.0591 203.705 77.1695L200.679 80.6478L204.011 84.5226C204.116 84.6329 204.182 84.7747 204.199 84.9261C204.213 85.0066 204.206 85.0892 204.181 85.1668C204.156 85.2444 204.111 85.3146 204.053 85.3713Z" fill="#6A6A69"/>
<path d="M206.565 85.5244C206.398 85.5286 206.235 85.4661 206.113 85.3504C206.051 85.2946 206.001 85.2259 205.967 85.149C205.934 85.0722 205.917 84.9891 205.918 84.9052V76.8077C205.915 76.7236 205.931 76.6399 205.965 76.5628C205.998 76.4856 206.049 76.4172 206.113 76.3625C206.235 76.2469 206.398 76.1843 206.565 76.1886C206.647 76.1847 206.728 76.1982 206.803 76.2282C206.879 76.2582 206.947 76.304 207.004 76.3625C207.112 76.4847 207.17 76.6442 207.164 76.8077V83.5904L212.903 76.4182C212.959 76.3451 213.032 76.2862 213.116 76.2464C213.199 76.2065 213.29 76.1867 213.383 76.1886C213.465 76.1857 213.547 76.1997 213.623 76.2298C213.7 76.2599 213.769 76.3054 213.827 76.3635C213.885 76.4215 213.931 76.491 213.961 76.5674C213.991 76.6438 214.005 76.7257 214.002 76.8077V84.9052C214.004 84.9873 213.99 85.0689 213.96 85.1453C213.93 85.2217 213.885 85.2915 213.828 85.3504C213.77 85.4092 213.701 85.455 213.624 85.485C213.547 85.515 213.465 85.5284 213.383 85.5244C213.301 85.5271 213.219 85.5131 213.142 85.4832C213.066 85.4533 212.996 85.4081 212.938 85.3504C212.88 85.2918 212.834 85.2223 212.803 85.1459C212.772 85.0695 212.756 84.9877 212.757 84.9052V78.1086L207.045 85.2809C206.986 85.3492 206.912 85.4038 206.83 85.4409C206.749 85.4888 206.659 85.5174 206.565 85.5244Z" fill="#6A6A69"/>
<path d="M120.223 28.1325C120.503 28.1535 120.785 28.1535 121.065 28.1325C121.385 28.1325 121.698 28.1325 121.997 28.1325C122.278 28.1338 122.559 28.1501 122.839 28.1812C123.051 28.1956 123.257 28.2625 123.437 28.376L123.799 28.6473C123.916 28.7303 124.028 28.8209 124.133 28.9186C124.463 29.1462 124.744 29.437 124.961 29.7742C125.168 30.1048 125.285 30.4836 125.302 30.8734V31.1586C125.292 31.2534 125.292 31.349 125.302 31.4438C125.302 31.9076 125.302 32.3876 125.302 32.8838C125.294 32.9694 125.294 33.0556 125.302 33.1412V33.3708C125.292 33.4587 125.292 33.5473 125.302 33.6351C125.311 33.7253 125.311 33.8163 125.302 33.9065C125.302 34.0108 125.267 34.1012 125.253 34.1917C125.239 34.2821 125.253 34.3795 125.253 34.4769C125.193 34.8143 125.167 35.1569 125.176 35.4995C125.176 35.8404 125.176 36.1952 125.253 36.5221C125.249 36.594 125.249 36.666 125.253 36.7378C125.261 36.8071 125.261 36.8771 125.253 36.9465C125.296 37.3854 125.236 37.8283 125.079 38.2404C124.942 38.644 124.675 38.9912 124.321 39.2282C123.91 39.5146 123.429 39.683 122.929 39.7152C122.453 39.7378 121.978 39.6546 121.538 39.4717C121.105 39.2903 120.723 39.0062 120.425 38.6439C120.108 38.2659 119.886 37.8174 119.778 37.3361C119.735 37.2369 119.709 37.131 119.702 37.023C119.702 36.9117 119.702 36.8074 119.653 36.703C119.557 35.9571 119.583 35.2006 119.729 34.463C119.876 33.7231 120.214 33.0347 120.71 32.4664L119.263 32.5221C118.783 32.5419 118.301 32.5233 117.823 32.4664H117.524C117.422 32.4595 117.32 32.4595 117.218 32.4664C116.522 32.4038 115.827 32.3551 115.082 32.3273C114.338 32.2995 113.642 32.3273 112.919 32.3273C111.555 32.3922 110.217 32.5035 108.905 32.6612C107.573 32.8229 106.23 32.8625 104.891 32.7795C105.072 33.1204 105.253 33.4751 105.434 33.8786C105.612 34.2604 105.751 34.6589 105.851 35.0682C105.953 35.4657 106 35.8753 105.99 36.2856C105.977 36.6993 105.867 37.1042 105.67 37.4682C105.477 37.8295 105.2 38.1395 104.863 38.3726C104.533 38.6084 104.159 38.7763 103.764 38.8665C103.373 38.9569 102.966 38.9569 102.574 38.8665C102.171 38.7766 101.797 38.5851 101.489 38.31C101.229 38.0976 101.024 37.8256 100.891 37.5169C100.77 37.2233 100.69 36.9142 100.654 36.5987C100.612 36.2688 100.591 35.9365 100.592 35.6039C100.592 35.2736 100.571 34.9436 100.529 34.616C100.511 34.5264 100.497 34.4358 100.487 34.3447C100.473 34.2515 100.447 34.1604 100.411 34.0734C100.311 33.742 100.23 33.4052 100.167 33.0647C100.112 32.7377 100.042 32.369 99.9587 32.056C99.8383 31.5861 99.7983 31.0992 99.8404 30.616C99.8744 30.1433 100.002 29.6822 100.216 29.2594C100.424 28.8654 100.728 28.5303 101.1 28.2855C101.515 28.0244 102.002 27.9026 102.491 27.9377H103.187H103.68C103.789 27.9561 103.899 27.9561 104.007 27.9377C104.105 27.9141 104.194 27.8635 104.265 27.7916C104.369 27.682 104.46 27.5606 104.536 27.4299C104.696 27.1864 104.87 26.9499 105.051 26.7342C105.232 26.5185 105.399 26.282 105.559 26.0385C105.621 25.9342 105.67 25.8507 105.712 25.7672L105.83 25.4959C105.914 25.3019 105.984 25.1019 106.039 24.8977L106.22 24.2646C106.22 24.1463 106.254 24.0281 106.268 23.9168C106.279 23.7987 106.303 23.6822 106.338 23.5689C106.362 23.4449 106.378 23.3194 106.387 23.1933C106.387 23.0681 106.387 22.9429 106.428 22.8176C106.47 22.4211 106.505 22.0246 106.54 21.635C106.574 21.2454 106.581 20.8489 106.581 20.4454V18.5393C106.581 18.435 106.581 18.3445 106.581 18.268C106.574 18.1777 106.574 18.087 106.581 17.9967V17.1689C106.581 16.8918 106.56 16.6151 106.519 16.341C106.519 16.2437 106.519 16.1463 106.519 16.0558C106.511 15.9609 106.511 15.8655 106.519 15.7706C106.519 15.2489 106.574 14.6993 106.623 14.1149C106.67 13.5446 106.775 12.9806 106.936 12.4314C107.095 11.9042 107.329 11.4027 107.632 10.9427C107.902 10.4952 108.286 10.1278 108.745 9.87837L109.044 9.76011L109.343 9.63489C109.753 9.48982 110.178 9.38953 110.609 9.33576L110.86 9.29402L111.117 9.24532C111.508 9.28683 111.902 9.28683 112.293 9.24532H112.578C112.673 9.23804 112.768 9.23804 112.863 9.24532C113.086 9.20358 113.295 9.17576 113.51 9.15489C113.726 9.13402 113.935 9.10619 114.157 9.06445C114.369 9.0637 114.58 9.03326 114.783 8.97402L116.23 8.77923C116.728 8.70904 117.232 8.69737 117.733 8.74445C118.196 8.79134 118.646 8.93092 119.055 9.15489C119.48 9.40459 119.802 9.79993 119.959 10.2679C120.001 10.3862 120.035 10.5045 120.077 10.6088L120.202 10.9566C120.322 11.4836 120.376 12.0234 120.362 12.5636C120.362 13.1201 120.321 13.6767 120.258 14.2471C120.195 14.8176 120.126 15.381 120.049 15.9167C119.973 16.4524 119.91 16.9741 119.868 17.4541C119.806 18.4559 119.785 19.4367 119.806 20.3828C119.827 21.3289 119.889 22.3168 119.987 23.3185C120.052 24.1162 120.142 24.9232 120.258 25.7394C120.372 26.534 120.36 27.3415 120.223 28.1325ZM100.647 35.1378C100.635 35.1974 100.635 35.259 100.647 35.3186C100.635 35.259 100.635 35.1974 100.647 35.1378ZM104.766 26.9568C104.77 26.9728 104.77 26.9895 104.766 27.0055C104.766 27.0055 104.766 27.0055 104.766 27.0472C104.766 27.089 104.766 27.0125 104.766 27.0055C104.77 26.9895 104.77 26.9728 104.766 26.9568ZM110.06 28.2786C110.206 28.2666 110.352 28.2666 110.498 28.2786H111.194C111.653 28.2786 112.126 28.2786 112.585 28.2368L113.976 28.1881C113.838 27.3888 113.808 26.5746 113.886 25.7672C113.969 24.9533 114.074 24.1394 114.206 23.3185C114.338 22.4976 114.449 21.6768 114.547 20.8698C114.651 20.0546 114.651 19.2293 114.547 18.4141C114.491 17.8576 114.421 17.2941 114.352 16.7306C114.282 16.1671 114.22 15.6106 114.157 15.0471C114.137 14.9531 114.123 14.8578 114.115 14.7619C114.115 14.6715 114.115 14.5741 114.067 14.4767C114.025 14.1883 114.025 13.8955 114.067 13.6071C114.102 13.4802 114.097 13.3455 114.054 13.2212C114.01 13.0969 113.93 12.9888 113.823 12.9114C113.544 12.7535 113.241 12.643 112.926 12.5845C112.76 12.526 112.586 12.4954 112.411 12.4941C112.244 12.4522 112.07 12.4522 111.903 12.4941C111.741 12.5 111.584 12.5532 111.451 12.6471C111.277 12.7484 111.128 12.8894 111.018 13.0586C110.908 13.2278 110.84 13.4204 110.818 13.621C110.759 14.0286 110.79 14.444 110.908 14.8384C111.15 15.6178 111.272 16.4294 111.27 17.2454V18.0872C111.28 18.168 111.28 18.2498 111.27 18.3306C111.266 18.5016 111.245 18.6717 111.208 18.8385C111.169 18.9559 111.143 19.0772 111.131 19.2002C111.131 19.3185 111.131 19.4367 111.131 19.562C111.089 20.4594 111.075 21.3498 111.089 22.2194C111.097 23.0969 110.989 23.9716 110.769 24.8211C110.769 24.9603 110.769 25.0924 110.728 25.2107C110.686 25.329 110.728 25.4542 110.679 25.5724C110.668 25.6835 110.668 25.7953 110.679 25.9064C110.68 26.0185 110.659 26.1297 110.616 26.2333C110.574 26.4559 110.54 26.6646 110.498 26.8664C110.451 27.0841 110.381 27.2962 110.289 27.4994C110.252 27.6274 110.221 27.7575 110.199 27.889C110.16 28.0215 110.114 28.1516 110.06 28.2786Z" fill="#8DBE2D"/>
<path d="M126.349 18.9776C126.112 17.9867 125.947 16.98 125.855 15.9654C125.774 15.207 125.774 14.4421 125.855 13.6836C125.916 13.0864 126.068 12.5022 126.307 11.9514C126.517 11.4742 126.793 11.0292 127.128 10.6297C127.37 10.3233 127.686 10.0838 128.046 9.93403C128.397 9.79284 128.768 9.70605 129.145 9.67664C129.53 9.64539 129.916 9.64539 130.3 9.67664C130.697 9.71838 131.079 9.76707 131.462 9.82968C132.057 9.92578 132.661 9.96075 133.264 9.93403L135.065 9.82968C135.612 9.78793 136.161 9.78793 136.707 9.82968C137.251 9.8589 137.772 10.0585 138.196 10.4001C138.406 10.5935 138.57 10.8311 138.676 11.0958C138.797 11.3658 138.868 11.6558 138.885 11.9514C138.907 12.2476 138.871 12.5453 138.78 12.828C138.694 13.0849 138.557 13.3216 138.377 13.5236C138.119 13.7988 137.792 14.0005 137.431 14.108C137.043 14.2206 136.644 14.286 136.241 14.3028C135.826 14.3272 135.411 14.3272 134.996 14.3028C134.585 14.268 134.21 14.2541 133.869 14.2541C133.596 14.2537 133.323 14.2281 133.055 14.1776C132.756 14.1302 132.453 14.1069 132.151 14.108C131.861 14.1044 131.573 14.1442 131.295 14.2263C131.017 14.3058 130.772 14.4744 130.599 14.7063C130.336 15.071 130.193 15.5086 130.189 15.9584C130.182 16.4513 130.228 16.9435 130.328 17.4263C130.424 17.9362 130.55 18.4402 130.704 18.9359C130.839 19.3638 130.944 19.8009 131.017 20.2437C131.427 20.084 131.817 19.8762 132.178 19.6246L133.347 18.8246C133.722 18.5728 134.126 18.3673 134.551 18.2124C134.96 18.0615 135.406 18.0349 135.831 18.1359C136.121 18.1922 136.39 18.3269 136.61 18.5254C136.826 18.7171 136.998 18.9548 137.111 19.2211C137.216 19.4939 137.271 19.7841 137.271 20.0767C137.275 20.3675 137.213 20.6554 137.09 20.9185C136.838 21.4215 136.468 21.856 136.011 22.1846C135.492 22.5734 134.933 22.9046 134.342 23.1724C133.737 23.4578 133.109 23.6905 132.464 23.8681C131.9 24.0234 131.325 24.1396 130.745 24.2159C130.669 24.5151 130.585 24.8142 130.509 25.1064C130.425 25.3972 130.355 25.692 130.3 25.9899C130.159 26.4097 130.184 26.8678 130.37 27.2699C130.457 27.3838 130.571 27.4737 130.703 27.5309C130.834 27.5882 130.978 27.6108 131.121 27.5968C131.521 27.574 131.914 27.4822 132.283 27.3255C132.721 27.1586 133.173 26.9707 133.632 26.7759C134.091 26.5812 134.523 26.4003 134.926 26.2472C135.238 26.1077 135.581 26.0502 135.921 26.0803C136.596 26.1885 137.23 26.4742 137.758 26.9081C138.294 27.3298 138.725 27.8704 139.017 28.4873C139.295 29.0715 139.399 29.7237 139.316 30.3655C139.267 30.7055 139.148 31.0317 138.968 31.3238C138.787 31.6158 138.548 31.8675 138.265 32.063C137.971 32.3079 137.61 32.4603 137.229 32.5012C136.87 32.5313 136.509 32.5055 136.158 32.4247C135.803 32.3482 135.462 32.2508 135.079 32.1395C134.727 32.031 134.362 31.9656 133.994 31.9447C133.321 31.9053 132.646 31.9806 131.998 32.1673C131.346 32.3573 130.673 32.4648 129.994 32.4873C129.338 32.5397 128.679 32.4148 128.088 32.1256C127.546 31.8523 127.071 31.4627 126.697 30.9847C126.306 30.4889 126.015 29.9218 125.841 29.3151C125.648 28.6869 125.561 28.031 125.584 27.3742C125.582 27.0381 125.626 26.7034 125.716 26.3794C125.806 26.0586 125.912 25.7428 126.036 25.4333C126.154 25.1272 126.272 24.8211 126.397 24.5151C126.52 24.2055 126.608 23.8836 126.662 23.555C126.786 22.7889 126.802 22.0092 126.711 21.2385C126.634 20.4941 126.509 19.7289 126.349 18.9776Z" fill="#8DBE2D"/>
<path d="M145.806 19.7985C145.806 19.1028 145.806 18.5602 145.806 18.1776C145.809 17.8767 145.77 17.5768 145.688 17.2872C145.626 17.0865 145.499 16.9125 145.326 16.7932C145.159 16.675 144.909 16.5219 144.589 16.3411L143.552 15.7428C143.142 15.4993 142.731 15.235 142.321 14.9428C141.917 14.6577 141.535 14.3414 141.18 13.9967C140.853 13.6933 140.578 13.3385 140.366 12.9462C140.174 12.5965 140.1 12.1935 140.158 11.7984C140.247 11.332 140.492 10.91 140.853 10.6019C141.063 10.3662 141.323 10.1812 141.615 10.0607C141.907 9.94018 142.222 9.88736 142.537 9.90621C143.22 9.95698 143.892 10.1045 144.533 10.3445C145.229 10.5949 145.925 10.8732 146.62 11.1862C147.197 11.4674 147.814 11.6553 148.45 11.7427C149.215 11.8428 149.992 11.8264 150.752 11.6941C151.448 11.5688 152.206 11.4088 152.992 11.228C153.275 11.1706 153.561 11.1311 153.848 11.1097C154.126 11.0889 154.406 11.1148 154.676 11.1862C154.935 11.2539 155.173 11.3828 155.372 11.5619C155.584 11.7531 155.748 11.9914 155.852 12.2575C156.063 12.6897 156.112 13.1834 155.991 13.6489C155.855 14.08 155.616 14.4716 155.295 14.7897C154.909 15.1762 154.46 15.4938 153.966 15.7289C153.472 15.9752 152.957 16.18 152.429 16.3411C151.934 16.4945 151.427 16.6017 150.912 16.6611C150.499 16.7185 150.08 16.7185 149.667 16.6611C149.858 17.4354 150.002 18.2206 150.098 19.0124C150.252 20.0698 150.349 21.2315 150.405 22.4907C150.452 23.7804 150.426 25.0717 150.328 26.3586C150.249 27.5393 150.032 28.7067 149.681 29.8368C149.421 30.7235 148.92 31.5205 148.234 32.1395C147.887 32.4072 147.477 32.5817 147.044 32.6463C146.61 32.7108 146.168 32.6633 145.758 32.5082C145.533 32.4733 145.317 32.3938 145.124 32.2743C144.93 32.1548 144.763 31.9978 144.631 31.8125C144.391 31.4353 144.245 31.0058 144.206 30.5603C144.158 30.0445 144.183 29.5244 144.283 29.016C144.378 28.4624 144.504 27.9143 144.658 27.3742C144.811 26.8455 144.958 26.3446 145.111 25.8716C145.239 25.4817 145.343 25.0844 145.424 24.682C145.584 23.8911 145.679 23.0884 145.709 22.282C145.765 21.4333 145.785 20.6263 145.806 19.7985Z" fill="#8DBE2D"/>
<path d="M173.819 26.1777C174.078 26.9608 174.23 27.775 174.272 28.5986C174.302 29.191 174.241 29.7846 174.091 30.3586C173.979 30.7793 173.79 31.1756 173.534 31.5273C173.346 31.7879 173.124 32.0219 172.873 32.223C172.716 32.349 172.545 32.4586 172.365 32.5499C172.233 32.6125 172.205 32.6404 172.289 32.6404C171.971 32.697 171.645 32.6874 171.332 32.6119C171.018 32.5365 170.723 32.397 170.466 32.2021C170.016 31.8308 169.667 31.3524 169.451 30.8108C169.21 30.205 169.058 29.5677 168.998 28.9186C168.933 28.3085 168.898 27.6956 168.894 27.082C168.894 26.3215 168.894 25.5493 168.894 24.7655C168.894 23.9864 168.894 23.2142 168.971 22.4489C168.971 22.3516 168.971 22.1081 168.971 21.7533C168.971 21.3985 168.971 20.9463 169.019 20.4872L169.075 18.7411C168.596 19.1056 168.216 19.5839 167.969 20.1324C167.702 20.6855 167.49 21.2633 167.336 21.8576C167.176 22.4698 167.037 23.089 166.911 23.7081C166.804 24.2943 166.643 24.8694 166.431 25.4264C166.195 25.969 165.917 26.5812 165.604 27.2768C165.288 27.9713 164.932 28.6472 164.539 29.3012C164.148 29.9473 163.693 30.5531 163.183 31.1099C162.717 31.5918 162.149 31.9627 161.52 32.1951C160.982 32.4621 160.37 32.5429 159.781 32.4247C159.332 32.3033 158.939 32.0305 158.668 31.6525C158.362 31.2254 158.146 30.74 158.035 30.2264C157.895 29.6442 157.809 29.0504 157.777 28.4525C157.777 27.8403 157.777 27.256 157.777 26.6925C157.777 26.129 157.847 25.6629 157.882 25.3011C158.028 24.042 158.118 22.7829 158.153 21.5446C158.193 20.2931 158.083 19.0413 157.826 17.8159C157.701 17.2941 157.597 16.7863 157.492 16.2924C157.388 15.7984 157.311 15.3184 157.256 14.8384C157.192 14.3496 157.166 13.8565 157.179 13.3636C157.193 12.8276 157.258 12.2941 157.374 11.7706C157.495 11.0594 157.856 10.4111 158.397 9.93403C158.832 9.58366 159.369 9.38355 159.927 9.36359C160.484 9.35891 161.029 9.52126 161.492 9.82969C161.918 10.0833 162.265 10.4494 162.495 10.8875C162.726 11.3257 162.832 11.819 162.8 12.3132C162.79 12.7796 162.746 13.2446 162.668 13.7045C162.584 14.1706 162.501 14.6367 162.411 15.0958C162.327 15.502 162.271 15.9134 162.244 16.3271C162.244 16.6889 162.244 17.2176 162.188 17.9202C162.132 18.6228 162.118 19.3602 162.111 20.1324C162.104 20.9046 162.111 21.635 162.153 22.3237C162.161 22.8641 162.265 23.3987 162.459 23.9029C162.979 23.4908 163.434 23.003 163.809 22.4559C164.234 21.8466 164.607 21.2019 164.922 20.5289C165.265 19.8194 165.585 19.068 165.882 18.275C166.188 17.4819 166.473 16.6819 166.758 15.868C167.044 15.0541 167.329 14.268 167.628 13.4958C167.927 12.7236 168.247 12.021 168.574 11.3254C169.054 10.4071 169.583 9.87838 170.153 9.74621C170.432 9.68341 170.722 9.68328 171.001 9.74584C171.28 9.80839 171.542 9.93206 171.767 10.1079C172.312 10.5414 172.744 11.0998 173.026 11.7358C173.36 12.4133 173.536 13.1578 173.541 13.9132C173.541 14.9336 173.444 15.9516 173.249 16.9532C173.059 17.9542 172.945 18.9681 172.908 19.9863C172.865 21.0378 172.926 22.091 173.089 23.1307C173.257 24.1629 173.501 25.1813 173.819 26.1777Z" fill="#8DBE2D"/>
<path d="M107.954 49.5101C108.058 50.5745 108.142 51.7571 108.211 53.058C108.281 54.3765 108.281 55.6977 108.211 57.0163C108.143 58.3277 107.992 59.6335 107.759 60.9259C107.553 62.1319 107.179 63.3028 106.646 64.4042C106.164 65.4099 105.485 66.3087 104.649 67.0477C103.781 67.795 102.716 68.2779 101.582 68.439C101.216 68.5286 100.834 68.5286 100.469 68.439C100.133 68.3623 99.8216 68.202 99.5642 67.9729C99.3033 67.7439 99.0946 67.4616 98.952 67.1451C98.7968 66.8169 98.7183 66.4576 98.7225 66.0946C98.7003 65.5979 98.7166 65.1001 98.7712 64.6059C98.8244 64.1223 98.9609 63.6516 99.1746 63.2146C99.3452 62.8235 99.5624 62.4544 99.8216 62.1154C99.9718 61.9405 100.157 61.7984 100.364 61.6981C100.591 61.5893 100.823 61.4918 101.06 61.4059C101.497 61.2293 101.914 61.0078 102.305 60.745C102.583 60.4459 102.827 60.1746 103.001 59.938C103.204 59.6837 103.383 59.4112 103.536 59.1241C103.718 58.7865 103.86 58.4294 103.961 58.0598C104.079 57.6493 104.204 57.1206 104.323 56.4806C104.441 55.9157 104.497 55.3395 104.489 54.7623C104.489 54.1849 104.489 53.6006 104.489 53.0232C104.492 52.1279 104.439 51.2334 104.329 50.3449C104.217 49.4568 104.17 48.5616 104.19 47.6666C104.147 47.1903 104.28 46.7147 104.566 46.3309C104.82 46.0591 105.149 45.87 105.512 45.7883C105.923 45.6955 106.344 45.6604 106.764 45.684C107.216 45.684 107.641 45.684 108.044 45.684C108.622 45.7257 109.206 45.7535 109.797 45.7744C110.396 45.795 110.996 45.7741 111.592 45.7118C111.784 45.6932 111.974 45.663 112.163 45.6214L113.046 45.4614C113.226 45.4352 113.403 45.3933 113.575 45.3361C113.651 45.3361 113.484 45.3361 113.06 45.3848C113.422 45.2874 113.846 45.1761 114.34 45.0648C114.831 44.9608 115.328 44.891 115.829 44.8561C116.312 44.8286 116.798 44.8542 117.276 44.9327C117.706 44.9991 118.105 45.1985 118.417 45.5031C118.908 46.0037 119.327 46.5703 119.662 47.1866C119.985 47.8313 120.097 48.5616 119.982 49.2736C119.921 49.6698 119.814 50.0574 119.662 50.4284C119.516 50.7971 119.356 51.1658 119.182 51.5275C119.008 51.8893 118.862 52.2232 118.73 52.6197C118.597 53.0022 118.532 53.4045 118.535 53.8093C118.535 54.7971 118.535 55.778 118.611 56.7589C118.688 57.7397 118.667 58.7206 118.611 59.7015C118.608 60.1218 118.648 60.5414 118.73 60.9537C118.813 61.3265 118.92 61.6936 119.05 62.0528C119.175 62.4076 119.314 62.7485 119.453 63.1311C119.615 63.5246 119.757 63.9263 119.877 64.3346C119.981 64.7368 120.032 65.1506 120.031 65.5659C120.032 65.974 119.971 66.3798 119.85 66.7694C119.73 67.1614 119.522 67.5205 119.241 67.8185C118.959 68.1166 118.613 68.3456 118.229 68.4877C117.568 68.761 116.839 68.8242 116.142 68.6686C115.538 68.5159 114.984 68.209 114.535 67.7781C114.072 67.3288 113.703 66.792 113.45 66.199C113.185 65.5882 113.027 64.9363 112.983 64.272C112.931 63.5332 112.931 62.7916 112.983 62.0528C113.032 61.3085 113.095 60.5641 113.164 59.8128C113.234 59.0615 113.303 58.3102 113.359 57.5728C113.42 56.8207 113.431 56.0655 113.394 55.3119C113.334 54.4257 113.227 53.5433 113.074 52.6684C112.925 51.7956 112.88 50.9082 112.942 50.0249C112.942 49.7049 112.754 49.4684 112.323 49.3292C111.831 49.18 111.32 49.1049 110.806 49.1066C110.238 49.0928 109.67 49.1324 109.109 49.2249C108.714 49.2764 108.327 49.3721 107.954 49.5101Z" fill="#8DBE2D"/>
<path d="M128.734 62.7137C128.789 62.6302 128.873 62.4981 128.97 62.3241C129.067 62.1502 129.165 61.9554 129.255 61.7676C129.339 61.5868 129.411 61.4009 129.471 61.2111C129.52 61.0302 129.513 60.905 129.471 60.8493C129.268 60.5184 129.035 60.2064 128.775 59.9172C128.511 59.6319 128.254 59.3328 127.989 59.0128C127.53 58.4493 127.127 57.9484 126.786 57.4963L125.826 56.2163L124.942 55.0406C124.65 54.6649 124.309 54.2406 123.934 53.7814L123.043 52.5919C122.751 52.2023 122.445 51.8058 122.125 51.4023C121.793 50.9954 121.556 50.5203 121.429 50.011C121.278 49.4729 121.226 48.9119 121.276 48.3553C121.323 47.8119 121.487 47.2851 121.756 46.8109C122.035 46.323 122.448 45.9248 122.946 45.6631C123.456 45.3471 124.067 45.2353 124.657 45.3501C125.193 45.4886 125.677 45.7812 126.048 46.1918C126.485 46.6838 126.849 47.2369 127.127 47.8336C127.447 48.4944 127.753 49.2249 128.045 49.9205C128.337 50.6162 128.615 51.4371 128.887 52.2092C129.133 52.9203 129.418 53.617 129.742 54.2962C129.967 54.8474 130.259 55.3685 130.612 55.8476C130.907 56.2207 131.332 56.4691 131.801 56.5432C132.121 55.458 132.386 54.3728 132.594 53.2806C132.803 52.1884 132.991 51.0753 133.151 49.9553C133.234 49.3918 133.339 48.8075 133.471 48.1953C133.59 47.6066 133.796 47.0391 134.083 46.5118C134.349 46.0176 134.731 45.5951 135.196 45.2805C135.736 44.9509 136.369 44.8068 136.998 44.87C137.325 44.87 137.645 44.87 137.965 44.87C138.281 44.856 138.598 44.87 138.911 44.9118C139.212 44.9484 139.505 45.0305 139.781 45.1553C140.077 45.2954 140.332 45.5114 140.518 45.7814C140.689 46.0068 140.811 46.2657 140.876 46.5414C140.941 46.817 140.947 47.1033 140.894 47.3814C140.782 47.917 140.636 48.4736 140.462 49.0301C140.247 49.6951 139.989 50.3458 139.69 50.9779C139.398 51.5762 139.092 52.1606 138.758 52.731C138.424 53.3014 138.097 53.8788 137.77 54.4632C137.443 55.0475 137.123 55.6458 136.817 56.2649C136.358 57.2737 135.892 58.2963 135.426 59.3467C134.945 60.373 134.399 61.3675 133.791 62.3241C133.429 62.9433 133.061 63.5555 132.678 64.1537C132.308 64.7436 131.897 65.3062 131.447 65.8372C131.002 66.365 130.514 66.8538 129.986 67.2981C129.442 67.7582 128.841 68.1464 128.198 68.4529C127.697 68.6964 127.189 68.919 126.667 69.1138C126.16 69.3117 125.629 69.4449 125.088 69.5103C124.569 69.5681 124.043 69.5304 123.537 69.399C123.003 69.247 122.522 68.951 122.146 68.5433C121.705 68.1403 121.423 67.5922 121.353 66.999C121.276 66.4338 121.348 65.8584 121.561 65.3294C121.774 64.8013 122.122 64.3384 122.57 63.9868C123.039 63.6144 123.62 63.4088 124.219 63.4024C124.651 63.3864 125.081 63.4573 125.485 63.6111C125.9 63.7663 126.328 63.8827 126.765 63.9589C127.143 64.0316 127.534 63.9954 127.892 63.8546C128.103 63.7319 128.286 63.5674 128.431 63.3712C128.575 63.175 128.678 62.9512 128.734 62.7137Z" fill="#8DBE2D"/>
<path d="M152.574 47.1935C152.804 46.4918 153.234 45.8727 153.812 45.4127C154.243 45.0839 154.772 44.91 155.314 44.9187C155.853 44.9462 156.373 45.122 156.817 45.4266C157.314 45.7529 157.732 46.1853 158.041 46.6927C158.365 47.2296 158.569 47.8299 158.64 48.4527C158.714 49.1304 158.62 49.8159 158.368 50.4492C158.187 50.9084 158.041 51.3327 157.93 51.7153C157.819 52.0891 157.736 52.4704 157.68 52.8562C157.617 53.2499 157.58 53.6473 157.568 54.0458C157.568 54.4539 157.568 54.8991 157.568 55.3815C157.568 55.8406 157.568 56.3276 157.52 56.8423C157.471 57.3571 157.464 57.865 157.429 58.3867C157.394 58.9085 157.429 59.4232 157.429 59.9241C157.448 60.3941 157.518 60.8606 157.638 61.3154C157.759 61.7119 157.901 62.102 158.062 62.4841C158.222 62.8668 158.368 63.2424 158.514 63.6181C158.657 63.9928 158.766 64.3792 158.841 64.7729C158.911 65.192 158.911 65.6198 158.841 66.039C158.823 66.4205 158.725 66.794 158.554 67.1354C158.382 67.4768 158.141 67.7787 157.847 68.0216C157.312 68.4322 156.656 68.6547 155.982 68.6546C155.277 68.6474 154.589 68.4373 154 68.0494C153.369 67.6503 152.881 67.0607 152.608 66.3659C152.395 65.8524 152.254 65.3115 152.191 64.7589C152.128 64.2048 152.107 63.6467 152.128 63.0894C152.128 62.5259 152.191 61.9624 152.254 61.392C152.316 60.8215 152.372 60.265 152.434 59.7224C151.551 59.7224 150.605 59.7224 149.603 59.7641C148.647 59.8014 147.69 59.7267 146.751 59.5415C145.876 59.3746 145.049 59.0158 144.33 58.4911C143.568 57.8774 143.039 57.0201 142.834 56.0632C142.607 55.2302 142.442 54.3815 142.34 53.524C142.229 52.6127 142.132 51.7362 142.055 50.8945C141.952 50.1012 141.912 49.301 141.937 48.5014C141.945 47.7092 142.117 46.9272 142.445 46.2057C142.631 45.8436 142.918 45.5437 143.273 45.3431C143.646 45.1333 144.053 44.992 144.476 44.9257C144.909 44.8528 145.351 44.8528 145.784 44.9257C146.188 44.9935 146.57 45.1582 146.897 45.4057C147.227 45.6685 147.469 46.025 147.593 46.4283C147.733 46.8809 147.824 47.3474 147.864 47.8196C147.906 48.3057 147.906 48.7945 147.864 49.2805C147.822 49.7605 147.794 50.171 147.773 50.5118C147.753 50.8527 147.669 51.3188 147.593 51.7292C147.513 52.1301 147.473 52.5379 147.474 52.9467C147.471 53.3322 147.542 53.7148 147.683 54.0736C147.851 54.4646 148.135 54.7948 148.497 55.0197C148.793 55.2321 149.129 55.3813 149.485 55.458C149.821 55.5282 150.164 55.5678 150.507 55.5762C150.848 55.5762 151.203 55.5762 151.565 55.5762C151.916 55.5678 152.267 55.5841 152.615 55.6249C152.574 54.9293 152.511 54.2336 152.42 53.538C152.33 52.8423 152.26 52.1049 152.205 51.3814C152.16 50.6656 152.16 49.9476 152.205 49.2318C152.222 48.5375 152.346 47.8499 152.574 47.1935Z" fill="#8DBE2D"/>
<path d="M176.999 62.2615C177.254 63.0455 177.406 63.8593 177.451 64.6824C177.481 65.2749 177.42 65.8685 177.27 66.4424C177.159 66.8631 176.97 67.2594 176.714 67.6111C176.526 67.8717 176.303 68.1057 176.053 68.3068C175.894 68.4343 175.721 68.544 175.538 68.6338C175.406 68.6964 175.385 68.7242 175.461 68.7242C175.145 68.7796 174.821 68.7699 174.509 68.6958C174.197 68.6216 173.903 68.4845 173.646 68.2929C173.188 67.9108 172.835 67.4173 172.623 66.8598C172.386 66.2531 172.233 65.6163 172.171 64.9676C172.105 64.3576 172.07 63.7446 172.067 63.1311C172.067 62.3728 172.067 61.6006 172.067 60.8145C172.053 60.0439 172.079 59.2731 172.143 58.505C172.143 58.4006 172.143 58.1641 172.143 57.8093C172.143 57.4545 172.143 57.0093 172.185 56.5432L172.247 54.8041C171.77 55.1542 171.387 55.6181 171.134 56.1536C170.87 56.71 170.658 57.2899 170.501 57.8858C170.341 58.498 170.202 59.1102 170.084 59.7293C169.97 60.314 169.81 60.8886 169.604 61.4476C169.36 61.9902 169.082 62.6024 168.776 63.2981C168.46 63.994 168.103 64.67 167.705 65.3224C167.32 65.9711 166.867 66.5773 166.355 67.1311C165.899 67.641 165.333 68.0406 164.7 68.2998C164.159 68.5669 163.545 68.6476 162.953 68.5294C162.508 68.4048 162.116 68.1356 161.84 67.7642C161.541 67.3307 161.326 66.8445 161.207 66.3311C161.067 65.7493 160.983 65.1552 160.957 64.5572C160.922 63.971 160.922 63.3833 160.957 62.7972C160.957 62.2406 161.019 61.7676 161.061 61.4059C161.2 60.1444 161.291 58.8922 161.333 57.6493C161.373 56.3974 161.261 55.1452 160.999 53.9206C160.88 53.3988 160.769 52.891 160.672 52.404C160.574 51.9171 160.491 51.4231 160.428 50.9431C160.367 50.454 160.342 49.9611 160.352 49.4683C160.369 48.9326 160.434 48.3994 160.546 47.8753C160.668 47.1705 161.029 46.5292 161.569 46.0596C162.005 45.7044 162.545 45.5016 163.106 45.4822C163.663 45.4775 164.208 45.6399 164.672 45.9483C165.097 46.2019 165.444 46.568 165.675 47.0061C165.906 47.4443 166.011 47.9376 165.98 48.4318C165.967 48.8983 165.92 49.3633 165.84 49.8231C165.764 50.2962 165.673 50.7623 165.583 51.2144C165.502 51.6208 165.448 52.0322 165.423 52.4458C165.423 52.8075 165.423 53.3362 165.36 54.0388C165.298 54.7414 165.298 55.4788 165.284 56.251C165.27 57.0232 165.284 57.7536 165.333 58.4424C165.339 58.9822 165.44 59.5168 165.632 60.0215C166.155 59.6213 166.611 59.1398 166.981 58.5954C167.407 57.9861 167.779 57.3414 168.094 56.6684C168.435 55.9728 168.755 55.2075 169.061 54.4145C169.367 53.6214 169.653 52.8214 169.931 52.0075C170.209 51.1936 170.501 50.4075 170.8 49.6353C171.1 48.8631 171.427 48.1396 171.767 47.4579C172.247 46.5327 172.776 46.004 173.347 45.8787C173.624 45.8125 173.912 45.8101 174.191 45.8715C174.469 45.933 174.73 46.0568 174.954 46.2335C175.497 46.6512 175.934 47.1926 176.227 47.8127C176.561 48.4902 176.737 49.2347 176.741 49.9901C176.741 51.0101 176.645 52.0278 176.456 53.0301C176.264 54.0309 176.147 55.0448 176.108 56.0632C176.066 57.1147 176.126 58.1679 176.289 59.2076C176.45 60.2416 176.688 61.2623 176.999 62.2615Z" fill="#8DBE2D"/>
<path d="M180.796 57.1206C180.796 56.7589 180.796 56.3276 180.796 55.8267C180.796 55.3258 180.733 54.811 180.671 54.2754C180.608 53.7397 180.546 53.2319 180.462 52.7449C180.379 52.258 180.316 51.8406 180.253 51.5136C180.191 51.1866 180.149 50.9571 180.114 50.8179C180.08 50.6788 180.114 50.7484 180.114 50.971C180.073 50.6092 180.024 50.2405 179.975 49.8579C179.925 49.475 179.9 49.0893 179.899 48.7031C179.898 48.3171 179.94 47.9321 180.024 47.5553C180.102 47.1825 180.256 46.8297 180.476 46.5188C180.632 46.2839 180.836 46.0848 181.074 45.9344C181.301 45.7876 181.558 45.6948 181.826 45.6631C182.084 45.6342 182.346 45.6651 182.591 45.7535C182.857 45.856 183.084 46.0414 183.238 46.2822C183.555 46.7338 183.791 47.2377 183.933 47.7709C184.097 48.3353 184.214 48.9124 184.281 49.4962C184.351 50.0943 184.385 50.6959 184.386 51.2979V52.9884C184.884 52.6973 185.35 52.3545 185.777 51.9658C186.188 51.582 186.566 51.163 186.904 50.7136C187.247 50.2498 187.567 49.786 187.864 49.3223C188.163 48.8423 188.476 48.3623 188.796 47.8823C189.019 47.5623 189.269 47.2214 189.547 46.8596C189.822 46.5055 190.139 46.1876 190.494 45.9135C190.83 45.6505 191.206 45.4416 191.607 45.2944C192.018 45.1552 192.459 45.124 192.887 45.204C193.425 45.2702 193.921 45.5327 194.278 45.9414C194.564 46.3026 194.736 46.741 194.772 47.2005C194.808 47.6957 194.742 48.1931 194.577 48.6614C194.421 49.1486 194.186 49.6069 193.881 50.0179C193.541 50.4805 193.159 50.9113 192.741 51.3049C192.323 51.7084 191.885 52.098 191.433 52.4806L190.139 53.6284C189.692 54.0079 189.265 54.4096 188.859 54.8319C189.592 55.1866 190.25 55.6777 190.8 56.2789C191.349 56.8836 191.827 57.5487 192.226 58.2615C192.637 58.982 192.975 59.7417 193.234 60.5293C193.492 61.3224 193.714 62.1015 193.895 62.8598C194.021 63.4522 194.112 64.0515 194.167 64.6546C194.23 65.2783 194.19 65.9082 194.048 66.519C193.925 67.0769 193.654 67.5913 193.262 68.0077C193.038 68.2192 192.773 68.3836 192.484 68.4911C192.195 68.5986 191.887 68.6471 191.579 68.6338C191.053 68.681 190.531 68.5185 190.125 68.1816C189.742 67.8515 189.438 67.4404 189.234 66.9781C189.01 66.4845 188.844 65.9661 188.74 65.4337C188.629 64.8842 188.532 64.3833 188.455 63.945C188.33 63.3398 188.198 62.7555 188.045 62.1711C187.913 61.6228 187.695 61.099 187.398 60.6198C187.116 60.1648 186.729 59.7833 186.271 59.5067C185.715 59.1959 185.092 59.0263 184.455 59.0128C184.553 60.1974 184.588 61.3863 184.56 62.5746C184.533 63.7561 184.336 64.9275 183.975 66.0529C183.809 66.5648 183.542 67.038 183.189 67.4442C182.858 67.8416 182.442 68.1601 181.972 68.3764C181.52 68.5759 181.019 68.6388 180.532 68.5573C179.957 68.4448 179.442 68.1316 179.078 67.6738C178.673 67.2418 178.428 66.6848 178.382 66.0946C178.336 65.4661 178.375 64.8341 178.5 64.2163C178.633 63.5728 178.815 62.9403 179.043 62.3241C179.273 61.705 179.481 61.1624 179.662 60.6963L180.358 58.9432C180.585 58.3583 180.733 57.7451 180.796 57.1206Z" fill="#8DBE2D"/>
<path d="M212.63 62.2615C212.89 63.0449 213.046 63.8587 213.096 64.6824C213.123 65.2748 213.062 65.8679 212.915 66.4424C212.8 66.862 212.612 67.2577 212.359 67.6112C212.169 67.8701 211.947 68.1038 211.698 68.3068C211.539 68.4343 211.366 68.544 211.183 68.6338C211.051 68.6964 211.03 68.7242 211.106 68.7242C210.79 68.7796 210.466 68.77 210.154 68.6958C209.842 68.6216 209.548 68.4845 209.291 68.2929C208.833 67.9108 208.48 67.4173 208.268 66.8598C208.031 66.2531 207.878 65.6163 207.816 64.9676C207.75 64.3576 207.715 63.7446 207.712 63.1311C207.712 62.3728 207.712 61.6007 207.712 60.8146C207.712 60.0285 207.712 59.2632 207.781 58.505C207.781 58.4006 207.781 58.1641 207.781 57.8093C207.781 57.4545 207.781 57.0093 207.823 56.5432L207.885 54.8041C207.408 55.1542 207.025 55.6181 206.772 56.1536C206.505 56.7087 206.293 57.2889 206.139 57.8858C205.979 58.498 205.84 59.1102 205.722 59.7293C205.609 60.315 205.446 60.8898 205.235 61.4476C204.998 61.9902 204.72 62.6024 204.407 63.2981C204.1 63.9854 203.749 64.6522 203.357 65.2946C202.958 65.9451 202.492 66.5514 201.965 67.1033C201.512 67.6128 200.948 68.0125 200.317 68.272C199.776 68.5391 199.162 68.6198 198.571 68.5016C198.125 68.377 197.733 68.1078 197.458 67.7364C197.155 67.3044 196.94 66.8176 196.824 66.3033C196.684 65.7215 196.6 65.1274 196.574 64.5294C196.539 63.9432 196.539 63.3555 196.574 62.7694C196.574 62.2128 196.637 61.7398 196.678 61.378C196.818 60.1166 196.908 58.8644 196.95 57.6215C196.987 56.3697 196.875 55.1179 196.616 53.8927C196.498 53.371 196.386 52.8632 196.289 52.3762C196.191 51.8892 196.108 51.3953 196.045 50.9153C195.985 50.4262 195.959 49.9333 195.969 49.4405C195.986 48.9047 196.051 48.3716 196.164 47.8475C196.286 47.1426 196.647 46.5014 197.186 46.0318C197.621 45.6757 198.162 45.4728 198.724 45.4544C199.278 45.4511 199.82 45.6134 200.282 45.9205C200.772 46.2327 201.16 46.6828 201.395 47.2144C201.542 47.5932 201.611 47.9979 201.597 48.404C201.581 48.8703 201.534 49.3351 201.458 49.7953C201.374 50.2684 201.291 50.7345 201.2 51.1866C201.115 51.5924 201.062 52.004 201.04 52.4179C201.04 52.7797 201.04 53.3084 200.978 54.011C200.915 54.7136 200.908 55.451 200.901 56.2232C200.894 56.9954 200.901 57.7258 200.95 58.4145C200.956 58.9544 201.057 59.489 201.249 59.9937C201.772 59.5935 202.228 59.112 202.598 58.5676C203.024 57.9583 203.396 57.3136 203.712 56.6406C204.052 55.9449 204.407 55.1797 204.678 54.3867C204.95 53.5936 205.27 52.7936 205.548 51.9797C205.826 51.1658 206.118 50.3797 206.418 49.6075C206.717 48.8353 207.044 48.1118 207.385 47.4301C207.865 46.5048 208.386 45.9761 208.964 45.8509C209.241 45.7847 209.53 45.7823 209.808 45.8437C210.086 45.9052 210.347 46.0289 210.571 46.2057C211.116 46.6388 211.548 47.1973 211.83 47.8336C212.164 48.5111 212.34 49.2556 212.345 50.011C212.344 51.031 212.248 52.0487 212.059 53.051C211.867 54.0518 211.751 55.0657 211.712 56.0841C211.669 57.1356 211.73 58.1888 211.892 59.2285C212.064 60.2561 212.31 61.2699 212.63 62.2615Z" fill="#8DBE2D"/>
<path d="M71.3981 2.2234e-06H7.9C5.80961 0.0154226 3.80927 0.843082 2.3311 2.30418C0.852929 3.76528 0.0156006 5.74253 0 7.80878L0 86.3386C0.046619 88.3815 0.898541 90.3257 2.37423 91.7568C3.84991 93.1879 5.83267 93.9928 7.9 94C13.8793 93.9866 19.8001 92.8361 25.3396 90.6113C27.2808 89.7155 28.9107 88.2725 30.0246 86.4637C31.1384 84.6549 31.6865 82.561 31.6 80.4451C31.6 76.6144 31.7491 70.5737 31.6 67.3323C31.4509 62.7649 31.7491 57.4608 23.7 53.4828C21.3151 52.3041 14.3094 50.2414 8.9434 43.6113C6.40943 40.5172 10.1358 37.7179 12.8189 40.2226C15.8799 43.2457 19.5769 45.5653 23.6472 47.0168C27.7175 48.4682 32.0612 49.0158 36.3698 48.6207C41.1998 48.3685 45.9021 46.9968 50.0968 44.6165C54.2915 42.2363 57.861 38.9141 60.517 34.9185V34.9185C62.6038 32.1191 66.0321 34.0345 64.6906 37.2759C62.6038 42.1379 59.0264 46.4107 49.6358 52.3041C45.0151 55.2508 39.6491 58.0502 39.6491 66.1536V67.0376C39.6491 67.0376 49.1887 53.3354 71.3981 58.4922C60.3679 60.1129 63.6472 70.8683 60.666 77.4984C59.4736 80.5925 55.3 82.8025 51.7226 82.8025C50.2877 82.7881 48.8797 82.416 47.629 81.7206C46.3784 81.0253 45.3255 80.0291 44.5679 78.8245C42.3321 74.8464 44.1208 70.1317 46.6547 67.4796C49.1887 64.8276 55.0019 62.4702 57.983 61.4389C62.3057 60.4075 60.666 59.0815 57.5358 59.9655C54.4057 60.8495 41.5868 63.7962 39.6491 75.2884C39.6491 75.5831 39.5 77.7931 39.5 78.0878C39.5 85.8966 43.6736 88.5486 47.5491 90.3166C51.1264 91.9373 58.8774 93.8527 71.1 93.8527C72.1391 93.8585 73.1691 93.6606 74.1302 93.2702C75.0914 92.8799 75.9646 92.3049 76.6994 91.5786C77.4341 90.8523 78.0158 89.9892 78.4107 89.0391C78.8056 88.0891 79.0059 87.071 79 86.0439V7.80878C79.0402 6.7975 78.8732 5.78862 78.5092 4.84268C78.1452 3.89674 77.5916 3.03323 76.8817 2.30397C76.1717 1.57471 75.3201 0.994724 74.3778 0.598812C73.4355 0.202901 72.422 -0.000776296 71.3981 2.2234e-06V2.2234e-06ZM27.7245 33.0031C26.6043 33.0031 25.5092 32.6748 24.5777 32.0596C23.6462 31.4444 22.9202 30.57 22.4915 29.5469C22.0628 28.5239 21.9507 27.3982 22.1692 26.3121C22.3878 25.2261 22.9272 24.2285 23.7194 23.4455C24.5115 22.6625 25.5208 22.1293 26.6195 21.9132C27.7182 21.6972 28.8571 21.8081 29.8921 22.2318C30.9271 22.6556 31.8117 23.3732 32.4341 24.2939C33.0565 25.2146 33.3887 26.2971 33.3887 27.4044C33.3887 28.1396 33.2422 28.8677 32.9575 29.5469C32.6729 30.2262 32.2557 30.8434 31.7297 31.3633C31.2037 31.8832 30.5793 32.2956 29.8921 32.577C29.2049 32.8583 28.4684 33.0031 27.7245 33.0031ZM47.5491 35.5078C46.4422 35.5078 45.3806 35.0732 44.5979 34.2995C43.8152 33.5259 43.3755 32.4766 43.3755 31.3824C43.3755 30.2883 43.8152 29.239 44.5979 28.4654C45.3806 27.6917 46.4422 27.2571 47.5491 27.2571C48.656 27.2571 49.7175 27.6917 50.5002 28.4654C51.2829 29.239 51.7226 30.2883 51.7226 31.3824C51.7226 32.4766 51.2829 33.5259 50.5002 34.2995C49.7175 35.0732 48.656 35.5078 47.5491 35.5078V35.5078Z" fill="url(#paint0_linear_348_189)"/>
<defs>
<linearGradient id="paint0_linear_348_189" x1="39.5" y1="2.2234e-06" x2="39.5" y2="94" gradientUnits="userSpaceOnUse">
<stop stop-color="#D2D700"/>
<stop offset="1" stop-color="#87BC2F"/>
</linearGradient>
</defs>
</svg>
