<svg id="Layer_1" data-name="Layer 1" xmlns="http://www.w3.org/2000/svg" viewBox="0 0 1000 1000"><defs><style>.cls-1{fill:#ff7a00;}</style></defs><path class="cls-1" d="M759.34,750.62c-30.42,1-57.42-8.45-81.06-27.56a4.49,4.49,0,0,0-2.55-1.1c-12.77,0-24.78-3.64-36.39-8.37-56.92-23.21-93.64-65.24-113.25-122.77-7-20.58-9.22-42-7.79-63.63,1.75-26.5,9.82-51.16,22.63-74.39,7.85-14.24,16-28.23,26.61-40.66Q611.3,360.83,677,345.52a189.54,189.54,0,0,1,55.42-4.76c52.54,3.52,97.41,23.83,133.42,62.63,22.65,24.4,37.45,53,44.92,85.4a182.31,182.31,0,0,1,3.67,59.29c-2.89,29.46-11.45,57.13-27,82.4a34.61,34.61,0,0,0-5.22,17.75,88.55,88.55,0,0,1-12.79,42.67c-8.57,14.22-19.44,26.4-33.14,35.61a166.63,166.63,0,0,1-29.53,16.08c-9.38,3.85-19.59,5.95-29.63,7.84C771.41,751.51,765.29,750.62,759.34,750.62Zm.19-3.18c2.82-.21,6.81-.48,10.8-.83a128,128,0,0,0,61.92-22.06,111.46,111.46,0,0,0,33.26-34.93c10.87-18.06,15.37-37.66,12.55-58.77-.75-5.57-2.54-10.21-7.22-13.85a56.64,56.64,0,0,1-9.19-9.56c-14.43-18.12-20.81-38.33-15.72-61.48,1.34-6.09-1.73-9.78-7.95-8.78a114.33,114.33,0,0,0-18.4,4.84c-9.71,3.31-19.44,5-29.63,2.84a126.24,126.24,0,0,0-14-2.37c-10.27-.94-19.27,3.08-27.95,7.91s-17.42,10.08-26.31,14.79c-9.5,5-19.55,7.24-30.39,5.08-9-1.79-17.2-.36-24.43,6.2a244.58,244.58,0,0,1-19.62,15.42c-7.88,5.81-9.93,11.28-7.57,20.78,2.76,11.12,8.55,20.71,14.87,30,5.59,8.26,11.22,16.47,13,26.57.74,4.25,1.45,8.51,2.28,12.74,1.25,6.39,4.39,11.9,8,17.2,3.76,5.48,5.76,11.63,4,18.11-.75,2.78,0,3.77,1.78,5.18C705.63,739.56,730.88,746.75,759.53,747.44ZM911.28,548.69l.29.16c.06-1.05.13-2.1.19-3.16s0-2.38.15-3.57c1.93-21.82-.78-43.23-7.08-64.06-12.38-40.9-36-74-70.88-98.87-28.48-20.33-60.33-31.73-95-35a191.47,191.47,0,0,0-71,6.71,196.11,196.11,0,0,0-91.22,55.42c-4.63,4.93-8.81,10.27-13.2,15.43l.61.56c.93-.84,1.87-1.65,2.77-2.5,14.78-14,32-23.84,51.22-30.43,24.05-8.26,49-11.39,74.22-12.38A333,333,0,0,1,742.27,379a278.58,278.58,0,0,1,45.12,8.65c39.36,11.13,72.27,31.84,96.54,65.24,15.85,21.81,24.28,46.35,26.29,73.14C910.78,533.59,910.94,541.15,911.28,548.69Z"/><path class="cls-1" d="M268.2,145.72c3.69,1.1,7.46,2,11.05,3.36,2.49,1,4.05.57,5.46-1.65,5.22-8.24,11.54-8.94,19.12-7.32,8.72,1.86,16.83,1.66,24.92-2.31a71.22,71.22,0,0,1,11.61-4.06,23.1,23.1,0,0,1,17.91,2.3c5.21,2.84,10.15,3.11,15.45.57,10.07-4.82,19.13-2.69,27.42,4.23.24.21.53.37.77.59a34.19,34.19,0,0,0,24.3,9.91c7.45,0,13.46,3.6,18.66,8.68l.23.23a74.08,74.08,0,0,0,28.83,22c8,3.55,13.34,10.39,17,18.19a76.66,76.66,0,0,0,17.37,24.41c6.51,6,9.66,13.71,9.91,22.56A29.18,29.18,0,0,0,523,262c1.53,2.48,3,5,4.45,7.55,2.54,4.58,3.37,9.53,1.39,14.39-3.15,7.69-2.07,15.28-.23,22.92,1.71,7.09,1.54,13.77-2.21,20.38a19.28,19.28,0,0,0-2.16,9.31c0,10.82-3.14,19.72-12.9,25.57a19,19,0,0,0-5,5c-3.36,4.39-7.4,7.58-13,8.36-3.59.51-7.24.72-10.78,1.45a4.83,4.83,0,0,0-2.88,2.69,140.7,140.7,0,0,1-23.14,40c-21.75,26.11-49.1,43.12-82.57,49.75-39.66,7.86-76.42.43-109.88-22.18-23.1-15.6-40-36.56-51-62.16-1-2.3-2-2.69-4.51-2.61-8.3.24-16.26,3.73-24.79,2.05-8.73-1.72-17-4.2-23.83-10.22-4.83-4.27-6.68-9.57-6-16a7.77,7.77,0,0,0-1.64-5.49c-8.26-8.94-9.92-18.88-5.25-30a21.86,21.86,0,0,0,1.15-13.6c-1.72-7.93,0-15.76,2.75-23.23a94.35,94.35,0,0,0,6.41-30.61c.18-6.64,2.75-12.83,5.74-18.8a112.24,112.24,0,0,0,6-13.63,46.67,46.67,0,0,1,13.66-20.14c4-3.54,7.15-8,10.86-11.9,3.58-3.73,7.39-7.22,11.09-10.82,2.69-2.63,6-4.89,7.93-8,4.75-7.56,11.5-11.52,20.06-12.87a46.89,46.89,0,0,0,18.85-7.49A34,34,0,0,1,268.2,145.72ZM476.29,378.44l-.92-.65c-.51.08-1,.14-1.54.26-10.53,2.48-17.4-1.1-20.65-11.36-1.56-4.91-2.1-10.13-3.2-15.18-1.33-6.1-2.55-12.25-4.26-18.24-1.08-3.81-4.09-5.51-8.18-5.66-9.54-.33-14.68-4.17-17.76-13.27-1.38-4.08-2.1-8.39-3.5-12.47-2.39-7-4.53-14.21-7.81-20.81-2.65-5.32-8.15-6.54-13.77-4.53-2,.73-4,2-6.05,2.29-4.54.6-9.41,1.8-13.67.76a61.14,61.14,0,0,1-17.9-7.39c-33.93-21.3-55.74-51.68-65.62-90.38-2.76-10.8-3-21.9,3.27-32.12.49-.81-.05-3.3-.67-3.53-1.1-.41-3.35-.16-3.85.63a34,34,0,0,0-4.22,8.67c-2.89,9.94-2.29,20,.41,29.84,11,39.65,33.47,70.81,68.82,92.39.8.48,1.74,1.66,1.65,2.4s-1.37,1.51-2.27,1.78c-5.81,1.69-11.65,1.74-17-1.24-3.94-2.19-7.39-5.29-11.3-7.55a11.41,11.41,0,0,0-6.33-1.46c-6.33.54-8.85,5.32-10.25,10.67-1.9,7.3-3.2,14.77-5.21,22-2.41,8.71-7.91,14.36-17.36,15.06-4.53.33-9.09.22-13.63.32-6.65.14-12.5,2.43-16.34,7.88A54.15,54.15,0,0,0,250,341.27c-5.57,16.68-15.62,29.21-31.8,36.57-2.51,1.14-2.85,2.83-1.72,5.51C242.1,444,307.53,479,372,465.89c42.32-8.59,74.19-32,95.56-69.51C470.86,390.62,473.4,384.43,476.29,378.44ZM313.14,162c-.42.35-1.18.78-1.12,1,.23.75.53,1.78,1.12,2.08,5.53,2.86,10.89,6.27,16.74,8.21,11.48,3.82,23.63,3.41,35.56,4.36,7.68.62,15.15,2.1,22.17,5.43,7.74,3.67,13.19,9.67,17.15,17.09,3.1,5.83,7.35,10.33,13.63,12.77a15.63,15.63,0,0,1,7.77,7.07c1.86,3.15,3.83,6.26,5.89,9.29.42.62,1.49.8,2.25,1.18,0-.86.24-1.89-.15-2.54a81.25,81.25,0,0,0-6.43-10.11c-2.11-2.62-4.6-5.44-7.56-6.78-6.39-2.89-10.61-7.44-13.86-13.46-7.24-13.37-19.19-19.81-33.79-21.63-9.64-1.2-19.38-1.48-29-2.58-10.16-1.16-20-3.66-28.35-10C314.53,162.88,313.9,162.48,313.14,162Zm-20.87,95.2c-2.5-1.48-3.7-.05-4.28,1.29-2.46,5.61-5.4,11.13-6.85,17-3.28,13.38-10.55,22.65-24,26.75a77.25,77.25,0,0,0-10.2,4.09c-8.55,4-14.77,10-16.63,19.73-1,5.07-2.16,10.11-3.08,15.19a27.48,27.48,0,0,0,0,4.89l1,.27a10.68,10.68,0,0,0,1.42-2.71c1-5.08,1.78-10.18,2.73-15.26,1.61-8.63,6.14-15.16,14.22-18.88q6.9-3.18,14-5.82c11-4.08,18.22-11.46,21.55-22.85C284.53,272.74,286.23,264.26,292.27,257.16ZM420.53,284c.07-3.93-5-14.36-8.74-18.14-8.23-8.32-18.46-10.1-29.58-9-14.77,1.47-27.54-3.18-38.16-13.32-3.79-3.61-6.7-8.14-10.11-12.17a10.41,10.41,0,0,0-2.66-1.69c.15,1,0,2.27.51,3a82.49,82.49,0,0,0,6.54,8.85c8.86,9.92,19.63,16.58,33.16,17.64,5.89.46,11.85,0,17.78,0,13.05.06,23.26,7.63,27.15,20a51.06,51.06,0,0,0,1.65,4.89,2.3,2.3,0,0,0,1.64,1C420,285.18,420.37,284.25,420.53,284ZM199.34,228.07l1.13.42a12.34,12.34,0,0,0,2-2.68c2.87-7.39,8.7-11.23,16-12.79,8.27-1.76,13.92-6.06,16.22-14.36a24.6,24.6,0,0,1,.91-2.43c4.38-11,14.26-17.18,26-16.27a7.13,7.13,0,0,0,2.45-.81c-.73-.58-1.4-1.56-2.2-1.67-7.22-1-13.66,1.07-19.48,5.28s-8.81,10.5-11.09,17.11a14.1,14.1,0,0,1-10.73,9.75c-2.41.57-4.74,1.47-7.1,2.25-6.87,2.26-11.15,7.18-13.86,13.64A9.32,9.32,0,0,0,199.34,228.07ZM226,269.39a20.5,20.5,0,0,0,2.13-2.78,73.17,73.17,0,0,0,3.72-8.6c3.83-12.26,11.5-21.65,21.61-29.21,3.29-2.45,6.83-4.56,10.16-7,.64-.46.86-1.5,1.27-2.28a21.55,21.55,0,0,0-2.54,0c-.38,0-.72.45-1.1.66-18.68,10.15-29.39,26.49-35.83,46.12C225.17,266.94,225.62,267.77,226,269.39Zm283.85,9c-.25-9.24-1.81-18.08-7.6-25.64-.64-.83-2-1.13-3-1.68a9.7,9.7,0,0,0,.83,3.09c3.61,5.26,6.07,10.91,6.42,17.36.19,3.35.39,6.69.77,10a13.63,13.63,0,0,0,1.28,3.25,19.27,19.27,0,0,0,1.24-3.17A16.56,16.56,0,0,0,509.8,278.38Zm-74.75,38.49a10,10,0,0,0-1.61-1.64c-3.61-2.32-5.16-5.9-6.27-9.8a18.88,18.88,0,0,0-1.33-3.62c-.32-.61-1.11-1-1.69-1.46-.24.79-.86,1.7-.65,2.35,1,3.16,1.91,6.44,3.55,9.28,1.28,2.23,3.54,3.92,5.47,5.74a2.46,2.46,0,0,0,1.77.23C434.56,317.91,434.75,317.33,435.05,316.87Zm-218-36.41c-.2-.37-.38-1-.57-1-.68,0-1.63,0-2,.38-2.43,2.85-4.79,5.77-7,8.78-.35.46,0,1.48.09,2.24.7-.3,1.64-.41,2.08-.93,2.21-2.62,4.29-5.34,6.42-8C216.42,281.45,216.71,281,217.08,280.46Zm-34.57-14.38c-.28-.3-.61-.94-.94-.94-.55,0-1.44.27-1.6.67q-2.19,5.37-4.1,10.85c-.13.39.37,1.18.79,1.51a1.49,1.49,0,0,0,1.35-.44C179.54,273.94,181,270.11,182.51,266.08Zm13.72,41.2-1.26-.22c-.5,2.69-1.05,5.37-1.42,8.08,0,.17,1.52.94,1.94.71C196.51,315.3,196.94,308.53,196.23,307.28Z"/><path class="cls-1" d="M197.31,652.47c-3.14-2.76-6.09-5.27-9-7.87-6.92-6.28-13.29-13-18.08-21.14-1.47-2.5-3.42-4.71-5.12-7.08s-1.28-4.87,1.1-6.49a22.19,22.19,0,0,1,7.17-3.6c12.43-2.76,24.89-5.47,37.44-7.67,10.53-1.84,21.17-3.09,31.8-4.32,10.31-1.2,20.68-1.93,31-3.06,25.47-2.8,50.92-5.8,76.07-10.87,22.78-4.59,45.59-9,68.4-13.52,9-1.77,16.76.38,22.4,8.08,9,12.29,18.25,24.46,27,36.94,28.09,40,51.71,82.73,75,125.62,6.44,11.83,14.77,22.62,22,34q8.55,13.41,16.54,27.16a26.6,26.6,0,0,1,2.64,7.89c.45,2.15-1,3.16-3.12,3.76-14.07,4-27.71.69-41.17-2.81-13.06-3.39-25.89-7.72-38.81-11.63-.81-.24-1.63-.45-3-.82-.3,8-2.6,15.06-8.07,20.76-5.66,5.9-12.41,8.52-20,6.26-3.35,8.5-5.9,16.94-9.85,24.67C446.91,872,427.43,889.9,400,898.22a78,78,0,0,1-51.87-1.7,6.55,6.55,0,0,0-5.74.27c-37.57,17.6-80.75,6.71-106.72-26.81a104.49,104.49,0,0,1-17.87-35.42,6.19,6.19,0,0,0-2.86-3.45c-19.44-9.41-31.29-25.08-36.5-45.59-7.42-29.26-1.33-56.56,13.67-82.23,2.49-4.27,2.63-4.19-.77-7.92-10.55-11.57-10.48-28.4.23-38.56A65.81,65.81,0,0,1,197.31,652.47Zm-18.19,110a78,78,0,0,0,10.2,39.83,58.44,58.44,0,0,0,18.2,20c3.41,2.28,5.74,1.57,7-1.72a11,11,0,0,1,1.94-2.55c.77,1,2,2,2.23,3.11a104.22,104.22,0,0,0,16.25,41.32c24,35.83,67.38,48.63,105.57,30.91,5.85-2.72,11.11-6.68,16.71-9.94.95-.55,2.28-.46,3.44-.67a21.67,21.67,0,0,1-.41,3.8c-.22.77-1,1.36-1.57,2-3.66,4.58-3,6.53,2.84,7.93.42.1.84.21,1.27.28a77.74,77.74,0,0,0,36-2.17c24.73-7.62,42.81-23.34,55.59-45.57,8.48-14.76,12.35-30.32,9.11-47.31-2.64-13.89-9.22-24.41-23.36-29.36-7.74-2.71-15.16-6.37-22.67-9.72-17-7.59-33.7-15.91-51-22.76-34-13.47-67.71-27.68-100.24-44.52-7.09-3.67-14.25-7.21-21.52-10.5-12.3-5.56-23.35-2.29-33.82,5.07-8.73,6.15-15.08,14.43-19.91,23.61A102,102,0,0,0,179.12,762.51Zm13-136.08a25.38,25.38,0,0,0,4.51-.77,9.36,9.36,0,0,0,2.2-1.83c-.81-.46-1.6-1.25-2.44-1.31a13,13,0,0,0-3.85.49c-3.22.72-4.09,2.56-2.47,5.49a13.25,13.25,0,0,0,2.75,3.59c4.31,3.77,8.45,7.83,13.18,11a734.37,734.37,0,0,0,82.62,48.37c31.75,15.83,64.09,30.54,96.51,45a1292.08,1292.08,0,0,0,149.42,56c5.08,1.54,10.21,2.91,15.35,4.17.72.18,1.71-.73,2.57-1.13a17.16,17.16,0,0,0-1.79-1.92,4.73,4.73,0,0,0-1.53-.47C529,786.79,508.8,780.79,488.85,774c-35.15-12-69.42-26.23-103.51-40.91-51.14-22-101.52-45.55-149.06-74.74-13.1-8-26.64-15.41-38.21-25.7C196.17,630.94,194.52,629,192.1,626.43ZM216.72,623l2.33-.46,54.8-10.72q41.89-8.22,83.79-16.45,28-5.5,56.07-11c1.49-.29,3.72-.31,3.25-2.67-.49-2.54-2.58-1.66-4.22-1.34q-17.53,3.39-35.06,6.83L237.79,614.65c-6.79,1.33-13.61,2.6-20.37,4.09-1,.21-1.72,1.51-2.56,2.31Zm288.41,67.33c-.73-1.35-1.35-2.6-2.08-3.78-6.7-10.73-13.45-21.44-20.13-32.18-12.12-19.46-24.17-39-36.36-58.37-.62-1-2.3-1.27-3.49-1.89,0,1.35-.48,2.94.06,4,1.42,2.78,3.31,5.32,5,8q25.84,41.61,51.69,83.22a10.52,10.52,0,0,0,1.95,2.55,2.3,2.3,0,0,0,2,.26C504.35,691.87,504.65,691,505.13,690.33ZM328.17,663c1.23-.84,2.33-1.51,3.34-2.29q37-28.79,73.94-57.63c1.46-1.14,4.48-2.3,2.62-4.63-1.72-2.16-3.69.17-5.23,1.37q-37,28.77-73.95,57.6a11,11,0,0,0-2.35,2.2,2.44,2.44,0,0,0-.15,2.06C326.65,662.22,327.48,662.5,328.17,663Zm81.55,29.11c.51.55,1.27,1.36,2,2.18.8-.95,2.14-1.81,2.3-2.85q5.93-39.13,11.63-78.3c.74-5,1.53-10.06,2-15.11.11-1.07-.7-3-1.46-3.24-2-.57-2.38,1.23-2.56,2.82,0,.21,0,.43-.06.64-2.59,17.23-5.22,34.45-7.78,51.68C413.8,663.71,411.83,677.53,409.72,692.09ZM199.87,673.93l-10.54-6.88c-4.85,9.35.24,23.77,7.84,28.09,2.35-2.88,4.61-5.9,7.14-8.68,2.27-2.5.7-4.64-.7-6.31-.82-1-2.94-1.25-4.44-1.16-1.13.07-2.15,1.33-3.33,1.82a15.61,15.61,0,0,1-3.1.6c.2-1.14,0-2.73.69-3.33C195.07,676.63,197.12,675.65,199.87,673.93Zm240.24-64.58-1.31.3c.05,1.23-.2,2.58.21,3.67q10,26,20.24,51.92c.35.89,1.69,1.4,2.57,2.09.16-1,.73-2.21.42-3.08-1.72-4.88-3.63-9.7-5.51-14.53q-7.37-18.87-14.79-37.72A14.42,14.42,0,0,0,440.11,609.35Zm99.36,140.74c.66-1.5,1.33-2.4,1.38-3.34a4.57,4.57,0,0,0-1.05-2.32q-11-17.38-22-34.75c-.35-.54-.63-1.26-1.14-1.55-.75-.42-2.13-1-2.44-.7a4.1,4.1,0,0,0-.89,2.69c0,.66.58,1.36,1,2q11.18,17.65,22.41,35.28A19.49,19.49,0,0,0,539.47,750.09ZM491.93,804.2a10.14,10.14,0,0,0-11.06.84,8.81,8.81,0,0,1,2.57,1.37,8.94,8.94,0,0,1,1.14,2.67,8.23,8.23,0,0,1-2.52.68c-.93-.06-1.89-.94-2.75-.82-2,.27-4.55.34-5.79,1.58-1.8,1.79-2.65,4.54-3.88,6.84C478,822.7,490.16,813.38,491.93,804.2ZM476.86,702.91c-2.25,1.22-1.82,2.68-1.2,4.23,4.83,12.14,9.6,24.29,14.52,36.38.4,1,1.8,1.57,2.73,2.34.09-1.15.58-2.46.2-3.43-4.77-12.38-9.67-24.71-14.57-37A14.89,14.89,0,0,0,476.86,702.91Zm-50.73-125L423,580.62a22.47,22.47,0,0,0,2.49,2.3,16.82,16.82,0,0,0,3.6,1.86,19.63,19.63,0,0,0,3.35.64c0-1.07.41-2.64-.13-3.13A56.6,56.6,0,0,0,426.13,577.94ZM558.05,777.11c-2.58-3.17-5.11-6.31-7.73-9.38-.16-.2-1.26,0-1.41.28-.3.58-.6,1.58-.31,2,2,2.9,4.17,5.72,6.38,8.49a1.87,1.87,0,0,0,1.7.4C557.14,778.74,557.4,778,558.05,777.11ZM371.53,707.56a15,15,0,0,0,1.93-3.14c.08-.3-1.35-1.45-1.6-1.31a3.65,3.65,0,0,0-1.71,1.95C370,705.55,370.8,706.31,371.53,707.56Z"/><path class="cls-1" d="M705.3,600c-3,17.94-18,24.9-31.95,18.53-2.47,4.72-2.89,9.81-3,15,0,1.91,1.4,4.72-1.91,5.13-.43.05-1.79-3.27-1.84-5a42.11,42.11,0,0,1,10-28.76c10.78-12.92,23.61-13.27,39-4.86,2.59,1.41,4.65,3.82,6.92,5.82,1.13,1,2.66,2.28.92,3.62-.62.48-2.85-.2-3.66-1A30.17,30.17,0,0,0,705.3,600Z"/><path class="cls-1" d="M805.59,572.49c-1.94,8.19-5.22,14.83-13.9,16.83-7.28,1.68-13.48.35-17-7.4l-1,.24c-1,3.86-1.93,7.75-3.13,11.55-.3,1-1.51,1.64-2.3,2.44-.57-.89-1.73-1.88-1.6-2.67,1.92-12,7-21.81,19.17-26.34,7.94-3,15.74-1.41,22.84,2.37,5.17,2.75,9.66,6.78,14.36,10.37a4.92,4.92,0,0,1,1.3,2.77c.09.41-.72,1.46-1,1.41a5.91,5.91,0,0,1-2.49-1c-4.23-3.14-8.4-6.37-12.64-9.51A11.38,11.38,0,0,0,805.59,572.49Z"/><path class="cls-1" d="M742.72,636.52c5.34-.22,9.85-1.33,13.86-4.29.84-.62,2.44-.2,3.69-.25-.46,1.16-.59,2.75-1.44,3.43-7.9,6.36-26.06,7.75-34.8-3.22-2.37-3-3.65-6.32-2.85-10.24,1.4-6.85,4.54-12.45,10.66-16.31,4.21-2.66,5.7-7.47,4.36-12.21a4.37,4.37,0,0,1-.39-1.56,32.7,32.7,0,0,1,.63-3.25c1.13.71,2.88,1.17,3.28,2.16a59.05,59.05,0,0,1,2.62,9.27c.43,2.09,1.29,3,3.52,3.31,4,.64,7.91,2,11.92,2.73a4.78,4.78,0,0,0,3.4-1.38c5.46-5.13,15.05-4.79,19.06.79,2.41,3.36,2.24,7.82-.44,11.48-2.46,3.35-7.44,5.33-10.85,4-1.07-.42-1.75-1.82-2.6-2.77,1.11-.34,2.26-1.07,3.33-1,4.5.46,7.82-1.73,8.25-5.71.39-3.65-2.63-6.73-7.09-6.66a14,14,0,0,0-5.77,1.79c-.68.35-.83,1.87-1.08,2.89-.2.77,0,2.18-.28,2.27a5,5,0,0,1-3,0c-2.74-1-5.33-2.4-8.08-3.33a28.25,28.25,0,0,0-15-.89c-9,1.84-12.27,9.61-12.26,15.81,0,6.8,5.72,11.8,14,12.89C740.61,636.48,741.91,636.48,742.72,636.52Z"/><path class="cls-1" d="M785.37,666.21c-6.1-.59-10.86-.87-15.57-1.55-4.46-.65-8.32.28-11,3.88a14.8,14.8,0,0,1-12.84,6.25c-3.91-.06-6.57,2-8,5.49s-2.73,7.28-4.28,10.85a20.6,20.6,0,0,1-3.08,4.86c-.42.51-1.7.3-2.59.41-.08-.87-.49-1.89-.19-2.6,2-4.77,4.23-9.44,6.18-14.22,2.37-5.79,6-8.59,12.32-8.63a10.3,10.3,0,0,0,8.76-4.1c4.41-5.9,10.35-6.58,17.13-5.79,8.7,1,17.47,1.43,26.09-.91a7.72,7.72,0,0,1,2.85-.56,11.45,11.45,0,0,1,2.91,1.19c-.68.83-1.24,2.23-2.05,2.4C796,664.41,790.06,665.38,785.37,666.21Z"/><path class="cls-1" d="M763.69,716.2c-3-.66-6.12-1.17-9.07-2.08-.73-.22-1.06-1.73-1.58-2.65,1.05-.34,2.27-1.21,3.1-.92,11.41,3.9,21.26-.11,30.6-6.06,7.75-4.94,11.85-12.35,13.27-21.37.15-1,1.42-1.75,2.16-2.61.52,1,1.58,2.12,1.47,3.08a32.49,32.49,0,0,1-11.55,21.78A46.1,46.1,0,0,1,763.69,716.2Z"/><path class="cls-1" d="M809.14,712.4c-1.37.75-2.12,1.49-2.9,1.53-8.36.39-15.61,4-22.63,8-3.05,1.74-5.46,4.56-8.35,6.63-1,.71-2.56.62-3.86.9.42-1.31.45-3,1.32-3.87a54.64,54.64,0,0,1,29.51-15.1,12.54,12.54,0,0,1,4.19,0C807.2,710.61,807.85,711.45,809.14,712.4Z"/><path class="cls-1" d="M754.22,696.53c-.43-.39-1.46-1-1.37-1.29.37-1.13.8-2.61,1.7-3.13,6.42-3.74,13-7.28,19.47-10.91,2.55-1.42,5-3.07,7.6-4.32.77-.36,2,.31,3,.5-.37.91-.48,2.25-1.15,2.65-9.11,5.38-18.3,10.62-27.48,15.89A10.88,10.88,0,0,1,754.22,696.53Z"/><path class="cls-1" d="M799.57,633.48c1.22,2,2.6,3.27,2.42,4.23s-1.83,1.88-2.84,2.8c-.95-1.12-2.41-2.14-2.67-3.41C796.32,636.34,798,635.2,799.57,633.48Z"/><path class="cls-1" d="M420.42,385.33a13.73,13.73,0,0,1,27.45-.19c.05,7.76-5.7,13.63-13.66,13.88C426.65,399.25,420.6,393.24,420.42,385.33Z"/><path class="cls-1" d="M260.77,364.69a13.53,13.53,0,0,1,14.08,13.12,13.74,13.74,0,1,1-27.47.76C247.1,371.27,253.23,364.92,260.77,364.69Z"/><path class="cls-1" d="M302.15,372.5c-3.54-.45-7.13-1.25-8.62-5.63-.24-.7-1.4-1.12-2.18-1.59-5.91-3.51-11.85-7-17.7-10.58-.57-.35-.57-1.62-.84-2.47.88-.22,1.81-.75,2.61-.6a5.7,5.7,0,0,1,2.44,1.51C291,365,306.19,364.9,322.07,360.61c.52-.14,1-.59,1.51-.54a15.16,15.16,0,0,1,2.58.69c-.39.88-.57,2.3-1.21,2.56-2.59,1-5.35,1.61-8,2.51a8.77,8.77,0,0,0-3.12,1.8A16.88,16.88,0,0,1,302.15,372.5Z"/><path class="cls-1" d="M292.85,426.85a23.42,23.42,0,0,1,3.53,1.47q30.24,18.6,65,11.46a3.74,3.74,0,0,1,1.58-.24,23.26,23.26,0,0,1,2.85,1.15c-.76.83-1.41,2.24-2.29,2.4-5.51,1-11.06,2.18-16.63,2.37-18.58.64-36-3.62-51.9-13.47-2.12-1.31-3.33-2.73-2-5.25Z"/><path class="cls-1" d="M393.6,373.68a15.84,15.84,0,0,0-3.48-1c-4.72-1-9.48-1.82-14.15-3-1-.26-1.59-1.87-2.37-2.86,1.22-.23,2.67-1,3.64-.6,13.88,5.57,26.67,3,38.82-4.87a7.88,7.88,0,0,1,2.56-1.24,1.84,1.84,0,0,1,1.5.93c.21.6.16,1.81-.2,2-6.26,3.54-9.8,10.86-17.41,12.47-1.05.22-2.11.42-3.16.62C399.22,376.28,395.45,374.56,393.6,373.68Z"/><path class="cls-1" d="M323.46,432.42c4-.4,7.94-1,11.93-1.09a7.48,7.48,0,0,1,4.58,1.52c3.75,3,5.61,3.56,9.54.64,4.79-3.56,9.67-4.84,15.52-3.28,1.93.52,4.23-.47,6.37-.49a9.26,9.26,0,0,1,3,1c-.72.86-1.37,2.37-2.19,2.46a39.33,39.33,0,0,1-9.92.32c-3-.41-5.52-.26-8,1.48a39,39,0,0,1-5,3c-3.13,1.55-6.55,1.72-9.21-.57-3.86-3.32-8.05-2.79-12.5-2.38a51.22,51.22,0,0,1-9.34-.29c-.65-.06-1.21-1.14-1.81-1.75a7.23,7.23,0,0,1,2.15-.94c1.61-.15,3.24-.05,4.87-.05Z"/><path class="cls-1" d="M354,394.15c.59-14.17,2.59-28,11-39.93a49.72,49.72,0,0,1,6.39-6.84c.47-.45,1.64-.15,2.49-.2-.1.78.1,1.89-.34,2.29-12.42,11.3-15.25,26.28-16.21,42-.17,2.69-.07,5.41-.35,8.09-.1,1-.93,1.9-1.42,2.85a10.94,10.94,0,0,1-1.51-3.07A34.25,34.25,0,0,1,354,394.15Z"/><path class="cls-1" d="M348.84,416.54c-5.72-.71-11.41-4.86-16.55-10-.43-.43-.53-2-.26-2.17a3.09,3.09,0,0,1,2.54-.38c1.31.68,2.3,2,3.57,2.75a74,74,0,0,0,9.21,5.29c4.31,1.88,7.15.88,9.66-3.14,1.6-2.55,2.65-5.43,4.18-8,.54-.91,1.77-1.42,2.68-2.11.25,1.21,1.05,2.67.64,3.58A78.43,78.43,0,0,1,359,412.57C357.08,415.42,354.17,416.86,348.84,416.54Z"/><path class="cls-1" d="M387,347.37l-1.65-1c.81-.68,1.56-1.84,2.45-1.95,6-.78,12-1.38,18-2,6.67-.65,13.34-1.3,20-1.74,1.53-.1,3.11.66,4.66,1-1.46.75-2.88,2-4.41,2.17C413.39,345.14,400.68,346.18,387,347.37Z"/><path class="cls-1" d="M287,346.11l-2.6-2.05c.87-.58,1.72-1.61,2.63-1.67,11-.74,22-1.34,32.94-2a3.58,3.58,0,0,1,1.6,0,10.73,10.73,0,0,1,1.85,1.34c-.6.48-1.16,1.28-1.81,1.36-2.46.33-4.95.43-7.42.59l-26.81,1.66Z"/><path class="cls-1" d="M398.58,426.55c.41.27,1.31.6,1.31.93,0,.72-.23,1.82-.74,2.11a68.06,68.06,0,0,1-6.37,3.1c-3.55,1.55-7.09,3.13-10.73,4.45-.82.3-2-.4-3-.64.63-.75,1.11-1.82,1.92-2.2,5.37-2.47,10.81-4.79,16.23-7.16Z"/><path class="cls-1" d="M293,426.74a59.92,59.92,0,0,1-4.64,4.52c-.65.52-1.85.37-2.8.52,0-.9-.49-2.14-.07-2.65,3.31-4,6.69-8.07,11.9-9.67,1-.3,2.33.72,3.52,1.13a20.34,20.34,0,0,1-2.46,2.61c-1.78,1.32-3.7,2.45-5.56,3.66Z"/><path class="cls-1" d="M347.72,451.63a52.67,52.67,0,0,1-6.16-.08c-.84-.1-1.58-1-2.37-1.59.83-.51,1.63-1.37,2.5-1.45,5-.44,10.07-.74,15.11-1,.68,0,1.4.71,2.11,1.09-.42.64-.75,1.76-1.27,1.86-3.26.66-6.57,1.08-9.86,1.58Z"/><path class="cls-1" d="M406.3,417.57a41.48,41.48,0,0,1,3,5.12,6.14,6.14,0,0,1-.08,3.23c0,.18-1.79.37-1.92.12a50.66,50.66,0,0,1-2.77-6.26C404.37,419.47,405.28,418.78,406.3,417.57Z"/><path class="cls-1" d="M239.33,766.52c-1,2.39-1.62,4-2.46,5.56a12.28,12.28,0,0,1-2.09,2.25c-.56-.91-1.62-1.83-1.59-2.72a8.37,8.37,0,0,1,4.14-7.28c3.84-2.34,13.16-1.48,16.31,1.65.53.52.43,1.66.62,2.52-.87.17-1.84.67-2.6.45-2.4-.69-4.71-1.64-7.24-2.15A75.71,75.71,0,0,0,258,789c14.55,16.94,31.67,30.27,54,35,9,1.91,17.61,5,26.45,7.23,12.68,3.27,25.63,3.13,38.63,1.2a132.36,132.36,0,0,0,37.78-11.19c1-.49,2-1.08,3.09-1.63-.27-.41-.34-.63-.49-.7-1.18-.63-2.38-1.23-3.57-1.84,1.27-.7,2.5-1.92,3.81-2,4.2-.3,7.14,1.64,8.23,4.91,1,3.09-.64,9.5-3,11.08-.58.38-2,.51-2.26.15a3,3,0,0,1-.44-2.48c.56-1.73,1.46-3.34,2.16-5,.13-.33-.07-.79-.15-1.63-33.19,16.67-67.62,19.93-102.94,10C283.76,822,256.41,801.37,239.33,766.52Z"/><path class="cls-1" d="M384.26,761.77c9.66,5.74,18.86,10.79,27.61,16.53,5.93,3.89,11.24,8.73,16.81,13.16a3.53,3.53,0,0,1,1.25,1.46,11,11,0,0,1,.13,2.58c-1,0-2.32.34-2.82-.16C411.74,779.78,392,770.93,373,760.81a15.8,15.8,0,0,1-3.63-2.1c-.79-.75-1.06-2.05-1.56-3.11,1-.33,2.2-1.13,3.09-.9,9.83,2.52,19.8,4.68,29.37,8,12.86,4.42,25.4,9.77,38.1,14.69,1.54.6,3.1,1.36,2,3.15-.36.61-2.5.69-3.56.3-16-5.87-32-11.87-48-17.8C387.58,762.54,386.21,762.29,384.26,761.77Z"/><path class="cls-1" d="M289.54,718.82l-20.26-8.38a7.59,7.59,0,0,1-2.1-.81,9.88,9.88,0,0,1-1.41-2.17,7.4,7.4,0,0,1,2.33-1.2,5.69,5.69,0,0,1,2.47.63,230.1,230.1,0,0,1,50.12,25.61,1.79,1.79,0,0,1,.26.2c1.31,1.23,4.11,2,2.54,4.4-1.42,2.21-3.32.28-4.82-.49-10.76-5.59-21.57-11.24-33.5-13.72-9.57-2-19.4-2.73-29.12-4a14.65,14.65,0,0,1-2.58-.07,15,15,0,0,1-2.73-1.58c.86-.62,1.71-1.73,2.59-1.76a78.37,78.37,0,0,1,12.64.19c7.26,1,14.45,2.5,21.67,3.79.51.09,1,.15,1.55.23Z"/><path class="cls-1" d="M336.51,763.31c1.52-4.38,3.15-9.06,4.77-13.74.21-.62.24-1.4.66-1.8a14.36,14.36,0,0,1,2.44-1.62c.35,1,1.21,2.12,1,2.93-1.35,4.54-2.89,9-4.54,13.49-.7,1.89-.53,3,1.19,4.37,5.72,4.49,7.13,10.44,4,15.66s-11.84,8.29-17.47,6c-.67-.27-1-1.35-1.51-2.06.73-.47,1.43-1.29,2.2-1.36,2-.18,4.11.19,6.12-.07,4.46-.57,7.93-3.7,8.5-7.32.45-2.9-2.12-6.85-5.6-8.85-6.07-3.48-14.7-2.59-18.11,3.57-.33.59-1.76.58-2.68.85-.12-1-.66-2.17-.29-2.9,2.39-4.68,6.62-6.63,11.6-7.12C331.13,763.11,333.51,763.31,336.51,763.31Z"/><path class="cls-1" d="M338.7,850.39c-3.56-1.11-6.94-1.42-9.42-3.07-10.19-6.75-21.6-9.6-33.4-11.45-5.46-.85-9.43-4.12-13-8-.51-.55-.4-1.67-.57-2.53,1-.09,1.93-.19,2.9-.27.08,0,.19.1.26.18,5.9,7.32,14.62,7.83,22.87,9.17a46.39,46.39,0,0,1,17.36,6.74c1.74,1.08,3.62,1.94,5.45,2.87,5.3,2.72,10.36,2.32,15.33-1,1.38-.91,3.28-2.92,4.72-.7,1.56,2.42-1.27,3.09-2.69,3.8C345.27,847.8,341.86,849.06,338.7,850.39Z"/><path class="cls-1" d="M317.38,811.07c.95.46,1.69.88,2.47,1.19,4.17,1.7,8.33,3.4,12.52,5,1.39.54,3.39.68,2.53,2.75-.28.68-2.44,1.23-3.38.88-4.91-1.81-9.74-3.86-14.5-6-.71-.31-1.1-1.63-1.29-2.56C315.67,812,316.77,811.51,317.38,811.07Z"/><path class="cls-1" d="M286.67,861.87c.62,1,1.25,2,1.85,3.09s1,1.83,1.52,2.74c-1.14.22-2.89,1-3.33.54-1.55-1.62-3.21-3.53-3.7-5.6-.3-1.26,1.13-3.7,2.43-4.35s3.69-.36,5.36.22c.81.29,1.09,2.12,1.62,3.25-1.14,0-2.29.07-3.42,0a6,6,0,0,1-1.46-.49Z"/></svg>