<svg id="Layer_1" data-name="Layer 1" xmlns="http://www.w3.org/2000/svg" viewBox="0 0 1000 1000"><defs><style>.cls-1{fill:#ff7a00;}.cls-2{fill:#fff;}</style></defs><path class="cls-1" d="M300.62,865.54l28.65-59.21c-7.37-1.26-13.47-2.9-19.64-3.21-9.74-.48-19.53,0-29.29-.07-7.73-.08-14.23-3.37-19.78-8.56a121.67,121.67,0,0,1-8.66-8.93c-5.08-5.84-11.36-7.6-18.79-6.19-12.74,2.42-17.89.1-23.49-11.7-3-6.38-6.82-9.95-14.41-9.42s-12.69-5-17.78-9.72c-6-5.59-5.75-5.59-2.89-13.43a77.8,77.8,0,0,1,17.83-27.83c15.54-15.94,30.27-32.56,42.37-51.31,14.57-22.59,26.75-46.32,33.05-72.68,2.75-11.47,4.42-23.06,2.35-34.79-1.47.39-3.44,1.57-4.4,1-1.19-.69-1.93-2.75-2.19-4.33-1.3-7.77-2.49-15.57-3.46-23.38-.35-2.79-1.18-4.43-4-5.7-26.27-11.9-42.9-31.53-46.66-60.62a73.35,73.35,0,0,1,2.86-32.94,5.66,5.66,0,0,0-.57-4.57c-14.68-18.74-22.56-40.15-25.57-63.57-4-31.52.49-61.64,15.24-89.89,10.75-20.58,25.78-37,47.62-46.4,11.25-4.83,23-5.74,35-4.79.78.06,1.57,0,2.22,0,2.36-7.78,4.24-15.59,7.08-23,11.61-30.34,32.22-51.1,64.53-58.57,20.62-4.76,40.91-2.13,60.85,4.25,1.78.57,3.55,1.18,5.35,1.72a5.44,5.44,0,0,0,1.52-.05,47.64,47.64,0,0,1,15.7-24c10.32-8.64,22.45-13,35.58-14.24,22-2,42.26,2.92,60.13,16.36a64.44,64.44,0,0,1,19.13,22.88c.48.93,1,1.86,1.66,3.16,21.12-22.77,46.86-32.08,76.76-24.73,30.06,7.4,48.06,28,56,57.77,24-5.12,43.29,1.59,54.56,23.76,9.13,17.94,5.43,35.08-8.2,50.36,9.33,11.65,13.7,24.75,11.5,39.84S738.58,315.4,725.32,324c1.65.89,2.86,1.59,4.1,2.22,21.31,10.7,35.27,36.1,32.53,59.77a98.58,98.58,0,0,1-3.59,16.33c-.7,2.4-.2,3.68,1.45,5.16,3.89,3.47,7.8,6.95,11.45,10.68,1.24,1.27,1.72,3.3,2.55,5-1.81.46-3.61.94-5.44,1.35a13.36,13.36,0,0,1-2.23,0c1.59,4.56,2.91,8.84,4.55,13,6.79,17.23,12.2,34.92,14.72,53.21,5.41,39.29-5.14,73.13-36.24,99.27a19.26,19.26,0,0,0-1.35,1.47c1.76,1.67,3.46,3.29,5.17,4.89,18.83,17.64,28.45,39.88,31.58,65,3.26,26.27-.08,51.94-7.74,77.25-2.81,9.29-4.31,19.08-.09,28.68,1.24,2.84.74,4.75-2.92,5.93a19.14,19.14,0,0,0-8,5.54c-3.34,3.85-7,6.22-12.14,5.45-7.16-1.06-12.62,2.37-17.94,6.46-7.07,5.45-14.7,9.85-23.86,10.56a61.91,61.91,0,0,1-10.37-.09c-2.46-.24-3.42.36-3.47,2.88-.11,5.35-.46,10.69-.64,16q-.55,16.67-1,33.32c-.06,1.83,0,3.67,0,5.58,1.76.23,3.06.36,4.36.57,5.37.88,9.37,4,10.16,7.82,1.06,5.12-1.12,9.88-6,13-9.81,6.36-24.73-.08-27.07-12a141.1,141.1,0,0,1-2.08-19.49q-1.38-26.05-2.23-52.13c-.1-3.25-1-4.94-4.12-5.68s-6.16-1.74-9.24-2.61c-7.69-2.19-13.65.18-19.59,5.59a570.91,570.91,0,0,1-64.21,50.71,10.64,10.64,0,0,0-2.78,3.27c-1.26,2.05-2,4.46-3.51,6.29-6,7.29-6,15.62-4.92,24.3.45,3.57-.72,8,1,10.56,1.57,2.23,6.25,2.16,9.44,3.39,7.88,3.05,11.23,8.45,10.89,17.17-.32,8.23-6.2,16.15-13.74,18.5-14.46,4.52-28.55-2.83-33.12-17.28l-2.52-8-1.25-.1c-.06,1.25-.16,2.5-.15,3.75,0,2.69,1.13,5.94,0,8-5.65,10.24-12.38,19.76-22.53,26.13-7.31,4.59-16,.35-16.84-8.34a70.77,70.77,0,0,1,.2-15.19c1.3-10.47,3.21-20.86,4.67-31.31.22-1.52-.23-4.26-1.05-4.56-1.79-.65-4.49-.83-6,.11a93.84,93.84,0,0,0-10.65,8.38c-3.46,3-6.77,6.09-10.1,9.2-1.58,1.47-3.88,2.6-2.67,5.57.2.49-.67,1.84-1.36,2.22-15.59,8.58-31.64,14.9-49.62,7.81-7.52-3-11.86-9.18-10.51-15.7a21.88,21.88,0,0,1,5.6-10.3c8.92-9,18.27-17.66,27.59-26.29,9.13-8.46,18.71-16.44,27.46-25.26,2.33-2.34,2.87-6.92,3.3-10.59,2-17,3.71-34,5.52-51a18.83,18.83,0,0,1,.38-2c1.41-6.46.42-7.78-6-6.49-4.79,1-9.36,3-14.12,4.22-3.85,1-8.09,2.58-11.7,1.8-13.29-2.85-22.53,2.54-30,12.78a55.57,55.57,0,0,1-6.23,6.8c-8.26,8.05-18,9.79-28.91,6.72-8.32-2.35-8.25-2.12-11.92,5.19-10.57,21-21.06,42.06-32,62.88-3.39,6.46-7.95,12.37-12.3,18.28-7.62,10.37-17.66,13.44-30.09,9.88-6.11-1.75-11.27-4.26-13.89-10.35-2.43-5.65-1.78-11,2.25-15.72s8.95-6,14.82-4.34C299.35,865.31,299.72,865.36,300.62,865.54ZM608.75,548.18c-6.63,4.39-9,10.37-6.48,17.21A47.4,47.4,0,0,0,629.4,593c22.6,9.1,46.31,10.14,70,3.4,27.83-7.91,49.52-24.07,63.45-49.47,16.64-30.35,17.54-62,5-94.06-4.32-11.08-2.32-12.72-16.44-6.74-4.9,2.08-9.79,3.57-15.16,2.65a14,14,0,0,0-12.51,3.93c-4.4,4.09-9.58,5-15.3,3.49a36.11,36.11,0,0,0-4.73-.87c-4.95-.57-7.42,1.84-7.46,6.72,0,4-.42,8-.82,12-.64,6.29.3,7.65,6.66,8.87a38.24,38.24,0,0,0,4.77.53c6.68.41,13.4.39,20,1.26,5.12.68,10.12,2.32,15.09,3.82.84.25,1.26,1.93,1.87,2.94-1,.25-2.23,1-3,.68-13.41-5.09-27.14-4.66-41.13-3.41-10.37.93-15.45,8-21.37,15.14,1.19.6,2.23.82,2.75,1.47a13.5,13.5,0,0,1,1.48,3.11c-1.05.15-2.25.71-3.13.38a57.46,57.46,0,0,1-5.31-2.81c-6.67-3.36-13.14-7.31-20.13-9.79a34.55,34.55,0,0,0-15.63-1.79c-12.59,1.68-17.11,12.81-10,23.11,5.39,7.82,12.81,13.12,21.16,17.37,1.07.55,1.53,2.29,2.28,3.48-1.31,0-3,.61-3.86,0-6.25-4.28-12.53-8.57-18.42-13.33a13.16,13.16,0,0,0-14.87-1.61A12.29,12.29,0,0,0,608,536.36a20.92,20.92,0,0,0,7.53,13.3c6.34,5.47,13.38,10.13,20,15.29,1,.79,1.33,2.44,2,3.68-1.38-.15-3,.12-4.1-.51C624.11,562.88,615.57,556.72,608.75,548.18Zm1.3-155.39c-6.92.43-13.56,1.21-20.19,1.18-20.46-.09-37.35-7.43-48.48-25.37-2.15-3.47-3.44-7.51-4.85-11.38-.27-.73.75-1.93,1.18-2.91a13.15,13.15,0,0,1,2.21,1.82,8.42,8.42,0,0,1,.87,2.23c7.07,18.17,20.69,27.95,39.6,31,18.13,2.94,35.18-1.35,51.54-8.45,25.06-10.86,45.62-27.71,62.47-49.13a43,43,0,0,0,2.42-3.81c-20.88-7.18-29.84-22.74-31.67-44-3.37,1.2-6.32,1.77-8.75,3.22-5.5,3.28-10.71,7-16.1,10.52-6.8,4.4-13.92,5.57-21.15,1.2a29,29,0,0,1-12.52-15.68c-3.32-9.33-10-11.08-17.47-5-2.29,1.87-5.13,3.08-8,4.78a64,64,0,0,1-.12,8.37c-.14,1.07-1.74,1.95-2.67,2.92-.38-1.24-1.22-2.53-1.06-3.7.87-6.73-5.35-14.05-12.14-14s-13.87,7-14.3,14c-.41,6.66,3.47,10.5,11.88,11.75.4.06.89,0,1.18.17.51.35,1.3.95,1.24,1.3a2.62,2.62,0,0,1-1.24,1.74,6.66,6.66,0,0,1-2.76.3c-7.85-.33-12.31-4.84-14.54-12.52a21.12,21.12,0,0,0-.63,2c-2.07,11.34-7.34,18.67-20.4,17.72-4.69-.34-7.71,2.72-8.31,7.16a19.31,19.31,0,0,0,1,7.36c1.58,5.74.19,10.62-4.44,14.32a21.41,21.41,0,0,1-14.89,5c-9-.55-18.05-1.74-27.08-2.53-2.75-.24-5.54,0-8.3,0-.24.33-.48.65-.71,1,6.79,3.69,7.41,8.88,4.89,15.2-.37.92,1.2,3.4,2.44,4,3,1.47,6.35,2.06,9.41,3.37,5.13,2.19,6.95,6.63,5,11.85-.89,2.38-2.07,4.64-3.12,7-.92,2-.49,3.44,1.89,3.74,3,.39,6.09.74,9.15,1,8,.62,14.23,3.58,16.79,11.85.24.76.64,1.47.94,2.21,1.48,3.56,4.17,5.26,7.95,4.63a58.23,58.23,0,0,0,9.69-2.34c6.77-2.36,12.17-.83,16.86,4.61,4.95,5.72,7.35,6.12,13.9,2.32,5.32-3.09,10.41-4.3,16.26-1.3,3.3,1.69,7.36,1.66,9.3-1.93,3.25-6,8.17-6.74,14.18-6.52C607.58,405.32,610.07,402.54,610.05,392.79ZM496.68,664c-.48-5.44-.7-10.92-1.47-16.32-2.41-16.9-11.58-24.25-28.6-23-9.73.69-19.45,1.5-29.17,2.35-8,.7-15,3.48-18.34,11.46a48.62,48.62,0,0,0-3.5,12.66c-2.2,18.17-7.1,35.33-17.43,50.68-4.4,6.55-8.87,13.07-12.95,19.82-12.88,21.34-14,43.19-2.54,65.56,1.3,2.53,2.88,3,5.45,2.75,9-.87,16.53-5,23.34-10.59,10.1-8.32,21.24-12.51,34.54-9.94,5,1,10.48.34,13.87-3.59,7.82-9.07,18-16.48,21.52-28.78.93-3.21,2.1-6.34,3.21-9.48C491.92,707,496.39,686,496.68,664Zm223-333.64c-1.63,6.66.29,9.84,5.12,11.46a29,29,0,0,1,3.92,2c7.54,3.93,10,8.58,7.79,16.79-1.41,5.27-.17,9.12,3.92,12.39,1.35,1.09,3,2.11,3.75,3.56,1.06,2.13,2.59,5.19,1.8,6.83-1.8,3.71-4.82,6.85-7.54,10.06-.36.42-1.84-.1-2.8-.18.2-.95.11-2.11.64-2.79,1.38-1.79,3.06-3.35,4.56-5,2.61-2.95,2.11-5.67-1-7.78-7.38-5.07-9.64-11.66-6.78-20.21,1.14-3.4-.29-6.31-3.31-8.27a31.81,31.81,0,0,0-4.88-2.76c-5.8-2.45-10.35-5.43-10.06-13,.15-3.78-2.71-4.49-6.62-5-5.52-.76-8.28,2-11,5.94-2,2.85-4.34,5.43-6.59,8.09-4.51,5.34-3.44,10.78,3.09,13.49,6.1,2.54,9.15,6.66,8.57,13.3a7.16,7.16,0,0,0,4.21,7.52,33,33,0,0,1,3.71,2.39c7.22,5.13,8.63,13.63,3.27,20.73-.69.92-2.33,1.11-3.53,1.64.08-1.26-.24-2.75.31-3.75,4.24-7.65,3.44-12.07-4.07-16.42-5.56-3.22-8.78-7.18-7.93-13.88.46-3.55-1.48-6-4.65-7.14-4.88-1.71-8.06-5-10.42-9.84-1.2,1.1-2.27,2.08-3.32,3.06-17,16-36.15,28.47-58.51,35.48-5.19,1.63-7.6,4.21-7.85,9.5-.24,4.95-3,8.42-7.81,9.46-3.6.78-7.44.42-11.1,1-1.89.31-4.22,1.14-5.3,2.55-5.1,6.67-8.61,8.22-16.55,5.23a12.67,12.67,0,0,0-11.4.92c-9.32,5-13,4.46-20.34-3.43-3.08-3.3-6.43-4.61-10.77-3.09-1.64.58-3.31,1-5,1.59-10.9,3.63-17.24.66-20.13-9.15-1.59-5.4-5.95-7.59-11.3-8.11-3.72-.37-7.47-.61-11.18-1.14-5.05-.71-6.91-3.82-5.13-8.54.94-2.5,2.1-4.92,3.28-7.32,1.73-3.49.27-5.66-2.88-7-2.33-1-4.79-1.7-7.19-2.51-7.69-2.58-8.68-4.4-6.19-12.08.82-2.53.87-4.64-1.24-6.55-4.87-4.41-8.21-4.95-14.08-2.15-1,.46-2,.87-2.91,1.36-13.66,7-20.83,18.29-22.43,33.38-.31,3,.5,4.3,3.89,4.27a70,70,0,0,1,13.56,1.11c12.35,2.32,23.59,7,32,16.93,5.8,6.85,7.94,14.74,5.8,23.58-1.28,5.32-2.88,10.56-4.09,15.9-.81,3.56.55,6.55,3.33,8.9s4.88,0,7.18-1.14c4.63-2.39,9.18-5,14-6.95,27.65-11.11,56.46-16,86.2-15.75,5.06.05,5.63-.37,6.31-5.49,1.14-8.62,6.53-12.87,15.22-12.23a13,13,0,0,0,5.39-.77c22.33-8.46,43-5,61.46,9.62,6.15,4.89,10.85,11.69,15.89,17.87,2.08,2.55,3.57,2.59,5.88.62,3.91-3.35,8-6.54,12.29-10.08a46,46,0,0,1-2-5.43c-.27-1.11.2-2.41.33-3.63,1.12.45,2.64.59,3.29,1.41a78.58,78.58,0,0,1,6.4,9.22c1.81,3.15,3.77,3.45,6.42,1.27l10.84-9c-1.07-2-2.35-4.19-3.4-6.48a9.08,9.08,0,0,1-.3-2.94c1.09.08,2.45-.24,3.22.3,4.26,3,8.55,6,12.51,9.37,4.72,4,4.45,4.05,8.66-.26,2.09-2.15,1.91-3.66,0-5.68s-3.17-4.35-5.08-6.18a5.57,5.57,0,0,0-4-1.06c-3.42.3-7,1.88-10.18,1.34-8-1.32-15.22-1.12-20.9,5.6-.17.2-.41.47-.63.48-1,.06-2,0-2.94,0,.15-.94-.05-2.19.49-2.77,5.44-5.93,11.66-9.45,20.27-7.82,3.76.72,7.87,0,11.76-.54,2.56-.33,3.39-2,3.23-4.88a16,16,0,0,1,1.93-8c3.68-7,3.17-13.38-1.91-19.36-3.36-3.95-3.8-8.39-3.82-13.44,0-4.31-.81-9.66-3.42-12.7C733.55,341.9,726.66,336.72,719.64,330.4ZM379.54,788.84c-.59-1.31-1.11-2.51-1.67-3.69-9.37-19.44-9.7-39,.19-58.22,5.14-9.95,11.71-19.15,17.64-28.68,9.59-15.43,15.65-31.86,14.61-50.4-.58-10.42-3.84-18.86-14.86-22.22-6.25-1.9-12.38-4.36-18.75-5.63-7.77-1.55-16.47.49-18.71,9.35-.59,2.32-1.17,4.66-1.55,7-3.17,19.67-9.77,37.77-23.93,52.41-7.07,7.31-14.29,14.48-21.3,21.85-7.49,7.88-14.6,16.1-18.14,26.66-6.19,18.44-6.48,37.19-2.71,56.12.52,2.61,2,2.88,4.6,2.85,9.31-.1,18.67-.08,27.93.75,8.09.72,15.84,1.08,23.57-2.21A91.2,91.2,0,0,1,364.29,789C369,788.1,374.05,788.84,379.54,788.84Zm-96-251.1a52.47,52.47,0,0,0,3.7,4c11.1,9.63,21.84,19.76,33.47,28.71a182.38,182.38,0,0,0,65,32.17c22.47,5.92,45.32,7,68.44,4.45a166.05,166.05,0,0,0,60.37-19.15c9.45-5.06,17.67-11.67,22.83-21.34a18,18,0,0,0,2.17-7.59c.06-1.36-1.67-3.08-3-4-.5-.36-2.66.68-3.31,1.61-7.74,11.1-18.83,17.18-31.39,21-1.28.39-3-.58-4.47-.91,1.08-.94,2-2.36,3.27-2.75,8.79-2.75,17-6.53,23.69-13,7.68-7.5,12.44-16.37,11.39-27.52a18.2,18.2,0,0,0-6-12.11c-1.87,4.6-3.88,8.39-4.94,12.42a29.63,29.63,0,0,1-10.71,16c-10.57,8.38-23.09,11.38-36.13,12.85a128.94,128.94,0,0,1-33.58-1.11c-18.23-2.73-35.34-8.49-50.61-18.93-5.68-3.88-10.69-8.73-16.15-13.26-1.6,1-3.39,2.2-5.15,3.4a39.22,39.22,0,0,1-23.1,6.78,30.32,30.32,0,0,1-23.68-10.73c-7.15-8.15-9.18-17.88-9.56-28.24-.05-1.37-.14-2.74-.23-4.42-7.58,3.74-8.35,10.37-9,16.92-.81,8-4.38,14.18-11.46,18.18C291.64,533.21,287.93,535.27,283.52,537.74Zm68.69,92.75c.18-6.29-.6-12.67-4.91-17.33A51.34,51.34,0,0,0,320,597.37c-4.21-.89-7.94.46-10.13,4.06a42.59,42.59,0,0,0-4.25,10.23c-2.16,7.41-3.38,15.14-6,22.37-7.3,20-21.05,35.44-36.55,49.56-9.59,8.73-19.12,17.57-28,27S220.59,731.28,215.44,743c-3.69,8.44-5,15.9-.31,24.21,2.43,4.28,5.17,7.08,10.32,6.51,4.24-.46,8.47-1.06,12.71-1.56,6.92-.82,12.65,1.28,16.87,7,2,2.69,3.93,5.42,6,8,5.84,7.43,13.17,11.53,23,10.38,2.71-.32,3.56-1.11,3.07-4.07-1.93-11.66-4.12-23.19-2.5-35.3,1.81-13.5,4.16-26.69,13-37.32S316.31,700,326.15,690C342.48,673.46,351.35,653.77,352.21,630.49ZM481.63,745.56c2.9-.13,5.16-.56,7.32-.29,9.31,1.18,16.43-2.36,22-9.66,7.27-9.61,17.05-13.39,28.86-12.22,6.08.6,11-2.4,15.94-5.14a67.58,67.58,0,0,0,9-6.64c1.43-1.15,3.28-2.44,3.75-4,3.36-11.24,7.64-22.38,9.29-33.89,3.24-22.74-.59-45-8.06-66.64a19.4,19.4,0,0,0-3.34-5.86c-7.6-9.28-18.76-12.14-31.19-8.18-9.91,3.17-17.86,9.65-25.56,16.16s-12.23,15.16-11.31,25.8c.62,7.19,1.48,14.36,1.91,21.56.93,15.87-1.36,31.5-4.3,47A131.53,131.53,0,0,1,490.64,722C487.94,729.76,484.79,737.37,481.63,745.56ZM466.76,899.73c5.62-5.08,10.88-10.24,16.57-14.86,4.29-3.49,8.74-7.5,13.82-9.19,20.81-6.91,41.54-13.85,60.32-25.53,13.41-8.34,27.1-16.39,37.7-28.35,9.58-10.8,19.14-21.69,27.75-33.25,6.17-8.29,12.08-17.25,15.74-26.82,5.53-14.52-.26-27.25-16.25-30.41-16.71-3.31-30.82,1.88-40.18,16.06-8.67,13.14-16.06,27.14-23.57,41-12.09,22.3-27,42.37-45.89,59.36a121.73,121.73,0,0,1-12.42,9.46c-.81.55-2.55-.26-3.86-.43.47-1,1-1.91,1.39-2.9.48-1.17,1.54-2.76,1.14-3.49a4.31,4.31,0,0,0-3.46-1.74,8.87,8.87,0,0,0-4.75,1.9c-10.43,8.81-20.56,18-28.12,29.51C458.06,887.13,459.73,894.45,466.76,899.73ZM593,432.37c-8.13,13.16-9.85,26.8-4.71,41.17,5.61,15.69,16.41,26.4,31.67,33.16,3.12-9.35,9.4-15,18.22-16.33,5.28-.8,11,.87,16.47,1.83,3.49.61,5-.54,4.37-4.08-.62-3.38-3.06-3.49-5.79-3.48-1.1,0-2.2-.8-3.29-1.24,1-.89,1.87-2.32,3-2.58,6.43-1.49,11.65,4.05,9.89,10.67-.69,2.61-.18,3.5,2,4.94,3.38,2.2,5.86,1.76,8.44-.87a60.76,60.76,0,0,0,4.81-4.82c9.63-12.36,11.8-26.32,8.28-41.3-2.88-12.26-8.65-22.6-19.87-29.38a59.55,59.55,0,0,0-38.77-8.65c-4.5.53-8.87,2.22-12.35,3.13,1.09,5,2.23,9.17,2.74,13.37.15,1.19-1.56,3.73-2.39,3.71-3-.05-1.31-2.43-1.33-3.94,0-.8.1-1.61,0-2.4a10.53,10.53,0,0,0-9-9.39c-4.05-.62-8,2.08-9.44,6.44s.42,8.43,5.56,12.14c.9.65,1.35,1.94,2,2.94-1.33.15-3,.89-3.93.34C597.44,436.43,595.56,434.51,593,432.37Zm41.47,262.81c1.13-7.27,3-15.74,3.64-24.31a192,192,0,0,0-1.92-42.76c-.6-4.1-1.54-7.72-6.33-8.94a20.5,20.5,0,0,1-5.33-2.72c-11.25-6.91-18.71-15.9-16.6-30.18a4.1,4.1,0,0,0-.58-2.63c-3.52-5.29-7.15-10.51-11-16.08-4.17,2.48-8.65,5.08-13.08,7.77-11.44,6.95-14.16,16.16-10,29.52,6.27,20,10.07,40,9.15,61-.36,8.08-1.12,15.92-4,23.53-1.68,4.42-2.92,9-4.14,12.84,5.39-.29,10.63-1.16,15.76-.71,7.34.65,14.27-.45,21.34-2.22S625.74,696.71,634.45,695.18ZM207.92,753.47a9,9,0,0,0,.92-1.68,88.54,88.54,0,0,1,21.46-41.57c10.06-11,21.17-21.15,32.12-31.35C281.63,661,296.78,640.8,300.92,614c1.4-9.08,1.44-17.78-4-25.8-2.94-4.31-6.5-8.06-11.82-7.76s-7.66,4.89-9.59,9.27c-2.82,6.34-5,13-8.32,19.08-5.64,10.43-12.11,20.41-17.86,30.79a286.79,286.79,0,0,1-36.36,51.28c-10.41,11.74-20.54,23.67-26.15,38.62-1.29,3.45-2.56,7.21-2.51,10.8.12,7.25,3,11.84,11.38,10.58C200,750.18,204.17,750.05,207.92,753.47ZM642.83,625.06c.27,4.13.44,8.07.8,12,1.83,19.79,2.39,39.5-3.65,58.78-.68,2.15-.18,3.18,1.78,4,3.94,1.69,7.75,3.65,11.71,5.25,9.1,3.69,17.86,4,26-2.62,2.11-1.72,4.87-3.35,7.47-3.6,5.08-.49,6.84-3.72,8.55-7.66,7.45-17.08,9.05-35,8.2-53.37-.17-3.48-1.14-4.39-4.58-4.64-12.51-.9-25-1.93-37.45-3.54C655.44,628.86,649.34,626.7,642.83,625.06ZM216.61,423.47a17.55,17.55,0,0,0-1.11,2.18,73.67,73.67,0,0,0,.59,42.3c6.83,21.59,21.82,35.64,42,44.79,3.05,1.38,5.27,1.69,6.35-2.29a5.47,5.47,0,0,1,2.32-2.69,12.74,12.74,0,0,0,6-9.42,12.56,12.56,0,0,1,7.24-10c3.38-1.58,4.83-.46,4.48,3l9,5.12c4.65-5.92,3.49-11.21-3.68-15.27-12.29-7-20-17.52-24.34-30.63-1-3.16-2.57-3.47-5.3-2.73a38.9,38.9,0,0,1-.06,6.23c-.7,4.17.76,7.24,4,9.78,2,1.56,4.16,3.15,5.51,5.21,1.21,1.86,1.57,4.35,1.94,6.62.08.5-1.3,1.55-2.15,1.77-.47.11-1.87-1.14-1.78-1.54,1-4.33-2.48-5.91-4.9-7.95-4.89-4.13-8.1-8.58-6.59-15.63.4-1.9-1.53-5.55-3.35-6.46-5.45-2.71-11.37-4.45-17.3-6.64-1.75,2.51-.86,5.13.79,7.5a30.81,30.81,0,0,0,4.06,4.42c3.94,3.76,5.95,7.94,4.59,13.67-.4,1.68,1.06,4.12,2.28,5.76,1,1.3,2.83,2,4.36,2.79,4.62,2.5,6.2,6.48,5.37,11.44-.17,1-1.38,1.86-2.1,2.78-.51-1.05-1.56-2.18-1.44-3.16.43-3.55-1-5.87-3.91-7.66-2.16-1.32-4.62-2.52-6.14-4.41s-3-4.7-2.5-6.66c1.25-5.45-.31-9.42-4.37-12.81-4.44-3.72-6.75-8.37-5.38-14.18.85-3.62-2.15-4.17-3.93-5.67a3.67,3.67,0,0,0-2.37-.42c-.76,2-1.87,4.18-1.78,6.24s1.65,3.92,2.21,6c.74,2.67,1.83,5.51,1.54,8.14a17.26,17.26,0,0,0,4.77,14.56c1.78,2,1.87,5.57,2.42,8.48.1.52-1.23,1.58-2.08,1.87-.36.13-1.8-1.26-1.7-1.71,1-4.28-1.87-6.81-4.19-9.46-2.88-3.29-3.53-6.83-3.08-11.14a18.83,18.83,0,0,0-1.46-9.23c-2.65-6-4-11.66.43-17Zm369.57,10.6c-5.64,0-11.61,0-17.57.06a2.72,2.72,0,0,0-1.82,1.23c-1.84,2.95-3.73,5.88-5.29,9-8.18,16.36-10.22,33.7-6.87,51.5,1.57,8.34,4.52,16.45,7.17,24.55.58,1.79,2.33,4.19,3.89,4.49a75.48,75.48,0,0,0,36.06-2c3.21-1,4.08-3.36,3-5.9-1.85-4.22-3.63-8.86-6.73-12.07-13.54-13.94-16.58-31.12-16.46-49.45a13.79,13.79,0,0,1,.39-2.78C583.29,446.58,584.7,440.52,586.18,434.07ZM704.1,699.71c5.88,6.07,11.13,11.52,16.41,16.93a70.79,70.79,0,0,0,6.58,6.39c2.26,1.79,4.8,1,6.3-1.13A74.57,74.57,0,0,0,747,681.48c.26-7.57-.77-15.18-.74-22.77a45.13,45.13,0,0,0-5.42-21.1c-1.93-3.78-4.71-5.94-8.78-5.84-5.83.14-11.65.75-17.83,1.19C715.32,656.58,712.51,679.05,704.1,699.71ZM506.19,774.57C502,791.26,497.8,808,493.53,824.94c6.11.63,10.19,3.55,11.8,9.13a18.65,18.65,0,0,1-2,15.38c1.05-.09,1.41,0,1.55-.15,7.37-7.16,14.74-14.3,22-21.57a4.56,4.56,0,0,0,.89-3.27q-1.75-18.71-3.71-37.39c-.5-4.72-1.23-9.42-1.85-14.1ZM298.57,868.4c-5-1.57-8.43-.71-10.28,2.17-2.84,4.44-3,8.86.09,12.19,6.17,6.68,16.12,10.55,24.41,1.63a33.21,33.21,0,0,0,4.18-4.81c10.7-17.34,18.11-36.23,25.76-55,1.14-2.81-.24-4.1-3-4-4.26.21-8.54.44-12.77,1-1,.13-2.09,1.47-2.6,2.51-4.68,9.44-9.07,19-13.88,28.41-4.5,8.78-9.36,17.39-14.21,26-.58,1-2.09,1.5-3.18,2.23a13.84,13.84,0,0,1,.68-3.76C295.17,874.14,296.85,871.43,298.57,868.4ZM526.65,484.05c7.76-18.51,21-33.32,34.19-48.52-1-.24-1.36-.46-1.7-.4-12.94,2.46-25.88,4.91-38.79,7.5a4.46,4.46,0,0,0-2.72,2.19c-2.93,6.08-5.75,12.22-8.37,18.45a4.11,4.11,0,0,0,.8,3.55C515.39,472.54,520.89,478.11,526.65,484.05Zm21,73.23c17.33-5.21,35.53-14.4,50.91-29-21.59,4-42.25.82-63.49-7.84,6.27,10.41,5.85,20.07,2.66,27.8Zm10-33.39.64-1.07c-9.43-23.71-12.55-47.8-4.27-72.67a38.51,38.51,0,0,0-5,5.38c-7.39,9.35-14.41,19-18.54,30.28-.92,2.51-.52,5.65-.19,8.44.5,4.35,2.6,8.83,2,12.93-1.06,6.83,1.71,9.39,7.66,10.93S551.73,521.94,557.62,523.89ZM449.19,868.12c.52,4.38,2.25,5.71,6,4.09a20.72,20.72,0,0,0,6-3.84c3.59-3.38,6.77-7.2,10.34-10.62,7.76-7.43,15.81-14.45,27.28-15.38a2.66,2.66,0,0,0,1.75-1.68c1.19-4.42-2.53-9.91-7.09-9.56a23.06,23.06,0,0,0-10,3.37C471.52,842,461.64,852,452,862.18,450.58,863.7,450.11,866.12,449.19,868.12ZM281.7,525c2.73-3.15,5.39-5.56,7.21-8.5,2.76-4.42,3.51-9-.15-13.72-2.56-3.28-4.54-7-7.42-11.56-1.65,2.62-3.94,4.8-4.4,7.31-1,5.22-3.58,8.85-7.42,12.34-2.6,2.36-5.62,6-5.64,9.1-.06,6.77,1.66,13.56,2.66,20.34l1.63.26c1.06-3.66,2.67-7.26,3.06-11,.53-5.16,0-10.41.26-15.61.05-1.21,1.32-2.35,2-3.52,1.06.82,2.58,1.43,3.11,2.51C278.37,516.55,279.75,520.29,281.7,525ZM531.2,901c3.84-7.26,7.53-14.14,11.09-21.09a10.64,10.64,0,0,0,.9-3.86c.39-4.38-2.19-7.15-6.57-7.19-5.73,0-9.93,3-11.67,8.58C522,886.73,524,895.12,531.2,901Zm-.53-79.37c4-4,8.41-7.55,6.63-14-.66-2.4-.41-5-.6-7.57-.34-4.38-.45-8.82-1.22-13.13-.23-1.33-2.28-2.35-3.5-3.51a20.86,20.86,0,0,0-3.09,3.38c-.48.82-.3,2.08-.28,3.15.1,5.18.08,10.37.42,15.54C529.38,810.83,530.11,816.2,530.67,821.58ZM511.74,444.83,487.5,455.51l.41,1.14,17,5.52Zm164.7,360.06c.58,11.46,1.15,22.62,1.72,33.78l1.13-.06c.46-4.5,1-9,1.37-13.49s1-9.3,1.09-14C681.78,808.4,681.56,805.13,676.44,804.89ZM546,916.11c-.6-7-1.13-13.19-1.71-20C539.26,901.84,540.16,907.16,546,916.11Z"/><path class="cls-2" d="M608.75,548.18c6.82,8.54,15.36,14.7,24.6,19.94,1.11.63,2.72.36,4.1.51-.63-1.24-1-2.89-2-3.68-6.62-5.16-13.66-9.82-20-15.29a20.92,20.92,0,0,1-7.53-13.3,12.29,12.29,0,0,1,6.71-12.85,13.16,13.16,0,0,1,14.87,1.61c5.89,4.76,12.17,9,18.42,13.33.88.6,2.55,0,3.86,0-.75-1.19-1.21-2.93-2.28-3.48-8.35-4.25-15.77-9.55-21.16-17.37-7.1-10.3-2.58-21.43,10-23.11A34.55,34.55,0,0,1,654,496.27c7,2.48,13.46,6.43,20.13,9.79a57.46,57.46,0,0,0,5.31,2.81c.88.33,2.08-.23,3.13-.38a13.5,13.5,0,0,0-1.48-3.11c-.52-.65-1.56-.87-2.75-1.47,5.92-7.12,11-14.21,21.37-15.14,14-1.25,27.72-1.68,41.13,3.41.81.31,2-.43,3-.68-.61-1-1-2.69-1.87-2.94-5-1.5-10-3.14-15.09-3.82-6.61-.87-13.33-.85-20-1.26a38.24,38.24,0,0,1-4.77-.53c-6.36-1.22-7.3-2.58-6.66-8.87.4-4,.79-8,.82-12,0-4.88,2.51-7.29,7.46-6.72a36.11,36.11,0,0,1,4.73.87c5.72,1.48,10.9.6,15.3-3.49a14,14,0,0,1,12.51-3.93c5.37.92,10.26-.57,15.16-2.65,14.12-6,12.12-4.34,16.44,6.74,12.49,32,11.59,63.71-5,94.06-13.93,25.4-35.62,41.56-63.45,49.47-23.71,6.74-47.42,5.7-70-3.4a47.4,47.4,0,0,1-27.13-27.65C599.72,558.55,602.12,552.57,608.75,548.18Z"/><path class="cls-2" d="M610.05,392.79c0,9.75-2.47,12.53-11.72,12.2-6-.22-10.93.5-14.18,6.52-1.94,3.59-6,3.62-9.3,1.93-5.85-3-10.94-1.79-16.26,1.3-6.55,3.8-9,3.4-13.9-2.32-4.69-5.44-10.09-7-16.86-4.61a58.23,58.23,0,0,1-9.69,2.34c-3.78.63-6.47-1.07-7.95-4.63-.3-.74-.7-1.45-.94-2.21-2.56-8.27-8.82-11.23-16.79-11.85-3.06-.23-6.11-.58-9.15-1-2.38-.3-2.81-1.71-1.89-3.74,1.05-2.32,2.23-4.58,3.12-7,1.95-5.22.13-9.66-5-11.85-3.06-1.31-6.45-1.9-9.41-3.37-1.24-.62-2.81-3.1-2.44-4,2.52-6.32,1.9-11.51-4.89-15.2.23-.33.47-.65.71-1,2.76,0,5.55-.2,8.3,0,9,.79,18,2,27.08,2.53a21.41,21.41,0,0,0,14.89-5c4.63-3.7,6-8.58,4.44-14.32a19.31,19.31,0,0,1-1-7.36c.6-4.44,3.62-7.5,8.31-7.16,13.06.95,18.33-6.38,20.4-17.72a21.12,21.12,0,0,1,.63-2c2.23,7.68,6.69,12.19,14.54,12.52a6.66,6.66,0,0,0,2.76-.3,2.62,2.62,0,0,0,1.24-1.74c.06-.35-.73-.95-1.24-1.3-.29-.2-.78-.11-1.18-.17-8.41-1.25-12.29-5.09-11.88-11.75.43-7,7.57-13.95,14.3-14s13,7.31,12.14,14c-.16,1.17.68,2.46,1.06,3.7.93-1,2.53-1.85,2.67-2.92a64,64,0,0,0,.12-8.37c2.92-1.7,5.76-2.91,8-4.78,7.49-6.13,14.15-4.38,17.47,5a29,29,0,0,0,12.52,15.68c7.23,4.37,14.35,3.2,21.15-1.2,5.39-3.48,10.6-7.24,16.1-10.52,2.43-1.45,5.38-2,8.75-3.22,1.83,21.29,10.79,36.85,31.67,44a43,43,0,0,1-2.42,3.81c-16.85,21.42-37.41,38.27-62.47,49.13-16.36,7.1-33.41,11.39-51.54,8.45-18.91-3.07-32.53-12.85-39.6-31a8.42,8.42,0,0,0-.87-2.23,13.15,13.15,0,0,0-2.21-1.82c-.43,1-1.45,2.18-1.18,2.91,1.41,3.87,2.7,7.91,4.85,11.38,11.13,17.94,28,25.28,48.48,25.37C596.49,394,603.13,393.22,610.05,392.79Zm-35.73-26.55c.46-6,.44-5.93-5.83-6.82-.88-.12-2-1.52-2.23-2.53s.51-2.36.37-3.5c-.11-.84-.9-2.18-1.49-2.23a2.87,2.87,0,0,0-2.34,1.47,7.81,7.81,0,0,0-.39,3.93,11,11,0,0,1-2.93,9.39,9.28,9.28,0,0,0,2.35,14.22c3.58,2.12,7.13,1.13,10.68-.51a59.23,59.23,0,0,1,7.72-2.69,30.65,30.65,0,0,1,4.09-.71l-2.19-3c-.23-.32-.68-.64-.66-.93C581.77,367.13,578.55,366,574.32,366.24Zm25.44-40.61c5.42-3.51,9.36-6.53,13.75-8.65,1.65-.8,4.88-.22,6.38,1,2.19,1.77,2.34,4.69.32,7.21a9,9,0,0,0-1.83,2.6,10.6,10.6,0,0,0,0,3.23c1-.23,2.13-.19,2.82-.75,3.93-3.19,5.86-10.2,4-14.18a11.66,11.66,0,0,0-13.57-6c-4.61,1.21-9,3.36-13.63,5.17-.54-1.42-1.28-3.31-2.12-5.47-.74.66-1.45,1-1.45,1.33a53.19,53.19,0,0,0,.34,9c1.38,7.57,5.94,13.06,12.44,16.84,1,.57,3-.54,4.47-.87-.71-1.05-1.21-2.35-2.15-3.11C606.75,330.65,603.74,328.57,599.76,325.63Zm19.38,21.48a35.12,35.12,0,0,0-4.91-2.68c-.69-.26-1.79.58-2.71.92.4.88.58,2,1.24,2.59,1,1,2.58,1.44,3.63,2.42,3,2.77,3.79,7,2.07,9.4a6.63,6.63,0,0,1-9.67,1.1c-2.17-1.67-3.08-4.93-4.73-7.35a13.49,13.49,0,0,0-2.65-2.31c-.47,1-1.4,2-1.31,2.91a15.65,15.65,0,0,0,1.44,5c2.49,5.46,9.23,8.28,15.29,6.52,5.06-1.47,6.88-5.47,6-12.28a5.44,5.44,0,0,1,1.57-4.33c4.41-3.23,9.16-6,13.64-9.11,1.08-.75,1.58-2.32,2.34-3.51-1.41,0-3.12-.48-4.18.13C630.49,339.86,624.91,343.49,619.14,347.11ZM661,343.89c-2.16,8.29-6.26,10.87-13,9.21a8.34,8.34,0,0,0-2.32-.56c-.8,0-2,.33-2.24.87a2.74,2.74,0,0,0,.44,2.45c1.66,1.93,12.19,3.29,14.28,2a6.18,6.18,0,0,0,1-1.16,47.6,47.6,0,0,1,3.4-3.81c2.31-2.12,4.63-4.16,3.77-7.77-.82-3.46-3.49-4.59-6.57-4.85-6.09-.5-11.19,2-15.7,5.82-.69.58-.64,2-.93,3.07,1.17-.06,2.49.21,3.47-.25,2.41-1.12,4.54-2.88,7-3.79C655.83,344.29,658.26,344.3,661,343.89Zm-93.41-52.95a39.16,39.16,0,0,0,3.1-5.43c.48-1.25.19-2.79.24-4.19-1.21.7-2.84,1.12-3.53,2.16-2,3-3.3,6.75-8.16,5.73a2.94,2.94,0,0,0-2.17.87,2.54,2.54,0,0,0-.8,2c.14.57,1.18,1.43,1.62,1.32,3.73-.92,6.75.58,9.81,2.39.62.37,1.87-.33,2.83-.54a9.38,9.38,0,0,0-.78-2.4A11.33,11.33,0,0,0,567.62,290.94Z"/><path class="cls-2" d="M496.68,664c-.29,21.94-4.76,43-12.07,63.54-1.11,3.14-2.28,6.27-3.21,9.48-3.54,12.3-13.7,19.71-21.52,28.78-3.39,3.93-8.89,4.56-13.87,3.59-13.3-2.57-24.44,1.62-34.54,9.94-6.81,5.6-14.33,9.72-23.34,10.59-2.57.25-4.15-.22-5.45-2.75-11.48-22.37-10.34-44.22,2.54-65.56,4.08-6.75,8.55-13.27,12.95-19.82,10.33-15.35,15.23-32.51,17.43-50.68a48.62,48.62,0,0,1,3.5-12.66c3.34-8,10.31-10.76,18.34-11.46,9.72-.85,19.44-1.66,29.17-2.35,17-1.21,26.19,6.14,28.6,23C496,653.12,496.2,658.6,496.68,664Z"/><path class="cls-2" d="M719.64,330.4c7,6.32,13.91,11.5,19.37,17.89,2.61,3,3.39,8.39,3.42,12.7,0,5.05.46,9.49,3.82,13.44,5.08,6,5.59,12.36,1.91,19.36a16,16,0,0,0-1.93,8c.16,2.88-.67,4.55-3.23,4.88-3.89.5-8,1.26-11.76.54-8.61-1.63-14.83,1.89-20.27,7.82-.54.58-.34,1.83-.49,2.77,1,0,2,0,2.94,0,.22,0,.46-.28.63-.48,5.68-6.72,12.9-6.92,20.9-5.6,3.22.54,6.76-1,10.18-1.34a5.57,5.57,0,0,1,4,1.06c1.91,1.83,3.27,4.22,5.08,6.18s2,3.53,0,5.68c-4.21,4.31-3.94,4.28-8.66.26-4-3.38-8.25-6.38-12.51-9.37-.77-.54-2.13-.22-3.22-.3a9.08,9.08,0,0,0,.3,2.94c1.05,2.29,2.33,4.48,3.4,6.48l-10.84,9c-2.65,2.18-4.61,1.88-6.42-1.27a78.58,78.58,0,0,0-6.4-9.22c-.65-.82-2.17-1-3.29-1.41-.13,1.22-.6,2.52-.33,3.63a46,46,0,0,0,2,5.43c-4.33,3.54-8.38,6.73-12.29,10.08-2.31,2-3.8,1.93-5.88-.62-5-6.18-9.74-13-15.89-17.87-18.46-14.65-39.13-18.08-61.46-9.62a13,13,0,0,1-5.39.77c-8.69-.64-14.08,3.61-15.22,12.23-.68,5.12-1.25,5.54-6.31,5.49-29.74-.26-58.55,4.64-86.2,15.75-4.82,1.94-9.37,4.56-14,6.95-2.3,1.18-4.32,3.56-7.18,1.14s-4.14-5.34-3.33-8.9c1.21-5.34,2.81-10.58,4.09-15.9,2.14-8.84,0-16.73-5.8-23.58-8.37-9.9-19.61-14.61-32-16.93a70,70,0,0,0-13.56-1.11c-3.39,0-4.2-1.32-3.89-4.27,1.6-15.09,8.77-26.41,22.43-33.38.95-.49,1.94-.9,2.91-1.36,5.87-2.8,9.21-2.26,14.08,2.15,2.11,1.91,2.06,4,1.24,6.55-2.49,7.68-1.5,9.5,6.19,12.08,2.4.81,4.86,1.51,7.19,2.51,3.15,1.34,4.61,3.51,2.88,7-1.18,2.4-2.34,4.82-3.28,7.32-1.78,4.72.08,7.83,5.13,8.54,3.71.53,7.46.77,11.18,1.14,5.35.52,9.71,2.71,11.3,8.11,2.89,9.81,9.23,12.78,20.13,9.15,1.65-.55,3.32-1,5-1.59,4.34-1.52,7.69-.21,10.77,3.09,7.37,7.89,11,8.47,20.34,3.43a12.67,12.67,0,0,1,11.4-.92c7.94,3,11.45,1.44,16.55-5.23,1.08-1.41,3.41-2.24,5.3-2.55,3.66-.6,7.5-.24,11.1-1,4.83-1,7.57-4.51,7.81-9.46.25-5.29,2.66-7.87,7.85-9.5,22.36-7,41.52-19.51,58.51-35.48,1-1,2.12-2,3.32-3.06,2.36,4.8,5.54,8.13,10.42,9.84,3.17,1.1,5.11,3.59,4.65,7.14-.85,6.7,2.37,10.66,7.93,13.88,7.51,4.35,8.31,8.77,4.07,16.42-.55,1-.23,2.49-.31,3.75,1.2-.53,2.84-.72,3.53-1.64,5.36-7.1,3.95-15.6-3.27-20.73a33,33,0,0,0-3.71-2.39,7.16,7.16,0,0,1-4.21-7.52c.58-6.64-2.47-10.76-8.57-13.3-6.53-2.71-7.6-8.15-3.09-13.49,2.25-2.66,4.61-5.24,6.59-8.09,2.71-3.89,5.47-6.7,11-5.94,3.91.54,6.77,1.25,6.62,5-.29,7.54,4.26,10.52,10.06,13a31.81,31.81,0,0,1,4.88,2.76c3,2,4.45,4.87,3.31,8.27-2.86,8.55-.6,15.14,6.78,20.21,3.08,2.11,3.58,4.83,1,7.78-1.5,1.69-3.18,3.25-4.56,5-.53.68-.44,1.84-.64,2.79,1,.08,2.44.6,2.8.18,2.72-3.21,5.74-6.35,7.54-10.06.79-1.64-.74-4.7-1.8-6.83-.72-1.45-2.4-2.47-3.75-3.56-4.09-3.27-5.33-7.12-3.92-12.39,2.19-8.21-.25-12.86-7.79-16.79a29,29,0,0,0-3.92-2C719.93,340.24,718,337.06,719.64,330.4ZM674.7,403.72c1.46-2.16,2.62-3.77,3.6-5.49a9.09,9.09,0,0,0-1.8-1.49,37,37,0,0,0-3.77,4.52C672.6,401.44,673.67,402.45,674.7,403.72Zm-13.88-13-2.93-2.33c-.69,1.09-1.75,2.13-1.93,3.31-.11.69,1.19,1.6,1.86,2.41ZM691,415.47a51.37,51.37,0,0,0,2.85-4.45,6.36,6.36,0,0,0-1.85-1.34,21.32,21.32,0,0,0-3.11,3.53A16.48,16.48,0,0,0,691,415.47Z"/><path class="cls-2" d="M379.54,788.84c-5.49,0-10.53-.74-15.25.18a91.2,91.2,0,0,0-17.83,5.78c-7.73,3.29-15.48,2.93-23.57,2.21-9.26-.83-18.62-.85-27.93-.75-2.63,0-4.08-.24-4.6-2.85-3.77-18.93-3.48-37.68,2.71-56.12,3.54-10.56,10.65-18.78,18.14-26.66,7-7.37,14.23-14.54,21.3-21.85,14.16-14.64,20.76-32.74,23.93-52.41.38-2.36,1-4.7,1.55-7,2.24-8.86,10.94-10.9,18.71-9.35,6.37,1.27,12.5,3.73,18.75,5.63,11,3.36,14.28,11.8,14.86,22.22,1,18.54-5,35-14.61,50.4-5.93,9.53-12.5,18.73-17.64,28.68-9.89,19.18-9.56,38.78-.19,58.22C378.43,786.33,379,787.53,379.54,788.84Z"/><path class="cls-2" d="M283.52,537.74c4.41-2.47,8.12-4.53,11.83-6.63,7.08-4,10.65-10.15,11.46-18.18.67-6.55,1.44-13.18,9-16.92.09,1.68.18,3.05.23,4.42.38,10.36,2.41,20.09,9.56,28.24A30.32,30.32,0,0,0,349.3,539.4a39.22,39.22,0,0,0,23.1-6.78c1.76-1.2,3.55-2.35,5.15-3.4,5.46,4.53,10.47,9.38,16.15,13.26,15.27,10.44,32.38,16.2,50.61,18.93a128.94,128.94,0,0,0,33.58,1.11c13-1.47,25.56-4.47,36.13-12.85a29.63,29.63,0,0,0,10.71-16c1.06-4,3.07-7.82,4.94-12.42a18.2,18.2,0,0,1,6,12.11c1,11.15-3.71,20-11.39,27.52-6.66,6.5-14.9,10.28-23.69,13-1.26.39-2.19,1.81-3.27,2.75,1.5.33,3.19,1.3,4.47.91,12.56-3.79,23.65-9.87,31.39-21,.65-.93,2.81-2,3.31-1.61,1.34,1,3.07,2.68,3,4a18,18,0,0,1-2.17,7.59c-5.16,9.67-13.38,16.28-22.83,21.34a166.05,166.05,0,0,1-60.37,19.15c-23.12,2.55-46,1.47-68.44-4.45a182.38,182.38,0,0,1-65-32.17c-11.63-9-22.37-19.08-33.47-28.71A52.47,52.47,0,0,1,283.52,537.74Z"/><path class="cls-2" d="M352.21,630.49c-.86,23.28-9.73,43-26.06,59.55-9.84,10-19.64,20.11-28.6,30.89s-11.19,23.82-13,37.32c-1.62,12.11.57,23.64,2.5,35.3.49,3-.36,3.75-3.07,4.07-9.78,1.15-17.11-3-23-10.38-2.07-2.63-4-5.36-6-8-4.22-5.71-9.95-7.81-16.87-7-4.24.5-8.47,1.1-12.71,1.56-5.15.57-7.89-2.23-10.32-6.51-4.72-8.31-3.38-15.77.31-24.21,5.15-11.76,10.71-23.18,19.54-32.48s18.45-18.24,28-27c15.5-14.12,29.25-29.53,36.55-49.56,2.64-7.23,3.86-15,6-22.37a42.59,42.59,0,0,1,4.25-10.23c2.19-3.6,5.92-4.95,10.13-4.06a51.34,51.34,0,0,1,27.33,15.79C351.61,617.82,352.39,624.2,352.21,630.49Z"/><path class="cls-2" d="M481.63,745.56c3.16-8.19,6.31-15.8,9-23.56A131.53,131.53,0,0,0,496,703.55c2.94-15.51,5.23-31.14,4.3-47-.43-7.2-1.29-14.37-1.91-21.56-.92-10.64,3.58-19.25,11.31-25.8s15.65-13,25.56-16.16c12.43-4,23.59-1.1,31.19,8.18a19.4,19.4,0,0,1,3.34,5.86c7.47,21.63,11.3,43.9,8.06,66.64-1.65,11.51-5.93,22.65-9.29,33.89-.47,1.58-2.32,2.87-3.75,4a67.58,67.58,0,0,1-9,6.64c-4.92,2.74-9.86,5.74-15.94,5.14-11.81-1.17-21.59,2.61-28.86,12.22-5.53,7.3-12.65,10.84-22,9.66C486.79,745,484.53,745.43,481.63,745.56Z"/><path class="cls-2" d="M466.76,899.73c-7-5.28-8.7-12.6-4.07-19.67,7.56-11.5,17.69-20.7,28.12-29.51a8.87,8.87,0,0,1,4.75-1.9,4.31,4.31,0,0,1,3.46,1.74c.4.73-.66,2.32-1.14,3.49-.4,1-.92,1.93-1.39,2.9,1.31.17,3.05,1,3.86.43a121.73,121.73,0,0,0,12.42-9.46c18.89-17,33.8-37.06,45.89-59.36,7.51-13.87,14.9-27.87,23.57-41,9.36-14.18,23.47-19.37,40.18-16.06,16,3.16,21.78,15.89,16.25,30.41-3.66,9.57-9.57,18.53-15.74,26.82-8.61,11.56-18.17,22.45-27.75,33.25-10.6,12-24.29,20-37.7,28.35-18.78,11.68-39.51,18.62-60.32,25.53-5.08,1.69-9.53,5.7-13.82,9.19C477.64,889.49,472.38,894.65,466.76,899.73Z"/><path class="cls-2" d="M593,432.37c2.58,2.14,4.46,4.06,6.69,5.38.92.55,2.6-.19,3.93-.34-.66-1-1.11-2.29-2-2.94-5.14-3.71-7-7.66-5.56-12.14s5.39-7.06,9.44-6.44a10.53,10.53,0,0,1,9,9.39c.06.79-.05,1.6,0,2.4,0,1.51-1.63,3.89,1.33,3.94.83,0,2.54-2.52,2.39-3.71-.51-4.2-1.65-8.33-2.74-13.37,3.48-.91,7.85-2.6,12.35-3.13a59.55,59.55,0,0,1,38.77,8.65c11.22,6.78,17,17.12,19.87,29.38,3.52,15,1.35,28.94-8.28,41.3a60.76,60.76,0,0,1-4.81,4.82c-2.58,2.63-5.06,3.07-8.44.87-2.23-1.44-2.74-2.33-2-4.94,1.76-6.62-3.46-12.16-9.89-10.67-1.14.26-2,1.69-3,2.58,1.09.44,2.19,1.25,3.29,1.24,2.73,0,5.17.1,5.79,3.48.66,3.54-.88,4.69-4.37,4.08-5.46-1-11.19-2.63-16.47-1.83-8.82,1.35-15.1,7-18.22,16.33-15.26-6.76-26.06-17.47-31.67-33.16C583.13,459.17,584.85,445.53,593,432.37Zm85.83,10.25a11.18,11.18,0,0,0-5.7-9.73c-2.35-1.28-5.5-1.43-8.28-1.39-1,0-2,2-3,3.14,1.34.19,2.74.71,4,.5a6.81,6.81,0,0,1,7.46,3.45c2,3.16,2.2,8.4-.36,10-2,1.29-5.16,1.39-7.71,1.1-1-.11-1.77-2.65-2.64-4.09,1.49-.1,3-.23,4.47-.27,1,0,2.06.06,3.09.1-.21-1.1-.07-2.47-.69-3.23-1.87-2.27-6.83-2.3-9.24-.29s-2.8,5.35-.7,8.29a11.32,11.32,0,0,0,11.75,4.21C675.91,453.05,678.79,448.94,678.81,442.62ZM634.37,453c2.91-.37,6.46-.38,9.7-1.39,1.93-.61,3.38-2.8,5-4.27-1.8-1.3-3.51-3.49-5.44-3.7-3.22-.35-6.57.75-9.87.85-1.39,0-2.83-.89-4.21-1.45-1.08-.45-2.11-1-3.16-1.52a12.71,12.71,0,0,0,0,3.59c.79,2.8,1.84,5.52,2.83,8.26.66,1.79,1.39,3.56,2.09,5.34ZM622,417.94l-1.12-1.39a16.75,16.75,0,0,0-1,3.68,70.77,70.77,0,0,0,.07,8.11,12.2,12.2,0,0,0,1.07,3.07,19.54,19.54,0,0,0,2.65-1.13c1.83-1.1,3.5-2.48,5.4-3.42,2.6-1.3,5.57-2,8-3.54,1.43-.92,2.08-3,3.08-4.63-1.63-.78-3.29-2.28-4.9-2.23C630.74,416.61,626.35,417.4,622,417.94Zm-11.41,51.34c3.56-.12,6.25-2.45,6.15-4.91-.13-3-2.66-5-6.15-4.76-3,.16-4.74,1.71-4.61,4.77S607.86,469.17,610.54,469.28Z"/><path class="cls-2" d="M634.45,695.18c-8.71,1.53-16,2.38-23,4.14s-14,2.87-21.34,2.22c-5.13-.45-10.37.42-15.76.71,1.22-3.85,2.46-8.42,4.14-12.84,2.88-7.61,3.64-15.45,4-23.53.92-21-2.88-41.07-9.15-61-4.19-13.36-1.47-22.57,10-29.52,4.43-2.69,8.91-5.29,13.08-7.77,3.8,5.57,7.43,10.79,11,16.08a4.1,4.1,0,0,1,.58,2.63c-2.11,14.28,5.35,23.27,16.6,30.18a20.5,20.5,0,0,0,5.33,2.72c4.79,1.22,5.73,4.84,6.33,8.94a192,192,0,0,1,1.92,42.76C637.45,679.44,635.58,687.91,634.45,695.18Z"/><path class="cls-2" d="M207.92,753.47c-3.75-3.42-7.94-3.29-12.27-2.63-8.4,1.26-11.26-3.33-11.38-10.58-.05-3.59,1.22-7.35,2.51-10.8,5.61-15,15.74-26.88,26.15-38.62a286.79,286.79,0,0,0,36.36-51.28c5.75-10.38,12.22-20.36,17.86-30.79,3.28-6.09,5.5-12.74,8.32-19.08,1.93-4.38,4.36-9,9.59-9.27s8.88,3.45,11.82,7.76c5.48,8,5.44,16.72,4,25.8-4.14,26.82-19.29,47-38.5,64.89-11,10.2-22.06,20.31-32.12,31.35a88.54,88.54,0,0,0-21.46,41.57A9,9,0,0,1,207.92,753.47Z"/><path class="cls-2" d="M642.83,625.06c6.51,1.64,12.61,3.8,18.88,4.62,12.43,1.61,24.94,2.64,37.45,3.54,3.44.25,4.41,1.16,4.58,4.64.85,18.37-.75,36.29-8.2,53.37-1.71,3.94-3.47,7.17-8.55,7.66-2.6.25-5.36,1.88-7.47,3.6-8.19,6.67-16.95,6.31-26,2.62-4-1.6-7.77-3.56-11.71-5.25-2-.84-2.46-1.87-1.78-4,6-19.28,5.48-39,3.65-58.78C643.27,633.13,643.1,629.19,642.83,625.06Z"/><path class="cls-2" d="M216.61,423.47l5.27,5.91c-4.45,5.32-3.08,11-.43,17a18.83,18.83,0,0,1,1.46,9.23c-.45,4.31.2,7.85,3.08,11.14,2.32,2.65,5.2,5.18,4.19,9.46-.1.45,1.34,1.84,1.7,1.71.85-.29,2.18-1.35,2.08-1.87-.55-2.91-.64-6.52-2.42-8.48A17.26,17.26,0,0,1,226.77,453c.29-2.63-.8-5.47-1.54-8.14-.56-2-2.12-3.94-2.21-6s1-4.2,1.78-6.24a3.67,3.67,0,0,1,2.37.42c1.78,1.5,4.78,2.05,3.93,5.67-1.37,5.81.94,10.46,5.38,14.18,4.06,3.39,5.62,7.36,4.37,12.81-.46,2,1.05,4.86,2.5,6.66s4,3.09,6.14,4.41c2.92,1.79,4.34,4.11,3.91,7.66-.12,1,.93,2.11,1.44,3.16.72-.92,1.93-1.76,2.1-2.78.83-5-.75-8.94-5.37-11.44-1.53-.83-3.39-1.49-4.36-2.79-1.22-1.64-2.68-4.08-2.28-5.76,1.36-5.73-.65-9.91-4.59-13.67a30.81,30.81,0,0,1-4.06-4.42c-1.65-2.37-2.54-5-.79-7.5,5.93,2.19,11.85,3.93,17.3,6.64,1.82.91,3.75,4.56,3.35,6.46-1.51,7.05,1.7,11.5,6.59,15.63,2.42,2,5.88,3.62,4.9,7.95-.09.4,1.31,1.65,1.78,1.54.85-.22,2.23-1.27,2.15-1.77-.37-2.27-.73-4.76-1.94-6.62-1.35-2.06-3.51-3.65-5.51-5.21-3.25-2.54-4.71-5.61-4-9.78a38.9,38.9,0,0,0,.06-6.23c2.73-.74,4.25-.43,5.3,2.73,4.38,13.11,12.05,23.67,24.34,30.63,7.17,4.06,8.33,9.35,3.68,15.27l-9-5.12c.35-3.48-1.1-4.6-4.48-3a12.56,12.56,0,0,0-7.24,10,12.74,12.74,0,0,1-6,9.42,5.47,5.47,0,0,0-2.32,2.69c-1.08,4-3.3,3.67-6.35,2.29-20.2-9.15-35.19-23.2-42-44.79a73.67,73.67,0,0,1-.59-42.3A17.55,17.55,0,0,1,216.61,423.47Z"/><path class="cls-2" d="M586.18,434.07c-1.48,6.45-2.89,12.51-4.27,18.58a13.79,13.79,0,0,0-.39,2.78c-.12,18.33,2.92,35.51,16.46,49.45,3.1,3.21,4.88,7.85,6.73,12.07,1.12,2.54.25,4.94-3,5.9a75.48,75.48,0,0,1-36.06,2c-1.56-.3-3.31-2.7-3.89-4.49-2.65-8.1-5.6-16.21-7.17-24.55-3.35-17.8-1.31-35.14,6.87-51.5,1.56-3.11,3.45-6,5.29-9a2.72,2.72,0,0,1,1.82-1.23C574.57,434,580.54,434.07,586.18,434.07Z"/><path class="cls-2" d="M704.1,699.71c8.41-20.66,11.22-43.13,10.13-66.75,6.18-.44,12-1.05,17.83-1.19,4.07-.1,6.85,2.06,8.78,5.84a45.13,45.13,0,0,1,5.42,21.1c0,7.59,1,15.2.74,22.77a74.57,74.57,0,0,1-13.61,40.42c-1.5,2.17-4,2.92-6.3,1.13a70.79,70.79,0,0,1-6.58-6.39C715.23,711.23,710,705.78,704.1,699.71Z"/><path class="cls-2" d="M506.19,774.57l16-1.6c.62,4.68,1.35,9.38,1.85,14.1q2,18.67,3.71,37.39a4.56,4.56,0,0,1-.89,3.27c-7.26,7.27-14.63,14.41-22,21.57-.14.14-.5.06-1.55.15a18.65,18.65,0,0,0,2-15.38c-1.61-5.58-5.69-8.5-11.8-9.13C497.8,808,502,791.26,506.19,774.57Z"/><path class="cls-2" d="M298.57,868.4c-1.72,3-3.4,5.74-4.81,8.59a13.84,13.84,0,0,0-.68,3.76c1.09-.73,2.6-1.21,3.18-2.23,4.85-8.6,9.71-17.21,14.21-26,4.81-9.38,9.2-19,13.88-28.41.51-1,1.63-2.38,2.6-2.51,4.23-.55,8.51-.78,12.77-1,2.77-.14,4.15,1.15,3,4-7.65,18.77-15.06,37.66-25.76,55a33.21,33.21,0,0,1-4.18,4.81c-8.29,8.92-18.24,5.05-24.41-1.63-3.07-3.33-2.93-7.75-.09-12.19C290.14,867.69,293.59,866.83,298.57,868.4Z"/><path class="cls-2" d="M526.65,484.05c-5.76-5.94-11.26-11.51-16.59-17.23a4.11,4.11,0,0,1-.8-3.55c2.62-6.23,5.44-12.37,8.37-18.45a4.46,4.46,0,0,1,2.72-2.19c12.91-2.59,25.85-5,38.79-7.5.34-.06.72.16,1.7.4C547.65,450.73,534.41,465.54,526.65,484.05Z"/><path class="cls-2" d="M547.66,557.28l-9.92-9c3.19-7.73,3.61-17.39-2.66-27.8,21.24,8.66,41.9,11.81,63.49,7.84C583.19,542.88,565,552.07,547.66,557.28Z"/><path class="cls-2" d="M557.62,523.89c-5.89-1.95-11.7-4.22-17.69-5.78s-8.72-4.1-7.66-10.93c.64-4.1-1.46-8.58-2-12.93-.33-2.79-.73-5.93.19-8.44,4.13-11.29,11.15-20.93,18.54-30.28a38.51,38.51,0,0,1,5-5.38c-8.28,24.87-5.16,49,4.27,72.67Z"/><path class="cls-2" d="M449.19,868.12c.92-2,1.39-4.42,2.83-5.94,9.62-10.21,19.5-20.22,31.51-27.68a23.06,23.06,0,0,1,10-3.37c4.56-.35,8.28,5.14,7.09,9.56a2.66,2.66,0,0,1-1.75,1.68c-11.47.93-19.52,8-27.28,15.38-3.57,3.42-6.75,7.24-10.34,10.62a20.72,20.72,0,0,1-6,3.84C451.44,873.83,449.71,872.5,449.19,868.12Z"/><path class="cls-2" d="M281.7,525c-1.95-4.72-3.33-8.46-5.07-12-.53-1.08-2.05-1.69-3.11-2.51-.71,1.17-2,2.31-2,3.52-.24,5.2.27,10.45-.26,15.61-.39,3.73-2,7.33-3.06,11l-1.63-.26c-1-6.78-2.72-13.57-2.66-20.34,0-3.1,3-6.74,5.64-9.1,3.84-3.49,6.46-7.12,7.42-12.34.46-2.51,2.75-4.69,4.4-7.31,2.88,4.54,4.86,8.28,7.42,11.56,3.66,4.68,2.91,9.3.15,13.72C287.09,519.45,284.43,521.86,281.7,525Z"/><path class="cls-2" d="M531.2,901c-7.2-5.83-9.19-14.22-6.25-23.56,1.74-5.55,5.94-8.63,11.67-8.58,4.38,0,7,2.81,6.57,7.19a10.64,10.64,0,0,1-.9,3.86C538.73,886.81,535,893.69,531.2,901Z"/><path class="cls-2" d="M530.67,821.58c-.56-5.38-1.29-10.75-1.64-16.14-.34-5.17-.32-10.36-.42-15.54,0-1.07-.2-2.33.28-3.15a20.86,20.86,0,0,1,3.09-3.38c1.22,1.16,3.27,2.18,3.5,3.51.77,4.31.88,8.75,1.22,13.13.19,2.53-.06,5.17.6,7.57C539.08,814,534.71,817.54,530.67,821.58Z"/><path class="cls-2" d="M511.74,444.83l-6.87,17.34-17-5.52-.41-1.14Z"/><path class="cls-2" d="M676.44,804.89c5.12.24,5.34,3.51,5.31,6.27,0,4.66-.65,9.31-1.09,14s-.91,9-1.37,13.49l-1.13.06C677.59,827.51,677,816.35,676.44,804.89Z"/><path class="cls-2" d="M546,916.11c-5.83-9-6.73-14.27-1.71-20C544.86,902.92,545.39,909.15,546,916.11Z"/><path class="cls-1" d="M574.32,366.24c4.23-.24,7.45.89,7.15,6.05,0,.29.43.61.66.93l2.19,3a30.65,30.65,0,0,0-4.09.71,59.23,59.23,0,0,0-7.72,2.69c-3.55,1.64-7.1,2.63-10.68.51A9.28,9.28,0,0,1,559.48,366a11,11,0,0,0,2.93-9.39,7.81,7.81,0,0,1,.39-3.93,2.87,2.87,0,0,1,2.34-1.47c.59,0,1.38,1.39,1.49,2.23.14,1.14-.67,2.46-.37,3.5s1.35,2.41,2.23,2.53C574.76,360.31,574.78,360.22,574.32,366.24Z"/><path class="cls-1" d="M599.76,325.63c4,2.94,7,5,9.83,7.32.94.76,1.44,2.06,2.15,3.11-1.52.33-3.48,1.44-4.47.87-6.5-3.78-11.06-9.27-12.44-16.84a53.19,53.19,0,0,1-.34-9c0-.33.71-.67,1.45-1.33.84,2.16,1.58,4,2.12,5.47,4.66-1.81,9-4,13.63-5.17a11.66,11.66,0,0,1,13.57,6c1.81,4-.12,11-4,14.18-.69.56-1.87.52-2.82.75a10.6,10.6,0,0,1,0-3.23,9,9,0,0,1,1.83-2.6c2-2.52,1.87-5.44-.32-7.21-1.5-1.2-4.73-1.78-6.38-1C609.12,319.1,605.18,322.12,599.76,325.63Z"/><path class="cls-1" d="M619.14,347.11c5.77-3.62,11.35-7.25,17.09-10.61,1.06-.61,2.77-.12,4.18-.13-.76,1.19-1.26,2.76-2.34,3.51-4.48,3.14-9.23,5.88-13.64,9.11a5.44,5.44,0,0,0-1.57,4.33c.85,6.81-1,10.81-6,12.28-6.06,1.76-12.8-1.06-15.29-6.52a15.65,15.65,0,0,1-1.44-5c-.09-.92.84-1.93,1.31-2.91a13.49,13.49,0,0,1,2.65,2.31c1.65,2.42,2.56,5.68,4.73,7.35a6.63,6.63,0,0,0,9.67-1.1c1.72-2.43.88-6.63-2.07-9.4-1-1-2.58-1.44-3.63-2.42-.66-.6-.84-1.71-1.24-2.59.92-.34,2-1.18,2.71-.92A35.12,35.12,0,0,1,619.14,347.11Z"/><path class="cls-1" d="M661,343.89c-2.77.41-5.2.4-7.32,1.19-2.46.91-4.59,2.67-7,3.79-1,.46-2.3.19-3.47.25.29-1,.24-2.49.93-3.07,4.51-3.79,9.61-6.32,15.7-5.82,3.08.26,5.75,1.39,6.57,4.85.86,3.61-1.46,5.65-3.77,7.77a47.6,47.6,0,0,0-3.4,3.81,6.18,6.18,0,0,1-1,1.16c-2.09,1.33-12.62,0-14.28-2a2.74,2.74,0,0,1-.44-2.45c.26-.54,1.44-.82,2.24-.87a8.34,8.34,0,0,1,2.32.56C654.77,354.76,658.87,352.18,661,343.89Z"/><path class="cls-1" d="M567.62,290.94a11.33,11.33,0,0,1,2.16,1.92,9.38,9.38,0,0,1,.78,2.4c-1,.21-2.21.91-2.83.54-3.06-1.81-6.08-3.31-9.81-2.39-.44.11-1.48-.75-1.62-1.32a2.54,2.54,0,0,1,.8-2,2.94,2.94,0,0,1,2.17-.87c4.86,1,6.14-2.71,8.16-5.73.69-1,2.32-1.46,3.53-2.16-.05,1.4.24,2.94-.24,4.19A39.16,39.16,0,0,1,567.62,290.94Z"/><path class="cls-1" d="M674.7,403.72c-1-1.27-2.1-2.28-2-2.46a37,37,0,0,1,3.77-4.52,9.09,9.09,0,0,1,1.8,1.49C677.32,400,676.16,401.56,674.7,403.72Z"/><path class="cls-1" d="M660.82,390.73l-3,3.39c-.67-.81-2-1.72-1.86-2.41.18-1.18,1.24-2.22,1.93-3.31Z"/><path class="cls-1" d="M691,415.47a16.48,16.48,0,0,1-2.11-2.26,21.32,21.32,0,0,1,3.11-3.53,6.36,6.36,0,0,1,1.85,1.34A51.37,51.37,0,0,1,691,415.47Z"/><path class="cls-1" d="M678.81,442.62c0,6.32-2.9,10.43-7.52,11.82a11.32,11.32,0,0,1-11.75-4.21c-2.1-2.94-1.82-6.18.7-8.29s7.37-2,9.24.29c.62.76.48,2.13.69,3.23-1,0-2.06-.13-3.09-.1-1.49,0-3,.17-4.47.27.87,1.44,1.62,4,2.64,4.09,2.55.29,5.67.19,7.71-1.1,2.56-1.63,2.32-6.87.36-10a6.81,6.81,0,0,0-7.46-3.45c-1.28.21-2.68-.31-4-.5,1-1.1,2-3.13,3-3.14,2.78,0,5.93.11,8.28,1.39A11.18,11.18,0,0,1,678.81,442.62Z"/><path class="cls-1" d="M634.37,453l-3,5.71c-.7-1.78-1.43-3.55-2.09-5.34-1-2.74-2-5.46-2.83-8.26a12.71,12.71,0,0,1,0-3.59c1.05.51,2.08,1.07,3.16,1.52,1.38.56,2.82,1.49,4.21,1.45,3.3-.1,6.65-1.2,9.87-.85,1.93.21,3.64,2.4,5.44,3.7-1.66,1.47-3.11,3.66-5,4.27C640.83,452.61,637.28,452.62,634.37,453Z"/><path class="cls-1" d="M622,417.94c4.4-.54,8.79-1.33,13.2-1.48,1.61,0,3.27,1.45,4.9,2.24-1,1.58-1.65,3.7-3.08,4.62-2.41,1.57-5.38,2.24-8,3.54-1.9.94-3.57,2.32-5.4,3.42a19.54,19.54,0,0,1-2.65,1.13,12.2,12.2,0,0,1-1.07-3.07,70.77,70.77,0,0,1-.07-8.11,16.75,16.75,0,0,1,1-3.68Z"/><path class="cls-1" d="M610.54,469.28c-2.68-.11-4.47-1.78-4.61-4.9s1.6-4.61,4.61-4.77c3.49-.2,6,1.77,6.15,4.76C616.79,466.83,614.1,469.16,610.54,469.28Z"/></svg>