<svg id="Layer_1" data-name="Layer 1" xmlns="http://www.w3.org/2000/svg" viewBox="0 0 1000 1000"><defs><style>.cls-1{fill:#ff7a00;}</style></defs><path class="cls-1" d="M367.49,431.21c.85-3.56,1.22-6.76,2.42-9.61.77-1.83,2.65-4.34,4.23-4.5,7.67-.75,6.81-7,8.38-11.28-7.57-.94-15.11-1.49-22.48-3a30.81,30.81,0,0,1-11.34-4.93c-6.71-4.7-14.1-7.13-21.92-9-9-2.18-17.24-6-24-12.62-7-6.84-9-14.71-4.69-23.57,2.3-4.73,2.27-8.33-2.09-11.73a29.91,29.91,0,0,1-5-5.6c-7.77-10.12-8.36-21.34-.39-31.23,5.09-6.3,7.13-12.63,6.45-20.6-1.76-20.58,7.39-35.06,25.45-44.66,3.23-1.71,5.8-5.32,7.81-8.59,7.08-11.58,15.86-20.94,29.39-24.76a17.17,17.17,0,0,1,2.89-.71c8.88-.92,16.16-4.71,23.06-10.54,10.62-9,21.86-9.59,33.65-2.12,6.58,4.16,12.15,4.15,19.05.9,17.45-8.23,28.17-6.1,40.74,8.51,5.45,6.34,12,7.69,19.42,8.23,12.18.89,18.79,6.48,21.53,18.42,1,4.47,3.11,7.85,7.54,9.5,14,5.2,18.42,13.43,15.15,28-.21.92-.4,1.85-.73,3.33,8.47-.7,16.56-1.24,24.6-2.2,1-.12,2.12-2.24,2.65-3.64,9.52-25.3,19.24-50.52,28.27-76,4-11.37,11.91-14.81,22.47-15.32,25.27-1.23,48.94,5.64,72,15,21,8.57,41.23,18.76,57.52,35.05A49.33,49.33,0,0,1,760,237.4c1.43,3.41.9,8.74-.79,12.2-12.82,26.28-26.13,52.31-39.33,78.4-1,1.95-2,3.49,0,5.68,23.66,26.51,38.69,57.38,46.29,92a4.2,4.2,0,0,0,.42.85c7.38.49,7.91,1.05,10.08,10.28,5.79.6,11.56.31,16.74,1.92,11.29,3.53,17.43,12.1,18.45,23.65.91,10.33-3.25,19-12.1,24.68a15.59,15.59,0,0,0-6.63,8.73c-19.24,55.47-38.19,111-58.15,166.25-10.21,28.27-29.06,50.16-56.36,63.27-10.91,5.23-23.31,7.38-35.09,10.74-11.62,3.32-23.3,6.39-34.92,9.56.76,7.89-.62,10.28-8.1,13.21-4,1.55-8.11,2.64-12.21,4-1.14,6.47,3.21,15-7.47,18.13,1.31,8.69,2.68,17.33,3.91,26,4.34,30.55.57,59.81-15.55,86.54-14.06,23.32-36,35.57-62,41.11-42.75,9.08-84.25,5.78-123.84-13.63a91.78,91.78,0,0,1-18.22-12.11c-11.14-9.33-16.69-21.51-17.14-36.23-.52-16.83,3.88-32.88,6.7-49.21,2.74-15.9,5.49-31.82,1.34-47.93-7.47-29-43.65-40.5-65-20.38-9.65,9.09-14,21.2-14.67,34-1.06,20.28-.54,40.63-1.32,60.93s-4.28,40.33-15,58.24c-13.67,22.87-34.57,34.92-60.34,38.84A101,101,0,0,1,135,935.83c-21.49-11.66-36.74-28.52-40.42-53.7-2.34-16,1.65-31,8.73-45.28,10.12-20.42,26.44-35.26,44.06-49C159,778.79,171,770,179.71,757.66c7-9.84,11.29-20.62,11.29-32.9,0-3.64-.64-5.5-5.15-5.86-36.52-2.89-68.4-33.4-74-69.54-7.53-48.63,25.19-86.77,63.64-95.83,46.29-10.91,93.48,19.71,101.67,66.77,7.94,45.61-20.26,87.55-65.57,97.46-3,.66-6.15,1-8.69,1.45-1.32,8.39-1.93,16.56-4,24.34-4.1,15.51-13.89,27.37-26,37.52-15.94,13.36-32.22,26.36-47.55,40.38-10.13,9.27-17.56,20.78-20.58,34.68-4.47,20.51-.34,39.25,14.22,54.1,17.45,17.81,38.86,28.06,64.67,26.87,17.71-.82,34.52-4.24,49.49-14.52,15.64-10.73,23.19-26.36,27.92-44,5-18.66,3.48-37.59,2.9-56.49a164.52,164.52,0,0,1,5.22-48.41c4.52-16.64,13-31.15,30.69-36.48,22.43-6.75,47-.63,61.24,23,8.21,13.59,10.24,28.25,8.34,43.67-2.49,20.27-5.52,40.48-7.54,60.79-1.41,14.09,1.46,27.31,13.22,36.9a61.55,61.55,0,0,0,10.79,7c28.45,14.59,58.66,21.19,90.57,18.34a173.94,173.94,0,0,0,52.37-13.16C547.23,906,558.77,892,565,873.42a273.4,273.4,0,0,0,8.25-28.5,103.09,103.09,0,0,0,1.1-38.68c-1.18-7.19-2.12-14.42-3.22-21.62-.18-1.13-.34-2.79-1.08-3.22-7.41-4.34-5.56-11.68-6.09-18.51-4.61-1.54-9.31-3-13.92-4.67-5.68-2.08-10.55-4.93-11.16-12-.08-.93-2.2-2.08-3.56-2.46-17.38-4.91-34.67-10.18-52.22-14.36-16.68-4-29.9-13-42-24.61-17.52-16.7-27.24-37.63-34.91-60.12C387.8,591,368.91,537.54,350.14,484a11,11,0,0,0-4-5.14,26.59,26.59,0,0,1-11-30.57c3.66-11.23,14.41-18.36,26.6-17.61C363.69,430.82,365.64,431,367.49,431.21Zm11.12,7.55c-.61,4.45-1.51,8.38-1.61,12.33-.55,20.16-.16,40.3,5.15,59.93,16.7,61.73,52.15,107.55,112.72,131.68,12.46,5,25.48,7.73,39.06,6.29,10.11-1.07,19.49-4.06,27.37-10.78,6.3-5.37,6.21-5.35,13.51-.82,15,9.3,31.48,13.46,48.25,8C682.32,626.24,723.36,587.8,743,528c2.74-8.35,4.41-17.06,6.57-25.6l-1.13-.44c-14.09,28.36-36.11,46.18-67.91,50.09-30.53,3.77-59.17-.41-82.41-22.86-11,6.34-18.09,7.14-19.88,2.14,1-.09,2-.25,2.94-.24,11.29.11,19.78-6.71,21.66-17.82,1.06-6.28-.32-12.09-5.87-15.93s-11.3-3.14-16.22.74c-3.4,2.68-5.86,6.56-8.62,10a26.16,26.16,0,0,0-2.2,3.87l-1.53-.46c.11-1.28-.17-2.76.39-3.8,1.55-2.91,3.09-6,5.3-8.34s2-4.18,1.48-7a215.22,215.22,0,0,1-3.46-23.55c-1-11.41,1.84-22.35,5.67-32.89-6.68-5.1-12.76-5.58-18.45-1.56.35,1.05.68,2.16,1.1,3.23a85.2,85.2,0,0,1-38.92,106.14c-22.69,12.21-47,12.73-71.42,8.17-38.22-7.12-67.27-42.8-67-81.56.08-9.64,1.72-19.26,2.65-28.91ZM769.15,488c-1.65,8.34-2.86,16.88-5.07,25.17-15.79,59.23-50.23,103.53-106,130.06-26.74,12.72-54.22,14-81.69,1.7a19,19,0,0,0-18.16.89c-11.48,6.44-23.59,9.35-37,7.73A129.17,129.17,0,0,1,467,633.78c-43-27.35-72.06-65.44-85.88-114.62-3.65-12.95-5.51-26.41-8.18-39.58l-11.11,3.66c.36,1.23.55,2,.82,2.8q23.07,66.23,46.15,132.45c6.55,18.78,12.55,37.81,23.2,54.84,12.48,19.95,28.24,36.42,51.15,44,18.53,6.11,37.43,11.1,56.2,16.46,1.37.4,3.84.3,4.47-.55,5.35-7.26,12.14-6.24,19.77-4.8s16,2.57,23.72,1.68c9.09-1,10.93-1.38,16.12,6.18,18.84-5.48,37.9-11,56.92-16.58,15.9-4.67,28.93-13.86,40.16-25.85,14.74-15.74,23.94-34.63,31-54.67,13-36.89,25.81-73.85,38.69-110.78q6.27-18,12.5-35.89ZM194.94,554.74c-43.69-.33-80.1,35.29-81,78.18-1,45,34.16,81.28,77,83.17,47.08,2.07,84.52-35.87,84.48-80.66A80.61,80.61,0,0,0,194.94,554.74Zm384.51-60.51c8.58-3.35,16.52-4.18,22.44,3.22,7.91,9.9,4.45,19.83-1.5,29.19,27.8,25.82,66.23,31.57,100.7,10.1,33.24-20.7,43.1-60.94,35.81-85.39-1.82.77-3.64,1.46-5.39,2.32-10.18,5-19.7,5.83-29-2.49-6.15-5.48-14.43-6.18-21.76-3.53-9.72,3.51-17.46,1.15-25.1-4.58a30.32,30.32,0,0,0-18.54-6.22c-12.66-.1-23.59-4.81-33-13.24a35.83,35.83,0,0,0-8.21-5.55c-1.2-.57-4,0-4.75,1.05C574.68,442,571.07,466.91,579.45,494.23ZM386.62,460.79a76.67,76.67,0,0,0,6.64,41.32c14.21,30.4,39.11,46.46,71.69,48.82,20.68,1.49,39.74-6.23,56.09-19.65,27.25-22.37,36.86-63.64,22.19-95.6-1.18-2.58-2.61-3.4-5.5-3.75-17.34-2.11-32.29,1.92-44,15.67-1.47,1.73-3.67,2.85-5.54,4.24-8.68,6.5-18.16,8.76-28.67,5.34-5-1.65-10.09-3.27-15.05-5.14-10.85-4.09-20.94-2.61-30.22,4.1-6.19,4.49-12.83,6.93-20.53,5.85C391.49,461.67,389.22,461.23,386.62,460.79ZM600.53,191c-.52.44-.9.6-1,.87-10.38,28.15-20.87,56.27-31,84.5-2.81,7.79-2.48,16-.6,24.06,4.93,21.17,19.13,35,37.45,44.67,19.74,10.42,40.57,15.62,63.22,10,11-2.74,20.76-7.23,26.31-17.21,12.17-21.9,23.83-44.09,35.2-66.42,3.68-7.24-.62-14.84-8.94-17.52-3.43-1.1-7.13-1.3-10.68-2-30.87-6.49-59.8-17.74-85.9-35.67C614.91,209.61,605.9,202.21,600.53,191ZM410.3,322.55,408.55,321a19.25,19.25,0,0,1,2.05-3.54c14.23-15.86,29.9-29.93,49.62-38.73,8.49-3.79,17.07-7.36,25.65-10.93,3.42-1.43,4.79-3.21,3.59-7.27s-3.66-5.76-7.27-6.5c-7-1.43-14-1.41-20.05,2.71-13.59,9.26-27.34,18.36-40.31,28.44-22,17.11-38.9,38.65-51,63.78-3.91,8.11-6.81,16.66-5.95,25.92.56,6,1.89,6.83,7.67,5.18,4-1.14,7.77-1.38,11.26,1.59,4.81,4.09,6.44,3.68,9.16-1.89,18.49-37.9,46-67.28,82.9-87.81,8.09-4.5,16.32-8.74,24.36-13-.92-5-3.19-7.35-7.65-6.94-2.95.26-6,.31-8.78,1.21-26.31,8.59-49.08,22.7-67.45,43.63C414.5,318.88,412.31,320.64,410.3,322.55ZM195.93,719c-2.33,10.08-3.51,19.53-6.74,28.22C183.67,762.08,172,772.35,160,782c-14,11.28-28.77,21.66-40.29,35.74-12.15,14.85-20.88,31.39-22.43,50.72-1.85,23.09,7.87,41.61,25.73,55.52,24.19,18.84,52,24.92,81.81,18.79,27.14-5.58,46.94-21.19,57.8-47.18,6.5-15.55,8.75-32,9.22-48.66.46-16.49-.43-33,.37-49.49a99.36,99.36,0,0,1,5.06-26.73c5.35-15.75,16.31-26.5,33.36-28.46,17.41-2,32.16,3.7,42.35,18.77,5.67,8.4,7.73,17.89,8.12,27.85.76,19.3-4.56,37.8-7.32,56.64-1.58,10.78-3,21.89-2,32.65,1.48,16.9,12.27,28.45,26.68,36.27,44.49,24.14,91.26,27.91,139.35,13.46,24.4-7.34,43-22.4,54.07-46.17,14.91-32,12.31-64.93,6-98.13-.2-1-1.81-1.8-2.77-2.69a8.38,8.38,0,0,0-.4,4.6c1.45,13,4,26.06,4,39.08,0,16.29-3.7,32.16-9.45,47.62-7.66,20.6-19.47,37.07-40.65,45.19-23.14,8.87-46.85,13.75-72,13.12-24.34-.62-46.71-7.36-68.49-17.21A66.56,66.56,0,0,1,376,906.65c-13.71-10.09-18.74-24.41-17.54-40.74,1.07-14.56,3.44-29,5.25-43.52,1.63-13.15,5-26.18,2.38-39.6-3.61-18.58-12.7-33.18-30.54-40.91-4.49-2-9.78-2.6-14.74-2.8-6.34-.25-13.07-.61-19,1.13-17.14,5-25.19,18.83-29.46,34.76-5.12,19.08-6.37,38.72-4.73,58.41,1.32,15.89.5,31.54-3.52,47-4.84,18.52-13.29,34.81-29.95,45.51-23.32,15-48.72,17.1-75.26,11.77-14-2.82-25.13-10.89-36-19.5-19.06-15.12-25.12-35.55-22.25-58.6,1.63-13.16,8.46-24.59,17.2-34.85,15.17-17.83,34.49-30.78,52.32-45.49s28.51-32.58,28.69-56.1C198.8,719.83,197.8,718.33,195.93,719ZM591.66,340.71c-3-2.64-5.64-4.93-8.25-7.25-4.29-3.8-7.56-3.59-12.16.15-7.21,5.88-15.07,9.59-24.78,6.71-7.4-2.2-14.1-.48-20.05,4.36-1.81,1.48-3.69,2.86-5.45,4.39-6.3,5.48-13.54,7.31-21.76,6.19-9-1.23-17.51-.16-25,5.75-4.93,3.89-10.14,3.86-15.81.81a12.71,12.71,0,0,0-8.84-1c-5.41,1.64-10.16,1.24-14.69-1.88-2.57-1.77-5-2.15-7.86-.64-3.55,1.88-6.74,1-10.32-.77-2-1-6.41-.74-7.42.64-4.34,6-7.82,12.59-11.59,18.93,2.23,2.05,4,3.54,5.64,5.21,3.4,3.5,7.26,4.48,11.74,2.35,6.84-3.25,13.43-2,19.52,1.67,4.74,2.87,8.84,1.68,12.22-1.49,6.24-5.87,13.27-7,21.25-5.23s15.37,1.12,21.24-5.92c5-6,11.61-8.64,19.57-7.8a38.84,38.84,0,0,0,30.94-9.77c7-6.16,15.2-6.64,23.62-4.31,8.17,2.27,15,.61,21.11-5.15C586.67,344.58,589.08,342.83,591.66,340.71Zm5.9,69.37c6.06,4.38,11.21,7.94,16.2,11.74,6.69,5.09,14,8.3,22.54,8.1,9.26-.22,17.36,2.23,24.06,8.89,5.1,5.06,11.08,6.5,17.83,3.49,9.36-4.17,18-3.52,26.65,2.51,10.15,7.05,20.43,4.59,30.73-1.64-1.63-4-3-7.87-4.88-11.52-.61-1.2-2.39-2-3.81-2.52-6.07-2.05-12.67-3-18.22-6-8-4.3-16-6.95-25.19-6.1-7.37.68-14-1.64-20.49-5.06-3.19-1.69-6.67-3.43-10.16-3.79-8.78-.9-16.73-2.94-24-8.54-3.15-2.43-9.28-4.26-12.39-2.81C609.59,400,603.79,405.52,597.56,410.08Zm-20.84-83.44c-9.27-15.78-9.27-15.78-26.08-8.8a3.51,3.51,0,0,1-.95.3c-5.7.49-11.78,2.44-17,1.11-8.24-2.09-15.27-1.36-22.28,3-7.94,5-15.77,5.18-23.75-.3-1.68-1.15-5.34-1.71-6.66-.69-11.44,8.83-25.81,1.66-37.78,7.2-1.19.55-3.16-.74-4.8-.94-1.19-.14-2.92-.36-3.56.29-4.79,4.88-9.36,10-14,15l.59,1.22c7.4-1.19,14.2-.15,20.38,4.19,1.25.88,3.71.91,5.26.35,5.08-1.86,9.44-.82,13.54,2.34,3.09,2.38,6.55,2.82,9.8.82,9.59-5.89,19.87-5.55,30.42-4.06,6.27.88,12.33.17,17.3-4.32,8.69-7.85,18.68-10,30.09-7.78,5.86,1.14,11.92.94,17.44-2.28C568.62,331,572.69,328.86,576.72,326.64ZM719.07,206.52c-.35-.24-1.41-1-2.52-1.73-25-15.81-52-26.36-81.53-29.49a73.91,73.91,0,0,0-23.64,1.77c-8.67,2-10.75,8-6.16,15.5a64.8,64.8,0,0,0,9.43,11.51c14.79,15,34,21.44,53.61,26.78,7.73,2.09,15.58,3.72,23.37,5.56-6.09-4.15-12.84-6.74-18.6-10.76-6.86-4.79-13.6-10.17-19-16.48-5.16-6-2.43-13.12,5.37-14.12,8.07-1,16.69-1.12,24.58.62C696.12,198.37,707.86,203,719.07,206.52ZM402.59,417.58c-4.28,8.55-8,15.79-11.48,23.12-.48,1-.5,3.15.1,3.58,2.57,1.81,5.3,3.79,8.26,4.55,5,1.3,8.88-2,12.76-4.64,6.52-4.49,13-9.8,21.41-9,6,.58,11.9,3,17.75,4.87,8.45,2.72,17.49,4,25.26.32,8.55-4.06,15.76-10.9,23.74-16.24,6.25-4.19,12.55-7.53,20.7-3.72,4.21,2,9.4,1.89,14.15,2.73.29-.51.58-1,.88-1.54-5-5.23-10.07-10.45-15.06-15.71-2.06-2.18-3.92-1.69-6.6-.68a163.89,163.89,0,0,1-19.31,5.84c-6.5,1.57-13.95-.23-19.42,4.93-10.24,9.66-21.55,10.08-33.54,4.1-5.92-3-11.14-2.2-16.29,1.54a35.44,35.44,0,0,1-4.7,2.82c-5.35,2.72-10.19,2.11-14.69-1.93C405.31,421.45,404.47,420,402.59,417.58Zm86.72-34.14c2.74.52,4.82,1,6.92,1.3,3.24.5,7,2.12,9.65,1.1,8.47-3.2,16.56-2,25-.24,14.56,3,28.49,3.64,38.25-11,3.18-4.79,8.73-6.47,14.47-6.59a26.13,26.13,0,0,0,18-7.27c3-2.85,6.12-5.61,9.39-8.59-4.07-2.26-8.22-4.3-12.09-6.78-3-1.89-5.51-2-8.17.3-1.65,1.41-3.39,2.7-5,4.14-6.13,5.5-13.06,7.85-21.17,5.31-8.9-2.78-16.65-.69-23.58,5.29-1.51,1.3-3.21,2.37-4.79,3.6-8.89,6.86-18.6,9.85-29.9,7.33-2.11-.47-5.18.8-7,2.25C495.82,376.32,492.91,379.8,489.31,383.44Zm9.27-98.69a183.66,183.66,0,0,0-47.92,28c4.23.39,8.38.91,12.54,1.11,1.92.09,4.36.24,5.72-.77,8.34-6.19,16.19-4.88,24.5.24,2.48,1.53,6.83,2.5,9.19,1.36,10.11-4.9,19.74-3.46,29.94-.42,4.8,1.43,10.47,1.12,15.51.25,6.28-1.08,12.33-3.56,18.69-5.49-.79-2.9-1.93-6.17-2.56-9.53-1.39-7.45-1.63-7.82-8.67-5.05-6.65,2.62-13.27,4-20.39,2.28s-14.63-2.74-21.7-4.88C508.58,290.35,504.17,287.47,498.58,284.75ZM518,389.56l0,1.12c6.57,4.72,13.12,9.47,19.75,14.12a5.8,5.8,0,0,0,3.17.94c5-.05,9.94-.47,14.9-.38,10.72.21,19.43-3.65,25.78-12.34,4.76-6.53,10.77-10.46,19-11.34,6.45-.69,12.87-2.32,17.55-7.34s9.12-10.34,13.63-15.5c-20.44-5.71-13.74-7.83-29.13,4.87-4.25,3.5-10.11,6.41-15.47,6.89-8.53.77-14.83,3.87-19.87,10.54-4.24,5.62-9.8,9.79-16.91,10.52a103.23,103.23,0,0,1-17.4-.19C528,391.14,523,390.22,518,389.56ZM373.75,207l-.69,1.59c4.38,2.81,8.62,5.89,13.18,8.37,6.82,3.7,11.79,8.69,13,16.6,1.59,10.44,7.59,15.74,18,17.52,9.47,1.63,18.34,5.06,21.91,15.46,5.93-3.79,6.56-5.88,2.14-10.66-3.93-4.25-8.63-7.78-13-11.61s-6.84-8-5.39-14c1-4.23-.45-7.45-4.48-9.48-2.52-1.26-5.33-2.37-7.25-4.3s-4.6-5.17-4.16-7.26c1.52-7.38-3.4-12.07-5.59-17.75C389.55,192.44,383.62,203.11,373.75,207ZM540.93,739.19l-.61-1.77c-8.94-2.44-17.89-4.79-26.8-7.33-12.9-3.69-26.51-5.93-38.48-11.6-27.68-13.12-46.65-35.28-57-64-21.68-60.38-42.59-121-63.95-181.53-.71-2-2.78-3.55-4.22-5.3-.42.3-.84.6-1.25.91.93,3,1.79,6,2.81,8.89,15.54,44.62,30.91,89.3,46.76,133.8,7.16,20.12,14.09,40.46,23.26,59.67,11.25,23.57,28.47,42.67,53.75,51.69,20.07,7.17,40.91,12.19,61.45,18C537.88,741,539.51,739.71,540.93,739.19Zm53-5.91c-6.71,0-12.7.33-18.63-.09a116.94,116.94,0,0,1-17.7-2.5c-5.18-1.18-8.25,1.12-11,4.81a26,26,0,0,0-2.14,3.28c-3.78,7.09-3,11.71,3.13,14.68,5,2.43,10.42,4,16.16,6.15.22-4.58.39-8.31.57-12.05l1.82-.08a22.09,22.09,0,0,1,.94,4.24q.19,8.74.11,17.49c0,4.18,1.83,6,6.05,6s6.9-1.39,6.89-5.87c0-5.49-.4-11-.49-16.46a30.2,30.2,0,0,1,.52-7.37c.26-1.1,1.9-2.64,2.88-2.61a4.23,4.23,0,0,1,3,2.6,80.05,80.05,0,0,1,1.49,9.3c9.08-1.37,12-4.09,10.36-10.28C596.89,740.71,595.26,737.07,593.88,733.28ZM407,190.61l-1.12,1.22a45.24,45.24,0,0,1,3,5.56c.9,2.41,2.41,5.25,1.83,7.43-1.46,5.49,1.06,8,5.38,10.23,2.65,1.35,5.55,2.75,7.42,4.91s3.84,5.59,3.24,7.77c-2.35,8.43,2.69,12.48,8.07,17.06,5.09,4.32,9.58,9.35,14.66,14.38,6.08-2.87,7.12-7.78,1.78-13.27-.93-1-1.95-1.82-2.89-2.76-5.07-5-5.82-9.92-2.52-16.2,3.6-6.84,3.6-6.84-2.5-10.95-5.19-3.5-5.63-5.24-3.47-11.29a78,78,0,0,0,1.94-8.18,9.9,9.9,0,0,0-1.86,0,8.32,8.32,0,0,0-1.86.71c-6.82,4.08-13.14,3.06-19.59-1.19C414.94,193.76,410.81,192.4,407,190.61ZM392.44,307.4c-4.15-.25-8.31-.14-12.33-.82-9.77-1.67-17.56-7-23.75-14.5-4.81-5.86-10.41-7.81-17.65-5.22a37.73,37.73,0,0,1-7.79,1.55c-3.94.52-7-.93-9.55-4.12-5.58-7.08-11.36-14-17.45-21.5-3.78,8.45-3.74,16.09-2.65,23.71.18,1.22,3,3.28,3.93,3,6.46-2.06,10.09,1.5,13.4,6,5.28,7.18,12,10.18,20.89,7.63,10-2.87,18.83-1.08,26.94,5.84,3.14,2.68,7.5,4.25,11.56,5.47C384.12,316.26,389.46,313.4,392.44,307.4Zm-93.62-7.82c3.85,5.81,7.36,10.59,10.31,15.69s5.19,6.32,10.4,3.2c8.39-5,16.18-4.88,24,1.17a36.27,36.27,0,0,0,22.76,7.73c6.84-.06,14.6.55,17.53-8.73a30.35,30.35,0,0,1-21.09-7.46c-6.36-5.54-13.29-6.81-21.34-4.49-9.63,2.77-18.44,1.09-24.46-7.48-4-5.75-8.89-7.47-15.57-5.68ZM720.6,417.13c-14.4-26.32-68-40.33-93.1-25.52,1.52.74,3.06,1.33,4.45,2.17,6,3.68,12.3,5.47,19.47,4.36a23.54,23.54,0,0,1,17.08,4.17c5.15,3.49,10.66,4.23,16.66,3.19a31,31,0,0,1,24.94,5.81C712.91,413.42,716.28,414.78,720.6,417.13ZM460,253.08c11.17-3.48,13.71-11.9,5.22-21.82-2.75-3.22-3.63-6.6-2.11-10.58,1.19-3.1,2.7-6.13,3.45-9.33,2-8.46-3.92-13.47-9.23-18-3.87-3.33-8.25.17-11.49.8-.79,4.37-.73,8.09-2.19,11.06-2.05,4.17-1,6.18,2.69,8.38,6.88,4.1,7.41,6.8,3.59,13.87-3.75,6.91-3.22,8.53,2.25,14.36C455.19,245,457.26,249,460,253.08ZM296.15,302.9c-1.74,2.39-2.83,3.64-3.65,5.05-4.9,8.39-4.06,9.42,3.77,11.44a12.91,12.91,0,0,1,4.82,2.53c3.71,3.08,7.2,6.41,10.83,9.57,3,2.64,6.5,3.51,10.12,1.46,6.6-3.73,12.8-2.58,19.49.17a82.49,82.49,0,0,0,19.05,5.26c6.88,1,14.27-1.31,15-7.83-12.89,1.81-24.81-.45-35.32-8.46-5.88-4.49-11.75-4.25-18.09-.73-8.7,4.83-12.47,3.22-17-5.52C302.84,311.42,299.44,307.56,296.15,302.9Zm217.14-22c16.1,6.05,31.21,16.91,49.5,7.79,1.09-5.59,2.25-11.57,3.49-18C548,271,530.38,273.71,513.29,280.9ZM290.18,320.41c-.35.45-.71.89-1.07,1.34a25.54,25.54,0,0,0,10.21,16.79c5.07,3.64,10.9,6.23,16.36,9.34,6.13,3.48,6.94,3.39,11.89-1.72,5.34-5.51,8.21-5.66,14.76-1.35,3.72,2.44,7.52,5.09,11.66,6.51,8.19,2.82,13.78-1,14.68-9.62-10.46,1.66-20.22-.75-29.47-5.24-5.33-2.59-10.26-3.08-15.56,0-4.9,2.81-9.64,1.79-13.85-1.71-2.3-1.91-4.21-4.32-6.64-6C299,325.73,294.52,323.15,290.18,320.41ZM416.34,404.8l.66,1.88c4.24-1.24,8.57-2.22,12.68-3.78,8.2-3.09,16.37-4.2,24.73-.86,4.56,1.83,8.6.67,12.88-1.32a66.55,66.55,0,0,1,14.4-5c5.53-1.15,11.28-1.27,18.27-2-2.69-1.37-4.07-2.26-5.57-2.81-13.8-5.11-28-4.89-42.26-2.84-1.78.26-3.33,1.91-5.05,2.78-2.22,1.11-4.59,3.12-6.76,3C430,393.07,423.8,400.11,416.34,404.8Zm-53.79,63.29-5.3,2.35c2,6.1,6.13,7,10.24,2.25a9.25,9.25,0,0,0,2.3-4.88,204.7,204.7,0,0,0,1.08-21.42c-.17-7.71-8.25-13.94-15.56-12.21-9.37,2.22-15.53,8.14-17.66,17.66-1.86,8.32.16,15.36,7.82,20.08-1.46-15-4-18.66,10.43-22.28l-6-7.13,1.21-1.48c1.51,1,3.35,1.8,4.47,3.16C362,451.9,367.68,460,366,470.82c0,.12-.6.15-1.25.3C364.06,470.21,363.34,469.19,362.55,468.09Zm420.21,6.5c-.29.9-1.33,1.57-2,2.35-.47-.6-1.36-1.22-1.34-1.8.36-7.91,3.92-20.56,12.23-24.53,13,1.89,12.07,10.55,10.69,19.51,5.18-7.69,4.9-15.43-1.6-23.11-4.75-5.62-11.71-7.65-19-6.44a10.86,10.86,0,0,0-6.42,4.64c-4.5,7.15-5.57,15.09-4.34,23.49,1,6.9,3.68,9.05,12.8,10.08M583,399.74c-6.19,3.12-11.76,6.76-17.86,8.75s-13,2.42-19.87,3.59l8.45,11.24c10.26-5.16,20.27-4.62,29.59.26l14.25-17.92Zm1.22-4.05c5.48,4.52,12.19,8.1,18.34,5.61,8.3-3.37,15.52-9.42,22.94-14.15-6.73-1.9-13.21-6-21.61-3.15C596.5,386.54,588.55,387.23,584.23,395.69ZM659,381.2c-3.08-2.11-5.89-4.54-9.11-6.15C636.77,368.46,625,367.46,617,381c5.46,1.62,10.84,4.65,16.12,4.47C641.72,385.13,650.25,382.75,659,381.2ZM426.17,394.33c-5.09-2.66-5.09-2.66-9.52-.13-7.53,4.32-11,4.13-17.69-.93-5.11-3.89-7.17-3.36-9.32,2.47-.62,1.66-1.11,3.36-1.67,5.06,2.75,1.73,5.18,3.18,7.52,4.74,2.93,1.95,5.65,1.76,9.22,1.1C413.49,405,418.34,397.73,426.17,394.33ZM686.69,383q-22.79-9.8-45.57-19.61c-5.73-2.48-7.59-2-10.75,2.32,7.08,2.17,15.43,3,21.78,7.06A65.59,65.59,0,0,0,686.69,383ZM514.29,267c6.93,2.06,15-2.07,16-6.8s2.45-9.42,4-15.1l-8.43-4.23c-.86,4.24-2.84,8.19-2.1,11.54C525.49,260.19,522.44,264.38,514.29,267Zm4.72,5.55.39,1.35c5.45-1.12,10.91-2.21,16.35-3.42a2.87,2.87,0,0,0,2-1.36c1.86-6.13,4-12.29-.26-18.76-1.52,2.41-3.16,5-3.11,7.58.1,5.68-2.56,9.1-7.34,11.32C524.38,270.46,521.67,271.46,519,272.55ZM379.33,384.28l-1.56-2.06c-2.18,1.46-5.22,2.43-6.37,4.47-2.44,4.31-3.89,9.17-5.75,13.83,8.21,1.36,9.18.37,8.56-7.21-.15-1.85,1.09-3.93,2.06-5.71A18,18,0,0,1,379.33,384.28Zm-.77,16.29c6.58.65,7.07.05,9.89-12.15l-5.21-1.37C375.47,389.8,379.71,396,378.56,400.57Zm4.56,16.05,10.56,10.07,4.14-6.8a47.2,47.2,0,0,1-5.65-4.08C388.87,412.59,386,412.19,383.12,416.62Zm196.3,10.49c-6.11-5.21-17.3-5-22.84,0Zm-203.81,8.56,2.7-14.85C372.47,422.93,371,430.62,375.61,435.67Zm392.61,5.8c4.67-1.89,4.92-5.65,0-11.05Z"/><path class="cls-1" d="M611.31,589.08c-.94-.8-1.8-1.47-2.58-2.23s-1.32-1.48-2.1-2.37c-23.84,16.52-47.61,16.67-71.57,0l-4.5,3.28c.33-5.4,3.91-9.68,8.48-10.56-2.47,4.61.78,6.37,3.75,8.36,17.6,11.79,45.29,10.21,60.41-3.47l-1.38-5.32C608.62,580.27,612.54,585.45,611.31,589.08Z"/><path class="cls-1" d="M601.46,598c-.51,1.87-.61,3.34-1.27,4.47-9.61,16.5-38.43,22.14-53.4,10.52-5.83-4.53-8.43-10.43-6.68-16,.76.8,1.63,1.33,1.91,2.08,4.17,11.42,11.39,16.84,23.42,16.88,13.41,0,24.64-4.65,32.51-16a8.42,8.42,0,0,1,1.31-1.48C599.47,598.27,599.87,598.31,601.46,598Z"/><path class="cls-1" d="M585.47,577.39a19,19,0,0,0-3.86-1.62,64.34,64.34,0,0,0-7.21-.79c-.42,0-.89.59-1.33.57-3.31-.13-6.67-.82-9.89-.41-2.93.36-5.72,1.88-9.47,3.21,3.14-5.71,7.17-7.29,12-6.22a12.92,12.92,0,0,0,7-.21C579,569.53,581.88,570.25,585.47,577.39Z"/><path class="cls-1" d="M141.2,677.49c33.65,29.84,69.63,35.53,101.72,2.32,31.72-32.84,24.8-68.55-5-101.18,17.4,9.31,33.3,39.78,26.07,71-7.55,32.61-38.55,56.38-71.73,54.69C170.3,703.22,142.69,689.19,141.2,677.49Z"/><path class="cls-1" d="M197,565.41c7.16,1.53,16.05,3.33,24.87,5.43,1.33.31,2.33,2,3.49,3.11-1.47,0-3.06.36-4.37-.09-18.13-6.18-36.3-6.62-53.76,1.52-6.69,3.12-12.13,8.93-18.16,13.48-.92.7-2,1.22-3,1.83.15-1.25-.13-2.81.51-3.69,7.78-10.59,18.87-16,31.24-18.84C183.44,566.85,189.27,566.48,197,565.41Z"/><path class="cls-1" d="M711,499.44c-.21,3.48-.51,7-.62,10.45-.09,3.1-1.29,5.12-4.57,5.4s-6.31-.82-6.65-4.42c-.59-6.08-.6-12.23-.7-18.35a33.5,33.5,0,0,1,.64-5.43c.54-3.68,2.18-6.5,6.38-6.08,4,.41,5.55,3.36,5.71,7,.18,3.81,0,7.62,0,11.43Z"/><path class="cls-1" d="M679.43,483.51c0-1.48-.45-3.14.07-4.41,3.76-9.29,10.22-15.84,20.07-18.5,1.26-.33,2.87.63,4.31,1-1.13.83-2.15,2-3.42,2.44a27.72,27.72,0,0,0-17.16,15.59c-.64,1.39-1.24,2.8-1.85,4.2Z"/><path class="cls-1" d="M512.78,494.5c.49-5.21.75-9.53,1.35-13.8.45-3.17,2-5.74,5.69-5.73A5.77,5.77,0,0,1,526,480.9a232.93,232.93,0,0,1-1,24.35c-.14,1.51-3.1,4-4.56,3.86-2.18-.2-5.36-1.9-6-3.73C513.05,501.75,513.16,497.6,512.78,494.5Z"/><path class="cls-1" d="M494.39,477c1.79-10.47,8.23-16.6,16.54-21.16A18.94,18.94,0,0,1,517,454c1-.16,2.2.71,3.31,1.11a27.69,27.69,0,0,1-2.62,2.24c-4.9,3.24-10.32,5.91-14.59,9.83-2.57,2.36-3.33,6.65-5,10a18.27,18.27,0,0,1-2,2.68Z"/><path class="cls-1" d="M694.93,292.59c-4.47,10.22-8.23,19.43-12.65,28.32-.68,1.36-4.53,2.08-6.61,1.64-6.78-1.43-13.42-3.54-20.11-5.38-.95-.26-1.91-.44-3.26-.75-2.83,6.13-5.89,12.19-8.44,18.46-1.62,4-3.43,5.5-8.08,4.34a56.87,56.87,0,0,1-20.52-10c3.62-8.37,7.14-16.54,10.41-24.09-7.87-5.66-15.41-11.08-22.93-16.51-3.24-2.33-4.13-4.81-2.14-8.84,3.71-7.52,6.7-15.39,10.08-23.31l27.64,19.39c3.49-7.94,6.55-15,9.73-22a15.47,15.47,0,0,1,3-5c1-.92,3.19-1.67,4.22-1.18,7.58,3.61,15,7.56,23.12,11.73l-12.29,27C674.92,290.33,684.37,291.52,694.93,292.59Z"/><path class="cls-1" d="M401.29,335.8l-1.68,2.8c-3.09,5.27-6.12,10.58-9.32,15.78-.56.92-1.79,1.42-2.72,2.11-.22-1.25-1-2.84-.56-3.72,3.17-5.79,6.56-11.46,10-17.08a4.58,4.58,0,0,1,2.74-1.5C400.14,334.11,400.76,335.21,401.29,335.8Z"/></svg>