<svg id="Layer_1" data-name="Layer 1" xmlns="http://www.w3.org/2000/svg" viewBox="0 0 1000 1000"><defs><style>.cls-1{fill:#fff;}.cls-2{fill:#ff7a00;}</style></defs><path class="cls-1" d="M796.76,888.75c-16.65,3.43-29.37,11.86-37,27.37-.68,1.4-3.74,2.31-5.7,2.32-21.66.1-43.35-.58-65,0-42.2,1.2-84.41,2.41-126.54,4.93-31.45,1.88-62.92,4.85-94.12,9.17-25.61,3.54-50.87,9.66-76.21,15-3.63.76-7.17,2.93-10.22,5.17-4.78,3.51-4.42,8,.67,11.18a23,23,0,0,0,7.42,3.23c11.54,2.34,23.06,5.46,34.74,6.34,28.75,2.17,57.57,3.92,86.39,4.67,56.38,1.46,112.73-.25,169-4.14,28.57-2,57.16-4.09,85.59-7.37,24.75-2.86,49.3-7.45,73.93-11.31,3.74-.59,7.31-1.49,4.38-5.49,6.07-4.19,12.24-7.56,17.26-12.19,4-3.67,6-2.51,9.3,1.11-1.43,1.25-2.68,2.32-3.9,3.41l-6.21,5.55c2.95-.72,6.23-.86,8.8-2.29,7.13-4,7-8.75.37-13.4a6.23,6.23,0,0,1-2.45-4.35c0-9.44,1.48-19,.39-28.3-2.4-20.53-5.81-41-9.27-61.34-1.22-7.23-5.93-12-13.49-13.46-6.82-1.36-13.6-2.89-20.37-4.47-1.63-.39-3.7-.86-4.58-2-3.25-4.35-7.64-4.55-12.45-4.67-2.61-.06-5.18-1.48-8.18-2.41,14.08-21.81,13.86-33.9,6-56.23-4.38-12.46-10.9-24.44-18-35.63-16.43-25.79-33.92-50.91-50.78-76.44-8-12-15.44-24.42-23.2-36.75,58.27-33.38,93.74-80.87,90-149.49S759.28,344,699,315.28c1.22-1.76,2.41-3.47,3.58-5.19,21.25-31.19,42.93-62.1,63.59-93.68,15.77-24.1,27.43-50,25.86-79.86-1.7-32.16-14.31-58.87-41.31-77.41-20.77-14.27-44.08-15.07-63,5.18-2.52,2.7-4.19,2-6.87.34C656.62,50,631,47,604.71,57.76c-33.83,13.79-56.34,38.92-69.18,72.77-12.61,33.23-20.41,67.73-26.21,102.73-.57,3.47-1.44,7.61-3.72,9.9-3.93,4-6.12,8.43-5.45,13.45.87,6.43-2,9.54-7.08,12.29-14.17,7.76-17.63,32.2-.95,41.56,3.36,1.88,3.94,4.14,3,7.64-3,11-5.77,22.09-8.72,33.11-2.05,7.65-2.66,15.24.15,22.84,5.74,15.56,17.19,23.94,33.38,25.85,4.25.5,5.94,1.38,4.8,6-1.47,6-1.94,12.24-3.46,18.21-3.2,12.62-14.07,19.44-26.89,17-9.3-1.76-18.52-4-27.82-5.75-26.78-5.08-53.71-7.73-80.75-2.36-40.25,8-67.87,32-85.41,68.47C286.65,530,277,560,268.37,590.41c-11.6,41-22.06,82.2-25.91,124.83-2.45,27.12,5.49,44.63,27.1,56,5.08,2.66,5.95,5.69,3.56,9.95-1.2,2.15-3.81,3.53-6.31,5.72-3.88-9.85-7.3-19.37-17.53-21.48-11.7-2.41-15.31,8.22-21,16.83-1.34-5.81-2.12-10.38-3.46-14.78-2.7-8.83-4.9-17.94-8.74-26.26-7-15.18-19.17-25-36.19-24.89a126.64,126.64,0,0,0-35.22,5.75c-13,3.9-21,13.9-24.92,27.06-3.16,10.69-2.19,21.16-.12,32,4.42,23.27,14.13,43.8,29.82,61.35,34.84,39,79.79,55.36,130.84,56.75,5,.13,12.16-4.53,15-9.05a297.3,297.3,0,0,0,19.87-38.55c5.13-11.73,3-16.43-7.55-24-3.33-2.39-3.31-10.06,0-12.37,7.94-5.47,8.8-9,4.12-17.06-3.11-5.34,1.5-13.5,7.5-14.35,8.95-1.26,18.19-2.12,26.6-5.12,17.21-6.15,27.81-20,33.82-36.31,7.2-19.53,12.75-39.73,17.91-59.92,6.85-26.79,12.43-53.89,19-80.75,1.4-5.74,4.7-11,7.12-16.49l2.83-.15c2.72,4.61,5.47,9.2,8.14,13.84,1.45,2.51,2.55,5.24,4.16,7.63,6.51,9.64,32.66,27.92,44,30.72a47,47,0,0,0,9.74,1.33c12.72.42,16-2.35,18.16-14.94a4.59,4.59,0,0,1,.76-1.36l13.91,3.58c1.18,8.51,6.83,14,15.23,14.37,7.59.37,15.29-1.78,23.68-2.92.22.44,1.08,2.15,2,3.86,11,21.31,21.24,43.1,33.27,63.84,24.63,42.48,54.12,81.15,93.06,111.86,20.53,16.19,43.1,24,69.38,17.92,5.5-1.26,14.25,6.86,14.05,12.5-.29,7.9,3.61,13.6,9.84,17.91.73.5,2,.17,3.08.23-.23-1.15-.16-2.53-.78-3.42a48.4,48.4,0,0,0-4.51-4.91c15.59-1.1,30-2.24,44.44-2.94,1.27-.06,3.3,2.51,3.89,4.23,1,2.91,1.12,6.11,1.62,9.19l3.14-.39c-.38-5.33-.76-10.67-1.15-16.17,4.91-3.14,4.38-11.52-1.29-24.67,1.71.94,3.63,2.19,3.93,3.75,3.64,19.34,7,38.74,10.58,58.09.25,1.37,1.58,2.55,2.41,3.82.62-1.2,1.92-2.5,1.77-3.59-1.84-13.37-3.75-26.73-6-40-1-6.11-2.74-12.1-4.14-18.14l1.4-.38a52.32,52.32,0,0,1,2.08,6.35c1.48,7.37,3.05,14.75,4.08,22.19q3.36,24.08,6.14,48.23c.28,2.41-.74,5-1.16,7.44l-1.5.59c-8.33-25.23-27.1-30.85-50.67-27.65,13.76-4.22,26.68-1.38,41,3.84.11-3,.62-5.78.05-8.35-.17-.79-4.06-1.92-4.9-1.23-5.32,4.34-9.83-.06-14.65-.66a64,64,0,0,1,6.93.17c5.83.11,7.76-2.55,5.36-5.9l-11.89,1.77,12-5.32c-1.8-1.31-2.22-1.84-2.7-1.92a10.74,10.74,0,0,0-2.25.15c-9.8.58-19.61,1.08-29.39,1.8a52.31,52.31,0,0,0-7.43,1.58l5.4,3c.86-.08.19-.2-.26.06-1.45.83-2.83,1.79-4.24,2.71,1.6.57,3.17,1.48,4.81,1.63,2,.19,4-.26,6.61-.49C804.08,883.74,795.67,880,796.76,888.75Zm-521-806c1.92,13.75,3.69,26.39,5.57,39.85-8.29-1.52-14.7-.21-19.56,5.52-3.76,4.42-4.54,9.51-1.85,14.57,2.81,5.27,7.85,6.64,13.44,5.72,7.84-1.27,12.45-7.22,12.3-17.14a208.9,208.9,0,0,0-2.18-23.65c-1.3-10-2.87-19.9-4.55-29.81-.69-4-2.83-7.23-7.59-5.56-14,4.95-28.07,9.95-41.88,15.49-2.1.85-4.37,4.83-4.18,7.16.7,8.62,2.36,17.17,3.74,25.73.51,3.18,1.24,6.33,1.92,9.76-8.77,1.13-14,5.65-16.09,13.55C213.19,150,216,155,222,157.21c5.58,2,11.65.1,13.28-5.71a41.52,41.52,0,0,0,1.13-16.89c-1.46-9.9-4.42-19.56-6.25-29.42-.35-1.86,1.17-5.43,2.7-6C246.66,93.56,260.62,88.45,275.72,82.76ZM164.46,250.3c0,3.31.14,5.55,0,7.78-.92,12.72-2.59,25.43-2.7,38.15-.13,16.92,14.69,28.53,28.71,23.41,8.26-3,14.77-11.84,14.27-19.33-.54-8.1-6.67-15.4-14.34-17.07-8.19-1.79-16.35,2.42-21.08,10.86-.71,1.27-1.48,2.5-2.22,3.75A13.26,13.26,0,0,1,166,291c1.2-17.16,2.51-34.32,3.65-51.49.11-1.74-.68-3.54-1.05-5.31-1.53.87-3.5,1.39-4.51,2.67-4.92,6.23-11.33,9.07-19.13,9.33a66.25,66.25,0,0,0-8.65.91c-7.35,1.22-13.78,10-12.23,17.15.35,1.58,2.71,2.72,4.14,4.06.61-1,1.73-2,1.74-3.05.11-9.09,2.76-11.51,11.56-9.82C149.5,257,156.91,256.14,164.46,250.3Zm97.6,7.62v2.52a60.76,60.76,0,0,0,6.83.78c21.27.08,42.54,0,63.82.12,30.17.11,60.34.35,90.51.37,1.92,0,3.84-1.45,5.76-2.22-1.9-.71-3.8-2-5.71-2-7.35-.06-14.69.51-22,.47q-66.14-.35-132.29-.81A56,56,0,0,0,262.06,257.92Zm16.26,68.92c.08.86.17,1.71.25,2.57,2.28,0,4.62.36,6.82-.05,26.74-5.07,53.49-10.11,80.18-15.44,20.64-4.13,41.2-8.61,61.77-13.07,1.79-.39,3.35-1.79,5-2.72l-.84-1.77Zm89.21,28.94.73,2.19a32.44,32.44,0,0,0,5.16-.8c3.5-1.11,7-2.37,10.37-3.74,22.07-8.86,44.15-17.72,66.15-26.75,1.58-.65,2.58-2.7,3.84-4.09-1.52-.06-3.25-.61-4.55-.1q-38.58,15.24-77.07,30.73A43.69,43.69,0,0,0,367.53,355.78Zm440.36,513.6v.38c4.23-.27,8.48-.36,12.69-.84,4.49-.51,6-3.07,3.31-6.57a10.15,10.15,0,0,0-7.06-3.74,128.32,128.32,0,0,0-20.12,1.92c-1.89.31-3.41,2.8-5.1,4.3,1.76,1.52,3.34,3.95,5.33,4.35C800.46,869.9,804.23,869.38,807.89,869.38Z"/><path class="cls-2" d="M796.76,888.75c-1.09-8.71,7.32-5,11-8.89-2.6.23-4.64.68-6.61.49-1.64-.15-3.21-1.06-4.81-1.63,1.41-.92,2.79-1.88,4.24-2.71.45-.26,1.12-.14.26-.06l-5.4-3a52.31,52.31,0,0,1,7.43-1.58c9.78-.72,19.59-1.22,29.39-1.8a10.74,10.74,0,0,1,2.25-.15c.48.08.9.61,2.7,1.92l-12,5.32,11.89-1.77c2.4,3.35.47,6-5.36,5.9a64,64,0,0,0-6.93-.17c4.82.6,9.33,5,14.65.66.84-.69,4.73.44,4.9,1.23.57,2.57.06,5.37-.05,8.35-14.3-5.22-27.22-8.06-41-3.84,23.57-3.2,42.34,2.42,50.67,27.65l1.5-.59c.42-2.48,1.44-5,1.16-7.44q-2.8-24.15-6.14-48.23c-1-7.44-2.6-14.82-4.08-22.19a52.32,52.32,0,0,0-2.08-6.35l-1.4.38c1.4,6,3.12,12,4.14,18.14,2.21,13.31,4.12,26.67,6,40,.15,1.09-1.15,2.39-1.77,3.59-.83-1.27-2.16-2.45-2.41-3.82-3.58-19.35-6.94-38.75-10.58-58.09-.3-1.56-2.22-2.81-3.93-3.75,5.67,13.15,6.2,21.53,1.29,24.67.39,5.5.77,10.84,1.15,16.17l-3.14.39c-.5-3.08-.62-6.28-1.62-9.19-.59-1.72-2.62-4.29-3.89-4.23-14.44.7-28.85,1.84-44.44,2.94a48.4,48.4,0,0,1,4.51,4.91c.62.89.55,2.27.78,3.42-1-.06-2.35.27-3.08-.23-6.23-4.31-10.13-10-9.84-17.91.2-5.64-8.55-13.76-14.05-12.5-26.28,6.06-48.85-1.73-69.38-17.92C653.7,786.16,624.21,747.49,599.58,705c-12-20.74-22.24-42.53-33.27-63.84-.88-1.71-1.74-3.42-2-3.86-8.39,1.14-16.09,3.29-23.68,2.92-8.4-.4-14-5.86-15.23-14.37l-13.91-3.58a4.59,4.59,0,0,0-.76,1.36c-2.18,12.59-5.44,15.36-18.16,14.94a47,47,0,0,1-9.74-1.33c-11.34-2.8-37.49-21.08-44-30.72-1.61-2.39-2.71-5.12-4.16-7.63-2.67-4.64-5.42-9.23-8.14-13.84l-2.83.15c-2.42,5.48-5.72,10.75-7.12,16.49-6.57,26.86-12.15,54-19,80.75-5.16,20.19-10.71,40.39-17.91,59.92-6,16.29-16.61,30.16-33.82,36.31-8.41,3-17.65,3.86-26.6,5.12-6,.85-10.61,9-7.5,14.35,4.68,8,3.82,11.59-4.12,17.06-3.34,2.31-3.36,10,0,12.37,10.59,7.61,12.68,12.31,7.55,24a297.3,297.3,0,0,1-19.87,38.55c-2.83,4.52-9.95,9.18-15,9.05-51-1.39-96-17.79-130.84-56.75-15.69-17.55-25.4-38.08-29.82-61.35-2.07-10.85-3-21.32.12-32,3.88-13.16,11.94-23.16,24.92-27.06a126.64,126.64,0,0,1,35.22-5.75c17-.1,29.18,9.71,36.19,24.89,3.84,8.32,6,17.43,8.74,26.26,1.34,4.4,2.12,9,3.46,14.78,5.65-8.61,9.26-19.24,21-16.83,10.23,2.11,13.65,11.63,17.53,21.48,2.5-2.19,5.11-3.57,6.31-5.72,2.39-4.26,1.52-7.29-3.56-9.95-21.61-11.34-29.55-28.85-27.1-56,3.85-42.63,14.31-83.85,25.91-124.83,8.6-30.38,18.28-60.39,32-88.93C317.92,465,345.54,441,385.79,433c27-5.37,54-2.72,80.75,2.36,9.3,1.76,18.52,4,27.82,5.75,12.82,2.42,23.69-4.4,26.89-17,1.52-6,2-12.21,3.46-18.21,1.14-4.61-.55-5.49-4.8-6-16.19-1.91-27.64-10.29-33.38-25.85-2.81-7.6-2.2-15.19-.15-22.84,2.95-11,5.7-22.1,8.72-33.11,1-3.5.38-5.76-3-7.64-16.68-9.36-13.22-33.8.95-41.56,5.05-2.75,7.95-5.86,7.08-12.29-.67-5,1.52-9.5,5.45-13.45,2.28-2.29,3.15-6.43,3.72-9.9,5.8-35,13.6-69.5,26.21-102.73,12.84-33.85,35.35-59,69.18-72.77C631,47,656.62,50,680.83,64.66c2.68,1.62,4.35,2.36,6.87-.34,18.89-20.25,42.2-19.45,63-5.18,27,18.54,39.61,45.25,41.31,77.41,1.57,29.84-10.09,55.76-25.86,79.86-20.66,31.58-42.34,62.49-63.59,93.68-1.17,1.72-2.36,3.43-3.58,5.19C759.28,344,799.62,387.92,803.36,456.43s-31.72,116.11-90,149.49c7.76,12.33,15.24,24.7,23.2,36.75,16.86,25.53,34.35,50.65,50.78,76.44,7.13,11.19,13.65,23.17,18,35.63,7.82,22.33,8,34.42-6,56.23,3,.93,5.57,2.35,8.18,2.41,4.81.12,9.2.32,12.45,4.67.88,1.17,2.95,1.64,4.58,2,6.77,1.58,13.55,3.11,20.37,4.47,7.56,1.5,12.27,6.23,13.49,13.46,3.46,20.39,6.87,40.81,9.27,61.34,1.09,9.28-.37,18.86-.39,28.3a6.23,6.23,0,0,0,2.45,4.35c6.66,4.65,6.76,9.42-.37,13.4-2.57,1.43-5.85,1.57-8.8,2.29l6.21-5.55c1.22-1.09,2.47-2.16,3.9-3.41-3.25-3.62-5.33-4.78-9.3-1.11-5,4.63-11.19,8-17.26,12.19,2.93,4-.64,4.9-4.38,5.49-24.63,3.86-49.18,8.45-73.93,11.31-28.43,3.28-57,5.39-85.59,7.37-56.25,3.89-112.6,5.6-169,4.14-28.82-.75-57.64-2.5-86.39-4.67-11.68-.88-23.2-4-34.74-6.34a23,23,0,0,1-7.42-3.23c-5.09-3.21-5.45-7.67-.67-11.18,3.05-2.24,6.59-4.41,10.22-5.17,25.34-5.3,50.6-11.42,76.21-15,31.2-4.32,62.67-7.29,94.12-9.17,42.13-2.52,84.34-3.73,126.54-4.93,21.64-.61,43.33.07,65,0,2,0,5-.92,5.7-2.32C767.39,900.61,780.11,892.18,796.76,888.75Zm-411-238.39c3.89-21.29,7.9-42.15,11.48-63.1,2.42-14.18,7.24-26.82,18.92-36.13,1.79-1.42,2.88-4,3.71-6.32,8.36-23,35.54-38.74,56.2-38.44,23.39.34,45.17,6,64.9,18.86,2.45,1.6,4.58,3.54,8.34,1.62,10.92-5.58,20.56-3,26.86,7.67a115.8,115.8,0,0,1,9.71,21.64c1.34,3.94,3.07,5.93,7,6.28,16,1.42,31.89,3.47,47.88,4,8.62.28,17.33-2,26.81-3.28-5.37-9.2-10-17-14.49-24.86-6.08-10.77-11.87-21.7-18-32.44-5.94-10.39-14.62-17.35-26.46-20.19a40.32,40.32,0,0,1-8.7-3.18c-7.94-4.05-8.85-10.84-2-16.59,3.52-3,7.78-5,11.6-7.65,7.44-5.11,7.3-10.21-.22-15.16-8.87-5.84-15.95-12.93-16.74-24.37-.48-6.94-1.49-13.86-1.62-20.8-.28-15.41,4.41-21.32,19.25-25.11,21.91-5.58,38.35-18.32,50.08-37.75-1.27-1.05-2.31-1.89-3.33-2.75-7.47-6.33-7.91-15.65.07-21.2,4.09-2.85,9.86-3.74,15-4.44,3-.39,4.82-.7,5.19-3.8,1.17-9.91,7-17.46,12.83-24.94,13-16.52,22.88-34.44,26.43-55.5,1.59-9.43,6.44-17.36,13.32-24,5.29-5.11,10.82-10,16-15.23,19.5-19.85,29.1-43.62,27-71.52-1.42-19.11-8.23-35.53-24.81-47-24.91-17.32-43.15-15.09-62.48,8.42-7.37,9-14.84,17.87-22,27-16.63,21.37-33.76,42.4-49.34,64.51-8.05,11.45-13.14,25-19.76,37.45-1.5,2.84-3.78,5.27-5.7,7.89l-2-1.06c1.83-5.61,3.24-11.4,5.57-16.79,10.45-24.11,24.27-46.19,39.89-67.3a436.71,436.71,0,0,0,25.61-38.65c2.94-5,3.65-11.74,4-17.76.34-5.66-2.86-9.47-9.14-10.78a77.54,77.54,0,0,0-48.29,4.83c-31.26,13.75-53.2,36.9-64.31,68.91-8.6,24.78-14.89,50.39-21.55,75.81-3,11.3-4.34,23-6.4,34.43,12.13,4.55,18.36,13.58,14,20.17a15.19,15.19,0,0,1-2.11-2.59c-1.19-2.42-1.8-5.22-3.36-7.35-2.73-3.72-6.36-6.47-11.4-4.9-4.74,1.47-4.89,5.67-4.66,9.55.3,5,1.19,9.94,1.7,14.93a56.59,56.59,0,0,1,0,5.68l-1.71.44-4.1-8.81c-3.5,3-6.85,5.6-9.85,8.55a16.44,16.44,0,0,0,2.47,25.27A28.77,28.77,0,0,0,503.78,307c20.11,3.18,26.5-1.59,30.52-15.4,1.17-4,0-8.7.12-13.07a19.46,19.46,0,0,1,.89-4c1,.91,2.73,1.73,2.85,2.75.74,6,1.09,12.11,1.61,18.54a50.34,50.34,0,0,1,5.66,3.25c.63.46.48,2,.68,3-.85.17-2.06.78-2.51.43-5.65-4.37-7.25-.72-9.24,4a14.2,14.2,0,0,1-12,8.91,97.6,97.6,0,0,1-11.55.88c-10.71-.14-10.94-.3-13.31,10.19s-5.43,21.1-6,31.78c-.87,15.47,10.3,25.51,25.73,24.31,6.29-.49,12.49-2.48,18.68-4,5.5-1.32,8.21.29,8.74,5.89a13.29,13.29,0,0,1-7.74,13.81c-3.75,1.86-4.51,4.58-5.28,8.11-1.52,6.95-2.9,14.05-5.5,20.63-5.63,14.29-21.79,21.85-36.16,18-29.13-7.85-58.67-12.55-88.93-9.92-25.16,2.18-47.74,10.84-67,27.65-18.23,15.9-29,36.58-37.7,58.49-22,55.61-37.11,113.16-47.27,172.06a91.2,91.2,0,0,0,3.14,44.08c4.36,13.59,17.27,17.41,27.93,8.48,4.74-4,8.11-3.11,10.27,3.37,3.4,10.17,10.51,16.36,20,20.55,8.44,3.72,16.24,3.45,24.2-1.73,14.57-9.51,21.71-24.1,28.94-39.61-11.2-3.1-14.1-12-16.5-21.14-3.71-14.07-2-27.61,4.52-40.62C359.44,650.74,368.08,646.46,385.78,650.36Zm225.9,66.09c.61,1.24.87,2,1.28,2.59,16.79,25.36,33.92,50.34,57.73,70,16.49,13.65,34.89,23.56,54.57,31.44,3.41,1.36,7.12,2.55,9.6-2,3.95-7.16,10.35-8.55,17.88-7.65,5.75.69,11.57,1.48,17.33,1.29,8.9-.3,10.86-3,8-11.33-2.6-7.67-6.43-14.91-9.35-22.49a51.63,51.63,0,0,1-3.59-13.3c-.58-6,3.93-8.51,9-5,3.46,2.38,6.1,5.91,9.42,8.55,1.79,1.42,4.23,2,6.37,3,.63-2.31,1.4-4.59,1.83-6.93a8.73,8.73,0,0,0-.48-3.42c-3.08-12.95-8.22-24.93-16.53-35.48a180.06,180.06,0,0,1-12.09-16.32C748.61,687,735,664.24,721,641.72c-6-9.76-12.59-19.21-19.66-30C687.31,661.38,654.45,692.9,611.68,716.45ZM684.42,558c5.45-2.48,10.45-4.54,15.27-7,45-22.78,66.28-69.34,52.89-117.87-10.63-38.52-35.35-66.4-69-87-3.31-2-4.48-.32-6.47,1.95-10.2,11.59-19.88,23.79-31.27,34.09-6.6,5.95-15.7,10.2-24.39,12.47-8,2.09-13.06,5.06-14.73,13.06-.68,3.21-1.13,6.47-1.61,9.72-1,6.59,1.69,10.83,7.7,14,6.27,3.3,12.54,7,17.76,11.77,11.75,10.6,16.3,25.27,19.35,40.09,3.32,16.17,9.76,30.92,17.25,45.39,1.7,3.29,3.38,6.31,7.23,4.38-.17,2.51-1.24,5.33-.33,7.16C677,546.07,680.62,551.57,684.42,558Zm-98.59,47.26c1.09.33,2.89,1,4.74,1.4,42.21,9,82.76,4.57,121.22-15.41,84.46-43.86,105.42-146.86,44.85-219.83-21.89-26.38-51.09-42.21-81.49-56.23a17.1,17.1,0,0,0-9.07-1c-7.41,1.08-10.14,8.67-5.26,14.37a23.11,23.11,0,0,0,6.32,4.94c5.75,3.18,11.75,5.89,17.51,9.06,32.11,17.69,55.09,43.7,68.27,77.76,18.79,48.58,4.21,96.88-37.71,126.36-25.3,17.79-54.12,24.62-84.6,24.17-13.84-.2-27.64-2.41-40.84-3.65C588.51,579.28,587.2,592,585.83,605.22Zm-81.35-2.64c5.73,3.16,10.84,6.76,16.5,8.95,16.22,6.31,32-1.68,37.19-18.28,7.23-23.18,0-49.7-19.68-64.15-25.27-18.56-53.88-23.47-83.66-13.14-18.35,6.36-29.69,20.38-33.47,39.91-1.79,9.24,2.24,25.24,11.28,29.74.34-1.13.72-2.21,1-3.32,4.8-19.55,17.95-30.94,36.41-37,1.94-.64,4.26-.09,6.4-.09l.18,2a16.43,16.43,0,0,1-3.24,1.69c-19,5.17-31.52,16.42-35.59,36.31C435.65,595.64,443.2,609.92,454,614c-2.88-11.06.35-20.33,7.2-28.78,10.23-12.63,18.87-19.12,24.38-16.86-1.69,1.42-3.15,2.48-4.42,3.75-6.41,6.38-13.27,12.41-19,19.35-6.34,7.68-7.35,16.93-2.05,25.51,5.93,9.62,14.92,15.47,26.61,14.38,3.63-.33,8.48-3.18,10-6.24,1.33-2.74-.25-8-2.27-11-2.36-3.51-6.67-5.66-10-8.61a85.18,85.18,0,0,1-8.84-8.88c-.75-.89,0-3,.07-4.6a24.09,24.09,0,0,1,3.57,2.52c1.33,1.35,2.18,3.19,3.57,4.45,5,4.49,10.52,4.24,16.18,1.52,4.9-2.36,9-10.57,8.59-16.78-.14-1.82-.42-3.62-.71-6.08C512.77,582.14,511.81,591.33,504.48,602.58ZM382,959.14c5.06,2,9.15,4.56,13.5,5.12,23.18,3,46.37,6.52,69.67,8,66.59,4.3,133.23,2.37,199.76-1.5,37.65-2.19,75.2-6.24,112.77-9.73,10.77-1,21.45-3,32.17-4.48-3-1-5.9-.47-8.76-.44-10.78.09-21.64.87-32.31-.21-10.33-1-10.69-2-11.64-12.39-.6-6.62-.11-13.34-.11-20.43H745.2c4,5.7.64,8.84-4.15,10.55a167.77,167.77,0,0,1-21.64,6.42c-44.63,9.33-90,13.17-135.34,16.42-50,3.59-100.16,5.79-150.33,3.44a268.28,268.28,0,0,1-39.57-5.3C389.18,953.64,386.17,954.15,382,959.14ZM231.62,825.62l1.63-2c1.22.78,2.82,1.28,3.61,2.37,15.14,21.15,36.15,34.66,59.19,45.5,1.72.81,3.79.88,5.7,1.29.41-.72.82-1.44,1.24-2.16-42.3-18.65-74.29-46-79.81-94.19-6.75,6.25-13,11.87-18.94,17.7a5.15,5.15,0,0,0-.92,4.08c5.27,26.07,15.49,49.73,36.54,66.92,11.49,9.37,24.34,17.12,36.77,25.29,8.1,5.32,12.63,3.46,16.11-4.91-14.38-9.78-28.75-19.12-42.61-29.17-6-4.39-11.14-10.15-16.49-15.46-.84-.84-.76-2.61-1.11-4a35.31,35.31,0,0,1,4.2,1.32c.65.28,1.07,1.09,1.61,1.65a190.46,190.46,0,0,0,52.43,38c2,1,4.43,1.11,6.67,1.64-12.06-8.7-24.63-15.53-36.37-23.57A105.61,105.61,0,0,1,231.62,825.62Zm27.43-5.77-1.26-1.41a8.66,8.66,0,0,1,.62-2.08c7.75-12.74,6.19-25.55-.25-38.05a21.62,21.62,0,0,0-8-8c-1.95-1.17-5.19-.22-8.2-.22,5.84,4.95,10.93,8.7,15.32,13.16,3.1,3.15,2.14,11.33-1.34,13.82-4.51,3.24-5.73-2-8.22-3.81-4.3-3.08-8.46-6.35-12.68-9.55l-.86,1.29c14,19.74,15.83,27,9.09,35.89a141.85,141.85,0,0,0,61.81,45.39c2.47-6.39,4.92-12.43,7.13-18.57,2.47-6.88.69-11.5-5.77-15.75-6.64-4.38-9-4.2-15.32,1.17-5.71,4.84-10.81,5.37-15.88-.14-4.48-4.86-7.48-11.09-11-16.56Zm321.19-159.6c26.82-5.43,49.53-17.9,70.4-35.12-12.21,0-23.64.66-35-.19-11.51-.86-22.89-3.32-34.37-4.83a7.28,7.28,0,0,0-5.36,1.53,59.07,59.07,0,0,0-7.21,9.05,5,5,0,0,0-.55,4.07C572,643.19,576.07,651.51,580.24,660.25ZM147,793.28c3.23,2.21,5.54,3.61,7.65,5.27,10.88,8.6,22.23,5.65,25.3-7.78,1.74-7.6,1.38-16.17-.11-23.91-2-10.58-7.35-20-16.78-26.19-6.59-4.35-13.48-4.15-18.05.68-5.65,6-6.61,13.43-6.76,22.47,5.76-4.3,10.86-6.29,16.32-2.44s6.45,9.77,5.89,16C159.84,784.59,155.74,789.32,147,793.28ZM583.41,571.77c-1.15-5-2.14-14.2-5.55-22.43-2.75-6.65-8-12.51-13-17.82-1.5-1.58-6.79-1.14-9.31.25-3.58,2-1.76,5.49-.08,8.6,10.16,18.74,12.54,38.22,5.34,58.62-.57,1.6-.07,4.83,1.05,5.52,2.2,1.39,5.44,2.51,7.78,1.91s4.89-3.08,6.52-5.32C581.52,593.61,582.92,584.85,583.41,571.77ZM270.74,806.82c1.2,7.07,1.53,12.5,3.13,17.53,2.56,8.08,9.31,9.63,16,4.26,1.06-.85,2.1-2,3.32-2.28,6.05-1.42,5-6.1,4.48-10.12-.2-1.7-2.05-3.19-4-6,3.05,0,5.23.64,6.61-.14,2.25-1.29,4-3.49,5.94-5.3-2.06-1.24-4-2.81-6.2-3.67-5.47-2.13-11.17-3.69-16.56-6-3-1.26-5.35-4-8.35-5.11-1.58-.59-4.92.22-5.76,1.5-3.57,5.48.65,12.46,7.13,12.87a28.68,28.68,0,0,1,8.23,2.11c.82.31,1.08,2.05,1.6,3.14-1.18.15-2.44.62-3.54.38C279.29,809.27,275.86,808.22,270.74,806.82Zm547.37,87.63-1.22,1.16,3,40.72c.05.58-.12,1.37.19,1.69,1,1.08,2.19,2.77,3.39,2.85,17.73,1.13,22.07-4.83,15.17-21A44.79,44.79,0,0,0,832,908.44C827.78,903.43,822.78,899.08,818.11,894.45Zm-11.94-1.53c-17.87,4.76-34.56,29.12-32.38,46.68.14,1.11,1.26,3,2,3,6.4.23,12.8.14,19.52.14C789.79,923.92,793.52,907.61,806.17,892.92Zm6,1.87c-13.15,9.56-19.28,33.68-12.53,45.92A4.79,4.79,0,0,0,803,943c4.32-.08,8.64-.66,13.25-1.07C814.87,925.92,813.54,910.86,812.13,894.79Zm-20.88.75c-20,4.16-30.53,23.06-30.74,37.46-.08,5.7,1.56,8.26,8,7.38C770,923.16,774.84,907.36,791.25,895.54Zm11.83-43.68L828,849.35l-12.07-13.09c-.93.86-1.57,1.56-2.32,2.13-1.67,1.25-3.38,2.44-5.07,3.65.33-2,.61-4.08,1-6.09.47-2.25,1.07-4.46,1.62-6.69l-1.54-.75-19.08,19.76c3.68,3.8,5.48,3.46,11.45-2.41,1.13-1.12,3-1.46,4.57-2.16-.47,1.64-.89,3.3-1.45,4.9A23.45,23.45,0,0,1,803.08,851.86ZM858.62,934c5.1-5.18,5.58-11.2,5.69-17.1.49-26.71-5.72-52.58-10.25-78.65-.31-1.79-1.66-3.4-2.53-5.1,1.24,13.78,4,27,5.78,40.29,1.66,12.21,2.61,24.54,3.21,36.85.13,2.77-2.53,5.67-3.91,8.5l-1.36-.43C856.33,923.38,857.4,928.37,858.62,934ZM773,834.17c12,12.9,20,11.23,28.92-5.66C794.06,822.11,783.83,824.05,773,834.17ZM195.81,860.45c24.13,18.17,30.08,22.61,36.77,19.49-5.48-5.25-11.19-10.32-16.42-15.85C208.35,855.82,207.32,855.46,195.81,860.45Zm651,72.95,2.4.52c1-3.13,3.46-6.58,2.82-9.32a79.3,79.3,0,0,0-7-18.78c-3.67-7-11.71-11-19.29-10.72C838.47,905,844.18,918.38,846.78,933.4ZM278.08,775.93c0,4.37-1.31,8.84.26,10.4,3.73,3.7,8.66,6.38,13.46,8.74,2.21,1.1,5.27.5,7.94.66-.49-3.64-.51-7.45-1.69-10.86-.53-1.56-3.23-2.61-5.15-3.41C288.66,779.68,284.29,778.22,278.08,775.93Zm-102-48.4c17.64,15.8,25.26,36.76,30.33,59.23,8.83-6.36,14.22-16.63,12.1-21.86-2.23,3.25-4.36,6.7-6.87,9.84a6.26,6.26,0,0,1-4.21,2.18c-.72,0-1.76-2.22-2.19-3.58-1.63-5.14-2.65-10.5-4.65-15.48C195.59,745.29,188.33,734.35,176.11,727.53Zm29.23,28.91c1.71-3.66,3.1-6.19,4.1-8.87,2.13-5.72,1.14-12.25-2.62-12.77-3.59-.49-7.55,1.72-11.75,2.86ZM183,726l9.55,8.94,4.77-2.72,4.4-2.43C194.8,722.6,192,722,183,726Zm31.24,23.23c-2.31,6.6-10.73,11.92-4.26,20.89C214.38,763.34,217.73,757,214.26,749.25Zm619.55,91.37c-1.25-9.79-4.91-13.83-12.35-14.24C821.38,830.47,824.65,834.3,833.81,840.62Zm-593.49-24c3.71-7.7,1.24-14-3.35-20.85Z"/><path class="cls-2" d="M275.72,82.76c-15.1,5.69-29.06,10.8-42.83,16.38-1.53.62-3,4.19-2.7,6,1.83,9.86,4.79,19.52,6.25,29.42a41.52,41.52,0,0,1-1.13,16.89c-1.63,5.81-7.7,7.76-13.28,5.71C216,155,213.19,150,214.81,144c2.11-7.9,7.32-12.42,16.09-13.55-.68-3.43-1.41-6.58-1.92-9.76-1.38-8.56-3-17.11-3.74-25.73-.19-2.33,2.08-6.31,4.18-7.16,13.81-5.54,27.84-10.54,41.88-15.49,4.76-1.67,6.9,1.54,7.59,5.56,1.68,9.91,3.25,19.84,4.55,29.81a208.9,208.9,0,0,1,2.18,23.65c.15,9.92-4.46,15.87-12.3,17.14-5.59.92-10.63-.45-13.44-5.72-2.69-5.06-1.91-10.15,1.85-14.57,4.86-5.73,11.27-7,19.56-5.52C279.41,109.15,277.64,96.51,275.72,82.76Z"/><path class="cls-2" d="M164.46,250.3c-7.55,5.84-15,6.7-22.94,5.16-8.8-1.69-11.45.73-11.56,9.82,0,1-1.13,2-1.74,3.05-1.43-1.34-3.79-2.48-4.14-4.06-1.55-7.16,4.88-15.93,12.23-17.15a66.25,66.25,0,0,1,8.65-.91c7.8-.26,14.21-3.1,19.13-9.33,1-1.28,3-1.8,4.51-2.67.37,1.77,1.16,3.57,1.05,5.31-1.14,17.17-2.45,34.33-3.65,51.49a13.26,13.26,0,0,0,1.08,6.84c.74-1.25,1.51-2.48,2.22-3.75,4.73-8.44,12.89-12.65,21.08-10.86,7.67,1.67,13.8,9,14.34,17.07.5,7.49-6,16.32-14.27,19.33-14,5.12-28.84-6.49-28.71-23.41.11-12.72,1.78-25.43,2.7-38.15C164.6,255.85,164.46,253.61,164.46,250.3Zm28.14,53.23-15,5.61-.56,1.3c2.44.7,5,2.23,7.29,1.9C188.14,311.81,191.62,309.92,192.6,303.53Z"/><path class="cls-2" d="M262.06,257.92a56,56,0,0,1,6.89-.8q66.15.36,132.29.81c7.35,0,14.69-.53,22-.47,1.91,0,3.81,1.32,5.71,2-1.92.77-3.84,2.22-5.76,2.22-30.17,0-60.34-.26-90.51-.37-21.28-.09-42.55,0-63.82-.12a60.76,60.76,0,0,1-6.83-.78Z"/><path class="cls-2" d="M278.32,326.84l153.2-30.48.84,1.77c-1.67.93-3.23,2.33-5,2.72-20.57,4.46-41.13,8.94-61.77,13.07-26.69,5.33-53.44,10.37-80.18,15.44-2.2.41-4.54.05-6.82.05C278.49,328.55,278.4,327.7,278.32,326.84Z"/><path class="cls-2" d="M367.53,355.78a43.69,43.69,0,0,1,4.63-2.56q38.5-15.44,77.07-30.73c1.3-.51,3,0,4.55.1-1.26,1.39-2.26,3.44-3.84,4.09-22,9-44.08,17.89-66.15,26.75-3.41,1.37-6.87,2.63-10.37,3.74a32.44,32.44,0,0,1-5.16.8Z"/><path class="cls-2" d="M807.89,869.38c-3.66,0-7.43.52-10.94-.2-2-.4-3.57-2.83-5.33-4.35,1.69-1.5,3.21-4,5.1-4.3a128.32,128.32,0,0,1,20.12-1.92,10.15,10.15,0,0,1,7.06,3.74c2.66,3.5,1.18,6.06-3.31,6.57-4.21.48-8.46.57-12.69.84Z"/><path class="cls-1" d="M385.78,650.36c-17.7-3.9-26.34.38-34.29,16.34-6.48,13-8.23,26.55-4.52,40.62,2.4,9.12,5.3,18,16.5,21.14-7.23,15.51-14.37,30.1-28.94,39.61-8,5.18-15.76,5.45-24.2,1.73-9.46-4.19-16.57-10.38-20-20.55-2.16-6.48-5.53-7.34-10.27-3.37-10.66,8.93-23.57,5.11-27.93-8.48A91.2,91.2,0,0,1,249,693.32c10.16-58.9,25.24-116.45,47.27-172.06,8.69-21.91,19.47-42.59,37.7-58.49,19.25-16.81,41.83-25.47,67-27.65,30.26-2.63,59.8,2.07,88.93,9.92,14.37,3.87,30.53-3.69,36.16-18,2.6-6.58,4-13.68,5.5-20.63.77-3.53,1.53-6.25,5.28-8.11a13.29,13.29,0,0,0,7.74-13.81c-.53-5.6-3.24-7.21-8.74-5.89-6.19,1.48-12.39,3.47-18.68,4-15.43,1.2-26.6-8.84-25.73-24.31.6-10.68,3.65-21.26,6-31.78s2.6-10.33,13.31-10.19a97.6,97.6,0,0,0,11.55-.88,14.2,14.2,0,0,0,12-8.91c2-4.71,3.59-8.36,9.24-4,.45.35,1.66-.26,2.51-.43-.2-1-.05-2.56-.68-3a50.34,50.34,0,0,0-5.66-3.25c-.52-6.43-.87-12.51-1.61-18.54-.12-1-1.86-1.84-2.85-2.75a19.46,19.46,0,0,0-.89,4c-.09,4.37,1.05,9.05-.12,13.07-4,13.81-10.41,18.58-30.52,15.4a28.77,28.77,0,0,1-10.63-4.44,16.44,16.44,0,0,1-2.47-25.27c3-2.95,6.35-5.53,9.85-8.55l4.1,8.81,1.71-.44a56.59,56.59,0,0,0,0-5.68c-.51-5-1.4-9.94-1.7-14.93-.23-3.88-.08-8.08,4.66-9.55,5-1.57,8.67,1.18,11.4,4.9,1.56,2.13,2.17,4.93,3.36,7.35a15.19,15.19,0,0,0,2.11,2.59c4.36-6.59-1.87-15.62-14-20.17,2.06-11.4,3.43-23.13,6.4-34.43,6.66-25.42,13-51,21.55-75.81,11.11-32,33-55.16,64.31-68.91a77.54,77.54,0,0,1,48.29-4.83c6.28,1.31,9.48,5.12,9.14,10.78-.36,6-1.07,12.74-4,17.76a436.71,436.71,0,0,1-25.61,38.65c-15.62,21.11-29.44,43.19-39.89,67.3-2.33,5.39-3.74,11.18-5.57,16.79l2,1.06c1.92-2.62,4.2-5.05,5.7-7.89,6.62-12.48,11.71-26,19.76-37.45,15.58-22.11,32.71-43.14,49.34-64.51,7.13-9.16,14.6-18.06,22-27,19.33-23.51,37.57-25.74,62.48-8.42,16.58,11.52,23.39,27.94,24.81,47.05,2.07,27.9-7.53,51.67-27,71.52-5.16,5.25-10.69,10.12-16,15.23-6.88,6.63-11.73,14.56-13.32,24-3.55,21.06-13.45,39-26.43,55.5-5.87,7.48-11.66,15-12.83,24.94-.37,3.1-2.24,3.41-5.19,3.8-5.16.7-10.93,1.59-15,4.44-8,5.55-7.54,14.87-.07,21.2,1,.86,2.06,1.7,3.33,2.75-11.73,19.43-28.17,32.17-50.08,37.75-14.84,3.79-19.53,9.7-19.25,25.11.13,6.94,1.14,13.86,1.62,20.8.79,11.44,7.87,18.53,16.74,24.37,7.52,5,7.66,10.05.22,15.16-3.82,2.62-8.08,4.69-11.6,7.65-6.84,5.75-5.93,12.54,2,16.59a40.32,40.32,0,0,0,8.7,3.18c11.84,2.84,20.52,9.8,26.46,20.19,6.14,10.74,11.93,21.67,18,32.44,4.45,7.89,9.12,15.66,14.49,24.86-9.48,1.25-18.19,3.56-26.81,3.28-16-.53-31.92-2.58-47.88-4-3.92-.35-5.65-2.34-7-6.28a115.8,115.8,0,0,0-9.71-21.64c-6.3-10.63-15.94-13.25-26.86-7.67-3.76,1.92-5.89,0-8.34-1.62-19.73-12.87-41.51-18.52-64.9-18.86-20.66-.3-47.84,15.41-56.2,38.44-.83,2.28-1.92,4.9-3.71,6.32-11.68,9.31-16.5,22-18.92,36.13C393.68,608.21,389.67,629.07,385.78,650.36ZM605.33,214.88l1.87-.13c2.11-5.35,4.07-10.78,6.38-16,4.24-9.69,9.43-18.7,18.88-24.39,4.09-2.46,8.45-4.66,13.1-2.18,4.88,2.61,5.43,7.93,4.34,12.31-2.59,10.42-6.19,20.59-9.38,30.86-.71,2.28-4.06,4.76.05,6.76,3.89,1.89,5.2-1.34,6.26-4,3.2-8.08,6.64-16.11,9.19-24.4,3.2-10.42.24-20.6-6.33-24.75s-15.9-2-24.41,5.34c-11.36,9.81-16.36,23.25-20.9,36.9C604,212.17,605,213.63,605.33,214.88Zm-33.58-4.1c-9.28,0-17-.65-24.48.22-5.15.6-8,5.15-9,10.28-1.5,8.05,2.78,16.85,10.22,20.33,2.07,1,4.82.5,7.25.69-1.7-1.43-3.39-2.86-5.1-4.27a8.18,8.18,0,0,0-1-.56c-6.31-3.65-9.2-12-6.24-18.06,2.61-5.3,8.7-6.46,16.31-2.92,2.09,1,4.4,2,5.85,3.69,4.79,5.52,9.23,11.34,14.35,17.71a6.91,6.91,0,0,0,2-.93c3.25-2.08,6.88-3.18,9.2.45a9.31,9.31,0,0,1,.21,7.83c-2,4-5.67,2.76-9.08,1.14-1.38-.66-3.12-.6-5.62-1,4.13,6.31,9.56,8.13,14.55,5.8,4.55-2.12,6.75-7.4,5.35-12.82-1.3-5-5.2-7.29-11.1-7.25-2.1,0-4.85-.67-6.21-2.08-4.11-4.3-7.68-9.11-11.58-13.86Zm16.73-28.84c.21-16-6.46-22.3-16.6-19.28a24.28,24.28,0,0,0-8.73,5.41c-9.21,8.24-13.64,19-15.34,31-.18,1.21.79,2.57,1.23,3.86.89-1,2.07-1.9,2.58-3.08.67-1.57.48-3.53,1.23-5,3.77-7.5,7.23-15.24,11.81-22.24,2.65-4,7.47-8.22,12.69-5.73,5.52,2.63,4.78,8.84,3.65,14-1.83,8.27-4.35,16.39-6.23,24.66-.37,1.62.88,3.61,1.38,5.43,1.57-1,4.13-1.62,4.57-2.95C583.92,198.08,586.69,188.07,588.48,181.94Zm-28.55,134c1.75,6.62,3.39,13.28,5.38,19.84.27.88,2.29,1.23,3.5,1.82.08-1.2.5-2.5.19-3.6-.74-2.58-2.16-5-2.7-7.6-3.53-16.84,2.34-31.05,12.52-44.07.95-1.22,1-3.16,1.45-4.76-1.57.74-3.59,1.09-4.63,2.29C566.78,290.08,561.68,301.93,559.93,315.91ZM511.27,262.3c.63,3.42,1.24,5.34,1.27,7.27A49,49,0,0,1,512,279c-.39,2.21-2.07,4.19-2.5,6.41-.83,4.24,1.85,7.11,5.52,7.23,2.38.08,6.05-2,7-4.11C524.68,283.06,518.46,267.41,511.27,262.3ZM629.5,227.69c-4.82-.64-9.3-.91-13.62-1.91-4-.93-7.84-2.64-11.75-4C608.45,230.45,624.16,233.58,629.5,227.69ZM574.43,242.3c-2.79-2.2-4.63-3.89-6.75-5.05-.34-.19-3,2.61-2.83,2.88a27.94,27.94,0,0,0,5,5.72C570.09,246,572.15,244.11,574.43,242.3Zm-35.91,12.25c3.64,3.59,9.77,4.2,12,2,.46-.46.93-1.5.71-1.94-.35-.7-1.31-1.61-1.93-1.55C546.05,253.35,542.79,253.92,538.52,254.55Z"/><path class="cls-1" d="M611.68,716.45c42.77-23.55,75.63-55.07,89.67-104.69,7.07,10.75,13.61,20.2,19.66,30,14,22.52,27.6,45.25,41.61,67.75a180.06,180.06,0,0,0,12.09,16.32c8.31,10.55,13.45,22.53,16.53,35.48a8.73,8.73,0,0,1,.48,3.42c-.43,2.34-1.2,4.62-1.83,6.93-2.14-1-4.58-1.6-6.37-3-3.32-2.64-6-6.17-9.42-8.55-5-3.48-9.53-1-9,5a51.63,51.63,0,0,0,3.59,13.3c2.92,7.58,6.75,14.82,9.35,22.49,2.84,8.37.88,11-8,11.33-5.76.19-11.58-.6-17.33-1.29-7.53-.9-13.93.49-17.88,7.65-2.48,4.51-6.19,3.32-9.6,2-19.68-7.88-38.08-17.79-54.57-31.44-23.81-19.7-40.94-44.68-57.73-70C612.55,718.41,612.29,717.69,611.68,716.45Z"/><path class="cls-1" d="M684.42,558c-3.8-6.39-15.53-26-17.23-29.3-7.49-14.47-13.93-29.22-17.25-45.39-3.05-14.82-7.6-29.49-19.35-40.09-5.22-4.72-11.49-8.47-17.76-11.77-6-3.16-8.66-7.4-7.7-14,.48-3.25.93-6.51,1.61-9.72,1.67-8,6.77-11,14.73-13.06,8.69-2.27,17.79-6.52,24.39-12.47,11.39-10.3,21.07-22.5,31.27-34.09,2-2.27,3.16-4,6.47-1.95,33.63,20.59,58.35,48.47,69,87C766,481.65,744.72,528.21,699.69,551,694.87,553.42,689.87,555.48,684.42,558Z"/><path class="cls-1" d="M585.83,605.22c1.37-13.2,2.68-25.94,3.94-38.08,13.2,1.24,27,3.45,40.84,3.65,30.48.45,59.3-6.38,84.6-24.17,41.92-29.48,56.5-77.78,37.71-126.36-13.18-34.06-36.16-60.07-68.27-77.76-5.76-3.17-11.76-5.88-17.51-9.06a23.11,23.11,0,0,1-6.32-4.94c-4.88-5.7-2.15-13.29,5.26-14.37a17.1,17.1,0,0,1,9.07,1c30.4,14,59.6,29.85,81.49,56.23,60.57,73,39.61,176-44.85,219.83-38.46,20-79,24.46-121.22,15.41C588.72,606.22,586.92,605.55,585.83,605.22Z"/><path class="cls-1" d="M504.48,602.58c7.33-11.25,8.29-20.44,2.44-25,.29,2.46.57,4.26.71,6.08.46,6.21-3.69,14.42-8.59,16.78-5.66,2.72-11.22,3-16.18-1.52-1.39-1.26-2.24-3.1-3.57-4.45a24.09,24.09,0,0,0-3.57-2.52c-.07,1.57-.82,3.71-.07,4.6a85.18,85.18,0,0,0,8.84,8.88c3.29,2.95,7.6,5.1,10,8.61,2,3,3.6,8.23,2.27,11-1.49,3.06-6.34,5.91-10,6.24-11.69,1.09-20.68-4.76-26.61-14.38-5.3-8.58-4.29-17.83,2.05-25.51,5.73-6.94,12.59-13,19-19.35,1.27-1.27,2.73-2.33,4.42-3.75-5.51-2.26-14.15,4.23-24.38,16.86-6.85,8.45-10.08,17.72-7.2,28.78-10.83-4-18.38-18.31-16.24-28.75,4.07-19.89,16.63-31.14,35.59-36.31a16.43,16.43,0,0,0,3.24-1.69l-.18-2c-2.14,0-4.46-.55-6.4.09-18.46,6-31.61,17.43-36.41,37-.27,1.11-.65,2.19-1,3.32-9-4.5-13.07-20.5-11.28-29.74,3.78-19.53,15.12-33.55,33.47-39.91,29.78-10.33,58.39-5.42,83.66,13.14,19.67,14.45,26.91,41,19.68,64.15-5.18,16.6-21,24.59-37.19,18.28C515.32,609.34,510.21,605.74,504.48,602.58Zm-5.67-78.4-4.16,2.43a32.17,32.17,0,0,0,5.25,2.11c2.43.54,5,.46,7.44.93,12,2.32,21.8,8.64,30.55,16.91,1,1,2.81,1.05,4.25,1.55-.45-1.48-.44-3.41-1.4-4.38C529.63,532.45,516.37,525.51,498.81,524.18Zm42,33.22c.25-.51.49-1,.74-1.54-7-6.19-16-7.05-24.94-8-2.45-.25-5.07,1.08-7.6,1.69l.54,1.22Zm4.91,16-.06-3c-8,0-16.06,0-24.09.1-.47,0-1.47,1.74-1.26,2.06a3.75,3.75,0,0,0,2.42,1.78c4.22.09,8.46,0,12.68-.21C538.85,574,542.28,573.64,545.72,573.41Z"/><path class="cls-1" d="M382,959.14c4.18-5,7.19-5.5,12.18-4.51a268.28,268.28,0,0,0,39.57,5.3c50.17,2.35,100.3.15,150.33-3.44,45.36-3.25,90.71-7.09,135.34-16.42a167.77,167.77,0,0,0,21.64-6.42c4.79-1.71,8.14-4.85,4.15-10.55H757c0,7.09-.49,13.81.11,20.43,1,10.37,1.31,11.35,11.64,12.39,10.67,1.08,21.53.3,32.31.21,2.86,0,5.72-.53,8.76.44-10.72,1.52-21.4,3.48-32.17,4.48-37.57,3.49-75.12,7.54-112.77,9.73-66.53,3.87-133.17,5.8-199.76,1.5-23.3-1.5-46.49-5-69.67-8C391.14,963.7,387.05,961.12,382,959.14Z"/><path class="cls-1" d="M231.62,825.62a105.61,105.61,0,0,0,29.45,30.3c11.74,8,24.31,14.87,36.37,23.57-2.24-.53-4.66-.66-6.67-1.64a190.46,190.46,0,0,1-52.43-38c-.54-.56-1-1.37-1.61-1.65a35.31,35.31,0,0,0-4.2-1.32c.35,1.34.27,3.11,1.11,4,5.35,5.31,10.44,11.07,16.49,15.46,13.86,10,28.23,19.39,42.61,29.17-3.48,8.37-8,10.23-16.11,4.91-12.43-8.17-25.28-15.92-36.77-25.29-21.05-17.19-31.27-40.85-36.54-66.92a5.15,5.15,0,0,1,.92-4.08c6-5.83,12.19-11.45,18.94-17.7C228.7,824.66,260.69,852,303,870.62c-.42.72-.83,1.44-1.24,2.16-1.91-.41-4-.48-5.7-1.29C273,860.65,252,847.14,236.86,826c-.79-1.09-2.39-1.59-3.61-2.37Z"/><path class="cls-1" d="M259.05,819.85l5.14-3.4c3.55,5.47,6.55,11.7,11,16.56,5.07,5.51,10.17,5,15.88.14,6.32-5.37,8.68-5.55,15.32-1.17,6.46,4.25,8.24,8.87,5.77,15.75-2.21,6.14-4.66,12.18-7.13,18.57a141.85,141.85,0,0,1-61.81-45.39c6.74-8.91,4.86-16.15-9.09-35.89l.86-1.29c4.22,3.2,8.38,6.47,12.68,9.55,2.49,1.78,3.71,7.05,8.22,3.81,3.48-2.49,4.44-10.67,1.34-13.82-4.39-4.46-9.48-8.21-15.32-13.16,3,0,6.25-1,8.2.22a21.62,21.62,0,0,1,8,8c6.44,12.5,8,25.31.25,38.05a8.66,8.66,0,0,0-.62,2.08Z"/><path class="cls-1" d="M580.24,660.25c-4.17-8.74-8.24-17.06-12-25.49a5,5,0,0,1,.55-4.07,59.07,59.07,0,0,1,7.21-9.05,7.28,7.28,0,0,1,5.36-1.53c11.48,1.51,22.86,4,34.37,4.83,11.32.85,22.75.19,35,.19C629.77,642.35,607.06,654.82,580.24,660.25Z"/><path class="cls-1" d="M147,793.28c8.72-4,12.82-8.69,13.46-15.89.56-6.24-.28-12.06-5.89-16s-10.56-1.86-16.32,2.44c.15-9,1.11-16.51,6.76-22.47,4.57-4.83,11.46-5,18.05-.68,9.43,6.23,14.75,15.61,16.78,26.19,1.49,7.74,1.85,16.31.11,23.91-3.07,13.43-14.42,16.38-25.3,7.78C152.56,796.89,150.25,795.49,147,793.28Z"/><path class="cls-1" d="M583.41,571.77c-.49,13.08-1.89,21.84-7.29,29.33-1.63,2.24-4,4.67-6.52,5.32s-5.58-.52-7.78-1.91c-1.12-.69-1.62-3.92-1.05-5.52,7.2-20.4,4.82-39.88-5.34-58.62-1.68-3.11-3.5-6.61.08-8.6,2.52-1.39,7.81-1.83,9.31-.25,5.07,5.31,10.29,11.17,13,17.82C581.27,557.57,582.26,566.79,583.41,571.77Z"/><path class="cls-1" d="M270.74,806.82c5.12,1.4,8.55,2.45,12,3.24,1.1.24,2.36-.23,3.54-.38-.52-1.09-.78-2.83-1.6-3.14a28.68,28.68,0,0,0-8.23-2.11c-6.48-.41-10.7-7.39-7.13-12.87.84-1.28,4.18-2.09,5.76-1.5,3,1.11,5.37,3.85,8.35,5.11,5.39,2.27,11.09,3.83,16.56,6,2.21.86,4.14,2.43,6.2,3.67-2,1.81-3.69,4-5.94,5.3-1.38.78-3.56.14-6.61.14,1.95,2.78,3.8,4.27,4,6,.5,4,1.57,8.7-4.48,10.12-1.22.28-2.26,1.43-3.32,2.28-6.7,5.37-13.45,3.82-16-4.26C272.27,819.32,271.94,813.89,270.74,806.82Z"/><path class="cls-1" d="M818.11,894.45c4.67,4.63,9.67,9,13.9,14a44.79,44.79,0,0,1,6.66,11.45c6.9,16.15,2.56,22.11-15.17,21-1.2-.08-2.36-1.77-3.39-2.85-.31-.32-.14-1.11-.19-1.69l-3-40.72Z"/><path class="cls-1" d="M806.17,892.92c-12.65,14.69-16.38,31-10.88,49.82-6.72,0-13.12.09-19.52-.14-.72,0-1.84-1.89-2-3C771.61,922,788.3,897.68,806.17,892.92Z"/><path class="cls-1" d="M812.13,894.79c1.41,16.07,2.74,31.13,4.15,47.13-4.61.41-8.93,1-13.25,1.07a4.79,4.79,0,0,1-3.43-2.28C792.85,928.47,799,904.35,812.13,894.79Z"/><path class="cls-1" d="M791.25,895.54c-16.41,11.82-21.26,27.62-22.79,44.84-6.39.88-8-1.68-8-7.38C760.72,918.6,771.26,899.7,791.25,895.54Z"/><path class="cls-1" d="M803.08,851.86a23.45,23.45,0,0,0,2.06-3.26c.56-1.6,1-3.26,1.45-4.9-1.55.7-3.44,1-4.57,2.16-6,5.87-7.77,6.21-11.45,2.41l19.08-19.76,1.54.75c-.55,2.23-1.15,4.44-1.62,6.69-.42,2-.7,4.06-1,6.09,1.69-1.21,3.4-2.4,5.07-3.65.75-.57,1.39-1.27,2.32-2.13L828,849.35Z"/><path class="cls-1" d="M858.62,934c-1.22-5.66-2.29-10.65-3.37-15.64l1.36.43c1.38-2.83,4-5.73,3.91-8.5-.6-12.31-1.55-24.64-3.21-36.85-1.81-13.32-4.54-26.51-5.78-40.29.87,1.7,2.22,3.31,2.53,5.1,4.53,26.07,10.74,51.94,10.25,78.65C864.2,922.83,863.72,928.85,858.62,934Z"/><path class="cls-1" d="M773,834.17c10.81-10.12,21-12.06,28.92-5.66C793,845.4,785,847.07,773,834.17Z"/><path class="cls-1" d="M195.81,860.45c11.51-5,12.54-4.63,20.35,3.64,5.23,5.53,10.94,10.6,16.42,15.85C225.89,883.06,219.94,878.62,195.81,860.45Z"/><path class="cls-1" d="M846.78,933.4c-2.6-15-8.31-28.37-21.08-38.3,7.58-.3,15.62,3.76,19.29,10.72a79.3,79.3,0,0,1,7,18.78c.64,2.74-1.79,6.19-2.82,9.32Z"/><path class="cls-1" d="M278.08,775.93c6.21,2.29,10.58,3.75,14.82,5.53,1.92.8,4.62,1.85,5.15,3.41,1.18,3.41,1.2,7.22,1.69,10.86-2.67-.16-5.73.44-7.94-.66-4.8-2.36-9.73-5-13.46-8.74C276.77,784.77,278.08,780.3,278.08,775.93Z"/><path class="cls-1" d="M176.11,727.53c12.22,6.82,19.48,17.76,24.51,30.33,2,5,3,10.34,4.65,15.48.43,1.36,1.47,3.6,2.19,3.58a6.26,6.26,0,0,0,4.21-2.18c2.51-3.14,4.64-6.59,6.87-9.84,2.12,5.23-3.27,15.5-12.1,21.86C201.37,764.29,193.75,743.33,176.11,727.53Z"/><path class="cls-1" d="M205.34,756.44l-10.27-18.78c4.2-1.14,8.16-3.35,11.75-2.86,3.76.52,4.75,7.05,2.62,12.77C208.44,750.25,207.05,752.78,205.34,756.44Z"/><path class="cls-1" d="M183,726c8.94-4,11.78-3.42,18.72,3.79l-4.4,2.43L192.57,735Z"/><path class="cls-1" d="M214.26,749.25c3.47,7.77.12,14.09-4.26,20.89C203.53,761.17,212,755.85,214.26,749.25Z"/><path class="cls-1" d="M833.81,840.62c-9.16-6.32-12.43-10.15-12.35-14.24C828.9,826.79,832.56,830.83,833.81,840.62Z"/><path class="cls-1" d="M240.32,816.61,237,795.76C241.56,802.61,244,808.91,240.32,816.61Z"/><path class="cls-1" d="M192.6,303.53c-1,6.39-4.46,8.28-8.26,8.81-2.3.33-4.85-1.2-7.29-1.9l.56-1.3Z"/><path class="cls-2" d="M605.33,214.88c-.34-1.25-1.29-2.71-1-3.74,4.54-13.65,9.54-27.09,20.9-36.9,8.51-7.36,17.91-9.44,24.41-5.34s9.53,14.33,6.33,24.75c-2.55,8.29-6,16.32-9.19,24.4-1.06,2.68-2.37,5.91-6.26,4-4.11-2-.76-4.48-.05-6.76,3.19-10.27,6.79-20.44,9.38-30.86,1.09-4.38.54-9.7-4.34-12.31-4.65-2.48-9-.28-13.1,2.18C623,180,617.82,189,613.58,198.71c-2.31,5.26-4.27,10.69-6.38,16Z"/><path class="cls-2" d="M571.75,210.78l-4.1,4.36c3.9,4.75,7.47,9.56,11.58,13.86,1.36,1.41,4.11,2.09,6.21,2.08,5.9,0,9.8,2.26,11.1,7.25,1.4,5.42-.8,10.7-5.35,12.82-5,2.33-10.42.51-14.55-5.8,2.5.43,4.24.37,5.62,1,3.41,1.62,7,2.87,9.08-1.14a9.31,9.31,0,0,0-.21-7.83c-2.32-3.63-6-2.53-9.2-.45a6.91,6.91,0,0,1-2,.93c-5.12-6.37-9.56-12.19-14.35-17.71-1.45-1.67-3.76-2.72-5.85-3.69-7.61-3.54-13.7-2.38-16.31,2.92-3,6-.07,14.41,6.24,18.06a8.18,8.18,0,0,1,1,.56c1.71,1.41,3.4,2.84,5.1,4.27-2.43-.19-5.18.27-7.25-.69-7.44-3.48-11.72-12.28-10.22-20.33,1-5.13,3.83-9.68,9-10.28C554.78,210.13,562.47,210.78,571.75,210.78Z"/><path class="cls-2" d="M588.48,181.94c-1.79,6.13-4.56,16.14-7.76,26-.44,1.33-3,2-4.57,2.95-.5-1.82-1.75-3.81-1.38-5.43,1.88-8.27,4.4-16.39,6.23-24.66,1.13-5.13,1.87-11.34-3.65-14-5.22-2.49-10,1.69-12.69,5.73-4.58,7-8,14.74-11.81,22.24-.75,1.5-.56,3.46-1.23,5-.51,1.18-1.69,2.06-2.58,3.08-.44-1.29-1.41-2.65-1.23-3.86,1.7-12,6.13-22.76,15.34-31a24.28,24.28,0,0,1,8.73-5.41C582,159.64,588.69,165.91,588.48,181.94Z"/><path class="cls-2" d="M559.93,315.91c1.75-14,6.85-25.83,15.71-36.08,1-1.2,3.06-1.55,4.63-2.29-.46,1.6-.5,3.54-1.45,4.76-10.18,13-16.05,27.23-12.52,44.07.54,2.61,2,5,2.7,7.6.31,1.1-.11,2.4-.19,3.6-1.21-.59-3.23-.94-3.5-1.82C563.32,329.19,561.68,322.53,559.93,315.91Z"/><path class="cls-2" d="M511.27,262.3c7.19,5.11,13.41,20.76,10.82,26.27-1,2.1-4.66,4.19-7,4.11-3.67-.12-6.35-3-5.52-7.23.43-2.22,2.11-4.2,2.5-6.41a49,49,0,0,0,.51-9.47C512.51,267.64,511.9,265.72,511.27,262.3Z"/><path class="cls-2" d="M629.5,227.69c-5.34,5.89-21,2.76-25.37-5.92,3.91,1.37,7.74,3.08,11.75,4C620.2,226.78,624.68,227.05,629.5,227.69Z"/><path class="cls-2" d="M574.43,242.3c-2.28,1.81-4.34,3.74-4.56,3.55a27.94,27.94,0,0,1-5-5.72c-.17-.27,2.49-3.07,2.83-2.88C569.8,238.41,571.64,240.1,574.43,242.3Z"/><path class="cls-2" d="M538.52,254.55c4.27-.63,7.53-1.2,10.82-1.5.62-.06,1.58.85,1.93,1.55.22.44-.25,1.48-.71,1.94C548.29,258.75,542.16,258.14,538.52,254.55Z"/><path class="cls-2" d="M498.81,524.18c17.56,1.33,30.82,8.27,41.93,19.55,1,1,1,2.9,1.4,4.38-1.44-.5-3.25-.6-4.25-1.55-8.75-8.27-18.54-14.59-30.55-16.91-2.45-.47-5-.39-7.44-.93a32.17,32.17,0,0,1-5.25-2.11Z"/><path class="cls-2" d="M540.81,557.4l-31.26-6.62-.54-1.22c2.53-.61,5.15-1.94,7.6-1.69,8.89.94,18,1.8,24.94,8C541.3,556.37,541.06,556.89,540.81,557.4Z"/><path class="cls-2" d="M545.72,573.41c-3.44.23-6.87.55-10.31.69-4.22.17-8.46.3-12.68.21a3.75,3.75,0,0,1-2.42-1.78c-.21-.32.79-2,1.26-2.06,8-.13,16.06-.1,24.09-.1Z"/></svg>