<svg width="75" height="80" viewBox="0 0 75 80" fill="none" xmlns="http://www.w3.org/2000/svg">
<path fill-rule="evenodd" clip-rule="evenodd" d="M70.8316 17.3909L43.298 1.54426C41.536 0.532744 39.5356 0 37.499 0C35.4625 0 33.462 0.532744 31.7001 1.54426L4.16821 17.3909C4.05973 17.4539 3.96981 17.5438 3.90735 17.6517C3.88217 17.6952 3.86177 17.7413 3.84645 17.7886C3.82369 17.8589 3.81198 17.9324 3.81198 18.0068C3.81198 18.1314 3.84483 18.2536 3.90735 18.3619C3.96981 18.4698 4.05973 18.5597 4.16821 18.6227L37.1393 37.8315C37.1975 37.8654 37.2599 37.891 37.3246 37.9077C37.3834 37.9226 37.4441 37.9304 37.5053 37.9304C37.634 37.9304 37.7604 37.8963 37.8713 37.8315L70.8352 18.6227C70.8833 18.5947 70.9278 18.5611 70.9678 18.5232C71.0178 18.4757 71.0608 18.4211 71.0954 18.361C71.1301 18.3006 71.1555 18.2355 71.1711 18.1684C71.1835 18.1153 71.1898 18.0608 71.1896 18.0059C71.1893 17.8813 71.156 17.7591 71.0933 17.6512C71.0582 17.5908 71.0146 17.5362 70.9639 17.4889C70.9239 17.4516 70.8796 17.4186 70.8316 17.3909ZM37.4999 21.4314C35.1111 21.4314 33.173 20.153 33.173 18.5746C33.173 16.9962 35.1111 15.7177 37.4999 15.7177C39.8887 15.7177 41.8268 16.9962 41.8268 18.5746C41.8268 20.153 39.8887 21.4314 37.4999 21.4314Z" fill="#95C227"/>
<path fill-rule="evenodd" clip-rule="evenodd" d="M34.2548 42.6455L1.08173 23.4813C0.972144 23.4186 0.847901 23.3856 0.721375 23.3856C0.594849 23.3856 0.470532 23.4186 0.360871 23.481C0.251284 23.5437 0.160256 23.6339 0.0969198 23.7421C0.0824849 23.7669 0.069523 23.7926 0.0581813 23.8186C0.0475761 23.8431 0.0383702 23.8682 0.0306372 23.8938C0.0166443 23.9399 0.00736472 23.9872 0.00294589 24.0353C0.000957414 24.0563 0 24.0776 0 24.0989V55.1533C0.00272495 56.6494 0.400936 58.119 1.15494 59.4155C1.90901 60.7118 2.99266 61.7904 4.29805 62.5434L33.5336 79.9043C33.6432 79.967 33.7675 80 33.894 80C33.9614 80 34.0281 79.9907 34.0923 79.9726C34.1488 79.9565 34.2033 79.9338 34.2545 79.9046C34.3641 79.8419 34.4551 79.7517 34.5185 79.6435C34.5471 79.5945 34.5696 79.5422 34.5858 79.4883C34.6053 79.4232 34.6153 79.3552 34.6154 79.2864V43.2631C34.6152 43.138 34.5819 43.0151 34.5186 42.9066C34.4553 42.7981 34.3643 42.7082 34.2548 42.6455ZM8.65384 59.9991C7.06012 59.9991 5.76923 58.0796 5.76923 55.7138C5.76923 53.3479 7.06012 51.4285 8.65384 51.4285C10.2476 51.4285 11.5385 53.3479 11.5385 55.7138C11.5385 58.0796 10.2476 59.9991 8.65384 59.9991ZM25.9615 54.2853C24.3678 54.2853 23.0769 52.3659 23.0769 50C23.0769 47.6342 24.3678 45.7147 25.9615 45.7147C27.5553 45.7147 28.8461 47.6342 28.8461 50C28.8461 52.3659 27.5553 54.2853 25.9615 54.2853Z" fill="#95C227"/>
<path fill-rule="evenodd" clip-rule="evenodd" d="M40.7452 42.7794L73.9183 23.4865C74.0282 23.4235 74.153 23.3906 74.28 23.3908C74.407 23.3911 74.5317 23.4244 74.6415 23.4877C74.7512 23.551 74.8422 23.6418 74.9051 23.7509C74.9681 23.8603 75.0008 23.984 75 24.1097V55.153C74.9965 56.6488 74.5977 58.1178 73.8434 59.4135C73.089 60.7095 72.0053 61.7872 70.7001 62.5399L41.4663 79.9005C41.3568 79.9632 41.2325 79.9962 41.106 79.9962C40.9795 79.9962 40.8551 79.9635 40.7455 79.9008C40.6359 79.8381 40.5449 79.7482 40.4815 79.6397C40.4182 79.5312 40.3848 79.408 40.3846 79.2829V43.3953C40.3851 43.2704 40.4186 43.1476 40.4819 43.0396C40.5452 42.9314 40.6359 42.8418 40.7452 42.7794ZM46.1538 65.7128C46.1538 68.0786 47.4447 69.9981 49.0385 69.9981C50.6322 69.9981 51.9231 68.0786 51.9231 65.7128C51.9231 63.3469 50.6322 61.4275 49.0385 61.4275C47.4447 61.4275 46.1538 63.3469 46.1538 65.7128ZM46.1538 50C46.1538 52.3659 47.4447 54.2853 49.0385 54.2853C50.6322 54.2853 51.9231 52.3659 51.9231 50C51.9231 47.6342 50.6322 45.7147 49.0385 45.7147C47.4447 45.7147 46.1538 47.6342 46.1538 50ZM63.4615 55.7138C63.4615 58.0796 64.7524 59.9991 66.3461 59.9991C67.9399 59.9991 69.2308 58.0796 69.2308 55.7138C69.2308 53.3479 67.9399 51.4285 66.3461 51.4285C64.7524 51.4285 63.4615 53.3479 63.4615 55.7138ZM63.4615 40.001C63.4615 42.3669 64.7524 44.2863 66.3461 44.2863C67.9399 44.2863 69.2308 42.3669 69.2308 40.001C69.2308 37.6352 67.9399 35.7157 66.3461 35.7157C64.7524 35.7157 63.4615 37.6352 63.4615 40.001Z" fill="#95C227"/>
</svg>
