<svg width="83" height="83" viewBox="0 0 83 83" fill="none" xmlns="http://www.w3.org/2000/svg">
<path d="M44.1489 22.1882C43.9654 22.3087 43.7502 22.3719 43.5306 22.3699L43.5922 22.3904C43.4407 22.3974 43.2894 22.3733 43.1476 22.3195C43.0059 22.2657 42.8766 22.1834 42.768 22.0776C42.6593 21.9718 42.5735 21.8449 42.5159 21.7046C42.4583 21.5643 42.4301 21.4137 42.4331 21.2621C42.4331 21.0426 42.4984 20.828 42.6206 20.6456C42.7427 20.4632 42.9164 20.3212 43.1194 20.2377C43.3224 20.1541 43.5457 20.1328 43.7608 20.1764C43.976 20.22 44.1734 20.3265 44.3279 20.4825C44.4824 20.6384 44.5871 20.8368 44.6286 21.0523C44.6702 21.2679 44.6468 21.4909 44.5614 21.6932C44.476 21.8954 44.3324 22.0677 44.1489 22.1882Z" fill="#95C227"/>
<path d="M34.9784 32.0075C34.3037 32.4583 33.5104 32.699 32.699 32.699L32.7297 32.7195C32.1866 32.7236 31.6481 32.6198 31.1454 32.4141C30.6427 32.2085 30.1858 31.9051 29.8013 31.5215C29.4168 31.1379 29.1122 30.6818 28.9053 30.1796C28.6984 29.6774 28.5933 29.1392 28.596 28.596C28.596 27.7846 28.8367 26.9913 29.2875 26.3166C29.7383 25.6419 30.3791 25.116 31.1288 24.8054C31.8786 24.4949 32.7035 24.4137 33.4994 24.572C34.2953 24.7303 35.0264 25.121 35.6002 25.6948C36.174 26.2686 36.5647 26.9997 36.723 27.7956C36.8813 28.5915 36.8001 29.4165 36.4896 30.1662C36.179 30.9159 35.6531 31.5567 34.9784 32.0075Z" fill="#95C227"/>
<path d="M22.7289 37.0891C22.4367 37.0891 22.1512 37.1757 21.9083 37.338C21.6654 37.5003 21.4761 37.731 21.3643 38.0009C21.2525 38.2708 21.2232 38.5678 21.2802 38.8543C21.3372 39.1408 21.4779 39.404 21.6844 39.6106C21.891 39.8171 22.1542 39.9578 22.4407 40.0148C22.7272 40.0718 23.0242 40.0425 23.2941 39.9307C23.564 39.8189 23.7947 39.6296 23.957 39.3867C24.1193 39.1438 24.2059 38.8583 24.2059 38.5661C24.2059 38.1744 24.0503 37.7987 23.7733 37.5217C23.4963 37.2447 23.1206 37.0891 22.7289 37.0891Z" fill="#95C227"/>
<path fill-rule="evenodd" clip-rule="evenodd" d="M0 78L10.0446 67.9554C9.33615 67.4526 8.64814 66.7925 8.05071 66.0044C6.12234 63.4606 5.7223 60.3731 7.17884 59.2653C7.62645 59.0128 8.13169 58.8801 8.64563 58.8801C9.15957 58.8801 9.66481 59.0128 10.1124 59.2653C10.8538 59.5765 11.672 59.6558 12.4593 59.4929C13.2466 59.3299 13.9661 58.9323 14.5231 58.3524L18.7285 54.0238C19.0004 53.7459 19.1798 53.3909 19.2422 53.0072C19.3046 52.6234 19.247 52.2298 19.0773 51.8801C18.8927 51.4903 18.7183 51.1005 18.5439 50.7107C18.388 50.3306 18.1123 50.0118 17.7587 49.8026C17.4052 49.5934 16.993 49.5053 16.5848 49.5517L12.4819 50.0338C11.9168 50.097 11.383 50.3252 10.947 50.6901C10.511 51.055 10.1922 51.5402 10.0304 52.0852C9.9836 52.313 9.88147 52.5257 9.73299 52.7046C9.5845 52.8835 9.39424 53.023 9.17901 53.111C8.3892 53.3366 7.12755 52.1981 6.61469 50.3517C6.37901 49.4923 6.37901 48.5853 6.61469 47.7259C6.66626 47.5001 6.77018 47.2897 6.91807 47.1115C7.06596 46.9333 7.25367 46.7924 7.46604 46.7001C7.72429 46.6746 7.98479 46.7149 8.22331 46.8171C8.46183 46.9193 8.67062 47.0802 8.83026 47.2848C9.2479 47.692 9.77817 47.9645 10.3524 48.0669C10.9266 48.1693 11.5184 48.0969 12.051 47.8592L15.7539 46.2386C16.1274 46.0751 16.4375 45.7945 16.6373 45.4392C16.8372 45.0839 16.916 44.6732 16.8617 44.2692C16.8002 43.7666 16.7591 43.2434 16.7284 42.7511C16.708 42.3605 16.5668 41.9858 16.3242 41.6789C16.0817 41.3721 15.7498 41.1481 15.3744 41.0381L9.39441 39.1918C8.65131 38.9751 7.86152 38.9768 7.11939 39.1969C6.37727 39.417 5.71421 39.8461 5.20944 40.4329C4.93158 40.813 4.56692 41.1211 4.14584 41.3317C3.72477 41.5422 3.25947 41.649 2.78872 41.6433C2.32266 41.5285 1.8919 41.301 1.53423 40.9809C1.17656 40.6608 0.902903 40.2578 0.737264 39.8073C0.180671 38.3918 -0.00315978 36.8572 0.203382 35.3503C0.409924 33.8434 0.999918 32.4149 1.91685 31.2014C2.19263 30.8128 2.55923 30.4975 2.98471 30.283C3.41019 30.0685 3.88167 29.9612 4.35808 29.9705C4.84626 30.1098 5.29085 30.3713 5.64982 30.7302C6.00879 31.0892 6.27027 31.5338 6.40954 32.022C6.71032 32.7685 7.23205 33.4054 7.90484 33.8472C8.57762 34.289 9.36935 34.5147 10.174 34.494L16.2052 34.4119C16.5951 34.4041 16.9732 34.277 17.2886 34.0478C17.6041 33.8186 17.8417 33.4982 17.9695 33.1298C18.1439 32.6169 18.3388 32.104 18.5542 31.6117C18.7143 31.2331 18.7479 30.8129 18.65 30.4137C18.552 30.0145 18.3277 29.6576 18.0105 29.3961L14.8103 26.7805C14.3754 26.4242 13.8471 26.2009 13.2886 26.1372C12.7301 26.0735 12.1651 26.1722 11.6613 26.4215C11.4631 26.5514 11.2365 26.6314 11.0007 26.6546C10.7649 26.6779 10.527 26.6436 10.3073 26.5548C9.59956 26.124 9.52775 24.4316 10.5022 22.7802C10.9697 21.9874 11.6526 21.3436 12.4716 20.9236C12.6683 20.7946 12.8938 20.7159 13.1281 20.6944C13.3624 20.6729 13.5984 20.7094 13.8153 20.8005C14.0153 20.9664 14.1693 21.1808 14.2627 21.4233C14.3561 21.6657 14.3857 21.9281 14.3487 22.1852C14.3512 22.7679 14.5272 23.3367 14.8542 23.8189C15.1812 24.3012 15.6444 24.6752 16.1847 24.8932L19.9286 26.4112C20.3088 26.5641 20.7286 26.5876 21.1234 26.4783C21.5183 26.3689 21.8661 26.1327 22.1134 25.8061L22.8725 24.9137C23.1324 24.623 23.2965 24.2593 23.3424 23.872C23.3883 23.4848 23.3137 23.0928 23.1289 22.7494L20.1133 17.231C19.736 16.5588 19.1745 16.0085 18.4947 15.645C17.815 15.2815 17.0455 15.12 16.277 15.1795C15.815 15.2514 15.3424 15.2106 14.8995 15.0606C14.4566 14.9106 14.0565 14.6558 13.7332 14.3179C12.6255 12.8614 13.8358 9.98933 16.3796 8.06096C18.9234 6.13259 22.0109 5.73256 23.1187 7.1891C23.3712 7.6367 23.5039 8.14194 23.5039 8.65589C23.5039 9.16983 23.3712 9.67507 23.1187 10.1227C22.8075 10.864 22.7282 11.6822 22.8911 12.4696C23.0541 13.2569 23.4517 13.9764 24.0316 14.5333L28.3601 18.7388C28.6397 19.0115 28.9965 19.1913 29.382 19.2537C29.7675 19.3162 30.1629 19.2581 30.5142 19.0875C30.884 18.9026 31.2771 18.735 31.6497 18.5761C31.7732 18.5235 31.8943 18.4719 32.0117 18.4208C32.381 18.2769 32.6966 18.0221 32.9152 17.6915C33.1338 17.3609 33.2446 16.9707 33.2323 16.5745L32.822 12.4716C32.765 11.9115 32.5481 11.3796 32.1971 10.9395C31.846 10.4994 31.3758 10.1695 30.8424 9.98933C30.6153 9.93749 30.4038 9.83229 30.2254 9.68246C30.0471 9.53263 29.9069 9.34247 29.8167 9.12772C29.7946 8.8917 29.8297 8.65385 29.919 8.43426C30.0083 8.21467 30.1491 8.01979 30.3295 7.86608C30.9635 7.24052 31.7591 6.80368 32.6272 6.60443C34.4735 6.12234 36.0839 6.67623 36.289 7.4763C36.3144 7.7351 36.2719 7.99605 36.1658 8.23345C36.0597 8.47086 35.8936 8.67654 35.6838 8.83026C35.2825 9.23601 35.0077 9.74968 34.893 10.3088C34.7782 10.8678 34.8285 11.4482 35.0376 11.9792L36.6172 15.7026C36.773 16.08 37.0475 16.3963 37.3992 16.6036C37.7509 16.8109 38.1605 16.8979 38.5661 16.8515L39.7252 16.7489C40.1158 16.7285 40.4905 16.5873 40.7974 16.3448C41.1042 16.1022 41.3282 15.7703 41.4382 15.3949L43.2434 9.39441C43.4602 8.65131 43.4584 7.86152 43.2384 7.11939C43.0183 6.37727 42.5892 5.71421 42.0023 5.20944C41.6223 4.93158 41.3141 4.56692 41.1036 4.14584C40.8931 3.72477 40.7862 3.25947 40.792 2.78872C40.9068 2.32266 41.1343 1.8919 41.4544 1.53423C41.7745 1.17656 42.1775 0.902903 42.628 0.737264C44.0435 0.180671 45.5781 -0.00315978 47.085 0.203382C48.5918 0.409924 50.0204 0.999918 51.2339 1.91685C51.6218 2.19326 51.9366 2.55997 52.1511 2.98531C52.3655 3.41065 52.4732 3.88181 52.4647 4.35808C52.3255 4.84626 52.064 5.29085 51.705 5.64982C51.3461 6.00879 50.9015 6.27027 50.4133 6.40954C49.6701 6.71513 49.0365 7.23798 48.5954 7.90966C48.1544 8.58134 47.9264 9.37055 47.9413 10.174L48.0233 16.2052C48.0312 16.5951 48.1582 16.9732 48.3875 17.2886C48.6167 17.6041 48.9371 17.8417 49.3055 17.9695C49.7158 18.1131 50.1261 18.267 50.5364 18.4311C50.9153 18.5899 51.3356 18.6207 51.7337 18.5189C52.1317 18.4171 52.4856 18.1882 52.7417 17.8669L55.3163 14.6256C55.6338 14.1895 55.824 13.6737 55.8657 13.1358C55.9074 12.5979 55.7988 12.059 55.5522 11.5792C55.4206 11.3819 55.3388 11.1557 55.3138 10.9199C55.2888 10.6841 55.3213 10.4457 55.4086 10.2253C55.8189 9.5175 57.5216 9.42518 59.173 10.3791C59.9562 10.8061 60.6059 11.4416 61.0501 12.2152C61.1816 12.4105 61.2635 12.635 61.2885 12.8692C61.3135 13.1034 61.281 13.3401 61.1937 13.5589C61.031 13.7609 60.8193 13.918 60.5786 14.0149C60.338 14.1119 60.0766 14.1456 59.8192 14.1128C59.237 14.1182 58.6698 14.298 58.1908 14.629C57.7118 14.9599 57.3429 15.4267 57.1318 15.9693L55.6548 19.7338C55.5054 20.1143 55.4836 20.5331 55.5928 20.9271C55.6906 21.2803 55.8888 21.5964 56.1621 21.8379L78 0L82.1211 4.12109L4.12109 82.1211L0 78ZM25.711 52.289L27.3721 50.6279C27.352 50.5465 27.3337 50.4646 27.3173 50.3821C27.1044 49.3116 27.2137 48.2021 27.6314 47.1937C28.0491 46.1853 28.7564 45.3235 29.6639 44.7171C30.5714 44.1107 31.6383 43.7871 32.7297 43.7871C33.1786 43.7879 33.6218 43.8433 34.0504 43.9496L35.7133 42.2867C35.6868 42.2754 35.6602 42.2643 35.6336 42.2532C34.2404 41.6767 32.7075 41.5264 31.2289 41.8213C29.7502 42.1162 28.3923 42.843 27.3269 43.9099C26.2614 44.9768 25.5364 46.3357 25.2435 47.8147C24.9506 49.2938 25.103 50.8264 25.6814 52.2188C25.6911 52.2423 25.701 52.2657 25.711 52.289ZM40.3311 37.6689L42.2312 35.7688C42.2224 35.6111 42.2179 35.4528 42.2177 35.2941C42.2178 33.5772 42.7277 31.899 43.6828 30.4724C44.638 29.0457 45.9953 27.9349 47.5826 27.2807C48.7831 26.786 50.0741 26.5693 51.3601 26.6399L53.2085 24.7915C53.1115 24.7695 53.0142 24.7488 52.9164 24.7294C50.8285 24.3154 48.6648 24.5299 46.6988 25.3459C44.7329 26.1619 43.0531 27.5426 41.8721 29.3134C40.691 31.0842 40.0617 33.1655 40.0637 35.2941C40.0645 36.0996 40.1555 36.8957 40.3311 37.6689ZM40.3919 21.2826C40.3919 21.918 40.5805 22.5391 40.9337 23.0673C41.2869 23.5955 41.789 24.007 42.3762 24.2497C42.9635 24.4924 43.6095 24.5554 44.2326 24.4307C44.8556 24.306 45.4277 23.9992 45.8763 23.5491C46.3249 23.0991 46.6298 22.5261 46.7525 21.9026C46.8753 21.2792 46.8102 20.6333 46.5656 20.0469C46.3211 19.4604 45.908 18.9597 45.3787 18.6082C44.8493 18.2566 44.2276 18.07 43.5922 18.0721C42.7425 18.0748 41.9285 18.4142 41.3286 19.016C40.7288 19.6178 40.3919 20.4329 40.3919 21.2826ZM26.5036 28.6063C26.5015 29.8382 26.865 31.0429 27.5479 32.0682C28.2308 33.0934 29.2025 33.893 30.34 34.3658C31.4775 34.8387 32.7297 34.9634 33.9381 34.7243C35.1465 34.4853 36.2569 33.8931 37.1287 33.0228C38.0004 32.1524 38.5944 31.043 38.8355 29.835C39.0766 28.627 38.9539 27.3746 38.4829 26.2363C38.012 25.098 37.214 24.125 36.1899 23.4404C35.1658 22.7558 33.9616 22.3904 32.7297 22.3904C31.0802 22.3904 29.4981 23.0449 28.3308 24.2104C27.1634 25.3758 26.5063 26.9568 26.5036 28.6063ZM26.3292 38.5866C26.3191 37.8818 26.1011 37.1956 25.7025 36.6141C25.304 36.0326 24.7426 35.5818 24.0889 35.3181C23.4351 35.0544 22.718 34.9896 22.0276 35.1318C21.3372 35.274 20.7041 35.6169 20.2077 36.1175C19.7114 36.6181 19.3739 37.2541 19.2375 37.9457C19.1012 38.6373 19.1721 39.3538 19.4414 40.0053C19.7106 40.6568 20.1663 41.2143 20.7511 41.6079C21.3359 42.0015 22.024 42.2136 22.7289 42.2177C23.2051 42.2205 23.677 42.1282 24.1171 41.9464C24.5572 41.7645 24.9565 41.4966 25.2918 41.1585C25.6271 40.8203 25.8915 40.4187 26.0697 39.9771C26.2478 39.5355 26.336 39.0628 26.3292 38.5866Z" fill="#95C227"/>
<path d="M23.0561 71.6714C24.0071 71.8896 24.8044 71.7348 25.0983 71.2971C25.1945 71.0819 25.2382 70.8469 25.2257 70.6115C25.2132 70.3761 25.1449 70.147 25.0265 69.9432C25.0022 69.8854 24.9799 69.827 24.9595 69.768L23.0561 71.6714Z" fill="#95C227"/>
<path d="M58.2358 48.5017C58.4436 48.2939 58.7253 48.1772 59.0191 48.1772C59.313 48.1772 59.5947 48.2939 59.8025 48.5017C60.0102 48.7094 60.1269 48.9912 60.1269 49.285C60.1269 49.5788 60.0102 49.8606 59.8025 50.0683C59.5947 50.2761 59.313 50.3928 59.0191 50.3928C58.7253 50.3928 58.4436 50.2761 58.2358 50.0683C58.0281 49.8606 57.9114 49.5788 57.9114 49.285C57.9114 48.9912 58.0281 48.7094 58.2358 48.5017Z" fill="#95C227"/>
<path fill-rule="evenodd" clip-rule="evenodd" d="M31.1141 63.6134C31.7742 63.8996 32.4468 64.1567 33.1298 64.3837C33.4982 64.5115 33.8186 64.7491 34.0478 65.0646C34.277 65.38 34.4041 65.7581 34.4119 66.148L34.494 72.1792C34.5089 72.9827 34.2809 73.7719 33.8398 74.4436C33.3988 75.1152 32.7652 75.6381 32.022 75.9437C31.5338 76.0829 31.0892 76.3444 30.7302 76.7034C30.3713 77.0624 30.1098 77.5069 29.9705 77.9951C29.9621 78.4714 30.0697 78.9426 30.2842 79.3679C30.4986 79.7932 30.8134 80.16 31.2014 80.4364C32.4149 81.3533 33.8434 81.9433 35.3503 82.1498C36.8572 82.3564 38.3918 82.1725 39.8073 81.616C40.2814 81.5077 40.7114 81.258 41.0405 80.9C41.3695 80.5419 41.582 80.0923 41.6499 79.6107C41.7177 79.1292 41.6377 78.6384 41.4204 78.2034C41.203 77.7683 40.8587 77.4095 40.4329 77.1745C39.8461 76.6698 39.417 76.0067 39.1969 75.2646C38.9768 74.5225 38.9751 73.7327 39.1918 72.9896L40.9458 66.9891C41.0564 66.6121 41.2819 66.2791 41.5908 66.0363C41.8997 65.7936 42.2766 65.6534 42.669 65.6351H43.0383C43.4431 65.6033 43.8474 65.7029 44.191 65.9191C44.5347 66.1353 44.7995 66.4566 44.9462 66.8352L46.4232 70.5278C46.6324 71.0717 46.6748 71.6656 46.5451 72.2338C46.4154 72.8019 46.1194 73.3186 45.6949 73.7178C45.4808 73.865 45.3086 74.0652 45.1954 74.299C45.0821 74.5328 45.0315 74.7921 45.0487 75.0513C45.2231 75.8924 46.8335 76.4565 48.6901 76.077C50.5466 75.6975 51.7467 74.4461 51.5724 73.646C51.489 73.4227 51.3518 73.2234 51.1728 73.0659C50.9939 72.9085 50.7787 72.7977 50.5466 72.7434C50.0175 72.5494 49.5564 72.2055 49.2194 71.7538C48.8825 71.3021 48.6843 70.762 48.649 70.1996L48.3721 66.0967C48.3626 65.6981 48.4795 65.3067 48.7062 64.9787C48.9328 64.6507 49.2575 64.4029 49.6337 64.2709C50.3983 63.9916 51.1481 63.6732 51.8801 63.3169C52.2298 63.1472 52.6234 63.0896 53.0072 63.152C53.3909 63.2145 53.7459 63.3939 54.0238 63.6657L58.3524 67.8712C58.9323 68.4281 59.3299 69.1476 59.4929 69.9349C59.6558 70.7223 59.5765 71.5405 59.2653 72.2818C59.0128 72.7294 58.8801 73.2347 58.8801 73.7486C58.8801 74.2626 59.0128 74.7678 59.2653 75.2154C60.3731 76.6719 63.4606 76.2719 66.0044 74.3435C68.5482 72.4152 69.7585 69.5431 68.6507 68.0866C68.3275 67.7487 67.9274 67.4939 67.4845 67.3439C67.0416 67.1939 66.569 67.1531 66.1069 67.225C65.3395 67.277 64.5729 67.1123 63.8945 66.7495C63.2162 66.3868 62.6536 65.8407 62.2707 65.1735L59.2551 59.6551C59.0608 59.3071 58.9811 58.9069 59.0271 58.511C59.0731 58.1152 59.2426 57.7439 59.5115 57.4498L59.9936 56.8856C60.2547 56.571 60.6104 56.3492 61.0078 56.253C61.4051 56.1569 61.8229 56.1917 62.1989 56.3523L65.912 57.9421C66.4485 58.1689 66.905 58.5507 67.223 59.0387C67.541 59.5267 67.706 60.0985 67.6968 60.6808C67.6489 60.9432 67.6701 61.2136 67.7582 61.4653C67.8463 61.7171 67.9984 61.9416 68.1994 62.1168C68.4169 62.2093 68.6533 62.2482 68.8889 62.2304C69.1245 62.2125 69.3524 62.1384 69.5534 62.0143C70.3312 61.5814 70.9849 60.956 71.4519 60.1981C71.9188 59.4402 72.1834 58.5751 72.2203 57.6857C72.2423 57.4512 72.2072 57.2148 72.1179 56.9969C72.0286 56.7789 71.8877 56.5859 71.7074 56.4343C71.49 56.3419 71.2535 56.3029 71.0179 56.3208C70.7823 56.3386 70.5545 56.4127 70.3534 56.5369C69.8467 56.7796 69.2804 56.87 68.7232 56.7972C68.1661 56.7244 67.6421 56.4914 67.2147 56.1266L64.0555 53.4597C63.7444 53.1914 63.5277 52.8303 63.4372 52.4297C63.3467 52.029 63.3873 51.6098 63.5529 51.2339C63.8298 50.6082 64.0863 49.962 64.3119 49.3158C64.4397 48.9474 64.6773 48.627 64.9928 48.3977C65.3082 48.1685 65.6863 48.0414 66.0762 48.0336L72.1074 47.9515H72.169C72.9623 47.9476 73.7386 48.1808 74.3984 48.6213C75.0582 49.0618 75.5713 49.6894 75.8719 50.4235C75.9645 50.9191 76.2083 51.3737 76.5698 51.7251C76.9312 52.0765 77.3926 52.3074 77.8905 52.3861C78.3884 52.4648 78.8985 52.3874 79.3506 52.1645C79.8028 51.9417 80.1749 51.5843 80.4158 51.1416C81.3568 49.9595 81.9499 48.5388 82.1288 47.0386C82.3762 45.5521 82.2094 44.0261 81.6467 42.628C81.4811 42.1775 81.2074 41.7745 80.8498 41.4544C80.4921 41.1343 80.0613 40.9068 79.5953 40.792C79.1241 40.7837 78.6579 40.8894 78.2364 41.1001C77.8149 41.3109 77.4506 41.6204 77.1745 42.0023C76.6698 42.5892 76.0067 43.0183 75.2646 43.2384C74.5225 43.4584 73.7327 43.4602 72.9896 43.2434L66.9891 41.4792C66.6137 41.3692 66.2818 41.1453 66.0392 40.8384C65.7967 40.5315 65.6554 40.1569 65.6351 39.7662C65.6146 39.397 65.5838 39.0277 65.5428 38.6584C65.4946 38.2526 65.5808 37.8422 65.7884 37.4902C65.9959 37.1381 66.3132 36.8639 66.6916 36.7096L70.415 35.1402C70.9525 34.9138 71.5455 34.8534 72.1176 34.9668C72.6897 35.0801 73.2149 35.362 73.6255 35.7761C73.7813 35.9837 73.9873 36.1481 74.2242 36.254C74.4611 36.3598 74.721 36.4037 74.9795 36.3813C75.7796 36.1762 76.3335 34.5555 75.8616 32.7092C75.3898 30.8629 74.1486 29.7038 73.3383 29.909C73.1236 29.9992 72.9334 30.1394 72.7836 30.3177C72.6337 30.4961 72.5286 30.7076 72.4767 30.9347C72.2848 31.4593 71.9456 31.9173 71.4999 32.2539C71.0541 32.5905 70.5207 32.7913 69.9637 32.8323L65.8608 33.2426C65.4513 33.2793 65.0409 33.1835 64.69 32.9693C64.3391 32.755 64.0663 32.4337 63.9119 32.0527C63.7969 31.7652 63.6722 31.4745 63.5415 31.186L61.4035 33.324C61.7819 35.3671 61.5609 37.4773 60.7654 39.3991C59.9513 41.3658 58.5722 43.0468 56.8025 44.2296C55.0328 45.4124 52.9521 46.0437 50.8236 46.0437V46.0539C50.159 46.0533 49.5008 45.9913 48.8565 45.8709L44.3377 50.3898C45.0357 49.9037 45.8293 49.5637 46.6711 49.3954C47.8761 49.1544 49.1256 49.2761 50.2616 49.7449C51.3976 50.2138 52.3691 51.009 53.0534 52.0298C53.7376 53.0507 54.1039 54.2514 54.1059 55.4804V55.4906C54.1032 57.1384 53.4474 58.7178 52.2823 59.883C51.1172 61.0481 49.5377 61.7038 47.89 61.7066C46.661 61.7066 45.4597 61.3423 44.4377 60.6597C43.4157 59.9771 42.619 59.0069 42.1482 57.8717C41.6775 56.7365 41.5538 55.4872 41.7928 54.2817C41.9604 53.4364 42.3011 52.6391 42.7892 51.9383L36.3647 58.3627C36.7977 58.3605 37.2288 58.4458 37.6314 58.616C38.2175 58.8637 38.7168 59.28 39.0658 59.812C39.4149 60.344 39.5979 60.9677 39.5919 61.604C39.5837 62.4501 39.2419 63.2589 38.6407 63.8543C38.0395 64.4498 37.2275 64.7838 36.3813 64.7837C35.745 64.7837 35.1231 64.5946 34.5945 64.2405C34.0659 63.8863 33.6544 63.3831 33.4123 62.7946C33.25 62.4 33.1688 61.9791 33.171 61.5565L31.1141 63.6134ZM62.3117 49.326C62.3239 48.6894 62.1466 48.0636 61.8022 47.5281C61.4578 46.9925 60.962 46.5715 60.3777 46.3184C59.7935 46.0654 59.1472 45.9918 58.521 46.107C57.8948 46.2222 57.317 46.521 56.861 46.9653C56.405 47.4097 56.0915 47.9797 55.9602 48.6027C55.829 49.2257 55.8859 49.8737 56.1239 50.4643C56.3618 51.0549 56.7699 51.5613 57.2964 51.9194C57.8229 52.2774 58.444 52.4708 59.0807 52.475C59.9251 52.4751 60.7356 52.1425 61.3365 51.5492C61.9374 50.956 62.2804 50.1499 62.2912 49.3055L62.3117 49.326Z" fill="#95C227"/>
<path d="M50.7667 43.9608C50.7856 43.9611 50.8046 43.9613 50.8236 43.9615C52.5404 43.9736 54.2222 43.4757 55.6556 42.5308C57.089 41.5858 58.2095 40.2364 58.875 38.6538C59.3398 37.5483 59.568 36.3639 59.5517 35.1757L50.7667 43.9608Z" fill="#95C227"/>
<path d="M71.7594 22.968C71.905 23.0099 72.0486 23.0601 72.1895 23.1187C72.6371 23.3712 73.1423 23.5039 73.6563 23.5039C74.1702 23.5039 74.6755 23.3712 75.1231 23.1187C76.086 22.3863 76.2375 20.7887 75.6724 19.055L71.7594 22.968Z" fill="#95C227"/>
<path d="M35.7351 60.6624C35.9173 60.5406 36.1315 60.4757 36.3506 60.4757L36.3813 60.4962C36.6662 60.5041 36.9372 60.6215 37.1378 60.824C37.3383 61.0265 37.4532 61.2985 37.4583 61.5835C37.4583 61.8026 37.3934 62.0168 37.2716 62.1989C37.1499 62.3811 36.9769 62.5231 36.7745 62.6069C36.5721 62.6908 36.3493 62.7127 36.1344 62.67C35.9195 62.6272 35.7222 62.5217 35.5672 62.3668C35.4123 62.2119 35.3068 62.0145 35.2641 61.7996C35.2213 61.5847 35.2432 61.362 35.3271 61.1595C35.4109 60.9571 35.5529 60.7841 35.7351 60.6624Z" fill="#95C227"/>
<path d="M47.8285 51.357C47.017 51.357 46.2237 51.5976 45.549 52.0484C44.8743 52.4993 44.3484 53.14 44.0379 53.8898C43.7273 54.6395 43.6461 55.4644 43.8044 56.2603C43.9627 57.0562 44.3535 57.7873 44.9273 58.3611C45.5011 58.9349 46.2321 59.3256 47.028 59.4839C47.8239 59.6423 48.6489 59.561 49.3986 59.2505C50.1483 58.9399 50.7891 58.414 51.2399 57.7393C51.6907 57.0646 51.9314 56.2714 51.9314 55.4599C51.9261 54.3858 51.4999 53.3567 50.7443 52.5934C49.9887 51.8301 48.9639 51.3936 47.89 51.3775L47.8285 51.357Z" fill="#95C227"/>
</svg>
