<svg width="84" height="85" viewBox="0 0 84 85" fill="none" xmlns="http://www.w3.org/2000/svg">
<path d="M45.3564 72.373L47.3569 73.8137C50.2247 75.8281 51.8018 78.628 51.6456 81.5175L51.5396 83.9038L52.4811 81.556C53.5109 79.0989 53.3691 75.3784 52.1527 72.6228L51.4431 71.0161L53.6967 72.0054C56.917 73.375 59.0374 75.7825 59.4802 78.6425L59.8686 80.999L60.3052 78.5043C60.8057 75.8846 59.9005 72.2764 58.142 69.8363L57.1164 68.4125L59.525 68.9078C62.9572 69.5723 65.5275 71.4831 66.5507 74.188L67.4166 76.4117L67.3289 73.8796C67.2787 71.2125 65.6487 67.8725 63.4258 65.8542L62.1292 64.6767L64.5873 64.6567C68.0814 64.5872 70.9898 65.917 72.5481 68.3489L73.8529 70.3417L73.2457 67.8839C72.6467 65.2866 70.3639 62.361 67.7733 60.8529L66.2621 59.9727L68.6625 59.4382C72.0659 58.6366 75.185 59.3286 77.2104 61.3799L78.8976 63.0558L77.7965 60.779C76.6752 58.3636 73.8389 55.98 70.994 55.048L69.3344 54.5052L71.5721 53.4786C74.7355 51.9814 77.929 52.0042 80.3333 53.5854L82.3298 54.8717L80.7836 52.8749C79.1882 50.747 75.9227 49.011 72.9477 48.696L71.2129 48.5126L73.19 47.039C75.9757 44.9119 79.1041 44.2635 81.7818 45.307L84 46.1459L82.0759 44.5176C80.0766 42.771 76.5245 41.7569 73.5495 42.0727L71.8147 42.2561L73.4443 40.4004C75.7307 37.7355 78.6573 36.4461 81.4917 36.9057L83.8341 37.2607L81.6159 36.0718C79.3004 34.7824 75.6169 34.5354 72.7721 35.4674L71.1124 36.0106L72.3238 33.8544C74.0107 30.7681 76.6074 28.8935 79.4745 28.7478L81.8391 28.6049L79.4242 27.9069C76.8933 27.1313 73.2395 27.6623 70.649 29.1696L69.1377 30.0494L69.8785 27.6858C70.8924 24.3137 73.0455 21.9359 75.8203 21.1925L78.1038 20.5566L75.5979 20.3803C72.9622 20.1517 69.4976 21.4364 67.2748 23.4547L65.9782 24.6322L66.2154 22.1653C66.5114 18.6533 68.1274 15.8766 70.6883 14.5671L72.7908 13.467L70.3031 13.8193C67.6779 14.1485 64.5542 16.1319 62.796 18.572L61.7705 19.9958L61.4939 17.5328C61.0596 14.0365 62.0673 10.9801 64.3022 9.16367L66.1316 7.64647L63.7709 8.51249C61.2711 9.38479 58.6249 11.9797 57.4081 14.7352L56.6985 16.3432L55.9199 13.9918C54.774 10.6628 55.13 7.46227 56.9415 5.21691L58.4185 3.34939L56.288 4.69102C54.0227 6.0684 51.9689 9.16131 51.3469 12.1117L50.9842 13.8331L49.7379 11.6969C47.9306 8.6798 47.619 5.47574 48.9277 2.89889L49.9871 0.76273L48.1799 2.52145C46.248 4.34422 44.877 7.80083 44.877 10.8168V12.5759L43.2174 10.7476C40.8282 8.17669 39.8627 5.10655 40.6113 2.31213L41.2064 0L39.8015 2.10044C38.2875 4.28727 37.6593 7.95557 38.2813 10.9067L38.6435 12.6273L36.6435 11.1867C33.7757 9.1723 32.1986 6.37238 32.3548 3.48173L32.4603 1.09537L31.5189 3.44443C30.4895 5.90147 30.6313 9.62082 31.8473 12.3764L32.5569 13.9843L30.3033 12.9946C27.083 11.6254 24.9626 9.21747 24.5197 6.35785L24.1314 4.00134L23.6952 6.4957C23.1947 9.11457 24.0995 12.724 25.8584 15.1641L26.8836 16.5871L24.4753 16.0914C21.0431 15.4273 18.4729 13.5169 17.4497 10.8116L16.5838 8.58828L16.6715 11.12C16.7217 13.7871 18.3517 17.1271 20.5746 19.145L21.8712 20.3225L19.4131 20.3425C15.919 20.4125 13.0106 19.0822 11.4523 16.6515L10.1471 14.6579L10.7547 17.1153C11.3537 19.7137 13.6365 22.6393 16.2271 24.1475L17.7379 25.0273L15.3378 25.5618C11.9345 26.3626 8.8154 25.6718 6.79003 23.6204L5.10236 21.9442L6.20345 24.221C7.32519 26.6368 10.1615 29.0192 13.0063 29.9512L14.666 30.4952L12.4283 31.5214C9.26448 33.019 6.07103 32.9958 3.66669 31.4142L1.67015 30.1283L3.21643 32.1243C4.8118 34.2522 8.07731 35.9882 11.0523 36.3036L12.7874 36.4878L10.8104 37.9606C8.02433 40.0885 4.89593 40.7358 2.21816 39.6926L0 38.8541L1.9241 40.482C3.92336 42.2294 7.47554 43.2427 10.4505 42.9273L12.1857 42.7439L10.5556 44.5989C8.26933 47.2645 5.34268 48.5531 2.50834 48.0943L0.165924 47.7385L2.38409 48.9282C4.70001 50.2179 8.38345 50.4646 11.2283 49.5326L12.8879 48.989L11.6762 51.146C9.98933 54.2319 7.39258 56.1069 4.52552 56.2518L2.16091 56.3944L4.57576 57.0931C7.10669 57.8687 10.7605 57.3377 13.351 55.83L14.8623 54.9498L14.1218 57.3134C13.108 60.6863 10.9549 63.0644 8.18013 63.8075L5.89654 64.4434L8.40253 64.6201C11.0382 64.8479 14.5028 63.5629 16.7256 61.5445L18.0222 60.367L17.785 62.8351C17.489 66.3459 15.873 69.1234 13.3121 70.4321L11.2096 71.533L13.6973 71.181C16.3225 70.8519 19.4462 68.8673 21.2044 66.4272L22.2299 65.0042L22.5069 67.4676C22.9411 70.9639 21.9331 74.0191 19.6982 75.8363L17.8684 77.3535L20.2291 76.4875C22.7289 75.6156 25.3755 73.0195 26.5922 70.2644L27.3015 68.6572L28.0801 71.0074C29.226 74.3376 28.87 77.5369 27.0585 79.7831L25.5815 81.651L27.712 80.3086C29.9773 78.9316 32.0311 75.8379 32.6531 72.8876L33.0158 71.1669L34.2621 73.3035C36.0694 76.3198 36.381 79.5247 35.0723 82.1011L34.0129 84.2377L35.8201 82.4778C37.752 80.6562 39.123 77.1996 39.123 74.1832V72.4237L40.7826 74.2524C43.1718 76.8237 44.1373 79.8934 43.3891 82.6879L42.7932 85L44.1981 82.8996C45.7121 80.7119 46.3403 77.0444 45.7187 74.0937L45.3561 72.373" fill="#95C227"/>
</svg>
