<svg width="69" height="57" viewBox="0 0 69 57" fill="none" xmlns="http://www.w3.org/2000/svg">
<path fill-rule="evenodd" clip-rule="evenodd" d="M68.9354 9.15845C68.788 7.2205 68.0657 5.37061 66.8609 3.84554C65.7586 2.53792 64.2993 1.57968 62.6613 1.08788C60.86 0.527811 58.9203 0.608261 57.1715 1.31558C56.2361 1.67269 55.3774 2.20508 54.6416 2.88415C54.6416 1.08788 53.4273 0 51.2516 0H17.7055C15.5045 0 14.3155 1.08788 14.3155 2.88415C13.582 2.20205 12.7227 1.66928 11.7856 1.31558C10.0456 0.608033 8.11382 0.527538 6.32106 1.08788C4.67731 1.56726 3.21468 2.5277 2.12147 3.84554C0.905681 5.36427 0.181989 7.21769 0.0469722 9.15845C-0.108675 11.1324 0.123371 13.1178 0.730037 15.0027C1.79823 18.4072 3.81706 21.4355 6.54875 23.731C9.25516 25.8144 12.2344 27.5169 15.4033 28.7909C17.6886 29.6682 19.8226 30.8974 21.728 32.4341C24.6373 37.2663 28.6345 40.53 28.7357 44.1225C28.7357 46.8043 27.319 49.1824 23.1447 51.7124C20.6148 53.3063 18.4139 54.6471 18.085 57H50.9733C50.5432 54.6471 48.4434 53.3063 45.9136 51.7124C41.7393 49.0559 40.2467 46.6525 40.3226 44.1225C40.3226 40.53 44.4209 37.2663 47.305 32.4341C49.2234 30.9029 51.3649 29.6743 53.655 28.7909C56.8207 27.5104 59.7991 25.8084 62.5095 23.731C65.234 21.4341 67.2443 18.4054 68.3029 15.0027C68.9058 13.1172 69.1209 11.1292 68.9354 9.15845ZM17.2501 24.7683C14.4489 23.6193 11.8119 22.1051 9.4075 20.265C7.34936 18.5258 5.83088 16.2349 5.03082 13.6618C4.58645 12.3439 4.41431 10.9496 4.52485 9.56325C4.57657 8.52369 4.94761 7.52537 5.58739 6.70439C6.13751 6.10327 6.84882 5.67296 7.63659 5.46471C8.27912 5.26732 8.96274 5.24533 9.61662 5.40103C10.2705 5.55672 10.8709 5.88443 11.3555 6.3502C11.6602 6.64382 11.8863 7.00916 12.0133 7.41278C12.1966 8.07639 12.143 8.78315 11.8615 9.41145C11.6132 9.95495 11.591 10.5748 11.7998 11.1347C12.0085 11.6945 12.4311 12.1485 12.9746 12.3968C13.5181 12.6451 14.1379 12.6673 14.6978 12.4585C15.2576 12.2497 15.7116 11.8271 15.9599 11.2836C16.6723 16.0869 17.635 20.8497 18.8439 25.5526L17.2501 24.7683ZM63.9516 13.6618C63.1515 16.2349 61.633 18.5258 59.5749 20.265C57.1705 22.1051 54.5335 23.6193 51.7323 24.7683L50.1385 25.4767C51.4287 20.9987 52.1624 15.9893 53.0225 11.2077C53.2708 11.7512 53.7248 12.1738 54.2846 12.3826C54.8444 12.5914 55.4643 12.5692 56.0078 12.3209C56.5512 12.0726 56.9739 11.6186 57.1826 11.0588C57.3914 10.4989 57.3692 9.87905 57.1209 9.33555C56.8447 8.70668 56.7825 8.00453 56.9438 7.33688C57.0708 6.93326 57.2969 6.56792 57.6016 6.2743C57.9585 5.92668 58.3795 5.65173 58.8412 5.46471C59.6574 5.16249 60.5549 5.16249 61.3711 5.46471C62.1752 5.69357 62.8957 6.15052 63.4456 6.78029C64.0729 7.60819 64.4424 8.60251 64.5081 9.63915C64.5804 11.0032 64.3915 12.3686 63.9516 13.6618Z" fill="#95C227"/>
</svg>
